<?xml version="1.0" encoding="UTF-8"?>
<svg width="222px" height="149px" viewBox="0 0 222 149" version="1.1" xmlns="http://www.w3.org/2000/svg">
    <path d="M175.2909,0.234526816 C176.263101,0.488864987 177.218074,1.07444995 177.836256,1.87018436 C178.666918,2.93914678 179.030733,4.47900586 179.642497,5.69368988 L184.58086,14.9277846 C186.96272,14.5253636 189.837773,14.3003721 192.017626,13.2880792 C191.810889,12.7760297 191.35384,11.9580323 191.389985,11.4068538 C191.416334,11.0057821 191.712926,10.6165165 192.006478,10.3577932 C192.849638,9.61602973 194.646082,9.81538498 195.713206,9.85552588 C197.420808,9.91995372 198.948022,10.385116 200.11311,11.7232586 C200.701903,12.3989076 201.018088,13.2934763 200.940055,14.1897317 C200.742777,16.4581988 197.533635,18.8268495 195.456137,19.3800518 C193.886698,19.7976522 192.14464,19.5615292 190.587361,20.0013926 C189.806695,20.2223362 189.116899,20.7262901 188.508513,21.244074 C190.594455,24.646606 192.376036,28.0875923 194.137349,31.6638434 C196.586431,36.6365931 199.150029,41.7452822 199.448986,47.3906451 C199.544922,49.1966485 199.285151,50.9928697 198.986194,52.7681771 C198.833168,53.6765759 198.70683,54.7445264 198.024802,55.4289457 C197.684633,55.7706493 197.304265,55.8161873 196.846203,55.8546416 C194.36638,56.0620925 191.785216,55.6724896 189.300326,55.5719687 L180.975135,55.4394025 C181.556159,57.4127159 181.847009,59.6235016 182.044624,61.6683265 C182.058812,61.8147227 182.171977,63.1707432 182.182449,63.1798508 C182.268251,63.2540609 182.409115,63.1892957 182.522618,63.1943555 L185.564209,63.3805553 C188.533848,63.6827927 191.446736,64.2171053 194.316047,65.0435357 C195.564572,65.4031172 197.168468,65.8699661 198.084932,66.8174938 C199.441892,68.2200642 201.489325,69.1716398 203.107071,70.2770326 C205.685194,72.0388473 208.046785,74.1538345 210.148942,76.4570454 C216.326035,83.2236551 220.530011,91.7551153 221.684627,100.880593 C222.061279,103.856417 222.052496,106.802895 221.906565,109.792886 C221.46269,118.884295 217.895812,128.244884 212.073752,135.254701 C210.757328,136.839761 209.242951,138.291579 207.712697,139.670538 C200.416796,146.245213 191.430521,149.460533 181.635881,148.946797 C172.387808,148.461396 163.70522,144.010815 157.548396,137.134914 C149.417105,128.053287 146.142428,116.448181 146.834252,104.400175 C147.291639,96.432374 149.781596,88.9860675 154.341618,82.4258967 C155.505017,80.7521222 156.927173,78.8604399 158.472629,77.5121777 L158.585118,77.4163793 L154.470659,65.8240907 L154.433839,65.6905126 C153.417047,66.6100429 152.247906,67.3997056 151.171999,68.2537961 C150.494448,68.791524 149.812135,69.3238126 149.12805,69.8540135 L147.073465,71.4417039 C142.965609,74.6179637 138.901505,77.839714 135.526585,81.8308669 C133.946336,83.6996115 132.497155,85.6601068 131.602986,87.9575833 C130.065976,91.9075833 131.03311,96.2033347 132.23164,100.104423 C133.950389,105.699189 136.515001,110.975188 139.812986,115.812335 C140.473056,116.78044 141.202038,117.718185 141.971556,118.60196 C142.641423,119.371383 143.761582,120.365798 144.125736,121.307929 C144.229104,121.576097 144.190932,121.537643 144.090266,121.773091 C143.847047,121.806486 143.615313,121.844265 143.371418,121.795691 C141.441203,121.412835 139.475857,120.703454 137.564897,120.199838 L128.280004,117.712451 C127.161195,117.376819 125.859973,117.074581 124.830007,116.543305 C124.453017,116.348672 124.39863,116.353394 124.267224,115.954684 L124.520916,115.673023 C124.747245,115.622088 124.893514,115.60421 125.119167,115.678083 L127.780053,116.637417 L143.029898,120.860645 C137.918241,115.994487 134.569585,109.42757 132.179956,102.85728 C131.052365,99.7579974 130.077799,96.675918 129.897074,93.3597395 C129.608589,88.0668745 132.460672,83.8480317 135.863714,80.0704015 C139.200546,76.3663067 143.136644,73.3115501 147.094699,70.3057047 L153.152884,65.6463239 C156.564709,63.0867509 159.790066,60.4000088 163.578543,58.3845306 C166.210716,56.9836467 168.928353,56.0843556 171.839552,55.4609909 C175.206003,54.7398346 178.678258,54.6836794 182.15135,54.6948799 L184.554642,54.7060502 C186.155205,54.7108781 187.750787,54.7006749 189.331067,54.6166826 C186.586068,53.9214691 183.774521,53.2687578 180.941693,53.0609696 C176.280329,52.7185913 171.580456,53.2893342 166.919767,53.4596801 C165.638813,53.5065674 158.192251,53.6323872 157.63082,53.1108927 L157.721014,52.6440439 C158.297984,52.3202181 161.917559,52.6217809 162.825915,52.6342616 C167.820354,52.7017253 172.804321,52.3252779 177.790315,52.0604828 L177.585943,51.9016058 C176.158719,50.9588005 174.225464,50.2855127 172.657038,49.5757945 L155.186805,42.2327075 L149.787676,40.178775 C148.676299,39.7928826 147.539925,39.3631388 146.359636,39.2508117 C144.810465,39.1037408 142.967742,39.4339757 141.405396,39.5790226 L131.200323,40.809898 C127.724991,41.2814693 124.274318,41.7540525 120.861818,42.5845307 C119.634236,42.8833949 117.49965,43.2686127 116.799043,44.4219048 C116.880792,44.750453 116.974702,44.9073061 117.268592,45.0968791 C117.63815,45.3346887 118.203972,45.4429679 118.629268,45.5438262 L121.832668,46.2019346 L128.570853,47.5802181 C132.024566,48.2032455 143.978791,49.6968919 146.033993,51.6627843 C146.43598,52.0476647 146.67751,52.5482454 146.659269,53.1139286 C146.642717,53.6263154 146.383958,54.0260379 146.020819,54.3707774 C144.970247,55.3685656 143.252849,55.9993513 141.958044,56.6308116 L136.14747,59.5196074 L118.735001,69.2778951 C115.504239,71.2505339 112.178892,73.1543597 109.353833,75.698416 C108.580936,76.3946415 107.824592,77.1461871 107.145267,77.9334886 C107.038521,78.0569472 106.633831,78.4603801 106.595322,78.5973315 C106.559177,78.7251752 108.029977,80.4650641 108.215094,80.6866824 C113.958108,87.5595474 119.726457,95.0365499 122.032648,103.852707 C122.571446,105.912711 122.985932,108.059069 122.842027,110.199018 C122.767373,111.312844 122.357616,112.612869 121.443179,113.321913 C120.502056,114.051195 119.245761,114.057267 118.110738,114.043437 C115.916698,114.017464 113.778058,113.683855 111.603273,113.444022 L92.342338,111.016341 L79.8611387,109.76725 C77.5900793,109.518984 75.2227456,109.389453 73.0013434,108.830179 C70.7819681,108.27158 68.6740682,107.056896 66.7455426,105.84997 C66.5583989,106.06754 66.4874599,106.679436 66.402671,106.973241 C66.2053932,107.657323 65.9547423,108.333984 65.7037536,108.99985 C64.7457401,111.537835 63.6191622,113.949325 62.2084908,116.270751 C57.7876438,123.547387 50.2701432,130.080235 41.8321255,132.083907 C33.9720913,133.95029 24.7209782,133.288134 17.7741645,128.972818 C8.77650617,123.38345 3.32684188,113.853527 1.01078691,103.744428 C-1.37958504,93.3111657 0.511478134,82.1115159 6.24067562,73.0491163 C10.9450757,65.6075322 18.4780139,58.9809098 27.2426885,57.0140054 C31.2797897,56.1079678 35.4428919,56.3052992 39.4539821,57.2005426 C43.1755739,58.0313581 46.6644184,59.3145178 50.0164521,61.1353632 C52.8759669,62.688715 55.5007076,64.6546074 58.1146385,66.5817082 L63.4522868,70.459522 C65.2352188,71.7980019 66.9559947,73.2508328 68.8379034,74.4483136 C70.9522216,72.7866825 72.7571108,71.1651923 74.513694,69.1217167 C75.1876139,68.3377884 75.4831928,67.2263239 75.8899094,66.2825066 C76.6763182,64.4569387 77.5471781,62.7835015 78.0201044,60.8405468 L77.3299698,60.4657859 C76.4847831,60.0002863 75.828429,59.2166954 75.132214,58.5558884 L71.6629621,55.345628 L60.5839891,45.8420158 L49.3347627,37.0852268 L38.1331667,27.9863968 C37.8136036,28.4438007 37.3700664,29.1342917 36.9049096,29.4446248 C36.2333543,29.8929211 33.2687824,29.7795821 32.2421946,29.9634207 C30.9004353,30.2042661 29.7252135,30.5969049 28.5347906,31.2674941 C27.0700705,32.0919006 25.7225685,33.2117981 24.7145599,34.5624215 C24.0237498,35.4880235 23.444753,36.4918835 22.6316576,37.3203378 C21.9874645,37.1800133 21.1858545,36.5286512 20.5916564,36.1987537 C19.4160969,35.5453677 18.1827728,35.0080193 16.9687036,34.4315419 C16.2617126,34.09591 15.5195562,33.6331089 14.7647659,33.4388135 C13.1466825,33.0228997 10.9722014,33.2421568 9.28463165,33.2070756 C8.89659566,33.19898 8.12565831,33.2691423 7.79829201,33.100483 C7.66648071,33.032682 7.59003556,32.8899962 7.48589044,32.7844155 C7.26435827,31.9670927 7.50649651,31.1362772 7.63388257,30.3138946 C7.90625431,28.5551158 8.12366527,26.8084805 8.84146597,25.1637153 C11.8633651,24.8396055 14.8512791,25.2639989 17.8326552,25.7126346 L19.1100675,25.9042797 C19.7486535,25.9987329 20.3871194,26.0895482 21.0257352,26.1695992 L36.5144077,28.1078314 C36.8998426,27.9850475 37.2366336,27.6494156 37.5494405,27.395752 L34.7358672,24.7788349 L26.991362,16.2659272 C25.5100894,14.6086813 23.7386428,12.9173662 22.4803212,11.090449 C22.2445337,10.748408 22.0810363,10.4363884 22.0577278,10.0154149 C22.1485972,9.90308779 22.1492728,9.88790846 22.2904751,9.7958205 C22.7738733,9.47975304 23.6048723,9.48852332 24.1636009,9.488186 C25.2263337,9.48717405 26.2644068,9.5354106 27.3139653,9.70508182 C28.2307666,9.85350197 29.1482435,10.1088521 30.0792326,10.1361749 C32.0270132,10.1931817 34.0224241,9.99045329 35.9698669,9.89330556 C41.323392,9.6264866 47.2728042,9.44534655 52.3827724,11.2709144 C53.9042437,11.8143346 55.2466786,12.5625071 56.5374295,13.5326352 C59.7283304,15.9302953 62.4574527,19.0764652 64.9518009,22.1679895 C65.8142157,23.2369519 66.8283047,24.3872081 67.4032479,25.6413584 C67.5012111,25.854881 68.9375557,25.863314 69.2567809,25.8862516 C74.6136841,26.2745052 79.0254104,28.1091807 83.4668635,31.0414907 C83.9093874,28.8509442 84.2671223,26.7663157 85.0268445,24.646606 C85.9267556,22.1356069 87.1999407,18.8868922 89.0318543,16.9004233 C90.6715571,15.1224174 93.2773808,13.7613371 95.4460854,12.7480323 C100.688473,10.2987624 105.871069,9.76714843 111.596179,9.98067106 C116.851403,10.1766531 121.855301,11.060765 126.865616,12.6758461 C129.945042,13.6685745 132.863335,15.0741808 135.906615,16.1488777 C136.58898,16.3900604 137.317287,16.6228102 138.045931,16.6359656 C139.136701,16.6562047 140.195381,16.3634122 141.302028,16.4865335 C141.811099,16.543203 142.757965,17.0232073 143.225149,16.9557436 C143.824076,16.8687154 144.755741,16.1043516 145.355682,15.8446164 C146.73764,15.245876 147.869285,15.6884379 149.17017,16.1977889 C151.076062,15.3801287 153.986923,16.1903678 156.013075,16.2362432 C154.616253,15.2637538 153.213013,14.4744285 151.708432,13.6864524 C150.62027,13.1166809 147.248804,11.9138948 143.79019,10.6799313 L142.924992,10.3711391 C139.467104,9.13615877 136.105082,7.92015408 135.03508,7.32496228 C134.406763,6.97516297 133.766962,6.56397168 133.561577,5.84109808 C133.616976,5.19580773 133.812565,4.81699902 134.256102,4.34070526 C135.202631,3.32470185 136.477167,2.76070528 137.809468,2.45104687 C139.224531,2.1221613 140.726409,2.04761391 142.174915,1.94473176 L148.649275,1.51127745 L166.706275,0.0931903531 L171.784827,0.00380094305 C172.938092,0.00852340245 174.166011,-0.0602895773 175.2909,0.234526816 Z M152.99513,111.152955 C153.58899,118.624223 156.972439,126.678377 162.750585,131.617732 C167.342023,135.543108 172.724261,137.842946 178.843589,137.383855 C180.913317,137.228689 182.960075,136.57193 184.907179,135.883462 C185.217622,135.763714 186.067538,135.547156 186.258735,135.32149 C184.619708,135.524556 183.067834,135.806891 181.404485,135.715478 C178.934459,135.579538 176.675898,134.776046 174.393353,133.893283 C171.543973,132.791264 169.182719,131.788078 166.743433,129.886951 C164.269691,127.958838 161.976337,125.195525 160.463986,122.470329 C159.499217,120.731789 158.704025,118.867092 158.049698,116.989914 C157.866946,116.466059 156.710303,112.597015 156.514376,112.439825 C156.343447,112.302536 155.827282,112.173343 155.605682,112.087327 Z M189.324648,123.293048 C185.750002,125.680926 182.065568,126.746178 177.78491,125.851609 C175.697616,125.415457 173.557625,124.528983 171.726049,123.444504 C171.949676,127.032899 173.153949,130.304214 175.678699,132.911686 C177.597429,134.651238 180.179606,134.640781 182.641863,134.524406 C186.273598,134.352374 190.872806,133.487826 193.744482,131.110743 C192.594596,128.479321 191.051843,125.607728 189.324648,123.293048 Z M157.692976,112.463774 C159.645148,120.025781 162.920838,126.936089 169.930956,131.020004 L174.695688,133.2119 C172.179383,130.337609 170.838975,126.854457 170.8812,123.017122 C168.053439,120.803975 165.996886,118.259244 164.901386,114.809487 C164.793626,114.46947 164.649721,113.15123 164.474739,112.923202 C164.450079,112.89082 164.393328,112.91848 164.352791,112.916119 L163.749472,112.881037 C161.74359,112.762976 159.693116,112.499867 157.692976,112.463774 Z M189.880337,81.5481939 C188.778756,82.2562255 187.844051,83.0411657 187.04109,84.0821307 C186.254344,85.1015073 185.64562,86.2618831 184.788272,87.2242528 C184.652475,87.3767208 184.711928,87.3018361 184.586603,87.5099616 C190.338737,91.1472673 194.565685,95.8083347 196.072968,102.609351 C197.203938,107.711968 196.594538,114.023198 193.733334,118.496716 C193.038471,119.583219 192.229429,120.62216 191.338976,121.555858 C191.256349,121.642616 191.169534,121.727013 191.080602,121.810307 L190.538201,122.306883 C190.359992,122.4747 190.189901,122.648163 190.04451,122.837331 L190.149905,122.954043 C191.58929,124.571823 192.709449,126.753599 193.730294,128.658774 C193.987026,129.138104 194.213355,129.938898 194.569401,130.320743 L195.318313,129.633287 C201.308262,123.211417 204.066773,115.177165 203.78572,106.467263 C203.681338,103.227318 203.026673,99.9563407 201.881178,96.9224978 C201.489325,95.8845687 200.947149,94.8931896 200.584347,93.8478394 C200.473547,93.5277242 200.473885,93.1819727 200.376597,92.8517378 C200.086761,91.8677797 199.673288,90.9607302 199.042607,90.1488045 C199.289542,91.3095175 199.824962,92.4631469 200.246542,93.5735995 C198.948698,92.1963279 198.143034,90.7154996 197.142795,89.1398847 C195.540926,86.6160675 193.522207,83.8584885 191.010293,82.1799915 C190.698161,81.9715287 190.243814,81.5748421 189.880337,81.5481939 Z M196.485765,66.5881172 C191.099473,64.8171949 184.95785,63.7978183 179.288816,64.208335 C175.072678,64.4566014 170.075874,64.6714733 166.125927,66.2727244 L174.246408,87.6108198 C176.485714,93.6076686 179.18038,99.6942442 180.458295,105.985572 C180.741375,107.37971 180.992026,109.225179 180.404246,110.560961 C179.782686,111.974325 178.4112,113.067912 176.96945,113.555674 C173.348524,114.780815 169.216162,113.70713 165.581386,113.128292 C166.188421,116.757502 168.216599,119.95292 171.226436,122.100965 C174.35687,124.334688 178.937837,125.851947 182.790834,125.200585 C183.984973,124.998868 185.111551,124.58599 186.219212,124.110371 C190.369478,122.014274 193.374924,118.397545 194.806539,113.983394 C196.520221,108.699637 195.864881,102.646456 193.327969,97.7320623 C191.16298,93.5385183 187.870738,90.6642272 183.975515,88.1302904 C182.879339,87.4175363 181.771003,86.6551965 180.602199,86.0712981 C180.615036,86.7773058 180.818394,88.3417891 180.468767,88.9108455 C180.142785,89.0629761 180.112045,89.0670239 179.756675,89.0110291 C179.47731,88.3360547 179.588448,87.310269 179.600947,86.5759266 C179.636079,84.4737575 179.949223,82.1907857 179.59892,80.1145902 C179.383401,78.8364903 178.416942,78.2026688 178.964186,76.8044835 C179.877271,74.4709139 182.955345,72.7549745 185.010548,71.5804314 C187.337683,70.2510591 189.771564,69.0026432 192.273344,68.0311659 Z M21.8354525,74.6004442 L20.45417,74.6840992 C16.7182891,75.25889 13.7244295,77.4733861 11.5260994,80.4728225 C7.28155252,86.2642443 6.16119023,94.041123 7.25493353,101.028339 C8.22612136,107.232301 11.4088137,114.172967 16.6328584,117.919227 C19.9761767,120.31655 24.4149274,122.047331 28.6050539,121.356165 L31.3166104,120.642399 C32.0195815,120.372207 33.2532434,119.967762 33.7569098,119.40444 C28.7006526,120.393796 24.2787922,119.497203 19.9940804,116.616165 C14.8268881,113.141447 11.6120031,107.195871 10.4648867,101.178783 C9.14396987,94.2495858 10.0989431,87.2033391 14.1409424,81.295205 C15.6136685,79.1421009 17.5002051,77.2052179 19.6937722,75.7790351 C20.3822177,75.3314135 21.134846,75.0204058 21.8354525,74.6004442 Z M24.3345299,74.8375791 C23.994023,74.7721393 23.6538539,74.695568 23.3092934,74.7647183 C21.8729488,75.4477884 20.4713981,76.1204015 19.1857143,77.0689412 C15.9741734,79.4382665 13.4955332,83.3221521 12.1819468,87.0505338 C9.85957485,93.6424125 10.5882529,101.506994 13.6271418,107.768975 C16.0089673,112.67696 19.7022173,116.318651 24.9280524,118.105089 C27.4899614,118.980768 30.3771762,119.297848 33.0566412,118.849551 C33.6488124,118.75038 34.3788078,118.658966 34.9098365,118.370222 C37.6338917,116.889393 39.9198145,113.765487 41.4142614,111.116524 C42.4452406,109.317267 43.3353554,107.388817 43.8917194,105.387169 C42.1726324,107.707246 40.6673757,109.554402 38.1115472,111.005884 C37.4869467,111.360405 36.816067,111.750346 36.0968813,111.853902 C34.7267464,112.051234 33.0106998,111.127993 31.8033866,110.53836 C29.1050045,109.220457 26.1610386,107.693753 23.7876245,105.845922 C21.5429138,104.098275 20.2562166,101.874334 19.9261817,99.0557002 C19.7062709,97.1791972 19.7508611,95.2750341 19.889361,93.3938087 C20.1261619,90.1781512 20.5173395,87.4930957 22.632671,84.9331854 C24.1014448,83.155854 26.0059864,81.8669599 28.0892265,80.9099873 C29.3897737,80.3129335 30.7426806,79.8636252 32.0256619,79.2206961 C30.4623029,76.9340138 27.0129815,75.3523272 24.3345299,74.8375791 Z M106.008555,79.5404741 C105.319434,81.2810377 104.928257,82.9244535 104.596533,84.7641888 C104.066855,87.7008839 104.086786,92.55962 100.880008,93.9314944 C99.9206434,94.3420111 98.9237824,94.6118659 97.9150983,94.868228 C96.8368264,95.1421306 95.4281818,95.3296797 94.7407497,96.2846285 C94.7691253,96.6722075 94.9103276,96.8783091 95.1917187,97.1339965 C96.3203234,98.1597822 98.3721477,98.43807 99.8057898,98.877596 L104.332032,100.403962 C105.419762,100.762869 108.075919,101.240512 108.682278,102.166452 C108.61573,102.538177 108.622486,102.605978 108.366093,102.875158 C107.334776,102.880555 106.202117,102.249769 105.250184,101.858143 C103.4784,101.12886 101.637366,100.291635 99.8152484,99.7138086 C97.4414964,98.961251 94.5397561,99.2803543 92.0592579,99.0860589 L88.0343177,98.7784244 C87.289121,98.711298 86.4435965,98.5284713 85.7034669,98.5848035 C84.987997,98.6391118 84.0874103,99.1302476 83.4168685,99.3960546 C81.9828885,99.9644363 80.3347405,100.358087 79.1034433,101.307976 C77.8069497,102.308463 76.0706348,102.751699 74.4312697,102.475773 L74.0998835,102.397515 L73.864096,102.339159 C72.7611645,102.060534 71.6930267,101.573446 70.6546158,101.116716 C67.5782306,99.7637318 64.5829184,97.9378266 61.9781082,95.8127199 C60.3826577,94.5110077 58.86524,93.0979803 57.4420698,91.610743 L54.9838667,88.9347951 L50.6045697,84.8906832 C50.1123886,84.4019087 47.074513,81.0337832 46.6819842,80.9396713 C46.6431367,80.9302264 46.1708861,81.1258711 46.1256203,81.1427371 C45.3148896,81.4439625 44.4622711,81.7306833 43.714372,82.1705466 C42.5901588,82.8316909 41.6098502,83.9242656 41.3156225,85.2161956 L41.1511117,86.3337319 L42.6587331,88.039889 C44.5514515,89.8377968 46.4049846,91.6532451 48.4899137,93.2318958 C52.419593,96.2070452 56.7941609,98.6937574 60.9842874,101.286725 L66.6259598,104.753347 C68.4224039,105.859078 70.2661407,107.01237 72.2564846,107.74064 C74.5555818,108.58225 77.1688371,108.583599 79.5838012,108.852105 L95.6957229,110.517784 L110.600669,112.42026 C113.242638,112.755892 116.052496,113.305721 118.710003,113.246016 C119.550123,113.227126 120.483814,113.087139 121.104361,112.466136 C121.887054,111.683219 121.981302,110.52453 121.943468,109.477493 C121.644511,101.22567 116.870658,92.9745218 111.871152,86.6086465 L108.536008,82.4913365 C107.695213,81.5124382 106.785506,80.5696329 106.008555,79.5404741 Z M173.100576,108.273941 C172.08446,107.546008 171.343317,106.97459 170.022164,107.191148 L169.840425,107.22623 C169.373579,107.470448 168.98409,107.731533 168.807081,108.253702 C168.301388,109.744987 168.96416,111.261908 169.445531,112.666503 C170.286327,112.862822 171.095706,113.042613 171.957783,113.118172 C173.875161,113.286494 176.06177,113.287169 177.759913,112.26678 C176.787374,111.946665 175.934079,111.610358 175.109837,110.978224 C174.609886,110.460102 174.18155,109.952438 173.772469,109.358757 L173.715718,109.454893 C173.368792,110.023275 172.951942,110.465162 172.285791,110.633147 C171.822661,110.749859 171.126109,110.784265 170.711622,110.500581 C170.343753,110.249278 170.074523,109.821558 170.02419,109.376973 C169.999868,109.160751 170.023177,108.934748 170.045134,108.719539 C170.368413,108.375811 170.492387,108.402459 170.94437,108.316443 L171.133202,108.491174 C171.148066,109.014018 171.086585,109.385743 171.378111,109.838762 C171.851713,109.95851 171.90745,109.873505 172.337475,109.676849 C172.705682,109.240359 172.885394,108.794086 173.100576,108.273941 Z M168.392933,94.1827967 L168.072356,94.1976387 C166.871123,94.6354782 165.895544,94.7899701 164.612563,94.8027882 C166.592773,97.3576387 167.161635,101.64833 166.763026,104.796187 C166.444476,107.310222 165.697591,109.635696 165.647934,112.205388 C166.658982,112.372024 167.75482,112.562609 168.776341,112.571716 C168.460156,112.121733 168.169306,111.69064 167.937572,111.189385 C167.472753,110.052622 167.420731,109.030884 167.913926,107.879953 C168.220315,107.164163 168.713509,106.673027 169.441815,106.382596 C170.220117,106.072263 171.189278,106.096213 171.957783,106.431844 C172.552995,106.691917 173.052945,107.124022 173.546478,107.536563 L168.392933,94.1827967 Z M162.993449,94.7355792 L162.863749,94.7511785 L162.691131,94.8297737 C162.711062,97.5418146 161.736496,100.179983 161.374031,102.86234 C161.057171,105.206704 161.274379,107.770999 160.711259,110.048911 C160.525804,110.798095 160.141383,111.258873 159.636365,111.818147 L163.414708,112.008394 L164.607834,112.059667 C164.991917,109.072374 165.992494,105.984223 166.049921,102.988834 C166.079985,101.40816 165.697929,99.6183475 165.209463,98.1226771 C164.856458,97.0422459 164.417312,95.8545474 163.772105,94.913766 C163.499159,94.8112212 163.161355,94.6901238 162.863749,94.7511785 Z M161.836486,95.5691759 C161.553743,95.3671221 161.497668,95.4281767 161.163241,95.4389709 C160.41264,95.544889 159.809997,95.4959778 159.32795,96.1402562 C157.327134,98.8128309 156.572141,101.897609 156.264063,105.157792 C156.16306,106.225743 156.15225,107.475508 155.812081,108.491174 C155.603993,109.113189 155.120595,109.600952 154.651047,110.036768 C154.479442,110.195645 154.104817,110.455043 154.042661,110.661481 L155.776274,111.259885 C156.556602,111.486225 157.710204,111.946665 158.477358,111.535811 C159.150265,111.175555 159.594815,110.600427 159.801552,109.878565 C159.979237,109.257224 160.017071,108.614633 160.061999,107.973053 C160.081,107.702523 160.098651,107.431456 160.11574,107.160035 L160.217871,105.528718 C160.30791,104.168184 160.42345,102.807947 160.663291,101.470901 C161.012581,99.5255849 161.741225,97.5438385 161.836486,95.5691759 Z M162.188816,60.1868235 C160.567354,61.2864819 158.959743,62.5834716 157.232887,63.4989541 C158.786111,68.8437662 160.658899,74.1002008 162.715453,79.2712939 C164.605807,84.0247866 167.086305,88.5505893 169.103673,93.2487617 C170.2289,95.8687147 171.015984,98.6650853 172.027371,101.33766 L173.638023,105.486003 C173.976503,106.320529 174.426458,107.222519 174.656165,108.089428 C174.723388,108.342754 174.688257,108.614633 174.653801,108.870995 C175.012887,109.494697 175.437845,110.057344 175.972589,110.542071 L176.49247,110.858475 C177.02485,111.149919 178.015631,111.458902 178.610166,111.239308 C179.091538,111.061204 179.425626,110.525542 179.624255,110.072523 C180.10968,108.963757 179.84518,107.454932 179.607703,106.306025 C178.504771,100.967622 176.302286,95.9021093 174.452131,90.7994919 L170.468403,80.0892913 L165.952971,68.271674 Z M32.298608,80.2410846 L31.9729644,80.2832495 C30.5717515,80.8708583 29.0698729,81.3910035 27.718655,82.0794706 C25.0787131,83.4246969 22.724216,85.7515201 21.5902064,88.5020154 C21.0064803,89.9170666 20.8875732,91.5014518 20.7635989,93.0123014 C20.5463907,95.6663236 20.2893215,98.7804483 21.3743494,101.278967 C22.8273663,104.62607 25.9066044,106.419843 28.9909253,108.060656 L29.6286015,108.398411 C31.1355472,109.194821 32.6826916,110.026311 34.2771287,110.630111 L34.8872036,110.830478 C35.4462699,110.967767 35.750294,111.043326 36.2867275,110.832502 L36.5167723,110.745136 C39.4519553,109.615794 42.4286882,106.742515 43.6910635,103.874295 C45.0199863,100.854957 45.2311141,97.578245 45.5645271,94.343023 C45.6351282,93.660965 45.8388243,92.9441631 45.8590926,92.2708753 L32.298608,80.2410846 Z M158.74017,95.7155721 C157.549747,95.8349829 156.437695,96.181409 155.277336,96.4576729 C153.448801,100.943672 152.655298,105.362207 152.917097,110.193283 L153.209635,110.267493 C153.772755,109.727784 154.502751,109.095312 154.835826,108.380534 C155.201668,107.596268 155.20606,106.439265 155.293551,105.58956 C155.667838,101.954953 156.23839,98.5186891 158.966161,95.8417293 C158.807393,95.7226558 158.886439,95.7570623 158.74017,95.7155721 Z M57.5447624,90.5205295 C59.1057568,92.0927711 60.6167562,93.660965 62.3476662,95.0524039 C64.9504496,97.1444534 68.0346044,98.9642869 71.0643726,100.351003 C72.2855358,100.90994 73.7458645,101.568386 75.1132969,101.563689 C75.964902,101.560965 76.8415046,101.47225 77.6346695,101.154496 L77.963691,100.84956 C77.9501788,100.529108 77.7812766,100.235978 77.5475159,100.016383 C77.2211968,99.7090862 76.4803916,99.6763663 76.0371921,99.5414389 C75.3686771,99.3380358 74.7275242,99.0816737 74.1090043,98.7575106 C72.1240652,97.716883 70.3360662,96.3959436 68.3994332,95.2892015 C66.9600484,94.4664816 65.4183088,93.8269257 63.9569667,93.0470452 C62.9506472,92.5100342 61.9919581,91.8168446 60.9508448,91.3553928 C59.8404815,90.8635824 58.7037695,90.8015158 57.5447624,90.5205295 Z M82.3916319,92.4267165 C81.9960629,92.3639752 81.6869718,92.3484586 81.2880247,92.3828651 C79.9482922,92.7825875 78.8487387,93.6464603 77.5556232,94.0414603 C76.9246045,94.2344065 76.1729895,94.0660845 75.5858854,94.2944492 C76.6097707,96.4576729 77.5360306,98.1938514 79.1034433,100.02819 C79.4355051,100.002216 79.7165584,99.8753842 80.0215958,99.7536122 L85.6804962,97.6244577 L85.6119219,97.5023484 C85.3731263,97.0692956 85.1686473,96.6245018 84.9711189,96.1814936 L84.7356696,95.6516065 C84.1858991,94.4212435 83.6048004,93.2473 82.3916319,92.4267165 Z M70.490105,91.5739752 C70.7410938,92.1760888 71.0231605,92.7896712 71.1978054,93.4184329 C71.4359575,94.275222 71.5139904,95.4015286 71.970702,96.1574594 C72.215948,96.5635909 72.6611743,96.8998975 73.0172202,97.2041588 C72.6216512,95.9263962 72.2075029,94.7238557 72.0355605,93.3907728 C72.8067681,94.6540307 72.9776971,96.1918659 73.834707,97.3964304 C74.7886668,98.0295772 75.7206694,98.3679077 76.8100888,98.6900469 L75.0126312,95.0787147 C74.8406887,94.7501665 74.6032122,94.1649189 74.313376,93.9368915 C73.1695701,93.0369257 71.7082279,92.3909607 70.490105,91.5739752 Z M156.752191,16.5013755 L156.868058,16.6417 C157.466985,17.3561407 158.399325,17.8226522 158.915491,18.5354063 C159.339097,19.1199793 159.403618,20.0017299 159.346529,20.7040271 C159.190126,22.6358503 157.911536,23.8454745 156.504918,24.9964053 C154.574703,26.5753934 152.394851,28.1442619 150.042381,29.0246632 C146.651162,30.2933182 142.750871,30.4279083 139.211694,31.1497699 C136.141051,31.7761704 133.070071,32.8559271 130.140969,33.958284 C125.683301,35.6361064 121.32461,37.5706281 117.114553,39.7982797 C107.632381,44.8158928 98.6562413,50.8252224 89.8307618,56.8993171 L82.3156259,62.2792103 C80.8856996,63.3808926 79.3277454,64.5611702 78.2123151,65.9947739 C76.6621304,67.9866398 76.0456373,71.2414263 75.7916083,73.7055382 C75.6402719,75.1708498 75.5737244,76.6604485 75.6615536,78.1325065 C75.7409376,79.4676133 76.1375201,80.9197695 75.9013948,82.2437447 L75.8699789,82.4296073 C75.7987022,82.8165116 75.7210072,83.0236252 75.4619111,83.3191162 C75.5254184,86.6956747 77.0191897,89.9086337 77.1739042,93.2420154 C78.5795085,92.5704142 81.1029079,91.0733945 82.6503901,91.6036593 C82.8409119,91.6689304 83.0644487,91.8747527 83.2885971,92.0970884 L83.5117493,92.3203346 C83.806357,92.613085 84.08285,92.8616887 84.2644199,92.7721306 L84.4741964,92.5950384 C84.9045593,92.2300598 85.5017976,92.0027071 86.0709981,92.049257 C86.936791,92.1197566 87.6705023,92.7211956 88.1870053,93.3809906 C88.8622764,94.2438514 89.3517551,95.4558369 89.194676,96.5649402 C89.1163054,97.1181426 88.3785404,97.5927497 87.955947,97.891614 C90.6050097,98.3598121 93.5472865,98.4427924 96.2412771,98.4650555 C95.5237805,98.1533731 94.1293236,97.6527924 93.897252,96.828386 C93.7823984,96.4195559 93.9431934,96.0478309 94.1887772,95.7277156 C94.7569643,94.9886507 95.5984352,94.6833774 96.4571342,94.4182451 C98.2599966,93.8620068 100.858051,93.561456 102.039015,91.9207387 C102.920009,90.6966097 103.106477,89.005632 103.311187,87.5551623 C103.711823,84.714603 104.031724,81.3997738 105.475838,78.864825 C106.253464,77.5000343 107.477329,76.245884 108.616068,75.1799574 C110.537838,73.3810377 112.755186,71.8695134 115.019152,70.5357559 C111.813725,68.514206 108.297181,66.8991249 104.882315,65.2668405 C101.837346,63.8113111 98.5106475,62.0697355 95.2295528,61.2790609 C95.0910529,60.9626561 95.1890162,60.8651711 95.2839393,60.5501155 C96.1237212,60.3198957 100.459441,62.1693288 104.875939,64.2416452 L105.655465,64.6092838 C109.809991,66.5783315 113.858118,68.6480619 114.952604,69.2704741 C115.350538,69.4968149 115.770091,69.7100002 116.123097,70.0034673 L129.461982,61.9962001 L135.270529,58.974838 C137.202095,58.0104443 144.805736,54.7350814 145.728618,53.4664265 C145.810704,53.0926775 145.838404,52.7357945 145.619845,52.4021865 C144.937817,51.3605469 141.87258,50.9186596 140.688237,50.6636468 L128.314122,48.426213 L121.79382,47.0779508 C120.189925,46.7409696 117.949605,46.5578057 116.571701,45.6362515 C116.116003,45.3316528 115.856907,44.8469261 115.926157,44.2954103 C115.985272,43.8231644 116.292337,43.5313838 116.660544,43.262541 C117.894543,42.3612259 119.747063,42.00974 121.214148,41.6585914 C125.764712,40.5700645 130.381147,40.0279936 135.014811,39.4403847 L142.131338,38.6571311 C143.810902,38.5019646 145.633019,38.2469518 147.305827,38.5515504 C149.885977,39.0210978 152.537067,40.2415162 154.982095,41.1944411 L169.884677,47.2938347 L176.147234,50.1674512 C177.269758,50.6825366 178.415929,51.3005042 179.584732,51.6951669 C181.021077,52.1798936 182.631391,52.2844623 184.118744,52.5495947 L188.388254,53.4303334 C187.981538,52.6545008 187.58124,51.8924982 186.989068,51.2391122 C185.213568,49.2816528 183.006692,47.7441549 180.96365,46.0892702 C177.602496,43.367447 174.345723,40.6301072 170.794722,38.1460935 L167.767657,36.1363497 C167.292366,35.8368109 166.733975,35.5683053 166.298207,35.2178314 C165.946215,34.9348211 165.938783,34.8009057 165.948242,34.3654275 C166.303612,34.064202 166.474541,34.0240611 166.953886,34.0776948 C167.65483,34.1559527 168.436509,34.5000176 169.096579,34.7401884 L172.88303,36.2537366 C176.922495,37.9797955 181.07749,39.617477 184.650786,42.2262985 C186.921507,43.884219 189.109467,46.246798 190.71066,48.5442745 C191.257228,49.3288774 191.745017,50.1795947 192.174029,51.0333479 C192.502375,51.6867339 193.460051,54.4068705 193.851566,54.7455383 C193.857309,54.7505981 194.115391,54.7988346 194.151199,54.8052437 C195.152451,54.9863837 196.26045,54.9698551 197.270823,54.8592147 C194.764651,50.1185401 193.051983,45.0179466 189.917833,40.6179637 C188.220028,38.234471 186.162461,36.1710936 184.02855,34.1802396 C178.476058,28.9997016 172.271266,25.0446419 165.874938,21.0133482 L161.990862,18.6183866 C160.834558,17.9117043 159.544145,17.1058503 158.245287,16.6885873 C157.782494,16.5398298 157.235589,16.5344327 156.752191,16.5013755 Z M86.2621955,92.9967848 L85.9098654,93.0588514 L84.8197704,93.6714218 C85.2943857,94.9616652 85.7916338,96.3065542 86.4506904,97.5151665 L87.1421761,97.3610119 C87.6080085,97.1076857 87.9323007,96.9059692 88.2478101,96.4745388 C88.4180636,95.6761059 88.0376957,94.7852476 87.6188182,94.1038642 C87.3370893,93.646123 86.7969399,93.1070879 86.2621955,92.9967848 Z M68.2629602,90.7512553 C68.489627,92.0634244 68.8970192,93.1546499 69.4662197,94.3558411 C69.7908498,95.0402604 70.4917941,95.5297096 71.060319,96.0124124 C70.5907708,94.4229675 70.0982519,92.8406063 69.3851466,91.3412255 Z M164.054848,84.3580573 C161.511856,86.3738728 159.3418,89.066012 157.625753,91.7962681 L155.700943,95.2095943 L155.806338,95.3708326 C156.159682,95.284479 156.645782,95.2109436 156.882921,94.9151153 C157.183567,94.541029 157.416314,93.8920282 157.640617,93.4535141 C157.959842,92.8291375 158.3571,92.2641289 158.80165,91.72307 C159.341462,91.1698676 159.922486,90.523228 160.75889,90.5292998 C163.273168,90.5478523 165.568212,93.8805593 168.030468,92.9310077 C167.983176,92.012152 164.683164,85.5019044 164.054848,84.3580573 Z M159.989033,91.617152 C158.998253,92.6085312 158.409459,93.4167464 158.005783,94.7822118 C158.452361,94.7734415 159.104661,94.8479889 159.522187,94.7262169 L161.642924,94.4610845 L161.532462,94.335602 C160.811925,93.4899445 160.554518,92.5275747 159.989033,91.617152 Z M161.578065,91.5442912 C161.356128,91.4845858 161.255462,91.4673826 161.035551,91.540918 C161.307146,92.4098505 161.837499,93.1168702 162.369203,93.8417677 C163.032651,93.8657173 163.728191,93.8481768 164.380829,93.9702861 C164.774033,94.0438215 165.235474,93.9719727 165.623949,93.8839325 C165.415862,93.5179419 164.90848,93.3408497 164.539597,93.1323868 C163.621107,92.6129163 162.604653,91.8202178 161.578065,91.5442912 Z M53.9495095,80.1446115 C54.382237,81.6881811 54.9075229,82.6239027 55.8888449,83.8871606 C57.1177775,85.4685099 58.9132083,86.7057942 60.3498906,88.1167976 C61.3085797,89.0582537 62.114919,90.1676943 63.102997,91.0669855 C63.5847062,91.5054996 64.1532311,91.8714902 64.7180402,92.1932921 L67.3441321,93.5489752 C67.6454537,93.7038044 67.9417082,93.9483604 68.2842419,93.9446916 L68.2122895,93.8141076 C67.8342863,93.1084372 67.6545744,92.4051281 67.4968197,91.6296328 C67.4255429,91.2791588 67.3633869,90.5576345 67.1539482,90.2729377 C67.0117325,90.0796542 66.4624624,89.7834885 66.2395115,89.6269727 L62.5091368,87.1618489 L57.2995163,83.4931726 C56.0297094,82.5132622 55.0129179,81.3309608 53.9495095,80.1446115 Z M36.7755305,57.6124085 C34.8223451,57.265645 32.8161244,57.2123487 30.8399683,57.3739243 C29.245869,57.5385357 27.6973733,57.7851156 26.1549582,58.231388 C22.6623978,59.2419943 19.453931,60.8722547 16.5685742,63.0800045 C15.6016765,63.819744 14.5815408,64.6299831 13.7807415,65.5498508 C19.9596243,63.5188559 27.4615858,64.8870199 33.1589959,67.7383734 C34.9402389,68.6299063 36.6039258,69.6887491 38.1193167,70.9833776 C38.5204495,71.3259841 39.6169742,72.404699 41.0210496,73.8055927 L41.9984068,74.7827096 C42.6746788,75.4598844 43.394677,76.1825297 44.1243522,76.9143061 L44.672891,77.4642826 C45.0390839,77.8313179 45.4055679,78.1983647 45.7680869,78.5608807 L46.3083598,79.1006886 C48.9895353,81.7770593 51.3279779,84.0708107 51.5281271,84.0656021 C52.2979834,84.0457003 53.1343873,84.0433391 53.8951229,84.1529676 C54.3457541,84.2180701 54.7585512,84.4194492 55.2041152,84.4838771 C54.0549045,83.2813365 53.3417992,82.1783049 52.6604476,80.6617208 C52.4540491,80.2026303 52.1696177,79.5903972 52.1973177,79.0813835 C52.2061006,78.919808 52.2179238,78.910363 52.2655542,78.7798208 C52.6060611,78.7629548 52.8131352,78.8408754 53.0840544,79.0689028 L53.5147551,79.5667849 C53.7160866,79.4423144 53.7336524,79.4085825 53.7958084,79.1839284 C53.9971399,78.4553204 53.92789,77.5347781 53.8157389,76.7957132 C53.4259125,74.2226475 52.1425934,71.9646372 50.9734521,69.6823401 C50.8109682,69.365598 50.1846787,68.2487363 50.2316335,67.9451496 C50.2437945,67.8655425 50.8775157,67.2597184 50.9812216,67.1288388 L50.9768302,67.3403375 C50.9670339,68.4551753 52.3810833,70.2402649 52.9070449,71.2539071 C53.3691614,72.144428 53.7623658,73.0730659 54.0883471,74.0216056 C54.4643235,75.1155296 54.6754513,76.2269942 54.8200316,77.3728652 C54.9021181,78.02389 54.8744181,79.6089497 55.1612141,80.1624894 C55.4382137,80.6971393 56.1293617,81.364018 56.5647916,81.7967977 C57.7004902,82.9244535 59.1023788,83.8358882 60.4184649,84.7361913 C64.2832858,87.3797567 68.3440333,89.5105978 72.5007172,91.6502092 C73.2222675,92.0215969 74.8852789,93.1404825 75.6585133,93.114509 L76.0675945,93.0588514 C76.5195769,92.270538 74.4316075,83.9974638 74.0640763,82.6508882 L73.4783233,80.7976602 C72.4811246,78.3973016 71.6832304,76.4479378 69.1078092,75.394492 C67.7099743,74.8223998 66.4300332,75.121264 64.979163,74.9910591 C64.0137179,74.9047055 62.992535,74.5316312 62.1118787,74.1376432 L59.9120961,80.6941034 C61.1349482,81.0901154 64.4694161,81.8396371 65.0669922,82.9622332 L65.1068531,83.0661273 C64.8457303,83.2911188 64.4261771,83.3245133 64.0924263,83.2820112 C63.6428086,83.2250043 62.9773338,82.815837 62.539877,82.632673 C61.4984258,82.1965201 60.0495825,81.9047396 59.1922347,81.1683733 C58.9507046,79.4099318 61.5811879,74.4820454 61.3923552,73.9173742 C61.3464983,73.7805072 59.9118216,72.6972087 59.0368816,72.0422995 L58.7686389,71.8417487 C58.6071949,71.7211401 58.484084,71.6292302 58.4206893,71.5811061 C57.1488555,70.6160378 55.8655364,69.616563 54.4018296,68.9611531 L53.9974777,68.7719174 L54.0214618,68.2551454 L54.2116457,68.1009908 C55.0598727,68.2008371 55.8374986,68.7236808 56.5414831,69.1780489 C59.8641278,71.3230574 62.6749988,74.4972247 66.9377533,74.1922888 L57.6616427,67.3710335 C55.576038,65.902686 53.5711685,64.3169516 51.4132735,62.9518235 C47.2532116,60.319727 42.8060158,58.9131087 38.0554716,57.7692616 L38.1858642,57.8879977 C39.0097692,58.6543854 39.6732172,59.5583991 40.3430835,60.457353 C40.5829246,60.7794921 41.0311912,61.5536382 41.3456871,61.7391634 C41.8219914,62.0201497 43.0022802,62.0913239 43.5860063,62.2397441 C45.4925747,62.7244708 50.2941274,64.2245263 51.388276,65.8089114 L51.3884957,66.0352369 C51.3857029,66.2546175 51.3597503,66.3455102 51.1795129,66.6002607 L51.0991154,66.6218491 L51.0197313,66.4609481 C50.7650268,66.0082667 49.9978728,65.6783691 49.5445393,65.4419088 C47.3373249,64.2903034 44.8777706,63.3761702 42.4337553,62.8884076 L40.5859649,62.5433307 C39.5860637,60.798382 38.4351638,58.8061788 36.7755305,57.6124085 Z M51.5740685,84.3310718 C52.248664,85.563971 53.9336327,86.8265543 54.9906228,87.7460846 C55.6267086,88.299287 56.29117,88.9830316 56.9755619,89.4643852 C57.3873455,89.7541418 58.861862,89.8529761 59.4330893,89.992626 C60.3387431,90.2139069 61.1055592,90.6183518 61.9318289,91.0342656 C59.8387925,89.0889496 57.5420599,86.3091076 54.8926595,85.1814518 C53.9704533,84.788813 52.8171889,85.0080701 51.994635,84.5533647 L51.778778,84.4373271 L51.6064977,84.3415287 Z M180.328578,78.7983733 C180.698474,80.8357772 180.717391,82.9946158 180.493764,85.0522588 L180.629562,85.1065671 C181.772016,85.5815116 182.869543,86.2716653 183.8762,86.9874552 L186.068213,83.9063878 C186.925561,82.7318447 187.948095,81.402135 189.331067,80.818574 C189.077038,80.5315159 188.728086,80.36117 188.362243,80.256264 C187.428214,79.9884331 186.343524,79.9003929 185.378079,79.7226261 Z M38.9472754,73.3611359 L38.5885271,73.3914946 C35.8114366,74.4779976 33.8589268,75.9878353 32.6566807,78.775773 L32.5729052,78.9754655 C34.2298361,80.9747524 36.3772591,82.7375791 38.3233506,84.4572289 C38.7709415,84.8529036 39.7607086,85.8874595 40.3241664,85.9751623 L40.3555822,85.7984074 C40.6656867,84.1108028 41.5524234,82.7335312 42.9495827,81.7273101 C43.9531998,81.0044365 45.0574826,80.7001752 46.207369,80.3095603 C45.1172739,79.1832537 39.9674449,73.3884587 38.9472754,73.3611359 Z M75.5673061,69.386849 C74.3670869,71.3284545 73.7519449,73.0936423 73.4344088,75.3516526 C73.3219199,76.1507602 73.2175383,77.0625321 73.4198832,77.8525321 L74.6896901,81.8318788 L74.9234508,82.4518703 C75.1842359,81.4227114 74.8423778,79.7995347 74.7690742,78.7153929 C74.7008377,77.7081598 74.721106,76.6746158 74.7545486,75.6660334 C74.8261631,73.5024724 75.2480809,71.5109438 75.5673061,69.386849 Z M180.634291,76.2178866 C180.442418,76.147387 180.548826,76.1703246 180.267097,76.2354271 C179.971518,76.5474468 179.612432,76.9117508 179.600947,77.3735398 C179.596893,77.5347781 179.607365,77.5374766 179.64824,77.6693682 C180.170147,78.0431171 181.31598,78.0771863 181.956457,78.204018 L187.158984,79.2911957 L187.665691,79.3691162 C187.561647,79.1404143 187.346465,79.0817209 187.128244,78.9660206 C185.116956,77.8997567 182.772593,77.0055253 180.634291,76.2178866 Z M156.476542,64.276136 L155.193899,65.1504656 L159.452937,76.8743084 L160.36332,75.8431257 L156.476542,64.276136 Z M73.3205686,71.9086424 C72.2284468,72.8554955 71.0836275,74.0489284 69.8884753,74.8379165 L71.1920627,75.6866099 L72.4034295,76.7083477 C72.5189587,74.9870112 72.836157,73.5517209 73.3205686,71.9086424 Z M179.84822,55.5679209 C179.594866,55.4606536 179.57899,55.4572804 179.324961,55.4900003 C173.739364,55.7504102 167.90717,56.5397356 163.096159,59.6177671 L165.55774,65.2300728 L165.775624,65.4921693 L165.889464,65.4392103 C167.47478,64.724095 169.351959,64.4306279 171.058548,64.1614477 C174.432201,63.6291591 177.941989,63.28813 181.357192,63.2543982 C181.328768,63.038948 181.301923,62.8233258 181.275814,62.6076435 L181.121241,61.313727 C181.015086,60.4518319 180.893725,59.5925646 180.703203,58.7431002 C180.462348,57.6707646 180.060023,56.6473402 179.84822,55.5679209 Z M140.795321,24.7221654 C140.578113,24.7133951 140.376444,24.6938306 140.1616,24.731273 C136.967321,25.1809186 133.69332,26.2174984 130.632136,27.2250689 C126.213316,28.679249 121.805306,30.3425667 117.665174,32.4707093 C114.818834,33.9333224 112.118425,35.6954744 109.431528,37.4269304 L88.7933643,52.1805682 L83.170609,56.2364862 C81.9305288,57.1060934 80.3465637,58.0171907 79.3365283,59.1354016 L78.1180676,64.5318235 L79.9580886,63.1255425 C84.6498548,59.2106237 89.7348254,55.8408116 94.8032435,52.4413154 C103.981053,46.2855896 113.354789,40.2813198 123.456156,35.7319048 C127.885448,33.737003 132.59782,31.9778869 137.290262,30.7142917 C138.550273,30.3752866 139.817377,30.1121781 141.103399,29.8929211 C141.645237,29.8004958 142.733643,29.7934121 143.139346,29.4324813 C143.071448,27.625466 142.009053,26.0265761 140.795321,24.7221654 Z M74.4397148,56.1147142 C75.3278028,57.4690481 76.6033524,58.8365374 78.0116592,59.6575707 L78.2170444,59.6002266 C78.253865,59.1330404 78.3197369,58.8814008 78.005241,58.4840396 C77.2110627,57.4808543 75.6122341,56.6001156 74.4397148,56.1147142 Z M27.732505,10.5844712 C27.1474277,10.1661962 24.3757421,10.1634977 23.6548673,10.2552483 L23.2799044,10.3314823 C23.221802,10.7521185 23.404892,10.9251629 23.6677039,11.2601202 C25.5026577,13.5990869 27.8574927,15.6024216 29.9488401,17.7052654 C31.4463273,19.2110553 32.7489013,20.834232 34.4352212,22.148425 C36.1124204,23.4555343 37.9064999,24.5683481 39.6607184,25.763805 L44.6943428,29.4601414 C48.0301618,32.0170159 51.2156579,34.952699 54.8588791,37.0703847 C58.7139036,39.3111917 62.964835,40.7947186 67.0887519,42.4550004 C72.8023766,44.7548381 78.4470892,47.210517 84.305632,49.1305341 C84.8261887,49.3008799 87.3377649,49.9296417 87.3377649,50.4862173 C87.0475908,50.6923189 86.8702435,50.8086938 86.5141976,50.886277 C85.1403468,50.6545392 83.7293376,49.9616869 82.4304794,49.458745 L75.7858656,46.8890525 L65.3379114,42.6553676 C62.8709254,41.6683736 60.3485394,40.7687451 57.9420204,39.6394027 C56.1087556,38.7792404 54.3400114,37.7801029 52.6587586,36.6517725 C49.4388065,34.4912473 46.5080149,31.8696077 43.4147394,29.5289544 C41.5632332,28.1273959 39.7691537,26.735957 37.5822076,25.8977205 C39.1100972,27.8160509 41.0453789,29.2159228 42.9286388,30.7706239 L53.4745564,39.129377 L63.4283027,46.7446801 L70.1783115,51.980201 L74.2120346,54.7802821 C75.8348473,55.8266442 77.6269,56.7883393 78.9578495,58.2141847 C81.6450841,56.0539969 84.5917524,54.2608116 87.3482368,52.1964222 L108.606947,36.9223019 C112.280909,34.5124983 116.058238,32.0409655 120.11527,30.3081602 L127.775662,27.2436214 C130.395335,26.2586513 133.245392,25.2244327 136.002889,24.7410552 L136.026198,22.9768793 L122.785614,21.5058332 L108.48804,19.9595651 L105.072837,19.4748384 C104.293522,19.3567769 103.469617,19.3112389 102.767659,18.9331048 C102.708544,18.5438392 102.710908,18.5522722 102.918658,18.2166402 C103.433472,18.0159357 104.402295,18.3866488 104.945485,18.4891936 L108.735651,19.0680322 L127.413197,21.1320843 L133.228501,21.8384293 C134.473986,21.9973063 136.021131,22.3359741 137.248374,22.1959869 C137.774336,22.1359442 138.216522,21.7571355 138.41988,21.2798298 C138.849568,20.2712474 138.41684,18.6818025 138.105047,17.6995309 C133.940593,16.673408 130.06226,14.6690613 125.983271,13.3221484 C120.621301,11.5512261 115.069822,10.8158717 109.439298,10.7612261 C107.049669,10.7382885 104.616463,10.7878743 102.267709,11.2820459 C98.9589141,11.9782714 95.7159912,13.3764567 92.8233716,15.115671 C91.7778668,15.7440954 90.7198632,16.3981561 89.8101558,17.2154789 C92.5315085,18.510782 94.9755238,20.4220288 97.4428476,22.1403294 L103.330779,26.4104446 C104.509379,27.328963 106.223061,28.5686086 106.7372,30.0403293 C106.910493,30.5365249 106.951368,30.9750389 106.702744,31.4563925 C106.277448,32.2787751 105.302544,32.7888007 104.442156,33.0127802 C103.195658,33.3369433 101.876869,33.3011875 100.598279,33.2981516 L93.3385234,32.994565 L84.8407143,32.6464522 C84.7474803,34.5749023 84.4799391,36.0176136 82.9976531,37.3931986 C82.1274688,38.2004018 81.0167678,38.5734761 79.8635033,38.7556281 L79.6645365,38.7890226 C77.720134,39.0892361 75.3632722,38.8004915 73.4134649,38.6132797 C68.8453351,38.1744283 64.3663857,37.4835999 59.9006107,36.4062046 C57.9545192,35.9369945 55.9550546,35.4684591 54.0994946,34.7118536 C52.8915059,34.2193685 51.8470145,33.4664736 50.8123194,32.6865932 L42.4205809,25.8187879 C41.1146289,24.7012516 39.5617417,23.5671867 38.5027247,22.2084677 C38.2078214,21.829659 37.9433205,21.3574131 37.8825157,20.8743729 C37.78185,20.0789758 38.0345278,19.2231987 38.2000519,18.4514139 C38.2375482,18.2753337 38.3649005,17.8300732 38.3024067,17.6718708 C38.2507226,17.5406539 37.9382535,17.3004831 37.8142792,17.1955771 C36.9633498,16.47439 35.7239452,15.9886514 34.7105318,15.5325967 L29.7704793,13.3420502 C29.0597388,13.0242961 28.2186056,12.7338649 27.5923162,12.2771356 C27.2866031,12.054168 27.2420129,11.9485873 27.1170253,11.5964268 C27.2379593,11.1103508 27.366325,10.923139 27.732505,10.5844712 Z M168.363881,35.385816 L175.611476,40.5390312 L181.330506,45.244962 C182.939131,46.5605042 184.63322,47.7745136 186.161447,49.186529 C187.026227,49.9852992 187.880872,50.8336553 188.531146,51.8196374 C188.966238,52.4794324 189.276005,53.2039926 189.68441,53.8779551 C189.737783,53.9659952 189.913104,54.3178184 189.996204,54.3778611 C190.05836,54.4230618 190.518449,54.4439755 190.611008,54.4554444 L192.816871,54.683809 C192.299017,53.4647399 191.833184,52.2099149 191.186964,51.0512258 C189.476323,47.9839884 187.055616,45.092494 184.244407,42.9731217 C180.207982,39.9301712 174.966945,37.9207648 170.310649,36.0607904 L168.363881,35.385816 Z M41.7243659,10.5500647 C41.6926123,10.5224046 40.6194075,10.573677 40.4812455,10.5767129 L33.2022349,10.892443 C31.6300929,10.9619307 29.9471511,10.9440528 28.4000066,11.2172808 L28.1763801,11.4581262 C28.7550391,11.9941254 29.7383879,12.3260468 30.4596005,12.6529084 L36.4542785,15.3673106 C37.3649993,15.8274131 38.6506831,16.3924216 39.1117862,17.3520929 C39.0259839,18.3677589 38.3790883,19.7591979 38.5297491,20.7330365 C38.5814332,21.0663072 39.0878021,21.7038392 39.3141311,21.9689716 C40.1799239,22.9819391 41.2686677,23.8495223 42.2928908,24.6972038 L46.1377812,27.8342661 C48.4865357,29.6932285 50.859612,31.9148084 53.4515857,33.4084548 C54.9335339,34.2625453 56.7049805,34.6922891 58.3450211,35.1338391 C62.7455999,36.3191764 67.1998896,37.0835402 71.7234291,37.6104317 L76.4212758,38.0276947 C78.5227574,38.1636341 80.5249245,38.3383651 82.2706979,36.9401798 C83.2722882,36.137699 83.8066948,34.9854189 83.913441,33.7282328 L83.9161435,32.5361491 C80.7360522,29.9158588 76.4172222,27.9091508 72.3899173,27.1009356 C68.7970291,26.3797486 65.005174,26.3358972 61.3524943,26.1311449 C58.9682704,25.9975667 56.8505742,26.0478272 54.655183,24.9549152 C52.9286644,24.0957649 51.2805164,23.0682926 49.6512855,22.0398084 C48.3473602,21.2167512 46.9897241,20.3886342 45.8827389,19.3051671 C43.852534,17.3180237 42.7921658,14.2673149 42.0064326,11.5927163 C41.9550864,11.4179853 41.8040878,10.620227 41.7243659,10.5500647 Z M16.0314313,26.4212388 C15.634984,28.4529083 15.3144751,30.4255471 15.2507652,32.4973575 L22.5563272,36.1855982 C24.2588617,33.3160295 26.2079935,31.1926094 29.3472104,29.9074258 C30.982184,29.2783267 32.5745942,29.1042704 34.3115848,29.0155556 C34.9682766,28.9821611 35.7080684,29.0573831 36.3353713,28.8512815 Z M10.7213816,25.885577 C10.6903982,25.8868251 10.6547226,25.8873985 10.6154085,25.8876259 L10.3442869,25.8874653 C9.9967015,25.8885656 9.57405914,25.9049053 9.43769085,26.0491765 C8.75258962,26.7737367 8.3032759,31.1990184 8.22118942,32.3934634 L12.7766515,32.4565419 L14.2923801,32.484202 L14.9755559,25.9726052 Z M89.3598624,17.9235104 C86.5287232,22.142016 85.1319017,26.7599066 84.2833369,31.7144412 L101.328612,32.4808289 C102.777456,32.4228101 104.82624,32.5172593 105.879514,31.3609313 C106.025783,31.2003677 106.048754,30.9082499 106.101114,30.6974258 C105.973086,30.1921226 105.787969,29.8325411 105.4478,29.4324813 C104.007064,27.7381303 101.86133,26.3891935 100.057792,25.0891679 C96.5594889,22.5680493 93.0669286,20.1322722 89.3598624,17.9235104 Z M146.115742,23.6872721 L145.757669,23.7307862 L141.852987,24.4668153 C142.781274,26.1871397 143.880489,27.3316615 144.057161,29.3690654 C144.352402,29.5397486 144.368279,29.4871269 144.690545,29.4513711 L148.453011,28.6714907 C147.9561,26.7622678 147.500402,25.1586556 146.115742,23.6872721 Z M149.951174,26.8823532 C149.650865,26.7032371 149.2455,26.5764053 148.89925,26.6496035 C148.816151,27.2955684 148.986742,27.8082926 149.159022,28.4222123 L150.422749,27.9445693 L150.746365,27.7246376 C150.641308,27.3350347 150.298099,27.0894668 149.951174,26.8823532 Z M157.495361,22.6017811 L157.301799,22.6351756 L146.804525,23.3685061 C147.358862,23.9244071 147.813547,24.4799707 148.259111,25.126273 L148.815475,26.1260851 C152.055695,25.930103 155.258419,25.3957905 157.521034,22.8375668 L157.60312,22.7421056 L157.495361,22.6017811 Z M42.6587331,10.6445139 C43.3600151,13.2357949 44.3349188,16.3580152 46.1840604,18.3785531 C47.9423327,20.3002568 50.7028708,21.6997914 52.9617692,22.9961065 C54.1734738,23.69132 55.4469967,24.4452269 56.7928096,24.8412388 C58.1078824,25.2288178 59.4695722,25.2092533 60.8282218,25.2665975 L66.3972662,25.5985189 C64.7579011,23.1313712 62.847279,20.9431859 60.8319376,18.7792875 C58.9652301,16.7749409 56.8907729,14.6525327 54.5430319,13.2310724 C52.9891314,12.2899537 51.1666763,11.6574815 49.391176,11.3026224 Z M148.509762,7.37252419 L148.106423,7.42244734 C147.613567,7.61573085 147.159557,7.9223534 146.925121,8.41719968 C146.76534,8.7545182 146.80216,9.06485125 146.940322,9.40554296 C147.160233,9.94896311 147.693626,10.3955728 148.164526,10.7227718 C149.240771,11.470607 150.569018,12.0383141 151.730052,12.6535831 C153.379889,13.5279127 155.003715,14.5287368 156.747124,15.2030365 C157.691625,15.5683525 158.652341,15.8476522 159.571169,16.2824558 C164.086263,18.4193687 168.283484,21.5392277 172.466179,24.2472209 L173.097535,24.6223191 L173.209349,24.4988605 C168.791204,20.5124301 164.10991,16.7071398 159.157696,13.3943346 L152.219193,9.17819028 C151.229426,8.59766509 149.651541,7.30202462 148.509762,7.37252419 Z M139.998103,17.1321612 C139.608614,17.2009742 139.211018,17.1702782 138.951585,17.4785873 C139.182643,18.7229554 139.762991,20.6804148 138.99077,21.8033482 C138.48305,22.5417384 137.74596,22.9222337 136.895707,23.1320458 C136.677485,23.5348042 136.736601,24.1470373 136.722413,24.5993814 L140.185584,23.9726436 L143.924404,23.29632 L143.966967,17.7524899 C142.684999,17.6340911 141.247304,17.0889844 139.998103,17.1321612 Z M146.855871,16.1502269 C146.067098,16.4146847 145.469859,16.7631347 144.783779,17.2266104 L144.745269,21.0012047 C144.728716,21.5915121 144.576029,22.4924899 144.741553,23.0487282 L147.603432,22.4658417 L150.220741,22.0607222 C149.566076,21.0686684 148.766493,19.9558546 149.037412,18.6912474 C149.128957,18.2645395 149.313736,17.8408674 149.471491,17.4347359 C148.997889,17.2249238 148.486116,17.0282671 148.040889,16.7631347 C147.657819,16.5351074 147.312921,16.1920544 146.855871,16.1502269 Z M151.395963,18.5833055 C151.021676,18.5391168 150.57172,18.426115 150.200811,18.5087581 L150.068054,18.5539588 C149.722818,19.4158076 149.96401,20.0479425 150.316678,20.8720117 L150.829465,22.0148469 L155.176671,21.9446846 C156.106646,21.9271441 157.098778,21.9767299 157.998689,21.7159827 C158.419931,21.1860552 158.535798,20.5650518 158.465197,19.8934506 C158.432092,19.5773832 158.294268,19.3001074 158.149688,19.0221569 C157.819315,18.7816488 157.496712,18.8474259 157.10925,18.8484378 L153.935915,18.8285361 Z M192.160855,14.1263158 L192.069985,14.1850092 C191.295737,14.6626522 190.31374,14.7729554 189.43207,14.9399281 L185.138913,15.7710809 L185.238903,15.904659 L187.753182,19.9460723 L188.057882,20.4510382 C188.430818,20.386273 188.86895,19.8917641 189.185811,19.6536172 C189.743864,19.2333183 190.362722,18.8683396 190.9907,18.5623917 C191.957496,18.0921697 193.003677,17.8698768 194.053235,17.6715335 C193.483021,16.5435403 192.716543,15.3440357 192.348674,14.1455429 L192.160855,14.1263158 Z M196.140867,10.673186 L193.085763,10.6775711 C192.908078,10.7689845 192.600676,10.8516275 192.557437,11.0584038 C192.363537,11.9870417 194.714656,17.5308717 195.472014,18.4139716 L195.585179,18.4996505 L197.924812,17.0643602 C198.816278,16.422443 199.941843,15.61018 200.130338,14.4427205 C200.263095,13.6210126 200.004337,13.028344 199.505399,12.3908119 C198.704465,11.3667129 197.41439,10.801367 196.140867,10.673186 Z M150.363946,16.8406304 L149.644447,16.8572466 C150.054879,17.1314865 150.523414,17.4995011 150.993638,17.6536556 C152.275268,18.0739545 154.214266,18.0945309 155.553998,18.0894712 C156.059016,18.0874472 156.654227,18.1366958 157.14472,18.0226821 L157.263289,17.9859144 C157.204173,17.6988563 157.215658,17.704928 156.961967,17.5450391 C156.298519,17.1274387 155.379353,17.1547615 154.611862,17.0839246 C152.934663,16.9287581 151.335158,16.7904575 149.644447,16.8572466 Z" fill="#FFFFFF" fill-rule="nonzero" transform="translate(111, 74.5) scale(-1, 1) translate(-111, -74.5)"></path>
</svg>