<?xml version="1.0" encoding="UTF-8"?>
<svg width="350px" height="193px" viewBox="0 0 350 193" version="1.1" xmlns="http://www.w3.org/2000/svg">
    <g stroke="none" stroke-width="1" fill="none" fill-rule="evenodd">
        <path d="M238.711611,0 C248.835441,0.0320805679 259.047791,0.172068501 269.118606,1.29245803 L276.890342,2.44492813 C277.934582,2.60387276 279.008491,2.58929068 280.061972,2.74191642 C282.333329,3.07098527 284.598363,3.67954392 286.743749,4.49468199 C289.660521,5.60291979 292.276228,7.23368199 294.892909,8.90624614 C304.696706,15.1736225 313.64303,23.6511556 320.645325,32.9195233 C322.460951,35.3226495 324.355856,37.8278502 325.890846,40.4200573 C328.311518,44.5069273 329.67725,48.9632098 331.620306,53.2639502 C333.310934,57.006197 336.562816,61.9534094 340.413422,63.7178407 C342.07195,64.478539 343.944968,64.7842765 345.660888,65.433665 C345.820418,66.5127386 345.765458,67.6195182 345.903101,68.7073411 L347.574275,82.8937571 L348.381166,97.91524 C348.537619,100.324357 348.720096,102.726171 348.90501,105.122927 L349.063554,107.176102 C349.959118,118.80434 350.75319,130.328392 348.743027,142.005606 C348.019792,146.204272 346.935669,150.607087 345.014014,154.428563 C343.479024,157.48205 341.344824,159.763172 338.027282,160.845162 C334.847383,161.882434 331.666998,161.920348 328.361128,162.009298 C324.553809,162.112345 320.396303,162.394751 316.914853,160.581713 C313.370175,158.735622 310.075492,154.621532 308.90285,150.798598 L308.845944,150.60417 L278.341189,160.142306 C277.015339,160.616224 274.765383,161.067296 273.747407,161.965066 C273.878241,162.418568 274.05528,162.949356 273.992538,163.423274 C273.820849,164.713787 273.086914,166.24685 272.617079,167.458134 C269.784449,174.76424 265.482976,182.367335 259.352746,187.380653 C251.165162,194.076256 238.989816,193.369025 229.095067,192.340989 C221.602022,191.562792 215.477628,189.572339 210.024427,184.235785 C208.280784,182.529196 206.770113,180.556727 205.231719,178.666404 L133.374657,175.772834 L75.0294905,172.45687 C74.2945827,176.491244 72.3218585,180.264113 69.4041138,183.15817 C63.7646323,188.753312 55.6164448,189.837247 47.9804069,189.827525 C44.9483649,189.823637 41.9489097,189.637472 38.9946871,188.897189 C30.8546221,186.856184 24.6298893,181.211462 20.1572625,174.303933 C19.2818418,172.952174 18.4762155,171.556184 17.8567237,170.067354 C17.7200046,169.739257 17.3737565,168.519709 17.1556673,168.319449 C17.0588307,168.230498 15.8431929,168.127451 15.649471,168.099745 L9.03150664,167.171839 C6.74979042,166.845201 3.52991155,166.497661 1.87055673,164.704066 C0.410128005,163.124827 0.31192953,160.265768 0.165045234,158.226222 C0.0812433657,157.063058 -0.0465751544,155.840108 0.0172368313,154.674028 C0.151037725,152.228614 2.72365295,150.408284 4.42235524,148.906817 C3.97032125,147.320287 3.13356713,145.827082 2.68367318,144.189029 C1.98217907,141.635221 1.61608699,138.972048 1.22674633,136.355051 C0.669558746,132.609888 0.197778059,128.840421 0.055708844,125.053942 C-0.126534685,120.196653 0.203322698,115.241663 0.846598096,110.429092 C1.19659127,107.811123 1.57819862,105.146978 2.28839878,102.599489 C3.45880398,98.400337 5.20424661,94.5181022 7.25459575,90.6854465 L9.79919595,85.7892714 C10.5633834,84.1696888 11.1425063,82.3474153 12.2882039,80.9523967 C13.7701789,79.1471356 16.0006801,77.5411629 17.8202945,76.0659429 C23.8843299,71.1488667 30.852628,67.5009173 38.3662947,65.3588103 C41.4693471,64.4736783 44.6604327,63.8869927 47.7313845,62.8973558 L65.6327866,57.0854263 L74.6005106,54.7134085 C75.6457237,54.4489869 77.5761335,54.2409493 78.4418754,53.6737065 C79.3061581,53.1069498 80.0935942,52.0006563 80.8017516,51.2419022 C88.0846835,43.4400053 97.4103772,37.243109 106.208844,31.2800119 C115.961086,24.6694706 126.017796,18.1678089 136.875075,13.5015445 C142.770874,10.9676657 149.147209,9.16191855 155.37131,7.6298284 C177.674377,2.1391906 200.925869,0.864717125 223.798478,0.0952695652 L238.711611,0 Z M236.570114,98 C233.439271,104.27395 231.5907,111.244413 230.117045,118.061604 C227.742413,129.041865 226.410088,140.134655 226.097985,151.359375 C225.898259,158.534523 225.771651,166.223325 228.163949,173.0929 C229.839293,177.903979 233.299905,181.592198 237.924523,183.79572 C242.251269,185.857611 246.557895,186.801493 251.224716,185.173224 C258.046813,182.792179 263.400161,175.376453 266.370536,169.140336 C272.575297,156.11516 274.570106,140.147266 271.737135,125.996804 C271.252296,123.573561 270.712986,121.100844 269.860101,118.774608 C267.120368,111.299707 261.587904,103.335889 254.04591,99.9173502 C251.842051,98.9181745 249.515511,98.4205268 247.094261,98.356502 L246.894535,98.3778436 C245.125461,98.5956251 243.867235,100.877723 242.843087,102.208179 L242.065283,103.207354 L242.417626,103.148665 C247.313125,102.351749 252.357806,104.01106 256.306692,106.884903 C263.74318,112.297912 267.272003,121.171174 268.569978,129.952764 C270.260044,141.38993 268.775593,153.47753 264.419403,164.18423 C262.968812,167.749735 261.297393,171.176035 258.959076,174.263779 C256.090281,178.0524 251.695815,181.568432 246.799333,182.216926 C242.810208,182.745131 238.462851,181.460753 235.296185,178.998707 C231.181433,175.799405 229.251401,170.286962 228.72436,165.281869 C228.05059,158.888115 228.400479,152.282884 228.963835,145.897861 C229.371629,141.273036 229.804942,136.56818 230.571949,131.987978 C231.829685,124.475244 233.840196,117.08571 236.348796,109.896011 C237.589846,106.340691 238.945727,102.326528 241.194242,99.2732214 Z M244.028353,150 L232,166.847863 C232.853679,170.609331 233.897771,174.283962 237.030537,176.789481 C239.415845,178.457538 242.11345,179.560418 245,180 L243.82815,166.582446 C243.478161,161.066084 243.286279,155.495266 244.028353,150 Z M247.152526,146 C246.066839,149.792805 245.993008,153.622689 246.000445,157.514527 C246.012661,163.998577 246.617119,170.563824 247.50787,177 C250.310259,176.148132 252.293602,175.051734 254.58661,173.394934 C256.200799,172.153977 257.767714,170.857636 259,169.300807 C255.566596,163.913155 253.020757,157.815379 250.250769,152.1311 C249.276095,150.131675 248.401278,147.872701 247.152526,146 Z M249,145 L260.010889,170 L261.954787,165.603373 C263.330237,161.731086 264.438468,157.852188 265.361103,153.835975 C265.57585,152.901723 265.953844,151.905425 266,150.948797 C260.605573,148.107391 255.001743,145.907297 249,145 Z M219.400937,93 L219.183033,93.1675833 C217.845452,94.1860112 216.332283,94.9899324 214.860458,95.8034298 C211.991711,97.3892469 209.037846,98.799341 205.92104,99.8508067 C200.102806,101.812968 193.869679,103.027708 187.852511,104.26974 L176.409142,106.770562 L163.03771,109.83207 C160.811976,110.347269 158.590132,110.965412 156.335214,111.342235 C154.936834,111.575894 153.4689,111.658729 152.05836,111.474866 C151.034503,111.340799 150.025237,110.940514 149.004298,110.87779 C147.942016,110.812193 146.666693,111.163161 145.598088,111.304888 L137.001091,112.647949 C134.340521,113.140165 131.543761,113.880405 128.839415,113.915837 C124.680755,113.970421 120.406819,113.362333 116.2574,113.047755 L93.0326182,111.487794 L81.222995,110.835655 C80.1548758,110.779155 77.9865356,110.387968 76.9991577,110.721698 C76.8230834,110.781071 76.6951621,110.933332 76.5458394,111.042501 C73.9222353,112.959175 71.6877456,115.972802 69.5991739,118.426701 L63.1427926,126.169051 C60.4710356,123.177449 59.7049665,118.733139 59.9608093,114.857655 C60.0537103,113.45187 60.3319271,112.11647 60.7434157,110.7691 L47.230444,111.779389 L39.0459082,113.002747 L32.6330104,114.209826 C30.7754754,114.549302 29.0295675,114.928998 27.1628396,114.471734 L26.8037356,114.386028 C24.3063992,113.780334 21.7592074,112.577085 19.4232075,111.507425 C14.2082958,109.119123 9.3102692,106.474179 4.49205967,103.377718 C2.84308996,109.885697 2.34657993,116.83849 2.27201588,123.53512 L23.0189654,132.675594 C25.6105649,131.105578 27.9519637,129.026108 30.4167118,127.258822 L44.4259017,118.024022 C46.3004605,116.891159 48.297104,115.471968 50.4187504,114.885426 C51.0131227,115.074077 51.1035918,115.207665 51.5131348,115.648169 C51.5724747,116.060903 51.6240324,116.097293 51.3730536,116.437248 C50.613794,117.464773 49.1011117,118.219855 48.0111048,118.906947 L41.6223322,122.958633 L30.1723966,130.97199 L21.4691226,137.550354 C46.9366626,142.15315 73.018517,142.855563 98.8503654,142.339407 L115.254944,141.945346 L136.263232,141.513939 L112.52482,127.875528 L93.1868048,117.403964 C92.4163582,116.954362 91.6663401,116.585679 91.2592291,115.761169 C91.5014528,115.256024 91.7752921,114.989328 92.187267,114.627348 C93.4431339,114.467425 94.7972521,115.219156 95.9037963,115.751114 L101.682146,118.619661 L131.430431,135.216636 L138.610079,139.720797 C140.814412,141.13137 144.331034,143.909423 146.964852,144.130633 C148.689115,144.275234 150.838973,143.506265 152.506328,143.085871 L163.465736,140.29872 L175.77294,138.194353 L186.267842,136.700946 C188.46488,136.395465 190.973695,136.276242 193.041352,135.472799 C195.162026,134.648768 197.164992,133.094073 198.991398,131.771123 C192.757298,131.428774 186.419597,132.259987 180.194252,132.679424 L150.745099,134.607112 L144.367027,135.203708 C143.622359,135.260208 142.629631,135.435931 141.912688,135.210412 C141.570267,134.726814 141.548866,134.748839 141.617447,134.168043 C142.765335,133.068218 144.979396,132.65309 146.507643,132.348088 C152.688239,131.115154 159.334314,130.854681 165.615107,130.296389 C178.106167,129.186988 190.712988,128.035451 203.267766,128.163293 C204.50369,128.175742 205.243981,128.445312 206.104896,129.317224 C206.297508,129.932494 206.093223,130.224089 205.78485,130.783817 C204.650581,132.844614 203.100933,134.788102 202.508993,137.104103 C202.126888,138.600075 201.941291,140.338922 201.762127,142.143877 L201.702384,142.747734 C201.692379,142.848704 201.682329,142.949818 201.672201,143.051044 L201.610239,143.659519 C201.599669,143.761077 201.588956,143.862687 201.578068,143.96432 L201.510367,144.574138 C200.959444,149.349335 199.876414,154.039603 194.877486,155.49805 C193.156141,156.000321 191.203273,156.182269 189.422588,156.387678 L181.688938,157.258633 L146.231371,160.158303 L110.283034,160.889445 L74.6294508,159.975877 L38.2579515,157.770959 C32.0473445,157.144197 25.8854256,156.468118 19.7642663,155.201188 C15.823218,154.385776 11.8313416,153.601486 8.28310436,151.642197 C7.48128542,151.199298 6.7469292,150.556736 5.91835864,150.186616 C5.12972095,150.958936 4.33510063,151.626875 3.4122671,152.240709 C3.1396438,152.422178 2.15177952,152.946474 2.0479346,153.248603 C1.9624267,153.497584 2.01743776,154.098969 2.01719456,154.374284 L2.49697266,160.934453 C5.39626434,161.976822 8.67100282,162.137702 11.7160665,162.550914 L32.4237155,164.896124 L110.694036,169 L197.057013,167.556868 L212.844845,166.39767 C215.262218,166.153477 218.376107,166.034254 220.595032,165.031627 C221.149033,164.781688 221.754106,164.379488 221.969092,163.79151 C222.339237,162.779307 222.187483,161.26962 222.215693,160.19182 L222.435543,152.53374 L223.468642,139.497193 C224.524115,128.270546 226.389918,116.871049 229.89584,106.120818 C230.786912,103.387773 232.017486,100.841942 233,98.1649184 L223.402492,94.6609903 C222.093122,94.1783502 220.589195,93.7292269 219.400937,93 Z M244.575499,145 C241.917379,145.712659 239.412631,146.785176 236.864198,147.842573 C235.287749,148.496768 233.62773,149.059235 232.107312,149.843463 L232,162 L232.331909,161.876015 L237.867047,154.365876 L242.233618,149.089979 C243.229345,147.875838 244.323837,146.568959 245,145.117433 L244.790242,145.043407 C244.719848,145.020664 244.648623,145.003024 244.575499,145 Z M19.0546009,140 L9,148.241825 C24.8393948,159.044628 139.399107,159.483974 163.461789,156.208803 L174,154.598549 L166.704767,152.656741 L156.379266,149.71721 C153.259513,148.885007 149.840499,148.338379 146.894337,146.986623 C145.622965,146.403213 143.689012,144.983512 142.357982,144.840469 C140.633317,144.655024 138.655843,144.924762 136.906728,144.935491 L119.122671,145.35338 L73.4808858,145.649683 C61.9265544,145.29412 50.322835,144.61109 38.8535877,143.069803 L26.7943257,141.191343 C24.2473264,140.750464 21.6403281,140.069989 19.0546009,140 Z M335.639628,128 L335.420295,128.278516 C334.787336,129.038534 333.889601,129.082908 333.081825,129.509651 C331.878508,130.146461 331.973104,134.481869 332.027821,135.831964 C332.238808,141.023218 333.00856,150.601336 336.974638,154.304182 C337.328446,154.634625 337.586267,154.842804 338.037916,155 C339.148956,154.815424 339.800927,153.849115 340.428321,152.960697 C342.174639,150.486625 343.060317,147.840251 343.978919,144.969648 C344.458391,143.007291 344.99119,141.010473 345,138.975418 C344.725022,139.109011 344.836312,139.001381 344.711575,139.366284 C344.387908,140.316071 344.258998,141.342804 343.997467,142.313361 C343.41227,144.48673 342.508971,146.915956 341.261601,148.78815 C340.694025,149.639748 340.103263,150.422897 339.168432,150.877963 C338.669484,151.121075 338.344426,151.119187 337.81812,151.012973 C335.863135,149.216309 335.620616,144.255892 335.493097,141.716204 L335.930372,128.097245 C335.834385,128.06184 335.739325,128.021715 335.639628,128 Z M323.695007,128 C320.530556,130.38909 316.942753,132.134034 313.327392,133.697766 L291.083583,142.037352 L280.638044,146.145291 L277.084926,147.562605 C276.873013,147.649103 276.176454,147.887336 276.037237,148.066131 C275.896119,148.247825 275.203361,153.152128 275.108333,153.814153 L275,154.819272 C275.244699,154.994684 275.124963,154.948294 275.341628,155 L306.134681,144.851684 C311.699553,143.18744 316.967461,141.337151 322.729517,140.347013 L323.398518,133.590973 L323.811417,130.138777 C323.895042,129.470953 324.094602,128.665891 323.947308,128.003866 Z M198.87271,137.259064 C198.430204,136.909533 198.378705,136.997146 197.799346,137.050175 C188.894859,138.889593 179.789147,139.699325 170.807889,141.162928 C166.50728,141.863834 162.039778,142.466983 158,144.112729 L164.505988,146.749889 C168.130439,147.948808 171.823555,149.019074 175.553865,149.866617 C177.319599,150.267794 179.116804,150.72615 180.927361,150.883854 C184.0106,151.152227 187.253104,150.905526 190.333959,150.648681 C192.155483,150.496511 194.406162,150.439793 196.063176,149.650351 C197.106499,149.152799 197.520872,147.89209 197.822234,146.887765 C198.700571,143.95687 199.266102,140.293712 198.87271,137.259064 Z M337.539838,130 C336.780815,134.559173 336.859675,139.154165 337.542113,143.71586 C337.802198,145.454369 337.98494,147.282175 339.020729,148.903136 L339.402895,149 C339.706959,148.521229 340.011782,148.001593 339.999649,147.473381 C339.957187,145.583521 339.340717,143.589735 339.113238,141.687263 C339.019668,140.904278 338.941294,140.122039 338.867639,139.34056 L338.723518,137.778616 C338.483457,135.177074 338.218232,132.584052 337.539838,130 Z M266.49195,133 L265.860029,133.187531 L253.008729,138.133467 C252.075057,138.520488 250.830333,138.78575 250,139.350518 L255.981807,141.215504 L266.839171,146 C266.943544,141.808538 267.200859,137.353989 266.708446,133.187531 L266.49195,133 Z M4,138 C4.45055631,140.722736 5.04731691,143.408211 5.98184029,146 L9.01470408,143.096281 L12,140.296893 Z M313.754791,75.0565161 C313.554259,74.9947001 313.532485,74.9887816 313.429353,75.0139172 L313.289466,75.048484 L313.181119,75.0718057 L275.937005,85.8322279 L267.759114,87.919011 C266.926285,88.1192553 265.743177,88.1631513 265,88.5562418 C267.596467,93.1485456 269.650615,98.8579761 269.904383,104.188619 C269.958272,105.321036 269.985706,106.467755 269.91761,107.599185 C269.87205,108.352814 269.713812,109.232213 269.835307,109.976964 C269.964641,110.76857 270.512838,111.673123 270.84352,112.40801 C271.411804,113.669648 271.883087,114.935725 272.249042,116.271838 C274.264978,123.623174 275.330999,130.654414 275.794934,138.26666 L275.929656,145 C278.05631,144.440204 280.021786,143.586452 282.05095,142.758841 L294.089738,137.588985 L316,129.281803 C315.229388,127.778491 314.672373,126.412785 314.590559,124.699857 C314.502867,122.859187 314.818852,120.940097 314.967782,119.102879 L315.568399,110.083005 C316.133253,99.7437862 316.037232,88.8136989 314.507766,78.5479691 C314.504602,78.5266376 314.500898,78.5011772 314.496684,78.4719625 L314.465506,78.2546202 C314.336592,77.3572225 314.008559,75.1346287 313.754791,75.0565161 Z M339,128 C339.889892,131.379721 340.543668,134.639421 340.832254,138.124159 C340.991762,140.050181 340.939817,142.09881 341.254637,144 L341.48603,143.921366 L341.830234,142.853595 C342.243697,141.193999 343.091613,138.689084 342.99192,136.997931 C342.877011,135.043973 340.331689,130.11433 339.238214,128.348681 Z M329.881042,57.0018567 L329.764614,57.0197503 L319.667983,58.2534323 C315.353914,58.5925145 311.254455,58.7719154 307,59.654491 C309.149583,61.9227345 311.23359,64.2078117 312.966868,66.8011893 C313.484872,67.5762343 313.955883,68.374248 314.414355,69.178496 L315.324787,70.7903462 C315.629497,71.3270949 315.938841,71.861656 316.263028,72.3890714 C319.876135,71.5021671 337.694771,67.7438859 339.93924,69.1949653 C340.537367,69.5816633 340.817553,70.0231916 340.913432,70.7042418 C341.038125,71.59307 340.809108,72.6271504 340.661563,73.5058783 L339.695319,78.281887 L333.015566,104.847173 L328.947405,123.73333 L327.345774,137.197057 C327.235985,138.760683 327.002,140.437336 327.088937,142 L330.054239,141.608011 C330.08802,138.302321 330.087026,134.974987 330.412916,131.68132 C331.080097,124.94633 332.357328,118.280119 333.673804,111.641803 C334.523304,107.359748 335.452786,103.109437 336.742437,98.9288662 C337.23922,97.3181056 337.684835,95.6895491 338.409643,94.1562242 C338.922323,93.0706803 339.552245,92.1270217 340.432049,91.2829235 C341.142946,90.6009114 342.091306,89.9198612 343.132565,89.9150515 C344.06155,89.9112038 345.083434,89.9496812 346,90.0973383 L343.882708,67.3653643 L343.634316,67.3062053 C338.374868,66.0200978 334.13929,62.0203709 330.969811,57.9379175 C330.9251,57.8803296 330.881626,57.8193045 330.838422,57.7571118 L330.708651,57.5693016 C330.468675,57.2268848 330.207612,56.9178172 329.764614,57.0197503 Z M233.313278,132 L232,141 L243.605049,140.438621 C244.159221,140.375599 244.553556,140.414867 245,140.080366 C244.815109,139.226178 243.88915,138.718126 243.176142,138.266308 L233.313278,132 Z M3,126 C3.12018276,127.285586 3.75774732,136.238647 4.28550854,136.792087 L13.2896802,138.641014 C13.6810191,138.716753 14.787346,139.062777 15.1389054,138.990008 C15.4217819,138.9311 16.0749901,138.430132 16.3413786,138.242517 L18.2859058,136.719318 L21,134.496646 C15.6538538,130.83097 9.05313866,128.287026 3,126 Z M262.180094,115 C260.131313,117.483098 258.493471,120.458279 256.770387,123.188931 L251.836659,131.243245 C250.758068,133.086536 249.598177,134.925794 249,137 C250.375708,136.757992 251.606553,136.378847 252.914757,135.882228 L267,130.747634 C266.192412,125.45876 264.858586,119.646041 262.180094,115 Z M242.835726,108 C242.312823,108.083821 241.607546,108.116683 241.241847,108.536263 C240.53467,109.345897 240.06971,110.961832 239.699261,111.978637 C238.05504,116.490203 236.696728,121.248469 236,126.006736 C237.469921,128.454688 239.659367,130.507348 241.648391,132.535719 L245,136 L243.30591,108.110015 C243.159631,108.072391 242.98628,108.008096 242.835726,108 Z M345.917407,121 C344.105714,122.677736 342.185709,124.333402 340,125.333231 L343.056439,131.177239 L344.842746,135 C345.916984,130.615435 346.151379,125.536651 345.917407,121 Z M246,108 L247.244308,135 L251.433895,127.46807 C253.965684,123.57044 256.973322,119.549551 259,115.390462 C256.323826,111.772035 251.96395,108.902506 247.393011,108.188625 L246,108 Z M338,70.1167533 C337.494324,69.91657 337.182782,70.0222629 336.651359,70.0797364 L316,74.3697974 C317.132364,78.695414 317.376448,83.3088855 317.640615,87.7479881 C318.117969,95.7611673 318.179763,103.776295 317.652974,111.7885 C317.460384,114.714781 316.010814,124.242243 317.118976,126.30155 L317.155537,126.372661 L317.746694,127 C320.287433,126.466178 322.986775,124.05862 325.110924,122.613013 C326.295813,115.295362 328.365377,107.931439 330.325258,100.767213 L333.414929,89.0406563 L336.680711,76.3818593 C337.15858,74.3751551 337.85942,72.1707028 338,70.1167533 Z M335.268398,112 L334.012251,119.746203 C333.653352,121.729993 332.987485,123.828241 333.000179,125.828312 L333.26041,126 L334.190547,125.692638 L337,124.719244 L335.268398,112 Z M345.609813,118 L342.144709,121.554049 C341.424973,122.278359 340.575174,122.999639 340,123.841206 L340.151153,124 L340.38052,123.895724 C341.458367,122.950314 345.77283,119.826783 346,118.973534 L345.888393,118.030288 L345.609813,118 Z M68.8282343,100 C65.9617012,103.027579 63.1850878,106.9752 62.2760807,110.972236 C61.9033224,112.609054 61.9736233,114.719648 62.1076855,116.391617 C62.2630015,118.327475 62.7752717,120.134445 63.3049808,122 L65.3415273,119.168044 C65.4410813,119.035755 65.5404873,118.903112 65.6398201,118.770199 L66.2355382,117.970152 C66.3348779,117.836494 66.4342943,117.702733 66.5338622,117.568954 L67.1336874,116.76672 C69.3441079,113.829268 71.7003728,110.963612 75,109.060322 C72.9596388,107.18254 71.7656133,105.42957 70.4925674,103.039296 C69.9693979,102.056084 69.5001802,100.890494 68.8282343,100 Z M344.643588,107 C342.481571,109.725731 341.083942,112.490608 339.497892,115.46659 C338.860367,116.662855 337.986247,117.693684 338.000164,119.058646 L338.001235,119.336858 L338.03924,119.982291 L338.307953,120 L338.65,119.588041 C340.746712,116.892135 343.058608,114.650595 346,112.628083 L345.000623,107.095999 Z M337.816685,102.174762 C337.58913,101.96632 337.703404,102.00106 337.487774,102.003803 C336.527208,104.176439 337.229415,113.237695 337.534808,116 C338.322141,111.497484 337.887568,106.760014 337.816685,102.174762 Z M339,101 C339.326194,103.965411 339.702811,107.013169 339.64971,110 L341.202142,107.14121 C342.065149,106.058811 342.954485,105.199651 344,104.324783 C342.439982,102.822562 340.972334,101.790618 339,101 Z M73,102 L75.9995912,106.27894 L76.2314675,106.244102 C78.1407468,105.98827 80.1388298,106.159864 82.0624163,106.211343 L92.0202698,106.61381 C99.8295674,107.021996 107.710895,107.22011 115.482204,108.166999 C120.349139,108.7603 125.56833,110.26721 130.436252,109.95886 C133.664759,109.754507 137.207039,108.490948 140.385718,107.744253 C141.015238,107.543539 142.567822,107.260668 143,106.820763 C133.614437,104.198488 123.787322,103.577109 114.128934,103.144483 L87.5623247,102.346309 L78.1190392,102.123236 C76.4663039,102.096197 74.630041,102.249072 73,102 Z M65,102 L62.2081589,102.049162 L40.9901668,103.470088 C37.7416129,103.782243 34.4430171,104.037599 31.2396926,104.664296 C28.0802222,105.282401 25.0908161,106.312894 22,107.156763 L26.4923841,109.229205 C27.8606563,109.730371 28.9758704,110.054459 30.4677006,109.99241 C34.0085507,109.845878 37.8368842,108.677922 41.3270539,108.001109 C46.45255,107.006413 51.6399233,106.507633 56.8371183,106.029377 C58.7764289,105.850867 60.7830186,105.519142 62.7287133,105.527256 L65,102 Z M237,69.2170321 C236.638171,68.9231699 236.702801,69.000957 236.272914,69.0364893 C231.476596,69.6146104 225.985507,71.0311033 221.435468,72.7020846 C219.722777,73.3311034 218.161379,74.2779929 216.473658,74.9641516 C212.282021,76.6677843 207.967489,78.1457385 203.614277,79.3927323 C196.97405,81.2951542 190.046906,82.4177847 183.284273,83.8227535 C172.040638,86.1582861 160.708872,88.5759272 149.879945,92.4047793 C145.510576,93.9494767 141.256757,95.8523787 137.056306,97.790333 L131.051606,100.596909 C129.698786,101.227369 128.22405,101.80693 127,102.656346 C137.402957,101.112129 147.490599,98.0294561 157.758421,95.8120447 L188.567763,89.6476601 C192.765766,88.7483072 197.060713,88.0371798 201.139248,86.6936724 C203.547689,85.8999562 205.820016,84.7878893 208.097239,83.6945489 C208.893361,83.335384 209.604289,82.9690165 210.49197,82.9017931 L210.683301,82.99783 C210.978163,83.1496787 210.99142,83.1974652 211.150509,83.6220437 C210.90472,85.0582234 209.351156,86.1347579 208.208872,86.9423989 C205.559048,88.8155306 202.585096,90.1556768 199.500979,91.1779525 C194.183216,92.9401655 188.457109,93.8433598 182.97875,95.0432972 L143.730807,102.728371 L137.320701,103.667098 C141.550039,104.283152 145.911575,105.839853 150.042499,106.955762 C151.434489,107.331732 153.119761,107.938664 154.561203,107.994843 C156.264591,108.061106 158.14669,107.473862 159.803564,107.090689 L168.099687,105.156096 L189.767822,100.308329 C194.95094,99.118475 200.291716,98.0280156 205.278986,96.1880155 C209.351645,94.6855728 212.933216,92.4609588 216.414904,89.9304785 C219.562671,87.6424825 222.535644,85.0774301 225.412652,82.4710833 C229.659616,78.6235047 234.172444,74.1987653 237,69.2170321 Z M10.976617,93 C10.0571012,94.7001715 9.2487803,96.4430875 8.50350749,98.2153002 C8.29725231,98.7061407 7.92297162,99.3434648 8.01402398,99.8602401 C11.398582,102.745249 15.9937459,105.367067 20.2256767,107 L24.2803842,105.882882 L29,104.945866 C22.2195281,102.062298 16.5614358,97.5357118 10.976617,93 Z M15.2775199,83 C14.3868455,84.4446809 13.5943624,85.8394419 13,87.4373768 C14.8294759,92.4722945 22.6276572,98.2610021 27.3728214,100.449988 C29.1353962,101.262684 30.9018449,101.479835 32.8023443,101.739918 L35,102 Z M285.653559,6.8315014 C283.928992,6.22780752 282.297579,5.90248091 280.461813,6.02593074 C274.303899,8.24512298 271.044486,14.8784938 268.420081,20.4468074 C266.627234,24.2514827 265.158231,28.2260831 263.790185,32.1997153 L261.15066,40.1043774 C260.237654,42.9282317 259.324648,46.2604089 257.468398,48.6383915 C256.471016,49.9159762 255.114188,50.5545265 253.617872,51.0880234 C249.901191,52.413674 245.97132,52.9223723 242.047854,53.3354804 L240.577283,53.4873241 C239.842576,53.5624145 239.10906,53.6373143 238.378181,53.7167786 L222.487876,55.584986 C217.764825,56.2743686 213.052504,57.3825124 208.407488,58.477585 L188.400363,63.9326151 C174.889629,68.2456133 161.83052,74.2176804 149.125494,80.4506865 L141.302514,84.3933352 L136.561905,86.813436 C135.740102,87.2118643 134.86465,87.7124412 133.940427,87.7792494 C133.691691,87.3643611 133.735586,87.3304729 133.806792,86.8444195 C134.522273,85.8059886 135.69572,85.0401155 136.726266,84.3333047 L143.003183,80.4090525 C166.336537,66.3149548 193.077569,57.699609 219.826404,52.73741 L225.957006,51.6515356 C221.172503,51.3107172 216.239246,51.5944098 211.43621,51.6084492 L186.52119,51.5643945 L127.211884,52.4169245 L107.451057,53.3391674 L94.5894734,54.2846478 L82.4667811,56.2293457 C73.4840106,57.8288683 64.378823,59.7483921 55.8164645,62.9440483 C52.2229661,64.2855364 48.9162452,65.5452088 45.9889682,68.062133 C42.7597943,70.8385439 39.8115454,73.8086015 37.3871045,77.3228067 C36.4809264,78.6367002 35.6020605,79.9810931 34.8343941,81.3806752 C34.2412327,82.4631608 33.4862957,85.3088004 32.5748015,85.9202402 C31.9523284,85.7793621 31.7006664,85.6868958 31.3451208,85.1296771 C30.8555017,84.3618676 30.6567083,83.2091851 30.4555251,82.3217987 C29.6424034,78.7359442 29.5253026,74.9719347 29.4658986,71.3086215 C25.2043743,73.5099014 20.4479149,76.4455867 17,79.7918033 L17.2418101,80.3364349 C20.9761611,86.0504676 26.3946475,90.8930898 31.3754568,95.5120499 C33.2781869,97.2766563 35.3630792,99.0369056 37.0525307,101 C43.8912976,100.204596 50.744696,99.919935 57.6215049,99.642536 C60.5122032,99.5258638 63.6711458,99.7267723 66.5199004,99.3356058 C67.259767,99.2339413 67.8430765,98.9628357 68.2976286,98.3644672 L68.5902588,97.945706 C68.9311729,97.4514225 69.1384526,97.1110883 69.7022534,96.8380463 C70.4070044,97.2345381 70.8318059,98.2555408 71.3219614,98.9124876 C71.3785365,98.9880098 71.7014052,99.4561509 71.744812,99.4755156 C72.0452456,99.6105843 73.2762432,99.4706745 73.6698307,99.4663174 L81.3738075,99.3917634 L109.47557,100.100511 L118.395913,100.449075 C119.708847,100.497487 121.434877,100.774401 122.691236,100.412766 C124.273877,99.9576961 126.011613,98.5852245 127.441599,97.7302739 L133.322977,94.452802 C137.934829,92.0685258 143.054393,90.1732078 147.958387,88.4279661 C156.841176,85.2666822 165.877595,82.6853705 175.051551,80.5034553 L199.373994,74.7899067 C208.963485,72.1863255 218.129149,68.0476095 227.775215,65.7277209 C238.791277,63.0781487 250.493558,61.7047088 261.78518,60.8134494 C269.615963,60.1952321 277.591111,60.0945357 285.333129,58.7012471 C286.434394,58.5032432 287.723918,58.4083563 288.773485,58.0530144 C285.340933,57.8259636 281.839125,57.9039064 278.404623,58.071895 L268.551277,58.4253004 C267.331985,58.4107769 265.944918,58.4795215 264.75879,58.2156777 C263.933086,58.0317133 263.012764,57.5945556 262.464082,56.9351883 C261.979779,56.3532797 262.006116,55.4712186 262.131459,54.7663442 C262.666485,51.7454543 263.891142,48.5836863 264.707092,45.6083033 C267.002776,37.2393731 269.059478,28.9062675 272.599328,20.9328608 C274.069794,17.6200483 275.785583,13.7572789 278.883561,11.617966 C280.957333,10.1854638 283.114993,10.0169911 285.531143,10.5291869 C290.334667,11.547769 294.490503,14.5783413 298.163499,17.6553888 C303.606908,22.2152867 308.195349,27.2723727 312.676492,32.7501563 C316.613343,37.5627632 320.418023,42.5186687 323.715965,47.7907027 L325.700485,51.2729561 C325.92581,51.7188278 326.302815,52.8279398 326.633,53.1043706 C326.771024,53.2200746 326.961233,53.2539628 327.125106,53.3285168 L327.948372,53.1963529 C328.146873,52.6493007 327.723535,51.9734734 327.514304,51.4356194 L324.97525,45.5681216 C322.731264,40.8629887 319.674742,36.5635458 316.425084,32.4959949 C310.345693,24.8861601 303.312814,18.0421983 295.355225,12.3775455 C292.321138,10.2174156 289.201212,8.07229322 285.653559,6.8315014 Z M342.051032,93.0014261 C341.881904,93.0111312 341.724945,93.0775349 341.56505,93.1342334 C340.486067,94.0046319 339.425969,95.2897977 339,96.8237218 C340.422276,97.3243031 341.471462,98.0246061 342.612557,99.1718567 L344,101 L343.568575,96.6122517 C343.51024,95.8904953 343.53584,94.8689008 343.365033,94.1880081 C343.256337,93.7558736 343.189609,93.6521818 342.897935,93.3860564 C342.642773,93.1536437 342.384254,92.9825266 342.051032,93.0014261 Z M255.46572,84.2366375 C254.559408,83.974917 253.595348,83.9329865 252.665173,84.0974833 C245.92534,85.5811802 241.536479,91.4588318 238,96.754524 L242.537288,98 L244.670153,95.4072166 C247.704557,92.0177524 251.561753,88.396979 256.463189,88.0670637 C257.345638,88.0076237 258.266746,88.0034767 259.143468,88.121896 C259.68611,88.1956201 260.474062,88.4610267 261,88.3826949 C259.884649,86.3179602 257.756557,84.8992326 255.46572,84.2366375 Z M268.335294,65.020662 C267.698552,64.9606626 267.096725,65.0433389 266.463862,65.1156217 L249.55647,67.3729216 L244.668631,68.0381117 C243.963025,68.1325989 242.842784,68.1562207 242.204101,68.4557452 C242.05716,68.5247209 241.780737,68.9201499 241.675018,69.0576289 C240.801133,70.191948 240.080978,71.4807538 239.254618,72.6557025 L234.213535,79.2277617 C230.585603,83.5878749 226.168169,87.408466 222,91.2701591 C225.396124,92.3137705 228.717565,93.7991098 232.062284,95.0109085 C232.922106,95.3222439 234.535543,96.1475898 235.398274,95.9770404 L236.038897,95.033113 C239.80213,89.3695485 244.67639,82.8281976 251.888607,81.2710481 C254.954963,80.6086926 257.689127,81.1274275 260.288474,82.7719777 C262.12208,83.9318084 263.547841,85.4095887 264.827146,87.1259492 L275,84.8691217 C273.905947,79.7838191 272.596089,74.5038727 270.627666,69.6774651 C270.006442,68.1548034 269.298896,66.3642704 268.335294,65.020662 Z M303.670468,61 L303.08186,61 L269,64.2160935 C271.322326,69.7067855 273.286623,75.0699883 274.654042,80.8786814 C274.860784,81.7585969 274.99845,83.2490169 275.462526,84 L277.535788,83.2870231 L312,73.5636923 C309.624651,69.0534639 306.593563,65.1571076 303.670468,61 Z M43.8497727,67 L43.1732211,67.0987942 C39.0901079,67.8598931 34.8414272,68.7624692 31,70.2467799 C31.3181221,73.7793916 30.9930705,77.5446013 31.8856002,81 C32.788392,79.1483283 33.6918185,77.3983283 34.9641481,75.7231433 C37.4508323,72.4499863 40.736789,69.7691148 44,67.1505892 L43.8497727,67 Z M284.178855,44.216627 C283.011756,44.1205009 281.291924,43.7919819 280.205688,44.1981412 C278.121477,46.1914379 276.743344,48.8898356 275.202003,51.3521433 L272,56 L300.700187,54.9156762 C302.95648,54.7287056 306.178206,54.8269444 308.209166,53.7711415 C309.077957,52.3926294 309.568563,51.0685184 310,49.4787402 C306.842866,48.071179 303.248871,47.4379086 299.898453,46.7386174 C294.718742,45.6579907 289.443868,44.6502509 284.178855,44.216627 Z M284.887093,14.2104759 C284.469227,13.9420454 284.134934,14.0062974 283.663884,14.0077252 C280.935405,14.8268187 279.209332,16.4883268 277.858863,18.9708322 C273.73338,26.5539914 271.593714,35.1837435 269.30257,43.451305 L266,55 L271.353915,54.8443675 L275.097145,49.1711573 C276.673166,46.7557596 279.142853,41.6836622 282.204675,41.0568487 C283.349059,40.82221 284.679585,41.0425704 285.83774,41.1191969 C289.539657,41.3633543 293.38403,41.6898495 297,42.5265528 C294.943432,34.1500009 292.184088,26.1713352 288.019193,18.5995987 C287.275581,17.2484037 286.230439,15.0728799 284.887093,14.2104759 Z M289,15 C292.840118,20.7799077 295.48682,27.2810075 297.408056,33.9395441 L299.681433,42.3704223 C302,42.7470449 304.258786,43.3263555 306.516156,43.9707148 C308.632293,44.5745365 310.836936,45.1595035 312.411681,46.7993908 C312.524197,49.3556165 312.582102,51.5573739 311.665973,54 L318.290259,53.5861394 L318.960173,53.452271 C319.148954,52.7975416 318.614624,51.5894269 318.443732,50.9087723 C317.713088,47.9933646 317.221127,45.1887283 315.737242,42.5292731 C314.124835,39.6388479 311.970565,37.0260582 309.907625,34.4495637 C304.028576,27.1061302 297.366157,19.5548237 289,15 Z M319,49 C319.705882,50.5727311 320.179871,52.3453892 321.215573,53.8393355 C321.903774,54.0451926 322.260116,54.0426512 323,53.8918588 C322.856511,53.2725932 322.243115,52.7113574 321.774566,52.1662173 Z M146.421058,14 C141.139121,15.3108443 136.176551,17.6272091 131.364184,20.093616 C119.841727,25.9986077 108.853004,33.5211964 98.9857087,41.8259096 C97.2065915,43.3229967 95.6292047,45.0282375 93.9268909,46.605347 L87.0140968,52.6398989 L87,52.8980666 L87.6251215,53 C88.3440599,52.9071168 89.3775034,52.8661529 90.012833,52.5260574 C90.7813533,52.1149896 91.5537624,51.3333415 92.2284659,50.7798527 L97.0286798,46.8396986 L117.309644,30.957143 C123.400447,26.6421217 129.867976,22.595271 136.513416,19.1452545 L143.020805,15.9005337 C144.325005,15.2903624 145.796422,14.7816481 147,14.0119081 Z M269.250507,4 C266.815941,9.30767814 263.290135,14.1781262 260.538523,19.3502139 L252.448512,35.7895728 C251.002897,38.6723436 249.679932,41.7388492 247.608952,44.2276216 C245.52876,46.727202 242.738365,48.1995374 239.755028,49.3142284 L232,52 L238.114532,51.5578572 C241.987926,51.0749391 252.489233,50.1621599 254.891804,47.0091908 C255.582616,46.1023069 255.987407,44.8186191 256.354386,43.7402821 L258.042875,38.5441222 C260.791578,30.2161177 263.687655,21.6046507 268.009955,13.9776882 C269.909324,10.6267374 271.983698,7.42316746 275,4.99776882 Z" fill="#FFFFFF" fill-rule="nonzero" transform="translate(175, 96.5) scale(-1, 1) translate(-175, -96.5)"></path>
    </g>
</svg>