<?xml version="1.0" encoding="UTF-8"?>
<svg width="57px" height="80px" viewBox="0 0 57 80" version="1.1" xmlns="http://www.w3.org/2000/svg" xmlns:xlink="http://www.w3.org/1999/xlink">
    <title>Logo</title>
    <g id="Page-1" stroke="none" stroke-width="1" fill="none" fill-rule="evenodd">
        <g id="Home---loading-Copy" transform="translate(-130, -143)" fill-rule="nonzero">
            <g id="Logo" transform="translate(130, 143)">
                <path d="M28.501,5.14 L28.6765331,5.36978687 C28.974247,5.76082299 29.2996902,6.19050694 29.6495933,6.65563406 L30.1923845,7.37950653 C37.5699176,17.2499467 53.8508287,40.3204279 53.8508287,51.9030556 C53.8508287,58.7762251 51.0100029,65.0055752 46.4322297,69.5185839 C41.8378918,74.0479229 35.4941386,76.8508287 28.4998467,76.8508287 C21.5057955,76.8508287 15.1622007,74.0480021 10.5679066,69.5190962 C5.99011296,65.006456 3.14917127,58.7777491 3.14917127,51.9057771 C3.14917127,40.3251598 19.4305174,17.2539542 26.8088121,7.38273595 L27.3516617,6.65880432 C27.7016043,6.19363776 28.0270876,5.7639144 28.3248426,5.37283926 L28.501,5.14 Z" id="Path" stroke="#FFFFFF" stroke-width="6.29834254" fill="#234355"></path>
                <path d="M39.6541665,47.5422506 C39.4971935,46.9815214 39.1052283,46.5133429 38.5765422,46.2550943 L31.5512606,42.8226774 L33.4371031,29.9715455 C33.5645837,29.0558457 33.052625,28.1698206 32.1886679,27.8109316 C31.3247109,27.4520427 30.3239691,27.7096899 29.7483122,28.4392165 L15.241831,46.8271637 C14.842696,47.3296945 14.704703,47.987247 14.8688072,48.6046653 C15.0540472,49.2217255 15.5104755,49.7242101 16.1122198,49.9735458 L24.9611734,53.4672558 L23.0753308,66.1753704 C22.9433425,67.1144562 23.4839574,68.019684 24.3809141,68.361493 C24.6237689,68.4607765 24.8848268,68.5094687 25.1476853,68.5048544 C25.8409274,68.5009745 26.4864605,68.1559264 26.8677395,67.585113 L39.3018663,49.1971658 C39.6562036,48.7215719 39.7846581,48.1181625 39.6541665,47.5422506 Z" id="primary" fill="#FFF180"></path>
            </g>
        </g>
    </g>
</svg>