<?xml version="1.0" encoding="UTF-8"?>
<svg width="888px" height="346px" viewBox="0 0 888 346" version="1.1" xmlns="http://www.w3.org/2000/svg">
    <g transform="translate(296.725, 61.972)" fill="#FFF180">
        <path d="M140.844,80.316 L144.045,61.11 L187.986,61.11 L164.997,192.642 C162.669,206.028 159.177,217.9105 154.521,228.2895 C149.865,238.6685 143.851,247.35 136.479,254.334 C129.107,261.318 120.086,266.653 109.416,270.339 C98.746,274.025 86.33,275.868 72.168,275.868 C65.766,275.868 59.2185,275.3345 52.5255,274.2675 C45.8325,273.2005 39.285,271.6485 32.883,269.6115 C26.481,267.5745 20.4185,265.0525 14.6955,262.0455 C8.9725,259.0385 4.074,255.498 0,251.424 L26.19,218.541 C31.816,224.749 38.7515,229.5505 46.9965,232.9455 C55.2415,236.3405 63.535,238.038 71.877,238.038 C79.637,238.038 86.1845,237.0195 91.5195,234.9825 C96.8545,232.9455 101.365,230.084 105.051,226.398 C108.737,222.712 111.647,218.444 113.781,213.594 C115.915,208.744 117.564,203.409 118.728,197.589 L120.765,187.986 L119.892,187.986 C115.818,193.224 109.8525,197.783 101.9955,201.663 C94.1385,205.543 85.263,207.483 75.369,207.483 C65.669,207.483 57.036,205.9795 49.47,202.9725 C41.904,199.9655 35.502,195.7945 30.264,190.4595 C25.026,185.1245 21.049,178.771 18.333,171.399 C15.617,164.027 14.259,155.879 14.259,146.955 C14.259,134.539 16.2475,122.899 20.2245,112.035 C24.2015,101.171 29.7305,91.665 36.8115,83.517 C43.8925,75.369 52.3315,68.967 62.1285,64.311 C71.9255,59.655 82.741,57.327 94.575,57.327 C105.051,57.327 114.2175,59.3155 122.0745,63.2925 C129.9315,67.2695 135.897,72.944 139.971,80.316 L140.844,80.316 Z M60.237,141.135 C60.237,145.209 60.819,149.089 61.983,152.775 C63.147,156.461 64.99,159.7105 67.512,162.5235 C70.034,165.3365 73.138,167.5675 76.824,169.2165 C80.51,170.8655 84.972,171.69 90.21,171.69 C96.224,171.69 101.8015,170.429 106.9425,167.907 C112.0835,165.385 116.497,161.9415 120.183,157.5765 C123.869,153.2115 126.7305,148.2645 128.7675,142.7355 C130.8045,137.2065 131.823,131.338 131.823,125.13 C131.823,115.818 129.0585,108.3975 123.5295,102.8685 C118.0005,97.3395 110.58,94.575 101.268,94.575 C94.866,94.575 89.143,95.836 84.099,98.358 C79.055,100.88 74.787,104.275 71.295,108.543 C67.803,112.811 65.087,117.758 63.147,123.384 C61.207,129.01 60.237,134.927 60.237,141.135 Z"></path>
        <path d="M344.544,103.596 C344.544,106.312 344.3985,109.222 344.1075,112.326 C343.8165,115.43 343.38,118.437 342.798,121.347 L332.904,177.801 C331.934,182.845 331.2065,187.986 330.7215,193.224 C330.2365,198.462 329.994,202.73 329.994,206.028 L288.672,206.028 C288.672,203.894 288.769,201.4205 288.963,198.6075 C289.157,195.7945 289.448,193.127 289.836,190.605 L289.254,190.605 C278.584,203.215 263.84,209.52 245.022,209.52 C239.978,209.52 234.7885,208.8895 229.4535,207.6285 C224.1185,206.3675 219.2685,204.2335 214.9035,201.2265 C210.5385,198.2195 206.998,194.2425 204.282,189.2955 C201.566,184.3485 200.208,178.286 200.208,171.108 C200.208,159.468 203.118,149.962 208.938,142.59 C214.758,135.218 222.3725,129.495 231.7815,125.421 C241.1905,121.347 251.8605,118.534 263.7915,116.982 C275.7225,115.43 287.702,114.654 299.73,114.654 C300.118,112.908 300.312,111.55 300.312,110.58 C300.312,109.61 300.312,108.737 300.312,107.961 C300.312,102.335 298.3235,98.2125 294.3465,95.5935 C290.3695,92.9745 284.792,91.665 277.614,91.665 C271.018,91.665 264.3735,92.926 257.6805,95.448 C250.9875,97.97 244.925,101.268 239.493,105.342 L220.287,78.57 C229.017,71.586 239.0565,66.2025 250.4055,62.4195 C261.7545,58.6365 272.958,56.745 284.016,56.745 C292.746,56.745 300.797,57.6665 308.169,59.5095 C315.541,61.3525 321.8945,64.214 327.2295,68.094 C332.5645,71.974 336.784,76.824 339.888,82.644 C342.992,88.464 344.544,95.448 344.544,103.596 Z M293.037,142.59 C287.217,142.59 281.3,142.8325 275.286,143.3175 C269.272,143.8025 263.8885,144.821 259.1355,146.373 C254.3825,147.925 250.454,150.059 247.35,152.775 C244.246,155.491 242.694,159.08 242.694,163.542 C242.694,169.362 244.6825,173.2905 248.6595,175.3275 C252.6365,177.3645 257.05,178.383 261.9,178.383 C270.824,178.383 278.293,175.6185 284.307,170.0895 C290.321,164.5605 294.104,157.722 295.656,149.574 L297.111,142.59 L293.037,142.59 Z"></path>
        <path d="M380.628,159.759 C384.314,165.191 389.2125,169.3135 395.3235,172.1265 C401.4345,174.9395 407.691,176.346 414.093,176.346 C420.301,176.346 425.2965,175.182 429.0795,172.854 C432.8625,170.526 434.754,167.325 434.754,163.251 C434.754,159.371 433.008,156.364 429.516,154.23 C426.024,152.096 420.883,149.962 414.093,147.828 C407.303,145.888 401.3375,143.7055 396.1965,141.2805 C391.0555,138.8555 386.739,136.0425 383.247,132.8415 C379.755,129.6405 377.136,125.9545 375.39,121.7835 C373.644,117.6125 372.771,112.714 372.771,107.088 C372.771,99.134 374.5655,92.053 378.1545,85.845 C381.7435,79.637 386.4965,74.3505 392.4135,69.9855 C398.3305,65.6205 405.266,62.3225 413.22,60.0915 C421.174,57.8605 429.516,56.745 438.246,56.745 C449.498,56.745 460.0225,58.6365 469.8195,62.4195 C479.6165,66.2025 487.425,71.78 493.245,79.152 L463.854,103.887 C461.138,100.007 457.4035,96.806 452.6505,94.284 C447.8975,91.762 442.223,90.501 435.627,90.501 C430.583,90.501 425.9755,91.471 421.8045,93.411 C417.6335,95.351 415.548,98.649 415.548,103.305 C415.548,106.603 417.1,109.1735 420.204,111.0165 C423.308,112.8595 428.061,114.654 434.463,116.4 C448.043,120.086 458.7615,125.1785 466.6185,131.6775 C474.4755,138.1765 478.404,147.634 478.404,160.05 C478.404,168.78 476.5125,176.3945 472.7295,182.8935 C468.9465,189.3925 463.9995,194.7275 457.8885,198.8985 C451.7775,203.0695 444.7935,206.1735 436.9365,208.2105 C429.0795,210.2475 421.077,211.266 412.929,211.266 C399.543,211.266 387.612,209.035 377.136,204.573 C366.66,200.111 358.124,194 351.528,186.24 L380.628,159.759 Z"></path>
        <path d="M519.144,137.352 L543.297,2.84217094e-14 L591.021,2.84217094e-14 L566.577,137.352 L519.144,137.352 Z M564.54,179.256 C564.54,183.33 563.8125,187.113 562.3575,190.605 C560.9025,194.097 558.9625,197.1525 556.5375,199.7715 C554.1125,202.3905 551.154,204.476 547.662,206.028 C544.17,207.58 540.387,208.356 536.313,208.356 C528.553,208.356 522.248,206.0765 517.398,201.5175 C512.548,196.9585 510.123,191.09 510.123,183.912 C510.123,179.838 510.8505,176.055 512.3055,172.563 C513.7605,169.071 515.7975,166.0155 518.4165,163.3965 C521.0355,160.7775 524.0425,158.692 527.4375,157.14 C530.8325,155.588 534.567,154.812 538.641,154.812 C546.207,154.812 552.415,157.14 557.265,161.796 C562.115,166.452 564.54,172.272 564.54,179.256 Z"></path>
    </g>
    <g>
        <path d="M121.507,22.14 L122.239626,23.1139064 C149.27197,59.1563812 229.562685,170.577683 229.562685,224.480715 C229.562685,254.279696 217.437501,281.296676 197.870912,300.866265 C178.304256,320.435922 151.291547,332.562685 121.499346,332.562685 C91.7081733,332.562685 64.69614,320.436267 45.1296712,300.868483 C25.5629883,281.300485 13.4373153,254.286279 13.4373153,224.492486 C13.4373153,170.543417 93.895304,58.9440734 120.842449,23.0252896 L121.507,22.14 Z" stroke="#FFFFFF" stroke-width="26.8746306" fill="#234355"></path>
        <path d="M169.051973,205.620234 C168.382772,203.19508 166.711763,201.170208 164.45789,200.053283 L134.508006,185.20808 L142.54765,129.626934 C143.09112,125.666533 140.908559,121.834474 137.225374,120.282279 C133.542189,118.730085 129.275868,119.844409 126.821752,122.999611 L64.978332,202.527483 C63.2767567,204.700929 62.6884709,207.544843 63.3880727,210.215177 C64.1777803,212.883963 66.1236059,215.057209 68.6889372,216.135586 L106.413423,231.245881 L98.3737788,286.208477 C97.8110919,290.270023 100.115818,294.185133 103.939687,295.663457 C104.975015,296.092858 106.087946,296.303452 107.208553,296.283495 C110.163954,296.266715 112.915963,294.774382 114.541416,292.305614 L167.550061,212.777742 C169.060658,210.720798 169.608279,208.111053 169.051973,205.620234 Z" fill="#FFF180"></path>
    </g>
</svg>