<?xml version="1.0" encoding="UTF-8"?>
<svg width="400px" height="190px" viewBox="0 0 400 190" version="1.1" xmlns="http://www.w3.org/2000/svg">
    <title>aprillia</title>
    <path d="M400.000003,0.0822125699 L400.000003,189.978247 L3.25140331e-06,189.978247 L3.25140331e-06,0.0822125699 L400.000003,0.0822125699 Z M147.17994,62.6089303 C146.038231,62.6089303 144.900799,62.7106132 143.761228,62.810221 C136.821178,63.6133089 130.918074,66.7302028 127.084584,72.7606247 L126.774569,72.7606247 L126.774569,66.0267227 L111.237496,66.0267227 L111.237496,149.265636 L128.431543,149.265636 L128.431003,122.435213 L128.685646,122.765068 C132.244846,127.287518 137.512061,130.28661 143.324306,131.299292 L143.761228,131.371511 C145.208675,131.568651 146.765162,131.670334 148.216885,131.670334 C167.895325,131.670334 177.837171,115.284852 177.837171,97.7953836 C177.837171,79.1957032 168.410591,62.6089303 147.17994,62.6089303 Z M75.1967021,63.9142074 C61.1092139,64.1154982 48.2660599,69.0398585 47.2312527,84.7239358 L63.6983698,84.9252265 C64.3183989,78.8948047 68.564529,76.0788093 75.1945641,75.9792015 L75.6863946,75.9805782 C81.7648394,76.0160974 88.2451072,76.7952864 88.2451072,84.7239358 C88.2451072,89.9512698 82.4446282,90.3538513 75.1945641,90.7564328 C71.9745494,90.8476561 68.7605517,91.0823968 65.5627331,91.4599129 C54.3765533,92.9685559 44.6399588,97.0898284 44.6399588,111.86706 C44.6399588,123.429865 53.8591497,132.172524 67.0123183,132.172524 C69.8088633,132.172524 71.7779901,132.172524 74.4697715,131.670334 L75.1945641,131.566576 C80.2702504,130.763488 85.0337841,128.754731 88.7625107,124.834749 C88.8651362,126.841431 90.1073324,129.053555 90.7294995,131.064387 L107.198755,131.064387 C104.299584,127.347771 105.231766,122.41926 105.231766,116.490522 L105.231766,82.4122049 C105.231766,65.7258242 87.5224526,63.9142074 75.1967021,63.9142074 Z M322.421538,63.7149918 C308.336187,63.9142074 295.490895,68.8406429 294.460364,84.5247202 L310.925343,84.7260109 C311.54751,78.6935139 315.79364,75.8795937 322.421538,75.7779108 L322.913688,75.7792917 C328.995867,75.8149145 335.472081,76.5960708 335.472081,84.5247202 C335.472081,89.7499791 329.675878,90.1546357 322.421538,90.5551421 C319.202293,90.6474767 315.98906,90.8822138 312.791845,91.2586221 C301.605665,92.76519 291.871208,96.8906128 291.871208,111.667844 C291.871208,123.226499 301.088261,131.969158 314.24143,131.969158 C317.037975,131.969158 319.004963,131.969158 321.698883,131.471119 L322.421538,131.369436 C327.499362,130.562198 332.265034,128.55344 335.99376,124.633459 C336.098524,126.644291 337.338582,128.856414 337.960749,130.867246 L354.430004,130.867246 C351.526558,127.14648 352.458739,122.22212 352.458739,116.289231 L352.458739,82.2129893 C352.458739,65.5245334 334.749426,63.7149918 322.421538,63.7149918 Z M263.490981,40.8965063 L246.194308,40.8965063 L246.194308,131.269828 L263.490981,131.269828 L263.490981,40.8965063 Z M217.194051,64.1175733 C207.560082,64.1175733 201.137436,68.0375551 197.306084,76.1804923 L197.410847,65.7258242 L181.35637,65.7258242 L181.35637,131.267753 L198.653044,131.267753 L198.653044,101.71329 C198.653044,86.8343759 207.354831,80.803954 217.194051,80.803954 Z M286.483369,65.7258242 L269.186696,65.7258242 L269.186696,131.066462 L286.483369,131.066462 L286.483369,65.7258242 Z M240.808607,65.7258242 L223.511933,65.7258242 L223.511933,131.066462 L240.808607,131.066462 L240.808607,65.7258242 Z M128.431543,121.722006 L128.431003,122.435213 L128.421927,122.423036 C128.248274,122.193119 128.078963,121.959423 127.91414,121.722006 L128.431543,121.722006 Z M87.8303291,98.2975729 L88.0377181,106.338827 C88.0377181,110.059593 87.0007729,118.70472 75.1945641,119.810781 L72.7080337,119.812856 C66.9075548,119.812856 62.144021,119.005618 62.144021,112.269641 C62.144021,105.633272 68.0471255,103.323616 73.6402153,102.115872 C74.1735347,102.11437 74.7014588,102.012171 75.1945641,101.814973 C80.2702504,101.109418 85.1385477,100.810595 87.8303291,98.2975729 Z M335.057302,98.0962822 L335.26683,106.137536 C335.26683,109.858303 334.229884,118.503429 322.421538,119.609491 L319.935007,119.609491 C314.136666,119.609491 309.370994,118.802252 309.370994,112.070426 C309.370994,105.434056 315.276237,103.12025 320.871465,101.916656 C321.403508,101.914169 321.929974,101.811267 322.421538,101.613682 C327.499362,100.908127 332.363383,100.609304 335.057302,98.0962822 Z M143.761228,76.2821752 C155.152659,76.5830738 159.296163,87.1394248 159.296163,97.2931943 C159.296163,107.84747 155.464811,117.897482 143.761228,118.100848 C131.020699,118.100848 128.119391,107.343206 128.121528,97.2931943 C128.121528,87.3407155 131.125463,76.2821752 143.761228,76.2821752 Z M286.483369,40.8965063 L269.186696,40.8965063 L269.186696,55.8729532 L286.483369,55.8729532 L286.483369,40.8965063 Z M240.808607,40.8965063 L223.511933,40.8965063 L223.511933,55.8729532 L240.808607,55.8729532 L240.808607,40.8965063 Z" id="aprillia" fill="#FFFFFF"></path>
</svg>