<?xml version="1.0" encoding="UTF-8"?>
<svg width="400px" height="388px" viewBox="0 0 400 388" version="1.1" xmlns="http://www.w3.org/2000/svg">
    <title>bajaj</title>
    <path d="M3.25140354e-06,84.3601194 L151.912351,154.851848 C151.912351,154.851848 172.677535,145.016044 192.895686,135.726292 C192.895686,135.726292 196.721483,133.540612 196.721483,129.169252 C196.721483,129.169252 196.721483,124.25086 191.803091,122.06518 C191.803091,122.06518 123.497532,90.3711066 55.1914831,59.2235757 L177.595437,2.93999117 L187.978274,0.753821143 L197.814078,2.93999117 L381.420499,87.6388842 C381.420499,87.6388842 400.000003,96.3820938 400.000003,107.857526 C400.000003,107.857526 400.000003,119.332958 381.420499,127.529625 L237.704819,193.649994 L381.420499,259.770363 C381.420499,259.770363 400.000003,267.96703 400.000003,280.535057 C400.000003,280.535057 400.000003,291.463947 381.420499,300.753699 L197.814078,384.360487 C197.814078,384.360487 193.989261,387.638762 187.978274,387.638762 L177.595437,384.360487 L55.1914831,328.622955 L191.803091,266.327403 L196.721483,259.223821 C196.721483,259.223821 196.721483,255.944566 192.896176,252.119749 L151.912841,233.540735 L3.25140354e-06,304.032463 L3.25140354e-06,224.250982 L66.1203725,193.649504 L3.25140354e-06,164.142091 L3.25140354e-06,84.3601194 Z" id="bajaj" fill="#FFFFFF"></path>
</svg>