<?xml version="1.0" encoding="UTF-8"?>
<svg width="400px" height="355px" viewBox="0 0 400 355" version="1.1" xmlns="http://www.w3.org/2000/svg">
    <title>benelli</title>
    <path d="M400.000003,44.9527708 L400.000003,354.082213 L3.25140331e-06,354.082213 L3.25140331e-06,130.876929 C32.1804111,115.074785 162.548099,50.796272 400.000003,44.9527708 Z M268.636451,292.848842 C246.291232,292.815983 232.29975,305.860983 232.093993,321.490291 C232.29975,338.02493 242.892125,351.069929 268.636451,351.119311 C287.064055,351.069929 297.878648,343.777898 301.228373,333.341899 L277.525157,333.341899 C276.842044,336.650472 271.862722,337.564034 269.624085,337.292435 C266.438965,337.555804 257.385654,335.062028 256.784843,328.403729 L303.203641,328.403729 C303.16249,326.428461 303.277714,324.774174 303.203641,323.465559 C303.277714,306.988531 290.199793,292.815983 268.636451,292.848842 Z M124.441887,292.848842 C102.574024,292.815983 88.5825427,305.860983 88.8870632,321.490291 C88.5743124,338.02493 99.1749173,351.069929 124.441887,351.119311 C143.346848,351.069929 154.16144,343.777898 158.021443,333.341899 L133.330593,333.341899 C133.124836,336.650472 128.145515,337.564034 125.429521,337.292435 C122.713528,337.555804 113.660216,335.062028 113.577913,328.403729 L159.009077,328.403729 C159.437052,326.428461 159.560506,324.774174 159.996711,323.465559 C159.560506,306.988531 146.474356,292.815983 124.441887,292.848842 Z M57.2827752,274.083859 L8.88870925,274.083859 L8.88870925,349.144043 L55.3075072,349.144043 C84.6896187,349.555557 86.500281,333.259596 85.9241612,325.440827 C86.0476154,316.963635 79.9407452,311.984313 73.0849192,308.651049 C81.068294,305.416547 83.7842875,297.729463 83.9488932,291.861271 C83.3316219,282.783268 73.8256447,274.41307 57.2827752,274.083859 Z M394.065969,293.836539 L370.362753,293.836539 L370.362753,349.144043 L394.065969,349.144043 L394.065969,293.836539 Z M362.461681,274.083859 L337.770831,274.083859 L337.770831,349.144043 L362.461681,349.144043 L362.461681,274.083859 Z M334.816159,274.083859 L310.125309,274.083859 L310.125309,349.144043 L334.816159,349.144043 L334.816159,274.083859 Z M206.415509,292.848905 C195.362239,293.194577 188.580485,297.268567 184.687561,302.725245 L184.687561,293.836539 L162.959613,293.836539 L162.959613,349.144043 L186.662829,349.144043 L186.662829,318.527389 C186.99204,309.26832 204.193333,307.465888 204.440241,316.552121 L204.440241,349.144043 L228.143457,349.144043 L228.143457,311.613951 C228.637274,298.634794 218.003748,293.194577 206.415509,292.848905 Z M57.2827752,318.52732 C60.8958696,318.510928 63.8505413,321.4656 64.1962132,325.440827 C63.842311,328.757631 60.8876393,331.712302 57.2827752,331.366631 L37.5300952,331.366631 L37.5300952,318.52732 Z M268.636451,306.675781 C273.451167,306.774544 278.422258,310.173651 279.500425,315.564487 L257.772477,315.564487 C257.838319,309.498768 263.492524,306.782774 268.636451,306.675781 Z M124.441887,306.675781 C129.733959,306.774544 134.713281,310.173651 135.305861,315.564487 L113.577913,315.564487 C114.112882,309.498768 119.767086,306.782774 124.441887,306.675781 Z M51.3569712,291.861271 C55.068829,292.289245 57.7601316,294.980548 57.2827752,298.774709 C57.7601316,301.605926 55.0770593,304.288998 51.3569712,304.708743 L37.5300952,304.708743 L37.5300952,291.861271 Z M382.214361,267.170421 C375.465529,267.614856 370.082923,272.989231 370.362753,280.017893 C370.091154,286.248217 375.465529,291.622592 382.214361,291.861271 C388.724515,291.622592 394.09066,286.248217 394.065969,280.017893 C394.14315,273.271798 388.944771,267.636611 382.214361,267.170421 Z M400.000003,0.50924082 L400.000003,40.0146008 L3.25140331e-06,40.0146008 L3.25140331e-06,0.50924082 L400.000003,0.50924082 Z" id="benelli" fill="#FFFFFF"></path>
</svg>