<?xml version="1.0" encoding="UTF-8"?>
<svg width="400px" height="395px" viewBox="0 0 400 395" version="1.1" xmlns="http://www.w3.org/2000/svg">
    <title>bimota</title>
    <path d="M46.180629,0.44364082 L46.180629,194.30904 C46.180629,281.853092 113.825091,345.944041 200.27187,345.944041 C286.174899,345.944041 353.828901,281.853092 353.828901,194.30904 C353.828901,106.227965 286.174899,42.1370162 200.27187,42.1370162 C168.057042,42.1370162 141.212942,53.071921 122.420163,64.0160849 L122.420163,17.6376444 C147.117881,6.69348057 172.349809,0.962146044 200.27187,0.962146044 C253.960071,0.962146044 304.433467,21.294958 341.484812,57.2477399 C379.070368,93.728286 400.00953,143.754781 400,197.43859 C400,251.631645 379.060829,301.65814 342.009483,338.129427 C304.433467,374.100727 254.503822,394.405762 200.27187,394.405762 C146.039919,394.405762 95.5665236,374.100727 58.5247178,338.129427 C20.9391614,301.65814 0,251.640904 0,197.43859 L0,0.44364082 L46.180629,0.44364082 Z M117.058975,0.44364082 L117.058975,197.43859 C117.058975,221.400938 126.72247,244.335535 143.368864,260.48327 C154.11032,270.918187 172.359348,282.90862 200.28141,282.90862 C219.608399,282.90862 239.479138,274.047737 255.047572,258.927754 C272.228178,242.770761 281.357461,220.873174 281.357461,197.43859 C281.357461,174.503993 272.228178,152.615665 255.047572,136.467931 C239.469599,121.357207 219.608399,112.496323 200.28141,112.496323 C180.41067,112.496323 165.376448,117.181388 149.808014,128.125552 L122.429703,148.449105 L122.429703,88.5154567 C143.903075,73.9232382 169.678754,64.0160849 200.28141,64.0160849 C264.176856,64.0160849 327.528551,119.264668 327.528551,194.30904 C327.528551,268.834907 264.176856,323.537208 200.28141,323.537208 C124.032336,323.537208 71.412557,261.529539 71.412557,194.30904 L71.412557,0.44364082 L117.058975,0.44364082 Z" id="bimota" fill="#FFFFFF"></path>
</svg>