<?xml version="1.0" encoding="UTF-8"?>
<svg width="400px" height="401px" viewBox="0 0 400 401" version="1.1" xmlns="http://www.w3.org/2000/svg">
    <title>bmw</title>
    <path d="M200.000003,0.348655228 C253.421274,0.348655228 303.645895,21.151807 341.420542,58.9281164 C379.19602,96.7035946 400.000003,146.927385 400.000003,200.348655 C400.000003,310.629713 310.280229,400.349486 200.000003,400.349486 C146.578733,400.349486 96.3549426,379.545503 58.5794644,341.770025 C20.8039862,303.993716 3.25140331e-06,253.769925 3.25140331e-06,200.348655 C3.25140331e-06,146.928216 20.8039862,96.7035946 58.5794644,58.9281164 C96.3549426,21.151807 146.578733,0.348655228 200.000003,0.348655228 Z M200.000003,8.59128802 C94.0966757,8.59128802 8.24263604,94.4453277 8.24263604,200.348655 C8.24263604,306.251983 94.0966757,392.106854 200.000003,392.106854 C305.903331,392.106854 391.75737,306.251983 391.75737,200.348655 C391.75737,94.4453277 305.903331,8.59128802 200.000003,8.59128802 Z M200.000003,77.8603227 C267.647441,77.8603227 322.488336,132.701217 322.488336,200.348655 C322.488336,267.996924 267.648272,322.836988 200.000003,322.836988 C132.352566,322.836988 77.5116707,267.996924 77.5116707,200.348655 C77.5116707,132.701217 132.352566,77.8603227 200.000003,77.8603227 Z M314.60809,200.348655 L200.000003,200.348655 L200.000003,314.957573 C263.295477,314.957573 314.60809,263.64496 314.60809,200.348655 Z M200.000003,85.7405689 C136.704529,85.7405689 85.3919169,137.054012 85.3919169,200.348655 L200.000003,200.348655 L200.000003,85.7405689 Z M315.616289,57.6123871 L323.425886,67.2563589 L303.596856,93.1952601 L333.899358,80.1859137 L342.27747,90.5322173 L323.252174,117.467682 L352.746786,103.465097 L360.556383,113.109069 L314.132665,135.612778 L304.967442,124.203418 L323.227239,97.5040035 L323.119188,97.3701865 L293.206501,109.679695 L283.951513,98.3426459 L315.616289,57.6123871 Z M88.3092952,67.4990581 C90.4013298,69.2544721 91.2873484,69.833792 93.8257169,74.4625327 C94.4233223,76.1049087 94.8829549,79.0812995 93.7575616,81.9978467 C99.6496685,78.3448901 105.925772,79.5342828 109.985998,83.4806396 C116.2247,89.544797 115.307097,96.556479 109.372601,103.628836 L83.3996217,134.581306 L44.6832682,102.09368 L69.3122583,72.7428587 C74.4097744,66.6678962 81.5369879,61.8164041 88.3092952,67.4990581 Z M91.1718169,92.3059169 L75.6265954,110.832516 L85.2963333,118.946319 L100.71688,100.569329 C102.764863,98.1290373 102.46897,94.3264715 99.4809426,91.8205183 C96.8411724,89.6046406 92.9272309,90.2138823 91.1718169,92.3059169 Z M74.6940318,80.0072139 L59.9010119,97.6361583 L69.0521046,105.315263 L83.678061,87.8849666 C85.5174223,85.6940238 85.510773,82.435869 82.7720945,80.1377063 C80.2811022,78.0481653 76.4078877,77.9642179 74.6940318,80.0072139 Z M187.15772,19.0606036 L200.896268,55.0116036 L214.634271,19.0606036 L229.817106,19.0606036 L229.817106,69.5337425 L219.711839,69.5337425 L219.711839,34.2916458 L206.415742,69.5337425 L195.377081,69.5337425 L182.080152,34.2916458 L182.080152,69.5337425 L171.975717,69.5337425 L171.975717,19.0606036 L187.15772,19.0606036 Z" id="bmw" fill="#FFFFFF"></path>
</svg>