<?xml version="1.0" encoding="UTF-8"?>
<svg width="400px" height="75px" viewBox="0 0 400 75" version="1.1" xmlns="http://www.w3.org/2000/svg">
    <title>ducati</title>
    <path d="M373.366547,2.52230724 L400.000003,2.52230724 L385.082959,72.3701978 L358.453779,72.3701978 L373.366547,2.52230724 L373.366547,2.52230724 Z M14.9149096,2.52230724 L46.3396937,2.52230724 C52.1978994,2.52230724 58.0561052,3.05147365 63.916449,5.16813928 C76.6997381,9.40147054 79.3637251,19.9847987 78.2968475,32.155626 C76.6997381,41.1493798 74.0357511,50.1472839 68.1775454,57.0264472 C59.6553526,68.666033 45.2749541,72.372273 30.8945555,72.372273 L3.25140354e-06,72.372273 L14.9149096,2.52230724 Z M38.8822405,18.9264659 L30.8945555,56.4952056 C45.8073239,56.4952056 45.8073239,51.732708 49.5360505,35.8597909 C52.1978994,24.7472963 51.1331598,18.9264659 38.8822405,18.9264659 L38.8822405,18.9264659 Z M91.6125065,2.52230724 L119.840934,2.52230724 L110.786371,44.8556198 C110.254001,47.5014519 108.122384,56.4952056 115.047468,55.438948 C119.310702,54.9118567 120.907811,49.6181175 121.972551,44.8556198 L131.027113,2.52230724 L158.723171,2.52230724 L150.200978,42.2097878 C147.539129,55.9701895 143.810403,61.79102 136.885319,67.0826841 C129.960236,72.372273 122.502783,74.4868635 110.786371,74.4868635 C88.9485195,74.4868635 77.7644777,67.6097753 83.0903137,42.2077126 L91.6125065,2.52230724 L91.6125065,2.52230724 Z M202.929106,28.9806276 C205.058585,19.9847987 197.60327,15.222301 190.678187,24.7472963 C187.48183,29.509794 178.961775,57.0264472 190.678187,56.4952056 C195.473791,55.9681144 196.536393,52.7910408 198.13564,46.9702103 L224.76482,46.9702103 C218.906614,64.9618681 206.657833,74.4868635 186.41709,74.4868635 C176.297788,74.4868635 169.905075,72.3701978 164.581377,67.6097753 C156.591554,60.7326872 156.059184,47.503527 157.656293,37.9785317 C162.982129,13.636877 181.091254,-0.652691202 203.993846,0.936883183 C223.70008,1.995216 230.627302,10.9910449 228.493546,28.9827028 L202.929106,28.9827028 L202.929106,28.9806276 Z M255.657234,2.52230724 L291.877622,2.52230724 L298.800568,72.372273 L270.57214,72.372273 L269.507401,61.7889449 L249.79689,61.7889449 L245.537932,72.372273 L217.839736,72.372273 L255.657234,2.52230724 L255.657234,2.52230724 Z M257.256481,44.3243783 L269.507401,44.3243783 L269.507401,17.8681331 L257.256481,44.3243783 L257.256481,44.3243783 Z M305.191143,2.52230724 L368.040711,2.52230724 L363.781753,21.0431315 L345.67049,21.0431315 L335.018818,72.372273 L307.85513,72.372273 L318.506802,21.0431315 L300.930047,21.0431315 L305.191143,2.52230724 L305.191143,2.52230724 Z" id="ducati" fill="#FFFFFF"></path>
</svg>