<?xml version="1.0" encoding="UTF-8"?>
<svg width="400px" height="308px" viewBox="0 0 400 308" version="1.1" xmlns="http://www.w3.org/2000/svg">
    <title>harley-davidson</title>
    <path d="M200.107367,0.708142118 C225.117372,28.2324211 293.80704,44.8250715 332.262948,44.8035987 L332.262948,84.0032473 C324.132549,84.0032473 315.500467,91.8857323 315.918211,101.136623 L400.000003,101.136623 L400.000003,207.243694 L320.814019,207.243694 C321.268853,217.004077 335.257433,222.665099 345.214976,222.756846 C288.212389,275.021743 243.94515,307.621421 200.023428,307.621421 C156.136844,307.621421 111.789569,275.023695 54.788935,222.756846 L54.7167081,222.708045 C64.7972313,222.708045 78.7350577,216.863527 79.1898915,207.196844 L3.25140331e-06,207.196844 L3.25140331e-06,101.136623 L84.0817953,101.136623 C84.5385812,91.8857323 75.9084509,84.0032473 67.7800042,84.0032473 L67.7800042,44.8035987 C94.4941714,44.8035987 174.92558,28.2519418 200.107367,0.708142118 Z M309.5154,207.099241 L300.451909,207.099241 L300.451909,207.245646 C300.699738,215.248352 303.768322,223.637303 310.595642,229.309955 C296.335221,241.626748 274.339508,257.988534 252.233018,270.452676 C233.334889,281.098591 214.355803,288.887445 200.054661,288.854157 C169.392591,288.854157 117.076361,252.863293 90.3415949,229.963408 L89.5390033,229.273142 L89.8831611,228.983554 C96.4993878,223.274998 99.3828579,215.177403 99.6261806,207.235886 C99.6249368,207.215409 99.6255671,207.19539 99.6261806,207.175372 L90.6290599,207.175372 C90.172274,215.430703 83.6601467,224.929508 75.1549493,226.303769 L75.2850768,226.419521 C75.2417533,226.427345 75.1983773,226.434961 75.1549493,226.442367 C111.242988,258.456422 155.77571,298.278783 200.087847,298.292447 C244.388271,298.292447 288.901472,258.425189 324.987559,226.442367 L324.857812,226.418772 C324.901073,226.380426 324.944322,226.342092 324.987559,226.303769 C316.486266,224.853377 309.974138,215.356524 309.5154,207.099241 Z M198.450054,207.245646 L178.359283,207.245646 C174.45513,207.28664 171.402082,211.190793 171.419575,215.376045 L171.419575,266.356476 C171.419575,271.623178 172.165344,273.198504 175.938708,274.775782 C184.1101,278.221197 191.744672,281.78764 198.463719,282.203433 L198.463719,272.622641 L185.644433,267.773683 C183.885612,267.057271 182.52111,264.908035 182.52111,262.955958 L182.52111,220.396786 C182.52111,218.15385 183.848522,215.748892 185.714707,215.748892 L198.450054,215.748892 L198.450054,207.245646 Z M213.838274,207.245646 L202.514278,207.245646 L202.514278,282.035554 C210.107855,281.746647 218.942954,278.761922 228.314873,275.068593 L228.314873,264.824095 L213.838274,269.721855 L213.838274,207.245646 Z M255.362845,207.245646 L236.332051,207.245646 C233.013521,207.288592 229.226493,210.800378 229.296768,214.011544 L229.296768,265.200846 C229.296768,270.549536 233.072084,272.044827 235.726908,270.79745 C242.116054,267.728785 249.083015,263.623568 255.431168,259.680374 L255.431168,248.149458 L244.815776,254.870457 C242.280029,256.326706 240.716415,254.765045 240.716415,252.422553 L240.716415,238.359794 L251.712462,238.400788 L251.751504,229.356817 L240.638332,229.356817 L240.597339,219.608147 C240.554393,217.905936 242.45962,215.873825 244.206728,215.914818 L255.362845,215.914818 L255.362845,207.245646 Z M147.756579,207.245646 L136.307651,207.245646 L146.136356,234.082794 L146.136356,259.641332 C149.745745,261.753479 153.394176,264.074498 157.005518,265.901642 L157.005518,235.866992 L171.066325,207.245646 L159.410476,207.245646 L152.773416,222.719757 L147.756579,207.245646 Z M265.566003,207.244142 L265.395694,207.249654 C262.356688,207.376466 259.592269,209.324472 259.561762,213.008176 L259.561762,225.661536 C259.561762,228.439341 262.593337,231.301085 265.289155,231.301085 L277.569668,231.301085 C277.52477,233.249258 276.738083,234.660609 274.70402,235.989973 L259.561762,245.693746 L259.561762,258.09724 C268.564739,252.705604 277.440831,246.898177 285.614175,240.965816 C289.141578,238.396884 289.55737,237.069471 289.55737,232.54651 L289.55737,227.447686 C289.55737,223.656754 287.060664,220.728639 283.70114,220.728639 L273.786544,220.728639 C272.613346,220.746208 271.328879,220.160585 271.248844,218.403716 C271.207851,216.578524 272.533311,216.20763 274.11254,216.20763 L289.584699,216.20763 L289.584699,207.245646 L265.566349,207.245646 Z M132.825146,207.245646 L115.695675,207.245646 C111.596314,207.288592 108.931729,209.824339 108.943403,214.011544 L108.943403,230.147408 C108.943403,232.468427 110.477774,234.875337 112.427898,236.243743 L136.694162,253.457154 L136.694162,240.34896 L123.088188,231.470916 C121.136112,230.137648 120.005859,228.575987 119.962914,226.036335 L119.962914,216.578524 L132.907133,216.578524 L132.825146,207.245646 Z M390.259141,110.924335 L9.78966701,110.924335 L9.78966701,197.455983 L390.259141,197.455983 L390.259141,110.924335 Z M380.47143,120.71595 L380.47143,187.664367 L19.5793308,187.664367 L19.5793308,120.71595 L380.47143,120.71595 Z M36.8317831,128.032333 L27.6570234,128.032333 L27.6570234,180.347984 L36.8317831,180.347984 L36.8317831,157.899104 L43.2736356,157.899104 L43.2736356,180.347984 L52.2531876,180.347984 L52.2531876,128.032333 L43.2736356,128.032333 L43.2736356,147.553098 L36.8317831,147.553098 L36.8317831,128.032333 Z M154.344838,128.032333 L145.367238,128.032333 L152.785128,155.556612 L152.785128,180.347984 L161.177105,180.347984 L160.788642,155.75182 L169.768194,128.032333 L160.788642,128.032333 L157.079697,143.25853 L154.344838,128.032333 Z M241.799818,128.032333 L233.601096,128.032333 L240.628572,180.347984 L249.608124,180.347984 L256.440392,128.032333 L248.044511,128.032333 L244.92314,155.75182 L241.799818,128.032333 Z M357.948371,128.032333 L347.016742,128.032333 L347.016742,180.347984 L355.215464,180.347984 L355.408719,151.262044 L360.681278,180.347984 L371.222491,180.347984 L371.222491,128.032333 L363.217025,128.032333 L363.217025,151.066836 L357.948371,128.032333 Z M144.584455,128.032333 L126.627303,128.032333 L126.627303,180.347984 L144.584455,180.347984 L144.584455,173.125301 L135.606855,173.125301 L135.606855,156.337443 L144.584455,156.337443 L144.584455,148.138721 L135.606855,148.138721 L135.606855,134.669393 L144.584455,134.669393 L144.584455,128.032333 Z M116.671713,128.032333 L107.887368,128.032333 L107.887368,180.347984 L124.284811,180.347984 L124.284811,172.34447 L116.671713,172.34447 L116.671713,128.032333 Z M307.457912,128.098704 C301.398666,128.098704 296.424775,133.324413 296.424775,139.756505 L296.424775,146.932338 C296.424775,149.27483 298.964427,151.812529 300.916503,153.198504 L307.180717,157.63167 C308.54717,158.607708 310.692502,160.171321 310.692502,163.025257 L310.692502,170.903838 C310.692502,172.48502 309.44903,173.769486 307.955691,173.769486 C306.419407,173.769486 305.17203,172.48502 305.17203,170.903838 L305.17203,159.999538 L296.590702,159.999538 L296.590702,168.627717 C296.590702,175.071521 301.470893,180.340176 307.717538,180.284017 C313.774831,180.284017 318.748722,175.055905 318.748722,168.627717 L318.748722,159.002027 C318.748722,156.764948 316.09585,154.188207 313.899764,152.653874 L308.63111,149.042533 C307.135819,148.007932 305.267682,146.557539 305.267682,144.691354 L305.267682,137.472575 C305.015864,135.838687 306.220295,134.667441 307.781956,134.610831 L307.795621,134.610831 C309.292864,134.612783 310.526576,135.979237 310.526576,137.474527 L310.526576,144.775294 L318.491048,144.775294 L318.491048,139.756505 C318.491048,133.324413 313.509349,128.098704 307.457912,128.098704 Z M332.313702,128.096752 C326.465281,128.096752 321.694406,133.322461 321.694406,139.754553 L321.694406,168.629669 C321.694406,175.053952 326.465281,180.283565 332.313702,180.283565 C338.123082,180.283565 342.890053,175.053952 342.890053,168.629669 L342.854915,168.629669 L342.854915,139.754553 C342.854915,133.367358 338.12113,128.096752 332.313702,128.096752 Z M284.213826,128.098482 L270.626132,128.098704 L270.626132,180.281613 L283.982239,180.281613 C289.418772,180.281613 292.700213,175.469745 292.700213,170.950688 L292.700213,135.317483 C292.700213,131.424319 288.610241,128.155464 284.213826,128.098482 Z M229.064471,128.098704 L216.374021,128.098704 L209.323121,180.281613 L218.903912,180.281613 L220.06735,168.006956 L225.960669,168.006956 L227.495001,180.281613 L235.459473,180.281613 L229.064471,128.098704 Z M200.089783,128.098482 L186.585333,128.098704 L186.585333,180.281613 L199.859454,180.281613 C205.33698,180.281613 208.573523,175.469745 208.573523,170.950688 L208.573523,135.317483 C208.573523,131.424319 204.664074,128.155464 200.089783,128.098482 Z M72.8026971,128.098704 L60.1512892,128.098704 L53.055491,180.281613 L62.6382347,180.281613 L63.7997202,168.006956 L69.6891351,168.006956 L71.2254193,180.281613 L79.1898915,180.281613 L72.8026971,128.098704 Z M94.535165,128.096752 L81.6338913,128.096752 L81.6338913,180.279661 L89.8091878,180.279661 L89.8091878,159.458813 L91.5933857,159.458813 C92.0892131,159.458813 92.569424,159.458813 93.1550469,159.708679 C94.9392449,160.294302 96.473577,162.051171 96.473577,164.307771 L96.473577,177.251991 C96.473577,178.228029 96.6687847,179.204067 96.8620402,180.281613 L105.615151,180.281613 C104.738669,177.808332 104.566886,174.686962 104.566886,171.778368 L104.490755,171.778368 L104.490755,162.691452 C104.490755,158.463254 103.206289,154.438072 100.342593,152.819801 C103.374168,151.365504 104.490755,146.471648 104.490755,142.907156 L104.490755,137.970355 C104.490755,130.08787 100.799379,128.096752 94.535165,128.096752 Z M267.37202,128.032333 L258.392468,128.032333 L258.392468,180.152776 L267.37202,180.152776 L267.37202,128.032333 Z M332.602609,134.612783 C334.429753,134.612783 335.921139,135.979237 335.921139,137.474527 L335.921139,170.90579 C335.921139,172.486972 334.470747,173.771438 332.643603,173.771438 C330.859405,173.771438 329.410964,172.486972 329.410964,170.90579 L329.410964,137.474527 C329.368018,135.840639 330.814507,134.669393 332.571376,134.612783 L332.602609,134.612783 Z M194.969502,133.988119 L195.935719,133.988509 C196.58627,133.992023 197.140211,134.02716 197.667272,134.378534 C199.410476,134.964157 200.400179,136.525818 200.400179,138.815604 L200.400179,166.429678 L200.441173,166.488241 C200.441173,169.01618 199.529553,170.636403 197.708265,171.300109 C197.124595,171.549975 196.419895,171.633914 195.592214,171.633914 L194.969502,171.633914 L194.969502,133.988119 Z M279.049342,133.988119 L279.964062,133.988412 L280.164614,133.990465 C280.753053,134.001025 281.226972,134.059103 281.706118,134.378534 C283.490316,134.964157 284.439025,136.525818 284.439025,138.815604 L284.439025,166.429678 L284.56591,166.488241 C284.56591,169.01618 283.609393,170.636403 281.786153,171.300109 C281.089799,171.526785 280.361406,171.639504 279.629109,171.634113 L279.049342,171.634113 L279.049342,133.988119 Z M222.591385,141.081965 L222.839299,143.073083 L224.623496,157.467695 L221.059005,157.467695 L222.591385,141.081965 Z M66.3296114,141.081965 L66.5775251,143.073083 L68.4027166,157.467695 L64.7933271,157.467695 L66.3296114,141.081965 Z M183.237522,149.700383 L168.009373,149.700383 L168.009373,157.311529 L183.237522,157.311529 L183.237522,149.700383 Z M90.6388203,134.284834 C91.5094464,134.284834 92.3937371,134.481994 93.1765198,134.864601 C95.0876027,135.840639 96.4950499,137.792716 96.4950499,139.744792 L96.4950499,144.111588 L96.3623087,144.111588 C96.3623087,146.4736 95.0739381,148.46667 93.0828201,149.382194 C92.2447418,149.741733 91.3418886,149.925758 90.4299481,149.922952 L89.8091878,149.922952 L89.8091878,134.284834 L90.6388203,134.284834 Z M199.947297,12.9437578 C180.36797,34.1823503 110.264998,54.1794222 78.2802238,54.1325724 L78.2802238,78.6955512 C86.6625537,81.581366 93.8806881,91.482691 93.9006183,100.364148 L93.896836,100.675933 L93.8558424,101.091725 L93.8558424,101.169808 L102.856867,101.169808 C102.867134,100.838967 102.872215,100.511213 102.87223,100.186514 L102.87223,100.108431 C102.872828,87.2828495 94.9691526,79.2263232 86.5121305,74.1296442 L86.5121305,61.138575 C111.62376,61.0767332 180.666981,43.474397 199.471035,24.9560635 L200.02538,24.3946386 C217.986436,43.1345732 288.259239,61.0936772 313.441026,61.1034376 L313.441026,74.1706378 C304.775758,79.3982988 296.688305,87.7356176 297.100194,101.134671 L306.099266,101.134671 L306.099266,100.718879 C305.812311,91.7588473 313.113077,81.6373305 321.612418,78.6916471 L321.612418,54.1794222 C284.408788,54.1794222 220.814059,34.5822053 200.548083,13.5805817 L199.947297,12.9437578 Z M200.023428,32.6909638 C196.291058,36.5892607 190.27671,40.4465639 182.892005,44.1398926 L182.892005,54.429288 L194.674739,48.5789147 L194.674739,101.136623 L205.376022,101.136623 L205.376022,48.5789147 L217.158756,54.429288 L217.158756,44.1398926 L217.203654,44.1398926 C209.785763,40.3840974 203.761655,36.675152 200.023428,32.6909638 Z M258.185548,59.6549968 L258.185548,101.136623 L267.764388,101.136623 L267.723394,90.3104065 L280.294767,90.3104065 L280.253773,101.136623 L290.78913,101.136623 L290.78913,93.3771187 C290.78913,90.1425279 288.839006,87.4018125 286.55898,86.4921449 C288.757019,85.6722727 290.798891,83.5230365 290.798891,80.8486916 L290.78913,73.5498775 C290.78913,69.6496286 287.304674,66.8308301 284.027137,65.9992455 L273.944662,63.5123 L258.185548,59.6549968 Z M145.353573,59.3211918 L141.785177,59.3211918 C139.5032,59.9829457 137.221222,60.6056581 134.941197,61.2732683 L127.642383,79.1952828 L120.88039,64.6776897 C117.395933,65.4214309 113.993464,66.1280826 110.715927,66.7078493 L110.715927,101.136623 L121.542144,101.136623 L121.542144,89.2289561 L128.42907,100.759872 L135.191063,87.6536304 L135.191063,101.134671 L145.353573,101.134671 L145.353573,59.3211918 Z M219.518816,54.4273359 L219.518816,93.9568855 C219.518816,97.8610385 222.835394,101.179569 226.739547,101.135121 L243.829977,101.135121 C247.814166,101.135121 251.046804,97.898128 251.046804,93.9568855 L251.046804,65.9582519 C251.046804,58.3432014 249.606172,56.9767478 244.528821,54.8001825 L244.616664,54.8001825 L234.912892,50.4860934 L227.235375,47.1246176 C223.624033,45.5082983 219.518816,50.4860934 219.518816,54.4273359 Z M172.889565,47.1265697 L172.813434,47.1246176 L165.139821,50.4860934 L155.434096,54.7806618 C150.415308,56.9786999 149.003956,58.2651184 149.003956,65.9387312 L149.003956,93.9393168 C149.003956,97.8434698 152.324438,101.162 156.228591,101.117552 L173.320973,101.117552 C177.305162,101.117552 180.5378,97.8805593 180.5378,93.9393168 L180.5378,54.4097672 C180.529992,50.5348953 176.405254,45.4594964 172.889565,47.1265697 Z M235.006592,60.8164824 C235.213512,61.01169 235.397007,61.01169 235.592214,61.01169 C240.156169,63.3541818 241.448444,63.1589742 241.448444,66.4872647 L241.448444,88.9810424 L241.300086,88.9810424 C241.304295,89.3564697 241.157283,89.7178039 240.892167,89.9836547 C240.627051,90.2495056 240.266124,90.3975156 239.890687,90.3943957 L229.974138,90.3943957 C229.598701,90.3975156 229.237775,90.2495056 228.972658,89.9836547 C228.707542,89.7178039 228.560531,89.3564697 228.564651,88.9810424 L228.564651,59.0322844 C228.564651,57.8278532 231.688061,59.2274921 235.006592,60.8164824 Z M171.484069,59.0322844 L171.486089,88.9810424 C171.489702,89.3566508 171.342252,89.717975 171.076828,89.9837665 C170.811403,90.249558 170.450283,90.3975072 170.07467,90.3943955 L160.160074,90.3943955 C159.78446,90.3975072 159.42334,90.249558 159.157916,89.9837665 C158.892492,89.717975 158.745042,89.3566508 158.748655,88.9810424 L158.748655,66.5809643 C158.748655,63.3053799 160.037093,63.5123 164.601048,61.1053897 C164.765022,61.0234025 164.932901,60.9414153 165.137869,60.8164824 C168.374412,59.1552652 171.484069,57.8298053 171.484069,59.0322844 Z M267.600413,70.4812132 L273.944662,71.8496189 L277.429118,72.6284974 C279.088384,73.0189127 280.357233,74.5805739 280.357233,76.8605993 L280.357233,80.7667044 L280.292815,80.7667044 L267.641407,80.7686565 L267.600413,70.4812132 Z" id="harley-davidson" fill="#FFFFFF"></path>
</svg>