<?xml version="1.0" encoding="UTF-8"?>
<svg width="400px" height="165px" viewBox="0 0 400 165" version="1.1" xmlns="http://www.w3.org/2000/svg">
    <title>indian-motorcycles</title>
    <path d="M400.000003,162.608338 L400.000003,164.631256 L354.472505,164.631256 L354.472505,162.608338 L400.000003,162.608338 Z M399.997821,158.441762 L399.997821,160.581183 L354.470323,160.581183 L354.470323,158.441762 L399.997821,158.441762 Z M399.997821,154.395925 L399.997821,156.418844 L354.470323,156.418844 L354.470323,154.395925 L399.997821,154.395925 Z M354.470323,152.252268 L354.470323,137.850361 L375.153133,137.850361 L375.153003,137.852241 L399.997821,137.852479 L399.997821,139.875397 L375.153003,139.875241 L375.153003,141.895241 L399.997821,141.896197 L399.997821,144.039855 L375.153003,144.039241 L375.153003,146.062241 L399.997821,146.062773 L399.997821,148.085692 L375.153003,148.085241 L375.153003,150.229241 L399.997821,150.229349 L399.997821,152.252268 L354.470323,152.252268 Z M373.562147,150.229349 L373.439932,150.585213 L372.948887,150.585213 L373.315534,150.824574 L373.195501,151.301178 L373.562147,151.061817 L373.928794,151.301178 L373.806579,150.824574 L374.053192,150.585213 L373.686545,150.585213 L373.562147,150.229349 Z M359.48771,150.229349 L359.363312,150.585213 L358.996665,150.585213 L359.241096,150.824574 L359.121063,151.301178 L359.48771,151.061817 L359.854357,151.301178 L359.729959,150.824574 L360.096606,150.585213 L359.607743,150.585213 L359.48771,150.229349 Z M356.183524,150.229349 L355.93691,150.585213 L355.570263,150.585213 L355.93691,150.824574 L355.694661,151.301178 L356.183524,151.061817 L356.427955,151.301178 L356.303557,150.824574 L356.670204,150.585213 L356.303557,150.585213 L356.183524,150.229349 Z M366.460547,150.229349 L366.342697,150.585213 L365.97605,150.585213 L366.342697,150.824574 L366.0939,151.301178 L366.460547,151.061817 L366.831559,151.301178 L366.709343,150.824574 L367.07599,150.585213 L366.709343,150.585213 L366.460547,150.229349 Z M363.034145,150.229349 L362.914112,150.585213 L362.42525,150.585213 L362.791896,150.824574 L362.667498,151.301178 L363.034145,151.061817 L363.405157,151.301178 L363.280759,150.824574 L363.52519,150.585213 L363.158543,150.585213 L363.034145,150.229349 Z M370.011347,150.229349 L369.889132,150.585213 L369.522485,150.585213 L369.769099,150.824574 L369.6447,151.301178 L370.011347,151.061817 L370.377994,151.301178 L370.255779,150.824574 L370.62679,150.585213 L370.135745,150.585213 L370.011347,150.229349 Z M364.747346,148.79742 L364.627313,149.15752 L364.262849,149.15752 L364.505097,149.394763 L364.380699,149.754864 L364.747346,149.513385 L365.118358,149.754864 L364.99396,149.394763 L365.238391,149.15752 L364.871744,149.15752 L364.747346,148.79742 Z M361.200911,148.79742 L361.078695,149.15752 L360.712049,149.15752 L361.078695,149.394763 L360.834264,149.754864 L361.200911,149.513385 L361.567558,149.754864 L361.445342,149.394763 L361.809807,149.15752 L361.320944,149.15752 L361.200911,148.79742 Z M357.774509,148.79742 L357.650111,149.15752 L357.161249,149.15752 L357.527895,149.394763 L357.407862,149.754864 L357.774509,149.513385 L358.141156,149.754864 L357.894542,149.394763 L358.263372,149.15752 L357.894542,149.15752 L357.774509,148.79742 Z M371.724548,148.79742 L371.602333,149.15752 L371.235686,149.15752 L371.602333,149.394763 L371.357901,149.754864 L371.724548,149.513385 L372.091195,149.754864 L371.96898,149.394763 L372.339991,149.15752 L371.848946,149.15752 L371.724548,148.79742 Z M368.298146,148.79742 L368.175931,149.15752 L367.689251,149.15752 L368.055898,149.394763 L367.931499,149.754864 L368.298146,149.513385 L368.664793,149.754864 L368.422544,149.394763 L368.789191,149.15752 L368.422544,149.15752 L368.298146,148.79742 Z M373.562147,147.490466 L373.439932,147.846331 L372.948887,147.846331 L373.315534,148.085692 L373.195501,148.441556 L373.562147,148.206431 L373.928794,148.441556 L373.806579,148.085692 L374.053192,147.846331 L373.686545,147.846331 L373.562147,147.490466 Z M370.011347,147.490466 L369.889132,147.846331 L369.522485,147.846331 L369.769099,148.085692 L369.6447,148.441556 L370.011347,148.206431 L370.377994,148.441556 L370.255779,148.085692 L370.62679,147.846331 L370.135745,147.846331 L370.011347,147.490466 Z M356.183524,147.490466 L355.93691,147.846331 L355.570263,147.846331 L355.93691,148.085692 L355.694661,148.441556 L356.183524,148.206431 L356.427955,148.441556 L356.303557,148.085692 L356.670204,147.846331 L356.303557,147.846331 L356.183524,147.490466 Z M366.460547,147.490466 L366.342697,147.846331 L365.97605,147.846331 L366.342697,148.085692 L366.0939,148.441556 L366.460547,148.206431 L366.831559,148.441556 L366.709343,148.085692 L367.07599,147.846331 L366.709343,147.846331 L366.460547,147.490466 Z M359.48771,147.490466 L359.363312,147.846331 L358.996665,147.846331 L359.241096,148.085692 L359.121063,148.441556 L359.48771,148.206431 L359.854357,148.441556 L359.729959,148.085692 L360.096606,147.846331 L359.607743,147.846331 L359.48771,147.490466 Z M363.034145,147.490466 L362.914112,147.846331 L362.42525,147.846331 L362.791896,148.085692 L362.667498,148.441556 L363.034145,148.206431 L363.405157,148.441556 L363.280759,148.085692 L363.52519,147.846331 L363.158543,147.846331 L363.034145,147.490466 Z M371.724548,145.944152 L371.602333,146.300016 L371.235686,146.300016 L371.602333,146.539377 L371.357901,147.015981 L371.724548,146.774502 L372.091195,147.015981 L371.96898,146.539377 L372.339991,146.300016 L371.848946,146.300016 L371.724548,145.944152 Z M357.774509,145.944152 L357.650111,146.300016 L357.161249,146.300016 L357.527895,146.539377 L357.407862,147.015981 L357.774509,146.774502 L358.141156,147.015981 L357.894542,146.539377 L358.263372,146.300016 L357.894542,146.300016 L357.774509,145.944152 Z M361.200911,145.944152 L361.078695,146.300016 L360.712049,146.300016 L361.078695,146.539377 L360.834264,147.015981 L361.200911,146.774502 L361.567558,147.015981 L361.445342,146.539377 L361.809807,146.300016 L361.320944,146.300016 L361.200911,145.944152 Z M368.298146,145.944152 L368.175931,146.300016 L367.689251,146.300016 L368.055898,146.539377 L367.931499,147.015981 L368.298146,146.774502 L368.664793,147.015981 L368.422544,146.539377 L368.789191,146.300016 L368.422544,146.300016 L368.298146,145.944152 Z M364.747346,145.944152 L364.627313,146.300016 L364.262849,146.300016 L364.505097,146.539377 L364.380699,147.015981 L364.747346,146.774502 L365.118358,147.015981 L364.99396,146.539377 L365.238391,146.300016 L364.871744,146.300016 L364.747346,145.944152 Z M373.562147,144.637198 L373.439932,144.993063 L372.948887,144.993063 L373.315534,145.228187 L373.195501,145.588288 L373.562147,145.346809 L373.928794,145.588288 L373.806579,145.228187 L374.053192,144.993063 L373.686545,144.993063 L373.562147,144.637198 Z M356.183524,144.637198 L355.93691,144.993063 L355.570263,144.993063 L355.93691,145.228187 L355.694661,145.588288 L356.183524,145.346809 L356.427955,145.588288 L356.303557,145.228187 L356.670204,144.993063 L356.303557,144.993063 L356.183524,144.637198 Z M363.034145,144.637198 L362.914112,144.993063 L362.42525,144.993063 L362.791896,145.228187 L362.667498,145.588288 L363.034145,145.346809 L363.405157,145.588288 L363.280759,145.228187 L363.52519,144.993063 L363.158543,144.993063 L363.034145,144.637198 Z M370.011347,144.637198 L369.889132,144.993063 L369.522485,144.993063 L369.769099,145.228187 L369.6447,145.588288 L370.011347,145.346809 L370.377994,145.588288 L370.255779,145.228187 L370.62679,144.993063 L370.135745,144.993063 L370.011347,144.637198 Z M359.48771,144.637198 L359.363312,144.993063 L358.996665,144.993063 L359.241096,145.228187 L359.121063,145.588288 L359.48771,145.346809 L359.854357,145.588288 L359.729959,145.228187 L360.096606,144.993063 L359.607743,144.993063 L359.48771,144.637198 Z M366.460547,144.637198 L366.342697,144.993063 L365.97605,144.993063 L366.342697,145.228187 L366.0939,145.588288 L366.460547,145.346809 L366.831559,145.588288 L366.709343,145.228187 L367.07599,144.993063 L366.709343,144.993063 L366.460547,144.637198 Z M361.200911,142.968026 L361.078695,143.44463 L360.712049,143.44463 L361.078695,143.683991 L360.834264,144.039855 L361.200911,143.800494 L361.567558,144.039855 L361.445342,143.683991 L361.809807,143.44463 L361.320944,143.44463 L361.200911,142.968026 Z M364.747346,142.968026 L364.627313,143.44463 L364.262849,143.44463 L364.505097,143.683991 L364.380699,144.039855 L364.747346,143.800494 L365.118358,144.039855 L364.99396,143.683991 L365.238391,143.44463 L364.871744,143.44463 L364.747346,142.968026 Z M357.774509,142.968026 L357.650111,143.44463 L357.161249,143.44463 L357.527895,143.683991 L357.407862,144.039855 L357.774509,143.800494 L358.141156,144.039855 L357.894542,143.683991 L358.263372,143.44463 L357.894542,143.44463 L357.774509,142.968026 Z M368.298146,142.968026 L368.175931,143.44463 L367.689251,143.44463 L368.055898,143.683991 L367.931499,144.039855 L368.298146,143.800494 L368.664793,144.039855 L368.422544,143.683991 L368.789191,143.44463 L368.422544,143.44463 L368.298146,142.968026 Z M371.724548,142.968026 L371.602333,143.44463 L371.235686,143.44463 L371.602333,143.683991 L371.357901,144.039855 L371.724548,143.800494 L372.091195,144.039855 L371.96898,143.683991 L372.339991,143.44463 L371.848946,143.44463 L371.724548,142.968026 Z M366.460547,141.777576 L366.342697,142.25418 L365.97605,142.25418 L366.342697,142.372801 L366.0939,142.849405 L366.460547,142.612162 L366.831559,142.849405 L366.709343,142.372801 L367.07599,142.25418 L366.709343,142.25418 L366.460547,141.777576 Z M370.011347,141.777576 L369.889132,142.25418 L369.522485,142.25418 L369.769099,142.372801 L369.6447,142.849405 L370.011347,142.612162 L370.377994,142.849405 L370.255779,142.372801 L370.62679,142.25418 L370.135745,142.25418 L370.011347,141.777576 Z M373.562147,141.777576 L373.439932,142.25418 L372.948887,142.25418 L373.315534,142.372801 L373.195501,142.849405 L373.562147,142.612162 L373.928794,142.849405 L373.806579,142.372801 L374.053192,142.25418 L373.686545,142.25418 L373.562147,141.777576 Z M359.48771,141.777576 L359.363312,142.25418 L358.996665,142.25418 L359.241096,142.372801 L359.121063,142.849405 L359.48771,142.612162 L359.854357,142.849405 L359.729959,142.372801 L360.096606,142.25418 L359.607743,142.25418 L359.48771,141.777576 Z M356.183524,141.777576 L355.93691,142.25418 L355.570263,142.25418 L355.93691,142.372801 L355.694661,142.849405 L356.183524,142.612162 L356.427955,142.849405 L356.303557,142.372801 L356.670204,142.25418 L356.303557,142.25418 L356.183524,141.777576 Z M363.034145,141.777576 L362.914112,142.25418 L362.42525,142.25418 L362.791896,142.372801 L362.667498,142.849405 L363.034145,142.612162 L363.405157,142.849405 L363.280759,142.372801 L363.52519,142.25418 L363.158543,142.25418 L363.034145,141.777576 Z M357.774509,140.229143 L357.650111,140.585007 L357.161249,140.585007 L357.527895,140.826487 L357.407862,141.182351 L357.774509,140.945108 L358.141156,141.182351 L357.894542,140.826487 L358.263372,140.585007 L357.894542,140.585007 L357.774509,140.229143 Z M364.747346,140.229143 L364.627313,140.585007 L364.262849,140.585007 L364.505097,140.826487 L364.380699,141.182351 L364.747346,140.945108 L365.118358,141.182351 L364.99396,140.826487 L365.238391,140.585007 L364.871744,140.585007 L364.747346,140.229143 Z M361.200911,140.229143 L361.078695,140.585007 L360.712049,140.585007 L361.078695,140.826487 L360.834264,141.182351 L361.200911,140.945108 L361.567558,141.182351 L361.445342,140.826487 L361.809807,140.585007 L361.320944,140.585007 L361.200911,140.229143 Z M368.298146,140.229143 L368.175931,140.585007 L367.689251,140.585007 L368.055898,140.826487 L367.931499,141.182351 L368.298146,140.945108 L368.664793,141.182351 L368.422544,140.826487 L368.789191,140.585007 L368.422544,140.585007 L368.298146,140.229143 Z M371.724548,140.229143 L371.602333,140.585007 L371.235686,140.585007 L371.602333,140.826487 L371.357901,141.182351 L371.724548,140.945108 L372.091195,141.182351 L371.96898,140.826487 L372.339991,140.585007 L371.848946,140.585007 L371.724548,140.229143 Z M359.48771,139.038693 L359.363312,139.398794 L358.996665,139.398794 L359.241096,139.633918 L359.121063,139.994019 L359.48771,139.754658 L359.854357,139.994019 L359.729959,139.633918 L360.096606,139.398794 L359.607743,139.398794 L359.48771,139.038693 Z M370.011347,139.038693 L369.889132,139.398794 L369.522485,139.398794 L369.769099,139.633918 L369.6447,139.994019 L370.011347,139.754658 L370.377994,139.994019 L370.255779,139.633918 L370.62679,139.398794 L370.135745,139.398794 L370.011347,139.038693 Z M363.034145,139.038693 L362.914112,139.398794 L362.42525,139.398794 L362.791896,139.633918 L362.667498,139.994019 L363.034145,139.754658 L363.405157,139.994019 L363.280759,139.633918 L363.52519,139.398794 L363.158543,139.398794 L363.034145,139.038693 Z M356.183524,139.038693 L355.93691,139.398794 L355.570263,139.398794 L355.93691,139.633918 L355.694661,139.994019 L356.183524,139.754658 L356.427955,139.994019 L356.303557,139.633918 L356.670204,139.398794 L356.303557,139.398794 L356.183524,139.038693 Z M366.460547,139.038693 L366.342697,139.398794 L365.97605,139.398794 L366.342697,139.633918 L366.0939,139.994019 L366.460547,139.754658 L366.831559,139.994019 L366.709343,139.633918 L367.07599,139.398794 L366.709343,139.398794 L366.460547,139.038693 Z M373.562147,139.038693 L373.439932,139.398794 L372.948887,139.398794 L373.315534,139.633918 L373.195501,139.994019 L373.562147,139.754658 L373.928794,139.994019 L373.806579,139.633918 L374.053192,139.398794 L373.686545,139.398794 L373.562147,139.038693 Z M346.022169,67.1541357 C347.493121,65.3684603 347.615336,65.6078213 349.815217,65.9636854 L315.302401,125.712852 L334.274193,125.829355 L364.871744,70.2488828 C366.709343,67.5121181 371.235686,62.6316956 375.277531,64.417371 L375.644178,64.6546138 C378.457319,66.2009282 375.030917,72.5090438 374.173225,74.4133406 C367.689251,86.1971039 356.427955,100.120289 354.101493,113.450366 C350.797307,139.633918 376.624085,122.022879 381.517074,112.738638 C383.230275,108.692802 383.843536,105.953919 381.274825,102.503307 L378.948364,100.120289 C378.948364,101.666603 378.21507,103.810261 377.848423,105.121451 C375.644178,109.402412 369.524667,109.999755 372.826671,103.098533 C380.294918,90.9567869 390.698522,78.3405557 395.593694,65.1312175 C396.818032,59.0603447 396.206954,52.6336077 390.087444,50.2548253 C382.25255,48.1111675 376.135222,52.6357259 370.382359,57.2767875 L367.811466,59.5369484 C366.587128,40.1381161 349.819582,51.9197612 340.642499,64.5359924 L331.341018,77.3894664 C329.381203,79.8889883 309.307289,109.879015 305.880887,108.927926 C304.780947,107.976837 305.147593,106.549144 305.389842,105.356575 L306.003103,103.928882 L333.296468,52.1570039 L317.751078,52.3942467 L314.813539,58.4651195 C314.693506,56.6794441 314.204643,54.1799221 313.346952,52.6336077 C304.412117,44.1839525 286.053586,58.9417233 280.422938,65.7264427 C271.979149,77.270845 264.753151,89.4104724 258.022563,101.908082 C256.431577,103.335775 248.107821,110.355619 246.274587,108.332701 C245.29468,106.549144 247.132279,103.575136 247.987788,102.026704 L276.381094,52.9894718 L259.369117,53.3474542 L233.542339,100.478271 C231.462491,103.808143 225.09855,109.402412 220.447809,108.925808 C219.22347,108.449204 218.492359,107.737476 218.001314,106.78215 C216.776976,103.210799 220.572207,99.4064421 222.409806,96.6675591 L264.019857,21.4488938 L247.987788,21.6861365 L225.71181,60.6087774 C225.71181,59.0624629 225.220765,57.2767875 224.978516,55.8469762 C224.607505,54.5379045 223.140917,52.9894718 221.794363,52.1570039 C218.001314,51.085175 214.817161,51.3224178 211.02193,52.2756253 C202.57814,55.4889938 196.947493,60.8439019 190.950198,67.7472426 C185.441766,74.531962 180.057731,82.3863921 176.140285,90.2429403 C173.69379,95.000505 171.122897,97.978749 167.818711,104.879972 C166.10551,106.307665 159.861601,111.069466 157.537322,108.807187 C154.846397,102.026704 177.242408,74.8899444 180.670992,66.438171 C185.199517,54.2985435 174.918128,50.9665536 163.414584,54.2985435 C160.232613,54.7751473 156.070735,58.8209837 153.62424,60.7252805 C155.337441,58.5816227 154.724181,55.7262366 152.155471,54.4171649 C131.594876,48.8228958 126.453091,65.7243244 128.655154,62.2715949 C127.921861,62.8668201 106.992437,92.8610837 105.890314,91.7892548 C105.523667,91.312651 105.645883,88.8110108 105.645883,87.9785429 C104.299329,88.3344071 102.954957,88.9296322 101.730618,89.5248573 C93.897907,94.1659189 103.688251,104.521989 112.134222,96.1888371 C120.700227,85.8327668 128.779552,73.3372752 131.594876,70.6005105 C133.185862,69.5286816 134.776847,68.8148351 136.612264,68.2196099 L100.015235,127.729415 L118.742595,125.941621 C125.964228,114.039237 146.280392,78.0948399 152.277686,71.4308602 C153.868672,70.835635 159.008275,66.1945735 160.59926,67.0270414 C166.10551,68.0967521 161.332554,73.0979142 160.108215,75.2373356 L140.036483,108.086985 C135.630174,115.822794 129.999526,132.247619 147.624763,126.178864 C153.499842,123.675106 159.863784,117.845712 164.392309,113.439775 L167.940926,109.989164 C167.452064,113.918497 167.207633,117.845712 168.552004,121.652188 C171.856191,128.436907 177.609054,129.387996 185.197334,125.462899 C189.848075,122.963378 194.254384,118.443056 198.047433,114.871705 C197.558571,117.489848 197.067526,120.701098 198.291864,123.084117 C201.962698,129.152872 200.738359,125.107035 207.102301,127.250693 C208.9399,126.655468 213.466242,123.916585 215.303841,122.965496 C218.612392,120.347352 222.525474,117.252605 225.831843,114.513722 C224.974152,117.013244 223.747631,120.586713 224.727538,123.202739 C227.787293,127.96454 233.662372,126.892711 238.313113,125.225657 C245.534746,121.654306 251.654256,114.755202 257.409302,109.516797 C254.958443,122.13091 260.955737,132.010376 275.643435,125.346396 C280.051927,123.323478 284.333838,119.396263 288.004671,116.182895 C288.004671,120.705335 287.880273,124.990532 293.510921,126.538965 C301.588064,127.729415 307.585358,120.826074 311.869452,115.587669 L346.022169,67.1541357 L346.022169,67.1541357 Z M62.6827301,68.8211898 C52.0346949,70.9627294 45.0596752,64.1801282 41.5088752,55.491112 C39.551243,46.4441135 40.4067523,42.5168984 44.3241992,35.2576935 C45.7929689,33.4720181 47.7506011,31.2097389 49.4638021,29.7820458 C55.4610968,25.2596057 60.7250979,22.9973265 67.8245155,21.2137693 C71.6175643,20.6185441 75.7794424,20.4999227 79.4502757,20.6185441 L84.5920611,21.3345089 C98.9109295,1.57769413 126.328693,-5.56500763 147.380332,6.21875568 L150.562303,8.00443112 C137.343375,16.4562046 129.266232,23.9526522 120.331398,36.3316407 C122.413428,40.0216129 124.737707,44.1860707 125.837648,48.2340254 C126.204295,50.614926 126.328693,53.2330693 126.204295,55.6139699 C124.246663,66.5631471 116.6562,72.5153985 105.03044,72.6340199 C102.188465,79.3729416 99.168451,86.0398302 95.97339,92.6280774 C89.8538797,103.458633 82.2655996,112.622135 71.4953487,119.644097 C46.404047,133.334275 -1.08326577,134.997093 0.0188571679,93.2233026 C-0.103358445,80.1283493 11.2801529,68.5860653 23.5191735,65.0147144 C30.6185912,63.8242641 35.7581942,64.6588502 41.8777045,67.2769936 C45.3062889,69.1812904 48.4882597,71.9180551 50.5681075,75.250045 C53.2590334,79.17726 53.6278627,84.2949254 53.1390002,88.9359869 C51.6702304,94.0536522 48.4882597,97.5085 43.9597347,100.243146 C34.1693912,104.528344 27.9254828,101.079851 24.7435121,94.8903566 C29.8831151,96.3180497 32.8206546,96.1973101 34.6560712,91.0796447 C35.7560117,88.2242586 35.3893649,85.1295115 33.9227776,82.3906285 C32.2095766,80.0118462 30.1275463,77.9868098 27.1921892,77.3915846 C17.8907081,75.1314236 10.302428,82.9858537 9.93359874,91.1982661 C9.44473629,113.812585 33.8005619,118.809511 51.3035836,111.073702 C65.6246345,105.123569 76.3948853,94.6488774 83.1254737,81.19806 L89.8560621,67.5121181 C85.9407977,62.7503169 83.4921206,59.1810843 81.4100903,53.3495725 C78.8391976,45.13716 79.2080269,38.1151979 81.0434435,30.1400282 C71.864178,29.7820458 67.0912218,30.1400282 58.5252168,35.8529187 C54.60777,40.4939802 51.4257992,50.4920681 59.1362949,53.824058 C61.0939271,54.7751473 63.7870355,54.5379045 65.6224521,53.2288328 C68.437776,51.0872932 67.5800843,47.8739248 66.8467906,45.0185386 C69.4155009,46.5648531 71.6197468,48.5877713 72.5996541,51.4452756 C73.9462083,58.9417233 71.9863936,66.677532 62.6827301,68.8211898 L62.6827301,68.8211898 Z M111.14995,30.6145137 C118.004937,22.0462372 124.002231,16.3333467 133.059281,10.0252311 C118.73823,4.19371924 101.481822,11.4529241 93.4024973,23.5925516 C97.686591,24.4250195 102.337332,25.8527126 106.132563,27.7570094 L111.14995,30.6145137 Z M92.671386,59.5369484 C95.1200631,55.0145083 97.9353871,50.3713285 100.748529,45.9696279 L106.379176,37.4013514 C100.137451,33.8300005 96.097788,31.9278219 88.8761548,30.3793892 C86.9185226,40.3732406 87.1629538,50.0154643 92.671386,59.5369484 L92.671386,59.5369484 Z M106.868039,63.1061811 L115.314011,44.658438 C116.171702,47.8718065 117.149427,51.5617788 116.660565,55.1331297 C115.925089,60.7273987 112.007642,62.3923346 106.868039,63.1061811 L106.868039,63.1061811 Z M187.648194,99.2878207 C188.872533,95.0026233 190.216904,89.5290938 192.543366,85.8370033 C198.174014,77.3873481 201.847029,70.0095218 210.415217,64.2966314 C212.615098,63.2248025 215.674853,61.9157308 218.245746,62.7503169 C222.529839,64.6546138 221.554297,68.7025684 220.20556,71.7973155 C215.183808,82.6299895 203.313617,104.286865 193.645489,107.858216 C187.40158,107.976837 186.30164,106.549144 187.648194,99.2878207 L187.648194,99.2878207 Z M288.74233,72.271801 C292.784175,67.7493609 298.781469,60.3694164 305.634273,61.4412453 C306.491965,61.678488 307.589723,62.2758314 308.205166,62.7503169 C310.527263,66.5589106 306.734214,72.6297834 305.021013,76.1990161 C300.612521,84.0555644 295.477283,91.9078762 290.702144,99.5250635 C288.497899,102.74055 283.967191,107.381612 279.316451,106.905008 C266.099705,103.575136 285.315928,76.9128626 288.74233,72.271801 L288.74233,72.271801 Z M290.213282,21.3323906 C299.88141,36.9226294 266.099705,55.0145083 271.979149,29.0681993 C274.547859,22.1648585 283.602727,14.0710675 290.213282,21.3323906 Z M30.0053307,164.747759 L22.6614818,148.683035 L19.6017267,164.15677 L17.030834,164.15677 L21.8037901,140.470622 L30.0031483,159.27423 L38.2046888,140.470622 L42.977645,164.15677 L40.1623211,164.15677 L37.2247815,148.683035 L30.0053307,164.747759 Z M68.0689467,162.127498 C69.1710697,162.127498 70.3932258,161.771633 71.6175643,161.415769 C72.7175049,160.820544 73.8196278,160.225319 74.7995351,159.272111 C75.6572268,158.439644 76.3905205,157.488554 76.7571673,156.298104 C77.3682454,155.226275 77.6148591,154.035825 77.6148591,152.847493 C77.6148591,151.415563 77.3704278,150.229349 76.7571673,149.15752 C76.3449565,147.999719 75.676796,146.943449 74.7995351,146.062773 C73.8196278,145.226069 72.8419029,144.516459 71.73978,144.039855 C70.5154414,143.683991 69.1688873,143.32389 68.0667643,143.32389 C66.7202102,143.32389 65.3758384,143.683991 64.2737155,144.039855 C63.1371617,144.530785 62.1007681,145.215983 61.2139603,146.062773 C60.3562686,146.895241 59.5007593,148.085692 59.1341125,149.15752 C58.6430676,150.229349 58.4008188,151.415563 58.4008188,152.847493 C58.4008188,154.035825 58.64525,155.226275 59.0118969,156.177364 C59.4838283,157.363251 60.2384474,158.423782 61.2139603,159.272111 C62.071652,160.223201 63.1715925,160.939166 64.2737155,161.415769 C65.3780208,161.771633 66.724575,162.127498 68.0689467,162.127498 L68.0689467,162.127498 Z M80.5523986,152.849611 C80.5523986,154.512429 80.3079674,156.060861 79.6947069,157.490672 C79.0861484,158.927091 78.1185893,160.193789 76.879383,161.176408 C75.77726,162.248237 74.3084902,163.320066 72.8397205,163.794552 C71.3256515,164.406104 69.7044339,164.72901 68.0645819,164.745641 C66.3513809,164.745641 64.6381799,164.389777 63.1694101,163.794552 C61.5784247,163.317948 60.2318706,162.248237 59.007532,161.176408 C57.8414217,160.155066 56.9218601,158.896572 56.3144237,157.490672 C55.7033457,156.058743 55.456732,154.395925 55.456732,152.849611 C55.456732,151.303296 55.7011632,149.754864 56.3144237,148.322934 C56.9255018,146.77662 57.9054091,145.467548 59.007532,144.395719 C60.2318706,143.32389 61.5784247,142.372801 63.1694101,141.896197 C64.6381799,141.180233 66.3513809,140.945108 68.0645819,140.945108 C69.6555673,140.945108 71.3687683,141.180233 72.8397205,141.896197 C74.3084902,142.372801 75.77726,143.32389 76.879383,144.395719 C78.0960006,145.448796 79.0574291,146.750148 79.6947069,148.206431 C80.3079674,149.754864 80.5523986,151.301178 80.5523986,152.849611 Z M97.199911,164.154652 L97.199911,144.039855 L90.5893558,144.039855 L90.5893558,141.421712 L106.868039,141.421712 L106.868039,144.039855 L100.013052,144.039855 L100.013052,164.154652 L97.199911,164.154652 Z M129.266232,162.127498 C130.612786,162.127498 131.837125,161.771633 132.937066,161.415769 C134.039188,160.820544 135.263527,160.225319 136.119036,159.272111 C136.976728,158.439644 137.710022,157.488554 138.201067,156.298104 C138.689196,155.209641 138.938908,154.034587 138.934421,152.847493 C138.934421,151.415563 138.689929,150.229349 138.201067,149.15752 C137.710022,148.085692 136.976728,146.895241 136.119036,146.062773 C135.23244,145.215733 134.195997,144.530502 133.059281,144.039855 C131.957158,143.683991 130.610604,143.32389 129.26405,143.32389 C128.039711,143.32389 126.693157,143.683991 125.593217,144.039855 C124.439979,144.501243 123.398054,145.190099 122.533462,146.062773 C121.67577,146.895241 120.942476,148.085692 120.453614,149.15752 C119.962569,150.229349 119.718138,151.415563 119.718138,152.847493 C119.718138,154.035825 119.962569,155.226275 120.453614,156.177364 C120.942476,157.367815 121.555737,158.439644 122.533462,159.272111 C123.391153,160.223201 124.368878,160.939166 125.593217,161.415769 C126.69534,161.771633 128.041894,162.127498 129.266232,162.127498 L129.266232,162.127498 Z M141.994115,152.849611 C141.994115,154.512429 141.627469,156.060861 141.014208,157.490672 C140.406772,158.896572 139.48721,160.155066 138.3211,161.176408 C137.096761,162.248237 135.630174,163.320066 134.161404,163.794552 C132.570419,164.389777 130.979433,164.745641 129.26405,164.745641 C127.548666,164.745641 125.959864,164.389777 124.368878,163.794552 C122.900108,163.317948 121.553554,162.248237 120.453614,161.176408 C119.213529,160.220966 118.279401,158.942536 117.760505,157.490672 C117.027212,156.058743 116.658382,154.395925 116.658382,152.849611 C116.658382,151.303296 117.025029,149.754864 117.760505,148.322934 C118.249368,146.77662 119.229275,145.467548 120.453614,144.395719 C121.555737,143.32389 122.900108,142.372801 124.368878,141.896197 C125.959864,141.180233 127.550849,140.945108 129.26405,140.945108 C130.977251,140.945108 132.568236,141.180233 134.161404,141.896197 C135.630174,142.372801 137.098944,143.32389 138.3211,144.395719 C139.423223,145.467548 140.40313,146.774502 141.014208,148.206431 C141.627469,149.754864 141.994115,151.301178 141.994115,152.849611 L141.994115,152.849611 Z M156.192951,164.154652 L156.192951,141.421712 L161.823599,141.421712 C163.414584,141.421712 164.516707,141.542451 165.250001,141.656836 C165.985477,141.896197 166.71877,142.13344 167.332031,142.493541 C167.820893,143.088766 168.431971,143.800494 168.800801,144.751583 C169.167447,145.467548 169.411879,146.657998 169.411879,147.611206 C169.411879,149.513385 168.923016,150.941078 167.820893,151.777782 C166.720953,152.849611 165.129967,153.324096 163.047937,153.324096 L162.68129,153.324096 L171.73834,164.154652 L168.065324,164.154652 L159.497137,153.324096 L159.008275,153.324096 L159.008275,164.154652 L156.192951,164.154652 L156.192951,164.154652 Z M159.008275,143.683991 L159.008275,151.415563 L161.088122,151.415563 C163.170153,151.415563 164.63674,151.059699 165.372216,150.583095 C165.985477,149.98787 166.352123,149.036781 166.352123,147.609088 C166.352123,146.181395 165.985477,145.109566 165.372216,144.514341 C164.638922,143.798376 163.170153,143.681873 161.088122,143.681873 L159.008275,143.681873 L159.008275,143.683991 Z M202.822572,146.774502 C201.821404,145.69222 200.618039,144.80384 199.276137,144.156358 C197.929582,143.683991 196.460813,143.32389 194.992043,143.32389 C193.767704,143.32389 192.543366,143.683991 191.443425,144.039855 C190.219087,144.516459 189.241362,145.228187 188.261454,146.183513 C187.528161,146.895241 186.670469,148.085692 186.426038,149.15752 C185.937175,150.229349 185.692744,151.536303 185.692744,152.963996 C185.692744,153.915085 185.81496,154.870411 186.059391,155.823618 C186.303822,156.656086 186.670469,157.607176 187.159332,158.32314 C188.261454,159.513591 189.361395,160.581183 190.707949,161.178527 C192.054503,162.015231 193.523273,162.250355 195.114258,162.250355 C196.583028,162.250355 198.051798,162.015231 199.39617,161.417888 C200.727101,160.753463 201.895561,159.819458 202.822572,158.679005 L202.822572,162.250355 C201.722631,163.08706 200.376077,163.79667 199.151738,164.038149 C197.777117,164.515024 196.327421,164.755866 194.867645,164.749986 C193.659941,164.737057 192.462054,164.537561 191.319027,164.158889 C190.094689,163.798788 188.87035,163.322184 187.892625,162.612574 C186.284791,161.523316 184.947281,160.099955 183.977361,158.445998 C183.244067,156.778944 182.630807,154.874647 182.630807,152.968232 C182.630807,151.305415 182.997453,149.638361 183.488498,148.210668 C184.099576,146.778738 185.079484,145.351045 186.426038,144.281334 C187.528161,143.209505 188.874715,142.258416 190.343485,141.781812 C191.687856,141.186587 193.40324,140.949344 195.116441,140.949344 C196.462995,140.949344 197.807367,141.070084 199.156103,141.425948 C200.451379,141.920107 201.683223,142.558432 202.826937,143.328127 L202.826937,146.774502 L202.822572,146.774502 L202.822572,146.774502 Z M222.652055,164.154652 L222.652055,153.798582 L214.574912,141.419594 L217.759066,141.419594 L223.998609,151.415563 L230.120302,141.419594 L233.30009,141.419594 L225.345163,153.798582 L225.345163,164.154652 L222.652055,164.154652 L222.652055,164.154652 Z M264.753151,146.774502 C263.683956,145.714307 262.444145,144.830038 261.082318,144.156358 C259.857979,143.683991 258.389209,143.32389 256.922622,143.32389 C255.576068,143.32389 254.351729,143.683991 253.247424,144.039855 C252.081772,144.532473 251.039533,145.263706 250.192034,146.183513 C249.212126,146.895241 248.598866,148.085692 248.107821,149.15752 C247.621141,150.229349 247.374527,151.536303 247.374527,152.963996 C247.374527,153.915085 247.498925,154.870411 247.865572,155.823618 C248.107821,156.656086 248.598866,157.607176 248.965513,158.32314 C249.94542,159.513591 251.169759,160.581183 252.516313,161.178527 C253.862867,162.015231 255.333819,162.250355 256.924805,162.250355 C258.51579,162.250355 259.98456,162.015231 261.0845,161.417888 C262.308839,160.822662 263.530995,159.871573 264.755333,158.679005 L264.755333,162.250355 C263.413144,163.08706 262.184441,163.79667 260.842251,164.038149 C259.61573,164.514753 258.149143,164.749877 256.800406,164.749877 C255.45167,164.749877 254.229514,164.514753 253.129573,164.158889 C251.903052,163.798788 250.678714,163.322184 249.703171,162.612574 C247.98997,161.540745 246.765632,160.108816 245.785724,158.445998 C244.909237,156.744736 244.448463,154.870315 244.43917,152.968232 C244.43917,151.305415 244.805817,149.638361 245.419078,148.210668 C245.961413,146.702655 246.88606,145.351376 248.107821,144.281334 C249.334342,143.209505 250.678714,142.258416 252.149666,141.781812 C253.620618,141.186587 255.209421,140.949344 256.924805,140.949344 C258.271359,140.949344 259.613548,141.070084 260.842251,141.425948 C262.06659,141.902552 263.413144,142.497777 264.755333,143.328127 L264.755333,146.774502 L264.753151,146.774502 Z M279.1986,164.154652 L279.1986,141.421712 L281.887343,141.421712 L281.887343,161.536509 L290.822178,161.536509 L290.822178,164.154652 L279.1986,164.154652 Z M304.041106,164.154652 L304.041106,141.421712 L316.52674,141.421712 L316.52674,143.800494 L306.736396,143.800494 L306.736396,150.585213 L316.52674,150.585213 L316.52674,152.963996 L306.736396,152.963996 L306.736396,161.771633 L316.52674,161.771633 L316.52674,164.154652 L304.041106,164.154652 L304.041106,164.154652 Z M339.533829,151.536303 C341.004781,152.131528 342.226937,152.963996 342.960231,154.035825 C343.817923,154.986914 344.186752,156.298104 344.186752,157.725797 C344.186752,159.869455 343.449093,161.536509 342.102539,162.722723 C340.76035,164.033913 338.922751,164.745641 336.718505,164.745641 C335.005304,164.745641 333.414319,164.154652 332.067764,163.317948 C330.843426,162.366859 329.987917,161.059905 329.496872,159.272111 L332.067764,158.081661 C332.434411,159.513591 333.047672,160.581183 333.65875,161.176408 C334.516442,162.013113 335.496349,162.248237 336.596289,162.248237 C337.942844,162.248237 339.047149,161.892373 339.904841,161.059905 C340.762532,160.46468 341.24703,159.272111 341.24703,158.081661 C341.24703,157.249193 340.880383,156.179483 340.271487,155.582139 C339.780443,154.749671 338.800535,154.154446 337.700595,153.679961 L335.007486,152.48951 C333.416501,151.777782 332.069947,151.061817 331.456686,149.989988 C330.598995,149.15752 330.232348,147.846331 330.232348,146.539377 C330.232348,144.993063 330.845608,143.56537 331.945549,142.493541 C333.292103,141.421712 335.005304,140.947226 336.720687,140.947226 C338.19164,140.947226 339.413796,141.182351 340.391521,141.779694 C341.495826,142.374919 342.22912,143.207387 342.84238,144.279216 L340.391521,145.706909 C339.904841,144.995181 339.415978,144.160595 338.800535,143.688227 C338.175236,143.311418 337.456586,143.10575 336.720687,143.093002 C335.620747,143.093002 334.765238,143.448866 334.149795,144.044092 C333.534352,144.639317 333.292103,145.471785 333.292103,146.422874 C333.292103,147.255342 333.534352,147.969188 333.905363,148.445792 C334.392044,149.161757 335.129702,149.756982 336.22746,150.112846 L339.533829,151.536303 L339.533829,151.536303 Z" id="indian-motorcycles" fill="#FFFFFF"></path>
</svg>