<?xml version="1.0" encoding="UTF-8"?>
<svg width="400px" height="158px" viewBox="0 0 400 158" version="1.1" xmlns="http://www.w3.org/2000/svg">
    <title>ktm</title>
    <path d="M400.000003,0.50924082 L400.000003,157.349479 L3.25140354e-06,157.349479 L3.25140354e-06,0.50924082 L400.000003,0.50924082 Z M309.838149,22.3347837 L114.87274,22.3347837 L109.139007,37.5419542 L180.840436,37.5419542 L150.630835,114.115569 L126.80767,82.8145362 L167.973146,48.4655015 L133.520972,48.4655015 L91.2835637,82.2418813 L105.502443,48.4655015 L55.1524226,48.4655015 L18.1817981,135.523936 L68.9977416,135.523936 L81.7716417,104.302438 L105.268455,135.523936 L214.732784,135.523936 L248.578949,103.989941 L242.937579,135.523936 L285.828204,135.523936 L321.213252,104.316806 L316.364671,135.523936 L362.61169,135.523936 L381.819235,48.4655015 L335.338741,48.4655015 L297.670257,81.6589637 L304.942872,48.4655015 L260.37482,48.4655015 L211.749436,97.1924859 L232.075608,37.5424674 L306.434546,37.5424674 L309.838149,22.3347837 Z" id="ktm" fill="#FFFFFF"></path>
</svg>