<?xml version="1.0" encoding="UTF-8"?>
<svg width="400px" height="216px" viewBox="0 0 400 216" version="1.1" xmlns="http://www.w3.org/2000/svg">
    <title>kymco</title>
    <path d="M200.000392,0.506907345 C89.5823108,0.506907345 3.25140354e-06,48.7002412 3.25140354e-06,108.160742 C3.25140354e-06,167.622021 89.5823108,215.886193 200.000392,215.886193 C310.489312,215.886193 400.000003,167.6228 400.000003,108.160742 C400.000003,48.7002412 310.489312,0.506907345 200.000392,0.506907345 Z M199.787099,199.868974 C175.478696,199.868974 152.303705,197.530535 131.112961,193.207069 L131.112961,122.122875 C137.774866,160.393411 191.70843,190.230308 257.334969,190.230308 C268.887046,190.230308 281.64415,189.096118 294.330417,186.757678 C266.690283,195.120479 234.372492,199.868974 199.787099,199.868974 Z M287.172644,174.426808 C235.15249,174.638896 193.054356,146.502894 193.054356,112.271693 C193.054356,78.0404922 235.15249,50.3295199 287.172644,50.3295199 C326.505753,50.3295199 349.114039,65.3542257 349.114039,65.3542257 C349.114039,65.3542257 315.733675,37.7857082 257.335747,37.8565464 C189.08586,37.9982229 137.63319,67.6226052 131.112961,105.822303 L131.112961,38.7774431 C131.112961,38.7774431 92.2041029,46.8576693 70.3049773,60.7481854 L70.3049773,173.149737 C36.8537749,156.565812 16.1588988,133.603335 16.1588988,108.159964 C16.1588988,57.5581308 98.3701407,16.4517314 199.787099,16.4517314 C301.133998,16.4517314 382.991049,57.5581308 383.346517,108.159964 C383.628593,148.982232 336.711904,174.283148 287.172644,174.424825" id="kymco" fill="#FFFFFF"></path>
</svg>