<?xml version="1.0" encoding="UTF-8"?>
<svg width="400px" height="113px" viewBox="0 0 400 113" version="1.1" xmlns="http://www.w3.org/2000/svg">
    <title>moto-guzzi</title>
    <path d="M353.962236,0.762804912 C352.225288,3.99648356 348.963893,6.06603789 345.677089,7.47268811 C342.443411,8.83776245 339.013401,9.68082867 335.567224,10.2952276 C335.657305,11.1406036 335.30391,11.9952187 334.585571,12.4664118 C332.751614,13.7714322 330.488039,14.235696 328.328403,14.6999599 C323.249218,15.6469658 318.054544,15.9125894 312.901446,15.6862319 C313.305656,16.2775331 313.654431,17.1783436 313.023864,17.7511667 C312.065309,18.4995323 310.792626,18.6080915 309.628502,18.7397484 C305.299992,19.0423284 300.969172,18.5295593 296.677619,18.0144805 C296.132513,19.287164 294.778987,19.901563 293.483206,20.0863446 C291.422891,20.3866148 289.325619,20.243409 287.265304,20.0262906 C287.318429,20.6014234 287.498591,21.3012839 287.013539,21.7516891 C286.332157,22.416903 285.334336,22.5901358 284.428906,22.6940755 C282.525655,22.8257324 280.580828,22.6755973 278.774588,22.0357909 C278.982467,22.5808967 279.303525,23.2599692 278.920103,23.8073848 C278.407334,24.5534407 277.421062,24.7243637 276.589545,24.8606401 C275.051238,25.0107752 273.487523,24.9414821 271.976933,24.6158045 C272.330328,25.1955569 272.792282,25.8469121 272.586713,26.5675605 C272.364975,27.3736704 271.50805,27.7339946 270.775853,27.9395642 C269.055074,28.3507033 267.246523,28.2051878 265.530364,27.8448636 C265.904547,28.4731212 266.287969,29.2607529 265.934574,29.9883306 C265.502647,30.7043594 264.678059,31.050825 263.892737,31.2078894 C262.139621,31.5612843 260.296424,31.422698 258.598743,30.8729727 C258.965996,31.5474256 259.444119,32.2703838 259.252408,33.0811132 C259.016811,33.9033915 258.169125,34.3422479 257.397662,34.5408882 C255.593731,34.9889836 253.690481,34.7718652 251.923506,34.2752646 C252.293069,34.9127612 252.718067,35.7258004 252.313857,36.4487586 C251.849593,37.0931845 251.034244,37.3264713 250.288189,37.4350305 C248.292547,37.6775564 246.259949,37.2918248 244.402893,36.5619373 C244.587675,37.3334006 244.832511,38.1995646 244.409823,38.9410009 C243.950178,39.6893665 243.014721,39.9318924 242.194753,39.9850171 C240.31691,40.0612396 238.427517,39.4676286 236.884591,38.4074439 C236.879971,39.0472503 236.921547,39.7702085 236.450354,40.2737384 C235.803618,40.9712891 234.764221,41.0244138 233.881889,40.9389523 C232.405946,40.7888173 231.020083,40.1628695 229.839791,39.2828469 C229.618053,39.9711585 229.091425,40.5971063 228.33844,40.6918069 C226.492933,40.9505012 224.645117,40.0520005 223.397841,38.728502 C223.233847,39.3336619 222.788061,39.9272729 222.118228,39.9803976 C220.432096,40.1166741 218.889169,39.0818969 217.792028,37.8923651 C217.563361,38.4074439 217.16377,38.9155934 216.553991,38.9479302 C215.235112,39.0587992 213.967048,38.2988847 213.234851,37.2340805 C212.747489,37.9755168 211.93907,38.5344813 211.024401,38.4998347 C209.760956,38.5113836 208.751586,37.6544587 207.901591,36.8229414 C207.190182,36.0907441 206.243176,37.0238914 205.820488,37.6359806 C206.03658,37.7417167 206.25769,37.8379857 206.480524,37.9310482 L207.150903,38.2068773 C207.708369,38.4391534 208.256012,38.6905191 208.742347,39.0587992 C209.904162,39.9711585 210.587854,41.4748191 210.446958,42.955382 C210.338399,44.7015684 209.234328,46.2514244 207.802271,47.1961205 C205.765053,48.5842926 203.238164,48.9607852 200.824454,49.0185294 C200.385598,49.0346978 199.780438,49.3742341 199.937502,49.8939324 C200.293207,50.4482773 201.002306,50.6145808 201.498907,51.0211004 C201.956242,50.5637659 202.47594,50.0717848 203.164252,50.0325187 C203.98653,49.9239594 204.741825,50.3489572 205.377012,50.8224602 C206.183122,49.7230094 207.753766,49.5082008 208.901721,50.1918928 C210.100492,50.9263998 211.262307,51.8387592 212.019912,53.0444593 C213.232541,55.5759678 211.345459,58.5855987 208.91558,59.5233655 C208.522919,59.7058374 207.917759,59.6273052 207.829988,59.135324 C207.853086,58.2668504 208.125639,57.4237841 208.206481,56.55993 C207.469664,57.8418526 206.49956,59.1006775 205.122937,59.7243155 C204.563973,60.0130368 203.718597,59.6203758 203.838705,58.9228252 L203.920064,58.5005991 L204.106287,57.6605818 C204.166415,57.3800833 204.219817,57.0981065 204.252154,56.811695 C203.566152,57.9434825 202.690749,59.0082867 201.494288,59.6180661 C200.974589,59.8698311 200.136143,59.8005379 199.983698,59.1399436 C199.847421,58.2160354 200.390217,57.3082956 200.131523,56.3913167 C199.986007,56.0148242 199.630303,55.7884666 199.35544,55.5182235 C198.972018,57.2667197 197.75015,58.8119562 196.117142,59.5510827 C195.917842,59.6395139 195.70572,59.6600662 195.492844,59.6648877 L195.174473,59.6668406 C195.121819,59.6673726 195.069496,59.6685511 195.017691,59.6711908 C194.62272,58.682609 195.179375,57.6478319 195.225571,56.6361524 C194.5234,57.9042164 193.578704,59.1006775 192.289852,59.8028477 C191.730888,60.1031179 190.860104,59.8929288 190.850865,59.1538022 C190.977903,58.3961975 191.185782,57.6501416 191.248146,56.8832978 C190.654535,58.0404928 189.779132,59.0706505 188.640415,59.7243155 C188.116097,60.0292052 187.275341,60.0130368 187.018956,59.3755402 C186.792599,58.3730998 187.554823,57.3129152 187.032815,56.3566702 C185.850212,55.0585792 184.000086,54.3979848 183.110824,52.8227214 C182.143031,54.0191825 181.422382,55.3958057 180.877276,56.8324829 C180.609343,57.9157652 178.775385,57.8718796 178.475115,56.8394122 C178.378105,56.4629196 178.336529,56.0748782 178.283404,55.6937661 C177.177024,56.589957 176.10991,57.6085658 174.714809,58.0358733 C172.737645,58.6872286 170.351652,59.07527 168.506146,57.858021 C166.194066,58.5763596 163.685655,58.7426631 161.325069,58.1836986 C160.433498,57.9573411 159.391792,57.5831583 159.121548,56.5945765 C156.396019,57.2828881 153.434894,57.5947071 150.725533,56.670799 C149.665348,56.3520506 148.778396,55.4604792 148.762228,54.3032842 C146.720391,54.587386 144.576924,54.6289619 142.615929,53.9244819 C141.387131,53.4555985 140.105208,52.5801955 139.858063,51.196643 C144.472984,47.8844321 149.228802,44.7731713 154.005407,41.7011766 C153.513426,41.1953369 153.56886,40.3799879 154.192498,40.0150442 C155.283865,39.2354966 156.404681,38.4986798 157.532426,37.7719683 L159.790484,36.3223521 C160.166142,36.0797727 160.540902,35.8358995 160.91393,35.5895239 C157.784191,36.6889747 154.543583,37.9108433 151.162079,37.5944047 C150.503795,37.511253 149.713853,37.3287811 149.432061,36.6520184 C149.228802,36.0075924 149.596055,35.3724055 149.808554,34.7834141 C147.561147,35.5133015 145.246757,36.1762056 142.867694,36.2224011 C141.99922,36.1738959 140.906699,36.1207712 140.417027,35.2777049 C140.056703,34.4069215 140.654934,33.5546162 141.135366,32.8686143 C138.444483,33.4922524 135.700476,34.1135806 132.919512,33.9634455 C132.03487,33.8872231 130.808382,33.6493168 130.62822,32.6029907 C130.575095,31.6236481 131.23107,30.8036796 131.755388,30.0391455 C129.02062,30.406399 126.258134,30.8914508 123.491029,30.6304468 C122.687229,30.5218876 121.633974,30.2747421 121.449192,29.3392851 C121.37297,28.2883395 122.139814,27.4360342 122.721876,26.6391634 C120.227324,27.1611715 117.668098,27.4267951 115.122731,27.2350842 C114.284284,27.1242152 113.401952,27.0202755 112.678994,26.5490824 C112.237828,26.2765294 111.956036,25.7198748 112.136198,25.2094155 C112.441087,24.2739585 113.267985,23.6595595 113.965536,23.0197531 C111.450196,23.4424411 108.89328,23.7196135 106.340984,23.5486905 C105.546423,23.433202 104.599417,23.3246428 104.102816,22.6109237 C103.737872,21.4029138 104.959741,20.5159619 105.696558,19.7514279 L104.957534,19.8232607 L103.477533,19.9691191 C100.515188,20.2574524 97.5398342,20.5002555 94.5703933,20.243409 C93.5402357,20.0932739 92.3206769,20.0170515 91.6115774,19.1531973 C91.0734008,18.2985823 91.7825004,17.3931522 92.249074,16.6863625 C88.7151252,16.9450568 85.1719373,16.9473665 81.6310592,16.8734539 C77.6859712,16.7071504 73.713166,16.3745435 69.8974252,15.2958807 C67.9502887,14.7299869 66.0077718,13.9654529 64.4325083,12.655813 C64.203841,12.4641021 63.9613151,12.28394 63.6564254,12.2469837 C59.8360651,11.4270151 56.0272536,10.1427828 52.8259117,7.84225138 C50.5115217,6.17921665 48.6198197,3.76319674 48.1416972,0.894461828 C51.5370598,3.60844212 55.8563306,4.73561011 60.0531835,5.51631252 C65.501932,6.48872589 71.0476909,6.75896903 76.5726619,6.839811 C85.4491098,6.91372365 94.3186283,6.33859081 103.1535,5.50707344 C120.257351,3.89485366 137.543673,2.70532187 154.668311,4.6894147 C160.775344,5.44932918 166.917024,6.4563891 172.679901,8.69686645 C177.12159,10.4130259 181.318443,13.0276861 184.302666,16.7949217 C188.437155,15.875633 192.680203,15.6030801 196.897844,15.3443858 C199.334652,15.2450657 201.77377,15.1572944 204.212887,15.2774025 C203.910307,14.5821616 203.656233,13.8684425 203.425256,13.1454844 C205.982172,14.1779518 208.71694,14.7484651 211.465567,14.9124588 C213.786886,14.9586542 216.133613,15.0117789 218.385639,15.6331072 C225.275684,14.2911305 231.890867,11.8543227 238.462164,9.43830277 C241.559566,8.31113478 244.650039,7.13777139 247.856,6.34552012 C254.388031,4.74946873 261.116393,4.12583071 267.821656,3.90640251 C277.499061,3.62034632 287.152358,4.15132018 296.803902,4.7662122 L300.940236,5.03273784 C307.834165,5.47838582 314.72883,5.91341537 321.632379,6.07065744 C327.737102,6.14687986 333.869543,6.09606491 339.923451,5.21142282 C344.794757,4.49539398 349.670682,3.24811793 353.962236,0.762804912 Z M186.426864,52.2158511 L186.27983,52.2337299 C185.67005,52.3492184 185.455241,53.0767961 185.619235,53.6103531 C186.362981,54.6266521 187.68417,55.120943 188.247754,56.2873771 C188.603459,56.9895473 188.471802,57.7956572 188.402509,58.5463326 C189.518128,57.8349233 190.317308,56.4213438 189.857664,55.0978453 C189.423427,54.2732572 188.649654,53.7027439 187.98213,53.0791059 C187.554493,52.7504586 187.123461,52.2656896 186.568308,52.2182551 L186.426864,52.2158511 Z M190.49747,52.0697362 C189.804539,52.1251707 189.324107,52.8873949 189.622067,53.5318209 C189.888516,53.8964347 190.226261,54.2035988 190.572381,54.5035028 L190.987719,54.8631149 C191.467574,55.2860916 191.914515,55.734187 192.155886,56.3451213 C192.474634,57.0403622 192.287543,57.8233744 192.181293,58.5440228 C193.142158,57.9203848 193.952887,56.8763685 193.876665,55.6752879 C193.876665,54.779097 193.079794,54.2039641 192.543927,53.5895652 C191.90874,53.0352203 191.349776,52.2753058 190.49747,52.0697362 Z M193.779654,53.319322 C194.387124,54.0769267 195.23481,54.5989349 195.858448,55.3473005 C196.528281,56.1718885 196.532901,57.2990565 196.283445,58.2853285 C197.436021,57.5300336 198.431532,56.0055851 197.780177,54.6243423 C197.047979,53.5988042 196.119452,52.6979938 195.098533,51.9657965 C194.294733,51.3490878 193.195282,52.5432391 193.779654,53.319322 Z M199.221473,51.8156615 C198.75259,52.0951437 198.34838,52.7349501 198.699465,53.2569582 C199.466309,54.2386107 200.785188,54.7490699 201.307196,55.9339822 C201.649042,56.6384622 201.531244,57.435333 201.418065,58.1790791 C202.261131,57.5346531 203.062622,56.6130547 203.016426,55.4812672 C203.090339,54.3286917 202.032464,53.6357606 201.304886,52.9220415 C200.695107,52.4346799 200.099186,51.6447384 199.221473,51.8156615 Z M202.67689,53.1345404 C203.367511,54.0584486 204.464652,54.6220326 205.055954,55.6290925 C205.4925,56.3936265 205.342365,57.2967468 205.243045,58.1259544 C206.391001,57.3683496 207.361105,55.8785477 206.709749,54.5019245 C205.979862,53.4763864 205.053644,52.5755759 204.035035,51.8433787 C203.27974,51.2543872 202.157192,52.3607673 202.67689,53.1345404 Z M206.822928,52.9220415 C207.522788,53.772037 208.532158,54.3402406 209.130389,55.2803171 C209.603892,56.0494707 209.483784,56.9987864 209.324409,57.8418526 C210.248318,57.1881875 211.098313,56.1996058 211.003613,54.9962154 C211.008232,54.1439101 210.310681,53.5595381 209.786364,52.9844053 C209.181204,52.4277506 208.629169,51.7787051 207.878493,51.4230005 C207.086242,51.1550671 206.293991,52.272996 206.822928,52.9220415 Z M180.874967,47.5564447 C177.401072,50.7069716 174.008019,53.9452698 170.589559,57.153541 C172.282621,57.2297634 174.024187,56.8740588 175.479343,55.9847971 C176.655016,55.2872465 177.555827,54.2386107 178.551338,53.319322 C178.992504,51.2774849 179.946439,49.4088806 180.874967,47.5564447 Z M172.411968,46.9466653 C168.813345,50.159556 165.064588,53.1969042 161.308901,56.2227035 C162.496123,56.7377823 163.828861,56.6754185 165.083066,56.4975662 C167.616884,56.0448512 169.961301,54.7606188 171.818357,52.9936444 C173.922558,51.0280297 176.070644,49.1086105 178.174845,47.1476153 C176.271594,47.4548148 174.245925,47.7181286 172.411968,46.9466653 Z M188.975332,40.8142247 C189.684431,41.0498213 190.388911,41.3015863 191.081842,41.5856881 C188.282401,42.793698 185.827115,44.706188 183.746011,46.9166383 C181.909744,48.9215191 180.260568,51.2451481 179.752418,53.9706773 C179.657718,54.7860263 179.23503,55.7307224 179.83095,56.4513708 C180.382986,55.603685 180.544669,54.5758372 181.066678,53.7096732 C182.558789,50.8963728 185.300487,49.0346978 188.106858,47.6996505 C188.143814,47.8359269 188.217727,48.1084799 188.254683,48.2470661 C190.559834,47.2885113 193.091343,47.2099791 195.551248,47.131447 C197.103414,47.0852515 198.704085,46.5632434 199.810465,45.4383852 C201.390348,43.8954585 201.824585,41.1976466 200.56345,39.3359716 C199.685737,38.0032341 197.928002,37.6867955 196.445129,37.6752467 C193.636448,37.5759265 191.026408,39.0033647 188.975332,40.8142247 Z M163.805763,45.2074082 C159.652796,48.5866023 155.460562,51.9450086 150.917244,54.7929556 C152.984488,55.8762379 155.472111,55.513604 157.553214,54.6543693 C161.2142,53.1414697 164.193804,50.4505871 167.238082,47.9883718 C168.148131,47.191501 169.148262,46.4893308 169.97285,45.5977594 C167.949491,46.034306 165.702084,46.1890606 163.805763,45.2074082 Z M155.17646,43.1101366 C151.021183,45.9419152 146.838189,48.7344277 142.648266,51.5177011 C145.006541,53.0259812 148.210193,52.5778857 150.483007,51.1088717 C154.250243,48.7829328 157.925087,46.286071 161.401292,43.5420637 C159.359455,43.8284752 157.047375,44.2280655 155.17646,43.1101366 Z M202.499038,39.1604291 C203.628515,41.4494116 203.053383,44.403608 201.277169,46.205229 C200.683558,46.8242475 199.872829,47.1476153 199.149871,47.584162 C201.517385,47.6881016 204.007318,47.533347 206.139236,46.3992497 C207.356485,45.7617531 208.453626,44.7015684 208.779304,43.327255 C209.084193,42.0407129 208.446697,40.6617799 207.386512,39.915724 C205.99603,38.8948055 204.134355,38.7007848 202.499038,39.1604291 Z M180.729451,39.9780878 C178.493593,41.6734593 176.474854,43.6344545 174.208969,45.2882501 C175.513989,45.3182771 176.851347,45.3621628 178.103242,44.9325455 C180.969667,44.0340448 183.450361,42.1977772 185.633094,40.1813476 C184.609865,40.1212936 183.598186,40.4769982 182.570338,40.4423517 C181.935151,40.3846074 181.320752,40.1998258 180.729451,39.9780878 Z M172.702999,38.2388307 C170.286979,39.9503706 168.095007,41.9552513 165.665128,43.6483131 C167.000175,43.689889 168.372179,43.7845896 169.67258,43.3965481 C172.774602,42.5604112 175.451626,40.650231 177.867646,38.5945353 C177.581234,38.6006947 177.291358,38.6187238 176.999706,38.6405276 L176.121117,38.7091684 C174.947069,38.7942021 173.771653,38.8101139 172.702999,38.2388307 Z M165.337141,36.021451 C162.694763,37.8115231 160.103201,39.6778177 157.444655,41.4447921 C158.8028,41.8097358 160.227928,41.7312036 161.588383,41.405526 C164.810513,40.6294431 167.736992,38.9433107 170.404777,37.0123426 C168.66552,36.9915546 166.935502,36.6797356 165.337141,36.021451 Z M227.844149,29.8451248 C228.761128,32.3327476 229.435581,34.9543371 230.863019,37.2156024 C231.75921,38.6938555 233.47075,39.573878 235.191529,39.5022751 C234.250297,36.8864601 232.935332,34.4310457 231.600852,31.9956815 L230.800655,30.5357462 C229.800525,30.3740622 228.807323,30.1615634 227.844149,29.8451248 Z M225.497422,30.8937606 C224.825279,31.080852 224.148516,31.2425359 223.462514,31.3441658 C223.892132,33.2866828 224.076913,35.3285199 224.968485,37.1324506 C225.513591,38.2665479 226.707742,38.8901859 227.899584,39.1096141 C227.12812,36.3632971 226.261956,33.6423874 225.497422,30.8937606 Z M233.036513,29.3970293 C234.558652,32.0093797 235.750493,34.9104514 237.972493,37.0308207 C239.353735,38.3912755 241.395572,38.7770072 243.261867,38.4929054 C241.804935,36.1049581 240.009054,33.9534548 238.188572,31.8302322 L237.095846,30.558027 L236.551984,29.9213472 C235.360142,29.9005593 234.182159,29.7180874 233.036513,29.3970293 Z M218.637404,31.443486 C218.739034,33.0603253 218.752892,34.7372186 219.351123,36.2662867 C219.78767,37.3842156 220.827066,38.074837 221.873392,38.557579 C221.471492,36.2039229 221.095,33.8433375 220.642285,31.4989205 C219.972451,31.4827521 219.302618,31.4758228 218.637404,31.443486 Z M185.787848,35.6518878 C184.554431,36.555008 183.327943,37.4719869 182.163819,38.4605686 C184.496687,38.8463003 186.757952,37.7191323 188.672752,36.5018833 C187.663382,36.4118022 186.672491,36.1461786 185.787848,35.6518878 Z M211.181465,33.4229593 C210.762242,33.6920475 210.351102,33.9726846 209.94285,34.2570751 L208.721559,35.1137112 C209.386773,36.0953637 210.32223,36.8437293 211.33391,37.4465794 C211.32929,36.102293 211.213802,34.7649359 211.181465,33.4229593 Z M215.801006,31.4180785 C215.063998,31.4633487 214.335854,31.6030778 213.634441,31.8338372 C213.609034,32.9355977 213.622892,34.0743145 214.038651,35.1137112 C214.426692,36.102293 215.278998,36.8506586 216.235243,37.2802759 C216.055081,35.3285199 215.923424,33.3721443 215.801006,31.4180785 Z M179.163427,33.7694248 C177.539658,34.7464577 176.01059,35.8759355 174.460734,36.9661471 C175.00122,37.0631575 175.555565,37.1717167 176.10991,37.0839454 C178.475115,36.8044632 180.678636,35.7535177 182.681207,34.5085514 C181.756144,34.5743798 180.881752,34.3244915 180.021001,34.0463446 L179.448782,33.8598815 C179.353614,33.8291581 179.258512,33.7988744 179.163427,33.7694248 Z M238.478332,28.7202666 C240.379273,30.7274571 242.072335,32.9471465 244.199634,34.7279796 C246.068238,36.2847649 248.655181,36.5157419 250.97419,36.1346298 C249.191048,33.948663 247.013211,32.1440855 244.823845,30.3732122 L243.729974,29.4889746 C243.548094,29.3415333 243.366576,29.1939235 243.185644,29.0459442 C241.62193,29.3577632 239.979683,29.2653724 238.478332,28.7202666 Z M157.39615,33.1042109 C155.460562,33.9126306 153.564241,34.8319192 151.600936,35.5756653 C151.242921,35.6426487 151.085857,35.9567775 151.025803,36.2824551 C154.349563,36.3632971 157.638676,35.4347693 160.648307,34.0743145 C159.514209,33.9472772 158.4009,33.6539363 157.39615,33.1042109 Z M127.30908,5.51169298 C126.181912,5.62256197 125.050124,5.58329587 123.922956,5.65258898 C117.356279,5.90435396 110.819629,6.57187763 104.278359,7.15855932 C95.9793533,7.85841977 87.6618699,8.419694 79.3328376,8.46819918 C71.5050255,8.47050895 63.580203,8.22798305 55.9510312,6.30856379 C56.6162451,6.85366962 57.4339038,7.14701047 58.2099867,7.49116627 C64.0883525,9.93721319 70.5095144,10.6278346 76.8151878,10.9673708 C84.520582,11.3022875 92.2352154,10.8726702 99.9175119,10.2675104 C108.784721,9.5376229 117.638071,8.45203078 126.549165,8.40583537 C128.722659,8.29265662 130.910012,8.32268364 133.085816,8.39197675 C142.754515,8.6067854 152.527154,9.50297634 161.780094,12.4710314 C166.367298,13.9816213 170.843634,16.0488658 174.592391,19.1393387 C176.329338,20.5413694 177.742918,22.2783168 179.265057,23.8997756 C180.722522,25.3133552 182.256209,26.6645709 183.976988,27.7524728 C186.785669,29.5679524 190.10019,30.7320767 193.472455,30.6396858 C192.160505,31.4319371 190.719208,31.9839723 189.236336,32.3535355 C191.733198,33.1042109 194.437939,32.459785 196.699204,31.2841118 C195.706003,32.3743235 194.435629,33.2427972 193.001262,33.6285288 C191.248146,34.129749 189.407259,33.8595059 187.642594,33.5754041 C188.169222,34.603252 189.367993,34.885044 190.409699,35.0605865 C192.9158,35.3031124 195.52815,35.1090917 197.833301,34.0234996 C199.870519,33.1319282 201.642113,31.7576148 203.621586,30.7597939 C204.552424,30.3001496 205.589511,29.8843909 206.647385,30.0714823 C203.938025,31.281802 201.649042,33.2797535 199.66264,35.4509377 C200.729754,34.8527072 201.725265,34.1182002 202.88015,33.6839633 C203.471451,33.4783937 204.099709,33.1665747 204.741825,33.3444271 C204.803859,33.7337884 204.58608,34.0462202 204.328113,34.3416284 L204.130847,34.5609286 C203.999304,34.7062489 203.872691,34.8510573 203.78096,35.0028423 C205.522527,34.6009422 207.077003,33.6793438 208.51599,32.6514959 C210.345328,31.4319371 212.061487,29.8589834 214.276557,29.3993391 C217.87056,28.7572229 221.651654,30.0368358 225.148647,28.7179568 C225.850817,28.5077677 226.412091,27.9857596 226.686954,27.3043773 C223.952186,28.0180964 221.148124,27.4545124 218.387949,27.2905187 C217.664991,27.0849491 216.916625,28.4500234 216.408475,27.5515227 C216.630213,27.0503025 217.256161,27.0895686 217.623415,26.7523422 C219.27952,25.4311535 221.307499,24.4102349 223.469444,24.4310228 C223.758935,24.4210138 224.049453,24.4746518 224.338602,24.5328238 L224.68477,24.6010233 C225.145044,24.6847691 225.59936,24.7195902 226.037909,24.4633596 C227.250538,23.9852371 228.705693,24.2624096 229.456369,25.3918874 C229.537211,24.6111849 229.795905,23.7681187 229.424032,23.0220629 C228.902024,21.9688075 227.749448,21.4745167 226.684644,21.1557683 C225.107071,20.7654171 223.441727,20.4512883 221.824887,20.7654171 C221.148124,20.897074 220.48984,20.5898746 219.813077,20.6037332 C219.672181,19.769906 219.325716,18.9961329 218.914576,18.2639357 C219.508187,18.6242599 220.009408,19.1093117 220.478291,19.619771 C220.228836,18.7974927 219.951663,17.8112207 219.07857,17.4508965 C214.867859,16.0696538 210.317611,16.9681545 206.074562,15.7509054 C206.227007,16.1666641 206.391001,16.580113 206.561924,16.9912522 C205.730407,16.9773936 204.901199,16.9750838 204.069682,16.9773936 C199.244571,17.0582355 194.659677,18.6889335 189.975462,19.6359394 C188.99381,19.8622969 187.98444,19.9177314 187.012027,20.1648768 C187.67955,20.6799556 188.467182,21.0356603 189.307939,21.1580781 C190.980212,21.3775063 192.677894,21.4329408 194.361716,21.2804959 C196.23263,21.3313109 198.262919,21.0356603 199.976768,21.9734271 C196.110213,22.0150029 192.338357,23.85589 188.457943,22.9158134 C189.148564,24.0152642 189.929267,25.4704196 191.400591,25.5189247 C192.705611,25.7037064 194.031419,25.6436523 195.341059,25.516615 C194.12381,26.1217748 192.758736,26.251122 191.472194,26.6276146 C192.158195,27.1842692 192.982783,27.5122566 193.765796,27.9072274 C192.804931,27.9072274 191.81404,27.8379343 190.934017,27.4175561 C189.571252,26.823945 188.529546,25.717565 187.573301,24.6158045 C185.887169,22.5832065 184.455111,20.3519682 182.734332,18.3447777 C179.978776,15.0233277 176.493332,12.2516032 172.465092,10.6370736 C168.686308,9.154201 164.734291,8.14714108 160.756866,7.35719958 C149.75081,5.20218374 138.47451,5.12134177 127.30908,5.51169298 Z M172.38656,31.5104693 C170.601108,32.5360074 168.845682,33.61698 167.108735,34.7187405 C170.321625,35.4440084 173.555304,34.1412979 176.391702,32.7300281 C174.994291,32.5891321 173.59457,32.2495959 172.38656,31.5104693 Z M149.74619,30.376372 C147.325551,31.6398165 144.897982,32.8963316 142.421908,34.0489071 C142.170143,34.1944226 141.772862,34.5108611 142.017698,34.8249899 C142.535087,34.9127612 143.061714,34.8596365 143.581413,34.7995825 C147.189274,34.3191502 150.683957,33.1504063 153.924565,31.5104693 C152.499437,31.3187584 150.977298,31.1963405 149.74619,30.376372 Z M249.810066,26.6507123 C248.391867,26.964841 246.920543,27.3113066 245.474627,26.9740801 C245.472317,27.0248951 245.465388,27.126525 245.463078,27.1773399 C245.830739,27.5091317 246.194084,27.8491954 246.557341,28.190994 L247.284988,28.8749671 C248.745054,30.2397919 250.248787,31.562643 252.066712,32.4251384 C253.842925,33.2982317 255.917099,33.4483667 257.836518,33.0048908 C255.369684,30.6466152 252.646464,28.5377947 249.810066,26.6507123 Z M183.937722,30.6974301 C183.05539,31.0300371 182.256209,31.5474256 181.459339,32.0417165 C183.25634,33.254346 185.457551,32.1664441 186.998168,31.0438957 C186.034994,30.6766422 184.956331,30.4040893 183.937722,30.6974301 Z M142.378022,27.045683 C139.245974,28.5470338 136.157811,30.1592536 132.94723,31.4943009 C132.482966,31.6305774 132.295874,32.0856022 132.24044,32.5244585 C133.566248,32.630708 134.889747,32.4413068 136.201696,32.2611447 C140.227626,31.5890015 144.198121,30.3809916 147.796744,28.4338551 C145.92583,28.4107574 143.950976,28.1358947 142.378022,27.045683 Z M165.494205,28.6994787 C163.406173,29.69268 161.429009,30.9053095 159.40334,32.0209286 C160.800752,32.6468764 162.389874,32.4875022 163.856578,32.2264982 C165.870698,31.8084297 167.822454,31.1062595 169.67027,30.2031392 C168.175849,30.0437651 166.762269,29.4848006 165.494205,28.6994787 Z M178.648348,28.3345349 C177.371045,28.9466241 176.022139,29.440915 174.851085,30.2493346 C177.292513,31.473513 180.008803,30.1569438 182.066808,28.7710815 L182.085286,28.5793706 C181.04589,28.0250257 179.73856,27.7848096 178.648348,28.3345349 Z M256.5084,23.9344222 C254.930827,24.4264033 253.251624,24.650451 251.623236,24.2901268 C253.637356,25.7314236 255.469004,27.4244854 257.584754,28.7225764 C259.601183,29.8243369 262.130382,30.4110186 264.336213,29.530996 C261.987176,27.327475 259.236239,25.6205546 256.5084,23.9344222 Z M158.620328,24.9461017 C156.278221,26.2649806 154.007717,27.699348 151.704875,29.0805908 C153.192368,29.8220271 154.908527,29.5286863 156.474551,29.2422747 C158.8028,28.7456741 161.084853,27.9603521 163.172886,26.8054669 C161.51678,26.6183755 159.899941,26.0316938 158.620328,24.9461017 Z M134.700345,23.3592893 L133.515233,23.9032704 L131.147918,24.9996541 C128.77912,26.0932877 126.39903,27.1619415 123.946054,28.0550527 C123.437905,28.1936389 123.105298,28.6694516 123.128395,29.1937695 C125.184091,29.3138776 127.242097,29.0413247 129.253907,28.6394246 C133.185136,27.7963584 137.088648,26.6022071 140.643385,24.701266 C138.615406,24.6781683 136.474249,24.4009958 134.700345,23.3592893 Z M173.29661,24.9206942 C171.541184,25.6759891 169.778829,26.422045 168.108865,27.3528825 C168.931144,27.8263854 169.857362,28.1405142 170.813607,28.1266556 C173.368213,28.1890194 175.7057,26.9671508 177.913841,25.8261242 C176.703521,24.7289832 174.825678,24.1908067 173.29661,24.9206942 Z M232.047931,23.0590192 C234.396968,25.4427023 237.572902,27.7663314 241.1184,27.0803296 C240.025878,25.8977271 238.880232,24.7543907 237.667603,23.6965158 C236.032285,22.5601088 233.909606,22.8742376 232.047931,23.0590192 Z M263.375348,21.5484293 C261.774677,21.883346 260.125501,22.2367409 258.487874,21.8856558 C259.409472,22.5832065 260.428081,23.1375514 261.395875,23.765809 C262.696276,24.5534407 263.945861,25.4588707 265.389468,25.9739495 C267.091769,26.6091364 268.999639,27.0272048 270.782782,26.4636209 C270.787401,26.4128059 270.80126,26.3088662 270.808189,26.2557415 C268.58388,24.3247734 265.948432,22.9527697 263.375348,21.5484293 Z M151.637892,21.1326706 C149.122552,22.5993749 146.664956,24.1584699 144.161165,25.6390328 C144.703961,25.8538414 145.258306,26.0848185 145.851917,26.110226 C149.566028,26.392018 153.116145,24.8375424 156.273601,23.0382313 C154.587469,22.8673082 152.933673,22.2390507 151.637892,21.1326706 Z M127.038837,19.6544175 C123.137634,21.571527 119.146351,23.3408112 114.958737,24.5418918 C114.365126,24.641212 114.041758,25.1632201 113.912411,25.7083259 C115.540799,25.96933 117.192285,25.6898477 118.816054,25.5143052 C123.636545,24.7659396 128.41315,23.4147238 132.753209,21.1626976 C130.787594,21.1719367 128.637198,20.8901447 127.038837,19.6544175 Z M238.014068,20.7838953 C240.41623,22.8811669 243.199503,25.2602304 246.613344,24.9645798 C246.878967,24.8698792 247.474888,25.0546609 247.488747,24.6458315 C246.313074,23.3893164 245.021912,22.2390507 243.691484,21.148839 C242.058476,19.9177314 239.852646,20.3150119 238.014068,20.7838953 Z M168.046502,20.3357998 C165.739041,21.2828057 163.350738,22.1374208 161.260396,23.5117342 C162.904952,24.9299333 165.325592,24.8236838 167.293516,24.2554803 C169.37462,23.403175 171.407218,22.4238323 173.414408,21.4098431 C171.938465,20.2457188 169.852742,19.5135215 168.046502,20.3357998 Z M216.521654,20.2688165 C217.46635,20.3357998 217.588768,21.4121528 217.422465,22.1443501 C217.138363,22.135111 216.856571,22.1235622 216.579398,22.1120133 C215.796386,23.1121439 214.925603,24.167709 213.629822,24.479528 C213.636751,24.1353722 214.101015,23.4586095 213.523572,23.3292623 C212.784446,23.202225 211.971406,23.2876865 211.290024,23.5833371 C211.467876,23.232252 211.906733,23.1491002 212.202383,22.9158134 C212.826021,22.5832065 213.024662,21.8556288 213.237161,21.2366103 C212.895315,20.1856647 211.678066,20.1186814 210.763396,19.991644 C212.678196,19.7652865 214.629952,19.93159 216.521654,20.2688165 Z M269.861184,19.1254801 C268.29054,19.4465382 266.652912,19.8877043 265.038383,19.5458583 C266.359571,20.4050929 267.793939,21.0726166 269.172872,21.8325311 C271.718239,23.1675784 274.764826,24.086867 277.603534,23.1860566 C275.164416,21.5853856 272.50818,20.3381096 269.861184,19.1254801 Z M244.007923,18.3609461 C245.809544,19.6544175 247.629643,20.9640574 249.678409,21.8486995 C251.28139,22.5439404 253.138445,22.7633686 254.813029,22.1836162 C253.434096,20.9594378 251.958153,19.8438187 250.459112,18.7767048 C248.507356,17.6402977 246.119053,17.8643454 244.007923,18.3609461 Z M145.126649,17.4185597 C142.250985,18.8552369 139.412277,20.3635171 136.552781,21.8325311 C137.843943,22.557799 139.37994,22.476957 140.807378,22.3753271 C144.047986,21.9919052 147.085335,20.696124 149.997955,19.2848543 C148.23791,19.1370289 146.466316,18.6196404 145.126649,17.4185597 Z M120.356671,16.3606848 C116.078976,18.3609461 111.618809,19.9685463 107.031605,21.0910948 C106.463401,21.1834856 105.97604,21.511473 105.705797,22.0265518 C106.839894,22.2713875 108.006328,22.1420403 109.156594,22.0889156 C114.621511,21.6639178 119.933983,20.0124319 124.881511,17.6911126 C123.308557,17.677254 121.585469,17.4231793 120.356671,16.3606848 Z M277.522692,17.5894827 C275.968217,18.1392081 274.293633,18.1923328 272.674484,17.9752144 C274.208172,18.7859438 275.82963,19.4165112 277.388725,20.1787354 C280.028793,21.2758764 283.019946,21.7840259 285.837866,21.1280511 C284.144515,20.3023081 282.40515,19.5794222 280.660371,18.8702956 L278.566636,18.0202459 L277.522692,17.5894827 Z M217.902897,19.3010226 C218.436454,19.589744 218.752892,20.0840348 218.824495,20.6799556 C218.630475,20.7723464 218.438764,20.8647372 218.251672,20.9594378 C218.339444,20.3750659 218.129254,19.8253405 217.902897,19.3010226 Z M271.524218,5.42854125 C264.86284,5.53941023 258.171435,5.86739763 251.616307,7.14932024 C245.564708,8.278798 239.845716,10.6301443 234.089768,12.736655 C229.867508,14.2726523 225.672965,15.9449262 221.29826,16.9958717 C221.605459,17.5455971 221.868773,18.1207299 222.088201,18.7143409 C224.846067,18.9314594 227.858008,19.116241 230.096175,20.9455792 C234.380379,19.7134217 238.568719,18.1828456 242.745953,16.6321688 L245.530061,15.5984606 C250.412916,13.9885506 255.344276,12.4710314 260.402673,11.5170962 C266.07547,10.3899282 271.842967,9.83096375 277.612773,9.54917175 C283.99956,9.25691785 290.384405,9.40358428 296.769707,9.59880384 L301.026669,9.73185941 C305.283751,9.8635403 309.541274,9.97824558 313.799947,9.96031089 C319.371113,9.99726722 324.951519,9.88408847 330.501897,9.32974356 C335.442496,8.79387681 340.484725,8.03858187 344.991087,5.82582177 C342.528872,6.19538504 340.082825,6.70815408 337.599822,6.9414409 C328.185197,7.90923472 318.694351,7.60203525 309.258938,7.13084208 C305.330019,6.93682136 301.403409,6.68967592 297.479109,6.43791094 C288.835948,5.89973442 280.185857,5.40775331 271.524218,5.42854125 Z M159.733638,17.2360879 L158.454861,17.7544206 C156.962911,18.3629422 155.47981,19.0004958 154.100107,19.8322699 C155.795479,21.2273712 158.188401,20.9802258 160.193282,20.5644671 C162.738649,19.8022428 165.191625,18.753607 167.651531,17.7511667 C166.261049,17.0374476 164.764318,16.4530757 163.193674,16.3398969 C161.964876,16.2290279 160.851567,16.8364976 159.733638,17.2360879 Z M250.47297,16.2775331 C251.944294,17.1760338 253.383281,18.129969 254.882322,18.9868939 C256.764785,19.9847147 259.076865,20.6730263 261.13949,19.7976233 C259.843709,18.6311892 258.372385,17.6841833 256.940328,16.6956016 C255.050935,15.4067496 252.549454,15.5615043 250.47297,16.2775331 Z M283.87918,15.6585146 C282.47715,16.0858222 281.003516,16.3144894 279.541432,16.1435664 C282.384759,17.2892126 285.315858,18.3332288 288.373994,18.7212703 C290.300342,18.9383887 292.328321,19.086214 294.192306,18.4348587 C291.108762,17.5779339 288.01367,16.7695142 284.957843,15.8178888 C284.913091,15.808361 284.86834,15.7967039 284.823579,15.7838513 L284.554833,15.6998604 C284.330668,15.6303643 284.105827,15.5776727 283.87918,15.6585146 Z M137.982529,13.8892305 C135.035262,15.2889514 132.13881,16.7949217 129.22388,18.2546966 C131.325771,19.2825445 133.757959,18.8829542 135.952241,18.4025219 C138.301277,17.7950523 140.622597,16.9843229 142.749895,15.8040302 C140.98985,15.7347371 139.308337,15.0394961 137.982529,13.8892305 Z M114.251947,13.3626028 C107.629836,15.4945209 100.804464,17.023589 93.8728426,17.6795638 C93.4178179,17.6310586 92.8704023,18.2246696 93.2769219,18.6057817 C94.2447157,18.7882536 95.237917,18.6981726 96.2149499,18.7882536 C101.95011,18.7489875 107.627526,17.7234494 113.184833,16.3653044 C115.021101,15.8687037 116.875847,15.4021301 118.635892,14.6722426 C117.455599,14.4897708 116.217562,14.3211575 115.196644,13.6513241 C114.898683,13.5104281 114.609962,13.1385551 114.251947,13.3626028 Z M256.907991,14.4736024 C259.407162,16.2036205 262.259729,17.5548362 265.317865,17.8551063 C266.103187,17.9752144 266.890819,17.7996718 267.662282,17.647227 C266.294898,16.6055205 264.735803,15.8479158 263.239072,15.0140887 C261.351989,13.8522741 258.986784,14.0116483 256.907991,14.4736024 Z M154.624425,13.7367856 C152.273079,14.3373259 149.970238,15.141126 147.764407,16.1528055 C149.04402,17.5848632 151.171319,17.4647551 152.899027,17.1875827 C155.432845,16.5431567 157.772642,15.3235979 160.154016,14.2726523 C158.363944,13.7714322 156.476861,13.4850206 154.624425,13.7367856 Z M292.571889,14.1185687 L292.081175,14.1178977 C290.619091,14.1479247 289.11312,14.0024092 287.70416,14.4597438 C289.508091,15.0926209 291.395174,15.4390864 293.268397,15.8086497 C297.146502,16.520059 301.063873,17.0189694 304.999722,17.2591856 C307.33028,17.3377178 309.718583,17.4601356 311.984467,16.7879924 C310.760289,16.4253584 309.469127,16.5385372 308.219542,16.3699239 C304.745647,16.097371 301.276372,15.7093296 297.853292,15.0487352 C296.249926,14.7869612 294.678641,14.2765661 293.059235,14.1457861 L292.571889,14.1185687 Z M263.419234,13.129316 C266.179409,14.7369162 269.219067,15.9888118 272.41348,16.3606848 C273.293502,16.4276682 274.235889,16.5269883 275.067406,16.148186 C273.071764,15.0903111 271.029927,14.1271368 268.951134,13.2517338 C267.186469,12.5287756 265.239333,12.8429044 263.419234,13.129316 Z M130.970066,11.8566324 C128.272254,12.7620625 125.756914,14.1109684 123.172281,15.2866416 C124.167792,15.614629 125.221047,15.7786227 126.267373,15.6631342 C128.58133,15.4491917 130.745856,14.5948292 132.881124,13.714545 L133.864993,13.308657 L134.35619,13.108528 C133.136631,13.048474 131.847779,12.7689918 130.970066,11.8566324 Z M115.903433,10.9488927 C111.015959,11.267641 106.144653,11.7850296 101.261798,12.1661417 C92.902739,12.9121975 84.5044136,13.2078482 76.1153273,13.0115177 C72.9370832,13.0115177 69.7657683,12.7482038 66.6129316,12.3717113 C69.8027246,13.7460247 73.2858585,14.2703426 76.7204872,14.6306668 C82.6727657,15.2034898 88.66662,14.9471053 94.614279,14.4435754 C100.74672,13.8707523 106.858372,13.0022786 112.884563,11.7157364 C113.893933,11.4801399 114.92871,11.3161462 115.903433,10.9488927 Z M271.046096,12.0899193 C272.71606,12.8960292 274.446078,13.5935798 276.245389,14.0509144 C277.859919,14.3742822 279.569149,14.7322967 281.185988,14.235696 L281.202156,14.1017293 C279.813984,13.441135 278.365758,12.9098878 276.933701,12.3578526 C275.065096,11.5910088 272.993232,11.8497031 271.046096,12.0899193 Z M146.35151,11.4442443 L145.847298,11.4639715 C143.870134,11.7827198 141.959954,12.404048 140.068252,13.0461642 C141.234686,13.8245569 142.60438,14.316538 144.01565,14.3303966 C146.944439,14.4389558 149.630702,13.1039085 152.340062,12.1938589 C150.520496,11.9241488 148.697623,11.4907183 146.85465,11.4462986 L146.35151,11.4442443 Z M291.305092,11.519406 C295.523153,12.8687319 299.957684,13.2176599 304.364523,13.5301818 L305.832108,13.6343297 C306.320738,13.6694777 306.808692,13.7054987 307.295633,13.7437149 C313.291798,14.0370558 319.324918,14.1779518 325.300294,13.4896402 C327.7602,13.1385551 330.312496,12.8082579 332.543734,11.6418238 C327.476098,12.3578526 322.348408,12.2677716 317.246125,12.2723911 C313.790708,12.1107072 310.328362,12.1338049 306.875255,11.9189962 C301.685201,11.8404641 296.492837,11.5771502 291.305092,11.519406 Z M279.294286,11.5378841 C281.511666,12.4132871 283.920756,12.6927694 286.283652,12.8960292 C287.542476,12.9052682 288.923719,13.108528 290.069365,12.454863 C289.468825,12.2723911 288.868285,12.1153267 288.265435,11.9651917 C285.343575,11.1729404 282.280819,11.3762002 279.294286,11.5378841 Z M121.516176,11.2098967 C120.26428,11.549433 118.980048,11.8289152 117.806684,12.394809 C119.850831,13.2725217 122.144433,12.8821705 124.213987,12.3047279 C125.726887,11.8289152 127.281363,11.3346243 128.563285,10.3645207 C126.188841,10.2628908 123.821326,10.6694104 121.516176,11.2098967 Z M132.981876,10.9835392 C133.734861,11.6372043 134.748851,11.8219859 135.714335,11.891279 C137.492858,11.8774204 139.271381,11.4662812 140.913628,10.7918283 C138.27587,10.6925081 135.550341,10.110446 132.981876,10.9835392 Z M80.908101,69.5870354 C85.4514195,72.3356622 89.0177051,76.6918893 90.6969083,81.7387378 C92.1312757,85.9910252 92.0642924,90.622115 91.1034279,94.9667932 C90.0478628,99.7549474 87.4932566,104.249761 83.7190917,107.409527 C80.4784837,110.158154 76.4109779,111.848906 72.2164348,112.437897 C68.0288209,113.01534 63.6772134,112.691972 59.6974789,111.220648 C55.3320127,109.633836 51.4793156,106.640373 48.9131606,102.762269 C45.8827417,98.269765 44.5800312,92.735555 44.8502743,87.3560996 C45.1135882,82.0251493 47.4972713,76.8789807 51.2598874,73.1140549 C55.0017155,69.3052434 60.0901399,66.8822942 65.3864435,66.2632757 C70.7358719,65.6049911 76.3070383,66.7691154 80.908101,69.5870354 Z M74.78028,78.2879407 C72.1956468,76.7196066 69.0405004,76.1052076 66.065516,76.6711014 C61.880212,77.4749015 58.1661011,80.4498859 56.5284738,84.3926641 C55.530653,86.7001247 55.4705989,89.3147849 55.983368,91.7469732 C56.7571411,95.5765726 59.1824001,99.1266898 62.6817023,100.946789 C65.4257096,102.434281 68.7633279,102.757649 71.7475514,101.856839 C74.558542,101.050729 76.9768717,99.1359289 78.5914013,96.719909 C80.3214193,94.0983195 81.1390781,90.9015972 80.9358183,87.7718582 C80.6032113,83.8452485 78.1248276,80.2882019 74.78028,78.2879407 Z M166.265668,68.3697864 C170.162251,70.1921953 173.564543,73.0955767 175.902031,76.714987 C178.218731,80.2535554 179.489104,84.4873646 179.419811,88.7234837 C179.442909,93.6386752 178.114791,98.6023719 175.377713,102.709144 C173.234246,105.917415 170.252332,108.575961 166.776128,110.266713 C162.415281,112.444826 157.386911,113.093872 152.575659,112.497951 C148.002313,111.932057 143.574483,110.024187 140.142165,106.929094 C136.585118,103.776258 134.166788,99.4385089 133.111223,94.8212777 C132.318972,91.2342042 132.131881,87.4669685 132.9403,83.8683462 C134.028202,78.9161983 136.936203,74.421385 140.909008,71.2870265 C144.343637,68.5291605 148.572827,66.7945229 152.942912,66.270205 C157.460823,65.7089308 162.145038,66.4226499 166.265668,68.3697864 Z M162.235119,78.144735 C159.662035,76.654933 156.548464,76.1167565 153.626605,76.6872698 C147.787505,77.7774815 142.874623,83.3555771 143.315789,89.4210344 C143.493641,93.3684321 145.311431,97.2950419 148.452719,99.7457083 C151.134362,101.884556 154.758392,102.806154 158.130657,102.14787 C161.124119,101.614313 163.854268,99.8681262 165.676677,97.4474867 C167.866339,94.5926104 168.847992,90.8784995 168.492287,87.3122139 C168.046502,83.477995 165.565808,80.0318174 162.235119,78.144735 Z M223.499471,67.3350092 C230.595086,64.8473864 238.868683,66.0784941 244.876396,70.6148832 C245.85112,71.3309121 246.745001,72.1485708 247.613474,72.9916371 C245.091205,75.4954282 242.617441,78.0500344 240.053596,80.5099399 C237.69301,78.0523441 234.288409,76.6179767 230.879187,76.7103675 C228.003523,76.7219164 225.169435,77.8259866 222.984392,79.6807323 C219.771501,82.350827 218.018385,86.6862661 218.547323,90.8369236 C218.928435,94.3038891 220.831686,97.565285 223.647296,99.6186709 C226.342798,101.618932 229.865198,102.471237 233.175099,101.886866 C237.233366,101.217032 240.81813,98.4129708 242.52274,94.6803817 C238.561484,94.6757622 234.600228,94.6780719 230.638971,94.6803817 C230.634352,91.3081168 230.638971,87.9381617 230.636662,84.5658968 L254.254064,84.5658968 C254.161674,87.4230829 254.50352,90.3010569 254.004609,93.1328355 C253.223907,98.0133805 250.847153,102.632921 247.287797,106.06524 C243.047058,110.29443 237.09247,112.721999 231.105545,112.698901 C225.109381,112.745096 219.152483,110.319838 214.890956,106.104506 C212.195454,103.508324 210.183644,100.22845 209.005661,96.6806429 C207.398061,91.7215657 207.476593,86.2173827 209.273595,81.3206693 C211.613392,74.8486925 216.978989,69.5477693 223.499471,67.3350092 L223.499471,67.3350092 Z M0.0130101144,112.112219 C-0.0054680493,96.9046907 -0.00315827884,81.6971619 0.0130101144,66.4915706 C3.51693191,66.4965625 7.01854393,66.4873234 10.5224657,66.4942527 C13.5575041,71.1161034 16.5763741,75.7471932 19.6206516,80.3598048 C22.664929,75.7379541 25.6861088,71.1022448 28.7465547,66.4915706 C32.2343081,66.4942527 35.7220615,66.4896332 39.2121246,66.4942527 C39.2147917,81.6994717 39.2167442,96.9046907 39.2121246,112.10991 L28.531746,112.10991 C28.5155776,103.141071 28.5640828,94.1722322 28.5086483,85.2033935 C25.5544519,89.8529614 22.5702285,94.4840512 19.6298907,99.1428582 C16.6294988,94.5302466 13.7214978,89.8598907 10.7418939,85.2357303 C10.6356445,94.1907104 10.7257255,103.15031 10.6956985,112.1076 C7.13403245,112.114529 3.57467617,112.10298 0.0130101144,112.112219 L0.0130101144,112.112219 Z M94.0160484,76.9436543 C94.0068093,73.4582107 94.0021898,69.9750768 94.0183582,66.4896332 C105.564901,66.491943 117.109133,66.4942527 128.653366,66.4896332 C128.683393,69.9681475 128.641817,73.4489716 128.676464,76.9297957 C124.745235,76.9621325 120.814005,76.9344152 116.882776,76.9436543 C116.875847,88.6680492 116.898944,100.390134 116.871227,112.114529 C113.180214,112.10529 109.486891,112.10991 105.795878,112.112219 C105.782019,100.387825 105.793568,88.6657394 105.788948,76.9436543 L94.0160484,76.9436543 Z M261.298864,66.4942527 C264.996807,66.491943 268.694749,66.491943 272.392692,66.4942527 C272.395002,77.1353653 272.385763,87.7787876 272.397311,98.4199001 C272.334948,100.071386 273.81782,101.528851 275.464687,101.471107 C278.536681,101.482656 281.613296,101.482656 284.6876,101.473417 C286.253624,101.54271 287.757285,100.239999 287.796555,98.6508771 C287.81041,87.9312324 287.787312,77.2115877 287.8081,66.491943 C291.524521,66.4965625 295.240941,66.4850137 298.957362,66.4965625 C298.955052,77.5234067 298.952742,88.5502509 298.959672,99.5747853 C299.054372,103.245011 297.36824,106.903687 294.538771,109.236555 C292.381446,111.072823 289.568145,112.077573 286.740986,112.100671 C283.511927,112.121458 280.280558,112.10298 277.049189,112.10991 C274.32366,112.093741 271.471094,112.327028 268.911868,111.186001 C264.537163,109.442125 261.388945,104.986578 261.296555,100.267716 C261.303484,89.0098952 261.296555,77.752074 261.298864,66.4942527 L261.298864,66.4942527 Z M307.321041,66.4942527 C318.176962,66.4896332 329.032883,66.4915856 339.888804,66.4942527 C339.884185,70.0974947 339.895734,73.7053561 339.884185,77.3109078 C333.608539,85.3373602 327.411424,93.4261763 321.161185,101.473417 C327.404495,101.482656 333.645495,101.478036 339.888804,101.475726 L339.888804,112.10991 C328.956661,112.1076 318.022207,112.10991 307.090064,112.10991 L307.090064,101.168527 C313.2687,93.0958792 319.449646,85.0232314 325.619042,76.9436543 L307.321041,76.9436543 L307.321041,66.4942527 Z M348.307918,76.936725 C348.331015,73.4535911 348.300988,69.9727671 348.324086,66.491943 C359.177698,66.4942527 370.033619,66.4896332 380.88954,66.4942527 C380.877991,70.0651579 380.917257,73.636063 380.871062,77.2046584 C378.757622,80.1080398 376.480188,82.9005523 374.309004,85.7646677 C370.271525,91.0032271 366.210949,96.2233084 362.189638,101.473417 C368.423709,101.484965 374.655469,101.468797 380.88954,101.482656 C380.88492,105.025844 380.901089,108.569031 380.882611,112.112219 C369.952777,112.1076 359.022943,112.1076 348.095419,112.112219 C348.067702,108.705308 348.097729,105.298397 348.07925,101.891485 C348.08618,101.531161 348.033055,101.122332 348.319467,100.845159 C354.414951,92.8810705 360.498886,84.9077429 366.605919,76.9482739 C360.505816,76.9321055 354.408022,76.9552032 348.307918,76.936725 L348.307918,76.936725 Z M389.086915,66.491943 C392.724804,66.4942527 396.360382,66.4896332 399.998271,66.4942527 C400.000581,81.6994717 400.000581,96.9046907 399.998271,112.1076 C396.360382,112.112219 392.724804,112.1076 389.086915,112.10991 L389.086915,66.491943 Z" id="moto-guzzi" fill="#FFFFFF"></path>
</svg>