<?xml version="1.0" encoding="UTF-8"?>
<svg width="400px" height="263px" viewBox="0 0 400 263" version="1.1" xmlns="http://www.w3.org/2000/svg">
    <title>mv-agusta</title>
    <path d="M311.247726,149.505443 L312.647509,149.66298 L312.822795,170.731746 L296.370958,172.489759 L296.370958,172.32994 C295.521391,178.3256 293.934672,184.215077 291.640742,189.887245 L305.295517,198.346259 L294.442813,217.020017 L279.037683,211.593006 C273.900931,218.193685 267.772843,224.103847 260.832987,229.150311 L267.483836,242.716697 L247.523776,253.410899 L237.898074,241.597961 C230.370796,244.632247 222.315155,246.547796 213.91395,247.664249 L212.163595,262.506907 L188.883119,262.506907 L186.957478,247.664249 C178.556273,246.547796 170.503136,244.632247 162.975858,241.597961 L153.347652,253.410899 L133.390096,242.716697 L139.865659,229.150311 C134.594412,225.142525 129.731689,220.708105 125.336959,215.901281 L130.412739,200.738984 C145.116725,221.967569 171.023986,236.01113 200.434462,236.01113 C246.123993,236.01113 283.409816,202.015256 283.409816,160.197363 C283.409816,158.601452 283.409816,156.843438 283.23453,155.24981 L311.247726,149.505443 Z M199.911108,90.2900643 L211.818031,222.924203 L192.912191,228.351214 L185.382408,145.514524 L154.574653,191.161234 L139.344809,167.859562 L110.808259,252.771621 L88.2264226,259.317368 L135.140451,120.454839 L156.149722,155.089991 L199.911108,90.2900643 Z M310.724372,50.7073597 L227.571229,217.017734 L216.019886,78.1597702 L235.098508,72.7327592 L241.401289,148.388991 L286.216895,57.7302817 L310.724372,50.7073597 Z M88.2264226,151.57853 L117.461613,158.441632 L117.461613,160.199646 C117.461613,162.115196 117.461613,164.030746 117.636898,165.946296 L102.582341,210.47427 L95.5809196,198.346259 L109.186003,189.917091 L108.86021,189.079239 C106.769602,183.596872 105.310777,177.929941 104.507982,172.170121 L104.507982,172.489759 L88.0536407,170.731746 L88.2264226,151.57853 Z M183.804835,151.101354 L188.357261,199.939887 L161.398284,184.61777 L183.804835,151.101354 Z M218.644167,133.703869 L223.54466,193.398706 L210.41324,184.779873 L206.564462,140.88661 L218.644167,133.703869 Z M400.000003,128.756316 L259.082632,158.284096 L273.9594,128.756316 L400.000003,128.756316 Z M130.242461,128.756316 L120.614255,157.16536 L3.25140354e-06,128.756316 L130.242461,128.756316 Z M143.54416,130.512047 L163.849783,140.407152 L156.322504,151.420993 L143.54416,130.512047 Z M248.928568,128.756316 L242.801072,141.206249 L241.749357,128.756316 L248.928568,128.756316 Z M294.442813,103.696631 L305.295517,122.370389 L297.768238,126.840766 L274.835829,126.840766 L284.812103,107.048272 L294.442813,103.696631 Z M212.163595,58.2051737 L213.916454,72.7327592 C216.893811,73.2122175 219.868664,73.6893926 222.670735,74.3286703 L213.916454,76.8812148 L214.615094,85.6598673 C210.067676,84.8607702 205.33746,84.5434145 200.436966,84.5434145 C167.876352,84.5434145 139.517591,101.781081 125.862817,126.838483 L102.930408,126.838483 L95.5784155,122.368105 L106.431119,103.694348 L121.660963,108.961539 C126.736743,102.418075 133.039524,96.5116061 139.865659,91.404234 L133.390096,77.9953845 L153.347652,67.301182 L162.800572,78.7944816 C170.551671,75.8824248 178.664142,73.8452191 186.957478,72.7281929 L188.883119,58.2051737 L212.163595,58.2051737 Z M247.52628,67.3057483 L267.48634,77.9999507 L261.005769,91.4088003 C262.605382,92.5451851 264.125802,93.7713196 265.558195,95.0800807 L259.605986,107.210375 C253.47849,101.623544 246.479573,96.8358112 238.777008,93.1645308 L237.547503,78.7990479 L237.900579,78.7990479 L247.52628,67.3057483 Z M200.436966,0.750091475 C207.087815,0.750091475 213.738664,1.06744719 220.04395,1.8665443 L220.04395,12.2411079 C231.42882,13.5026969 242.635785,15.8567188 253.47849,19.26403 L258.55427,9.84609973 C271.208939,13.9543421 283.309073,19.3637211 294.620603,25.9695963 L271.863481,67.4678508 L269.236696,72.0957647 C249.804998,59.4860123 225.998664,51.9836319 200.43947,51.9836319 C175.680927,51.9477133 151.542288,59.041586 131.466959,72.2533009 L106.083051,26.1271326 C117.349864,19.5526205 129.386411,14.1453999 141.96909,10.0059192 L147.04487,19.26403 C157.724792,16.0722078 168.752781,13.6794827 180.131342,12.4009274 L180.131342,1.8665443 C186.782192,1.22954974 193.608327,0.750091475 200.436966,0.750091475 Z M205.33746,5.37800531 L195.361186,5.37800531 L194.835328,5.53782474 L191.68519,5.53782474 L191.159332,5.69764416 L188.535051,5.69764416 L188.009193,5.85746358 L186.784696,5.85746358 L186.083552,6.01499987 L185.036845,6.01499987 L185.036845,16.3895635 L179.610493,17.0288412 L177.51207,17.34848 L176.63564,17.34848 L174.537217,17.6681189 L173.488006,17.8279383 L172.438794,17.9877577 L171.562364,18.1475771 L170.513153,18.3073966 L169.463941,18.6270354 L167.365518,18.9466743 L166.489089,19.1064937 L165.439877,19.2663131 L164.390666,19.5859519 L163.51674,19.7457714 L162.467528,20.0654102 L161.415813,20.2229465 L160.539383,20.3827659 L159.490172,20.7024048 L158.44096,20.8622242 L157.56453,21.181863 L156.515319,21.5015019 L155.638889,21.6613213 L154.589678,21.9809601 L153.540466,22.300599 L152.664036,22.4604184 L151.612321,22.7800573 L150.738395,23.0996961 L149.689184,23.4193349 L144.613404,25.015246 L139.537624,15.7571352 L139.187052,15.9169546 L137.962555,16.2365935 L136.910839,16.7137686 L135.686342,17.1932269 L134.63713,17.5128657 L133.412633,17.9900409 L132.363421,18.4694991 L131.138924,18.9466743 L130.087208,19.2663131 L129.037996,19.7434882 L127.813499,20.2206634 L126.764287,20.7001216 L125.715076,21.1795799 L124.66336,21.8188576 L123.614149,22.2960327 L122.389651,22.7732078 L121.34044,23.2526661 L120.291228,23.7298412 L119.239513,24.3691189 L118.190301,24.8462941 L117.14109,25.3257523 L116.091878,25.96503 L115.042667,26.4422052 L113.993455,27.0814828 L112.944244,27.5609411 L112.593672,27.7207605 L133.425153,65.5477346 L134.301583,64.9107401 L136.40251,63.7920041 L138.328151,62.6755513 L140.429078,61.5590985 L142.530005,60.6024651 L144.630932,59.6458317 L146.73186,58.6891983 L150.933714,56.7759315 L153.209927,55.9768344 L155.310854,55.1777373 L157.587067,54.3809233 L159.86328,53.7416456 L162.139493,52.9425485 L164.415706,52.3055539 L166.691919,51.6662762 L168.968133,51.1891011 L171.244346,50.5498234 L173.695845,50.0726483 L175.972058,49.59319 L178.423557,49.2735512 L180.69977,48.7940929 L183.151269,48.4744541 L185.602768,48.1548152 L188.054267,47.9949958 L190.505766,47.675357 L192.957265,47.5155375 L195.408764,47.5155375 L198.033045,47.3557181 L202.933539,47.3557181 L205.385038,47.5155375 L208.011823,47.5155375 L210.463322,47.675357 L212.914821,47.9949958 L215.368824,48.1548152 L217.642533,48.4744541 L220.094032,48.7940929 L222.545531,49.1137318 L224.81924,49.59319 L227.270739,50.0726483 L229.549456,50.5498234 L231.823165,51.0292817 L234.274664,51.6662762 L236.553381,52.3055539 L238.82709,52.9425485 L241.100799,53.5818262 L243.20423,54.3809233 L245.477939,55.1777373 L247.576362,55.9768344 L249.855079,56.7759315 L251.953502,57.7325649 L254.056934,58.531662 L256.155357,59.4882954 L258.258788,60.4449288 L260.357211,61.5613816 L262.460642,62.518015 L264.388787,63.636751 L266.487211,64.7532038 L267.36364,65.3901983 L270.513779,59.3261928 L270.689065,59.4860123 L288.192617,27.7230437 L287.84455,27.5632242 L286.792834,26.9239466 L285.741118,26.4444883 L284.689403,25.8074937 L283.642695,25.3280355 L282.59098,24.6910409 L281.539264,24.2115826 L280.487549,23.7321244 L279.440841,23.0951298 L278.21384,22.6156716 L277.162124,22.1384964 L276.115417,21.6590382 L275.063701,21.181863 L274.011985,20.7024048 L272.789992,20.2229465 L271.738276,19.7457714 L270.686561,19.2685962 L269.464567,18.789138 L268.412852,18.3119628 L267.361136,17.8325046 L266.134135,17.5128657 L265.087427,17.0334075 L263.860426,16.5562323 L262.80871,16.2365935 L261.586717,15.7571352 L261.233641,15.5973158 L256.157861,24.8554266 L250.904291,23.2595155 L250.027861,22.9398767 L248.981154,22.7800573 L247.929438,22.4604184 L247.053008,22.1407796 L246.001293,21.8211407 L245.124863,21.6613213 L244.078156,21.3416825 L243.02644,21.0220436 L242.15001,20.8645073 L241.098295,20.5448685 L240.046579,20.3850491 L238.999872,20.0654102 L238.123442,19.9055908 L237.071726,19.7457714 L236.020011,19.4261325 L234.968295,19.2663131 L234.091866,19.1064937 L233.045158,18.7868548 L231.993443,18.6270354 L230.941727,18.467216 L229.890011,18.3073966 L228.843304,18.1475771 L227.966874,17.9877577 L226.915159,17.8279383 L225.863443,17.6681189 L224.811727,17.5082995 L223.76502,17.34848 L220.609873,16.8690218 L215.186025,16.2320272 L215.186025,6.01499987 L214.79038,6.01499987 L214.267026,5.85746358 L213.040025,5.85746358 L212.516671,5.69764416 L210.067676,5.69764416 L209.539314,5.53782474 L205.865822,5.53782474 L205.33746,5.37800531 Z M139.169524,34.903502 L153.873509,49.1091655 L150.197513,50.5452571 L148.271872,48.7895266 L139.868163,52.4608071 L140.218735,55.0156347 L136.542739,56.4517264 L133.915954,37.2985102 L139.169524,34.903502 Z M261.005769,34.5861463 L266.259339,36.8213351 L263.98563,56.1343707 L260.307129,54.698279 L260.660205,52.1434514 L252.081211,48.4721709 L250.153065,50.3877209 L246.479573,48.9516292 L261.005769,34.5861463 Z M137.945026,38.7346019 L139.344809,48.9516292 L145.647591,46.2369822 L137.945026,38.7346019 Z M262.408056,38.414963 L254.705492,45.9173433 L261.003265,48.6319904 L262.408056,38.414963 Z M235.62687,26.7664103 L251.380067,30.9148658 L250.328351,34.4263269 L244.376142,32.9902352 L239.999002,46.8762598 L235.974937,45.9196264 L240.352078,31.8737824 L234.575154,30.4376907 L235.62687,26.7664103 Z M169.974775,25.8074937 C171.93663,25.5055633 173.829788,26.6095651 174.351915,28.3600382 L174.877773,30.4354076 L170.851204,31.2345047 L170.675918,30.1180519 C170.503136,29.798413 170.152565,29.4787742 169.626707,29.6385936 L162.800572,31.0746853 C162.452504,31.2345047 162.099428,31.5541435 162.274714,31.8760655 L164.726213,41.451532 C164.901499,41.7711709 165.249567,42.0908097 165.600138,41.9309903 L172.604064,40.4948986 C172.952131,40.3350792 173.127417,40.0154404 173.127417,39.5359821 L172.776845,38.0998904 L169.276135,38.736885 L168.399705,35.7048822 L175.751698,34.1089711 L177.326768,39.6958015 C177.677339,41.4492489 176.625624,43.2072625 174.699983,43.6844377 L165.071777,45.759807 C164.163717,45.9907174 163.191007,45.8626961 162.39164,45.407066 C161.592272,44.9514359 161.039991,44.2102301 160.869922,43.3647988 L157.89507,31.8737824 C157.371716,30.1180519 158.596213,28.3600382 160.346569,27.8828631 Z M217.064089,23.8919438 L223.892728,24.6910409 C227.047875,25.168216 227.921801,27.083766 227.571229,29.1591353 L227.395943,30.1180519 L223.72245,29.798413 L223.892728,28.8417796 C223.892728,28.5221408 223.72245,28.0426825 223.194089,28.0426825 L216.365449,27.2435854 C215.842096,27.083766 215.66681,27.8828631 216.017382,28.2002188 L225.295016,35.8624185 C226.346731,36.6592325 227.045371,37.2985102 226.694799,39.6935184 C226.171445,42.4058823 224.766654,43.3625157 221.619019,43.04516 L214.09174,42.0885266 C210.941602,41.6113515 210.067676,39.533699 210.41324,37.3007933 L210.588526,36.0245211 L214.267026,36.5016962 L214.09174,37.618149 C214.09174,37.9377879 214.267026,38.4172461 214.79038,38.4172461 L222.317659,39.3761627 C222.846021,39.533699 222.846021,38.736885 222.670735,38.5770656 L213.568387,31.0746853 C212.341385,30.1180519 211.818031,29.3189548 212.163595,27.083766 C212.516671,24.6910409 214.267026,23.572305 217.064089,23.8919438 Z M190.80876,23.0951298 L190.80876,36.8213351 C190.80876,37.4606127 191.334618,37.9377879 191.857972,37.9377879 L198.160753,37.7779685 C198.511325,37.7779685 199.037183,37.4583296 199.037183,36.8213351 L199.037183,23.0951298 L203.063751,23.0951298 L203.063751,38.0976073 C203.063751,40.0131572 201.488682,41.4492489 199.56304,41.4492489 L190.285406,41.4492489 C188.357261,41.4492489 186.784696,40.0131572 186.784696,38.0976073 L186.784696,23.0951298 L190.80876,23.0951298 Z" id="mv-agusta" fill="#FFFFFF"></path>
</svg>