<?xml version="1.0" encoding="UTF-8"?>
<svg width="400px" height="122px" viewBox="0 0 400 122" version="1.1" xmlns="http://www.w3.org/2000/svg">
    <title>norton</title>
    <path d="M110.866634,6.6198583 C111.736491,6.83732246 113.0029,7.13153868 114.320477,7.42801231 L115.202652,7.62517833 C116.084827,7.82104378 116.955631,8.01055504 117.712728,8.1716396 C119.857838,8.62804587 122.824479,9.35829589 124.330619,9.76906153 C125.83676,10.1798272 128.02751,10.6818741 129.259807,10.9100772 C129.683823,10.9895802 130.068515,11.0656638 130.443004,11.1459389 L130.81517,11.2278932 L130.985864,11.2669963 L131.329562,11.3487085 C132.600052,11.6580976 134.017327,12.0838952 136.699229,12.9182648 C138.022807,13.3290304 139.528948,13.6485148 140.076635,13.6485148 C141.12637,13.6485148 144.093011,14.4244054 148.291948,15.7479836 C149.432964,16.1131086 150.847823,16.3869524 151.441151,16.3869524 L151.555302,16.3881909 C152.532075,16.4098295 153.7361,16.7296876 159.884667,18.4864212 C161.071324,18.8515462 162.531824,19.12539 163.125152,19.12539 C163.672839,19.12539 165.681027,19.4448743 167.506652,19.8099994 C172.744642,20.9238249 175.441137,21.4419875 178.032019,21.8097558 L178.532815,21.8791784 L179.034898,21.9455624 C180.042969,22.0757703 181.082311,22.1920516 182.294215,22.3202338 C183.512249,22.4400405 185.062248,22.6122625 186.653742,22.7986804 L188.021267,22.9610523 C189.612761,23.1524621 191.162759,23.3471479 192.380793,23.5068901 C194.351302,23.7721509 199.436638,24.0924718 204.802459,24.3470342 L205.698874,24.3888316 L206.574519,24.4282675 C211.245598,24.6349902 215.893872,24.782445 218.677927,24.7921386 L219.177642,24.7923226 C220.290569,24.7888956 221.024645,24.7581612 221.225669,24.6935464 C221.545154,24.6022651 221.773357,23.7807339 221.773357,22.8222807 C221.773357,21.4987025 221.362591,20.6771713 219.719529,18.8059056 C218.578513,17.527968 217.6657,16.3413117 217.6657,16.2043899 C217.6657,15.7936242 221.225669,13.6485148 221.864638,13.6485148 C222.640529,13.6485148 226.519982,11.0013584 228.802013,8.90188962 C229.806107,7.98907709 230.947123,7.25882707 231.403529,7.25882707 C233.959404,7.25882707 237.975779,13.374671 238.706029,18.3494993 C238.979873,20.1751244 239.344998,22.2289526 239.527561,23.0048432 L239.847045,24.374062 L243.452654,24.2371401 C245.460842,24.1458589 248.97517,23.8263745 251.211561,23.4612495 C253.493592,23.1417651 257.601249,22.5940776 260.339686,22.3202338 C260.785139,22.2764188 261.24578,22.2279302 261.710956,22.1762636 L262.410786,22.096567 C264.629248,21.8378306 266.829783,21.5242613 267.87039,21.31614 C272.343171,20.4946088 278.504656,19.5817962 282.247187,19.1710306 C284.255374,18.9428275 286.491765,18.5320618 287.176375,18.2582181 C287.906625,17.9843743 289.138922,17.7561712 289.914812,17.7561712 C290.736343,17.7561712 292.835812,17.4366868 294.570156,17.0715618 C296.350141,16.7064368 298.906016,16.3869524 300.275234,16.3869524 C301.644453,16.3869524 303.515719,16.1587492 304.382891,15.8849055 C305.250063,15.6567023 307.94286,15.2459367 310.316172,14.9720929 C312.689485,14.7438898 316.112532,14.3787648 317.846876,14.104921 C319.746788,13.8543831 326.756297,13.718453 334.056491,13.7014995 L335.076524,13.6999065 L336.097421,13.6998605 C344.090236,13.7055656 351.894783,13.8538976 353.218361,14.1505617 C354.359377,14.3787648 356.321924,14.7438898 357.554221,14.9264523 C358.832158,15.1546555 360.292658,15.5654211 360.840346,15.8392648 C361.388033,16.1587492 362.346486,16.3869524 362.985455,16.3869524 C365.586971,16.3869524 374.486893,20.4033275 380.328893,24.1914995 C388.81805,29.7140153 395.527222,39.0703437 398.722066,49.8415316 C399.908722,53.7209848 400.000003,54.6337974 400.000003,62.255782 C400.000003,71.7490323 399.087191,76.5869387 395.892347,84.3002046 C390.050347,98.3118769 375.71919,111.045612 358.695236,117.252737 C351.484017,119.899893 340.393345,121.771159 331.99547,121.8168 C323.27811,121.8168 312.689485,120.40194 310.9095,118.987081 C310.087969,118.348112 310.9095,116.978893 312.461282,116.431206 C313.876141,115.929159 316.660219,113.966612 320.35711,110.95433 C322.593501,109.128705 322.912985,108.991783 324.647329,109.311268 C325.697063,109.44819 326.92936,109.813315 327.431407,110.132799 C328.012111,110.445486 331.653155,110.627015 338.183382,110.634599 L340.81251,110.634215 C348.797783,110.626768 349.245487,110.531442 352.990158,109.311268 C360.566502,106.846674 365.632612,103.65183 371.246409,97.80983 C375.993034,92.926283 378.959674,87.2212047 381.150425,78.6864075 C381.938424,75.7532987 382.09656,73.7859805 382.108156,67.0248444 L382.108878,66.1352352 C382.110479,65.7941316 382.111631,65.4628051 382.112249,65.1407411 L382.112414,64.2018223 C382.098216,56.1444052 381.649269,54.2302381 379.187878,48.8830784 C378.457628,47.3312971 377.864299,45.9620783 377.864299,45.8707971 C377.864299,45.3052502 376.097774,42.8761163 374.109273,40.5204117 L373.709071,40.0508238 C372.770495,38.9600815 371.806002,37.9134531 370.972565,37.1077968 C365.221846,31.6309216 360.247018,28.892484 352.077345,26.7473746 C341.808204,24.0545776 324.510407,23.9176557 304.611094,26.4278902 C300.594719,26.9299371 295.346047,27.5689059 292.972734,27.797109 C290.599422,28.0253121 286.674328,28.5729996 284.301015,28.9381246 C281.927703,29.3488903 277.591843,29.9422184 274.716484,30.3073434 C271.841124,30.6724685 267.413983,31.2657966 264.903749,31.6765622 C259.928921,32.4524529 249.70542,33.6391092 243.909061,34.0498748 C241.900873,34.1867967 239.983967,34.5062811 239.710123,34.7344842 C239.350845,35.0092264 239.138359,46.1074615 239.08626,58.2094135 L239.082774,59.0858644 C239.080636,59.6711474 239.078871,60.258212 239.077481,60.8459591 L239.074987,62.1690781 L239.074029,63.0510632 C239.073916,63.1979972 239.073827,63.3448879 239.073762,63.4917183 L239.073967,65.0677181 C239.082336,76.8583863 239.244589,87.8556094 239.573201,89.0468297 C240.075248,90.7811735 240.349092,90.963736 243.361373,91.4657829 C245.871608,91.8765486 245.734686,93.4739705 242.950608,96.1667675 C239.892686,99.0877676 237.793217,99.9092988 233.411717,99.9092988 C228.847654,99.9092988 226.337419,98.8139238 224.283591,95.8929237 L222.914373,93.8847361 L222.686169,64.4008914 L222.457966,34.8714061 L219.719529,34.7344842 C218.213388,34.6888436 211.230372,34.4149998 204.201716,34.1867967 C203.781719,34.1714122 203.358663,34.1553536 202.933179,34.1386645 L202.079159,34.1044587 C201.936345,34.0986219 201.793308,34.0927184 201.650071,34.0867496 L200.78844,34.0501676 C200.500555,34.0377215 200.212058,34.0250275 199.923137,34.0120987 L199.055285,33.9726205 C198.7657,33.9592348 198.475878,33.9456272 198.186004,33.9318107 L196.88186,33.8682691 L196.013918,33.8244702 C195.724958,33.8096896 195.436415,33.7947324 195.148475,33.7796116 L194.286651,33.733771 L193.402875,33.6855515 C184.300815,33.1826088 176.203563,32.5392791 175.219918,32.1786091 C174.854793,32.0416873 172.892246,31.7222029 170.884058,31.4483591 C166.591436,30.878542 163.524018,30.4668157 161.165342,30.1309411 L160.612603,30.0517454 C158.004246,29.6755983 156.293977,29.3926642 154.675648,29.0745761 L154.335815,29.0070037 L153.997027,28.9381246 C153.059872,28.767733 151.824533,28.5377042 150.555399,28.3036997 L149.46546,28.1034489 C148.379578,27.9048209 147.324367,27.7149559 146.466323,27.5689059 C141.537135,26.7930152 131.861323,24.8304683 126.840854,23.6894526 C124.695744,23.1874057 120.72501,22.3658744 117.940932,21.8638275 C115.202494,21.3617807 111.505603,20.6315306 109.725619,20.2664056 C107.991275,19.9469212 106.028728,19.5817962 105.389759,19.490515 C104.677063,19.4167878 104.348127,19.3165945 104.331694,20.4511494 L104.331926,20.6579754 C104.347165,21.6818052 104.559802,23.5419983 104.933353,26.8842965 C105.170904,29.0816452 105.292542,33.5586269 105.298266,41.1824984 L105.298147,42.4824302 C105.294702,46.3228241 105.264385,50.9039134 105.207197,56.3225005 C105.052019,73.8576292 104.960153,79.806538 104.214057,84.817575 L104.146509,85.2575624 C103.800096,87.4480386 103.322239,89.5169282 102.651322,92.3785955 C101.601587,96.7600956 98.6349466,102.14569 95.531384,105.249252 C92.9298683,107.850768 92.4278214,108.124612 90.7847588,108.124612 C88.4570869,108.124612 88.1376025,107.394362 89.3698994,104.838486 C90.4652744,102.556455 91.6975714,96.5318925 91.6975714,93.4283299 C91.6975714,89.5488766 90.4196338,84.8022515 88.3658056,81.2422826 C86.0381337,77.1346262 82.2956023,73.3008136 72.2090239,64.6747352 C68.0100862,61.0691257 62.4875704,55.9117349 59.9316953,53.2189379 C57.4214609,50.526141 55.2307108,48.4723128 55.0481483,48.6548753 C54.8698314,48.7886129 54.7350571,59.1548359 54.7288849,71.8004576 L54.7281849,75.2527252 C54.7281016,75.4570557 54.7280067,75.659471 54.7278994,75.8599919 L54.7271029,77.0405534 C54.7150111,91.7106427 54.6243604,95.6811766 54.1746589,98.1482841 L54.1384051,98.3400999 L54.1006287,98.5266743 C54.0942041,98.5573892 54.0877147,98.5879275 54.08116,98.6183103 L54.0410422,98.798908 C54.0274048,98.8585968 54.0135009,98.9178311 53.9993252,98.9767783 L53.9336841,99.2406694 L53.8878348,99.4161202 C53.864486,99.5039599 53.8404973,99.5920965 53.8158514,99.6810957 C51.7620232,107.211799 49.3887106,111.593299 45.0072105,115.929159 C42.2231323,118.667596 38.1611165,121.360393 36.7918977,121.360393 C35.1957798,121.360393 34.8917573,119.077691 36.1727053,117.399198 L36.3677847,117.154669 C37.1675201,116.098993 39.2808332,111.979723 39.9867416,109.950237 C41.0602091,107.036539 41.4251881,100.677011 41.4333464,80.0240474 L41.4333271,78.5243807 C41.4318881,74.9677553 41.42077,71.0069157 41.401601,66.5916415 C41.2783713,38.4131187 41.2660483,35.2255774 40.5661037,33.3726136 L40.5184132,33.2508002 C40.4534444,33.0903263 40.3829022,32.9362435 40.3062259,32.7719373 C39.7585384,31.585281 38.343679,29.7596559 37.2026633,28.6642809 C36.0616477,27.5689059 35.1031945,26.3366089 35.1031945,25.9258433 C35.1031945,25.1499527 36.3811321,23.8720151 38.5262415,22.5484369 C41.5841635,20.6771713 44.3226011,17.9843743 46.7871949,14.3331242 C48.7953825,11.3664835 49.6625544,10.4536709 50.4840857,10.4536709 L50.5231532,10.453866 L50.5998312,10.4556826 L50.6750321,10.4599694 L50.7493147,10.4674084 C51.7361125,10.590641 52.6270967,11.7363299 59.3840078,21.1792181 C66.0018987,30.3529841 69.2880238,34.2324373 78.7812741,44.0908126 C83.436618,48.928719 87.6811962,53.4471411 88.2288838,54.1317505 C90.0088682,56.505063 90.9216807,57.4178756 91.3324464,57.1896724 C91.5119146,57.0550713 91.6913828,50.7455464 91.6974149,43.0305909 L91.6973848,42.099735 C91.6867721,27.1901923 91.2199369,22.7421443 89.41554,19.8099994 C88.4114463,18.2125774 85.3078837,16.3869524 83.5735399,16.3869524 C82.9345711,16.3869524 82.3412429,15.9761867 82.0217586,15.2459367 C81.3827898,13.8310773 81.8848367,13.1921085 85.262243,11.2752022 C86.6771025,10.4536709 88.8678525,8.856249 90.1457901,7.62395208 C91.378087,6.43729579 92.9298683,5.25063951 93.5688371,5.02243637 C94.1621652,4.79423324 95.3944621,4.56603011 96.3072746,4.56603011 C98.589306,4.52038948 107.352306,5.7526864 110.866634,6.6198583 Z M292.69889,47.1943752 C295.985015,50.4805003 299.088578,55.8660943 300.549078,60.8865632 C301.644453,64.7203758 301.644453,75.3090012 300.549078,79.1428138 C297.856281,88.4535016 291.19275,95.9385643 282.703593,99.2246894 C279.417468,100.502627 269.559093,100.502627 266.272968,99.2703301 C258.148936,96.1211268 252.443858,90.1422048 249.112092,81.2879232 C247.651592,77.40847 247.605951,77.1346262 247.560311,70.0146885 L247.561108,69.1132989 C247.575472,62.0141902 247.815361,61.1818849 250.709514,54.9989224 C252.854623,50.4805003 256.049467,46.6923284 260.157124,43.9538908 C263.762733,41.5349376 266.729374,40.257 270.152421,39.6636719 C278.413374,38.2488125 286.309203,40.8959688 292.69889,47.1943752 Z M148.42887,40.3026406 C149.250401,40.6677657 150.802183,41.3067344 151.943198,41.7631407 C156.507261,43.6344064 161.619011,48.4266722 164.494371,53.5840629 C173.531215,69.6952041 167.780496,90.3247673 152.125761,98.0836738 L148.063745,100.091861 L141.445854,100.091861 L134.827963,100.137502 L130.765948,98.1293144 C123.782932,94.6606268 118.260416,88.1340172 115.704541,80.2838294 C113.741994,74.2136261 113.376869,69.3300791 114.472244,64.5378133 C115.202494,61.2516882 116.297869,57.5091568 116.845557,56.5507037 C117.028119,56.1855787 117.758369,54.7707192 118.442978,53.4471411 C119.99476,50.526141 123.919854,46.0533596 126.795213,44.0908126 C129.442369,42.2651876 131.861323,41.0328907 132.774135,41.0328907 C133.184901,41.0328907 133.915151,40.7590469 134.417198,40.3939219 C134.919245,40.0287969 136.151542,39.6180312 137.155635,39.52675 C140.076635,39.161625 146.877089,39.6636719 148.42887,40.3026406 Z M337.928751,40.4395625 C343.040501,38.8877812 349.977877,40.1200781 352.990158,43.0867189 C356.230642,46.372844 356.139361,45.8251564 356.413205,68.6911103 C356.634562,87.55073 356.684146,89.2759867 357.436711,90.1956278 L357.50858,90.2791266 C358.101908,90.9180954 358.923439,91.2375798 360.064455,91.2375798 C363.441861,91.2375798 363.30494,93.6108924 359.836252,96.6231737 C356.869611,99.2703301 355.043986,99.9092988 350.571205,99.9092988 C346.828673,99.9092988 346.372267,99.8180176 344.683564,98.5857207 C340.25551,95.3653181 339.991616,94.4242449 339.982832,73.8546389 L339.982064,71.605523 C339.971258,61.5595275 339.791591,54.2918437 339.526173,53.5840629 C338.887204,51.8953598 337.061579,51.3476723 334.23186,51.986641 C332.04111,52.4430473 328.572423,54.8163599 328.572423,55.8204536 C328.572423,56.0486568 328.298579,56.5963443 327.933454,56.9614693 C327.61397,57.3722349 326.975001,58.6958131 326.564235,59.92811 C326.549546,59.9721768 326.535147,60.016726 326.521031,60.0618874 L326.479531,60.1993376 C325.950949,62.0134376 325.845735,64.9559534 325.834976,76.723389 L325.834022,78.6044263 L325.833985,79.0971732 C325.792909,94.2133486 325.788801,95.8358729 325.056406,96.8742884 L325.006492,96.9427925 L324.95437,97.0104158 C324.901127,97.0778822 324.844496,97.1453025 324.784251,97.2165019 C323.141188,99.1790488 321.178641,99.9092988 317.709954,99.9092988 C314.241266,99.9092988 312.415641,99.0421269 310.590016,96.5775331 C310.580888,96.5647537 310.571846,96.5520428 310.562891,96.5393785 L310.484574,96.4260705 C310.425415,96.3380052 310.370301,96.2490186 310.318869,96.1516276 L310.275678,96.0659169 C310.268628,96.0512306 310.26165,96.0363291 310.254744,96.0211907 L310.214165,95.9273418 C309.657925,94.5687613 309.59505,91.2302773 309.40336,72.9813292 C309.129516,48.0159065 309.357719,49.3851253 305.843391,48.928719 C304.793656,48.7917972 303.880844,48.3810315 303.698281,47.9702659 C303.287516,46.9205315 305.250063,44.3646564 307.805938,42.6759532 C311.000782,40.5308438 314.697672,39.8462344 318.212001,40.7590469 C321.406844,41.5805782 322.182735,42.1282657 324.236563,44.8210627 C325.149376,46.007719 325.970907,46.9661721 326.062188,46.9661721 C326.106003,46.9661721 326.444255,46.7453445 326.960852,46.3794016 L327.233474,46.1846877 C327.758559,45.8068272 328.417245,45.3176327 329.12011,44.775422 C332.04111,42.584672 333.912376,41.6718594 337.928751,40.4395625 Z M200.322262,40.9416094 C204.247356,39.5723906 208.12681,40.1657188 210.089356,42.3564688 C210.773966,43.1323595 211.04781,44.3646564 211.321653,48.0615471 C211.686778,53.4015004 212.143185,54.5881567 213.923169,54.9989224 C215.885716,55.409688 217.209294,56.0486568 217.209294,56.5507037 C217.209294,58.6958131 213.2842,62.3927039 209.769872,63.5793601 C206.027341,64.8116571 203.015059,64.2639695 200.961231,61.9819382 C199.774575,60.6583601 198.496637,56.9614693 198.496637,54.9076411 C198.496637,51.8497191 195.712559,51.8040785 194.069497,54.8163599 C194.061644,54.8310826 194.053866,54.8458424 194.046161,54.8606551 L194.000804,54.9502974 C193.956313,55.040834 193.914409,55.1344409 193.874944,55.2345987 L193.836287,55.3370691 C193.350476,56.6834381 193.258279,59.2997996 193.248842,70.5430268 L193.248097,71.8968911 C193.248008,72.2066734 193.247965,72.5224691 193.247965,72.8444073 L193.247991,74.2680381 C193.248,74.4215135 193.248011,74.5734371 193.248027,74.7238255 L193.248924,77.2686271 C193.256304,87.4763449 193.320511,89.1762958 193.87911,89.9946211 L193.923645,90.056736 C193.931237,90.0668357 193.938914,90.07682 193.946678,90.0867058 L194.018904,90.1734669 C194.076931,90.239579 194.139327,90.3033162 194.206418,90.3704079 C194.845387,90.963736 195.986403,91.4201423 197.309981,91.5570642 C198.907403,91.7396267 199.40945,92.0134704 199.40945,92.6067986 C199.40945,93.7934549 196.853575,96.7600956 194.480262,98.3118769 C192.563356,99.5441738 191.970028,99.6810957 187.953653,99.8180176 C184.211121,99.9549395 183.298309,99.8636582 181.746527,99.0421269 C179.464496,97.9011113 177.684512,95.8472831 177.045543,93.6108924 C176.779413,92.5907279 176.599494,84.6305717 176.589569,72.579032 L176.589011,68.6109654 C176.588986,68.4268191 176.588956,68.2446062 176.58892,68.0643053 L176.588133,65.9911021 C176.580501,53.4247407 176.514874,51.4084619 175.950477,50.5658206 L175.904875,50.5015637 C175.873772,50.4601235 175.841255,50.4212508 175.807261,50.3835786 L175.755152,50.3278 L175.700779,50.2727968 C175.663764,50.2361587 175.625207,50.1993541 175.585043,50.161016 C175.037355,49.6589691 174.124543,49.2482034 173.485574,49.2482034 C172.025074,49.2482034 170.655855,48.4723128 170.655855,47.6051409 C170.655855,46.372844 172.344558,44.410297 175.037355,42.584672 C177.46216,40.8959688 177.627588,40.8093686 181.418552,40.8049276 L182.410862,40.8049223 C186.332037,40.8106743 186.727695,40.9314671 188.546981,42.1739063 C189.596715,42.949797 190.920293,44.3190158 191.42234,45.2774689 C191.924387,46.1902815 192.472075,46.9661721 192.608997,46.9661721 C192.791559,46.9661721 194.115137,45.7795158 195.621278,44.3190158 C197.309981,42.584672 199.044325,41.3980157 200.322262,40.9416094 Z M266.272968,50.7087035 C262.849921,52.5799692 261.480702,55.5922505 261.480702,61.2973288 C261.480702,63.6250008 261.754546,66.409079 262.119671,67.5500947 C262.484796,68.6454697 263.215046,70.9731416 263.762733,72.7531261 C266.181686,80.5120326 270.745749,87.0842828 275.081609,89.0011891 C279.463109,90.9180954 283.981531,89.5488766 286.12664,85.7607046 C287.130734,83.9350796 287.267656,83.2048295 287.222015,78.9146106 C287.176375,73.8941417 286.400484,69.9234072 284.757421,65.678829 C284.209734,64.3096102 283.662046,62.7578289 283.525124,62.255782 C283.388203,61.7537351 283.023078,61.0234851 282.703593,60.6583601 C282.384109,60.293235 282.018984,59.6542663 281.836421,59.2891413 C280.421562,56.1855787 276.907234,52.4886879 274.168796,51.1651097 C271.932405,50.0697347 267.824749,49.8415316 266.272968,50.7087035 Z M133.458745,50.6174222 C132.089526,51.1651097 130.172619,53.3558598 129.396729,55.2727661 C128.02751,58.46761 128.02751,61.3886101 129.351088,67.6870165 C129.990057,70.927501 130.765948,73.8941417 130.94851,74.3049074 C131.541838,75.3546418 133.230541,79.2797357 133.230541,79.59922 C133.230541,80.1925482 136.973073,85.2130171 138.570495,86.7191578 C142.815073,90.7355329 149.204761,90.9180954 152.03448,87.1299234 C153.312417,85.349939 154.681636,81.3792045 154.681636,79.3710169 C154.681636,77.773595 153.449339,71.7490323 152.217042,67.2762509 C151.897558,65.9983134 150.756542,63.1685945 149.706808,60.9778444 C147.561698,56.505063 143.636604,52.0322816 140.806885,50.8456254 C139.072542,50.1153753 134.964885,49.9784535 133.458745,50.6174222 Z M15.4320845,0.640936231 C18.2618034,1.37118625 21.6392097,2.92296755 27.1160849,6.07217078 C30.4934913,8.03471772 30.9498975,8.1716396 34.0078195,8.1716396 C35.8790852,8.1716396 37.978554,7.89779584 38.8913665,7.4870302 C39.8041791,7.12190519 40.9908353,6.80242081 41.4928822,6.80242081 C43.8205542,6.80242081 41.5841635,12.7813429 38.2067571,15.702343 C35.3313977,18.1212962 32.9124445,19.12539 29.6263193,19.12539 C27.344288,19.12539 26.2945536,18.8515462 23.3279129,17.3454055 C18.5812877,14.9264523 17.7597565,14.7438898 16.2536158,15.9305461 C14.6561939,17.2084836 14.6105532,19.2166712 16.2079752,21.0879369 C17.3489908,22.4571557 17.3489908,22.5027963 16.5274595,23.1417651 C15.979772,23.5981714 14.9300376,23.6894526 13.0587719,23.5525307 C3.20039662,22.6853588 -2.59596295,14.4700461 1.14656842,6.57421767 C2.51578722,3.74449883 4.70653729,1.78195189 7.71881864,0.732217484 C10.3203343,-0.180595046 12.1916,-0.226235672 15.4320845,0.640936231 Z" id="norton" fill="#FFFFFF"></path>
</svg>