<?xml version="1.0" encoding="UTF-8"?>
<svg width="400px" height="441px" viewBox="0 0 400 441" version="1.1" xmlns="http://www.w3.org/2000/svg">
    <title>peugeot</title>
    <path d="M202.249535,0.51008609 C222.65547,0.523542099 236.748419,0.696011248 236.620348,0.909463166 C236.131187,1.66543871 237.776546,1.84331531 247.826574,2.1101302 C249.737357,2.15598901 251.910874,2.23337576 254.099662,2.32964642 L255.293573,2.38395447 C259.069669,2.56137916 262.757091,2.78828473 265.080604,2.99951319 C265.591282,3.04541683 266.114546,3.08983971 266.642468,3.13239969 L267.436852,3.19479472 C270.753081,3.44855443 274.096365,3.62208129 275.530854,3.62208129 C277.354089,3.62208129 281.311843,3.93336533 284.380214,4.28911853 C284.928138,4.35264589 285.493078,4.41475522 286.059081,4.47392723 L286.737774,4.54342648 C289.107841,4.7810585 291.384106,4.95615577 292.384661,4.95615577 C293.44272,4.95615577 296.067193,5.15195751 298.749539,5.41045438 L299.449602,5.47922303 C299.915863,5.52590023 300.379908,5.57412361 300.8338,5.62319302 C304.124517,5.97894621 308.927185,6.51257601 311.506396,6.7793909 C314.085606,7.09067495 317.865484,7.44642815 319.955534,7.62430474 C322.045584,7.80218134 325.558647,8.20240369 327.737635,8.46921859 C329.008182,8.64709518 330.917633,8.89757448 332.868571,9.1459794 L333.844732,9.26966328 C334.981166,9.41295276 336.097835,9.55130122 337.076157,9.66988562 C340.011121,10.0256388 343.835467,10.5147995 345.525295,10.7816144 C347.259592,11.0484293 350.061148,11.4486516 351.750976,11.6265282 C353.485273,11.8044048 356.375768,12.2046271 358.199003,12.5159112 C372.746092,14.7658609 377.107329,15.459169 379.932086,15.9537568 L380.136158,15.9896113 C380.236949,16.0073808 380.335966,16.0249288 380.433632,16.0423215 L380.627289,16.0769199 C380.723342,16.0941354 380.818327,16.11124 380.912668,16.1283003 L381.100615,16.1623815 C382.568097,16.4291964 384.880492,16.7849495 386.214567,16.9628261 C387.548641,17.1407027 389.949975,17.4964559 391.550865,17.80774 C393.151754,18.119024 395.241804,18.5192464 396.220126,18.6526538 C397.998892,18.9639379 397.998892,18.9639379 398.310176,21.4097411 C398.443583,22.7438156 398.57699,25.4119646 398.62146,27.2796688 C398.665929,30.8816699 398.977213,32.2157444 399.599781,31.8155221 C399.813233,31.6874509 399.985702,50.7393153 399.999158,78.3483817 L399.99995,80.9614774 L400.000003,81.8433153 C400.000003,82.2435377 399.99999,82.6407806 399.999963,83.0350635 L399.999354,86.5042172 C399.988904,122.667275 399.850587,132.089897 399.466373,132.004516 C398.799336,131.915578 398.354645,135.517579 398.265706,141.254099 C398.251206,142.566422 398.135042,144.508822 397.941692,146.884318 L397.860294,147.857148 C396.792808,160.294582 393.877278,182.902841 392.173433,191.059547 C391.81768,192.749374 391.550865,194.661548 391.550865,195.195177 C391.550865,195.773276 391.28405,197.463104 390.928297,198.975055 C390.572544,200.487006 389.949975,203.333032 389.549753,205.289674 C388.56459,210.07866 387.933076,212.981522 387.25104,215.822204 L387.079245,216.532134 C386.703728,218.072084 386.303505,219.638387 385.814345,221.520914 C385.503061,222.632643 385.102838,224.32247 384.880492,225.300792 C384.613678,226.279113 384.035579,228.458101 383.501949,230.192398 C383.012788,231.882226 382.434689,234.016745 382.256813,234.861659 C382.034467,235.706573 381.678714,236.90724 381.456368,237.529808 C381.189553,238.152376 380.655923,239.842204 380.211232,241.309686 C379.811009,242.777167 379.188441,244.689341 378.877157,245.534255 C377.712352,248.827841 377.3094,250.053542 376.980175,251.177429 L376.910505,251.41742 L376.876045,251.53759 C376.6537,252.249096 376.075601,253.983393 375.541971,255.317468 C375.008341,256.651542 374.430242,258.252431 374.207897,258.875 C374.03002,259.497568 373.674267,260.475889 373.407452,261.098457 C373.185106,261.721025 372.607007,263.099569 372.206785,264.211298 C371.762093,265.323026 371.139525,266.879446 370.828241,267.635422 C370.472488,268.435867 369.894389,269.81441 369.538636,270.659324 C366.470265,277.996734 364.380214,282.532587 360.644806,290.003404 C358.199003,294.850542 356.331298,298.363604 354.063372,302.454766 C353.752088,303.077334 352.907174,304.544816 352.240137,305.789952 C352.06226,306.11013 351.86541,306.458768 351.663079,306.812255 L351.357157,307.343171 C350.897168,308.136145 350.443583,308.893899 350.150087,309.347484 C349.705395,310.058991 349.127296,311.081781 348.860481,311.570942 C347.743443,313.673602 344.360944,318.893968 340.732095,324.256508 L340.070039,325.232419 C336.529391,330.438571 332.872163,335.60884 330.939414,338.030086 C330.62813,338.385839 329.116179,340.386951 327.51529,342.477001 C325.958869,344.567051 324.446918,346.434755 324.180103,346.70157 C323.913288,346.923916 322.979436,348.035644 322.178992,349.147373 C321.334078,350.259102 320.355756,351.459769 320.000003,351.859991 C319.599781,352.260214 318.888275,353.060658 318.399114,353.638757 C307.63758,366.267996 289.138413,384.411409 276.820459,394.239091 C273.08505,397.218524 259.255145,407.668774 257.031688,409.180725 C255.83102,409.98117 252.673711,412.115689 250.0945,413.849986 C247.47082,415.628752 245.069486,417.185172 244.758202,417.363048 C244.402449,417.496456 243.557535,418.030086 242.80156,418.519246 C242.090053,419.008407 241.156201,419.542037 240.800448,419.719913 C240.444695,419.89779 239.421904,420.520358 238.57699,421.098457 C237.732077,421.676556 236.620348,422.343593 236.131187,422.565939 C235.642027,422.788285 234.663705,423.366384 233.90773,423.811075 C233.196223,424.300236 231.684272,425.189619 230.572544,425.767718 C229.460815,426.390286 227.281826,427.590953 225.680937,428.480336 C222.612566,430.170164 210.072266,436.395844 205.225128,438.619302 C203.624239,439.330808 201.97888,440.131253 201.578658,440.353599 C200.555868,440.887229 198.777102,440.887229 197.754311,440.353599 C197.706285,440.326917 197.635845,440.28999 197.545683,440.244124 L197.339859,440.140858 C196.571432,439.759491 195.006118,439.019524 193.440804,438.308018 C188.460259,435.995622 174.630353,429.058435 172.762649,427.946706 C171.917735,427.413076 170.62813,426.70157 169.872154,426.345817 C169.160648,425.990063 167.559759,425.056211 166.314622,424.344705 C166.173368,424.255767 166.029035,424.166213 165.883508,424.076985 L165.445225,423.81122 C164.496004,423.241593 163.575846,422.725505 163.201782,422.52147 C162.712621,422.254655 161.7343,421.676556 160.978325,421.187395 C160.266818,420.698235 159.244028,420.120136 158.754867,419.853321 C157.5542,419.230753 156.620348,418.608185 153.418569,416.518135 C151.951087,415.539813 150.394667,414.561492 149.994445,414.294677 C148.560056,413.449763 144.15636,410.390892 139.610719,407.147474 L138.892219,406.634117 C133.380996,402.691163 127.879833,398.634297 127.404117,398.063438 C127.270709,397.93003 125.803227,396.729363 124.06893,395.395289 C122.887719,394.466069 122.102541,393.849214 121.341999,393.234567 L120.93962,392.907667 C119.682234,391.880682 118.313881,390.711205 115.175101,388.01341 C103.079492,377.607629 87.1150672,361.287451 77.5542,349.592065 C76.664817,348.480336 74.9305202,346.390286 73.7298532,344.922804 C72.659857,343.616779 71.0497791,341.547959 69.4158022,339.405899 L68.5638392,338.285285 C65.8762856,334.7386 63.3685413,331.319349 63.3685413,331.137368 C63.3685413,330.959491 62.5236275,329.714355 61.4563679,328.335811 C60.4128252,326.936515 58.8000774,324.601193 57.1847997,322.166366 L56.5800588,321.250275 C55.374767,319.4153 54.2078965,317.583171 53.3185135,316.106795 C52.6070071,314.906128 51.673155,313.394177 51.2729327,312.771609 C50.8282412,312.104572 50.2946114,311.170719 50.0277965,310.681559 C49.7609816,310.192398 49.1828826,309.169608 48.7381911,308.458101 C48.2490305,307.702126 47.3596475,306.234644 46.7815486,305.122915 C46.5899891,304.780845 46.3731691,304.392463 46.1505198,303.994042 L45.8146026,303.393415 C45.423266,302.694479 45.043831,302.020337 44.7804368,301.565383 C44.210257,300.600463 41.7042298,295.666516 39.1290175,290.512865 L38.6994949,289.652532 C36.1939439,284.629555 33.7210203,279.595796 32.9961122,277.996734 C32.3735441,276.662659 31.1728771,273.727696 30.2390249,271.548707 L30.0333172,271.03716 C29.2099193,269.000283 28.3952656,267.112054 28.1489749,266.70157 C27.88216,266.212409 27.5264068,265.323026 27.3485302,264.700458 C27.1261845,264.07789 26.5480855,262.432532 26.0144557,261.098457 C25.4808259,259.764383 24.902727,258.163493 24.6803812,257.540925 C24.4580355,256.918357 23.5686525,254.428085 22.6792695,251.982281 L22.481918,251.436691 C21.8588032,249.705096 21.2617874,247.962083 20.9388117,246.935978 L20.8462179,246.636626 C20.7909472,246.454077 20.748979,246.3067 20.7226269,246.201292 C20.5002812,245.445316 20.144528,244.378057 19.9221822,243.755489 C19.6553673,243.132921 19.1217375,241.443093 18.6770461,239.975611 C18.2323546,238.508129 17.6542556,236.418079 17.2985024,235.30635 C16.0088971,231.081781 14.8526992,226.634866 13.3852173,220.720469 C13.0294641,219.341926 12.4513651,216.985061 12.0956119,215.517579 C11.0728215,211.470886 9.2051172,202.532587 8.04891932,196.395844 C7.69316612,194.439202 7.15953633,191.637645 6.89272143,190.170164 C6.62590653,188.702682 6.22568419,186.212409 6.00333844,184.61152 C5.82546184,183.01063 5.42523949,180.209074 5.11395545,178.385839 C4.9727005,177.420597 4.75666353,176.006662 4.53182866,174.546539 L4.38135947,173.570698 C4.2310351,172.596848 4.08331751,171.642223 3.95775756,170.826084 C3.94352743,170.733588 3.9294396,170.640736 3.91550546,170.54766 L3.83383591,169.98755 C3.54181092,167.931604 3.33518947,165.893565 3.33518947,165.26744 C3.33518947,164.511464 3.06837457,161.532031 2.66815222,158.597067 C2.26792988,155.347262 1.92533955,152.297728 1.63260092,149.224392 L1.53685706,148.198757 C0.31591209,134.846059 0.0148381597,120.578901 0.000547553794,87.1643564 L0.000535813938,82.2068631 C0.0179154248,44.1270374 0.459814258,20.2348662 1.20067029,19.3196911 C1.42301604,19.008407 2.57921392,18.6526538 3.69094266,18.5192464 C4.84714055,18.3858389 7.38188207,17.9856166 9.33852465,17.6743325 C17.2540333,16.2957889 26.9038387,14.6948995 33.8854952,13.6276399 C38.8719692,12.8882662 41.8572049,12.4414323 44.5790662,12.0506242 L45.1390219,11.9704892 C49.2261659,11.3875569 52.9829197,10.8960483 62.4791583,9.66988562 C65.2807148,9.31413243 70.394667,8.69156433 73.8187915,8.29134199 C77.242916,7.93558879 82.4458065,7.3130207 85.3807703,6.9572675 C88.3157342,6.55704516 91.4285747,6.29023026 92.2734885,6.29023026 C93.1184024,6.29023026 96.6314652,5.97894621 100.05559,5.62319302 C113.040581,4.24464938 139.76654,2.42141425 152.529186,2.06566105 C161.289609,1.79884616 163.157313,1.57650041 162.712621,0.909463166 C162.58455,0.696011248 176.759465,0.523542099 197.093271,0.51008609 Z M225.0139,13.8499857 C199.132855,13.1829484 171.473044,13.5387016 148.971654,14.7838378 C143.857702,15.0506527 136.431354,15.4508751 132.518069,15.6287517 C125.13619,15.9845049 116.420237,16.6515421 108.060037,17.4519868 C105.391888,17.7188017 100.989442,18.119024 98.2768237,18.2969006 C95.6086747,18.5192464 91.3841055,18.8749996 88.9383023,19.1862836 C87.5558918,19.337092 85.4489452,19.57314 83.2839368,19.8141294 L82.2830063,19.9254137 C80.949407,20.073481 79.6326494,20.2187413 78.4880522,20.3424815 C75.1973351,20.6982347 70.8838276,21.1873954 68.927185,21.4542102 C66.9705424,21.7210251 63.7687637,22.1212475 61.8121211,22.2991241 C57.0983912,22.7882847 51.5397476,23.5442603 47.1373018,24.344705 C45.1806592,24.7004582 43.0016708,24.9672731 42.2901645,24.9672731 C41.6675964,24.9672731 39.7512539,25.2055999 37.7923532,25.5035085 L37.23259,25.5900921 L36.9538665,25.6343103 C34.730409,26.0345326 30.9950005,26.6571007 28.6826047,27.0128539 C26.3702089,27.3686071 23.3463068,27.8577678 22.0122323,28.1245827 C20.6781578,28.3913976 18.1878854,28.7471508 16.5425269,28.9694965 C14.8526992,29.1473731 13.2518098,29.5475955 12.9849949,29.8144104 C12.6737109,30.1256944 12.2734885,35.0173009 11.9177353,43.1106861 C11.6260177,49.492009 11.4838054,63.0869618 11.4727092,77.7413089 L11.4723722,80.9727218 C11.4727621,81.6935233 11.4734608,82.4157741 11.4744661,83.13876 L11.4784,85.3092081 C11.5204302,104.126486 11.768319,122.957712 12.1845502,129.247429 C12.2161727,129.725719 12.2483223,130.205678 12.2809598,130.686807 L12.3802974,132.133201 C12.3970847,132.374685 12.4139842,132.616336 12.4309911,132.858092 L12.5342815,134.309387 C13.1961191,143.502569 13.9988915,152.666859 14.6748226,158.374722 C15.0750449,161.443093 15.3418598,164.511464 15.3418598,165.222971 C15.3418598,165.810737 15.5542862,167.490981 15.8036563,169.235877 L15.8834281,169.787847 C15.9102916,169.971755 15.9373598,170.155179 15.9644279,170.336923 C16.8093418,175.317468 17.5653173,180.120136 18.0100088,183.722137 C18.0463102,184.003472 18.0821485,184.272769 18.118705,184.537067 L18.1629931,184.852276 C18.4764811,187.048248 18.8739809,189.090198 20.0555897,195.150708 C22.2790472,206.490341 23.7909982,213.471998 25.3474185,219.075111 C25.388923,219.2352 25.4359615,219.415053 25.487269,219.610348 L25.6527338,220.238239 C25.9749276,221.45846 26.3879966,223.015077 26.681493,224.189063 C27.0817153,225.789952 27.7042834,227.880002 28.0600366,228.858324 C28.4157898,229.881114 28.6826047,230.992843 28.6826047,231.393065 C28.6826047,231.837757 28.9494196,232.816078 29.3051728,233.616523 C29.6164568,234.416967 30.2390249,236.284672 30.6837164,237.752154 C31.0839388,239.219635 31.7065069,241.131809 32.0177909,241.976723 C33.1825957,245.270309 33.5855482,246.49601 33.9147731,247.619897 L33.9844436,247.859888 L34.0189026,247.980058 C34.2412484,248.691564 34.8193473,250.425861 35.3529771,251.759936 C36.8649282,255.628752 37.6209038,257.674333 37.9766569,258.919469 C38.1990027,259.542037 38.5547559,260.43142 38.8215708,260.92058 C39.0883857,261.365272 40.3335219,264.255767 41.5786581,267.324138 C44.8693751,275.239647 49.9833273,285.912242 53.3629827,292.004516 C54.2078965,293.471998 55.1862178,295.250764 55.541971,296.006739 C55.8977242,296.718246 56.8315763,298.319135 57.5430827,299.564271 C58.2990583,300.764938 59.099503,302.187951 59.3663179,302.677112 C59.6331328,303.166273 60.2112317,304.144594 60.7003924,304.900569 C61.189553,305.612076 61.7676519,306.634866 62.0344668,307.124027 C62.7015041,308.413632 63.3685413,309.436423 65.3696531,312.460325 C66.3479743,313.927807 67.3262956,315.484227 67.5931105,315.884449 C68.3751542,317.195522 71.0488552,321.028805 73.8542461,324.928959 L74.4165587,325.709154 C76.8563358,329.087557 79.3068979,332.393238 80.6225713,334.027862 C83.6040257,337.767313 85.4082879,339.999385 87.0957445,342.037323 L87.4990344,342.523374 L87.9010964,343.006004 C88.9074312,344.211665 89.9327942,345.423082 91.2062289,346.923916 C100.900504,358.17461 112.418013,369.647651 124.335745,379.831086 C128.871599,383.699902 136.475823,389.836645 140.922738,393.171831 C142.466573,394.349005 145.099102,396.246392 147.744588,398.115338 L148.434302,398.601751 C151.647734,400.864076 154.741736,402.987767 155.775434,403.622081 C156.175656,403.888896 157.732077,404.867217 159.199559,405.845539 C160.66704,406.82386 162.223461,407.802181 162.623683,408.068996 C163.023905,408.291342 165.514178,409.803293 168.182327,411.404182 C172.0882,413.766606 173.316661,414.50027 174.60183,415.233004 L174.82977,415.362632 C175.289053,415.623193 175.775434,415.895567 176.409119,416.25132 C177.476379,416.829419 179.433022,417.896678 180.767096,418.652654 C182.385386,419.551704 186.346419,421.561537 190.472533,423.606933 L191.272612,424.002972 C193.008049,424.860766 194.74781,425.712615 196.331298,426.479224 C197.932188,427.2352 199.488608,427.857768 199.799892,427.857768 C200.066707,427.857768 201.48972,427.279669 202.868263,426.568162 C203.681902,426.162565 204.462515,425.773211 205.21163,425.399313 L206.095546,424.958003 C207.254201,424.379346 208.333784,423.839445 209.340548,423.335069 L210.082064,422.963397 C219.061456,418.460343 221.944063,416.927642 223.679825,415.806628 C224.435801,415.361937 225.325184,414.828307 225.680937,414.65043 C226.03669,414.472554 229.016123,412.738257 232.262371,410.781614 C235.508619,408.780503 238.532521,406.957268 238.932744,406.734922 C239.299614,406.490341 240.862211,405.461066 242.490198,404.366399 L242.934967,404.066773 C243.007897,404.016967 243.080755,403.967233 243.153454,403.91763 L243.587029,403.622059 C245.164615,402.547564 246.579659,401.594288 246.892721,401.398624 C247.51529,401.042871 251.206229,398.46366 255.430798,395.484227 C257.120626,394.239091 264.591443,388.591509 264.813789,388.280225 C264.947196,388.146817 265.925517,387.346373 267.037246,386.501459 C268.766207,385.156712 272.154969,382.316094 275.580616,379.371379 L276.436858,378.633837 C279.857382,375.681439 283.179547,372.740925 284.780437,371.204071 C285.605137,370.411712 286.433881,369.60943 287.262557,368.801501 L288.256674,367.82955 C296.205142,360.03664 303.995961,351.881013 307.993333,347.146261 C308.838247,346.16794 309.72763,345.14515 309.949975,344.878335 C313.018347,341.543149 324.402449,326.82386 327.51529,322.243538 C334.052255,312.549263 337.031688,307.924472 338.187885,305.789952 C338.4547,305.300792 339.032799,304.278001 339.52196,303.566495 C340.011121,302.810519 340.54475,301.921136 340.722627,301.565383 C340.856034,301.20963 341.434133,300.186839 341.967763,299.341926 C343.657591,296.629308 346.681493,290.892787 349.794333,284.667106 C354.241248,275.5954 358.199003,267.101792 358.199003,266.479224 C358.199003,266.256878 358.465818,265.500903 358.821571,264.789396 C359.444139,263.588729 361.712066,258.030086 362.868263,254.872776 C363.179547,254.027862 363.713177,252.515911 364.06893,251.53759 C365.66982,247.179613 369.227352,236.240202 370.828241,230.859435 C373.585328,221.298568 375.675378,212.938368 377.543083,203.9556 C377.943305,201.998957 378.565873,199.24187 378.921626,197.863326 C379.27738,196.440314 379.544194,194.839424 379.544194,194.305794 C379.544194,193.727696 379.811009,191.859991 380.166763,190.170164 C380.18823,190.072025 380.209434,189.974203 380.230426,189.876405 L380.323641,189.435484 C380.866266,186.828222 381.31606,183.928382 382.657035,175.272998 C382.968319,173.449763 383.368541,170.425861 383.546418,168.602626 C383.724295,166.779391 384.124517,163.577612 384.346863,161.487562 C384.471376,160.531071 384.594449,159.547208 384.714431,158.553482 L384.816478,157.699711 L384.966204,156.415358 C385.670941,150.279381 386.214567,144.243234 386.214567,142.365828 L386.21553,142.228089 C386.234696,140.765447 386.537327,136.778494 386.881604,133.249652 C388.304617,118.619302 388.12674,31.8599912 386.659258,30.0812253 C386.347974,29.7254721 385.414122,29.3252497 384.48027,29.1918423 C383.590887,29.0584348 381.189553,28.6582125 379.099503,28.3469284 C374.146751,27.4964559 366.886468,26.3786474 359.503069,25.3021705 L357.861175,25.0637592 C352.66105,24.3117391 347.480085,23.5915087 343.079492,23.0106305 C340.277935,22.6104081 336.275712,22.0767783 334.185662,21.8099634 C332.095612,21.4986794 328.715957,21.1429262 326.625907,20.9650496 C324.535857,20.787173 321.156201,20.4314198 319.066151,20.1646049 C304.978325,18.3155777 282.5417,16.505292 259.657223,15.2579206 L257.575802,15.1460885 L255.493233,15.0374454 C254.104764,14.9660991 252.716408,14.8969371 251.329926,14.8300761 L249.251826,14.731525 C240.946805,14.3443403 232.740859,14.0420924 225.0139,13.8499857 Z M188.743573,21.1487367 C193.041125,21.1503157 197.53711,21.1599982 202.061714,21.1770146 L204.531498,21.187019 C224.707908,21.274586 244.839581,21.5049051 249.916624,21.8099634 C271.573099,23.0995688 280.600337,23.7221369 286.826018,24.3002358 C290.516957,24.655989 294.385773,24.9672731 295.497502,24.9672731 C296.498058,24.9672731 299.587774,25.2194131 302.691899,25.5291852 L303.381098,25.5988931 L303.724295,25.6343103 C307.148419,26.0345326 312.573655,26.6126316 315.730965,26.9683848 C325.9144,28.0801135 333.829909,29.0139657 338.765984,29.6810029 C346.694937,30.7358525 352.830646,31.5752348 357.854588,32.295326 L358.729764,32.4211822 C365.065122,33.3353337 369.605696,34.0591785 373.82846,34.8011607 L374.402461,34.902472 C374.59323,34.936293 374.783481,34.9701711 374.973354,35.0041257 L375.541971,35.1062392 L379.76654,35.9066838 L380.166763,39.8644382 C380.471821,43.0893409 380.616724,61.2834576 380.606702,80.3472195 L380.604701,82.6849453 C380.582042,101.796209 380.404673,121.201625 380.077824,126.801625 C378.877157,148.280225 376.386885,171.226306 373.718736,185.500903 C373.451921,186.834977 373.096168,189.147373 372.873822,190.614855 C372.695945,192.082337 372.295723,194.172387 372.073377,195.284116 C371.895501,196.025268 371.59904,197.379107 371.302579,198.779062 L371.154897,199.480259 C371.057175,199.946788 370.961649,200.40795 370.87271,200.842759 C369.716512,206.267996 368.871599,209.958935 368.160092,212.449207 C367.804339,213.694344 367.537524,215.072887 367.537524,215.517579 C367.537524,215.917801 367.270709,217.207406 366.914956,218.363604 C366.559203,219.475333 365.936635,221.609852 365.536412,223.077334 C365.358536,223.722137 365.208452,224.266884 365.056979,224.811631 L364.974044,225.109367 C364.807197,225.707245 364.632382,226.326773 364.411711,227.09785 L364.237018,227.706603 C363.909062,228.846563 363.482746,230.313678 362.868263,232.415856 C362.423572,233.883338 361.845473,235.795511 361.534189,236.640425 C361.296148,237.286535 360.850072,238.608762 360.414703,239.911102 L360.215321,240.508236 C360.149644,240.70512 360.085018,240.899 360.022238,241.08734 C358.954978,244.466995 358.33241,246.423638 357.398558,248.869441 C357.042805,249.847762 356.509175,251.359713 356.197891,252.204627 C355.041693,255.361937 352.773766,260.92058 352.151198,262.121247 C351.795445,262.832754 351.52863,263.588729 351.52863,263.811075 C351.52863,264.166828 350.594778,266.256878 347.437469,273.105127 C344.858258,278.619302 338.632577,290.848318 337.298502,293.116245 C337.076157,293.471998 334.941637,297.073999 332.540303,301.076222 C331.795274,302.31999 331.165338,303.371936 330.624526,304.273964 L330.276903,304.853567 C328.769452,307.365972 328.012173,308.612939 327.303884,309.725925 L327.147007,309.97151 C326.494341,310.989422 325.839145,311.964323 324.624795,313.794399 C323.467499,315.530343 320.782351,319.272082 317.990123,323.089077 L317.249479,324.09989 L316.755829,324.771788 C313.305658,329.462668 310.010915,333.835163 309.549753,334.250208 C309.282938,334.472554 307.770987,336.295789 306.214567,338.252431 C304.613678,340.209074 303.012788,342.121247 302.657035,342.52147 C302.283494,342.895011 300.515401,344.818054 298.618182,346.952863 L298.21012,347.413076 C293.362983,352.749374 281.801004,364.355822 276.420237,369.20296 C274.107841,371.24854 272.017791,373.116245 271.750976,373.38306 C271.484161,373.605405 269.838803,374.983949 268.148975,376.406962 C266.414678,377.874444 264.546974,379.430864 263.924406,379.964494 C261.643428,381.906152 256.485616,385.773691 251.066179,389.700557 L249.812086,390.60696 C249.672491,390.7076 249.532856,390.808184 249.393225,390.908681 L248.555847,391.510372 C242.002313,396.211506 235.653144,400.581745 234.085606,401.354155 C233.729853,401.487562 232.929408,401.976723 232.262371,402.421414 C231.65092,402.810519 229.354506,404.207129 226.979923,405.644993 L226.409345,405.990378 C225.173405,406.738285 223.951087,407.476445 222.968319,408.068996 C219.687426,410.013229 213.351715,413.352053 208.120403,415.980453 L207.458895,416.311973 C203.42055,418.330541 200.176329,419.853321 199.755423,419.853321 C199.222402,419.853321 196.236026,418.493753 192.477376,416.62251 L191.825784,416.296871 C190.179461,415.471034 188.408935,414.560116 186.646537,413.630858 L185.942325,413.258336 L185.240861,412.884806 C183.259054,411.825943 181.333012,410.766385 179.655367,409.803293 C178.187885,408.958379 176.586996,408.068996 176.097835,407.84665 C175.608675,407.579836 174.630353,407.001737 173.874378,406.512576 C173.162872,406.023415 172.140081,405.445316 171.65092,405.178502 C171.16176,404.911687 170.183438,404.333588 169.427463,403.844427 C168.715957,403.355266 167.782104,402.821637 167.426351,402.64376 C167.070598,402.465883 165.514178,401.487562 163.957758,400.420303 C162.401337,399.353043 161.067263,398.508129 160.978325,398.508129 C160.924962,398.508129 160.407341,398.187951 159.65599,397.691676 L159.178976,397.373931 C158.789019,397.112154 158.358202,396.818301 157.909953,396.507017 C157.223858,396.030562 156.341735,395.423422 155.428108,394.794112 L154.510073,394.161432 C153.593723,393.529399 152.70071,392.911369 151.995556,392.415856 C150.305729,391.304127 146.659258,388.591509 143.857702,386.41252 C129.049475,375.072887 124.246807,370.848318 111.617569,358.263549 C104.936873,351.545531 101.764476,348.273163 98.8404335,344.897314 L98.4682495,344.465519 C98.0350227,343.960464 97.6042278,343.449763 97.165095,342.921692 C95.8310205,341.365272 94.2746002,339.542037 93.6965013,338.919469 C93.2340222,338.421414 92.0600366,336.984171 90.8348226,335.427395 L90.4663818,334.957596 L90.098829,334.485543 L89.9166236,334.250208 C88.4046725,332.293565 86.9816597,330.47033 86.7148448,330.203515 C85.6475852,329.136256 76.6203479,316.773832 75.5975574,314.995066 C75.3307426,314.594844 73.8187915,312.237979 72.2179021,309.792176 C70.6170127,307.346373 68.7493084,304.455878 68.0822712,303.344149 C67.4152339,302.23242 66.7037275,301.031753 66.4813818,300.676 C65.7254063,299.519802 62.2123434,293.38306 61.9010594,292.671553 C61.7231828,292.3158 60.878269,290.714911 59.988886,289.114021 C55.7198476,281.242982 51.0505869,271.504238 47.5819932,263.099569 C46.6926103,260.876111 45.7587581,258.697123 45.4919432,258.252431 C45.2251283,257.763271 44.8693751,256.873888 44.6470294,256.25132 C44.2912762,255.006184 43.5353006,252.960603 42.0233496,249.091787 C41.4897198,247.757712 40.9116208,246.023415 40.6892751,245.311909 C40.3335219,244.066773 39.9777687,242.955044 38.6881633,239.308574 C38.4936108,238.780503 38.177463,237.835533 37.8700005,236.842794 L37.6876075,236.244371 C37.5680966,235.845539 37.4541444,235.450875 37.3540889,235.084005 C36.9093974,233.616523 36.2868293,231.615411 36.0200144,230.63709 C33.9299643,224.011186 30.861593,212.093454 29.3496419,204.844983 C28.9494196,202.88834 28.3268515,199.997846 28.0155675,198.396956 C27.2717199,194.855595 26.2691427,189.226756 25.2965011,183.34293 L25.1347209,182.360245 C23.4937795,172.352005 21.9848321,161.903955 22.0122323,159.931142 C22.0122323,159.175166 21.7454174,156.106795 21.345195,153.038424 C20.5938197,146.576596 19.7472271,135.036508 19.1808143,123.27151 L19.1128835,121.830104 C19.0796437,121.109169 19.0475117,120.388134 19.0165735,119.668111 L18.9563143,118.229748 C18.9367755,117.750964 18.9177928,117.27296 18.8993918,116.796067 C18.6477487,110.350133 18.5224965,99.9608039 18.5162996,88.8704269 L18.5163371,87.0663545 C18.5177754,84.6540967 18.524761,82.2172587 18.5372197,79.7886141 L18.5475887,77.969179 C18.6159464,67.0679311 18.7947585,56.4985159 19.0772684,49.2474287 L19.566429,35.951153 L23.7909982,35.1507083 C27.88216,34.3947328 32.4624824,33.6387572 41.4452506,32.3491519 C42.2456953,32.2305675 43.1647244,32.092219 44.1018705,31.9505765 L45.0413347,31.8084461 C46.60477,31.5717653 48.1255051,31.3411845 49.1384135,31.192954 C50.9616486,30.8816699 53.3629827,30.5703859 54.4747114,30.4814476 C55.5864402,30.3480402 58.5658732,29.992287 61.1450839,29.6365338 C69.0013003,28.5618626 72.3179577,28.1665813 75.8559314,27.8330627 L76.3293907,27.7889053 C76.8842653,27.7376889 77.4496152,27.6873027 78.0433607,27.635422 C80.6225713,27.4130763 83.779881,27.0128539 85.1139554,26.746039 C86.4035608,26.5236933 88.6270183,26.3013475 90.0055619,26.3013475 C91.3841055,26.3013475 94.4080077,25.9900635 96.7204035,25.6343103 C99.0327992,25.2785571 102.234578,24.9672731 103.835467,24.9672731 C105.436357,24.9672731 109.127296,24.655989 112.06226,24.3002358 C114.952755,23.9444826 118.954978,23.6331986 120.95609,23.6331986 C122.912733,23.5887294 126.025573,23.4108528 127.848808,23.1885071 C129.509978,22.9859254 134.973381,22.5987693 140.472058,22.3297408 L141.678175,22.2727017 L142.078936,22.2546549 C143.12952,22.2157444 144.219597,22.1713865 145.318902,22.123726 L146.734995,22.0607972 C151.456368,21.8460946 156.108953,21.5876177 158.310176,21.4542102 C161.255812,21.2460946 172.60996,21.153243 186.420154,21.1486837 Z M200.066707,243.933365 C199.266262,240.064549 198.732632,239.086228 198.287941,240.509241 C198.004955,241.414794 197.449847,242.952635 196.860298,244.501389 L196.606218,245.163998 C195.884279,247.033016 195.161625,248.78724 194.863816,249.314132 C194.641471,249.803293 194.241248,250.781614 194.063372,251.53759 C193.885495,252.249096 193.307396,253.983393 192.773766,255.317468 C192.240137,256.651542 191.662038,258.252431 191.439692,258.875 L191.393931,259.002892 C191.21157,259.511638 190.872884,260.446011 190.507924,261.401403 L190.307031,261.922179 C190.23972,262.094844 190.172321,262.265772 190.105617,262.432532 C190.005562,262.682671 189.90238,262.945316 189.799588,263.211968 L189.595568,263.748095 C189.22631,264.731552 188.893833,265.692676 188.771543,266.212409 C188.730368,266.34417 188.666318,266.541505 188.583628,266.791143 L188.475726,267.114964 C188.165574,268.040902 187.68191,269.448045 187.163544,270.901459 L186.869218,271.721017 L186.770431,271.993399 C185.881048,274.439202 184.991665,277.018413 184.813789,277.774388 C184.591443,278.485895 184.23569,279.597623 184.013344,280.220191 C183.746529,280.842759 183.212899,282.532587 182.768208,284.000069 C182.367985,285.467551 181.745417,287.379724 181.434133,288.224638 C181.122849,289.069552 180.54475,290.981726 180.144528,292.449207 C179.699836,293.916689 179.166207,295.695455 178.899392,296.451431 C178.677046,297.162937 178.321293,298.497012 178.143416,299.341926 C177.96554,300.186839 177.565317,301.609852 177.298502,302.454766 C174.763761,310.726028 174.719292,313.572053 177.254033,319.397512 C183.346307,333.62764 192.106729,351.059547 203.179547,371.159602 C204.380214,373.33859 205.403005,374.494788 205.714289,374.183504 C206.336857,373.560936 204.913844,368.358046 202.734856,363.155155 C201.578658,360.442537 200.42246,357.640981 200.111176,356.929474 C199.799892,356.173499 199.266262,354.883893 198.910509,354.03898 C198.474425,353.075003 197.61188,350.985647 196.750865,348.846996 L196.428891,348.044793 C195.73506,346.310787 195.077555,344.633037 194.68594,343.588729 C194.285718,342.610408 193.752088,341.187395 193.440804,340.475889 C192.862705,339.141814 191.973322,336.78495 190.817124,333.672109 C187.659814,324.867217 187.392999,323.266328 188.148975,316.951709 C188.94942,310.414744 189.97221,303.610964 190.639247,300.008963 C190.906062,298.541481 191.261815,296.318023 191.439692,295.117356 C191.795445,292.449207 192.59589,288.224638 194.774878,277.329697 C197.042805,265.945594 198.376879,259.808852 199.9333,253.761047 C200.867152,249.98117 200.911621,247.84665 200.066707,243.933365 Z M172.807118,189.547595 C172.540303,187.946706 171.739859,187.324138 171.206229,188.169052 C170.806007,188.79162 171.250698,193.950041 172.140081,199.508685 C172.495834,201.687673 172.762649,204.266884 172.762649,205.200736 C172.762649,206.979502 171.072821,210.848318 168.760426,214.272443 C168.00445,215.339702 167.426351,216.318023 167.426351,216.406962 L167.42177,216.430046 C167.351927,216.655557 166.492499,217.983764 165.469709,219.475333 C164.402449,221.031753 163.468597,222.499235 163.379659,222.721581 C163.068375,223.477557 157.821015,230.59262 148.66037,242.821637 C140.738685,253.36206 136.479598,258.890509 132.158262,264.142857 L131.668588,264.736538 C130.279291,266.416732 128.869128,268.086907 127.315178,269.903349 C124.647029,273.060658 123.757646,275.017301 122.957202,279.7755 L122.903973,280.089769 C122.843043,280.454112 122.786071,280.811675 122.731571,281.175975 L122.685428,281.490198 C122.320569,284.022221 122.051991,287.052612 121.400781,294.93948 C120.95609,300.053432 121.578658,301.832198 126.292388,308.635978 C127.086049,309.795944 129.341827,312.865044 131.670371,315.989389 L132.447342,317.03034 C134.947316,320.374722 137.353147,323.545202 137.943305,324.244649 C138.40282,324.829486 140.471268,327.297953 142.600364,329.917443 L143.012788,330.425861 C143.626922,331.171103 144.282816,331.963457 144.954715,332.772187 L145.404737,333.313429 C148.944053,337.566874 152.763799,342.080612 153.196223,342.477001 C153.329631,342.610408 153.996668,343.410853 154.708174,344.255767 C157.376323,347.546484 163.424128,353.99451 168.804895,359.375278 C173.207341,363.733254 175.163983,365.334144 177.698725,366.712687 C188.148975,372.182393 188.94942,372.493677 188.682605,371.070664 C188.593666,370.625972 186.548086,368.936145 184.102282,367.290786 C181.656479,365.645428 178.765984,363.333032 177.654256,362.176834 C173.74097,357.996734 168.715957,352.260214 164.269042,346.879446 C163.379659,345.812187 161.067263,343.01063 159.11062,340.698235 C157.720374,339.013088 155.462056,336.180489 153.148597,333.22133 L152.376517,332.231656 C150.06084,329.256975 147.780349,326.269166 146.347974,324.289119 C145.911224,323.733254 144.481858,321.794819 143.041098,319.803208 L142.695599,319.324881 L142.523627,319.086228 C138.387997,313.572053 135.764317,309.703237 132.562538,304.455878 L129.84992,300.008963 L129.938858,294.005628 C129.983327,290.448096 130.339081,286.356934 130.783772,284.000069 L131.584217,279.997846 L142.078936,269.547595 C142.477625,269.151973 142.874199,268.757409 143.267301,268.365317 L144.14535,267.487879 C149.08128,262.546137 153.287462,258.178827 153.952199,257.318579 C154.828672,256.138712 157.749522,250.563433 160.680677,244.48654 L161.054766,243.708341 L161.428026,242.926493 C161.490115,242.795981 161.55213,242.665392 161.614052,242.534763 L161.984307,241.750815 C162.47607,240.705719 162.959353,239.662892 163.424128,238.641537 C164.091165,237.174055 165.247363,234.683782 166.003338,233.082893 C166.986341,230.976459 167.740684,229.327344 168.479711,227.662364 L168.77501,226.994405 C169.809239,224.645734 170.8692,222.142312 172.540303,218.185728 C174.141193,214.272443 175.786551,210.403627 176.142305,209.603182 C176.89828,207.868885 176.942749,205.423082 176.320181,203.288563 C176.053366,202.443649 175.653144,200.931698 175.475267,199.953376 C175.319625,199.268552 174.967874,197.88645 174.587796,196.447696 L174.423661,195.829485 C174.313733,195.417523 174.20345,195.008407 174.096724,194.617079 C173.518625,192.660436 172.940526,190.392509 172.807118,189.547595 Z M257.96554,177.051764 C256.631465,177.051764 256.586996,177.229641 257.43191,180.298012 C257.743194,181.587618 258.365762,184.211298 258.810454,186.16794 C259.210676,188.124583 259.833244,190.926139 260.144528,192.393621 C260.500281,193.861103 261.07838,196.662659 261.478602,198.619302 C261.878825,200.575945 262.501393,203.466439 262.812677,205.067329 C262.832441,205.156267 262.852205,205.245891 262.871931,205.335966 L262.989524,205.87992 C263.280838,207.243846 263.546418,208.602626 263.657591,209.15849 C263.835467,209.825528 265.747641,212.226862 268.104506,214.717134 C277.131743,224.233532 281.97888,230.63709 283.668708,235.261881 C283.68556,235.310563 283.702096,235.35891 283.718324,235.407064 L283.766092,235.551085 L283.812059,235.694793 L283.856267,235.839038 L283.898763,235.984669 C284.488862,238.06159 284.576815,240.811163 284.735968,255.095122 C284.913844,272.527028 284.246807,286.757156 282.957202,291.559824 C282.468041,293.516467 280.377991,295.739925 275.308508,299.786617 C273.61868,301.120692 271.928853,302.543704 271.52863,302.899458 C271.128408,303.29968 269.927741,304.32247 268.816012,305.211853 C267.007007,306.684672 263.307672,309.805766 259.280295,313.234845 L258.606296,313.80898 C258.493546,313.905068 258.38061,314.001336 258.267521,314.097756 L257.587424,314.67786 L256.905269,315.260221 C256.563946,315.551736 256.222454,315.84358 255.881698,316.134977 L255.201434,316.716946 C250.450204,320.783342 245.961288,324.660845 244.215545,326.221125 L243.985082,326.428029 C243.703394,326.68227 243.525517,326.848763 243.468597,326.912798 C243.335189,327.046206 241.245139,328.958379 238.799336,331.092898 C231.684272,337.407518 225.102838,344.255767 223.991109,346.612632 C223.41301,347.768829 222.790442,348.702682 222.568097,348.702682 C222.167874,348.702682 221.32296,346.479224 220.077824,342.032309 C219.010565,338.252431 219.010565,331.404182 220.077824,327.135144 C220.291276,326.210186 220.580622,325.044896 220.858162,323.936106 L221.16079,322.728205 C221.288966,322.215868 221.40597,321.745483 221.500837,321.354155 C223.057257,315.217412 225.458591,306.768274 226.837135,302.677112 C227.192888,301.654321 227.459703,300.320247 227.459703,299.697679 C227.459703,299.030642 227.682049,298.363604 227.904395,298.230197 C228.171209,298.096789 228.349086,297.652098 228.349086,297.296345 C228.349086,296.851653 227.948864,297.073999 227.237357,297.918913 C226.614789,298.674888 226.125629,299.519802 226.125629,299.875555 C226.125629,300.231309 225.947752,300.676 225.725406,300.942815 C225.503061,301.165161 223.368541,305.92336 221.011676,311.570942 C218.654811,317.174055 216.431354,322.376945 216.12007,323.132921 C215.58644,324.378057 214.963872,325.934477 213.362983,330.247985 C212.96276,331.226306 212.429131,332.738257 212.117846,333.583171 C211.762093,334.428085 211.272933,336.117912 210.961649,337.363048 C210.428019,339.630975 210.605895,340.520358 212.251254,344.700458 C212.4736,345.323026 213.051699,346.70157 213.451921,347.813299 C213.571286,348.122242 213.688433,348.421208 213.805813,348.716673 L214.041612,349.304853 C214.595924,350.675338 215.190899,352.063613 216.075601,354.127918 C216.431354,354.928363 217.14286,356.751598 217.720959,358.130141 C219.010565,361.376389 219.855479,361.465328 221.36743,358.574833 C221.945529,357.418635 222.879381,355.773276 223.368541,354.928363 C223.857702,354.083449 224.702616,352.571498 225.236246,351.593176 C227.548641,347.368607 229.638691,344.878335 233.818791,341.231865 C236.264595,339.097345 238.710398,336.962826 239.288497,336.473666 C239.655367,336.106795 240.44261,335.424645 241.274518,334.730672 L241.730457,334.352793 C241.958383,334.165091 242.18455,333.980614 242.401337,333.805517 C243.557535,332.827195 245.247363,331.404182 246.092277,330.648207 C247.518524,329.42571 249.735689,327.567884 252.033361,325.661378 L253.020936,324.843033 C256.42529,322.025808 259.783924,319.285126 260.811565,318.508129 C261.923294,317.663215 263.035023,316.773832 263.257368,316.507017 C263.524183,316.240202 265.703172,314.416967 268.148975,312.460325 C270.594778,310.503682 272.862705,308.635978 273.173989,308.369163 C273.458205,308.084947 274.743355,307.059299 276.115542,306.003026 L276.509175,305.701014 C278.021126,304.544816 279.355201,303.477557 279.488608,303.344149 C279.622015,303.210742 280.42246,302.588174 281.267374,302.010075 C285.936635,298.808296 288.827129,295.47311 288.827129,293.294121 C288.827129,292.84943 289.093944,291.515355 289.449698,290.270219 C290.694834,285.823304 292.251254,277.374166 293.451921,268.880558 C295.275156,255.628752 295.764317,239.48645 294.697057,227.079558 C293.985551,218.941703 293.585328,218.05232 286.69261,208.891676 C278.732632,198.308018 270.594778,188.658212 263.390776,181.409741 C260.188997,178.119024 258.810454,177.051764 257.96554,177.051764 Z M125.936635,203.066217 C123.179547,202.310241 120.466929,202.176834 120.066707,202.843871 C119.799892,203.288563 119.977769,203.42197 121.845473,203.911131 C122.517681,204.066256 125.038762,204.927861 127.64339,205.857981 L128.269201,206.082199 C129.937487,206.681879 131.582148,207.288718 132.740415,207.735478 C134.074489,208.269107 135.675378,208.847206 136.297947,209.069552 C139.899948,210.270219 140.522516,210.714911 141.32296,213.071776 L142.167874,215.384171 L140.522516,218.497012 C139.633133,220.231309 138.121182,222.810519 137.14286,224.278001 C136.209008,225.745483 135.408564,226.990619 135.408564,227.124027 C135.408564,227.296442 134.712387,228.303479 133.710522,229.648472 L133.344866,230.1364 C130.956708,233.305239 127.270709,237.870738 126.648141,238.285783 C125.772183,238.869756 122.353282,240.172675 118.773611,241.378629 L118.031477,241.626486 C115.307637,242.528257 112.585821,243.341842 110.906062,243.71102 C108.816012,244.155711 108.193444,243.888896 104.413566,240.687117 C101.300726,238.018968 101.211788,237.974499 100.678158,238.908351 C99.9666514,240.242426 100.366874,246.734922 101.256257,248.424749 C102.367985,250.559269 103.257368,253.09401 104.057813,256.429196 C105.214011,261.45421 106.058925,264.700458 106.903839,267.546484 C107.615345,270.036756 107.748753,270.214633 109.127296,270.34804 C109.927741,270.436978 111.52863,270.214633 112.640359,269.81441 C113.796557,269.458657 115.886607,268.79162 117.265151,268.391398 C119.88883,267.590953 123.268486,265.056211 122.779325,264.300236 C122.601448,263.988952 121.756535,264.07789 120.377991,264.433643 C117.576435,265.234088 114.107841,266.079002 112.640359,266.301348 C111.662038,266.479224 111.350754,266.301348 110.772655,265.189619 C110.372432,264.433643 110.061148,263.321915 110.061148,262.699346 C110.061148,262.142312 109.811949,260.624078 109.504665,259.132077 L109.394111,258.608185 C108.993889,257.007295 108.727074,254.65043 108.816012,253.405294 C108.94942,251.270775 109.038358,251.092898 110.283494,250.692676 C111.03947,250.514799 112.329075,250.070108 113.173989,249.758824 C114.018903,249.44754 115.441915,248.958379 116.286829,248.691564 C117.131743,248.38028 118.465818,247.935589 119.177324,247.757712 C119.9333,247.535366 122.51251,246.645983 124.958313,245.7566 C125.048899,245.72366 125.139789,245.690659 125.230876,245.657636 L125.778888,245.459529 C127.973432,244.668479 130.156263,243.90866 130.828241,243.71102 C132.206785,243.310797 135.408564,240.464772 135.408564,239.708796 C135.408564,239.48645 135.942193,238.597067 136.564761,237.663215 C137.18733,236.729363 137.898836,235.573165 138.121182,235.084005 C138.343527,234.594844 138.788219,233.794399 139.055034,233.305239 C140.033355,231.837757 141.411899,229.436423 143.190665,226.190175 C144.124517,224.455878 145.369653,222.27689 145.903283,221.298568 C148.526963,216.629308 149.282938,214.761603 149.016123,213.294121 C148.838247,212.493677 148.438024,211.604294 148.082271,211.29301 C147.726518,210.981726 147.415234,210.492565 147.415234,210.22575 C147.415234,209.514244 145.280715,207.957823 143.857702,207.60207 C143.235134,207.468663 141.36743,207.023971 139.677602,206.623749 C137.987774,206.223527 136.253477,205.734366 135.808786,205.51202 C135.364094,205.245205 134.56365,205.067329 134.03002,205.067329 C133.49639,205.067329 131.984439,204.756045 130.650365,204.400291 C129.360759,204.044538 127.22624,203.42197 125.936635,203.066217 Z M277.576435,137.607629 C275.264039,136.406962 270.594778,136.4959 268.148975,137.785505 C267.659814,138.05232 266.370209,138.630419 265.25848,139.030642 C264.146751,139.475333 262.590331,140.097901 261.834356,140.409185 C261.033911,140.764938 259.699836,141.298568 258.943861,141.609852 L258.409354,141.831683 C256.532439,142.614485 254.558816,143.47949 251.473044,144.900569 C249.872154,145.656545 248.137858,146.41252 247.559759,146.590397 C246.759314,146.812743 246.625907,147.035089 247.026129,147.47978 C247.782104,148.369163 252.051143,148.769385 254.496946,148.191286 C258.52612,147.175234 260.650594,146.628455 262.610278,146.137722 L263.06038,146.025282 C263.135173,146.006646 263.209921,145.988045 263.284722,145.969456 L263.734957,145.857885 C263.885776,145.820619 264.0376,145.783215 264.191221,145.745483 C269.616457,144.32247 270.283494,144.544816 276.464706,149.125139 C279.488608,151.348596 282.02335,153.305239 282.156757,153.483115 C282.379103,153.74993 285.002783,155.884449 291.450809,161.042871 C292.829353,162.11013 294.341304,163.355266 294.785995,163.799958 C295.764317,164.689341 297.409675,165.489786 302.834912,167.713243 C307.192888,169.492009 310.705951,171.048429 313.062816,172.249096 C314.974989,173.182948 316.798224,175.095122 316.842694,176.117912 C316.842694,176.473666 317.109509,177.763271 317.465262,179.008407 C318.977213,184.344705 321.7343,205.556489 321.7343,211.559824 C321.7343,212.804961 321.334078,214.983949 320.800448,216.451431 C320.773272,216.530487 320.74596,216.610092 320.718586,216.690018 L320.554221,217.171584 C320.144528,218.375957 319.755423,219.549448 319.64425,219.920025 C319.415167,220.676 317.345085,224.854344 315.105851,229.202555 L314.709277,229.970988 C314.643002,230.099133 314.576666,230.22726 314.510311,230.355285 L314.112297,231.12156 C312.323287,234.558368 310.58265,237.800665 309.72763,239.219635 C308.615901,241.131809 306.881604,243.266328 305.591999,244.333588 C301.095934,248.073677 300.836263,248.075771 300.831414,252.143755 L300.831779,252.641571 C300.832132,252.814076 300.832638,252.993304 300.833054,253.179727 L300.8338,253.761047 C300.8338,256.562604 301.011676,258.875 301.189553,258.875 C301.767652,258.875 310.528074,246.557045 311.639803,244.20018 C311.81768,243.844427 312.35131,242.910575 312.84047,242.199069 C313.329631,241.443093 313.90773,240.464772 314.174545,239.975611 C314.44136,239.48645 315.241804,238.063438 315.99778,236.862771 C316.709286,235.617634 317.643138,234.016745 317.998892,233.305239 C318.354645,232.549263 319.377435,230.681559 320.222349,229.080669 C325.336301,219.831086 326.047808,218.007851 326.670376,212.627084 C327.826574,202.754933 327.159536,181.943371 325.469709,173.761047 C325.113955,172.07122 324.847141,170.159046 324.847141,169.44754 C324.847141,167.090675 323.513066,164.689341 321.334078,163.132921 C320.307092,162.377784 318.772313,161.304635 317.16524,160.202647 L316.627469,159.834646 L316.087928,159.466889 C313.301895,157.571538 310.588485,155.781247 310.172321,155.573165 C309.816568,155.395289 308.971654,154.906128 308.304617,154.461436 C307.326296,153.838868 303.41301,151.437534 298.832688,148.724916 C298.343527,148.413632 297.543083,147.968941 297.053922,147.746595 C296.564761,147.47978 294.963872,146.590397 293.49639,145.745483 C292.332525,145.075379 289.630218,143.65004 286.920194,142.290289 L286.214063,141.937599 C285.744534,141.704184 285.278798,141.474911 284.824906,141.254099 C281.534189,139.608741 278.243472,137.963382 277.576435,137.607629 Z M133.540859,222.810519 C133.451921,222.588174 132.073377,223.477557 130.472488,224.767162 C127.581993,227.035089 121.845473,231.65988 120.066707,233.127362 C114.597002,237.663215 113.173989,238.99729 113.351865,239.219635 C113.663149,239.48645 116.598113,238.686006 118.86604,237.707684 C119.666485,237.351931 120.511398,237.085116 120.778213,237.085116 C121.045028,237.085116 122.067819,236.684894 123.135078,236.195733 C124.60256,235.573165 125.758758,234.372498 128.115623,231.215189 C129.805451,228.947262 131.762093,226.234644 132.429131,225.167384 C133.140637,224.100125 133.629798,223.077334 133.540859,222.810519 Z M91.7398587,214.40585 C89.8276853,214.450319 85.1584246,217.741036 85.1584246,219.075111 C85.1584246,219.341926 86.2701533,220.853877 87.6042278,222.410297 C88.9383023,224.011186 90.050031,225.434199 90.050031,225.612076 C90.050031,225.834421 90.3168459,225.967829 90.62813,225.967829 C91.2951672,225.967829 92.71818,219.297456 92.71818,216.273554 C92.71818,214.628196 92.5847726,214.40585 91.7398587,214.40585 Z M125.625351,142.721581 C125.625351,142.143482 124.06893,142.321359 123.490831,142.899458 C123.179547,143.210742 122.02335,143.966717 120.95609,144.589285 C116.820459,146.901681 108.860481,151.926695 107.259592,153.171831 C106.32574,153.883338 104.76932,155.528696 103.790998,156.773832 C98.4102312,163.799958 97.4319099,164.867217 94.185662,167.179613 C92.6917765,168.2566 89.5965239,170.527828 86.5538586,172.80584 L85.8254754,173.352085 C85.2207422,173.806385 84.6234051,174.257156 84.0466959,174.6949 C66.4369126,187.946706 63.3685413,191.281892 65.4585914,194.883893 C66.8816041,197.240758 67.3707648,197.107351 72.8404702,192.927251 C74.7526436,191.459769 76.4424713,189.947818 76.5758787,189.547595 C77.0650394,188.213521 79.8665958,185.056211 80.3557564,185.323026 C81.1562011,185.856656 80.0000033,190.303571 78.443583,192.482559 C78.1141819,192.976661 76.6029018,194.728892 75.0393762,196.468414 L74.6637053,196.885005 C70.7948893,201.198513 69.5942223,202.799402 69.5942223,203.777723 C69.5942223,204.756045 75.2862734,212.226862 78.132299,214.983949 C81.4674852,218.230197 81.423016,218.274666 83.3796586,208.402515 C84.2245725,204.000069 85.0694863,203.110686 89.1606481,202.39918 C90.2723768,202.221303 92.0511428,201.86555 93.1628715,201.598735 C94.2746002,201.33192 96.8093418,200.79829 98.8549227,200.398068 C100.856034,200.042315 104.057813,199.419747 105.969987,199.108463 C107.837691,198.752709 110.861593,198.21908 112.640359,197.907796 C118.110064,196.973943 118.154534,197.107351 111.573099,190.392509 C110.896533,189.706414 110.232218,189.036654 109.602471,188.405983 L108.985073,187.789184 C106.970996,185.782238 105.423651,184.293883 105.169542,184.166828 C104.813789,183.988952 101.923294,183.54426 98.7659844,183.232976 C94.6748226,182.788285 92.9849949,182.477001 92.8071183,182.032309 C92.5403034,181.276334 94.2301311,179.89779 95.8310205,179.586506 C96.4535886,179.453099 98.054478,178.919469 99.3885524,178.385839 C100.722627,177.896678 103.257368,176.962826 104.947196,176.384727 C106.681493,175.806628 108.549197,175.139591 109.171765,174.917245 C109.571988,174.774309 110.284628,174.484352 111.037962,174.189144 L111.543232,173.993117 C111.795899,173.89627 112.046378,173.80234 112.284606,173.716578 C113.396335,173.271887 114.908286,172.693788 115.619792,172.382504 C116.375768,172.07122 117.79878,171.493121 118.86604,171.092898 C119.20697,170.959491 119.622015,170.801378 120.063413,170.635031 L120.967192,170.296236 C121.574266,170.069559 122.17158,169.847762 122.645918,169.669886 C123.668708,169.269663 125.13619,168.691564 125.847696,168.38028 C126.603672,168.068996 128.071154,167.446428 129.182883,167.001737 C131.272933,166.201292 135.408564,162.599291 135.408564,161.62097 C135.408564,160.820525 135.364094,160.820525 132.384661,162.821637 C130.828241,163.888896 128.337969,165.000625 126.425795,165.534255 C124.647029,166.023415 122.201226,166.690453 120.95609,167.046206 C116.998336,168.113465 114.018903,168.291342 111.884383,167.535366 C109.794333,166.82386 108.638136,166.957268 103.879937,168.424749 C101.700948,169.091787 99.3885524,169.225194 99.3885524,168.691564 C99.3885524,168.202404 103.435245,165.222971 104.502505,164.911687 C104.991665,164.778279 106.503616,164.244649 107.837691,163.71102 C109.171765,163.17739 110.728186,162.64376 111.306285,162.510353 C113.08505,162.11013 113.929964,160.464772 114.196779,156.90724 C114.552532,151.793288 115.086162,150.992843 120.689275,146.768274 C123.401893,144.722693 125.625351,142.899458 125.625351,142.721581 Z M224.302393,137.296345 C220.8338,135.517579 220.8338,135.517579 217.009453,136.406962 C215.541971,136.718246 212.651476,137.296345 210.561426,137.696567 C210.034384,137.795387 209.545407,137.887376 209.067888,137.977882 L208.711482,138.045567 C206.107496,138.541115 203.648944,139.032289 196.909397,140.409185 C190.372432,141.698791 188.682605,142.410297 187.34853,144.36694 C185.125073,147.657657 185.302949,149.0362 188.015567,149.0362 C188.682605,149.0362 190.550309,149.347484 192.151198,149.747707 L194.997224,150.503682 L198.465818,149.0362 C200.333522,148.235756 202.690387,147.301903 203.668708,146.94615 C204.647029,146.590397 206.070042,146.012298 206.781549,145.701014 C207.537524,145.38973 208.916068,144.8561 209.894389,144.455878 C210.87271,144.100125 212.562538,143.433087 213.629798,142.988396 C214.785995,142.499235 216.698169,142.143482 218.165651,142.143482 C220.255701,142.143482 220.922738,142.365828 221.85659,143.210742 C223.324072,144.589285 224.791554,147.435311 224.791554,148.858324 C224.791554,149.56983 223.146196,152.104572 220.122293,156.151264 C215.008341,162.910575 214.741526,163.66655 216.075601,167.490897 C216.431354,168.469219 217.053922,170.47033 217.454144,171.937812 C217.898836,173.405294 218.476935,175.317468 218.788219,176.162381 C219.099503,177.007295 219.677602,178.919469 220.122293,180.386951 C221.589775,185.545372 223.235134,188.613743 224.48027,188.613743 C224.969431,188.613743 224.702616,185.723249 223.991109,182.832754 C223.724295,181.721025 223.190665,179.230753 222.790442,177.27411 C222.39022,175.317468 221.767652,172.515911 221.411899,171.048429 C221.056146,169.580947 220.744862,167.35749 220.700392,166.112354 C220.700392,164.066773 220.922738,163.488674 223.279603,159.886673 C224.747085,157.707684 225.992221,155.706573 226.125629,155.484227 C226.259036,155.217412 226.926073,154.150152 227.682049,153.038424 C228.838247,151.259658 228.971654,150.726028 228.882716,147.880002 C228.838247,146.190175 228.526963,143.877779 228.12674,142.854988 C227.770987,141.787729 227.459703,140.453654 227.459703,139.920025 C227.459703,139.11958 226.837135,138.58595 224.302393,137.296345 Z M124.06893,157.040647 C121.48972,157.040647 120.733744,157.841092 120.733744,160.598179 C120.733744,161.798846 120.911621,162.866106 121.133967,162.999513 C121.356312,163.132921 122.51251,162.999513 123.757646,162.732698 C126.870487,161.976723 128.382438,159.397512 126.69261,157.752154 C126.292388,157.307462 125.225128,157.040647 124.06893,157.040647 Z M168.982771,125.156267 C165.158425,125.111798 163.157313,125.289674 161.867708,125.778835 C157.598669,127.379724 156.442471,127.824416 155.108397,128.402515 C154.307952,128.758268 152.973878,129.291898 152.217902,129.603182 L151.87355,129.743149 C151.70238,129.813187 151.532348,129.883477 151.361784,129.954766 L151.019454,130.098902 C149.127296,130.901431 147.036134,131.885561 142.523627,134.050097 C137.098391,136.673777 136.698169,137.02953 131.183994,143.922248 C126.781549,149.436423 126.247919,149.925583 122.957202,151.215189 C121.445251,151.837757 120.022238,152.682671 119.799892,153.127362 C119.787482,153.150114 119.775024,153.172312 119.762668,153.193964 L119.726054,153.257283 L119.690951,153.317358 L119.658257,153.374224 C119.252794,154.092792 119.686134,154.007437 129.84992,153.483115 C138.387997,152.993955 140.122293,152.682671 147.63758,150.281336 C149.861037,149.614299 152.751532,148.680447 154.085606,148.324694 C155.419681,147.924472 157.242916,147.346373 158.08783,146.990619 C158.932744,146.679335 160.17788,146.323582 160.844917,146.190175 C162.534745,145.834421 164.402449,144.100125 165.558647,141.876667 C166.136746,140.809408 166.98166,139.297456 167.426351,138.58595 C167.463979,138.527798 167.50187,138.468857 167.539842,138.40943 L167.767187,138.049466 C168.142857,137.447908 168.49019,136.858495 168.627018,136.584838 C168.804895,136.229085 170.0945,133.916689 171.517513,131.515355 C172.940526,129.114021 174.185662,126.712687 174.230131,126.179057 C174.319069,125.289674 174.141193,125.245205 168.982771,125.156267 Z M219.677602,102.788285 C210.116735,102.343593 198.999447,102.343593 188.549197,102.832754 C169.027241,103.722137 164.046696,104.07789 162.534745,104.744927 C161.378547,105.234088 160.311287,106.390286 158.57699,109.013966 C155.819903,113.149597 154.886051,114.172387 149.371877,118.797179 C144.257924,123.155155 139.27738,126.890564 134.385773,130.092343 C132.206785,131.515355 130.339081,132.982837 130.205673,133.33859 C129.84992,134.272443 130.428019,134.628196 131.317402,134.005628 C131.717624,133.694344 132.384661,133.33859 132.740415,133.160714 C133.033388,133.014227 133.9597,132.505833 134.972941,131.933572 L135.410917,131.685276 L135.630909,131.559824 C136.831576,130.848318 139.143972,129.558713 140.744862,128.66933 C142.345751,127.824416 144.257924,126.757156 144.969431,126.312465 C145.725406,125.867773 147.326296,124.97839 148.526963,124.355822 C151.017235,123.066217 154.619236,121.109574 159.199559,118.574833 C160.355756,117.952265 162.618742,116.756539 165.03984,115.50152 L165.769964,115.12375 L166.870487,114.557169 C167.480702,114.244032 168.085977,113.935218 168.671487,113.638757 L175.030576,110.392509 L182.456924,109.681003 C188.237913,109.102904 195.397446,108.925027 215.008341,108.880558 L240.133411,108.79162 L241.823238,109.85888 C242.757091,110.436978 243.424128,111.015077 243.29072,111.104016 C243.157313,111.237423 239.911065,111.504238 236.042249,111.682115 C234.851844,111.750529 233.522506,111.831573 232.173413,111.920066 L231.159751,111.987751 C228.456707,112.171538 225.79382,112.379938 224.124517,112.571498 C221.456368,112.838313 216.12007,113.327473 212.340192,113.727696 C211.051494,113.845675 209.657226,113.987732 208.232228,114.143282 L207.374141,114.238147 L206.51227,114.335743 L205.650209,114.435561 C200.914936,114.989741 196.334021,115.621718 194.597002,115.951153 C193.841026,116.12903 193.663149,116.306906 194.018903,116.662659 C194.330187,116.973943 196.375768,117.062882 199.977769,116.885005 C202.560685,116.809037 209.134302,116.505956 215.597067,116.22518 L216.54157,116.184279 C217.327203,116.150376 218.108212,116.116986 218.877157,116.08456 C224.38908,115.861652 227.703211,115.740322 229.821075,115.733195 L230.163148,115.733066 C232.206408,115.738823 233.044794,115.865956 233.765631,116.128171 L233.881665,116.171879 C233.920114,116.186844 233.958391,116.202207 233.996668,116.217968 C234.646304,116.496383 236.092182,117.0976 237.64566,117.737178 L238.231913,117.978262 C238.722419,118.179738 239.215026,118.381489 239.688719,118.574833 C243.557535,120.175722 250.050031,123.110686 252.362427,124.355822 C254.007785,125.200736 258.854923,125.867773 266.414678,126.312465 C273.08505,126.668218 273.08505,126.668218 277.087274,128.580391 C279.266262,129.647651 282.468041,131.337479 284.157869,132.360269 C285.892166,133.33859 287.581993,134.316912 287.937746,134.494788 C288.2935,134.672665 289.227352,135.206295 289.938858,135.695455 C290.694834,136.184616 291.673155,136.762715 292.162316,136.985061 C292.651476,137.207406 293.807674,137.918913 294.741526,138.541481 C295.675378,139.164049 296.520292,139.697679 296.609231,139.697679 C296.698169,139.697679 298.032243,140.542593 299.588664,141.565383 C301.145084,142.632643 303.057257,143.83331 303.813233,144.233532 C305.280715,145.078446 307.504172,145.300792 307.504172,144.633754 C307.504172,144.428085 304.488796,141.311673 301.058091,137.875769 L300.498531,137.316204 L299.934153,136.753494 C296.255381,133.090974 292.427463,129.384727 291.495278,128.66933 C290.38355,127.824416 288.115623,126.445872 284.380214,124.444761 C283.268486,123.822192 281.667596,122.932809 280.822683,122.443649 C279.977769,121.910019 278.287941,120.976167 277.042805,120.353599 C276.207558,119.889573 274.59759,119.038186 272.946453,118.15873 L272.32678,117.82832 C271.811165,117.553051 271.300484,117.279427 270.817124,117.018413 C268.858141,115.965196 264.614232,113.794461 260.311506,111.631078 L259.355281,111.150904 C254.896826,108.914926 250.552454,106.776465 248.804895,105.990063 C245.202894,104.344705 242.001115,103.766606 235.019459,103.499791 C231.239581,103.321915 224.346863,103.01063 219.677602,102.788285 Z M76.5904306,55.4235572 C74.6797445,54.7963549 72.2746386,54.9941718 60.7003924,56.3180235 C51.9399699,57.3408139 47.6709315,57.8744437 46.8260177,58.1412586 C46.1345767,58.3446236 46.0383503,59.2176051 46.0269602,68.2797788 L46.0262202,69.0223655 C46.0261239,69.1490892 46.0260402,69.2773044 46.0259679,69.407029 L46.0259571,71.9171889 C46.0340774,80.956711 46.1726633,83.7595936 46.603672,83.8888962 C46.8704869,83.9778345 47.8488081,83.9333653 48.693722,83.7554887 L50.2501422,83.3997355 L50.472488,79.664327 L50.6948337,75.8844493 L53.3629827,75.3508195 C54.4024491,75.1303266 56.4682572,74.8428984 58.5805483,74.5991641 L59.3263973,74.5151347 C59.9468873,74.4469222 60.5614263,74.3836155 61.1450839,74.328029 C63.9466403,74.1056833 67.3262956,73.7054609 68.6603701,73.438646 C69.9499755,73.2163003 71.8621489,72.9939546 72.8849393,72.9494854 C75.5975574,72.9494854 78.4880522,71.348596 79.6887192,69.2140768 C80.533633,67.7465949 80.7115096,66.7682736 80.7115096,63.3886183 C80.7115096,59.9200246 80.5781022,59.1195799 79.6887192,57.8299746 C79.1550894,56.9850607 78.1767681,56.0956777 77.5986692,55.8288628 C77.3006748,55.693922 77.025429,55.5760426 76.7444389,55.4762134 Z M326.181215,54.983949 C318.754867,53.8277511 317.954422,54.0500969 318.265706,56.8516533 C318.399114,58.0078512 318.57699,58.1412586 321.511954,58.6304193 C323.246251,58.9417033 326.44803,59.2974565 328.627018,59.4753331 C330.850476,59.6532097 332.896057,59.9644937 333.207341,60.2313086 C333.593269,60.5314754 333.731101,63.0645153 333.740454,70.1829197 L333.740993,71.3869316 C333.741009,71.5167728 333.741035,71.645098 333.741076,71.7719246 L333.741937,72.873366 C333.75516,82.4305534 333.94315,82.4948401 336.498058,82.2435377 L337.96554,82.1101302 L338.098947,71.8822258 C338.143416,66.1012364 338.410231,61.4764448 338.632577,61.2540991 C339.210678,60.6760001 343.257368,60.8538767 348.148975,61.6987906 C350.327963,62.0545438 352.373544,62.2768895 352.684828,62.1434821 C353.485273,61.832198 353.485273,59.0306416 352.773766,58.4080735 C352.462482,58.1857278 350.283494,57.7410363 347.971098,57.4742214 C345.658703,57.1629373 341.656479,56.6737767 339.077268,56.3180235 C336.498058,55.9178011 333.518625,55.6509862 332.406896,55.6509862 C331.295167,55.6509862 328.493611,55.3397022 326.181215,54.983949 Z M124.335745,51.9155777 C123.802116,50.6259723 123.401893,50.5815032 118.287941,51.2040713 C116.820459,51.3819479 113.929964,51.5598245 111.839914,51.6042936 C109.749864,51.6487628 105.569764,51.9600468 102.501393,52.3158 C102.160463,52.3553282 101.812396,52.3943073 101.461095,52.4323714 L100.755341,52.5071712 C98.1602523,52.7761686 95.5312655,52.9828373 94.4080077,52.9828373 C93.0294641,52.9828373 91.7843279,53.1607139 91.6509204,53.3830596 C91.4690012,53.6660451 91.3789603,58.9564038 91.3724453,64.6769206 L91.3729882,66.4014031 C91.3841055,72.7382569 91.4952784,79.0417589 91.6953896,79.2196355 C91.8732662,79.3975121 94.4524768,79.2641046 97.3874407,78.9528206 C97.5148388,78.9383982 97.6418146,78.9241381 97.7685798,78.9100212 L98.1484546,78.8680805 C102.57789,78.3833296 107.008401,78.050217 120.511398,77.0406472 C124.024461,76.7738323 124.06893,76.7738323 124.335745,75.4397578 C124.469153,74.6837822 124.469153,73.8388684 124.380214,73.5275843 C124.1134,72.7716088 117.665373,72.816078 110.283494,73.6165226 C102.768208,74.4614365 96.4091194,74.6393131 95.8310205,74.0612141 C95.5642056,73.7943992 95.386329,72.3269173 95.4752673,70.7260279 L95.6086747,67.8800024 L100.944973,67.3463726 C103.879937,67.0350885 109.43858,66.590397 113.307396,66.4125204 C120.600337,66.0122981 121.133967,65.8344215 121.178436,64.0111863 C121.178436,61.8766672 121.045028,61.832198 114.330187,62.0990129 C110.906062,62.2324204 105.391888,62.6771119 102.101171,63.0328651 C98.4547003,63.4775566 96.0088971,63.5664949 95.7420822,63.29968 C95.5197364,63.0773342 95.386329,61.6098523 95.4752673,60.053432 L95.6086747,57.2518756 L103.16843,56.4514309 C103.548439,56.4150471 103.932859,56.3790307 104.318948,56.3435824 L105.47949,56.2391417 C108.95971,55.9321342 112.353331,55.6873701 113.663149,55.6509862 C115.264039,55.6509862 118.154534,55.5175788 120.022238,55.3397022 C122.912733,55.1173564 123.57977,54.8950107 124.1134,54.094566 C124.60256,53.3385905 124.647029,52.8049607 124.335745,51.9155777 Z M297.18733,52.4047383 C287.404117,51.4708862 279.710954,51.1596021 277.709842,51.6487628 C276.864928,51.8711085 275.70873,52.5381458 275.175101,53.205183 C275.086162,53.3062493 275.004942,53.4007003 274.930771,53.4958529 L274.858925,53.5915104 C274.233016,54.4594105 274.160081,55.5816969 274.152998,62.2923622 L274.15231,73.3941769 L275.70873,74.9505971 C276.598113,75.8399801 277.887719,76.5959557 278.688163,76.7293631 C283.535301,77.574277 293.185106,78.3302525 299.544194,78.4191908 C301.14429,78.4501604 302.404088,78.4715441 303.407038,78.4755536 L304.061378,78.4754579 C306.522804,78.4632062 307.162227,78.303934 307.751767,77.8322434 L307.849866,77.7507072 C307.882614,77.7225453 307.915512,77.6933907 307.948864,77.6632153 C309.994445,75.8399801 310.172321,74.8171897 310.172321,66.4569896 L310.172232,66.0679116 C310.168875,59.050976 310.066707,58.3786921 309.149531,56.762715 C307.504172,53.8277511 305.903283,53.2496522 297.18733,52.4047383 Z M251.69539,49.4697745 C239.332966,48.8027372 229.238469,48.8027372 229.238469,49.5142436 C229.210868,50.793115 229.196591,52.5916568 229.192882,54.6428462 L229.192034,55.3355671 C229.191104,56.7382583 229.194735,58.240051 229.202111,59.7618274 L229.206106,60.5240146 L229.210703,61.2873347 C229.25227,67.7741436 229.356542,74.1455522 229.460815,74.328029 C229.905506,75.0395354 232.173433,75.217412 247.026129,75.6176344 C251.545973,75.742148 254.793288,75.8317978 257.10974,75.8367983 L257.591999,75.836556 C262.820904,75.8189773 262.859636,75.296355 262.389333,73.5865805 L262.34598,73.4302748 L262.323516,73.3497077 L261.878825,71.8822258 L257.254033,71.7932875 C256.974203,71.7867798 256.694426,71.7799812 256.41486,71.7729012 L255.576956,71.7508269 C255.437465,71.7470105 255.298065,71.7431261 255.158778,71.739175 L254.324565,71.7146778 C243.917733,71.3986999 234.366521,70.7211472 234.041137,70.1923981 C233.418569,69.2140768 233.640915,64.6782236 234.352421,64.1001246 C234.601292,63.8965027 235.322106,63.7849672 237.018509,63.7772306 L237.383575,63.7771149 C239.02728,63.7830647 241.483088,63.8730979 245.113955,64.0556555 C250.717068,64.3224704 255.964428,64.6782236 256.853811,64.811631 C258.810454,65.0784459 259.610898,64.3224704 259.388552,62.2324204 L259.255145,60.7649384 L255.475267,60.4091852 C253.743512,60.2618018 249.538872,60.02283 245.365634,59.8440448 L244.503475,59.8079634 C243.930096,59.784548 243.3606,59.7624767 242.80156,59.742148 L233.90773,59.4308639 L233.90773,53.205183 L239.244028,53.2941213 C242.178992,53.3385905 248.360203,53.6054054 252.984995,53.9166894 C260.944973,54.40585 261.434133,54.3613809 262.012232,53.6054054 C262.946084,52.3602692 262.723739,50.8038489 261.61201,50.3591574 C261.033911,50.1368117 256.586996,49.7365893 251.69539,49.4697745 Z M169.205117,49.0695521 C168.093388,48.9806138 167.026129,49.0695521 166.848252,49.2474287 C166.670376,49.4253053 166.536968,54.0500969 166.536968,59.4753331 L166.536483,60.2778618 C166.527345,67.5745876 166.386693,69.4992928 165.9144,70.0145215 C165.113955,70.7704971 161.645362,71.1262503 150.038914,71.4820035 C147.017748,71.5921501 145.037771,71.6633218 143.718741,71.6679362 L143.389389,71.6676121 C141.290332,71.6551437 141.090353,71.4341136 140.789331,70.8594354 C140.478047,70.2813364 140.30017,66.5459279 140.30017,60.3647161 L140.300033,59.2694138 C140.299988,59.1520478 140.299927,59.0361103 140.299846,58.921585 L140.299075,58.2512514 C140.28466,49.6449183 140.08044,49.6502669 137.18733,50.2702191 L135.630909,50.5815032 L135.497502,60.0979012 C135.485214,61.1546286 135.477454,62.1291158 135.475819,63.0287291 L135.475954,63.7816615 C135.495054,71.9884868 136.117144,73.5287546 138.74375,74.8616588 C138.928936,74.9591255 139.101305,75.0464449 139.275664,75.1243194 L139.407038,75.1809654 C140.244365,75.5286463 141.210114,75.6671888 143.891228,75.6718628 L144.329048,75.6714992 C146.063777,75.6659254 148.457518,75.612761 151.862149,75.5286961 C171.65092,75.0840046 171.517513,75.217412 171.339636,58.9861724 L171.206229,49.2029596 Z M284.06893,55.6509862 C286.826018,55.6509862 291.539748,55.9622703 294.608119,56.3180235 C297.67649,56.6737767 301.011676,56.9850607 302.034467,56.9850607 C303.501949,56.9850607 304.080048,57.2074065 304.791554,58.1412586 C305.636468,59.2085182 305.725406,59.9200246 305.725406,65.701014 C305.725406,72.237979 305.325184,74.2835599 303.991109,74.3724982 C302.123405,74.5503748 296.297947,74.2390907 288.604784,73.5720535 C278.809773,72.7525506 278.158312,73.0973949 278.145634,67.123594 L278.145679,66.6964711 C278.147125,65.9671992 278.154534,65.1501411 278.154534,64.2335321 C278.154534,60.3647161 278.376879,56.9850607 278.599225,56.4959001 C279.043917,55.7399245 279.577546,55.6509862 284.06893,55.6509862 Z M204.338762,48.5909739 L202.159681,48.5911635 C202.013262,48.591374 201.866722,48.5916239 201.720128,48.5919129 L200.840441,48.5941173 L199.962614,48.5972573 C194.123645,48.6212957 188.619149,48.7073034 187.659814,48.8472064 C185.658703,49.1584904 183.657591,50.8927872 183.079492,52.893899 C182.768208,53.9611586 182.545862,57.5631597 182.545862,62.1434821 C182.590331,68.2802247 182.723739,69.9255832 183.346307,71.2151886 L183.435567,71.3930193 C184.872043,74.2391441 185.373211,74.2417589 201.889942,74.3724982 C203.534572,74.3899942 205.127573,74.3988857 206.627984,74.4005267 L207.735291,74.4004191 C213.299583,74.3931373 217.352813,74.2842889 217.587552,74.1501524 C217.987774,73.9278067 218.121182,71.8377567 218.121182,66.9906194 C218.121182,66.7593798 218.121123,66.5358433 218.120969,66.3197341 L218.120185,65.6934122 C218.111051,60.8566784 218.02617,60.1391592 217.363036,59.7277022 L217.277096,59.6775883 L217.231799,59.6532097 C216.698169,59.3419256 213.274044,59.2529873 208.026685,59.2974565 L199.666485,59.4308639 L199.533077,61.0317533 C199.444139,61.9656055 199.622015,62.8105193 200.022238,63.1218034 C200.377991,63.4330874 203.04614,63.6554331 206.826018,63.7443714 L213.007229,63.8777789 L213.007229,70.1034598 L200.733744,70.2368673 C198.528074,70.2546549 196.710176,70.2671063 195.208897,70.2703081 L193.810523,70.2702817 C189.050809,70.2578172 188.229019,70.1034598 187.837691,69.6142992 C187.037246,68.6359779 186.948308,54.1835043 187.704283,53.4275288 C188.047977,53.083835 191.878124,52.9476682 200.357578,52.9388315 L201.652339,52.9382833 C208.691879,52.9351776 214.704998,52.8470475 215.141749,52.7160224 C216.164539,52.4047383 216.209008,49.2029596 215.186218,48.8027372 C214.854948,48.6663318 209.938224,48.5982386 204.338762,48.5909739 Z M67.9043946,59.6532097 C75.968334,59.0132145 76.2543183,58.9463321 76.2642529,63.3017121 L76.2642921,64.1620554 C76.2578433,66.9223192 76.1412287,67.2402204 75.1083968,68.057879 C74.3079521,68.680447 73.2851617,68.9917311 71.8621489,68.9917311 C70.7504201,68.9917311 67.5041722,69.3030151 64.7026158,69.6587683 C54.0300199,70.9928428 51.361871,71.2596577 50.9171795,70.9928428 C50.6503646,70.8594354 50.4722828,68.9472619 50.4722828,66.5459279 L50.472355,65.6672703 C50.4811485,61.484865 50.7413553,61.5298078 56.8760455,60.9872842 C59.410787,60.7649384 61.9899977,60.4536544 62.6125658,60.3202469 C63.2351339,60.1423703 65.636468,59.8755554 67.9043946,59.6532097 Z" id="peugeot" fill="#FFFFFF"></path>
</svg>