<?xml version="1.0" encoding="UTF-8"?>
<svg width="400px" height="330px" viewBox="0 0 400 330" version="1.1" xmlns="http://www.w3.org/2000/svg">
    <title>piaggio</title>
    <path d="M200.001465,0.50924082 L400.000003,83.0363736 L400.000003,245.930395 L200.001465,329.762805 L3.25140331e-06,245.930395 L3.25140331e-06,83.0363736 L200.001465,0.50924082 Z M197.604242,56.9453569 C190.327794,92.8456661 109.626168,108.278649 65.0407487,133.911055 C50.5784794,142.4794 42.1940467,156.146419 42.1940467,171.512997 C42.1940467,198.909291 72.3171967,221.144656 109.626168,221.144656 C130.865288,221.144656 149.619145,212.128008 166.962378,203.47044 L168.404405,202.750008 C173.200431,200.352678 177.889915,198.003151 182.495892,195.90238 L182.495892,270.319778 L216.214876,270.319778 L216.214876,197.211808 C239.152205,207.871917 271.026497,218.988562 300.60004,218.988562 C329.524578,214.280018 356.607348,198.911366 356.607348,171.512997 C356.607348,156.995161 347.579758,143.720347 334.3161,134.761871 L334.962181,133.911055 C319.852486,125.452361 299.887439,117.876591 279.873944,110.307189 L276.235663,108.93081 C236.838352,94.016561 198.38334,78.9209115 197.604242,56.9453569 Z M218.053722,114.688825 L306.584326,151.437876 C318.009139,156.995161 318.65522,166.412248 318.65522,171.512997 C318.65522,183.086177 304.836108,192.89547 288.529146,192.89547 C281.153389,192.89547 266.421644,187.793216 251.995241,182.168414 L250.299888,181.504538 C237.037895,176.289617 224.290389,170.783432 218.053722,168.570417 L218.053722,114.688825 Z M179.549062,114.68675 L179.549062,168.111806 L124.088437,191.195912 L122.892749,190.803706 L121.69423,191.085527 C118.493474,191.831014 115.236254,192.503264 111.47086,192.503264 C94.6113681,192.503264 81.3447867,183.088253 81.3447867,171.120791 C81.3447867,165.104895 84.9376974,160.004146 90.3723767,156.146419 L90.3723767,155.295603 L95.1638987,153.137434 C95.8099795,153.137434 96.3625101,152.745228 96.3625101,152.286617 L179.549062,114.68675 Z" id="piaggio" fill="#FFFFFF"></path>
</svg>