<?xml version="1.0" encoding="UTF-8"?>
<svg width="400px" height="143px" viewBox="0 0 400 143" version="1.1" xmlns="http://www.w3.org/2000/svg">
    <title>royal-enfield</title>
    <path d="M36.2990623,2.05530569 C40.9812548,3.80911661 45.3094671,7.42400518 46.8326545,12.3153678 C48.4470187,17.7859706 47.5888849,24.0288939 44.2099832,28.673543 C41.1850616,32.358155 36.5135958,34.0636959 32.0030301,35.1095464 C32.4213703,35.8121434 32.8558005,36.5147405 33.3867708,37.1422508 C38.2834967,42.9292905 43.2928527,48.6305168 48.6937322,53.9563096 C58.0688438,62.7307276 70.3187036,67.2573833 82.1126798,71.7411323 C78.765958,74.0151869 74.7595459,75.1951208 70.7155904,75.1736675 C63.65744,75.2487542 56.7816431,72.7977095 50.8819733,69.0272842 C39.0611805,61.636607 29.5198054,50.8402113 22.8102719,38.6815283 C21.8126914,38.6815283 20.8204742,38.6761649 19.8228937,38.6708016 C19.796077,43.9536877 19.9623404,49.2365738 19.8872537,54.5194599 C19.9301604,55.5921272 19.828257,56.7184278 20.2305072,57.7374616 C21.7483314,59.6950793 24.6713496,59.4912726 26.2857137,61.3523502 C25.3417666,62.6234609 24.837613,64.3021851 23.625499,65.321219 C16.5780753,65.3963057 9.51992492,65.321219 2.46713788,65.353399 C1.51246405,63.9535682 0.67042027,62.4893775 3.25140337e-06,60.93401 C1.9361676,60.0490595 4.03323204,59.4376392 5.77631629,58.1826185 C6.60227006,57.6087416 6.63445007,56.5521643 6.64517674,55.6511239 C6.65054008,41.8619866 6.64517674,28.0782127 6.65590342,14.2890755 C6.60227006,12.6747113 6.87043686,10.9798971 6.36628326,9.41916623 C5.25607268,7.04857165 2.57976794,6.13144117 0.332530093,5.18213067 C0.772323657,3.74475658 1.43737734,2.3824692 2.19897107,1.08990518 C9.99726184,0.891461747 17.8009159,1.06845184 25.60457,0.99872847 C29.1819153,1.03627182 32.9040705,0.655474957 36.2990623,2.05530569 Z M79.4578284,12.9965114 C84.6173577,15.5762761 88.6988565,20.3067386 90.3185841,25.8577915 C92.3298351,32.5619617 91.4234313,40.2100791 87.4009292,46.0078455 C85.3896781,48.8075069 82.8152768,51.3068216 79.6830885,52.8085557 C73.9657721,55.5438571 66.8700784,54.7822634 61.678369,51.2263715 C56.9371798,48.3248067 54.132155,43.0097406 53.2954746,37.6249511 C52.6840543,33.2162887 52.9254044,28.5984563 54.5129519,24.4043274 C56.7870064,18.4242076 61.8929025,13.4255783 68.1411891,11.8004875 C71.9116144,10.9048103 75.9555698,11.3660573 79.4578284,12.9965114 Z M70.9569406,17.3300871 C68.4951693,18.3169409 67.2186953,20.9181589 66.194298,23.1975768 C63.8397935,29.5906735 63.9792402,36.8633573 66.3498348,43.2296373 C67.342052,45.6109586 68.8491494,48.5500668 71.7560776,48.7860536 C74.1052189,49.0703104 75.8322131,47.021516 76.9102437,45.1979817 C79.0555781,40.9984895 79.6777251,36.1446703 79.4578284,31.4732045 C79.1735715,27.2522589 78.1169943,22.9723167 75.7839431,19.4003348 C74.7863626,17.823514 72.8501982,16.6006733 70.9569406,17.3300871 Z M19.9301604,8.51812576 C19.7370803,15.7371762 19.9033437,22.96159 19.6137236,30.1752771 C22.3222083,30.8510575 25.54021,30.5828907 27.6319111,28.560913 C30.8391861,25.6057147 32.8236205,21.3311358 33.0649706,16.9814702 C33.2526874,14.5036089 32.3194669,11.8380308 30.1955858,10.4221101 C27.1813909,8.42158571 23.4163289,8.33577233 19.9301604,8.51812576 Z M162.589539,12.7873413 C165.480377,21.4276759 168.832462,29.9124737 171.86811,38.5045382 C172.919324,41.1003929 173.621921,43.8517843 174.882305,46.3564623 C176.056876,47.5900296 177.805323,47.9815532 179.339238,48.5929735 C178.904807,49.9874409 178.384564,51.3497283 177.730237,52.653019 C172.731607,52.5082089 167.732978,52.6154756 162.734349,52.6476556 C162.299919,51.2960949 161.892305,49.9391709 161.490055,48.5822468 C162.316009,48.2282666 163.136599,47.8742864 163.967916,47.5256696 C164.021234,45.8400046 163.400238,44.2892024 162.750092,42.765336 L162.450304,42.0635326 C162.351251,41.8299736 162.253857,41.5966592 162.160472,41.3631964 C157.746446,41.4650997 153.337784,41.3792864 148.923758,41.4168297 C148.793846,41.7565077 148.65387,42.0930074 148.510892,42.4286242 L148.080015,43.4351215 C147.725218,44.2754879 147.395803,45.1246828 147.202127,46.0185721 C146.848702,47.2497352 147.842418,47.8312331 148.814701,48.3658899 L149.090731,48.5178951 C149.363813,48.6696673 149.624506,48.8223023 149.840889,48.9898604 C149.336735,50.212701 148.827218,51.4301783 148.323065,52.653019 C144.263019,52.4706655 140.19761,52.669109 136.137565,52.5564789 C135.681681,51.2907316 135.177528,50.0410743 134.646557,48.8075069 C135.960575,48.3087167 137.344315,47.9547365 138.577883,47.2682295 C139.838267,46.447639 140.32633,44.9566316 140.857301,43.6265242 C144.847623,33.3128288 149.047115,23.0795834 152.97844,12.7444346 C156.180352,12.5781712 159.387627,12.5728079 162.589539,12.7873413 Z M136.786528,12.8034313 C137.204869,13.9190053 137.633936,15.0238525 138.068366,16.1286998 C135.976665,16.9385635 133.729427,17.7859706 132.426136,19.738225 C129.776648,23.5086503 127.19152,27.332709 124.547395,31.1031343 C123.399641,32.8515819 121.924724,34.6000295 121.865727,36.793634 C121.785277,40.0438157 121.989084,43.288634 122.096351,46.5388157 C123.383551,47.8689231 125.126636,48.5661568 126.69273,49.4886506 C126.086673,50.4969578 125.480616,51.505265 124.901376,52.5242989 C119.575583,52.5940223 114.244427,52.5725689 108.913271,52.5511156 C108.376937,51.5267184 107.824513,50.5076845 107.277453,49.4886506 C108.730917,48.5554301 110.575905,48.0995466 111.734385,46.7855292 C112.254629,44.6080147 112.024005,42.2964168 112.125909,40.0599057 C112.270719,37.2816975 110.532998,34.9486463 108.961541,32.8301285 C106.220876,28.9792532 103.405124,25.1820112 100.691276,21.3150458 C99.2270854,18.8157312 96.7545874,17.1423703 94.0300127,16.2895998 C94.3464495,15.1257559 94.6682497,13.961912 94.9954132,12.8034313 C100.900446,12.6157146 106.821569,12.6103512 112.726603,12.781978 C113.107399,13.8707352 113.498923,14.9541291 113.89581,16.037523 C112.935773,16.4880433 111.981099,16.9385635 111.026425,17.3998104 C112.270719,21.636846 115.880244,24.6456776 117.966582,28.4643729 C120.53562,24.9567511 123.351371,21.5027626 125.105182,17.5017138 C124.339324,17.0067388 123.54607,16.5554973 122.729224,16.1501531 C122.884761,15.0292158 123.061751,13.9082786 123.265558,12.7927047 C127.765397,12.6264412 132.281326,12.5781712 136.786528,12.8034313 Z M155.874642,24.0557106 C154.346091,28.0567594 152.52792,31.9505414 151.128089,36.0052235 C154.174464,36.0052235 157.215476,35.9623169 160.261851,35.9837702 C158.78157,32.0149014 157.397829,28.0084893 155.874642,24.0557106 Z M187.030262,15.7800829 C187.496872,14.712779 188.022479,13.6669285 188.617809,12.6586213 C193.922149,12.7390713 199.237215,12.5352645 204.541554,12.7873413 C205.013528,13.7795585 205.721488,14.712779 205.823391,15.8337163 C204.450377,16.9921969 201.870613,16.9814702 201.532723,19.1053513 C201.441546,26.9680021 201.559539,34.8413796 201.479089,42.7093937 C201.489816,43.9161444 201.479089,45.1604384 201.870613,46.318919 C203.254353,47.5095796 205.206608,47.1985061 206.896059,47.2253228 C212.119948,47.1824161 217.622731,45.728952 221.31807,41.8351699 C222.288833,42.6718504 223.243507,43.5299842 224.182091,44.404208 C222.29956,47.8313798 220.132772,51.0869248 218.083978,54.4121932 C215.590027,55.1523336 214.174106,52.3258555 211.787421,52.5618422 C204.080307,52.5511156 196.373193,52.5564789 188.666079,52.5618422 C187.983698,51.4820798 187.343198,50.3764115 186.746005,49.2473005 C188.633899,48.1907233 192.007438,47.6972964 191.642731,44.8279115 C191.599824,36.4289271 191.696364,28.0245793 191.594461,19.6255949 C191.556917,17.1960037 188.725076,16.7401201 187.030262,15.7800829 L187.030262,15.7800829 Z M130.661599,63.8087582 C131.814716,63.7765781 132.973196,63.7819415 134.131677,63.8033948 C136.700715,68.2496005 139.39311,72.6153561 142.074778,76.9972018 C140.830484,78.2736758 139.564737,79.5233331 138.282899,80.7622637 C133.81524,75.8387211 127.153977,73.2160498 120.540983,73.3930399 C118.819352,73.5324866 116.684745,73.1302364 115.386817,74.5461571 C114.158613,75.7529078 114.28197,77.5925321 114.2337,79.1693529 C114.271243,83.4492951 114.13716,87.7292374 114.319513,92.0038163 C114.239063,93.3500137 115.472631,94.4763143 116.786648,94.4226809 C118.631636,94.4816776 120.481987,94.3744109 122.332338,94.4119542 C123.174381,93.7308106 124.000335,93.0335769 124.810199,92.3095265 C125.909683,92.3309798 127.01453,92.3631598 128.119377,92.4060665 C130.666962,96.6860088 133.375447,100.869411 136.089295,105.04745 C134.903998,106.356104 133.632887,107.584308 132.340323,108.785695 C129.562115,106.168387 126.735637,103.277549 123.008118,102.081525 C120.669703,101.641731 118.250839,101.690001 115.896334,101.958168 C114.399963,102.011802 114.303423,103.787066 114.260517,104.91873 C114.196157,112.615117 114.2337,120.311505 114.255153,128.007892 C114.094253,129.890423 115.365364,132.014304 117.376615,132.143024 C124.279229,132.577454 131.712812,132.856348 137.950372,129.364816 C140.06889,128.324329 141.581351,126.463251 143.512152,125.165324 C144.643816,126.516884 146.3869,127.460832 147.132404,129.064469 C144.960253,133.156695 142.401941,137.045113 140.090344,141.062252 C139.484287,142.71416 137.569576,142.322636 136.201925,142.156373 C134.673374,141.115885 133.321813,139.458615 131.278382,139.581971 C119.82766,139.501521 108.36621,139.657058 96.9154875,139.501521 C96.3952439,138.203594 95.1670399,137.012933 95.0758632,135.645283 C96.9530309,133.827112 101.313423,133.585762 101.16325,130.15859 C101.270516,112.641934 101.206156,95.125278 101.254426,77.6086221 C101.22761,76.2731514 101.27588,74.7606906 100.299753,73.7094767 C98.8570152,72.1648359 96.8511275,71.3388821 94.8988731,70.6416484 C95.4620234,69.1774576 96.1324405,67.7561736 96.8940342,66.3831595 C106.585583,66.1632627 116.282494,66.3724328 125.968679,66.2812561 C127.83512,66.3080728 129.664018,65.401669 130.661599,63.8087582 L130.661599,63.8087582 Z M225.732095,82.7145181 C227.266009,82.8378748 228.655113,82.0280111 229.464977,80.7515371 C230.467921,80.8802571 231.932112,80.4297369 232.452355,81.5989442 C234.2598,84.5755957 236.153057,87.5093406 237.890778,90.5235355 C237.054098,91.6873795 235.911707,92.5669666 234.844403,93.5001871 C231.433322,89.8638452 226.295246,88.2762977 221.403883,88.3567477 C219.296092,88.4211078 216.871864,87.9866775 215.187776,89.5688617 C215.20923,91.5640227 215.01615,93.5699105 215.311133,95.5543448 C215.992277,96.4071153 217.172211,96.578742 218.201971,96.5948321 C220.840733,96.9112689 222.471187,94.1169708 225.158218,94.535311 C227.271373,97.7854927 229.314804,101.073218 231.411868,104.334126 C230.387471,105.154717 229.572244,106.570637 228.370857,106.978251 C226.611682,105.551603 225.067042,103.803156 222.94316,102.880662 C220.889003,101.722181 218.486228,101.813358 216.217537,101.958168 C216.003003,102.161975 215.584663,102.564225 215.37013,102.768032 C215.187776,106.527731 215.311133,110.292793 215.262863,114.052491 C215.214593,115.168065 215.520303,116.246096 215.927917,117.28122 C217.322384,117.90873 218.706125,118.579147 220.084502,119.254927 C219.517514,120.329939 218.963263,121.41162 218.421868,122.499746 C213.042442,122.623102 207.646926,122.725006 202.2675,122.467566 C201.720439,121.427078 201.168016,120.386591 200.604865,119.351467 C201.886703,118.7615 203.275807,118.35925 204.450377,117.565476 C205.335328,116.637619 205.136884,115.210972 205.244151,114.036401 C205.249514,105.991397 205.260241,97.9410294 205.233424,89.8960252 C205.260241,87.3806205 202.353313,86.8174703 200.529779,86.0183332 C201.082202,84.8705792 201.704349,83.7550053 202.406946,82.6877014 C210.183784,82.7413348 217.960621,82.6930647 225.732095,82.7145181 L225.732095,82.7145181 Z M295.981072,82.6608847 C297.354086,82.7896048 298.26049,81.6472142 299.177621,80.8212604 L301.489218,80.7247204 C303.505833,84.0178088 305.645804,87.2358105 307.614148,90.5557155 C306.627294,91.5747494 305.602897,92.5562399 304.551683,93.5055504 C300.502365,89.3006949 294.345255,87.8579575 288.681572,88.4586511 C287.882435,88.5927345 287.217381,89.0915248 286.520147,89.461595 C286.498694,91.6176561 286.504057,93.7737172 286.638141,95.9297784 C288.686935,96.7396421 291.21843,97.0507156 293.036601,95.5436182 C294.002001,94.6372144 295.305292,94.615761 296.560312,94.6050343 C298.61447,97.8873961 300.722261,101.132214 302.781782,104.409213 C301.794929,105.363887 300.781258,106.28638 299.724681,107.165968 C297.161006,104.543296 294.002001,101.759725 290.097492,101.877718 C288.992645,101.984985 287.415824,101.652458 286.777587,102.810939 C286.471877,104.763193 286.632777,106.747627 286.605961,108.715972 C286.659594,111.33328 286.36461,113.998858 287.029664,116.567896 C288.354408,116.911149 289.722059,117.023779 291.095073,116.954056 C294.897678,116.798519 298.888,117.485026 302.497526,115.924296 C304.75549,115.103705 306.611204,113.569791 308.461555,112.094874 C309.689759,112.014423 310.472806,113.403528 311.438207,114.004221 C309.480589,117.592293 307.372798,121.105278 305.200647,124.569993 C302.872959,124.91861 301.489218,122.526562 299.241981,122.660646 C290.703549,122.521199 282.165118,122.778639 273.63205,122.510472 C273.122533,121.459258 272.607653,120.413408 272.082046,119.372921 C273.465787,118.71323 274.844164,118.032087 276.222542,117.350943 C276.474619,115.908206 276.651609,114.449378 276.630155,112.985187 C276.592612,105.65887 276.619429,98.332553 276.619429,91.0008724 C276.560432,89.9764752 276.619429,88.7965413 275.922195,87.9652242 C274.736898,87.0105504 273.2298,86.6083001 271.851423,86.0236965 C272.446753,84.8920326 273.074263,83.7764587 273.72859,82.6716114 C281.146084,82.7306081 288.563578,82.7574248 295.981072,82.6608847 L295.981072,82.6608847 Z M318.984421,82.8003315 C324.133224,82.4678046 329.31957,82.8378748 334.484462,82.6287047 C335.294326,83.6477386 335.970107,84.7686758 336.350903,86.0236965 C334.870623,86.5814835 333.427885,87.2358105 332.076324,88.0564009 C331.625804,96.3427553 332.028054,104.66129 331.872518,112.963734 C331.851064,114.454741 331.636531,116.621529 333.492245,117.10423 C339.874615,117.839007 347.023942,116.669799 351.652501,111.842797 C352.607175,112.749201 353.561849,113.655604 354.516523,114.572735 C352.569632,117.881913 350.429661,121.073098 348.520313,124.40373 C347.785536,124.441273 347.056122,124.48418 346.326709,124.527087 C345.125321,123.529506 343.795214,122.478292 342.127216,122.628466 C334.420102,122.612376 326.712988,122.633829 319.005874,122.628466 C318.351547,121.534345 317.702584,120.445588 317.064347,119.346104 C318.785977,118.493334 320.700689,117.871187 322.020069,116.390906 C321.859169,107.369774 322.052249,98.348643 321.939619,89.3275116 C321.666089,87.1446338 318.995148,86.8067436 317.42369,85.8413431 C317.863484,84.7901292 318.249644,83.6906453 318.984421,82.8003315 L318.984421,82.8003315 Z M361.258236,82.2371812 C366.112056,82.489258 370.981965,82.1996378 375.841147,82.4034446 C383.569715,82.9934116 391.571812,86.1845966 396.152102,92.7117767 C399.514913,97.4315125 400.839657,103.577896 399.46128,109.236215 C398.501243,113.205084 396.607985,117.190043 393.202267,119.614271 C389.710735,121.963412 385.398613,122.735732 381.24739,122.644556 C374.666577,122.574832 368.06431,122.837636 361.48886,122.515836 C360.657543,121.711335 360.341106,120.515311 359.810136,119.507004 C361.445953,118.498697 364.347518,118.064267 364.352881,115.672219 C364.352881,106.903164 364.283158,98.1341095 364.202708,89.3650549 C364.288521,86.9140103 361.435227,86.3776767 359.702869,85.5409962 C360.135843,84.4014719 360.655833,83.2969419 361.258236,82.2371812 Z M374.071247,88.5659178 C374.194603,97.8552161 374.216057,107.155241 374.071247,116.444539 C377.112258,116.685889 380.357077,116.895059 383.162101,115.473775 C386.095846,114.031038 387.994467,111.016843 388.557618,107.852475 C389.619558,102.333602 388.423534,96.1496752 384.599475,91.8965496 C382.046527,88.9735314 377.814855,87.8472308 374.071247,88.5659178 Z M149.615629,85.8735231 C150.162689,84.8276725 150.699022,83.7710953 151.235356,82.7198814 C155.767375,82.8164215 160.299394,82.8271482 164.82605,82.7145181 C170.361013,89.2685149 175.407912,96.2408519 181.071595,102.682219 C181.168135,98.2842829 181.253949,93.8702573 181.055505,89.4723216 C180.229551,87.4664339 177.821413,86.8711036 176.078329,85.8788864 C176.630753,84.8652159 177.150996,83.8354553 177.628333,82.7842415 C181.768829,82.8056948 185.914688,82.7091548 190.055183,82.8378748 C190.586153,83.894452 191.16003,84.9349393 191.771451,85.9539731 C189.74411,87.0266404 186.783548,88.2119377 186.965902,90.9794191 C186.949812,101.496921 187.040988,112.014423 186.912268,122.526562 C185.142367,122.601649 183.367103,122.623102 181.597202,122.617739 C175.381095,114.031038 169.111355,105.48188 162.884522,96.9005422 C162.390861,96.1295861 161.682395,95.5199325 160.846454,95.1467313 C160.551471,101.255571 160.883998,107.375138 160.707008,113.489341 C160.626558,114.787268 160.808911,116.079832 161.227251,117.318763 C162.600265,118.058903 163.967916,118.820497 165.346294,119.571364 C164.772417,120.574308 164.273626,121.636249 163.528123,122.526562 C159.44126,122.607012 155.322218,122.757186 151.246083,122.462202 C150.564939,121.550435 150.135872,120.477768 149.642445,119.464097 C151.342623,118.546967 154.346091,118.16617 154.265641,115.682945 C154.421178,107.820295 154.276368,99.9415538 154.335364,92.0735397 C154.244188,90.7595223 154.549898,89.1344315 153.434324,88.1636676 C152.275843,87.2304471 150.908193,86.6029368 149.615629,85.8735231 L149.615629,85.8735231 Z M243.886988,85.9539731 C244.369688,84.8491259 244.911385,83.7710953 245.506716,82.7252448 C250.730605,82.7145181 255.954494,82.7145181 261.183747,82.7091548 C261.838074,83.7389153 262.492401,84.7686758 263.141365,85.8091631 C261.618177,86.4581267 260.12717,87.1768138 258.716613,88.0456742 C258.459172,89.3704183 258.260729,90.7112523 258.292909,92.0681763 C258.325089,99.3891302 258.314362,106.710084 258.292909,114.036401 C258.346542,115.076888 258.196369,116.385542 259.129589,117.10423 C260.325613,118.03745 261.720081,118.66496 263.023372,119.426554 C262.460221,120.445588 261.907798,121.464622 261.376827,122.499746 C256.083215,122.735732 250.778875,122.612376 245.479899,122.585559 C244.916483,121.523929 244.360471,120.458387 243.811901,119.389011 C245.201005,118.670324 246.75101,118.144717 247.92558,117.066686 C248.338557,116.315819 248.301014,115.430869 248.34392,114.604915 C248.29565,106.345377 248.349284,98.0912028 248.29565,89.8316652 C248.31174,87.4771606 245.624709,86.7584736 243.886988,85.9539731 L243.886988,85.9539731 Z" id="royal-enfield" fill="#FFFFFF"></path>
</svg>