<?xml version="1.0" encoding="UTF-8"?>
<svg width="400px" height="409px" viewBox="0 0 400 409" version="1.1" xmlns="http://www.w3.org/2000/svg">
    <title>suzuki</title>
    <path d="M143.597012,103.235202 C147.338321,91.0195386 156.812282,97.2533048 156.812282,97.2533048 C156.812282,97.2533048 181.364296,115.949356 248.705237,158.801252 C316.046179,201.653147 400.000003,142.185746 400.000003,142.185746 L200.60344,0.50924082 C113.147058,93.2102772 1.20687719,126.443912 1.20687719,126.443912 L1.5243375,126.567223 L256.402994,305.292135 C252.661685,317.507798 243.187725,311.276655 243.187725,311.276655 C243.187725,311.276655 218.635711,292.57798 151.294769,249.723461 C83.9538272,206.871565 3.25140354e-06,266.34159 3.25140354e-06,266.34159 L199.396566,408.018096 C286.852948,315.314436 398.793129,282.083424 398.793129,282.083424 L398.470422,281.95749 L143.597012,103.235202 Z" id="suzuki" fill="#FFFFFF"></path>
</svg>