<?xml version="1.0" encoding="UTF-8"?>
<svg width="400px" height="139px" viewBox="0 0 400 139" version="1.1" xmlns="http://www.w3.org/2000/svg">
    <title>sym</title>
    <path d="M132.406129,2.49102089 L135.155681,4.09304625 L140.954115,7.5876197 L146.806001,11.4681734 L152.754099,15.5458674 L158.65516,19.8642804 L164.404418,24.2324972 L170.00615,28.600714 L175.154612,32.869323 L180.005883,36.8494844 L184.254219,40.5391232 L186.704442,42.5292039 L187.906035,40.9251034 L190.555099,37.5778664 L193.704469,33.8903029 L197.106131,29.9101414 L200.755809,25.7847186 L204.75613,21.6115671 L208.85694,17.2931542 L213.107414,12.9249373 L217.503277,8.7019819 L221.905554,4.52883035 L224.105624,2.49102089 L239.456935,2.49102089 L237.757172,3.89798099 L234.007005,7.14976044 L229.656042,11.2751833 L224.853947,15.9816515 L219.805974,21.2235117 L214.606198,26.9488847 L209.457736,32.7738655 L204.555152,38.6943038 L200.054524,44.5670133 L196.105517,50.1948537 L194.405755,52.7680551 L198.006257,57.0387393 L201.457095,61.3571522 L204.95497,65.6755651 L208.305319,69.8985205 L211.604354,74.2667373 L214.807176,78.5830751 L217.905233,82.9035632 L220.902801,87.2240513 L223.85547,91.5901929 L226.654198,95.9584097 L229.305399,100.231169 L231.907425,104.547507 L234.353372,108.867995 L236.656069,113.140754 L238.804825,117.359559 L240.855229,121.582515 L242.75597,125.757742 L244.504907,129.926743 L246.055005,134.054241 L247.504613,138.034402 L236.656069,138.034402 L233.30572,130.267069 L229.455064,122.310897 L225.1041,114.255116 L220.355457,106.342522 L215.106506,98.3863497 L209.502636,90.4260268 L203.605851,82.6130404 L197.356285,74.9432403 L190.856566,67.4228518 L184.15373,60.0477247 L177.205017,52.8157838 L170.055326,45.9241695 L162.854321,39.2753493 L155.554965,32.869323 L148.152982,26.8056985 L140.80445,21.0782503 L133.453781,15.7886614 L126.154425,10.9348566 L119.004734,6.51891108 L112.004707,2.49102089 L132.406129,2.49102089 Z M287.845635,2.15276943 L290.396347,7.05222781 L292.844432,11.7607713 L295.24548,16.1767168 L297.496863,20.4972049 L299.647757,24.5728238 L301.747337,28.600714 L303.748567,32.3858102 L305.698483,36.0733737 L307.599223,39.7132085 L309.44865,43.3509682 L311.248901,46.8455416 L313.049152,50.3401151 L314.79809,53.8346885 L316.547027,57.3790659 L318.347279,60.9690968 L320.14753,64.6089316 L321.947781,68.3462991 L323.797208,72.0836665 L325.697948,76.063828 L327.598688,80.1892508 L329.097472,77.3732554 L330.596256,74.4140739 L332.248981,71.1602193 L333.997919,67.7652536 L335.746856,64.1752227 L337.748086,60.3901265 L339.698001,56.5074977 L341.748406,52.4318788 L343.843711,48.4039886 L346.04378,44.1333044 L348.295163,39.910349 L350.495233,35.5898609 L352.795791,31.2237192 L355.042898,26.953035 L357.294281,22.6823509 L359.545664,18.363938 L361.846223,14.1907864 L364.046292,10.0176349 L366.293399,5.98974467 L368.448569,2.15691975 L369.395732,2.20464849 L371.345648,2.34990985 L373.496542,2.44744248 L375.696612,2.49517122 L378.144697,2.59270385 L383.297435,2.59270385 L385.995674,2.54497512 L388.948342,2.39971375 L391.845421,2.25445238 L393.49387,2.15899491 L393.694848,8.71028255 L393.895826,13.8546101 L394.14598,18.901405 L394.396133,23.9980038 L394.697601,29.0925275 L394.943478,34.1891263 L395.244945,39.2359212 L395.595588,44.33252 L395.897055,49.3793149 L396.198523,54.4261098 L396.549165,59.425176 L396.846357,64.4740461 L397.196999,69.4710371 L397.648131,74.4244497 L397.998774,79.4712446 L398.40073,84.4682356 L398.747097,89.5191808 L399.198229,94.5161719 L399.548871,99.5131629 L400.000003,104.752948 L398.99725,104.752948 L398.150577,104.655415 L396.30115,104.607687 L394.701877,104.510154 L390.051584,104.510154 L388.702465,104.557883 L387.349069,104.605611 L386.100439,104.65334 L385.052787,104.750873 L384.45199,98.6830979 L383.851194,93.1029863 L383.355163,87.6722863 L382.854855,82.428351 L382.403723,77.3815561 L381.952592,72.4820977 L381.550635,67.821283 L381.10378,63.2600761 L380.753137,58.8939344 L380.45167,54.5257176 L380.101027,50.4500987 L379.855149,46.4222085 L379.604996,42.5873084 L379.254353,38.8022122 L379.004199,35.1644526 L378.754046,31.5723465 L378.553067,28.1255018 L378.302914,24.728461 L377.802606,18.2249021 L375.852691,21.4766815 L373.907051,24.971255 L371.80747,28.7065473 L369.506912,32.7821662 L367.306842,36.9553177 L364.856619,41.2758058 L362.509023,45.789284 L360.0588,50.4002948 L357.608577,55.2042957 L355.111316,59.9605679 L352.560604,64.7645688 L350.110381,69.5187658 L347.608844,74.4223745 L345.212073,79.1765715 L342.761849,83.8830398 L340.409977,88.4463219 L338.058105,92.9618752 L335.962801,97.3757456 L333.811907,101.501168 L331.861991,104.750873 L322.110274,104.750873 L319.95938,100.915973 L317.759311,96.549831 L315.458752,91.936745 L313.211645,87.3776133 L310.960262,82.6669947 L308.60839,78.0103303 L306.207342,73.2997117 L303.955959,68.690776 L301.708852,63.9345038 L299.35698,59.2757643 L297.105597,54.6170248 L294.758001,50.0537427 L292.557931,45.5900684 L290.357862,41.2218516 L288.106479,37.0009713 L285.955585,32.9232772 L283.856005,28.895387 L281.8056,25.1102909 L279.755195,21.5202599 L277.805279,18.1232191 L277.458912,18.2207517 L277.00778,23.170014 L276.556649,28.0238188 L276.105517,32.780091 L275.654385,37.2935692 L275.308018,41.7572435 L274.856886,46.0777316 L274.45493,50.3484157 L274.052974,54.5215673 L273.706607,58.6947188 L273.255475,62.8678704 L272.904833,66.8957606 L272.502876,70.9693043 L272.10092,75.0469984 L271.70324,79.1724212 L271.252108,83.2501153 L270.800976,87.3755381 L270.300669,91.6441471 L269.853813,95.9646352 L269.253017,100.285123 L268.801885,104.746722 L266.901144,104.746722 L265.051718,104.601461 L258.504961,104.601461 L257.10239,104.64919 L255.75327,104.746722 L253.452712,104.746722 L254.205311,96.5954846 L254.90232,88.9277596 L255.603606,81.7933513 L256.204402,75.0449232 L256.805199,68.7862335 L257.352544,62.8637201 L257.803675,57.2836084 L258.254807,51.9940195 L258.60545,47.0447572 L259.00313,42.288485 L259.353773,37.8725395 L259.603927,33.5520514 L259.905394,29.3788999 L260.155548,25.3987384 L260.356526,21.4683809 L260.557504,17.6334808 L260.758482,13.8006559 L261.00436,9.91802706 L261.154024,6.03539824 L261.355002,2.15276943 L287.845635,2.15276943 Z M46.1052495,0.50924082 L47.5056825,0.606773452 L53.0561007,0.702230922 L58.5552054,1.13801502 L63.85547,1.62360302 L69.0552455,2.25445238 L74.0048674,3.03263828 L79.0549783,3.85647774 L83.8549355,4.92311121 L88.6057172,5.94201593 L91.6054232,6.7658554 L92.3067088,6.91111677 L92.8070161,7.10410687 L93.0571698,7.24936824 L93.2068344,7.3946296 L93.2068344,21.6136422 L91.2569186,21.2255869 L88.95636,20.6424662 L86.0058295,19.9140842 L81.1545587,18.8951795 L76.2541123,17.9260787 L71.255315,17.0047066 L66.1538905,16.3240533 L60.954115,15.5956713 L55.7522015,15.1100833 L50.3022723,14.7697567 L44.7026785,14.7697567 L39.1522602,15.0602794 L33.8519957,15.5935962 L28.7527092,16.4174356 L25.8534923,17.1935464 L24.7523885,17.4861443 L23.6021092,17.9219284 L22.6528081,18.3099837 L21.6521934,18.7955717 L20.6515787,19.3288885 L19.8027667,19.9099339 L18.9539547,20.5407833 L18.2526692,21.2214365 L17.4508946,21.9498185 L16.9014117,22.773658 L16.3519288,23.5497687 L15.802446,24.4234121 L15.4026277,25.3945881 L15.051985,26.5608294 L14.9514959,27.8225281 L14.9514959,29.2792921 L15.1524741,30.4932621 L15.4518032,31.6076243 L15.9499725,32.626529 L16.5015934,33.5001724 L17.1515654,34.2762831 L17.8528509,35.054469 L18.5519983,35.782851 L19.4029484,36.4137003 L20.2517605,36.996821 L21.2010616,37.5778664 L22.1503627,38.0136505 L23.300642,38.4017059 L24.3504322,38.7897613 L25.5007115,39.0325553 L26.7514799,39.2753493 L29.7511859,39.7609373 L34.9530994,40.4415905 L40.1036994,40.9251034 L45.3013369,41.3173091 L46.5029297,41.4148417 L47.7045226,41.5601031 L48.9531529,41.6078318 L50.3044103,41.7053644 L55.7030259,42.1411485 L61.2042687,42.5769326 L66.4040442,43.0625206 L71.6529952,43.5958373 L76.8549088,44.3242193 L81.8045306,45.2476666 L86.4035097,46.5072902 L87.4532999,46.8974207 L88.5030901,47.3332048 L89.4545293,47.8187928 L90.4038304,48.3023056 L91.4536206,48.7401649 L92.3537462,49.3212104 L93.2538718,49.904331 L94.0556464,50.5351804 L97.2541925,53.1063065 L98.0067916,53.8346885 L98.6567635,54.6606032 L99.3067355,55.3889852 L99.9567074,56.2626285 L100.606679,57.0885432 L101.156162,57.9621865 L101.654331,58.8835586 L102.154639,59.8049307 L102.603633,60.7761067 L103.003451,61.8427402 L103.347679,62.9072985 L103.747498,64.0237358 L103.997651,65.1899771 L104.247805,66.3064144 L104.448783,67.5681132 L104.647623,68.7343544 L104.647623,69.9462493 L104.745974,71.2058728 L104.797288,72.421918 L104.745974,73.6338128 L104.647623,74.748175 L104.598448,76.0617528 L104.348294,77.176115 L104.147316,78.3402811 L103.796673,79.4587936 L103.497344,80.5254271 L103.146701,81.6439396 L102.697708,82.6607692 L102.297889,83.6340203 L101.748406,84.6508499 L99.5483369,88.1931521 L98.0474149,90.2309615 L97.2456403,91.0091474 L95.3962135,92.7066303 L92.0971783,95.2279526 L89.8457953,96.639063 L88.9456697,97.1205007 L86.3970955,98.2390132 L82.0974456,99.8389634 L80.9471663,100.131561 L79.698536,100.424159 L74.7980897,101.343456 L69.6988033,102.121642 L64.3493632,102.652884 L58.899434,102.99321 L53.5991694,102.99321 L48.2497293,102.895678 L42.6993111,102.555351 L37.349871,101.976381 L32.199271,101.295727 L27.1491601,100.469813 L22.2487137,99.5007119 L17.4487565,98.4340784 L12.8497774,97.1703045 L8.25079834,95.9584097 L3.70099478,94.6489823 L1.15028254,93.725535 L0.649975189,93.482741 L3.25140354e-06,93.3374796 L3.25140354e-06,78.9254769 L1.29994713,79.2180748 L2.30056182,79.5106727 L3.50001661,79.8509993 L7.90015559,81.2579594 L12.3986456,82.6151156 L16.9976247,83.8747392 L21.6970928,84.9932517 L26.5483636,86.0100813 L31.3996344,86.8359959 L32.6995783,87.0310612 L33.9503467,87.2261264 L39.2997868,87.7075641 L44.7005404,88.1931521 L47.849911,88.3384135 L49.2995195,88.3861422 L52.6498683,88.5314036 L58.148973,88.3861422 L63.5989021,88.0458156 L68.8991667,87.5602276 L73.8979641,86.6409306 L78.4477676,85.3315032 L81.098969,84.3105233 L82.0482701,83.872664 L82.9997093,83.3414224 L83.8485213,82.7583018 L84.6973333,82.0776485 L85.3986189,81.4011456 L86.1490799,80.6706885 L86.8995409,79.9941855 L87.5495128,79.1682709 L88.0989957,78.2967027 L88.6484785,77.3732554 L89.0482968,76.3564259 L89.4502531,75.2856421 L89.7987578,74.1712799 L89.999736,73.0527674 L90.1002251,71.9861339 L89.999736,70.7742391 L89.7987578,69.5581939 L89.5486042,68.3462991 L89.1979614,67.2796656 L88.7468296,66.210957 L88.2978358,65.2895849 L87.6478638,64.4657454 L86.9978919,63.6875595 L86.2474309,62.9591775 L85.5461454,62.2805994 L84.6973333,61.6497501 L83.7480322,61.1143582 L82.796593,60.6308453 L81.8472919,60.1452573 L80.7461881,59.7094732 L79.6472224,59.3691466 L78.4969431,59.0786239 L77.2974884,58.7881011 L76.0980336,58.5453071 L74.7980897,58.3025131 L71.54823,57.9621865 L66.3463164,57.4765985 L60.8472117,57.0885432 L55.3972826,56.6506839 L49.8981779,56.2626285 L44.3969351,55.8745732 L39.047495,55.2914525 L34.0978732,54.7083319 L28.8980977,53.9322212 L23.9976514,52.9610452 L19.3473587,51.7968791 L14.8488687,50.389919 L13.848254,50.0018636 L12.8476394,49.5162756 L11.7978492,49.0804915 L10.84641,48.5471748 L9.99759793,48.0138581 L9.14878589,47.4307374 L8.24866028,46.849692 L7.39984824,46.1690387 L6.69856273,45.4406567 L5.99941528,44.7600034 L5.19977875,43.9838927 L4.64815783,43.1600532 L3.9981859,42.3362138 L3.44870304,41.4625704 L2.89922018,40.5889271 L2.34973733,39.6654798 L1.90074356,38.696379 L1.45174978,37.6276703 L1.05193152,36.5589617 L0.752602337,35.4425243 L0.502448664,34.326087 L0.352784073,33.1619209 L0.102630399,31.9479509 L0.00214131699,30.6862522 L0.00214131699,27.872332 L0.102630399,26.6106333 L0.303608564,25.3966633 L0.50458673,24.4254873 L0.703426829,23.2613212 L1.05406958,22.2901452 L1.40471234,21.2733156 L1.80453061,20.2502606 L2.25352438,19.1815519 L2.70251815,18.2103759 L3.25200101,17.3367326 L3.80148386,16.4153605 L5.00307672,14.7676815 L5.70222417,13.9438421 L8.6014411,11.080118 L9.40107763,10.4015399 L10.2028522,9.76861537 L13.7028656,7.48801191 L16.0525997,6.13085571 L17.0532144,5.64526771 L19.6531021,4.62636299 L24.0532411,3.16959899 L28.7548473,2.05316163 L33.8541337,1.227247 L36.4540215,0.936724271 L38.9534201,0.693930272 L39.6547057,0.646201537 L40.3046776,0.606773452 L41.7542861,0.556969555 L43.3535591,0.50924082 L46.1052495,0.50924082 Z" id="sym" fill="#FFFFFF"></path>
</svg>