<?xml version="1.0" encoding="UTF-8"?>
<svg width="400px" height="110px" viewBox="0 0 400 110" version="1.1" xmlns="http://www.w3.org/2000/svg">
    <title>triumph</title>
    <path d="M62.7360016,0.50924082 L64.1952016,15.8308408 C64.1952016,15.8308408 72.0168657,15.6186925 79.7169582,15.4741519 L80.486268,15.4599336 C84.1997962,15.392401 87.8230698,15.3428408 90.4592016,15.3428408 C98.7216016,15.3428408 107.235202,22.8788408 107.235202,33.8244408 C107.235202,47.1956408 94.5904016,52.3044408 94.5904016,52.3044408 C94.5904016,52.3044408 120.122402,101.662041 209.119202,100.934841 C278.029602,100.370841 315.083202,73.7692408 341.883202,53.6476408 L341.883202,23.3676408 C341.883202,19.7164408 339.698402,15.5852408 339.698402,15.5852408 L358.421602,15.5852408 L358.421602,41.5852408 C366.395202,36.2340408 373.728802,32.4844408 381.276802,31.6300408 L381.276802,23.3668408 C381.276802,20.3100222 379.742629,16.9167623 379.243131,15.8929882 L379.169902,15.7447628 C379.138519,15.6820839 379.115311,15.6369038 379.101766,15.6107883 L379.088002,15.5844408 L397.811202,15.5844408 L397.811202,67.6236408 C397.811202,71.7556408 400.000002,74.6716408 400.000002,74.6716408 L385.654402,74.6716408 C382.980802,74.6716408 381.276802,71.5132408 381.276802,65.4356408 L381.276802,42.5764408 C374.260802,44.9484408 366.204002,49.4804408 358.421602,55.3844408 L358.421602,67.6228408 C358.421602,71.7548408 360.610402,74.6708408 360.610402,74.6708408 L346.261602,74.6708408 C344.096002,74.6708408 342.578402,72.5580408 342.077602,68.5212408 C313.288002,86.7444408 272.587202,109.443641 207.904002,109.443641 C115.744802,109.443641 80.0024016,55.9476408 80.0024016,55.9476408 L77.5672016,56.1940408 C77.5672016,56.1940408 77.6580302,59.7791153 77.7293955,63.1943286 L77.7417649,63.7944857 C77.7821731,65.7840367 77.8136016,67.6383837 77.8136016,68.5932408 C77.8136016,71.1095702 79.5342051,74.0581765 79.736629,74.3963643 L79.7560016,74.4284408 L60.0632016,74.6708408 C60.0632016,74.6708408 62.2488016,70.5396408 62.2488016,67.1348408 L62.2488016,21.9100408 C62.2488016,20.2060408 61.3384016,18.6836408 59.8168016,17.7740408 C57.3856016,16.3124408 40.8512016,15.3428408 40.8512016,15.3428408 L40.8512016,47.9268408 C40.8512016,60.9778344 43.7606043,70.7789632 44.6991213,73.6011017 L44.7673453,73.8043611 C44.9063849,74.2146594 44.9872016,74.4284408 44.9872016,74.4284408 L19.4544016,74.6708408 C19.4544016,74.6708408 23.3440016,64.4612408 23.3440016,48.9004408 L23.3446409,47.4935347 C23.3450627,47.0227491 23.345689,46.5503303 23.3465065,46.0768298 L23.3483929,45.1285496 L23.3507664,44.1783648 C23.3525059,43.5444912 23.3545547,42.9100013 23.3568818,42.2762019 L23.3605773,41.3261842 L23.3646671,40.3781824 C23.3675199,39.7470711 23.3706201,39.1179571 23.3739368,38.4921475 L23.3790703,37.5560747 C23.4442908,26.0457714 23.5783072,15.8900114 23.5853156,15.3634688 L23.5856016,15.3420408 C23.5856016,15.3420408 18.1826318,15.7121906 12.3584655,16.4524903 L11.6286113,16.5469556 C11.5067234,16.5630211 11.3847429,16.5792473 11.2627146,16.5956342 L10.5303334,16.6958831 L9.79897037,16.7999877 L9.07078764,16.9079481 C5.4414285,17.4573892 2.01241542,18.1514201 1.62570166e-06,18.9900408 L1.45760163,0.75484082 C1.45760163,0.75484082 11.6720016,1.72444082 31.3680016,1.72524082 C51.0640016,1.72524082 62.7360016,0.50924082 62.7360016,0.50924082 Z M158.543202,15.3428408 C160.732002,15.3428408 162.432002,18.2628408 162.432002,21.1780408 L162.432702,53.4069771 C162.466685,56.6679837 163.764571,64.9460408 172.157602,64.9460408 C180.670402,64.9460408 182.613602,58.6212408 182.613602,53.2740408 C182.613602,47.9268408 182.860002,27.4988408 182.860002,23.1212408 C182.860002,18.7476408 180.671202,15.5852408 180.671202,15.5852408 L198.663202,15.5852408 L198.663202,66.6500408 C198.663202,70.7820408 201.094402,74.4284408 201.094402,74.4284408 C201.094402,74.4284408 197.806793,74.5146872 194.328135,74.5842895 L193.404979,74.6022542 C191.353059,74.6409978 189.329574,74.6708408 187.964802,74.6708408 C184.075202,74.6708408 183.344802,70.5396408 183.344802,70.5396408 C183.344802,70.5396408 179.208802,76.3748408 168.025602,76.3748408 C155.622402,76.3748408 146.382402,69.3236408 146.382402,58.3828408 L146.382402,22.1476408 C146.382402,17.2852408 144.193602,15.5844408 144.193602,15.5844408 L144.233318,15.5844508 C144.61328,15.5769005 147.661791,15.516498 150.879791,15.4579831 L151.881156,15.4399445 C154.773722,15.3883582 157.594722,15.3428408 158.543202,15.3428408 Z M227.842402,15.3428408 C231.489602,15.3428408 232.948002,17.2852408 234.894402,21.6676408 C235.690656,23.4568408 237.625864,27.5251532 239.634898,31.7084175 L240.138078,32.7553759 C242.879275,38.4548844 245.592802,44.0332408 245.592802,44.0332408 C245.592802,44.0332408 247.295202,39.7178408 249.210102,34.8244408 L249.478526,34.1382657 L249.74881,33.4468444 L250.020052,32.7524334 C250.155763,32.4048565 250.291497,32.0570046 250.426747,31.7101469 L250.696453,31.0181331 C252.129845,27.3384735 253.469843,23.868199 254.102402,22.1476408 C255.807202,17.5316408 257.506402,15.8316408 260.911202,15.8316408 C262.29286,15.8316408 265.556645,15.7910658 268.947514,15.7428462 L269.675434,15.7324085 C274.411245,15.6639584 279.150402,15.5852408 279.150402,15.5852408 L279.11495,15.6294889 C278.815381,16.0110408 276.718402,18.8350122 276.718402,23.1220408 L276.718402,66.6500408 C276.718402,70.7820408 279.150402,74.6708408 279.150402,74.6708408 L260.668802,74.6708408 L260.684096,74.655038 C260.889773,74.4388988 263.100802,72.0022083 263.100802,67.1348408 L263.100232,66.7987015 C263.092143,64.1806245 262.999794,57.1347931 262.938818,50.010431 L262.926553,48.5196157 C262.904399,45.7070447 262.888411,42.9296263 262.885732,40.4561134 L262.885597,39.1764761 C262.889817,34.7381087 262.945666,31.5446008 263.100802,31.3884408 L262.975495,31.5903773 C261.415063,34.1411234 259.306043,38.9010599 257.276451,43.8625855 L256.948123,44.6686072 C254.274087,51.2603695 251.798893,58.0153613 250.981199,60.2706352 L250.889456,60.5239849 C250.764566,60.8693243 250.697602,61.0564408 250.697602,61.0564408 C250.697602,61.0564408 249.244002,62.0260408 245.839202,61.7836408 L245.47996,61.757359 C242.17833,61.5031582 238.638219,60.8175356 234.651202,54.2476408 C233.401025,52.1889245 231.906479,49.4860888 230.429589,46.7167695 L229.919466,45.7563909 C226.69825,39.6684154 223.707202,33.5812408 223.707202,33.5812408 L223.707202,66.1612408 C223.707202,71.1333297 225.436624,73.7982581 225.82094,74.3290806 L225.892807,74.4244772 L209.119202,74.4284408 C209.119202,74.4284408 211.550402,71.9972408 211.550402,66.1620408 L211.550402,23.6100408 C211.550402,17.7740408 208.388002,15.5844408 208.388002,15.5844408 L208.423023,15.5847049 C208.851411,15.5781573 213.143957,15.5127502 217.658805,15.4516082 L219.126273,15.4320077 C222.791422,15.3837791 226.343881,15.3428408 227.842402,15.3428408 Z M129.605602,15.5852408 C133.010402,15.5852408 133.983202,18.0164408 133.983202,23.8524408 L133.983202,67.3812408 C133.983202,71.5124408 136.415202,74.4284408 136.415202,74.4284408 L122.554402,74.4284408 C119.638402,74.4284408 118.176002,72.9708408 118.176002,67.8620408 L118.176002,25.0716408 C118.176002,17.5316408 115.987202,15.8316408 115.987202,15.8316408 C115.987202,15.8316408 119.293566,15.7518758 122.770999,15.6831128 L123.721275,15.6647002 C125.831957,15.6246927 127.90078,15.5917572 129.229791,15.5860996 Z M318.296802,15.3428408 C328.026402,15.3428408 335.804802,22.6364408 335.804802,34.0660408 C335.804802,52.7892408 305.898402,56.6788408 305.898402,56.6788408 L305.898402,69.0804408 C305.898402,73.7004408 303.952002,74.4276408 302.005602,74.4276408 L286.928002,74.4276408 C286.928002,74.4276408 289.605602,71.0236408 289.605602,67.1340408 L289.605602,22.1476408 C289.605602,18.5052408 286.928002,15.3428408 286.928002,15.3428408 L318.296802,15.3428408 Z M312.950402,25.3100408 C312.322317,25.3100408 311.199835,25.3429428 310.032501,25.3845031 L309.53078,25.4027741 C307.690676,25.4711932 305.898402,25.5524408 305.898402,25.5524408 L305.899202,46.9532408 C305.899202,46.9532408 321.459202,45.2492408 321.459202,33.0924408 C321.459202,27.2572408 314.650402,25.3100408 312.950402,25.3100408 Z M84.3760016,25.5524408 L77.8136016,25.5524408 L77.5664016,46.7076408 C77.5664016,46.7076408 93.3744016,45.2492408 93.3744016,33.3348408 C93.3744016,27.4988408 87.0536016,25.5524408 84.3760016,25.5524408 Z" id="triumph" fill="#FFFFFF"></path>
</svg>