<?xml version="1.0" encoding="UTF-8"?>
<svg width="400px" height="136px" viewBox="0 0 400 136" version="1.1" xmlns="http://www.w3.org/2000/svg">
    <title>vespa</title>
    <path d="M44.5435093,0.0344021642 C44.7487592,14.3218952 55.0711191,27.8498787 55.0711191,27.8498787 C55.0711191,27.8498787 55.2314706,28.0055159 54.9749082,28.1798295 C13.3968358,56.8814004 40.7421099,102.866999 40.7421099,102.866999 L40.8383208,102.539123 C46.7307036,82.4681526 55.8514964,72.1608211 56.0695744,71.8868996 C70.9416407,53.6981013 92.3239774,52.031746 92.3239774,52.031746 C92.3239774,52.031746 92.0396208,52.2205857 92.1315556,52.6895724 C94.6907654,65.1156448 102.122522,76.0849531 102.122522,76.0849531 C57.7650242,69.8636163 51.0452277,112.250883 51.0452277,112.250883 L97.7288916,91.7711056 C101.748369,77.9463738 117.884005,75.4665547 117.884005,75.4665547 C138.603727,71.6859201 145.920223,87.6134667 147.809032,93.1380928 L147.936229,93.5189212 C148.231145,94.4235833 148.355064,94.9647805 148.355064,94.9647805 L122.649651,109.042682 C129.260409,114.566764 137.436197,110.887501 137.436197,110.887501 C140.529377,109.34109 151.904872,102.51377 163.624453,95.5671908 L165.970605,94.1778142 C179.525478,86.1587907 192.833147,78.4400134 193.644739,78.9860301 C207.841191,88.5463032 205.281981,101.771313 205.281981,101.771313 L233.916482,91.0427236 L236.264027,86.1474155 C249.767761,77.975426 265.745183,79.3595594 265.745183,79.3595594 C288.816556,81.7791987 285.509039,101.200643 285.509039,101.200643 L308.706555,94.0869868 C308.706555,94.0869868 316.724129,78.5668473 338.204815,81.2438068 C338.204815,81.2438068 348.486552,82.3104403 355.279042,90.1524789 L356.931731,85.6991804 L377.70687,90.0528711 L372.002633,104.481475 C371.958515,104.604601 371.914488,104.727945 371.870793,104.851436 L371.740946,105.222281 L371.614544,105.593588 C370.434684,109.121863 369.917555,112.655639 375.660785,114.568839 C381.536064,116.525718 384.353974,111.099168 384.353974,111.099168 L391.447924,118.843674 L400.000003,118.984785 L399.89524,127.399568 L236.670251,127.216954 L232.627256,135.951313 L213.714332,135.951313 L217.205718,127.399568 L3.25140354e-06,127.399568 C7.06829695,123.301123 11.1134306,113.886111 11.1134306,113.886111 L33.6609881,114.012696 C33.6011236,113.039445 4.79344381,75.4914567 9.51419169,41.9319306 C14.2349396,8.37240461 44.5435093,0.0344021642 44.5435093,0.0344021642 Z M351.494746,113.80933 C351.494746,113.80933 351.491081,113.817272 351.483645,113.832633 L351.449919,113.900453 C351.216123,114.360466 350.050972,116.477633 347.56079,118.308282 L356.375846,118.308282 C356.375846,118.308282 352.630035,116.258022 351.494746,113.80933 Z M293.474818,108.001269 L292.678919,108.260939 C287.258194,110.030981 282.278491,111.686439 282.278491,111.686439 C282.278491,111.686439 280.786153,115.957123 277.061723,117.415962 L311.212314,117.77289 C311.212314,117.77289 305.704775,113.495981 306.256384,104.053992 C306.265316,103.874098 299.725763,105.963584 293.474818,108.001269 Z M243.092863,113.141128 L241.0874,117.040358 L247.167929,116.917923 C247.167929,116.917923 243.828342,115.102156 243.092863,113.141128 Z M228.220797,103.340136 L204.168073,111.356488 C204.168073,111.356488 204.535812,113.67652 201.412165,116.347254 L222.345518,116.347254 L228.220797,103.340136 Z M175.689648,98.9241903 L143.394858,115.461159 L167.447582,115.818087 L167.447559,112.56594 C167.458113,112.296605 167.681986,110.808834 171.330226,110.478694 C171.330226,110.478694 181.186497,107.204088 175.835034,99.6774742 C175.640474,99.4014776 175.689648,98.9241903 175.689648,98.9241903 Z M97.1281081,101.200643 L66.6484967,114.3883 L112.917385,115.102156 C112.917385,115.102156 100.187614,111.713416 97.1281081,101.200643 Z M328.65428,96.0480152 C328.65428,96.0480152 321.675783,97.9945175 324.549282,105.811654 C324.632665,106.027471 326.999453,111.534952 333.079981,110.080263 C333.101361,110.076113 339.301619,107.081654 336.150178,100.478487 C335.962032,100.082131 334.345689,95.3196332 328.65428,96.0480152 Z M255.957328,92.9726246 L255.941447,92.9772271 C255.564525,93.088676 248.631606,95.2595657 251.602182,103.331835 C251.685565,103.562178 254.199876,109.407911 260.650282,107.86399 C260.675938,107.85984 267.256763,104.678616 263.910762,97.6749425 C263.70765,97.2495342 261.995096,92.198589 255.957328,92.9726246 Z M121.61485,92.9103697 C121.274905,93.0182782 113.652864,95.8550251 117.691583,102.62628 L130.767713,95.4399927 L130.752914,95.4079287 C130.556674,94.9962485 128.365544,90.7934363 121.61485,92.9103697 Z" id="vespa" fill="#FFFFFF"></path>
</svg>