<?xml version="1.0" encoding="UTF-8"?>
<svg width="400px" height="186px" viewBox="0 0 400 186" version="1.1" xmlns="http://www.w3.org/2000/svg">
    <title>victory</title>
    <path d="M326.737626,99.0946377 C326.737626,99.0946377 327.839216,104.959047 320.118979,108.310434 C320.118979,108.310434 256.675112,119.095053 187.441068,143.660825 C126.063821,165.44588 102.723306,183.705233 101.437358,184.211573 C100.151411,184.713762 96.1069353,187.226784 90.4123504,184.543599 C84.7154894,181.864564 67.6249065,181.362375 53.2905756,184.543599 C38.9562447,187.728973 43.5515152,181.026199 51.4515569,177.506723 C59.3538747,173.989323 103.458458,154.553352 158.221611,137.964504 C215.743292,120.543516 315.528261,100.437268 326.737626,99.0946377 Z M298.75632,165.099328 C302.311452,165.099328 304.007082,166.09333 304.007082,168.168493 L300.349529,168.168493 C300.331321,167.521042 300.042267,167.257496 298.615207,167.257496 L292.911518,167.257496 C291.955593,167.257496 291.256856,167.456712 291.256856,168.278476 C291.256856,169.141744 291.932832,169.174946 292.911518,169.206074 L299.18421,169.388688 C302.393389,169.486221 304.029842,169.793345 304.029842,172.663294 C304.029842,174.97295 302.803071,175.966953 299.245663,175.966953 L292.217334,175.966953 C288.607577,175.966953 287.442258,174.97295 287.442258,172.879111 L290.908626,172.879111 C290.908626,173.406203 291.60281,173.794258 292.563288,173.794258 L298.244217,173.794258 C299.73273,173.794258 300.472434,173.559765 300.472434,172.692347 C300.472434,171.90586 300.042267,171.548932 298.103104,171.484602 L292.665709,171.314439 C288.82835,171.192004 287.419498,170.94091 287.419498,168.245274 C287.419498,165.935618 288.889803,165.099328 292.52232,165.099328 L298.75632,165.099328 Z M329.580366,165.099328 L336.886368,175.964878 L332.907897,175.964878 L331.19406,173.346023 L322.599834,173.346023 L320.865512,175.964878 L316.905249,175.964878 L324.213527,165.099328 L329.580366,165.099328 Z M258.684832,165.099328 L258.684832,171.839455 C258.684832,173.343948 259.481437,173.792183 261.766554,173.792183 L265.442315,173.792183 C267.625012,173.792183 268.421616,173.325271 268.421616,171.822854 L268.421616,165.099328 L271.82198,165.099328 L271.82198,172.103001 C271.82198,174.956349 270.41768,175.964878 266.056839,175.964878 L261.033678,175.964878 C256.873126,175.964878 255.307228,174.862967 255.307228,172.103001 L255.307228,165.099328 L258.684832,165.099328 Z M327.026679,167.128836 L326.867359,167.128836 L324.072414,171.173328 L329.721479,171.173328 L327.026679,167.128836 Z M350.037173,150.212113 L350.037173,158.900817 L358.749751,158.900817 L358.749751,161.081813 L346.636809,161.081813 L346.636809,150.212113 L350.037173,150.212113 Z M388.947894,150.212113 C392.503026,150.212113 394.203208,151.206115 394.203208,153.281278 L390.545655,153.281278 C390.522895,152.633827 390.238393,152.370281 388.806781,152.370281 L383.107644,152.370281 C382.147166,152.370281 381.452982,152.569497 381.452982,153.391261 C381.452982,154.254529 382.124406,154.287732 383.107644,154.318859 L389.380336,154.505624 C392.584963,154.599006 394.221416,154.90613 394.221416,157.776079 C394.221416,160.085735 392.994645,161.079738 389.437237,161.079738 L382.41346,161.079738 C378.799151,161.079738 377.633832,160.085735 377.633832,157.991896 L381.104752,157.991896 C381.104752,158.518988 381.798936,158.907043 382.759414,158.907043 L388.435791,158.907043 C389.928855,158.907043 390.664008,158.67255 390.664008,157.805132 C390.664008,157.018645 390.236117,156.661717 388.294678,156.597387 L382.861834,156.427224 C379.019924,156.304789 377.615624,156.053695 377.615624,153.358059 C377.615624,151.052553 379.083653,150.212113 382.718446,150.212113 L388.947894,150.212113 Z M299.47554,150.212113 C305.026736,150.212113 306.415104,150.849187 306.415104,153.903826 L302.907768,153.903826 C302.885008,153.069611 302.539054,152.640053 299.316219,152.640053 L296.703356,152.640053 C293.639842,152.640053 293.150499,152.839268 293.150499,155.128172 L293.150499,156.315165 C293.150499,158.41938 293.639842,158.714053 296.582727,158.714053 L299.357187,158.714053 C302.356973,158.714053 302.925976,158.510687 302.925976,157.307093 L306.437864,157.307093 C306.437864,160.181193 305.500147,161.079741 299.436848,161.079741 L296.339194,161.079741 C291.131676,161.081813 289.727376,160.121013 289.727376,156.535132 L289.727376,155.157225 C289.727376,150.930119 291.195404,150.212113 296.457547,150.212113 L299.47554,150.212113 Z M336.390198,150.212113 C341.941394,150.212113 343.329762,150.849187 343.329762,153.903826 L339.817873,153.903826 C339.799665,153.069611 339.453711,152.640053 336.226325,152.640053 L333.618014,152.640053 C330.5545,152.640053 330.065157,152.839268 330.065157,155.128172 L330.065157,156.315165 C330.065157,158.41938 330.5545,158.714053 333.492833,158.714053 L336.267293,158.714053 C339.267078,158.714053 339.840634,158.510687 339.840634,157.307093 L343.34797,157.307093 C343.34797,160.181193 342.410252,161.079741 336.351505,161.079741 L333.249299,161.079741 C328.046333,161.081813 326.642033,160.121013 326.642033,156.535132 L326.642033,155.157225 C326.642033,150.930119 328.110062,150.212113 333.372204,150.212113 L336.390198,150.212113 Z M282.448685,150.212113 C286.126723,150.212113 287.615235,151.168762 287.615235,153.673483 L287.615235,154.435068 C287.615235,155.67394 287.38991,156.311015 286.490885,156.744724 C287.269281,156.964691 287.758624,157.535361 287.758624,158.824036 L287.756348,161.077663 L284.34688,161.077663 L284.34688,159.38433 C284.34688,158.313547 283.611728,157.832109 282.043555,157.832109 L275.354352,157.832109 L275.354352,161.077663 L271.953989,161.077663 L271.953989,150.212113 L282.448685,150.212113 Z M375.646873,150.212113 L375.646873,152.368206 L364.546757,152.368206 L364.546757,154.383189 L375.298643,154.383189 L375.298643,156.555884 L364.546757,156.555884 L364.546757,158.904968 L375.646873,158.904968 L375.646873,161.077663 L361.166877,161.077663 L361.166877,150.212113 L375.646873,150.212113 Z M250.070122,150.212113 L250.070122,152.40971 L244.109244,152.40971 L244.109244,161.077663 L240.729364,161.077663 L240.729364,152.40971 L234.773038,152.40971 L234.773038,150.212113 L250.070122,150.212113 Z M195.971565,150.212113 L201.820919,158.211864 L207.870562,150.212113 L212.946071,150.212113 L212.946071,161.077663 L209.545708,161.077663 L209.545708,153.098663 L203.659938,161.077663 L199.979624,161.077663 L194.112062,153.098663 L194.112062,161.077663 L190.734459,161.077663 L190.734459,150.212113 L195.971565,150.212113 Z M310.939818,150.212113 L315.548745,155.111571 L320.155396,150.212113 L324.031446,150.212113 L317.239823,157.419152 L317.239823,161.077663 L313.839459,161.077663 L313.839459,157.419152 L306.877135,150.212113 L310.939818,150.212113 Z M258.186385,150.170609 L261.499368,150.171587 C267.078523,150.207635 268.312368,151.251472 268.312368,155.115721 L268.312368,156.429299 C268.312368,160.440588 267.010488,161.077663 261.12927,161.077663 L258.122657,161.077663 C252.689813,161.077663 251.406142,160.226846 251.406142,156.472878 L251.406142,155.1593 C251.406142,151.13141 252.612429,150.170609 258.186385,150.170609 Z M223.247307,150.170609 L226.56029,150.171587 C232.139445,150.207635 233.37329,151.251472 233.37329,155.115721 L233.37329,156.429299 C233.37329,160.440588 232.07141,161.077663 226.190192,161.077663 L223.183579,161.077663 C217.750735,161.077663 216.467064,160.226846 216.467064,156.472878 L216.467064,155.1593 C216.467064,151.13141 217.668799,150.170609 223.247307,150.170609 Z M112.466918,25.2043307 L112.453193,25.2166123 C112.393752,25.2693251 112.14147,25.4884094 111.700765,25.8095769 L111.484,25.9648225 C109.221233,27.5580768 103.091421,31.0502816 93.5077283,30.4316648 C89.2470316,40.7389963 85.3095289,53.092438 85.4506417,71.7834256 C85.4543288,72.2659838 85.4580888,72.7493464 85.4618775,73.2333592 L85.4732859,74.6871938 C85.4751869,74.9297733 85.4770842,75.1724768 85.4789721,75.415285 L85.4901432,76.8732369 L85.5153544,80.5230437 L85.5236579,81.9825092 C85.5249313,82.2256417 85.5261458,82.4687056 85.5272958,82.7116815 L85.5333784,84.168327 C85.5377294,85.3810618 85.5401937,86.5906338 85.5400826,87.7946345 L85.538669,89.2366069 C85.5039878,107.463811 84.8106268,124.181193 81.0397281,130.929704 C81.0397281,130.929704 81.2937676,130.702385 81.7581891,130.240873 L81.9421235,130.056814 C84.5883395,127.390948 92.6170333,118.551236 100.151411,102.612038 C101.337287,100.104171 102.520056,97.5795813 103.699331,95.0580634 L104.583127,93.1678103 C112.236906,76.7959684 119.739,60.7629745 126.98333,50.5047105 C135.618524,38.2737034 159.14112,10.1262009 172.189504,10.1262009 C185.235611,10.1262009 192.541613,34.2250616 181.562126,27.2130879 C177.888641,24.8660793 174.397236,25.872533 168.331661,29.2239203 C162.266086,32.5753075 142.553536,42.3306459 126.798973,70.6088836 C115.036537,91.7215857 109.649214,104.348949 104.011529,115.345234 C97.3951588,128.246519 84.8019779,148.041493 67.6249065,157.736651 C63.7647882,159.913497 61.9280456,159.913497 59.7225888,157.570638 C59.3550127,157.17947 58.9721367,156.751065 58.5892712,156.308699 L58.2614605,155.926654 L57.9357975,155.541028 C56.2624437,153.544994 54.7608801,151.536066 54.7608801,151.536066 C54.7608801,151.536066 53.1062185,148.354842 57.332775,142.992623 C61.5593314,137.630403 69.4616492,122.050084 69.4616492,100.937382 C69.4616492,79.8246798 67.4428255,75.4689139 68.5444158,58.0437754 C69.1339033,48.7159205 71.9356755,36.6530016 76.5832944,26.1464545 C63.5781551,21.6184501 57.7174212,18.9352652 41.3460585,22.5232209 C25.4390024,26.0094937 22.2343759,35.0883292 22.9695282,38.4397164 C23.7046804,41.7931788 28.6663891,45.4786672 37.3038591,45.3105791 C43.0007201,45.2005954 53.6615657,42.6294693 59.5405078,37.603426 C65.4194498,32.5773827 67.6271825,37.2693248 63.031912,42.6294693 C58.4389174,47.9916888 48.1467858,59.3843303 31.0562029,59.3843303 C13.9656201,59.3843303 3.25140354e-06,50.3366223 3.25140354e-06,37.4353378 C3.25140354e-06,24.5340533 16.5375149,11.2986676 44.6553816,11.2986676 C60.4805012,11.2986676 72.4841946,14.191444 81.6155595,16.6629624 C84.7883218,11.6970988 88.4731872,7.60280342 92.6200831,5.09808242 C111.265183,-6.16174866 133.417619,3.42135122 112.466918,25.2043307 Z M261.010917,152.640053 L258.493647,152.640053 C255.279916,152.640053 254.831542,153.05716 254.831542,155.204953 L254.831542,156.335917 C254.831542,158.269968 255.282192,158.674625 258.370742,158.674625 L261.070094,158.674625 C264.402177,158.674625 264.918832,158.36335 264.918832,156.292338 L264.918832,155.161375 C264.918832,152.980379 264.424937,152.640053 261.010917,152.640053 Z M226.069563,152.640053 L223.552293,152.640053 C220.338562,152.640053 219.890188,153.05716 219.890188,155.204953 L219.890188,156.335917 C219.890188,158.269968 220.340838,158.674625 223.429388,158.674625 L226.133292,158.674625 C229.460823,158.674625 229.977478,158.36335 229.977478,156.292338 L229.977478,155.161375 C229.977478,152.980379 229.483583,152.640053 226.069563,152.640053 Z M282.535174,152.80399 L275.2929,152.80399 L275.2929,155.236081 L282.614834,155.236081 C283.796085,155.236081 284.223976,154.958009 284.223976,154.154921 L284.223976,153.922503 C284.223976,153.084137 283.798361,152.80399 282.535174,152.80399 Z M241.646597,37.9977068 C244.833016,39.3382617 241.282435,45.8169187 236.134094,54.5284504 C236.134094,54.5284504 236.157298,54.5291134 236.201363,54.5297274 L236.483319,54.5302331 C237.502242,54.5218797 240.538938,54.3998967 242.748188,53.2999542 C245.447539,51.9593993 245.565892,53.7461141 245.20173,56.2031064 C244.833016,58.6621738 241.890131,65.4749319 232.82477,63.9102595 C232.82477,63.9102595 226.085495,71.2812363 219.34622,86.4735001 C212.611497,101.663689 209.912146,114.062784 234.051541,94.2927119 C234.051541,94.2927119 234.415704,84.0165078 241.769502,72.7338499 C249.121025,61.4511921 259.65669,58.6600987 266.391413,58.6600987 C273.130688,58.6600987 276.317106,65.1387556 276.317106,70.7230176 C276.317106,70.7230176 276.368796,70.7269389 276.463695,70.7283404 L276.572682,70.7286635 C277.718454,70.719386 282.381828,70.3035754 283.666353,64.2443606 C285.136657,57.3174686 283.17701,56.8713087 288.689514,49.0520968 C294.202018,41.232885 298.002959,36.9891779 300.820664,40.0043888 C303.633816,43.0195998 301.55354,53.2958039 295.797503,60.7809146 L295.825386,60.8239126 C295.862943,60.8790281 295.939196,60.982614 296.058705,61.1080892 L296.135637,61.1857884 C297.053487,62.0780123 299.953963,63.714206 306.207987,58.0998048 C312.895784,52.0977638 315.574842,49.5091513 316.218168,48.8775967 L316.32287,48.7743772 L316.332067,48.7652589 L316.37949,48.7179957 C316.37949,48.7179957 323.239394,52.4034841 319.074289,57.0954262 C318.228253,58.048477 317.453022,58.8862822 316.714683,59.7099574 L316.376407,60.0894801 L316.042629,60.4692052 C313.443717,63.4502807 311.190607,66.6533323 307.680567,74.856741 C302.90094,86.0273401 302.413873,92.6180559 321.64846,77.9840107 L321.660219,77.9643134 C321.866676,77.6183007 324.757982,72.7660884 327.646823,67.5665171 L328.013689,66.9042557 L328.379304,66.2401513 C330.506024,62.3645208 332.50631,58.4916096 333.285716,56.3151652 C335.245363,50.8408868 335.614077,51.3991055 338.79822,49.948567 C341.984638,48.4959533 344.804618,47.1553984 347.007799,45.9269023 C349.213256,44.6984061 349.702599,45.2566248 350.804189,46.1489447 C351.905779,47.0433396 351.172903,48.4959533 349.820951,51.3991055 C349.460041,52.1767355 348.721258,53.4835121 347.795269,55.1046782 L347.415341,55.769403 C344.886785,60.192485 341.264564,66.5472721 339.89981,71.0591939 C339.860617,71.188767 339.822208,71.3180272 339.784642,71.4468825 L339.674537,71.8321412 C337.955253,77.9738972 338.317435,82.9705429 347.371961,76.6434558 C356.80376,70.0527401 357.661817,61.4511921 362.441444,50.728828 C367.221072,40.006464 374.447414,36.4309592 378.612518,38.8900266 C382.777622,41.3470189 375.58542,55.7756229 372.362586,60.670931 C371.234213,62.3850634 369.817484,63.8728168 368.3071,65.3996017 L367.893001,65.8171647 L367.475137,66.2378596 C363.280582,70.4644562 358.652729,75.3403021 357.541188,86.2493825 L357.557417,86.2406743 C357.654484,86.188699 358.184248,85.9065315 359.072766,85.460712 L359.546579,85.2244725 C363.235429,83.3965587 371.581862,79.5175324 380.940879,76.8675734 C393.55682,73.2941438 407.399532,79.9948431 395.398115,90.7192823 C383.392146,101.441646 372.974833,97.7582331 365.992025,99.4328891 C359.009216,101.107545 357.661817,101.443721 356.92894,99.3187552 L356.85897,99.1186314 C356.152756,97.1007831 355.680312,95.5892272 362.441444,94.1827283 C369.424253,92.7280395 375.182566,91.5016185 378.733147,89.488711 C382.288279,87.4778786 383.266965,85.3549875 375.55128,86.5855588 C367.835596,87.8161301 358.765683,93.1762745 354.844112,96.0794267 C354.844112,96.0794267 354.835776,96.1046735 354.819478,96.1537667 L354.759405,96.3342311 C354.29026,97.7403967 351.930339,104.748989 349.135004,111.905755 L348.849288,112.633861 C348.705737,112.997956 348.561187,113.361957 348.41583,113.725145 L348.101919,114.505034 C346.421837,118.654936 344.653582,122.630216 343.086228,125.347517 C338.183696,133.834931 329.976392,144.55937 319.197194,144.55937 C308.413444,144.55937 301.55354,133.502905 312.822081,119.985297 C324.095174,106.46769 340.143343,96.4176782 349.946132,90.1610636 C349.946132,90.1610636 351.172903,87.367895 350.314846,83.5703479 C350.314846,83.5703479 338.183696,92.171896 331.813135,92.171896 C325.442574,92.171896 323.608108,90.6092987 321.766813,85.2470791 C321.766813,85.2470791 312.947262,94.1848035 301.310007,97.4241319 C289.672751,100.66346 287.710828,92.3960135 290.530808,83.572423 C292.904405,76.1275186 295.021991,73.1338314 295.625788,72.3800645 L295.686583,72.3054181 C295.759166,72.2178803 295.797503,72.1777064 295.797503,72.1777064 C295.797503,72.1777064 291.017875,74.3005975 287.467295,72.4018239 C287.467295,72.4018239 287.447799,72.4291998 287.409121,72.4808966 L287.336756,72.5763007 L287.231486,72.7114244 C286.206805,74.0092035 281.879496,79.0197909 274.971982,80.6671957 C274.971982,80.6671957 274.958175,80.7405396 274.928376,80.8797566 L274.898866,81.0150434 C274.776121,81.5681002 274.489754,82.7487656 273.972224,84.3262053 L273.81801,84.7874996 C272.10472,89.8188812 268.184656,98.3313071 260.146032,103.79073 C248.137787,111.946118 239.564045,107.030059 235.767655,101.107545 C235.767655,101.107545 205.503508,130.151518 196.806862,110.489354 C196.806862,110.489354 165.932743,138.975108 150.496822,123.670786 C150.50365,123.668711 120.733398,148.915136 113.994123,133.94699 L113.970086,133.97418 C113.731571,134.243913 111.752678,136.480398 109.588196,138.882578 L109.138234,139.381354 L108.460055,140.130631 C106.879798,141.872745 105.342791,143.538913 104.43942,144.445236 C101.988153,146.906379 101.009468,147.128421 99.0475443,145.227573 C97.087897,143.330874 96.8420876,142.212362 100.640754,138.414814 C102.743274,136.312913 108.823646,128.701807 114.727396,120.467529 L115.327007,119.628187 C115.426786,119.488002 115.526475,119.347686 115.626052,119.207262 L116.274133,118.289527 C116.489494,117.983269 116.704119,117.676747 116.917801,117.370205 L117.555806,116.450765 C121.258553,111.089881 124.608473,105.798005 126.489435,101.887806 C131.758406,90.9413247 131.635501,87.1437775 140.334423,85.4691215 C149.033346,83.7923903 149.276879,87.9261137 146.338546,92.8421734 C144.841509,95.3448947 141.979483,100.365723 139.190625,105.458503 L138.594657,106.550023 C136.120488,111.095182 133.78654,115.55841 132.616463,118.198583 C132.282116,118.953672 131.895997,119.797454 131.528624,120.657543 L131.360656,121.055402 C129.007235,126.700668 127.919113,132.567007 147.80885,118.420625 L147.804925,118.410032 L147.793125,118.376574 C147.7765,118.327968 147.750361,118.245794 147.719888,118.129364 L147.692828,118.021162 C147.283921,116.310687 146.423942,109.155377 155.403906,95.1891821 C165.816667,78.9904645 178.311979,75.3049761 185.663501,75.3049761 C193.012748,75.3049761 195.709824,86.8096764 185.907035,97.309998 C185.907035,97.309998 181.864836,102.336041 178.924227,99.6570067 C175.983617,96.9738217 178.06617,96.0815019 182.599988,92.8442486 C187.133806,89.6049201 184.928349,83.9065242 177.333293,90.4993151 C169.738237,97.0879556 165.08379,105.12921 165.08379,110.269387 C165.08379,115.409564 171.697885,125.237533 197.303033,101.781973 L197.303549,101.752376 C197.306129,101.653802 197.321613,101.309401 197.414511,100.725249 L197.455952,100.478817 C197.784729,98.6212847 198.820375,94.8002044 202.08266,89.1587602 C206.862288,80.8933884 210.902212,73.4103529 212.372516,68.6063519 C212.372516,68.6063519 208.082231,69.0525119 205.876774,69.7227893 C203.671318,70.3930668 200.976518,69.0525119 202.444547,65.2549647 C203.914851,61.4553424 205.50806,60.8971237 209.916698,60.1168626 C214.129288,59.3700872 217.889788,58.6233117 218.222948,58.5569659 L218.246906,58.5521902 C218.246906,58.5521902 218.287753,58.4941992 218.362839,58.3830182 L218.449093,58.2542849 C219.161729,57.1828286 221.597197,53.3369879 223.149438,48.6100872 C224.983905,43.0237501 227.314542,42.3534727 231.110932,41.5732116 C234.911874,40.7929505 238.462455,36.6592271 241.646597,37.9977068 Z M342.355628,105.12506 C342.355628,105.12506 341.253026,105.907396 339.565067,107.254407 L339.18054,107.562949 C335.768107,110.316007 330.326589,115.103747 326.550993,120.371278 C320.672051,128.582695 322.69315,131.934082 330.961906,125.401471 C339.235214,118.86471 342.355628,105.12506 342.355628,105.12506 Z M260.120996,69.4384921 C252.034322,77.9010043 249.371386,83.597325 249.36911,89.4617339 C249.36911,95.3240676 252.4918,97.168887 259.750006,91.6385792 C267.010488,86.1082715 267.379202,77.7308409 267.379202,77.7308409 C264.62295,75.3859074 263.885522,73.8772644 263.152646,70.6109588 C262.41977,67.3446532 260.120996,69.4384921 260.120996,69.4384921 Z M161.895096,63.9102595 C159.323201,71.1152233 154.912288,75.4709891 148.664631,75.4709891 C142.416975,75.4709891 142.423803,72.8417584 144.622432,67.5957479 C147.00997,61.8994271 149.399784,60.3907841 155.096645,60.0566829 C160.793506,59.7205066 164.469267,56.7052957 161.895096,63.9102595 Z M98.0483746,20.1035816 C100.37446,20.0330261 102.277207,19.3814251 103.827172,17.833354 C111.153658,10.5163314 103.410662,9.70079259 98.0483746,20.1035816 Z" id="victory" fill="#FFFFFF"></path>
</svg>