<?xml version="1.0" encoding="UTF-8"?>
<svg width="400px" height="136px" viewBox="0 0 400 136" version="1.1" xmlns="http://www.w3.org/2000/svg">
    <title>wottan</title>
    <path d="M82.1046595,0.912023551 C95.8363832,1.24726555 109.295289,3.32140477 122.481102,7.13442045 C128.980326,9.07092716 135.018263,11.9286252 140.59519,15.7075006 C143.442283,17.7243869 145.81509,20.1902536 147.716378,23.1052392 C149.51949,26.1226868 150.441788,29.3952528 150.481888,32.9227987 C157.767623,31.4388262 164.888811,32.0150201 171.84545,34.6512423 C180.341096,38.1071615 184.627636,44.4447419 184.705071,53.6641217 C184.83505,61.916541 182.460859,69.3373716 177.583883,75.9264751 C173.029088,81.5367264 167.245025,85.2931182 160.230309,87.1959272 C152.074821,89.493651 144.009212,89.2631457 136.032099,86.5045498 C129.966092,98.5645229 122.084389,109.303827 112.386991,118.722738 C106.966869,123.785419 100.882747,127.887637 94.1346268,131.029256 C89.1727492,133.214424 84.0103722,134.574087 78.6477723,135.108383 L71.5957225,135.108383 C62.2755399,134.05265 53.7946894,130.803176 46.1530329,125.359962 C39.6681892,120.765758 33.9297565,115.349922 28.9377348,109.112592 C16.2509589,93.0936533 7.49350224,75.0717943 2.66539239,55.0468766 C0.675865326,46.9126828 -0.199878823,38.6621993 0.0381581403,30.2955645 C0.517896645,26.8256794 1.85455876,23.737573 4.04814725,21.0311069 C6.77428995,17.885063 9.93157562,15.2807825 13.5200181,13.2185419 C19.9076542,9.76766968 26.6371073,7.18653648 33.7082391,5.47511461 C49.62997,1.76916564 65.7621562,0.248135285 82.1046595,0.912023551 Z M67.1709069,2.64046713 C59.498415,3.04983171 51.8472175,3.85643411 44.2171761,5.06028815 C35.7760108,6.44446725 27.6177571,8.79515053 19.742415,12.112338 C14.4995616,14.329295 9.91340622,17.486553 5.98400407,21.5842088 C2.32302228,25.9008929 0.940267415,30.8788105 1.83573947,36.5179614 C2.4796331,46.7423274 4.46157713,56.6981624 7.78158539,66.3854665 C13.6197977,83.8341736 22.6077596,99.3670738 34.7453053,112.984305 C40.2905671,118.994864 46.6281475,123.94969 53.7581847,127.84892 C67.0828254,134.738773 80.5876391,135.107554 94.2729023,128.955124 C100.308904,126.008197 105.793878,122.274759 110.727685,117.75481 C120.466428,108.41195 128.34813,97.7186917 134.372793,85.6748969 C132.909286,84.8113664 131.480485,83.8894838 130.086253,82.9093871 C127.492482,80.9149015 125.579579,78.4028507 124.347821,75.3733731 C121.7564,80.3284752 118.852615,85.0760257 115.636465,89.6157482 C109.97837,97.5784804 103.202871,104.446071 95.3099684,110.218796 C94.6433423,112.194199 93.9980106,114.176102 93.3741116,116.164642 C87.5186979,110.193906 81.6419897,104.24806 75.7439871,98.3271039 C69.7501596,104.205748 63.8272674,110.151594 57.975587,116.164642 L55.7631793,110.08052 C51.2487612,106.99753 47.1004966,103.448551 43.3183855,99.4333078 C35.0119004,90.4271488 28.2825856,80.3330383 23.1301644,69.1509762 C18.7724124,59.8320381 16.0530867,50.0605242 14.9719107,39.836573 C14.1169534,35.1689457 14.992652,30.8824056 17.5991449,26.9769528 C20.0796689,23.8039452 23.0986376,21.2918944 26.6561893,19.4409388 C33.5677512,15.9386972 40.8503063,13.5419267 48.5037162,12.2506135 C61.0024374,10.0492815 73.5855067,9.40400515 86.2529241,10.3147566 C96.6175014,10.9653013 106.711612,12.9472454 116.535256,16.2606026 C121.496165,17.9792286 125.967027,20.5142331 129.947978,23.8657543 C134.570527,28.1453806 136.391062,33.4228029 135.40986,39.6982976 C139.325821,36.7152805 143.681499,34.5949642 148.476893,33.3376252 C148.692603,28.9858191 147.378986,25.1601512 144.536042,21.8607598 C141.574181,18.5945545 138.1408,15.9442283 134.234518,13.9099193 C127.233077,10.4391216 119.904476,7.90407564 112.248716,6.30476753 C97.3730387,3.31623326 82.3470564,2.09480303 67.1709069,2.64046713 Z M68.8302127,11.7666493 C63.99223,11.9829121 59.152588,12.4207753 54.3112866,13.0802664 C46.136993,14.1442271 38.2552902,16.2644743 30.6661784,19.4409388 C26.6476162,21.160671 23.1215913,23.580492 20.0881037,26.7004018 C18.2714404,28.7667907 17.1191907,31.1635197 16.6312165,33.8907271 C16.5186603,40.2263716 17.3021292,46.4487685 18.9818998,52.5579178 C22.9571818,66.6851095 29.4099456,79.498684 38.3404679,90.9985031 C43.4550016,97.588298 49.3778938,103.326731 56.108868,108.213801 C56.2931892,108.306031 56.4776487,108.306031 56.6619699,108.213801 C62.9877969,104.025298 69.3253773,99.8539418 75.6748493,95.6998696 C82.0398083,99.967466 88.4235727,104.20796 94.8260042,108.421214 C97.114187,106.746283 99.3265948,104.971794 101.463228,103.097608 C110.575997,94.4020159 117.92769,84.4230889 123.518168,73.1609653 C122.641225,68.3586577 122.733454,63.5650614 123.794719,58.7803147 C125.222551,52.0171224 128.402888,46.2555977 133.335727,41.4958789 C133.602876,39.8246813 133.718197,38.1422835 133.681416,36.4488236 C133.921739,33.7917219 133.345545,31.3258551 131.952972,29.0510851 C129.632848,25.6709408 126.659925,23.0207528 123.034204,21.1002446 C117.37362,18.1840146 111.427774,16.0636983 105.196666,14.7395722 C93.1994697,12.2764018 81.0774109,11.2854229 68.8302127,11.7666493 Z M56.5236944,33.8907271 C57.2839331,43.2646989 57.9291265,52.667432 58.4595512,62.0989264 C58.416271,62.4787692 58.4623168,62.8475499 58.5978267,63.2051303 C58.68176,63.1879841 58.7278057,63.1419384 58.7361022,63.0668548 C62.8267059,53.3413867 66.9749705,43.6390106 71.180896,33.9598649 C77.3569706,33.8907271 83.5333218,33.8676351 89.7098112,33.8907271 C90.4045073,43.5707026 91.1189767,53.2499866 91.8530813,62.9285793 C96.024991,53.2700366 100.196209,43.6137062 104.367013,33.9598649 C111.465661,33.8446814 118.563757,33.8676351 125.661438,34.0290026 C116.948561,51.6390772 108.237205,69.246248 99.5273708,86.8502385 C92.4390928,86.9878226 85.3409972,87.0340066 78.2329458,86.988514 C77.4169822,77.9063035 76.5642373,68.8261671 75.6748493,59.7482431 C71.8341094,68.7662938 68.0315335,77.8002462 64.2671217,86.8502385 C57.1695792,86.988514 50.0714837,87.0345597 42.9726967,86.988514 C40.317116,69.3781628 37.643836,51.7711303 34.9527185,34.1672781 C42.0954771,33.8912802 49.2858024,33.7991887 56.5236944,33.8907271 Z M156.412237,47.5904022 L156.162593,47.5974638 C155.826408,47.6130503 155.476917,47.6533209 155.114116,47.7182758 C154.186288,47.9431117 153.26399,48.2427547 152.348607,48.6170664 C150.744611,49.5761452 149.522256,50.8897623 148.684306,52.5579178 C146.982135,56.853031 145.899438,61.3009386 145.434832,65.9015023 C145.454191,67.0060469 145.615973,68.0891587 145.918797,69.1509762 C146.451157,71.0718993 147.67213,72.2932866 149.583097,72.8152766 C150.254872,72.9332093 150.902102,72.9922941 151.524794,72.9925302 L151.834095,72.9877442 C154.599405,72.9005334 156.867856,71.6216338 158.640141,69.1509762 C161.91727,63.4079804 162.792554,57.323859 161.267376,50.898612 C160.25468,48.6712661 158.636578,47.5685018 156.412237,47.5904022 Z M223.837033,17.5742197 C222.869105,22.8286882 221.901176,28.0831567 220.933248,33.3376252 C224.204846,33.4759007 227.476444,33.5219464 230.750808,33.4759007 C229.957106,38.0456289 229.127453,42.60872 228.261849,47.1651738 C224.990251,47.3034493 221.718653,47.3494951 218.444289,47.3034493 C217.217786,54.2668646 215.973306,61.2266846 214.710851,68.1830478 C214.731592,69.1020267 215.146419,69.7704504 215.955331,70.1880424 C218.61022,70.606464 221.284468,70.7678315 223.975309,70.6720066 C223.11247,76.12172 222.191555,81.5605098 221.209799,86.988514 C216.849973,87.0671927 212.494295,87.2516522 208.142766,87.5416159 C204.810326,87.527097 201.515221,87.1814083 198.256068,86.5045498 C194.10089,85.5460241 191.819344,82.9418819 191.411432,78.6919848 C191.357504,75.4857911 191.634055,72.3054549 192.241085,69.1509762 C193.507688,61.8740904 194.728661,54.5915354 195.905385,47.3034493 L188.853335,47.3034493 C189.535033,42.7369014 190.249918,38.1738103 190.996605,33.6141761 C193.645964,33.5675773 196.273198,33.4293018 198.878308,33.1993497 C199.808902,27.9394884 200.753324,22.68502 201.712955,17.4359442 C209.08857,17.3898985 216.462802,17.4359442 223.837033,17.5742197 Z M320.629874,32.7153855 C324.169726,33.0952282 327.350063,34.3397076 330.170882,36.4488236 C333.02074,39.1628949 334.403495,42.5045986 334.319147,46.4737964 C334.218206,48.5584376 334.010793,50.6325699 333.696907,52.6961933 C332.023774,62.2850452 330.340961,71.8720995 328.649852,81.4574945 C328.983096,82.8182636 329.69798,83.9244675 330.793122,84.7761062 C330.812481,85.5299842 330.697712,86.2674073 330.447433,86.988514 C322.842282,87.1267895 315.23713,87.1728352 307.631978,87.1267895 C307.655485,85.559022 307.631978,83.9918076 307.56284,82.4254229 C301.593488,86.7191533 294.910633,88.8394696 287.512895,88.7860953 C282.581991,88.7961894 278.180682,87.2981128 274.307586,84.292142 C272.274936,82.4151905 271.145226,80.087461 270.919836,77.3092299 C270.514689,66.2965553 275.607375,59.2675975 286.199278,56.2222182 C292.525381,54.9528492 298.886054,53.8926911 305.281295,53.041882 C307.504765,52.8234067 309.509759,52.0628916 311.296279,50.7603365 C312.383124,49.4196174 312.268355,48.19823 310.95059,47.0960361 C310.212199,46.715502 309.42956,46.485135 308.599907,46.4046587 C306.419302,46.0844126 304.34517,46.4070093 302.37751,47.3725871 C300.928383,48.3092652 300.007468,49.6228823 299.612,51.3134384 C292.376044,51.3365304 285.138705,51.3134384 277.902749,51.2443007 C278.970235,43.8554118 282.933211,38.6930348 289.79444,35.7574462 C293.921964,34.0688259 298.208504,33.0086678 302.654061,32.57711 C304.793182,32.3695585 306.912946,32.2083293 309.014733,32.0931458 C312.901657,32.0339639 316.773371,32.2413771 320.629874,32.7153855 Z M266.702434,17.5742197 C265.71653,22.871277 264.748602,28.1719295 263.798649,33.4759007 L273.616208,33.4759007 C272.786556,38.0850375 271.956903,42.6943125 271.12725,47.3034493 L261.30969,47.3034493 C260.072125,54.2867762 258.827645,61.2696883 257.576252,68.2521855 C257.7007,69.4366534 258.346446,70.1280308 259.512109,70.3263178 C261.945757,70.6202915 264.387702,70.735475 266.84071,70.6720066 C265.933622,76.1597458 265.011325,81.6445813 264.0752,87.1267895 C259.712608,87.0640124 255.35693,87.2022879 251.008166,87.5416159 C247.675727,87.527097 244.380622,87.1814083 241.121469,86.5045498 C237.3424,85.7212192 235.106485,83.4396736 234.415108,79.6599132 C234.21046,78.1904596 234.164829,76.715475 234.276833,75.2350976 C234.514666,73.1558491 234.791217,71.0817168 235.106485,69.0127007 C236.357879,61.7796483 237.578851,54.5432772 238.770786,47.3034493 L231.718736,47.3034493 C232.372779,42.7328914 233.087663,38.1698003 233.862006,33.6141761 C236.511364,33.5675773 239.138599,33.4293018 241.743709,33.1993497 C242.645265,27.9307771 243.589687,22.6763086 244.578356,17.4359442 C251.953971,17.3898985 259.328202,17.4359442 266.702434,17.5742197 Z M309.014733,64.8644361 C307.726006,65.3601537 306.388882,65.7520265 305.004744,66.0397778 C303.11037,66.4327567 301.220144,66.8475832 299.335449,67.2842571 C298.184997,67.6372745 297.078793,68.0981467 296.016837,68.667012 C295.343436,69.2545445 294.859471,69.969014 294.564945,70.810282 C293.951002,72.6010879 294.526228,73.8686593 296.293388,74.6128579 C298.774051,75.5658526 301.171747,75.3815314 303.483714,74.059756 C306.624872,71.8965005 308.451956,68.9603063 308.966217,65.2509235 L309.014733,64.8644361 Z M391.012097,33.5450384 C396.520992,35.8225739 399.517422,39.9477465 400.000003,45.9206945 L400.000003,51.8665404 C397.943847,63.6046082 395.869714,75.3580245 393.777606,87.1267895 C386.31073,87.1498815 378.843854,87.1267895 371.376978,87.0576517 C373.080532,77.5954602 374.763344,68.1235893 376.424033,58.6420392 C376.632829,56.8869085 376.632829,55.1355112 376.424033,53.3875707 C375.700852,51.0184968 374.087177,49.9583387 371.584391,50.2072345 C367.797025,50.2108297 365.308066,52.008411 364.117514,55.5999785 C363.594833,57.0912796 363.180007,58.61231 362.873035,60.1630696 C361.306374,69.1049305 359.73833,78.0466531 358.171669,86.988514 C350.690965,87.1263746 343.201964,87.1725587 335.701902,87.1267895 C338.78268,69.2857948 341.893878,51.448257 345.035497,33.6141761 C351.916086,33.4763155 358.806353,33.4301315 365.707683,33.4759007 C365.386883,35.5645519 365.041195,37.6386842 364.670616,39.6982976 C372.217692,32.4823913 380.998186,30.431351 391.012097,33.5450384 Z M348.146696,95.0084922 C350.313473,95.0084922 352.478867,95.0084922 354.645644,95.0084922 C354.315165,96.6588101 354.038614,98.318116 353.815991,99.9864097 C354.783919,99.9864097 355.751848,99.9864097 356.719776,99.9864097 C356.549697,101.233378 356.365791,102.477857 356.166674,103.719848 C355.151732,103.696894 354.138173,103.719848 353.124613,103.788986 C352.60608,106.096803 352.213378,108.424533 351.949272,110.771898 C352.014261,110.96977 352.12903,111.130999 352.29496,111.255862 C353.069303,111.424143 353.853325,111.493281 354.645644,111.463275 C354.414724,113.030351 354.185186,114.597566 353.954266,116.164642 C352.658625,116.125786 351.368515,116.17197 350.082553,116.302917 C348.91689,116.232811 347.763673,116.071582 346.625665,115.818953 C345.804309,115.597021 345.320345,115.067011 345.173773,114.228785 C345.081128,113.445178 345.081128,112.661709 345.173773,111.878102 C345.612106,109.156978 346.050439,106.437653 346.48739,103.719848 C345.744851,103.765202 345.006459,103.719156 344.274982,103.581572 C344.548768,102.397658 344.734057,101.199224 344.828084,99.9864097 C345.657737,99.9864097 346.48739,99.9864097 347.317043,99.9864097 C347.647521,98.3363683 347.924072,96.6770625 348.146696,95.0084922 Z M305.281295,99.5715833 C307.208855,99.2438704 308.937299,99.6586968 310.466626,100.816063 C310.777745,101.300995 311.054296,101.807913 311.296279,102.337093 C314.031368,99.4577825 317.233828,98.7894971 320.906425,100.332098 C321.726399,100.935947 322.210363,101.742508 322.358318,102.751919 C322.450962,103.812078 322.450962,104.872097 322.358318,105.932256 C321.791388,109.346001 321.214779,112.756842 320.629874,116.164642 C318.463097,116.164642 316.297703,116.164642 314.130926,116.164642 C314.638397,112.938536 315.144485,109.712154 315.651956,106.485358 C315.786084,105.329789 315.278613,104.730503 314.130926,104.687776 C312.929312,104.677129 312.121783,105.230231 311.711105,106.347082 C311.022493,109.554935 310.42376,112.781317 309.913524,116.026366 C307.734302,116.163397 305.545401,116.209581 303.345438,116.164642 C303.942788,112.876589 304.49589,109.580931 305.004744,106.277944 C304.703303,104.767146 303.82802,104.306274 302.37751,104.89519 C301.734529,105.186398 301.297578,105.670362 301.063893,106.347082 C300.263277,109.583835 299.641038,112.856401 299.197173,116.164642 C297.030397,116.164642 294.865002,116.164642 292.698226,116.164642 C293.605313,110.769409 294.52761,105.376665 295.463735,99.9864097 C297.445223,99.9864097 299.428094,99.9864097 301.409581,99.9864097 C301.347357,100.640315 301.27822,101.285508 301.202168,101.922267 C302.394103,100.83155 303.753351,100.048081 305.281295,99.5715833 Z M332.798117,99.5715833 C335.804226,99.1494282 338.522722,99.8177136 340.95637,101.576578 C342.06534,102.805985 342.618442,104.257878 342.615687,105.932256 C342.547921,110.812689 340.244252,114.108347 335.701902,115.818953 C332.168963,116.98019 328.850352,116.565364 325.746067,114.574474 C324.667518,113.592165 324.045278,112.370639 323.879348,110.910173 C323.753517,104.655973 326.72644,100.876489 332.798117,99.5715833 Z M333.351219,103.858123 C334.796198,103.621949 335.649357,104.221235 335.909315,105.655705 C336.141618,107.539293 335.772422,109.290829 334.803111,110.910173 C333.878048,111.971023 332.74972,112.270527 331.415362,111.808964 C330.51104,111.013188 330.212365,110.022168 330.516571,108.836041 C330.688033,107.640511 331.011597,106.488261 331.4845,105.379154 C331.928364,104.633434 332.550604,104.126516 333.351219,103.858123 Z M366.122509,99.5715833 C369.049801,99.1654682 371.722666,99.7877079 374.142487,101.438302 C375.420153,102.736294 376.020268,104.30337 375.940069,106.139669 C375.711914,111.990796 372.716867,115.447683 366.952162,116.51033 C363.986153,116.987243 361.313288,116.342049 358.932184,114.574474 C357.375202,112.792656 356.844224,110.741477 357.342016,108.421214 C358.265696,103.464868 361.191605,100.515037 366.122509,99.5715833 Z M367.090437,103.858123 C367.993376,103.813599 368.661247,104.182379 369.095432,104.964327 C369.595989,107.045788 369.319438,109.027691 368.265779,110.910173 C367.083524,112.328741 365.7464,112.513063 364.25579,111.463275 C363.686095,110.24894 363.639081,109.00446 364.117514,107.729837 C364.3111,106.396723 364.887709,105.267427 365.845958,104.342088 C366.255253,104.120294 366.67008,103.958926 367.090437,103.858123 Z M388.937964,99.5715833 C389.723369,99.5486295 390.506008,99.5717215 391.288648,99.640721 C390.83787,101.765877 390.470057,103.909147 390.182444,106.070531 C386.793312,105.448983 384.788317,106.831738 384.16746,110.218796 C383.821771,112.202496 383.476083,114.184537 383.130394,116.164642 C380.963617,116.164642 378.798223,116.164642 376.631446,116.164642 C377.538533,110.769409 378.460831,105.376665 379.396956,99.9864097 C381.378443,99.9864097 383.361314,99.9864097 385.342802,99.9864097 C385.165809,100.859481 385.05104,101.73518 384.997113,102.613644 C385.926324,101.079892 387.239941,100.06578 388.937964,99.5715833 Z" id="wottan" fill="#FCFBFB"></path>
</svg>