<?xml version="1.0" encoding="UTF-8"?>
<svg width="400px" height="401px" viewBox="0 0 400 401" version="1.1" xmlns="http://www.w3.org/2000/svg">
    <title>yamaha</title>
    <path d="M200.000002,0.50924082 C252.357582,0.50924082 304.395303,22.0721372 341.421719,59.0875235 C378.437105,96.1029098 400.000002,148.151661 400.000002,200.52027 C400.000002,252.866821 378.437105,304.904542 341.421719,341.919929 C304.395303,378.968404 252.368611,400.509241 200.000002,400.509241 C147.642422,400.509241 95.6047002,378.946344 58.5893139,341.919929 C21.562898,304.904542 1.62570166e-06,252.866821 1.62570166e-06,200.52027 C1.62570166e-06,148.151661 21.562898,96.1029098 58.5893139,59.0875235 C95.6047002,22.0721372 147.642422,0.50924082 200.000002,0.50924082 Z M200.000002,9.05719207 C149.870404,9.05719207 100.049635,29.6936008 64.6114835,65.1317523 C29.173332,100.569904 8.53692326,150.379643 8.53692326,200.52027 C8.53692326,250.638839 29.173332,300.448578 64.6114835,335.886729 C100.049635,371.34694 149.870404,391.983349 200.000002,391.983349 C250.1296,391.983349 299.950368,371.34694 335.399549,335.886729 C370.837701,300.448578 391.47411,250.627809 391.47411,200.52027 C391.47411,150.379643 370.837701,100.569904 335.399549,65.1317523 C299.950368,29.6936008 250.1296,9.05719207 200.000002,9.05719207 Z M199.988972,30.6311181 C244.471407,30.6311181 288.667073,48.9292485 320.112504,80.3857091 C351.568964,111.84217 369.878124,156.037835 369.878124,200.52027 C369.878124,245.002706 351.568964,289.198371 320.112504,320.654832 C288.667073,352.089233 244.460378,370.398393 199.988972,370.398393 C155.517566,370.398393 111.321901,352.089233 79.8654403,320.654832 C48.4089797,289.198371 30.1108493,244.980647 30.1108493,200.52027 C30.1108493,156.037835 48.4089797,111.84217 79.8654403,80.3857091 C111.321901,48.9402782 155.517566,30.6311181 199.988972,30.6311181 Z M199.977942,39.4327504 C198.725082,39.4383356 197.609702,40.227478 197.18745,41.4070514 L182.992336,81.7092629 C182.286445,83.7582687 183.024668,86.0269531 184.801193,87.2681886 C187.289876,88.9970995 189.197039,91.4387293 190.271882,94.2719938 C192.425602,100.097243 190.737495,106.647452 186.03651,110.706119 C181.933493,114.224566 178.613579,118.636412 176.341478,123.544591 C174.091437,128.463799 172.911268,133.86831 172.911268,139.261791 L172.911268,153.655438 L102.123202,112.790717 L93.3767181,127.956437 L172.922298,173.883751 L172.922298,184.924396 L163.359622,190.439203 L83.8140423,144.511888 L75.0565284,159.677608 L145.844594,200.54233 L133.39216,207.711579 C123.875105,213.191386 117.239332,222.568548 115.237414,233.366462 C114.674904,236.322399 113.196935,239.112892 111.046161,241.208518 C108.895386,243.315175 106.093864,244.737995 103.126897,245.234328 C100.159931,245.73066 97.0495797,245.300505 94.325265,244.01004 C92.3670769,243.075378 90.0249081,243.578242 88.6229543,245.234328 L60.8172961,277.661394 C60.4223059,278.129066 60.1798348,278.706378 60.1224303,279.315837 C60.0504882,280.233987 60.4073999,281.133765 61.0891514,281.752951 C61.7709029,282.372137 62.7007792,282.641055 63.6077885,282.481336 L105.61959,274.617221 C107.748317,274.211394 109.342629,272.431907 109.513044,270.271553 C109.870531,265.689352 112.339412,261.534254 116.192954,259.029344 C120.046495,256.524434 124.846056,255.954841 129.178847,257.488229 C139.53143,261.144402 150.965807,260.084394 160.469863,254.587441 L172.922298,247.429221 L172.922298,329.147635 L190.437326,329.147635 L190.437326,237.304035 L200.000002,231.789228 L209.562677,237.304035 L209.562677,329.147635 L227.088735,329.147635 L227.088735,247.429221 L239.53014,254.587441 C249.036501,260.077153 260.467638,261.13686 270.821156,257.488229 C276.68205,255.444663 283.195823,257.251115 287.167045,262.021401 C289.08315,264.373083 290.244174,267.248732 290.497989,270.271553 C290.669632,272.435263 292.269406,274.215803 294.402472,274.617221 L336.403244,282.481336 C337.004912,282.588148 337.624873,282.507283 338.179012,282.249714 C338.736475,282.003678 339.197639,281.581267 339.491536,281.047486 C340.111565,279.962479 339.988228,278.605776 339.182707,277.650365 L311.377049,245.223298 C309.973006,243.570702 307.633399,243.068388 305.674738,243.999011 C302.961453,245.289476 299.851102,245.719631 296.873106,245.223298 C293.917169,244.726965 291.104618,243.304145 288.953843,241.197489 C286.814097,239.101862 285.3251,236.31137 284.773619,233.355433 C282.739838,222.567914 276.107649,213.201507 266.607844,207.700549 L254.155409,200.5313 L324.932445,159.666578 L316.174931,144.500858 L236.629351,190.428173 L227.066676,184.913366 L227.066676,173.872722 L306.612256,127.945407 L297.854742,112.779687 L227.066676,153.644409 L227.066676,139.261791 C227.057052,128.284051 222.260105,117.856432 213.930405,110.706119 C211.647275,108.742848 209.981803,106.073681 209.231789,103.161863 C207.693075,97.1444409 210.05996,90.8048839 215.165722,87.2681886 C216.942247,86.0269531 217.680469,83.7582687 216.974578,81.7092629 L202.768435,41.4070514 C202.346183,40.227478 201.230803,39.4383356 199.977942,39.4327504 Z M236.629351,210.612368 L259.990075,224.101586 C264.534291,226.763232 266.092863,232.584524 263.486463,237.16065 C262.212276,239.349744 260.128558,240.950167 257.684886,241.616614 C255.234786,242.262015 252.629325,241.921483 250.427399,240.668067 L227.066676,227.178849 L227.066676,216.127175 L236.629351,210.612368 Z M163.359622,210.612368 L172.922298,216.127175 L172.922298,227.156789 L149.561574,240.646008 C147.35738,241.892647 144.754638,242.232823 142.304088,241.594555 C137.219649,240.211667 134.201438,234.987651 135.542934,229.892134 C136.217316,227.455228 137.816038,225.377682 139.998899,224.101586 L163.359622,210.612368 Z M200.000002,187.803125 L210.996527,194.156183 L210.996527,206.851269 L200.000002,213.204327 L189.003476,206.851269 L189.003476,194.156183 L200.000002,187.803125 Z M200.000002,127.206423 C202.503724,127.206423 204.996417,128.221147 206.761155,129.996915 C208.542445,131.798078 209.54801,134.224896 209.562677,136.758069 L209.562677,163.736506 L200.011031,169.251313 L190.448355,163.736506 L190.448355,136.758069 C190.459489,134.224184 191.465586,131.796082 193.249878,129.996915 C195.014616,128.232177 197.496279,127.206423 200.000002,127.206423 Z" id="yamaha" fill="#FFFFFF"></path>
</svg>