<?xml version="1.0" encoding="UTF-8"?>
<svg width="400px" height="452px" viewBox="0 0 400 452" version="1.1" xmlns="http://www.w3.org/2000/svg">
    <title>abarth</title>
        <g id="abarth" transform="translate(0, 0.0329)" fill="#FFFFFF" fill-rule="nonzero">
            <path d="M315.898397,35.2613848 C327.126837,41.4032616 342.02705,43.1544155 373.229428,37.7520288 C376.352115,40.0261982 380.762893,44.2666894 385.272251,48.6584362 L386.400955,49.7584737 L387.318201,50.6525442 C391.9007,55.1172626 396.399559,59.4552153 399.568631,61.7649186 C384.920049,100.398146 386.604443,112.378914 400,150.038992 C374.372043,168.657198 370.325389,191.170566 377.265812,209.049282 C409.569722,292.231658 387.220685,349.757832 328.210395,394.486717 C295.200375,419.506136 281.198847,417.285097 244.956125,427.509576 C232.644127,430.986207 226.661446,435.864788 216.406155,441.421235 C212.749787,444.315004 209.095986,447.550274 204.350924,451.281105 C191.099157,443.66795 176.576392,431.902867 161.499008,427.938378 C125.076549,418.358385 109.449683,420.135216 75.9954552,395.711498 C16.1814832,352.040494 -7.20746166,294.920013 23.5815204,211.175316 C30.198417,193.173352 26.6627296,166.572247 0.695839726,148.413654 C13.4109627,110.522485 14.8411573,98.0179115 0,59.6440196 C3.04400036,57.3414014 8.18810064,53.3254735 13.5166639,49.1592553 L14.7487349,48.1958639 L15.9821233,47.2314053 C21.5274877,42.8953436 26.9539579,38.6565259 30.1162515,36.2653454 C61.4136331,41.1131145 70.6726665,42.6639897 81.790696,36.3218343 C170.95832,-14.566902 234.57245,-9.2466809 315.898397,35.2613848 Z M57.8805133,125.946504 L56.108818,125.882313 L54.3063107,125.782173 L52.4473145,125.646087 L50.5703446,125.47662 L48.652292,125.281477 L46.6700474,125.058089 L44.6287464,124.806457 L42.5283888,124.534284 L40.3484334,124.239001 L38.0863124,123.918042 L35.7343227,123.573973 L33.2950322,123.206796 L30.75817,122.821645 L25.8795889,121.835658 L25.3095652,124.624152 L24.6419699,127.571842 L23.8999121,130.563183 L23.0910947,133.595606 L22.2155177,136.684518 L21.2783166,139.837622 L20.2846267,143.049783 L21.6994152,144.369567 L24.0205927,146.72926 L26.2108189,149.140306 L28.2649583,151.612976 L30.1881463,154.137 L31.9701123,156.702107 L33.6159915,159.300593 L35.1283516,161.932459 L36.512328,164.59257 L37.7627854,167.278357 L38.8848591,169.97955 L39.8734137,172.691014 L40.7464229,175.415317 L41.4884808,178.144755 L42.1124256,180.861354 L42.6156898,183.57025 L43.0085439,186.276579 L43.2832851,188.970069 L43.4501839,191.63018 L43.5118081,194.274884 L43.4707253,196.904183 L43.3218002,199.497534 L43.0804388,202.047234 L42.7389381,204.573826 L42.3050012,207.061902 L41.7760603,209.508896 L41.1572508,211.912239 L40.4485727,214.269364 L39.7450299,216.3158 L37.0695134,223.908413 L34.8073923,231.056818 L32.8431215,238.028054 L31.1792686,244.819552 L29.8029952,251.433881 L28.7117336,257.873608 L27.9003486,264.146436 L27.361137,270.249798 L27.0863958,276.191396 L27.0709898,281.978934 L27.3072158,287.614979 L27.7925062,293.102099 L28.5191581,298.463403 L29.4846036,303.683485 L30.6862751,308.788021 L32.1241727,313.777012 L33.785458,318.670999 L35.6778339,323.454577 L38.958,330.029 L38.8001258,330.122827 L40.1532902,332.775234 L42.7389381,337.320018 L45.5582445,341.787771 L48.6060738,346.181062 L51.8926969,350.517863 L55.4129783,354.790473 L59.1643504,358.998891 L63.1545162,363.150821 L67.3783404,367.248829 L71.8358229,371.290348 L76.5269638,375.267676 L81.4466277,379.19365 L86.6333297,383.091379 L89.4680421,385.127545 L92.2231566,387.032759 L94.8729964,388.799319 L97.4304,390.429792 L99.8902319,391.929314 L102.265331,393.308155 L104.555696,394.571451 L106.79214,395.734607 L108.972096,396.81303 L111.09813,397.79645 L113.183082,398.705406 L115.255195,399.547603 L117.311902,400.335879 L119.363474,401.067667 L121.422748,401.750668 L123.520538,402.402857 L125.644005,403.024234 L127.805987,403.614799 L130.024457,404.192526 L132.309687,404.754847 L134.664244,405.317168 L137.088129,405.874353 L139.601882,406.43667 L142.210639,407.009265 L144.911832,407.59983 L147.713165,408.216072 L150.609502,408.868261 L153.623951,409.551262 L156.751379,410.28305 L159.991783,411.061055 L163.358004,411.898117 L166.93991,412.819912 L168.719308,413.320608 L170.544925,413.888064 L172.342297,414.499171 L174.111424,415.15136 L175.839469,415.844632 L177.539269,416.561013 L179.213393,417.313342 L180.864408,418.086212 L182.489745,418.887326 L184.079136,419.703846 L185.645417,420.535773 L187.196292,421.388241 L188.721491,422.256115 L190.215877,423.123989 L191.687155,424.002133 L193.153297,424.890548 L194.59633,425.778964 L195.99828,426.657108 L197.392527,427.540388 L198.771368,428.423668 L200.119397,429.291542 L201.45202,430.149145 L202.753831,430.996478 L204.053074,431.83354 L204.44336,432.090307 L205.054467,431.584475 L205.80166,430.973369 L206.543718,430.372533 L207.296046,429.761427 L209.062606,428.356909 L212.005161,426.736706 L213.645905,425.80464 L215.266107,424.862304 L216.89658,423.904562 L218.547595,422.936548 L220.231989,421.947994 L221.983143,420.949168 L223.80876,419.934937 L225.719109,418.920706 L227.724463,417.906474 L229.82482,416.912785 L232.040723,415.939636 L234.367036,415.002435 L236.81403,414.103749 L239.376569,413.251281 L241.998164,412.463005 L245.554393,411.479586 L248.894937,410.586035 L252.109665,409.759244 L255.203713,408.981239 L258.171944,408.259722 L261.02463,407.576721 L263.766907,406.929667 L268.902255,405.725428 L271.390331,405.13743 L273.737186,404.564839 L276.014713,403.992248 L278.210074,403.419656 L280.336109,402.836794 L282.408222,402.235958 L284.434117,401.614581 L286.418929,400.967527 L288.385767,400.279391 L290.3372,399.547603 L292.293768,398.764463 L294.265741,397.922266 L296.260824,397.010741 L298.291855,396.017051 L300.381942,394.938628 L302.533653,393.760066 L304.759826,392.476229 L307.065598,391.071711 L309.468941,389.541377 L311.962152,387.882659 L314.560639,386.08272 L317.279806,384.121016 L320.083706,382.03093 L325.193378,378.043331 L330.043715,374.035192 L334.657825,369.967996 L339.045981,365.849446 L343.192775,361.682111 L347.103342,357.458287 L350.780252,353.180542 L354.226071,348.846307 L357.425393,344.453017 L360.39876,340.005805 L363.130765,335.486698 L365.634248,330.898264 L367.901504,326.245639 L369.942805,321.505712 L371.74788,316.681052 L373.321864,311.766523 L374.664758,306.751856 L375.773993,301.626778 L376.641867,296.386155 L377.273515,291.01458 L377.658666,285.517189 L377.794753,279.881144 L377.674072,274.093607 L377.294056,268.157144 L376.641867,262.064053 L375.720072,255.804063 L374.510698,249.384877 L373.016311,242.796225 L371.226642,236.035539 L369.141691,229.10025 L366.748618,221.992928 L363.954989,214.467075 L363.212931,212.454018 L362.465738,210.140544 L361.813548,207.788554 L361.256363,205.405752 L360.783911,202.984435 L360.421869,200.519468 L360.159966,198.033959 L360.003338,195.525342 L359.95712,192.991047 L360.021312,190.431076 L360.201049,187.860834 L360.501467,185.277754 L360.91743,182.692106 L361.459209,180.098755 L362.116534,177.510539 L362.90481,174.937729 L363.808631,172.370055 L364.845972,169.810084 L366.003993,167.275789 L367.282695,164.762036 L368.687212,162.279095 L370.217546,159.824399 L371.868561,157.40565 L373.637688,155.017713 L375.532632,152.668291 L377.548256,150.359951 L379.679426,148.08756 L381.936412,145.858818 L383.004564,144.875399 L382.005739,141.850679 L381.006913,138.720684 L380.079983,135.660016 L379.212109,132.658405 L378.485457,129.93667 L378.445,129.959 L377.050127,123.882094 L376.75998,122.549471 C371.827478,122.978273 361.746789,124.44955 356.421432,125.117146 L353.799837,125.422699 L351.242433,125.687169 L348.764628,125.910557 C338.188377,126.727077 327.992143,126.711671 317.605901,124.362249 L315.854747,123.910339 L314.134405,123.417345 C299.842961,118.819154 287.564641,112.88802 275.553385,107.038349 L273.607679,106.090691 C253.844525,96.4679717 234.550728,87.2744799 207.902018,84.8483102 L203.067087,84.5735691 C144.138963,83.1382391 102.688997,126.639777 57.8805133,125.946504 Z M144.88102,358.82429 L176.697072,360.714098 L181.955669,383.448286 L135.919837,377.576015 L144.88102,358.82429 Z M198.969079,339.977561 L227.390665,355.219275 L185.265401,383.022052 L179.275017,359.966905 L198.969079,339.977561 Z M122.164806,337.943962 L142.251722,358.57009 L132.807816,376.890446 L112.854419,340.996927 L122.164806,337.943962 Z M244.897068,321.623825 L228.969785,353.229327 L200.34792,338.175053 L215.027314,322.296556 L244.897068,321.623825 Z M116.711,285.728 L120.685826,335.368585 L111.134078,338.015857 L85.5959893,335.758872 L110.801,289.372 L116.711,285.728 Z M249.239006,237.868858 L251.264901,245.525663 L251.264901,245.620667 L284.801294,258.079022 L285.212122,267.461304 L251.139084,254.80267 L251.069757,259.817338 L285.612679,272.650574 L286.023507,282.032855 L250.938806,268.999341 L250.874614,273.651967 L285.679439,286.585342 L286.090267,295.962488 L250.748798,282.83397 L250.373918,287.191313 L285.137659,300.109282 L285.548487,309.486429 L250.248102,296.373316 L245.287355,318.920064 L215.15313,319.808479 L205.157174,305.329364 L177.06425,322.751034 L173.75195,315.117338 L201.649731,297.479984 L199.436395,292.514102 L171.500099,309.930636 L168.19807,302.312347 L195.934088,284.659586 L194.039144,280.48198 L166.249206,297.844593 L162.947177,290.231439 L190.539404,272.630032 L188.4904,267.972271 L160.849387,285.368264 L157.013281,276.522626 L187.239943,258.690129 L188.377422,245.410117 L217.600123,247.59264 C224.552685,245.600826 229.601101,243.974545 234.55123,242.38446 L235.841525,241.97026 C239.927921,240.659855 244.054404,239.354608 249.239006,237.868858 Z M183.752,244.697 L172.446,251.36 L183.054634,244.819552 L183.752,244.697 Z M167.599802,112.607437 L142.462271,167.817569 L171.081569,168.600709 L127.995994,210.307442 L107.169588,201.012462 L108.245444,225.466991 L183.054634,213.111343 L183.054634,244.819552 L85.5703126,243.818159 L86.1095241,163.146969 L167.599802,112.607437 Z M229.614271,199.718354 L236.803,213.432 L236.665105,213.514468 L247.482716,234.664401 L217.271461,244.162228 L188.664,242.361 L186.028,206.735808 L200.42495,209.167395 L219.695345,206.278762 L229.614271,199.718354 Z M210.210357,106.653 L300.06355,130.2679 L318.294,165.409 L318.160518,165.488688 L338.018911,204.147592 L250.882317,233.496109 L240.273,211.924 L240.288575,211.912239 L235.774122,202.779022 L261.749299,199.718354 L262.558,199.262 L308.955406,193.170784 L303.057458,175.053275 L285.548,186.243 L222.59425,156.132083 L254.97519,149.605055 L210.210357,106.653 Z M147.01219,23.5733315 C138.984722,26.3036822 131.068386,29.3504693 123.281744,32.7065489 L118.580333,34.8223125 L113.904598,37.0202417 L109.251972,39.2977687 L104.619888,41.6548937 L100.010913,44.0839136 L95.4276141,46.5822606 L90.7364732,49.2218298 L89.4192563,49.9484816 L87.9248699,50.7110809 L86.402239,51.4223266 L84.8462284,52.0847866 L83.2362966,52.7010284 L81.5955528,53.2505107 L79.9368352,53.7358011 L78.2575762,54.154332 L76.5629112,54.5112388 L74.8579755,54.801386 L73.1299307,55.0324766 L71.409589,55.1993755 L69.6815442,55.3149208 L67.9380934,55.376545 L66.1920749,55.3945187 L64.433218,55.3662743 L62.6640904,55.3020824 L60.8590154,55.2019431 L59.0025869,55.0658564 L57.125617,54.8963899 L55.2075644,54.7038143 L53.2253198,54.4829864 L51.1814511,54.2313623 L49.0810936,53.9591888 L46.9062735,53.6639063 L44.6441524,53.3403793 L42.2921628,52.996311 L39.8528723,52.6291335 L37.3134424,52.2439824 L35.6726986,51.9897826 L34.4684593,52.9244161 L32.4682411,54.4829864 L30.3755866,56.1160352 L28.2187402,57.8029972 L26.020811,59.5002299 L23.8254495,61.2180039 L21.6531971,62.9152366 L19.9765058,64.2247505 L20.9933048,67.2135234 L22.0460512,70.4770373 L23.0114968,73.6635211 L23.8896414,76.7883807 L24.6830527,79.8644545 L25.3865955,82.9071485 L26.0002696,85.906192 L26.5189398,88.8821265 L26.9451737,91.8400872 L27.2687007,94.7826419 L27.4972237,97.7097906 L27.6256074,100.624101 L27.6564195,103.530708 C27.5562802,107.572227 28.0441383,110.910204 27.1043695,115.421608 L30.7068165,115.727161 L33.2436787,116.112312 L35.6829693,116.479489 L38.0349589,116.823558 L40.2970799,117.147085 L42.4719,117.442367 L44.5722576,117.717108 L46.6135586,117.966173 L48.5958031,118.189561 L50.5138558,118.382136 L52.3908257,118.551603 L54.2472542,118.687689 L56.0523292,118.787829 L57.8240244,118.85202 C102.632508,119.545293 144.085041,76.0411875 203.010598,77.4790851 L207.845529,77.7538262 C231.702324,79.9272147 249.664587,87.52345 267.346884,95.9955161 L268.978464,96.7799081 L270.56216,97.5455718 L271.354074,97.9296544 L272.938593,98.6998662 C273.466995,98.9569976 273.995676,99.2144828 274.524785,99.4722004 L276.472748,100.420761 C288.175419,106.115732 300.176014,111.851513 314.083051,116.325429 L315.803393,116.818422 L317.554547,117.270333 C327.935654,119.619755 338.131889,119.635161 348.708139,118.818641 L351.185945,118.595253 L353.743348,118.328215 L356.364944,118.022662 C361.389882,117.393582 370.818382,115.822165 375.884403,115.591074 C374.569754,105.8031 374.757194,98.0256145 376.3851,88.2016928 L376.973097,85.2026493 L377.650963,82.1650906 L378.418698,79.0890168 L379.281436,75.9538866 L380.223773,72.7571321 L381.255978,69.4884828 L382.370348,66.1325325 L382.516706,65.7191369 L382.365213,65.5779148 L380.498514,63.7882459 L378.63695,61.9857386 L376.795928,60.1909342 L374.975447,58.4243743 L373.208887,56.7117356 L371.503951,55.0863978 L369.914561,53.586876 L369.90429,53.579173 L368.430445,53.8025607 L365.657357,54.1877118 L362.963866,54.5317802 L360.342271,54.8373334 L357.790003,55.1043715 L355.312197,55.3277592 L352.896016,55.5151994 L350.52862,55.6615568 L348.217713,55.7693992 L345.970998,55.833591 L343.775637,55.8618354 L341.623926,55.8438617 L339.523568,55.7899406 L337.477132,55.6898013 L335.461507,55.5511468 L333.48183,55.3662743 L331.545804,55.140319 L329.655996,54.8707132 L327.784161,54.5548892 L325.958545,54.1928472 L324.158605,53.7845869 L322.407451,53.3326763 L320.68711,52.8396828 L319.002715,52.2979036 L317.346565,51.7150415 L315.746904,51.0910966 L314.178055,50.4312044 L312.62718,49.7199586 L311.137929,48.9830361 L309.807874,48.2769257 L307.591971,47.0701187 L305.486478,45.9300714 L303.396391,44.80543 L301.324278,43.6961948 L299.262436,42.6100685 L297.205728,41.534213 L295.159292,40.4788989 L293.133397,39.4441262 L291.112637,38.4273272 L289.091878,37.4259342 L287.076254,36.442515 L285.065765,35.4770694 L283.065546,34.534733 L281.065328,33.6103703 L279.059974,32.7014136 L277.070027,31.8181336 L275.074944,30.9579627 L273.06959,30.1131979 L271.059101,29.2889745 L269.058883,28.4878601 L267.043259,27.7047194 L265.017364,26.9421202 L262.991469,26.20263 L260.960439,25.4862489 L258.914002,24.7904092 L256.847024,24.1125431 L254.774911,23.4603539 C216.195605,11.7954097 186.410584,11.1509235 147.01219,23.5733315 Z M299.971114,57.9082718 L311.284286,62.1500697 L306.873022,76.107947 L319.238941,80.7477344 L323.652773,66.7924248 L335.0173,71.0547641 L322.410019,110.935881 L311.045493,106.673541 L316.144894,90.5459794 L303.778975,85.906192 L298.679574,102.033754 L287.371536,97.7919562 L299.971114,57.9082718 Z M86.2738553,60.8200144 L112.646438,95.5349705 L100.806892,99.977047 L96.9271358,94.0688285 L84.037411,98.9037591 L84.3455319,106.149736 L72.7858624,110.486538 L73.9387481,65.4469635 L86.2738553,60.8200144 Z M138.639004,41.2414982 C141.152757,42.3866809 142.875667,44.3586547 143.805165,47.1445813 C144.588306,49.4888679 144.596009,51.7638273 143.815436,53.9745948 C143.286495,55.4484399 142.282534,56.8529577 140.777877,58.1778776 C143.612589,57.8261062 145.933767,58.2446371 147.726003,59.4154966 C149.513105,60.5991944 150.830322,62.4479199 151.672519,64.9668084 C152.348595,66.9141383 152.533805,68.998187 152.21173,71.0342227 C151.903737,72.9722137 151.113498,74.801684 149.913662,76.3544437 C149.169036,77.3173216 147.890335,78.3161469 146.074989,79.3406489 C143.661375,80.7040839 142.046308,81.5539841 141.214382,81.8852141 L121.805332,89.5805339 L108.566403,49.9459139 L129.616197,41.6009726 C133.12364,40.2092931 136.135522,40.0937478 138.639004,41.2414982 Z M83.2517027,73.514596 L83.7601022,89.3597139 L91.8303024,86.3349936 L83.2517027,73.514596 Z M258.017884,37.14349 L291.734015,51.9820796 L288.152109,61.6416702 L276.833801,56.6629498 L265.910915,86.1090383 L254.823697,81.2253218 L265.741448,51.781801 L254.433411,46.8056483 L258.017884,37.14349 Z M133.331622,66.2737546 L127.621114,68.5384433 L130.304334,76.5624254 L136.040518,74.2900336 C137.98168,73.5197313 139.219299,72.6107747 139.75851,71.5528929 C140.305425,70.4898757 140.367049,69.3241516 139.94595,68.0608559 C139.555664,66.8874287 138.849554,66.1017204 137.825052,65.7037309 C136.800549,65.3083091 135.306163,65.4906139 133.331622,66.2737546 Z M211.422299,26.5389953 L231.116361,29.9360284 C234.767593,30.5676762 237.515005,31.3867643 239.335486,32.4086987 C241.171373,33.4203624 242.545079,34.9506962 243.461738,37.009971 C244.373263,39.0564074 244.635166,41.408397 244.25515,44.0556692 C243.918784,46.3717113 243.171591,48.282061 242.028976,49.8072595 C240.90464,51.3041133 239.416155,52.4885375 237.705013,53.247943 C236.590642,53.7306658 235.132203,54.0464897 233.316857,54.1697381 C234.652048,54.9246343 235.59952,55.6179064 236.174679,56.2444189 C236.549559,56.6578145 237.0785,57.4923086 237.743528,58.7530367 C238.405988,60.0214677 238.837357,60.9689395 239.02223,61.6288318 L242.984151,74.6905908 L229.624542,72.387387 L225.167059,58.5630288 C224.604739,56.7861982 224.047553,55.5870943 223.4878,54.9811232 C222.755129,54.2061723 221.787922,53.6936969 220.735254,53.5226842 L219.692778,53.342947 L217.235514,70.2485143 L205.365155,68.1969426 L211.422299,26.5389953 Z M180.46385,27.6071478 L200.902538,66.7847218 L188.534051,68.9184591 L185.658255,62.3657543 L172.195939,64.6869319 L171.340904,71.8841228 L159.265132,73.9690743 L167.579261,29.8307537 L180.46385,27.6071478 Z M127.554354,51.5044922 L122.588472,53.4738984 L125.102226,60.9946163 L129.991077,59.0560222 C131.744799,58.3601825 132.854034,57.5462297 133.329054,56.614164 C133.793803,55.6795306 133.814344,54.5934043 133.400949,53.3557853 C133.015798,52.2028996 132.376447,51.4325973 131.472625,51.0577169 C130.561101,50.6777011 129.256722,50.8291939 127.554354,51.5044922 Z M175.467156,39.5339948 L173.438694,55.2353229 L181.873504,53.7794516 L175.467156,39.5339948 Z M222.070444,36.9971326 L220.835393,45.4627547 L225.824384,46.3229255 C226.355892,46.4153618 227.424045,46.4102265 229.028841,46.2998165 C229.840226,46.2613014 230.543769,45.9352067 231.144605,45.3241002 C231.73517,44.7078584 232.102347,43.9478268 232.233299,43.0363025 C232.428442,41.6882735 232.187081,40.5918766 231.506647,39.7394087 C230.828781,38.8766702 229.41656,38.2655637 227.259714,37.8932509 L222.070444,36.9971326 Z" id="Combined-Shape"></path>
        </g>
</svg>