<?xml version="1.0" encoding="UTF-8"?>
<svg width="400px" height="401px" viewBox="0 0 400 401" version="1.1" xmlns="http://www.w3.org/2000/svg">
    <title>alfa-romeo</title>
    <path d="M200.003596,0.229678995 C310.459785,0.229678995 400,89.777087 400,200.226083 C400,310.689464 310.459785,400.229679 200.003596,400.229679 C89.547408,400.229679 0,310.689464 0,200.233275 C0,89.777087 89.547408,0.229678995 200.003596,0.229678995 Z M200.003596,4.23593652 C91.7555248,4.23593652 4.00625753,91.9852038 4.00625753,200.233275 C4.00625753,308.466962 91.7555248,396.223421 200.003596,396.223421 C308.244475,396.223421 395.993742,308.474154 395.993742,200.233275 C395.993742,91.9852038 308.251668,4.23593652 200.003596,4.23593652 Z M198.320537,217.95575 L198.320537,340.581755 C183.944996,340.428755 169.67936,338.056001 156.028267,333.547428 L156.049844,217.95575 L198.320537,217.95575 Z M201.679463,59.8847956 C278.280258,60.6472073 340.352076,123.193734 340.352076,200.233275 C340.352076,276.502421 279.550735,338.559914 203.722897,340.540183 L201.686579,340.575796 L201.679463,59.8847956 Z M305.611997,119.410446 C304.899933,121.539445 301.713628,126.502313 293.91689,126.502313 L271.231547,126.502313 C267.333177,126.502313 263.787244,129.336183 262.017874,135.011115 L240.749465,135.011115 C241.109093,139.254727 245.359898,147.051465 254.213943,147.051465 L274.770288,147.051465 C277.129448,147.051465 279.035477,148.605059 279.035477,150.949834 C279.037391,152.081619 278.588638,153.167598 277.788345,153.967892 C276.988051,154.768185 275.902072,155.216938 274.770288,155.215024 L253.986025,155.215611 C248.734416,155.250111 242.848049,156.763583 240.749465,165.845632 L284.883031,165.824054 C287.925485,165.824054 290.392534,168.111289 290.392534,171.160936 C290.392534,174.20339 287.925485,176.850253 284.883031,176.850253 L245.719526,176.821483 C235.178815,176.586999 225.33688,182.076299 219.99767,191.167747 C214.658461,200.259195 214.658461,211.52845 219.99767,220.619897 C225.33688,229.711345 235.178815,235.200646 245.719526,234.966161 L286.472587,234.966161 C288.987233,235.005552 291.001651,237.06167 290.989517,239.576594 C290.989517,242.058028 288.968407,243.367075 286.472587,243.367075 L246.071962,243.395845 C235.412583,243.395845 226.774315,251.602559 226.774315,262.254745 C226.774315,272.913705 235.413003,281.555613 246.071962,281.559584 L279.035477,281.559584 C281.266934,281.591112 283.057036,283.413295 283.048927,285.64496 C283.048927,287.867462 281.257979,289.665602 279.035477,289.665602 L258.486325,289.65841 C252.660349,289.65841 247.949221,294.729167 247.949221,300.533565 C247.949221,306.352348 252.660349,310.711041 258.486325,310.711041 L258.819029,310.711666 C258.849747,310.711722 258.882453,310.711781 258.917086,310.711844 L259.421423,310.712722 L259.907437,310.713522 C259.966156,310.713616 260.026387,310.713711 260.088073,310.713808 L260.680897,310.714709 L261.342636,310.715645 L261.458952,310.715801 L262.063693,310.71658 C262.146751,310.716683 262.230729,310.716785 262.315569,310.716886 L263.100793,310.717767 L263.922949,310.718567 C264.015996,310.71865 264.109549,310.718731 264.20355,310.718809 L265.639676,310.719781 L268.955604,310.71978 L269.906164,310.718935 C270.082544,310.718728 270.255974,310.718495 270.42598,310.718234 C275.122723,310.718234 275.482351,313.911732 275.388848,316.127041 C286.638016,311.869044 280.790463,304.165809 275.561469,304.144231 L260.586554,304.144231 C258.787082,304.144231 257.328323,302.685472 257.328323,300.886 C257.328323,299.086529 258.787082,297.627769 260.586554,297.627769 L280.085591,297.570229 C287.695323,297.570229 293.866542,291.499706 293.866542,283.875589 C293.866542,276.258665 287.695323,270.087446 280.085591,270.087446 L247.826947,270.058676 C245.473334,270.058676 243.565353,268.150695 243.565353,265.797082 C243.565353,263.443469 245.473334,261.535489 247.826947,261.535489 L290.363764,261.585837 C304.482765,261.585837 315.926132,250.494905 315.926132,236.375904 C315.926132,222.264095 304.482765,210.367596 290.363764,210.367596 L245.705141,210.403559 C243.214482,210.403559 241.195404,208.384481 241.195404,205.893822 C241.195404,203.403163 243.214482,201.384085 245.705141,201.384085 L293.197634,201.384085 C307.381368,201.283389 330.059518,188.171347 330.059518,162.652134 C330.059518,137.132921 310.927301,121.89188 305.611997,119.410446 Z M113.513028,217.962943 L113.534605,310.790159 C84.6693392,288.249391 65.7861818,255.315089 60.8993755,219.048556 L60.7575787,217.962796 L113.513028,217.962943 Z M51.1535073,176.864638 L51.0168486,188.379932 L44.1119882,190.990832 L43.9321741,205.857859 L50.7723014,208.80681 L50.6356427,220.264563 L11.2779386,203.815172 L11.4217899,192.026561 L51.1535073,176.864638 Z M390.548972,193.954168 C390.966141,205.893822 382.953626,217.193339 370.999586,217.610507 C358.21121,218.056446 348.860878,208.734885 348.393361,195.407066 C347.947422,182.086439 356.628846,172.139125 369.424415,171.693186 C381.371262,171.290402 390.138996,182.007321 390.548972,193.954168 Z M369.755273,182.935162 C366.621522,182.988279 363.642584,184.307048 361.496543,186.591281 C359.350501,188.875515 358.219958,191.930853 358.362253,195.061823 C358.431796,198.196154 359.768445,201.168539 362.067082,203.300472 C364.36572,205.432404 367.430145,206.54191 370.56084,206.375724 C376.012803,206.188717 380.817435,200.736755 380.594465,194.299411 C380.371496,187.854875 375.207236,182.740962 369.755273,182.935162 Z M36.2145542,193.810317 L23.5700286,198.068314 L23.5700286,198.183395 L36.0994731,202.793828 L36.2145542,193.810317 Z M218.781297,122.504763 C217.354395,122.8871 216.239857,124.001638 215.85752,125.42854 C215.475183,126.855442 215.883132,128.377929 216.927697,129.422494 L224.45831,134.651487 C228.176865,137.132921 227.471994,141.211104 226.939744,144.577224 C226.414687,147.950536 222.861561,146.353787 221.797062,145.109473 C219.286695,142.603002 215.514105,141.854599 212.237035,143.212961 C208.959965,144.571324 206.823134,147.769214 206.822146,151.316655 C206.822146,156.164442 210.749285,159.91896 215.597073,159.91896 C218.020966,159.91896 220.214698,158.933579 221.797062,157.344023 C222.868754,156.099709 226.414687,154.510153 226.939744,157.876272 C227.009168,158.315331 227.081529,158.766383 227.146627,159.224334 L227.208927,159.684398 C227.583377,162.610311 227.53016,165.744936 224.45831,167.794817 L216.927697,173.031002 C215.812405,174.060331 215.350502,175.617847 215.724302,177.088787 C216.098103,178.559728 217.24755,179.707761 218.71895,180.079751 C220.190349,180.451741 221.747295,179.987921 222.77525,178.871363 L234.463165,170.8085 C234.031611,166.730317 236.067107,155.042403 244.396094,151.144034 C236.067107,147.245664 233.758294,135.018308 234.463165,131.637803 L222.77525,123.57494 C221.730686,122.530375 220.208199,122.122426 218.781297,122.504763 Z M113.448294,89.7411242 L113.513028,175.418933 L61.8056929,175.404548 C67.9481416,140.72201 86.8358118,110.613942 113.448294,89.7411242 Z M198.320537,59.8847956 L198.320537,175.411741 L156.049844,175.411741 L156.085807,66.8903519 C169.721126,62.4016298 183.966205,60.038771 198.320537,59.8847956 Z M370.524877,117.576343 L379.580314,139.398578 L371.539029,142.728735 L366.619316,130.882584 L360.51283,133.414366 L365.180803,144.656342 L357.139518,147.993691 L352.471544,136.751715 L346.170859,139.362616 L351.090572,151.223152 L343.049287,154.553308 L334.001043,132.731073 L370.524877,117.576343 Z M59.4753025,127.286302 L67.5165878,130.638037 L58.3964181,152.553776 L21.8797763,137.363083 L26.0298851,127.394191 L54.5052416,139.240342 L59.4753025,127.286302 Z M292.154712,113.742707 L241.116286,113.742707 L241.116286,119.058011 L292.154712,119.058011 L292.154712,113.742707 Z M316.077176,49.923096 L323.816374,57.2019696 L315.458616,78.3768748 L336.446514,69.1056612 L344.26483,76.4708456 L323.262547,111.678441 L315.537734,104.147828 L327.268804,83.5123647 L327.189686,83.4404391 L304.317336,93.1719767 L301.188571,90.2302184 L309.862802,67.1205139 L309.783684,67.0485882 L290.227105,80.1606304 L282.315286,72.8889493 L316.077176,49.923096 Z M292.154712,105.241097 L241.116286,105.241097 L241.116286,109.312088 L292.154712,109.312088 L292.154712,105.241097 Z M69.1277219,63.9342085 L75.5578732,69.8033398 L66.7541762,79.4413741 L71.6307338,83.9007631 L79.6216712,75.1546066 L86.0518224,81.0309305 L78.060885,89.777087 L89.5258303,100.249459 L82.2397641,108.218818 L53.0451513,81.5416025 L69.1277219,63.9342085 Z M277.093485,94.41629 C274.737886,94.41629 272.828296,96.3258806 272.828296,98.6814798 C272.832255,101.035437 274.739528,102.94271 277.093485,102.94667 C279.449085,102.94667 281.358675,101.037079 281.358675,98.6814798 C281.358675,96.3258806 279.449085,94.41629 277.093485,94.41629 Z M118.051535,30.2658216 L150.259831,58.0434995 L140.060777,63.3875737 L134.479348,58.5469789 L121.309766,65.4518393 L121.964289,72.8673716 L111.815583,78.1826756 L107.607933,35.739362 L118.051535,30.2658216 Z M258.745257,19.3618963 C270.123892,23.0229108 278.028519,34.3943527 274.367504,45.7729872 C270.447557,57.9643813 258.50071,63.5961581 245.805837,59.5107823 C233.118156,55.418214 226.716775,43.8813432 230.636722,31.6971416 C234.304929,20.3113146 247.366623,15.7008818 258.745257,19.3618963 Z M118.497474,43.8309952 L118.40397,43.8813432 L120.288422,57.1012738 L128.243396,52.9295873 L118.497474,43.8309952 Z M201.600345,23.0372959 C202.031899,28.4748735 199.219607,33.4377419 193.422401,34.8906396 L207.721216,50.0165993 L194.321472,51.0810986 L182.964415,36.7247431 L182.856526,36.7319357 L184.057684,51.8866657 L173.29761,52.7353881 L170.168845,13.3201435 L186.251416,12.0470598 C194.436553,11.3925366 200.938629,14.6148048 201.600345,23.0372959 Z M241.310485,35.1927272 C240.297975,38.1589519 240.529496,41.4087368 241.952284,44.2014666 C243.375072,46.9941963 245.867905,49.0919294 248.862676,50.0165993 C251.835818,51.0148716 255.086463,50.7669023 257.873782,49.3292041 C260.661101,47.8915059 262.747606,45.3865746 263.657778,42.3852901 C265.326452,37.1922597 261.823674,30.8268415 255.688418,28.8488867 C249.545969,26.8709319 242.986352,29.9996968 241.310485,35.1927272 Z M182.597594,20.2321964 L181.554672,20.304122 L182.331469,30.1435481 L183.374391,30.0572373 C186.884362,29.7839199 190.789923,28.8416942 190.451873,24.5477341 C190.113822,20.2609666 186.107565,19.9516864 182.597594,20.2321964 Z" id="alfa-romeo" fill="#FFFFFF"></path>
</svg>