<?xml version="1.0" encoding="UTF-8"?>
<svg width="400px" height="90px" viewBox="0 0 400 90" version="1.1" xmlns="http://www.w3.org/2000/svg">
    <title>aston-martin</title>
        <g id="aston-martin" transform="translate(0, 0.3116)" fill="#FFFFFF" fill-rule="nonzero">
            <path d="M167.399431,0 C171.978066,0 175.678085,1.38735358 178.41347,4.13133988 C180.378375,6.08887243 181.731321,8.6436183 182.431757,11.7206186 C182.444045,11.7931198 182.634514,12.4358 184.018181,12.4358 L215.982611,12.4358 C217.367507,12.4358 217.556748,11.7943487 217.569036,11.7206186 C218.269471,8.6436183 219.622418,6.08887243 221.587323,4.13133988 C224.322708,1.38735358 228.021498,0 232.602591,0 L394.32206,0 C395.356738,0.0356361858 397.933603,0.213817115 399.343075,2.54614403 C400.01279,3.68404431 400.512925,5.60102534 399.062901,8.27988344 C399.060843,8.28399915 398.976422,8.42499675 398.837281,8.6569152 L398.630409,9.00157738 C398.552852,9.13075258 398.46742,9.2730096 398.37629,9.42473052 L398.187076,9.73971893 C398.056728,9.95669425 397.918828,10.1862064 397.778534,10.4196795 L397.376638,11.0884495 C396.71075,12.1964313 396.101411,13.2099654 396.101411,13.2099654 C394.898383,15.1847016 393.515945,15.9183155 390.606066,16.1026406 C390.565514,16.107556 389.213797,16.2464142 388.271281,17.8881364 L385.254494,23.1868686 C384.620415,24.4009566 383.121238,27.2530803 378.006831,27.943685 C377.920812,27.9559733 376.429008,28.1218659 375.60446,29.6886293 C375.592172,29.7070618 371.881093,36.2432298 371.881093,36.2432298 C370.796033,38.3445359 369.277194,39.1248455 366.518462,39.9751986 C366.513546,39.9751986 298.880981,59.8294694 298.880981,59.8294694 C296.583062,60.5090146 295.644232,63.1030832 295.644232,63.1030832 C294.029545,67.2762034 291.931925,70.7120232 281.372554,73.897161 C281.36641,73.9020763 226.039389,88.9946154 226.039389,88.9946154 C225.95059,89.0241074 225.764442,89.0828933 225.497238,89.1523904 L225.281893,89.2062312 C223.326604,89.6760132 218.242779,90.3923032 214.252413,86.5406339 C214.252413,86.5406339 201.310333,74.1883946 201.275926,74.1638179 C201.271011,74.1515296 200.73401,73.6046985 200.002854,73.6046985 C199.268011,73.6059273 198.731011,74.1527584 198.724867,74.1650468 C198.709122,74.1777638 195.557785,77.1837221 192.365141,80.2296737 L191.939482,80.6357783 L191.36997,81.1791377 C188.4396,83.974968 185.749609,86.5418627 185.749609,86.5418627 C180.976817,91.1487614 174.63972,89.2207208 173.962633,88.9958442 C173.962633,88.9958442 118.63684,73.9033051 118.629467,73.8983898 C108.859246,70.9509489 106.333901,67.7888451 104.730926,64.0264764 L104.578466,63.6604894 C104.553465,63.599175 104.528651,63.5377011 104.503998,63.4760663 L104.357789,63.104312 C104.357789,63.104312 103.41896,60.5102434 101.12104,59.8306982 C101.12104,59.8306982 87.0765486,55.7077109 71.7871335,51.2194269 L70.7991196,50.9293908 C70.6342052,50.8809794 70.4691787,50.8325351 70.3040559,50.7840626 L69.3122925,50.4929264 C68.9814047,50.3957931 68.6502595,50.2985842 68.318984,50.2013372 L66.2902223,49.6057885 C49.7263897,44.7434379 33.4865704,39.9764274 33.4835597,39.9764274 C30.7235986,39.1248455 29.2047597,38.3457647 28.1196993,36.2444586 C28.1196993,36.2444586 24.4073918,29.7082906 24.3951035,29.6898581 C23.5717847,28.1230947 22.0799803,27.9572022 21.9939619,27.9449138 C16.878326,27.2543091 15.3791485,24.4021854 14.7450702,23.1880974 L11.7282827,17.8893653 C10.7845382,16.247643 9.43527848,16.1087848 9.39349813,16.1038695 C6.48484807,15.9195444 5.10118099,15.1859305 3.89815252,13.2111942 C3.89815252,13.2111942 0.948950934,8.30568895 0.936662594,8.28111227 C-0.513361517,5.60225417 -0.011997248,3.68527314 0.656488444,2.54737287 C2.06718987,0.213817115 4.64528358,0.0368650198 5.6799618,0 L167.399431,0 Z M185.180658,72.0944615 L182.424384,82.0185248 C182.343281,82.357683 181.807509,84.5425498 180.266551,86.2813499 C181.547252,85.9461898 182.71945,85.2853734 183.669193,84.3631401 C183.669193,84.3631401 186.335661,81.818523 189.242678,79.0460453 L189.742928,78.5689636 C192.084199,76.3362004 194.490702,74.0423335 195.720368,72.8735422 C192.15552,72.7543453 188.63614,72.4926037 185.180658,72.0944615 Z M214.81399,72.0809443 C211.358509,72.4864595 207.839128,72.7482012 204.273052,72.8723134 C206.814281,75.2906587 214.30771,82.4412437 214.30771,82.4412437 C216.976738,85.0537448 217.61696,85.6792213 219.728097,86.2801211 C218.198199,84.5474652 217.647681,82.3675137 217.569036,82.0222113 L214.81399,72.0809443 Z M230.973157,69.0223765 C226.429246,70.2229498 221.816763,71.147088 217.161063,71.7897107 L219.855896,81.5122452 C219.891532,81.6719936 220.53667,84.3987762 222.474541,85.5846011 C223.377734,86.1302033 224.428387,86.2555444 225.673196,85.9692261 L239.587283,82.1795021 C237.887806,80.7982927 236.753592,78.8210988 236.561894,78.4831694 L230.973157,69.0223765 Z M169.01289,69.0272918 C165.806862,74.4624246 163.443814,78.4573639 163.449958,78.4512197 C163.253345,78.8137258 162.106843,80.7896908 160.407365,82.1782732 L174.322681,85.9692261 C175.56749,86.2567732 176.614457,86.1302033 177.516421,85.5846011 C179.504674,84.3692842 180.139981,81.5233047 180.139981,81.4938127 L182.833585,71.7884818 C178.174534,71.1517124 173.558958,70.229582 169.01289,69.0272918 Z M245.944042,63.8846216 C241.829409,65.6399827 237.610139,67.1391553 233.310399,68.3735522 L238.593157,77.3145483 C239.214947,78.4463044 241.360491,81.4815244 243.209886,81.1902907 L259.133117,76.8451337 C257.685858,76.0268839 256.631864,75.0185872 256.33006,74.7192029 L256.247815,74.636919 L245.944042,63.8846216 Z M154.049378,63.8833927 C148.48699,69.6811121 144.046589,74.31776 143.761394,74.6155701 L143.746834,74.6307748 L143.617596,74.7601494 C143.263766,75.1073235 142.239055,76.0605232 140.86276,76.8439049 L156.784762,81.1902907 C158.632929,81.4815244 160.778473,78.4450756 161.418695,77.2912004 L166.679334,68.3784675 C162.381469,67.1395434 158.163576,65.638371 154.049378,63.8833927 Z M258.473233,57.5794744 C255.154288,59.5246133 251.735922,61.2949117 248.232131,62.8831219 C253.694298,68.5861404 257.944834,73.008714 257.944834,73.008714 C258.809934,73.9217376 261.515826,76.1188928 263.733871,75.5880365 L266.367263,74.874084 C266.367263,74.8733127 269.626469,73.9841509 273.015505,73.0602035 L273.551239,72.9141524 L274.129675,72.7564717 C275.764351,72.3108797 277.34922,71.8790206 278.530261,71.557461 C277.060576,70.9196962 276.060305,70.1701075 275.989033,70.1111234 L258.473233,57.5794744 Z M141.520187,57.5807032 C132.294101,64.1807706 124.016675,70.1049793 124.028964,70.0926909 C123.231532,70.6759322 122.370815,71.1672994 121.463158,71.557461 L136.257091,75.5880365 C138.477594,76.1188928 141.184715,73.9217376 142.048585,73.008714 L151.767433,62.8831219 C148.262474,61.293661 144.842148,59.5238197 141.520187,57.5807032 Z M206.005708,40.3094414 L201.171475,40.3094414 L201.171475,70.5977417 C205.590362,70.5571902 209.925688,70.2893044 214.179912,69.8014573 L206.005708,40.3094414 Z M198.830546,40.3094414 L193.995085,40.3094414 L185.815966,69.8014573 C190.06896,70.284389 194.403057,70.5571902 198.830546,70.5940552 L198.830546,40.3094414 Z M128.779636,48.898991 L128.05525,49.2383774 C127.813861,49.3514627 127.5726,49.4644797 127.331626,49.5773535 L126.609728,49.9154706 L126.239453,50.0888783 L125.501564,50.4344115 C117.529831,54.167105 110.336667,57.5271712 109.930189,57.7194894 L109.912119,57.7281633 C108.499335,58.4157796 107.00381,58.9184181 105.462511,59.2236543 C106.20887,60.0754407 106.797653,61.0532783 107.201311,62.1114141 C107.219364,62.15773 107.237434,62.2040711 107.255558,62.2504369 L107.365223,62.5289268 C108.326097,64.9450338 109.622293,67.4261882 116.228325,69.9194253 C119.124687,70.8312201 122.585084,68.2592706 122.639152,68.2052019 L139.330404,56.2621643 C135.676717,54.0098063 132.154105,51.5514446 128.779636,48.898991 Z M271.219928,48.898991 C267.839863,51.54734 264.315032,54.0055318 260.661786,56.2621643 C266.981421,60.7840471 272.753886,64.9150942 275.570693,66.9322498 L275.871386,67.1475915 C276.640146,67.6981715 277.141594,68.0575671 277.313078,68.1809579 L277.361795,68.2160792 C277.372797,68.2240403 277.378521,68.2282264 277.378844,68.2285497 C277.408336,68.2568129 280.852758,70.817703 283.749119,69.9181965 C290.764533,67.2823476 291.805355,64.651414 292.801939,62.097897 C292.892873,61.8361553 293.404068,60.5077858 294.532138,59.2224254 C292.340161,58.8139259 290.503136,57.9360431 290.168258,57.7704089 L290.118166,57.745367 L271.219928,48.898991 Z M191.563222,40.3094414 L185.980629,40.3094414 C184.6598,42.5453868 180.697982,49.2548115 176.455482,56.436079 L175.955212,57.2828696 L175.453206,58.132566 L174.921296,59.0328394 C173.325098,61.7343925 171.729227,64.434832 170.25647,66.9259857 C174.60554,68.046493 179.016937,68.9094052 183.467664,69.5102236 L191.563222,40.3094414 Z M214.015248,40.3082126 L208.432655,40.3082126 L216.528214,69.5089948 C220.979516,68.908884 225.391076,68.0438883 229.739408,66.9186127 L214.015248,40.3094414 Z M223.334725,40.3094414 L216.734658,40.3094414 L232.077879,66.2894497 C236.201076,65.1260035 240.251489,63.7185558 244.207699,62.0745491 L223.334725,40.3094414 Z M183.262449,40.3094414 L176.659923,40.3094414 C174.861012,42.1847094 168.881046,48.41922 162.502258,55.0675952 L161.792054,55.8078062 C161.436324,56.1785629 161.079795,56.5501459 160.723117,56.9218788 L160.009751,57.6653438 C159.534297,58.1608532 159.059345,58.6558271 158.586432,59.1486621 L157.878783,59.8861099 C157.173049,60.6215526 156.473632,61.3503787 155.78572,62.0671761 C159.740652,63.7187942 163.792196,65.1288119 167.917998,66.2894497 L183.262449,40.3094414 Z M173.415802,40.3094414 L165.643427,40.3094414 C163.137834,42.1010814 153.171991,49.2393781 143.611662,56.0852122 C146.817625,57.9206683 150.116099,59.5895926 153.493945,61.0853377 L173.415802,40.3094414 Z M234.352451,40.3094414 L226.580076,40.3094414 C229.363943,43.208869 234.548093,48.6154766 239.91061,54.2065703 L241.119249,55.4666998 C241.253669,55.6068423 241.388095,55.7469913 241.522495,55.8871104 L242.36661,56.7671319 C243.771804,58.2320661 245.166008,59.6853772 246.509305,61.0853377 C249.884296,59.5903082 253.179534,57.9213611 256.381758,56.0852122 L234.352451,40.3094414 Z M280.887165,40.4581304 C278.440471,42.8366176 275.894091,45.1103615 273.254877,47.2732437 C274.112155,47.6742753 274.96731,48.0743393 275.813074,48.4700303 L276.535545,48.8080436 C284.333723,52.4565314 291.143014,55.6440608 291.143014,55.6440608 C292.288287,56.2216128 295.740081,57.5733302 298.08101,56.9367942 L316.729795,51.4537369 C315.777449,51.2399198 315.155659,51.0371622 315.089302,51.0125855 L280.887165,40.4581304 Z M119.11117,40.4581304 C116.397462,41.2957773 109.929362,43.2916067 103.341442,45.324074 L102.399887,45.6145546 L100.989651,46.0496206 C92.7053238,48.6053508 84.9192082,51.00681 84.934839,51.0002972 C84.3868604,51.1803932 83.8298495,51.3317459 83.2660824,51.4537369 C93.373242,54.4238287 101.214432,56.7266636 101.919782,56.9367942 C104.260711,57.5733302 107.705133,56.2216128 108.886042,55.6268572 L126.743458,47.2683283 C124.105169,45.1060824 121.558831,42.8340154 119.11117,40.4581304 Z M252.855004,40.3094414 L238.367051,40.3094414 C241.875618,42.819212 247.777364,47.0434517 253.946346,51.4608445 L254.97662,52.1986042 L255.492929,52.5683363 L257.043265,53.6785938 C257.559849,54.0485537 258.075828,54.4180941 258.589972,54.7863347 C262.129688,52.6412913 265.549703,50.3046707 268.834761,47.7868963 L252.855004,40.3094414 Z M161.62514,40.3094414 L147.140873,40.3094414 C145.783012,40.9459775 138.752852,44.2318795 131.162345,47.7868963 C134.444493,50.3054137 137.863414,52.6404869 141.403447,54.7814194 L161.62514,40.3094414 Z M112.582375,33.6245845 C107.378693,34.6929328 99.6225878,36.2866383 91.7384174,37.9067622 L90.3860431,38.1846635 C76.1824407,41.1033886 62.0127595,44.0153344 62.0158562,44.0106894 C61.1508868,44.1861712 60.2804065,44.3333004 59.4058128,44.4518408 C64.9930092,46.0951994 70.5809275,47.7361025 76.1695661,49.3745498 C79.6336491,50.2924888 84.1360969,48.7969978 84.2110557,48.7748788 L117.228596,38.5890739 C115.639887,36.9721084 114.09069,35.3167904 112.582375,33.6245845 Z M287.418418,33.6233557 C285.911959,35.3187932 284.361041,36.9741986 282.767281,38.587845 L315.747957,48.7613616 C315.754101,48.7613616 315.760245,48.7675058 315.760245,48.7675058 L315.814314,48.7847095 C315.857323,48.7969978 320.379432,50.2974041 323.844744,49.3696345 L340.585149,44.4518408 C339.131439,44.2478544 338.095532,44.0340373 337.984936,44.0168336 L287.418418,33.6233557 Z M141.617265,40.3094414 L122.341775,40.3094414 C124.302994,42.1440906 128.920952,46.0247483 129.096675,46.1672931 L141.617265,40.3094414 Z M277.652874,40.3094414 L258.374926,40.3094414 C261.639938,41.8381109 266.211201,43.9689091 270.897973,46.1672931 C270.991477,46.0896252 272.773896,44.6367626 274.591283,43.0745095 L274.99505,42.7260559 C275.062216,42.6678517 275.129263,42.6096261 275.196105,42.5514433 L275.594036,42.2033756 C276.38231,41.5103271 277.116991,40.8419734 277.652874,40.3094414 Z M107.72971,27.8318611 L35.7052916,37.4978693 C41.0552129,39.0613781 46.403103,40.6318292 51.7489482,42.2092188 C54.4536118,42.9170272 59.7105636,42.1072256 61.5390686,41.7275159 L110.820227,31.5945508 C109.74254,30.3251653 108.712777,29.0692969 107.72971,27.8318611 Z M292.277227,27.8318611 C291.295389,29.0754411 290.260711,30.3313094 289.181794,31.5982373 L338.456809,41.726287 C340.290229,42.1072256 345.570529,42.9170272 348.270277,42.2018458 L364.291815,37.4978693 L292.277227,27.8318611 Z M282.437954,32.6058811 L282.437954,35.5759729 C283.22791,34.7569821 284.00423,33.9249471 284.766594,33.0802111 L282.437954,32.6058811 Z M117.538262,32.6058811 C116.933676,32.7299934 116.159511,32.8860553 115.234199,33.0789822 C115.988731,33.9155886 116.756854,34.7398361 117.538262,35.5513962 L117.538262,32.6058811 Z M103.29239,21.9015082 C103.29239,21.9015082 85.6387996,23.0773195 67.2282393,24.3047838 L64.924199,24.4584046 C64.1556862,24.5096469 63.3870816,24.5608977 62.6196072,24.6120755 L61.4693962,24.6887772 C61.086377,24.7143195 60.7037932,24.7398333 60.3217975,24.7653086 L59.1777277,24.8416085 C42.4283974,25.9586785 27.1135226,26.9813966 26.2478034,27.0438745 L26.2113201,27.0466362 C26.5350475,27.4145434 26.8139005,27.8196228 27.0420119,28.2533511 L30.6265207,34.5646425 C30.7838114,34.7784596 31.6390799,35.6779661 34.3634048,35.3142313 L106.073241,25.6936899 C105.124642,24.445648 104.197555,23.1814009 103.29239,21.9015082 Z M296.718233,21.9002794 C295.844532,23.1327999 294.913076,24.4083296 293.930009,25.6936899 L365.639845,35.3130024 C368.380145,35.6767373 369.223125,34.761256 369.374272,34.5584984 C369.64263,34.0865946 370.356948,32.8292421 371.075822,31.5627897 L371.329012,31.1166927 C372.16882,29.6368712 372.943058,28.2708699 372.932975,28.2828432 C373.167281,27.8379897 373.453106,27.4222444 373.784557,27.0441785 C373.326202,27.003627 373.005476,26.9679908 372.893653,26.9544736 L296.718233,21.9002794 Z M143.164367,19.0493845 C140.169698,19.0493845 138.237971,20.7218276 138.237971,23.3183538 C138.237971,25.9615758 140.209021,26.7283682 141.944134,27.4202017 C143.513355,28.0272457 144.985498,28.6109418 144.985498,30.4271585 C144.985498,32.1118899 143.72963,33.4390306 142.129688,33.4390306 C140.663689,33.4390306 139.691682,32.8074099 138.744251,31.2603079 L138.707386,31.2013239 L138.299413,31.2013239 L137.855804,33.2768245 L137.91233,33.3358085 C138.720903,34.2181113 140.544492,34.6297707 141.525102,34.6297707 C144.737274,34.6297707 146.987269,32.5567278 146.987269,29.5829495 C146.987269,27.1166797 145.12067,26.3904388 143.316742,25.6764863 C141.714342,25.0387214 140.190588,24.4501099 140.190588,22.628978 C140.190588,21.2465397 141.280564,20.2474977 142.774826,20.2474977 C143.969253,20.2474977 144.871217,20.8778895 145.328343,22.0317646 L145.359064,22.1140965 L145.767037,22.1140965 L146.407259,20.1811407 L146.335987,20.1147836 C145.463515,19.3283299 144.120399,19.0493845 143.164367,19.0493845 Z M166.836625,19.0493845 C162.058918,19.0493845 158.71649,22.2701584 158.71649,26.8721417 C158.71649,31.5146766 161.966755,34.6285419 166.794844,34.6285419 C171.786368,34.6285419 175.146,31.3770472 175.146,26.5440431 C175.147229,21.3645078 170.970422,19.0493845 166.836625,19.0493845 Z M159.210481,19.3651949 L147.813046,19.3651949 L147.813046,20.9430177 L147.958048,20.9307294 C149.478034,20.7562699 151.006718,20.6684711 152.536683,20.6677589 L152.536683,34.4147248 L154.70066,34.4147248 L154.70066,20.6751319 C156.230558,20.6751319 157.691642,20.7623791 159.058105,20.9307294 L159.210481,20.9479331 L159.210481,19.3651949 Z M254.800248,19.3651949 L243.396669,19.3651949 L243.396669,20.9430177 L243.544129,20.9307294 C245.062492,20.7565246 246.589526,20.6687263 248.117849,20.6677589 L248.117849,34.4147248 L250.292885,34.4147248 L250.292885,20.6751319 C251.816639,20.6751319 253.281409,20.7623791 254.649102,20.9307294 L254.800248,20.9479331 L254.800248,19.3651949 Z M201.702331,19.3651949 L200.939225,19.3651949 L200.926937,19.4905359 C200.71312,21.7061236 199.422844,30.7355958 198.85881,34.2181113 L198.829318,34.3668003 L200.647992,34.3668003 L200.647992,34.2377727 C200.647992,32.1241782 201.022786,28.9734479 201.420928,25.6334771 L201.660551,23.5678071 C201.91492,24.0544254 204.737551,29.4145993 205.815239,31.622814 L207.035471,34.1357795 L207.443444,34.1357795 L207.477851,34.0522188 C208.732491,31.1693742 210.504469,27.8785568 212.928959,23.5444593 C213.271803,26.1286972 213.726472,31.2897999 213.978383,34.2476034 L213.9919,34.3680291 L216.28982,34.3680291 L216.270158,34.2193402 C215.75159,30.5807627 215.185098,25.7649623 214.522756,19.4917648 L214.509239,19.3664237 L214.388814,19.3664237 L213.857957,19.3651949 L210.224295,25.9542027 C210.224295,25.9542027 207.925147,30.1457555 207.716245,30.5217787 C205.474852,26.7824369 203.455878,22.8477104 201.737968,19.4364673 L201.702331,19.3651949 Z M178.533895,19.3651949 L177.499217,19.3651949 L177.499217,34.3668003 L178.975047,34.3668003 L178.975047,22.7580055 L179.005768,22.7580055 C179.084413,22.8477104 188.276091,33.0224559 188.276091,33.0224559 L189.428737,34.3680291 L190.282777,34.3680291 L190.282777,19.3651949 L188.806947,19.3651949 L188.806947,30.46771 L188.782371,30.46771 C188.743663,30.4228576 186.181544,27.6472288 183.629102,24.8828131 L183.135882,24.3486413 C181.086971,22.1296447 179.150639,20.0329918 178.655459,19.4968211 L178.564967,19.3988378 C178.544479,19.3766546 178.533895,19.3651949 178.533895,19.3651949 Z M262.842967,19.3651949 L261.805831,19.3651949 L261.805831,34.3668003 L263.282889,34.3668003 L263.282889,22.7580055 L263.308695,22.7580055 C263.344685,22.7990569 265.291724,24.9521435 267.393178,27.2756191 L267.861996,27.7939626 L268.331614,28.3131806 C270.518365,30.7308729 272.591307,33.0224559 272.591307,33.0224559 L273.743953,34.3680291 L274.585704,34.3680291 L274.585704,19.3651949 L273.109875,19.3651949 L273.109875,30.46771 L273.091442,30.46771 C273.011568,30.3780051 262.842967,19.3651949 262.842967,19.3651949 Z M237.253728,19.3664237 L232.552209,19.3664237 L232.552209,34.3680291 L234.71127,34.3680291 L234.71127,27.1768926 L235.341662,27.1768926 C235.900161,27.8388142 236.460101,28.4995188 237.021478,29.1590018 C237.014105,29.1516288 239.563936,32.4510481 239.563936,32.4510481 L240.959891,34.3680291 L243.787438,34.3680291 C243.787438,34.3674539 242.542732,32.8125444 241.192237,31.1261589 L240.822153,30.6640449 C240.51299,30.2780151 240.203711,29.8918755 239.907685,29.5223295 L239.559672,29.0879083 C238.653166,27.9563928 237.937142,27.0632124 237.849712,26.9557025 C240.556833,26.4088713 242.176437,24.8666847 242.176437,22.7825822 C242.176437,20.4920357 240.567893,19.3664237 237.253728,19.3664237 Z M258.619464,19.3651949 L256.578371,19.3651949 L256.578371,34.3668003 L258.619464,34.3668003 L258.619464,19.3651949 Z M224.676612,19.0493845 L224.003211,19.0493845 L217.15369,34.3668003 L219.01906,34.3668003 L219.043637,34.2783242 C219.600298,32.3969794 220.317938,30.6053394 221.014686,28.8775988 C221.014686,28.8775988 221.100705,28.6637817 221.142485,28.550729 L226.441217,28.550729 C227.256389,30.43231 227.999957,32.3441092 228.670322,34.2820107 L228.699814,34.3655714 L231.261933,34.3655714 L224.676612,19.0493845 Z M130.527038,19.0493845 L129.858552,19.0493845 L123.011489,34.3668003 L124.8658,34.3668003 L124.895292,34.2783242 C125.449496,32.414183 126.163448,30.6286873 126.856511,28.9156927 L127.000284,28.5519578 L132.29533,28.5519578 C133.112188,30.4333036 133.856993,32.3451204 134.528121,34.2832395 L134.558842,34.3668003 L137.118503,34.3668003 L130.527038,19.0493845 Z M167.050442,20.0263076 C168.781869,20.0263076 170.416218,20.7881846 171.426319,22.0612567 C172.535957,23.4781023 172.762062,24.9551607 172.762062,26.7234528 C172.768206,26.8193019 172.77435,26.9262104 172.77435,27.0282037 C172.77435,28.4671683 172.188197,30.5094904 170.836479,31.955828 C169.773538,33.0802111 168.440253,33.6528477 166.853828,33.6528477 C163.356567,33.6528477 161.094283,31.0944153 161.094283,27.1351122 C161.094283,22.7481749 163.379915,20.0263076 167.050442,20.0263076 Z M282.437954,26.514551 L282.437954,30.2182567 C283.301824,30.3964376 284.719898,30.6827559 286.559463,31.0624657 C287.607658,29.8545218 288.614073,28.6588664 289.571335,27.4730416 L282.437954,26.514551 Z M117.538262,26.514551 L110.431915,27.4730416 C111.413623,28.6859447 112.415259,29.882582 113.436415,31.0624657 L117.538262,30.2170279 L117.538262,26.514551 Z M129.669312,22.3365155 C129.764059,22.5601633 130.184515,23.5295569 130.632576,24.5615957 L130.840248,25.039882 C131.324325,26.1546546 131.787228,27.2201984 131.856636,27.3833367 L127.518852,27.3833367 C127.58648,27.2201984 128.040158,26.1546546 128.515444,25.039882 L128.719398,24.5615957 C129.15956,23.5295569 129.573463,22.5601633 129.669312,22.3365155 Z M223.817657,22.3365155 L226.004981,27.3833367 L221.66474,27.3833367 C221.732368,27.2201984 222.186332,26.1546546 222.662052,25.039882 L222.866201,24.5615957 C223.306804,23.5295569 223.721257,22.5601633 223.817657,22.3365155 Z M237.729286,20.4514841 C239.227235,20.6935644 239.987883,21.5684942 239.987883,23.0381797 C239.987883,24.545959 238.998672,25.6457654 237.331144,25.9812371 C236.393544,26.1692487 235.260559,26.1348413 234.71127,26.0992052 L234.71127,20.4318228 C235.600946,20.3900424 236.980926,20.3310584 237.729286,20.4514841 Z M282.437954,20.9553061 L282.437954,24.1564186 L291.258524,25.3422434 C292.208413,24.1084941 293.120207,22.9005503 293.971789,21.7171831 L282.437954,20.9553061 Z M117.538262,20.9553061 L106.036376,21.7171831 C106.918389,22.9403016 107.820475,24.1488188 108.742269,25.3422434 L117.538262,24.1564186 L117.538262,20.9553061 Z M386.30146,15.4501298 L301.00072,15.4501298 C300.184774,16.7600668 299.286496,18.1400474 298.319404,19.5740967 L373.154165,24.545959 C374.336304,24.6897326 377.750004,24.9625337 379.465457,24.5336707 C381.517609,23.8246334 382.163976,22.5921129 382.583009,21.7945997 L385.655094,16.4012473 C385.85908,16.0424278 386.077812,15.7339904 386.30146,15.4501298 Z M99.0037593,15.4476721 L13.6895018,15.4476721 C14.501761,16.4651467 16.1545428,19.6576574 17.4104111,21.7933709 C17.8306723,22.5921129 18.4819543,23.8246334 20.5365648,24.5324418 C22.2507882,24.9613049 25.6657179,24.6885037 26.8404831,24.5435013 L101.686304,19.571639 C100.766576,18.2137705 99.8722394,16.838876 99.0037593,15.4476721 Z M117.538262,15.4476721 L101.773551,15.4476721 C102.621617,16.7807372 103.496313,18.096673 104.397112,19.3946869 L117.538262,18.5259013 L117.538262,15.4476721 Z M298.233386,15.4476721 L282.437954,15.4476721 L282.437954,18.5259013 L295.612283,19.3946869 C296.509755,18.0949566 297.383599,16.7790689 298.233386,15.4476721 Z M394.236041,3.01310095 L313.63682,3.02047395 C308.10338,3.02047395 304.987057,8.5748036 304.962481,8.62027045 C304.147697,10.1357194 303.302083,11.6343894 302.426167,13.1153452 L390.408223,13.1030569 C392.637328,12.9617409 392.9728,12.5574546 393.514716,11.6628634 L396.414764,6.83969 C396.860831,6.01882889 396.997231,5.41055607 396.997231,4.98292184 C396.997231,4.49999008 396.831339,4.23210427 396.761295,4.1030767 C396.180057,3.14335735 395.081479,3.04873713 394.236041,3.01310095 Z M167.398202,3.01064328 L93.1115003,3.01310095 C95.6662462,4.92393781 97.0093618,7.3422831 97.096609,7.50203152 C97.096609,7.50203152 97.8875126,8.93187266 98.7765596,10.4890435 L99.0209398,10.9159048 C99.4715228,11.7006834 99.930897,12.4876919 100.312468,13.1141164 L179.755356,13.1141164 C179.607896,12.805679 179.492386,12.376816 179.492386,12.376816 C178.91852,9.86999462 177.840833,7.81538419 176.286358,6.26213802 C174.133441,4.1067632 171.146145,3.01064328 167.398202,3.01064328 Z M306.886835,3.01187211 L232.595218,3.01187211 C228.854647,3.01187211 225.85875,4.10799204 223.708291,6.26213802 C222.155044,7.81661302 221.07367,9.87122346 220.507178,12.376816 C220.508407,12.376816 220.4101,12.8241115 220.245436,13.1128875 L299.689554,13.1128875 C300.810727,11.2712921 301.882247,9.39992271 302.902955,7.50080269 C302.99266,7.33982544 304.333318,4.92270897 306.886835,3.01187211 Z M5.76106485,3.01064328 C3.7998458,3.04136413 3.05394356,3.88557308 3.0047902,4.981693 C2.98512886,5.41055607 3.13258894,6.01882889 3.57865568,6.83969 C3.67584527,6.99999698 4.28437199,8.01083988 4.91861098,9.06519053 L5.17252678,9.48733824 C5.84715319,10.6090508 6.47736335,11.6578364 6.47378856,11.6542616 C7.12015524,12.7159742 7.55762014,12.9592833 9.61223058,13.1128875 L97.5795407,13.1128875 C96.7006846,11.6329052 95.8530118,10.1346261 95.0370832,8.61904162 C95.0370832,8.61904162 91.8199958,3.01801628 86.3639729,3.01801628 L5.76106485,3.01064328 Z" id="Combined-Shape"></path>
        </g>
</svg>