<?xml version="1.0" encoding="UTF-8"?>
<svg width="400px" height="141px" viewBox="0 0 400 141" version="1.1" xmlns="http://www.w3.org/2000/svg">
    <title>audi</title>
    <path d="M330.075278,0.348754637 C314.334511,0.323442616 299.049854,5.63388022 286.715714,15.4135209 C274.381925,5.63324098 259.097037,0.322723323 243.35615,0.348754637 C227.616254,0.324496763 212.332654,5.63484569 199.998862,15.4135209 C187.666211,5.63276818 172.381863,0.322159056 156.641574,0.348754637 C140.901678,0.324496763 125.618078,5.63484569 113.284286,15.4135209 C100.950669,5.63452619 85.6669545,0.324137261 69.9269982,0.348754637 C31.3014583,0.348754637 0,31.6480372 0,70.275853 C0,108.899117 31.2991824,140.202949 69.9269982,140.202949 C85.6668639,140.227029 100.950406,134.9167 113.284286,125.138185 C125.617903,134.91718 140.901618,140.227569 156.641574,140.202949 C172.381802,140.229187 187.666036,134.918618 199.998862,125.138185 C212.332654,134.91686 227.616254,140.227209 243.35615,140.202949 C259.097007,140.228803 274.381837,134.918305 286.715714,125.138185 C299.04959,134.918305 314.334421,140.228803 330.075278,140.202949 C368.700818,140.202949 400,108.901393 400,70.275853 C400,31.6503131 368.700818,0.348754637 330.075278,0.348754637 Z M101.842969,113.715076 C92.9325345,120.215255 81.8007499,124.182276 69.9269982,124.182276 C40.1299581,124.182276 16.0182988,100.072893 16.0182988,70.275853 C16.0182988,40.4788129 40.1299581,16.3671536 69.9269982,16.3671536 C81.8007499,16.3671536 92.9257065,20.3364507 101.842969,26.8389059 C92.0181503,39.1820445 86.683971,54.4999519 86.7168519,70.275853 C86.7242374,86.0456539 92.0538985,101.351388 101.842969,113.715076 L101.842969,113.715076 Z M113.286562,102.305623 C106.414648,93.0426247 102.714985,81.8095352 102.737258,70.275853 C102.708474,58.7411336 106.408796,47.5060465 113.286562,38.2460832 C120.16301,47.5067304 123.863183,58.7413671 123.83585,70.275853 C123.857328,81.8094057 120.157746,93.0422462 113.286562,102.305623 L113.286562,102.305623 Z M188.559821,113.715076 C179.302194,120.530677 168.10104,124.194188 156.605158,124.166502 C145.133106,124.189675 133.957202,120.52581 124.725603,113.715076 C134.515616,101.352784 139.845426,86.0474212 139.85172,70.2781289 C139.884601,54.5022278 134.550422,39.1843205 124.725603,26.8411819 C133.956323,20.0284762 145.132645,16.3636765 156.605158,16.3875206 C168.565397,16.3875206 179.615247,20.2567917 188.559821,26.8411819 C178.735002,39.1843205 173.400823,54.5022278 173.433704,70.2781289 C173.440354,86.0473608 178.770125,101.352609 188.559821,113.715076 L188.559821,113.715076 Z M199.998862,102.305623 C193.126948,93.0426247 189.427284,81.8095352 189.449571,70.275853 C189.421915,58.7413153 193.122121,47.5065785 199.998862,38.2460832 C206.877,47.5059914 210.578079,58.7409532 210.550429,70.275853 C210.57222,81.8098189 206.871733,93.042983 199.998862,102.305623 L199.998862,102.305623 Z M275.274397,113.715076 C266.329823,120.301742 255.279973,124.166345 243.32201,124.166345 C231.364048,124.166345 220.384753,120.294914 211.440179,113.715076 C221.231142,101.353306 226.561072,86.0476023 226.566296,70.2781289 C226.599177,54.5022278 221.264998,39.1843205 211.440179,26.8411819 C220.384753,20.2590677 231.364048,16.3876374 243.32201,16.3876374 C255.279973,16.3876374 266.329823,20.2567917 275.274397,26.8411819 C265.450704,39.1849409 260.116666,54.5024409 260.14828,70.2781289 C260.156178,86.0471495 265.48581,101.352 275.274397,113.715076 L275.274397,113.715076 Z M286.71799,102.305623 C279.846076,93.0426247 276.146412,81.8095352 276.168674,70.275853 C276.138923,58.7409779 279.839344,47.5055901 286.71799,38.2460832 C293.594437,47.5067304 297.294611,58.7413671 297.267277,70.275853 C297.287781,81.8092503 293.588298,93.0417924 286.71799,102.305623 L286.71799,102.305623 Z M330.075278,124.182276 C318.196974,124.182276 307.067466,120.215255 298.159307,113.715076 C307.948369,101.352261 313.278061,86.04724 313.285424,70.2781289 C313.317037,54.5024409 307.983,39.1849409 298.159307,26.8411819 C307.076569,20.3410027 318.19925,16.3694296 330.075278,16.3694296 C359.867766,16.3694296 383.983977,40.4810888 383.983977,70.2781289 C383.983977,100.070617 359.867766,124.182276 330.075278,124.182276 Z" id="audi" fill="#FFFFFF"></path>
</svg>