<?xml version="1.0" encoding="UTF-8"?>
<svg width="400px" height="126px" viewBox="0 0 400 126" version="1.1" xmlns="http://www.w3.org/2000/svg">
    <title>bentley</title>
    <g id="bentley" transform="translate(0, 0.203)" fill-rule="nonzero">
        <path d="M204.828897,122.382925 C207.091775,126.646813 213.672623,125.437098 214.611931,121.150439 C217.318845,125.095532 223.586591,123.253919 224.184332,119.103886 C226.805855,121.961659 232.006205,120.817411 233.18461,117.117108 C233.201688,117.063026 233.167531,117.171189 233.18461,117.117108 C252.474578,109.184225 266.592661,94.8327392 272.114652,77.7003323 C273.286646,77.2103937 274.311512,76.4248266 275.089128,75.4203759 C281.055156,76.823645 287.721396,79.6301831 290.177828,72.9639434 C295.443645,74.3672125 306.484783,78.0418989 309.826442,69.1070882 C317.545845,70.1602517 328.771997,70.860463 330.178113,62.7909542 C336.844352,62.7909542 348.420611,61.7377908 348.420611,54.0183877 C355.089697,54.0183877 366.665955,49.4556284 365.262686,44.1926578 C371.228714,43.4924464 379.30107,37.1763124 379.30107,32.9665052 C385.264252,31.2131304 391.933338,26.6503711 390.527222,20.6871892 C394.033972,18.5808623 400,16.1244299 400,12.6176804 C400,9.11093087 397.193462,6.30154633 394.033972,6.30154633 C390.874481,6.30154633 378.945271,7.02452878 374.735464,7.02452878 C370.528503,7.02452878 319.649325,6.32147105 307.720115,7.02452878 C295.790904,7.72474012 280.702204,8.05492108 273.332906,7.35470974 C267.904845,6.83097442 249.411865,5.77211824 238.308107,8.74090049 C214.791253,-2.91221026 185.21444,-2.91505665 161.691893,8.74090049 C150.590981,5.77496463 132.095155,6.83382081 126.664247,7.34901696 C119.29495,8.05207469 104.209096,7.71904735 92.2770389,7.018836 C80.3478286,6.31577827 29.4686506,7.018836 25.2588434,7.018836 C21.0490361,7.018836 9.1198258,6.29585356 5.96033559,6.29585356 C2.80084538,6.29585356 0,9.1052381 0,12.6119876 C0,16.1215835 5.96602836,18.578016 9.47562425,20.6814964 C8.06950878,26.6475247 14.7385949,31.2074376 20.7017769,32.9608124 C20.7017769,37.1706196 28.7712856,43.4867537 34.737314,44.186965 C33.3340449,49.452782 44.9131496,54.0126949 51.5793893,54.0126949 C51.5793893,61.7292516 63.158494,62.7852614 69.8247337,62.7852614 C71.2280028,70.8547702 82.4570018,70.1545589 90.1764049,69.1013955 C93.5180639,78.0390525 104.562048,74.3643661 109.825018,72.9582506 C112.281451,79.6273367 118.947691,76.8179522 124.913719,75.4146831 C125.727786,76.4735393 126.752485,77.2079073 127.888194,77.6946396 C133.410186,94.8298928 147.531115,109.181379 166.818237,117.114261 C166.832469,117.168343 166.801158,117.06018 166.818237,117.114261 C167.996641,120.814565 173.196991,121.958813 175.818514,119.10104 C176.416256,123.251073 182.684001,125.089839 185.390916,121.147592 C186.327377,125.434252 192.911072,126.643967 195.171103,122.380078 C195.709071,126.367867 204.290929,126.367867 204.828897,122.382925 L204.828897,122.382925 Z" id="Path" fill="#000000"></path>
        <path d="M139.299362,76.823645 C141.362993,81.5401092 147.884067,80.5581055 151.78931,79.0865231 C156.9982,87.0108661 165.662603,93.4607804 176.330864,97.357485 L167.857168,111.720357 C151.385123,104.544614 139.191199,92.532858 133.817219,78.3891581 C135.719515,78.178713 137.5728,77.6494778 139.299362,76.823645 L139.299362,76.823645 Z" id="Path" fill="#FFFFFF"></path>
        <path d="M166.630375,115.449124 C148.444805,107.769571 135.078169,94.3346214 129.541945,78.2297604 C130.455635,78.4290076 131.403483,78.50586 132.35133,78.4887817 C137.773698,93.1391386 150.294957,105.589238 167.230963,112.981306 C166.890051,113.763156 166.686864,114.598055 166.630375,115.449124 L166.630375,115.449124 Z M176.145849,115.878929 C176.143482,115.88762 176.140631,115.896173 176.13731,115.904546 C173.441781,122.536629 165.446278,118.699699 169.064037,112.437646 L177.680052,97.8356781 C179.259797,98.3707989 180.879391,98.8489921 182.536127,99.2759502 C182.570146,99.5008148 176.23978,115.577212 176.145849,115.878929 L176.145849,115.878929 Z M185.257136,117.94256 C183.589152,124.577489 175.590803,122.553708 177.472266,116.34289 L184.320674,99.7029083 C185.948808,100.072939 187.608252,100.386041 189.296213,100.63937 C189.313238,100.70199 185.257136,117.94256 185.257136,117.94256 L185.257136,117.94256 Z M194.647368,118.990031 C194.052473,126.128771 185.288446,124.890592 186.859652,117.780316 C186.859652,117.786009 190.773435,100.887006 190.787667,100.850003 C192.432879,101.057789 194.100862,101.217187 195.794462,101.313964 C195.854236,101.467669 194.653061,118.847711 194.647368,118.990031 L194.647368,118.990031 Z M196.173032,118.881868 C196.173032,118.884714 197.106647,101.601449 197.120879,101.558753 C198.760398,101.627066 201.182674,101.675455 202.870582,101.504672 C202.950281,101.652684 204.037601,118.702545 204.054679,118.842018 C204.584107,125.8299 195.754613,125.972219 196.173032,118.881868 L196.173032,118.881868 Z M5.77247401,10.4942752 C6.55807698,9.89368746 8.2488312,9.92499772 10.3864683,9.80544944 C21.2625152,9.80544944 46.5270514,10.5085072 51.4399163,10.5085072 C56.3527813,10.5085072 91.0900953,14.3682087 96.5266956,16.1244299 C98.983128,16.8274876 99.5097097,19.2810737 96.5266956,19.4575497 C93.5436814,19.6340257 56.460944,20.1634538 51.1979734,20.1634538 C47.1162536,20.1634538 25.8850486,20.0922941 13.6142718,17.6586328 C6.97649595,16.3407553 3.41281871,12.2931922 5.77247401,10.4942752 L5.77247401,10.4942752 Z M17.7187627,23.4880345 C24.0348967,23.6645106 55.6127205,23.8409866 59.2987924,23.6645106 C62.9820179,23.4880345 91.5796739,21.9111358 94.9127938,21.7346598 C102.122694,21.3560902 104.456731,24.5668154 96.8426446,26.2974191 C92.982943,27.1769528 57.3689416,31.210284 30.3510307,30.6837023 C25.2616898,30.8601784 18.4218204,28.2272698 16.6655993,25.7708374 C14.9122245,23.3144049 16.8420753,23.4880345 17.7187627,23.4880345 L17.7187627,23.4880345 Z M30.0009251,35.0699856 C34.3872083,35.0699856 86.1402273,31.210284 97.0191206,28.9303276 C106.480513,27.4900555 104.345722,32.3516854 100.52587,33.1401348 C97.3151449,33.8033431 58.9458404,41.2096436 39.4737029,41.5597493 C32.9810929,41.3861196 25.4381658,35.2436152 30.0009251,35.0699856 L30.0009251,35.0699856 Z M43.1569285,45.9460325 C49.2994329,45.2429748 90.1764049,38.7532111 101.228928,35.7701969 C111.225441,33.1799842 109.207352,39.8234528 105.615211,40.8595379 C102.415871,41.7817675 67.5789339,50.2611561 59.6488981,50.6852678 C56.286498,50.8620994 52.9150274,50.6346589 49.6068427,50.0078276 C38.4034612,47.7677206 43.1569285,45.9460325 43.1569285,45.9460325 Z M59.6488981,55.0687047 C64.0351814,54.1920173 99.6491827,46.1196622 109.825018,42.262807 C114.783425,40.5350497 116.274933,45.4052189 113.158138,46.8227199 C111.228287,47.6994073 83.8602708,59.1020359 70.8778971,59.8050936 C66.1415082,59.8050936 57.3803272,57.2547304 59.6488981,55.0687047 Z M117.718051,47.6994073 C113.68472,49.6292581 89.1232415,59.9815697 79.6476172,62.0878965 C78.3325862,62.4380022 76.943549,63.0186652 77.0545581,63.7501868 C77.8970889,69.3518776 95.3340592,64.5870248 96.5437739,64.1999161 C103.249863,62.0508934 116.921063,57.0327121 122.719154,51.3826328 C121.315885,50.6824215 118.071003,48.402465 117.718051,47.6994073 Z M125.087349,53.6654356 C122.457286,55.4188104 105.262259,64.3706993 97.3692263,66.8242854 C93.2448107,68.1990906 97.5855517,72.4402081 105.640829,70.1431733 C114.544329,68.7626754 127.543781,58.2281949 129.650108,56.2983441 C128.596944,55.7717624 126.316988,54.3684934 125.087349,53.6654356 Z M133.159704,58.404671 C129.980289,60.5793111 123.860555,64.6439525 119.975236,67.2370116 C118.37272,68.3072533 114.547175,70.4221193 114.629721,72.1128735 C114.66957,72.9212476 116.206619,74.4554505 123.228657,71.9050872 C127.595016,70.1175558 132.880758,66.4827189 137.369511,59.9844161 C136.492824,59.7168556 134.210021,58.9284063 133.159704,58.404671 L133.159704,58.404671 Z M141.052736,61.0347331 C139.407524,62.6799451 137.281273,64.9285913 135.200564,67.0007614 C133.284945,69.4714259 129.015363,71.2504181 130.484099,74.1053448 C132.07523,77.1965217 137.084872,72.747618 138.889482,71.0454782 C141.439845,68.6345879 143.90197,65.4494802 144.827046,62.2615261 C143.597407,61.9114205 142.194138,61.5613148 141.052736,61.0347331 Z" id="Shape" fill="#FFFFFF"></path>
        <path d="M80.0005693,9.1052381 C84.5633286,9.1052381 99.9992884,10.1584015 105.615211,10.1584015 C121.748536,10.1584015 143.580329,7.31201392 158.586484,10.3946517 C167.914096,12.3102705 169.251898,15.0114923 169.251898,17.9148077 C169.251898,21.691964 166.095254,23.960539 163.857994,25.6000541 C161.227932,27.5299049 153.155576,32.2662938 152.805471,44.5484562 C150.70199,43.6717688 147.718976,43.1451871 149.825303,38.7589039 C153.499989,31.4066848 161.763052,22.4519495 147.630738,18.6377901 C145.402017,18.0372023 142.655253,17.6444008 139.299362,17.5305453 C128.949896,17.1804397 113.940895,17.1035872 108.851554,16.2268998 C103.765059,15.3502124 84.5604822,10.8643056 80.527151,10.3405703 C78.7709298,10.1555551 78.7709298,9.27886774 80.0005693,9.1052381 Z" id="Path" fill="#FFFFFF"></path>
        <path d="M120.558746,19.7734987 C124.241971,19.7734987 135.522205,19.6966463 139.305054,19.8759687 C149.768375,20.3740865 157.240143,25.4719667 149.682984,35.0386753 C148.202862,36.908752 144.246383,40.8282277 142.666638,42.2314967 C141.263369,43.2846601 138.630461,41.528439 140.910417,38.8983769 C137.927403,40.6517516 134.244177,40.301646 135.997552,36.2683148 C133.364644,38.3746416 128.981207,38.5482712 131.611269,33.1116709 C129.857894,34.51494 124.945029,34.3413104 128.101673,30.1286568 C125.471611,31.0053441 122.488597,29.425599 124.418447,26.7955369 C121.085328,27.324965 119.155477,24.8656861 122.665073,22.9386817 C119.331953,23.8068299 118.455265,19.9471284 120.558746,19.7734987 L120.558746,19.7734987 Z M110.266208,17.9091149 C108.845861,17.8180305 102.683432,16.816102 102.831444,20.1378364 C102.979456,23.462417 109.825018,22.2071601 111.231134,21.9452925 C113.821346,21.464253 115.89067,20.6729572 115.830896,19.5998691 C115.771122,18.4983171 113.072747,18.0855909 110.266208,17.9091149 Z M110.516691,23.6047364 C109.019491,23.7185919 103.636972,23.4538779 104.476656,26.4938198 C104.74137,27.450206 106.719609,29.3857496 113.337461,27.7775406 C116.23793,27.0716365 117.740822,25.5175089 117.740822,24.2821767 C117.740822,23.2033958 113.841271,23.3514079 110.516691,23.6047364 L110.516691,23.6047364 Z M114.766347,28.5403725 C113.701798,28.7168485 107.53083,29.1381139 108.564069,32.2492155 C109.287051,34.4181628 110.397142,33.7321834 112.278604,33.957048 C113.519629,34.1050602 122.713461,31.5148475 121.276036,28.56599 C120.849077,27.6893026 118.145009,27.9853269 114.766347,28.5403725 L114.766347,28.5403725 Z M117.817675,32.9494268 C111.697941,35.4343232 111.77764,37.1165383 112.056586,38.0245359 C112.332686,38.9353799 115.139224,40.059703 120.945855,37.2218546 C123.886173,35.7844289 123.923176,34.1506024 123.200194,32.994969 C122.297889,31.5461578 120.015086,32.0556611 117.817675,32.9494268 Z M122.101488,37.1279238 C115.731273,39.3481061 116.09561,41.3747341 116.599421,42.5645241 C117.154466,43.8795551 119.166862,45.2799778 124.483914,41.8927766 C127.69464,39.8490703 129.783888,38.135545 129.211764,36.7749717 C128.693722,35.5396395 125.656626,35.8612813 122.101488,37.1279238 L122.101488,37.1279238 Z M124.594923,43.5095248 C122.924094,44.5228387 122.164108,45.8947975 123.217272,47.4574643 C125.10158,50.2583097 130.657729,45.3169809 132.052459,43.8055491 C133.088544,42.6840724 133.751752,41.5056679 133.165396,40.6432125 C132.559116,39.7551395 130.674807,39.8234528 124.594923,43.5095248 L124.594923,43.5095248 Z M134.654057,43.9848715 C127.236371,47.7677206 127.947968,49.6007942 128.981207,50.3835508 C130.122608,51.2488526 132.812444,52.1568502 137.309737,46.9593465 C139.282283,44.6822364 138.19781,42.1888009 134.654057,43.9848715 L134.654057,43.9848715 Z M138.357207,47.9527358 C136.791694,49.7032641 133.122701,52.3418654 135.963395,54.3087192 C138.357207,55.9653168 139.760476,54.1464751 140.938881,53.0193057 C147.753133,46.4640751 145.498794,42.314042 138.357207,47.9527358 L138.357207,47.9527358 Z" id="Shape" fill="#FFFFFF"></path>
        <path d="M160.741199,13.5911449 C165.950089,16.1955896 168.104804,18.9622783 162.756442,22.742281 C162.101773,23.2033958 162.910147,24.35049 163.564816,23.8893752 C169.451145,19.7336493 168.184503,15.4213721 161.370251,12.335888 C160.652961,11.9772432 160.026756,13.2325001 160.741199,13.5911449 Z" id="Path" fill="#000000"></path>
        <path d="M232.236763,72.975329 C232.236763,67.379331 226.472828,61.783333 220.071302,59.8534822 C218.360623,59.4663735 218.63103,57.9464026 219.963139,57.3458148 C221.244014,56.7651517 228.715781,51.5562624 228.610465,44.9953391 C228.610465,38.6279701 221.135851,28.9787162 199.360986,28.9787162 C186.552242,28.9787162 175.878288,31.8734923 169.473916,37.2787823 C170.965424,38.4372621 172.676102,40.1735585 172.676102,42.1034093 L172.676102,77.41854 C172.462623,79.5419451 171.395228,81.2782415 169.684549,83.2080923 C175.434252,87.2898121 185.729636,91.1836703 200.510927,91.135728 C216.308378,90.748173 232.236763,86.0971757 232.236763,72.975329 Z" id="Path" fill="#FFFFFF"></path>
        <ellipse id="Oval" fill="#000000" cx="200.442613" cy="46.1509724" rx="12.3020871" ry="9.82572992"></ellipse>
        <ellipse id="Oval" fill="#000000" cx="202.028051" cy="72.7817746" rx="13.7907478" ry="10.3722363"></ellipse>
        <path d="M146.99884,55.8372294 C147.47988,53.4434174 148.251251,51.1179188 149.281643,48.8835045 C149.221869,48.7952665 147.397334,46.4612287 142.902888,52.9566851 C140.420838,56.5402871 144.804275,57.9834056 146.99884,55.8372294 Z M146.853674,66.8698276 C145.003522,69.0188502 143.258687,70.82346 142.1059,72.2637321 C139.697856,75.2752101 145.962755,78.9868995 149.338571,74.7059326 C148.168768,72.2147378 147.333239,69.5799031 146.853674,66.8698276 L146.853674,66.8698276 Z M233.201688,10.7333718 C234.194429,10.1710143 235.239158,9.70584282 236.321329,9.34433465 C213.857638,-1.24422714 186.142362,-1.24422714 163.681518,9.34433465 C164.848537,9.74852169 165.896007,10.2096365 166.798312,10.7333718 C187.599713,1.67332013 212.582456,1.75301898 233.201688,10.7333718 L233.201688,10.7333718 Z" id="Shape" fill="#FFFFFF"></path>
        <path d="M243.542614,38.590967 C241.020715,29.8184005 234.724505,26.2490305 232.282305,24.5411979 C227.372286,21.1113009 227.639847,16.0418846 231.835422,11.6726797 C211.788314,3.22175497 187.978282,3.31853215 168.167425,11.6726797 C172.363,16.0418846 172.627714,21.1113009 167.720542,24.5411979 C165.278341,26.2490305 158.979285,29.8184005 156.460232,38.590967 C177.873606,16.5229241 222.12924,16.5200777 243.542614,38.590967 L243.542614,38.590967 Z M260.703485,76.823645 C258.637007,81.5401092 252.115933,80.5581055 248.213536,79.0865231 C243.004647,87.0108661 234.340243,93.4607804 223.669136,97.357485 L232.145678,111.720357 C248.617723,104.544614 260.808801,92.532858 266.188474,78.3891581 C264.285111,78.1795077 262.430759,77.6502426 260.703485,76.823645 L260.703485,76.823645 Z" id="Shape" fill="#FFFFFF"></path>
        <path d="M233.372471,115.449124 C251.558041,107.769571 264.927524,94.3346214 270.460901,78.2297604 C269.537631,78.4246109 268.594849,78.5115341 267.651517,78.4887817 C262.229148,93.1391386 249.707889,105.589238 232.771883,112.981306 C233.112795,113.763156 233.315983,114.598055 233.372471,115.449124 L233.372471,115.449124 Z M223.854151,115.878929 L223.865537,115.904546 C226.561066,122.536629 234.556568,118.699699 230.93881,112.437646 L222.322795,97.8356781 C220.743049,98.3707989 219.126301,98.8489921 217.46672,99.2759502 C217.432701,99.5008148 223.763067,115.577212 223.854151,115.878929 L223.854151,115.878929 Z M214.742864,117.94256 C216.413694,124.577489 224.409197,122.553708 222.527734,116.34289 C222.527734,116.34289 216.037971,100.565364 215.679326,99.7029083 C214.054039,100.072939 212.394595,100.386041 210.706633,100.63937 C210.689609,100.70199 214.742864,117.94256 214.742864,117.94256 L214.742864,117.94256 Z M205.355478,118.990031 C205.950373,126.128771 214.711554,124.890592 213.140348,117.780316 C213.143195,117.786009 209.229412,100.887006 209.212333,100.850003 C207.567121,101.057789 205.896292,101.217187 204.205538,101.313964 C204.14861,101.467669 205.349785,118.847711 205.355478,118.990031 Z M394.230372,10.4942752 C393.444769,9.89368746 391.754015,9.92499772 389.616378,9.80544944 C378.740331,9.80544944 353.475795,10.5085072 348.56293,10.5085072 C343.650065,10.5085072 308.912751,14.3682087 303.476151,16.1244299 C301.019718,16.8274876 300.493137,19.2810737 303.476151,19.4575497 C306.459165,19.6340257 343.539056,20.1634538 348.802027,20.1634538 C352.886593,20.1634538 374.117798,20.0922941 386.385728,17.6586328 C393.029197,16.3407553 396.592874,12.2931922 394.230372,10.4942752 L394.230372,10.4942752 Z M382.281237,23.4880345 C375.965103,23.6645106 344.390126,23.8409866 340.704054,23.6645106 C337.020828,23.4880345 308.423172,21.9111358 305.090053,21.7346598 C297.880153,21.3560902 295.543269,24.5668154 303.160202,26.2974191 C307.017057,27.1769528 342.633905,31.210284 369.648969,30.6837023 C374.735464,30.8601784 381.57818,28.2272698 383.334401,25.7708374 C385.090622,23.3144049 383.160771,23.4880345 382.281237,23.4880345 L382.281237,23.4880345 Z M370.001921,35.0699856 C365.615638,35.0699856 313.862619,31.210284 302.983726,28.9303276 C293.522333,27.4900555 295.657124,32.3516854 299.476976,33.1401348 C302.687701,33.8033431 341.05416,41.2096436 360.529143,41.5597493 C367.018907,41.3861196 374.561834,35.2436152 370.001921,35.0699856 L370.001921,35.0699856 Z M356.845918,45.9460325 C350.70626,45.2429748 309.826442,38.7532111 298.776765,35.7701969 C288.780252,33.1799842 290.795494,39.8234528 294.390482,40.8595379 C297.586975,41.7817675 332.423913,50.2611561 340.353948,50.6852678 C343.716348,50.8620994 347.087819,50.6346589 350.396004,50.0078276 C361.599385,47.7677206 356.845918,45.9460325 356.845918,45.9460325 L356.845918,45.9460325 Z M340.353948,55.0687047 C335.967665,54.1920173 300.353664,46.1196622 290.177828,42.262807 C285.222267,40.5350497 283.727914,45.4052189 286.844708,46.8227199 C288.774559,47.6994073 316.142576,59.1020359 329.124949,59.8050936 C333.861338,59.8050936 342.622519,57.2547304 340.353948,55.0687047 L340.353948,55.0687047 Z M282.281949,47.6994073 C286.31528,49.6292581 310.879605,59.9815697 320.352383,62.0878965 C321.667414,62.4380022 323.056451,63.0186652 322.945442,63.7501868 C322.102911,69.3518776 304.665941,64.5870248 303.456226,64.1999161 C296.752983,62.0508934 283.078937,57.0327121 277.280846,51.3826328 C278.686961,50.6824215 281.931843,48.402465 282.281949,47.6994073 L282.281949,47.6994073 Z M274.912651,53.6654356 C277.542714,55.4188104 294.737741,64.3706993 302.630774,66.8242854 C306.755189,68.1990906 302.414448,72.4402081 294.359171,70.1431733 C285.455671,68.7626754 272.456219,58.2281949 270.349892,56.2983441 C271.405902,55.7717624 273.685858,54.3684934 274.912651,53.6654356 L274.912651,53.6654356 Z M266.845989,58.404671 C270.022558,60.5793111 276.145137,64.6439525 280.030456,67.2370116 C281.632973,68.3072533 285.458517,70.4221193 285.375972,72.1128735 C285.336123,72.9212476 283.799074,74.4554505 276.777035,71.9050872 C272.410677,70.1175558 267.124935,66.4827189 262.636182,59.9844161 C263.510023,59.7168556 265.789979,58.9284063 266.845989,58.404671 L266.845989,58.404671 Z M258.947264,61.0347331 C260.592476,62.6799451 262.721573,64.9285913 264.802283,67.0007614 C266.720748,69.4714259 270.990329,71.2504181 269.518747,74.1053448 C267.927616,77.1965217 262.917974,72.747618 261.116211,71.0454782 C258.565848,68.6345879 256.100876,65.4494802 255.1758,62.2615261 C256.405439,61.9114205 257.808709,61.5613148 258.947264,61.0347331 Z" id="Shape" fill="#FFFFFF"></path>
        <path d="M320.002277,9.1052381 C315.439518,9.1052381 300.003558,10.1584015 294.387635,10.1584015 C278.251464,10.1584015 256.419671,7.31201392 241.416362,10.3946517 C232.08875,12.3102705 230.750948,15.0114923 230.750948,17.9148077 C230.750948,21.691964 233.904746,23.960539 236.142006,25.6000541 C238.774915,27.5299049 246.84727,32.2662938 247.197376,44.5484562 C249.300856,43.6717688 252.28387,43.1451871 250.18039,38.7589039 C246.502857,31.4066848 238.24264,22.4519495 252.374955,18.6377901 C254.603676,18.0372023 257.35044,17.6444008 260.709177,17.5305453 C271.058643,17.1804397 286.067644,17.1035872 291.154139,16.2268998 C296.240634,15.3502124 315.445211,10.8643056 319.478542,10.3405703 C321.231917,10.1555551 321.231917,9.27886774 320.002277,9.1052381 Z" id="Path" fill="#FFFFFF"></path>
        <path d="M279.441254,19.7734987 C275.758029,19.7734987 264.477795,19.6966463 260.694946,19.8759687 C250.231625,20.3740865 242.759857,25.4719667 250.317016,35.0386753 C251.797138,36.908752 255.753617,40.8282277 257.333362,42.2314967 C258.736631,43.2846601 261.369539,41.528439 259.086737,38.8983769 C262.072597,40.6517516 265.755823,40.301646 264.002448,36.2683148 C266.63251,38.3746416 271.018793,38.5482712 268.388731,33.1116709 C270.142106,34.51494 275.054971,34.3413104 271.895481,30.1286568 C274.528389,31.0053441 277.511403,29.425599 275.578706,26.7955369 C278.914672,27.324965 280.844523,24.8656861 277.332081,22.9386817 C280.670894,23.8068299 281.547581,19.9471284 279.441254,19.7734987 Z M289.736638,17.9091149 C291.156985,17.8180305 297.319414,16.816102 297.171402,20.1378364 C297.02339,23.462417 290.177828,22.2071601 288.771713,21.9452925 C286.1815,21.464253 284.112176,20.6729572 284.17195,19.5998691 C284.231724,18.4983171 286.9301,18.0855909 289.736638,17.9091149 Z M289.489002,23.6047364 C290.983356,23.7185919 296.368721,23.4538779 295.52619,26.4938198 C295.261476,27.450206 293.286083,29.3857496 286.668232,27.7775406 C283.764917,27.0716365 282.264871,25.5175089 282.264871,24.2821767 C282.264871,23.2033958 286.161575,23.3514079 289.489002,23.6047364 L289.489002,23.6047364 Z M285.233653,28.5403725 C286.298202,28.7168485 292.46917,29.1381139 291.435931,32.2492155 C290.712949,34.4181628 289.602858,33.7321834 287.721396,33.957048 C286.480371,34.1050602 277.286539,31.5148475 278.723964,28.56599 C279.153769,27.6893026 281.857837,27.9853269 285.233653,28.5403725 L285.233653,28.5403725 Z M282.185172,32.9494268 C288.302059,35.4343232 288.22236,37.1165383 287.94626,38.0245359 C287.667314,38.9353799 284.863622,40.059703 279.056992,37.2218546 C276.116673,35.7844289 276.076824,34.1506024 276.799806,32.994969 C277.704958,31.5461578 279.987761,32.0556611 282.185172,32.9494268 L282.185172,32.9494268 Z M277.898512,37.1279238 C284.268727,39.3481061 283.90439,41.3747341 283.400579,42.5645241 C282.845534,43.8795551 280.833138,45.2799778 275.513239,41.8927766 C272.302514,39.8490703 270.213266,38.135545 270.788236,36.7749717 C271.309125,35.5396395 274.343374,35.8612813 277.898512,37.1279238 L277.898512,37.1279238 Z M275.405077,43.5095248 C277.075906,44.5228387 277.835892,45.8947975 276.782728,47.4574643 C274.901266,50.2583097 269.342271,45.3169809 267.947541,43.8055491 C266.914302,42.6840724 266.248248,41.5056679 266.834604,40.6432125 C267.440884,39.7551395 269.328039,39.8234528 275.405077,43.5095248 L275.405077,43.5095248 Z M265.348789,43.9848715 C272.766475,47.7677206 272.054878,49.6007942 271.02164,50.3835508 C269.880238,51.2488526 267.190402,52.1568502 262.69311,46.9593465 C260.720563,44.6822364 261.805037,42.1888009 265.348789,43.9848715 L265.348789,43.9848715 Z M261.642793,47.9527358 C263.208306,49.7032641 266.877299,52.3418654 264.039451,54.3087192 C261.642793,55.9653168 260.239524,54.1464751 259.063965,53.0193057 C252.249714,46.4640751 254.504053,42.314042 261.642793,47.9527358 Z" id="Shape" fill="#FFFFFF"></path>
        <path d="M239.261647,13.5911449 C234.052758,16.1955896 231.898042,18.9622783 237.249251,22.742281 C237.901074,23.2033958 237.0927,24.35049 236.438031,23.8893752 C230.554547,19.7336493 231.82119,15.4213721 238.635442,12.335888 C239.349885,11.9772432 239.97609,13.2325001 239.261647,13.5911449 L239.261647,13.5911449 Z" id="Path" fill="#000000"></path>
        <path d="M253.004006,55.8372294 C252.52012,53.4434174 251.751596,51.1179188 250.718357,48.8835045 C250.778131,48.7952665 252.602666,46.4612287 257.097112,52.9566851 C259.582008,56.5402871 255.198571,57.9834056 253.004006,55.8372294 Z M253.146326,66.8698276 C254.996478,69.0188502 256.74416,70.82346 257.896947,72.2637321 C260.30499,75.2752101 254.040091,78.9868995 250.664276,74.7059326 C251.834141,72.1982652 252.676672,69.5738958 253.146326,66.8698276 Z" id="Shape" fill="#FFFFFF"></path>
    </g>
</svg>