<?xml version="1.0" encoding="UTF-8"?>
<svg width="400px" height="400px" viewBox="0 0 400 400" version="1.1" xmlns="http://www.w3.org/2000/svg">
    <title>bmw</title>
    <path d="M200,0 C253.42127,0 303.645892,20.8031518 341.420539,58.5794612 C379.196017,96.3549394 400,146.57873 400,200 C400,310.281057 310.280226,400.000831 200,400.000831 C146.57873,400.000831 96.3549394,379.196848 58.5794612,341.42137 C20.8039829,303.645061 0,253.42127 0,200 C0,146.579561 20.8039829,96.3549394 58.5794612,58.5794612 C96.3549394,20.8031518 146.57873,0 200,0 Z M200,8.24263279 C94.0966724,8.24263279 8.24263279,94.0966724 8.24263279,200 C8.24263279,305.903328 94.0966724,391.758198 200,391.758198 C305.903328,391.758198 391.757367,305.903328 391.757367,200 C391.757367,94.0966724 305.903328,8.24263279 200,8.24263279 Z M200,77.5116674 C267.647438,77.5116674 322.488333,132.352562 322.488333,200 C322.488333,267.648269 267.648269,322.488333 200,322.488333 C132.352562,322.488333 77.5116674,267.648269 77.5116674,200 C77.5116674,132.352562 132.352562,77.5116674 200,77.5116674 Z M314.608086,200 L200,200 L200,314.608918 C263.295474,314.608918 314.608086,263.296305 314.608086,200 Z M200,85.3919136 C136.704526,85.3919136 85.3919136,136.705357 85.3919136,200 L200,200 L200,85.3919136 Z M315.616286,57.2637318 L323.425883,66.9077036 L303.596853,92.8466049 L333.899355,79.8372585 L342.277467,90.1835621 L323.25217,117.119027 L352.746782,103.116442 L360.55638,112.760413 L314.132662,135.264122 L304.967439,123.854763 L323.227236,97.1553483 L323.119184,97.0215312 L293.206498,109.331039 L283.95151,97.9939907 L315.616286,57.2637318 Z M88.309292,67.1504029 C90.4013265,68.9058169 91.2873451,69.4851367 93.8257137,74.1138775 C94.4233191,75.7562535 94.8829516,78.7326443 93.7575584,81.6491915 C99.6496652,77.9962348 105.925769,79.1856275 109.985995,83.1319844 C116.224696,89.1961417 115.307094,96.2078237 109.372597,103.280181 L83.3996185,134.232651 L44.683265,101.745024 L69.3122551,72.3942035 C74.4097711,66.319241 81.5369846,61.4677488 88.309292,67.1504029 Z M91.1718136,91.9572617 L75.6265922,110.483861 L85.29633,118.597664 L100.716877,100.220673 C102.76486,97.7803821 102.468966,93.9778163 99.4809394,91.4718631 C96.8411691,89.2559854 92.9272276,89.8652271 91.1718136,91.9572617 Z M74.6940285,79.6585587 L59.9010086,97.2875031 L69.0521014,104.966608 L83.6780577,87.5363114 C85.5174191,85.3453686 85.5107698,82.0872138 82.7720912,79.7890511 C80.281099,77.69951 76.4078844,77.6155627 74.6940285,79.6585587 Z M187.157717,18.7119484 L200.896265,54.6629484 L214.634268,18.7119484 L229.817103,18.7119484 L229.817103,69.1850873 L219.711836,69.1850873 L219.711836,33.9429906 L206.415739,69.1850873 L195.377077,69.1850873 L182.080149,33.9429906 L182.080149,69.1850873 L171.975713,69.1850873 L171.975713,18.7119484 L187.157717,18.7119484 Z" id="bmw" fill="#FFFFFF"></path>
</svg>