<?xml version="1.0" encoding="UTF-8"?>
<svg width="400px" height="204px" viewBox="0 0 400 204" version="1.1" xmlns="http://www.w3.org/2000/svg">
    <title>bugatti</title>
    <path d="M200,0.877027399 C311.356749,0.877027399 400,46.570324 400,101.988139 C400,157.405953 311.356749,203.101545 200,203.101545 C88.640955,203.101545 0,157.403657 0,101.988139 C0,46.5726197 88.6432507,0.877027399 200,0.877027399 Z M200.004591,190.059764 C197.443491,190.059764 195.367309,192.135946 195.367309,194.697046 C195.367309,197.258146 197.443491,199.334328 200.004591,199.334328 C202.565691,199.334328 204.641873,197.258146 204.641873,194.697046 C204.641873,192.135946 202.565691,190.059764 200.004591,190.059764 Z M215.365438,189.897733 L215.151346,189.900297 C212.642141,189.987336 210.657931,192.055535 210.674931,194.566192 C210.686358,196.253751 211.613659,197.801879 213.096099,198.608328 C214.578539,199.414776 216.382056,199.352216 217.805052,198.444984 C219.228048,197.537752 220.045847,195.929091 219.940312,194.244796 C219.783303,191.738996 217.660551,189.813258 215.151346,189.900297 Z M184.859963,189.772803 C182.301399,189.682784 180.154298,191.683936 180.064279,194.2425 C179.97426,196.801065 181.975412,198.948166 184.533976,199.038184 C187.09254,199.128203 189.239641,197.127052 189.32966,194.568487 C189.419679,192.009923 187.418528,189.862822 184.859963,189.772803 Z M169.733306,188.943467 C167.194783,188.765745 164.987701,190.6679 164.788797,193.204851 C164.658645,194.864896 165.428964,196.467187 166.806753,197.402272 C168.184543,198.337357 169.958045,198.46152 171.452686,197.727533 C172.947327,196.993547 173.93339,195.51422 174.035813,193.852234 C174.19234,191.312316 172.271829,189.121189 169.733306,188.943467 Z M232.064826,189.130534 C230.286958,188.535797 228.325891,189.070601 227.09609,190.485562 C225.866289,191.900522 225.609951,193.916978 226.446609,195.594633 C227.283266,197.272288 229.048149,198.280747 230.918274,198.149755 C232.144946,198.065055 233.287559,197.495934 234.094168,196.567882 C234.900776,195.63983 235.305138,194.429063 235.21809,193.202555 C235.087228,191.332422 233.842693,189.725271 232.064826,189.130534 Z M154.729431,187.51734 C152.223195,187.20914 149.931041,188.962824 149.573003,191.462427 C149.334971,193.124219 150.013656,194.784898 151.347443,195.804321 C152.68123,196.823744 154.461826,197.04271 156.002863,196.376814 C157.543899,195.710917 158.604717,194.26415 158.7764,192.594199 C159.03464,190.082324 157.235667,187.82554 154.729431,187.51734 Z M248.685986,188.375517 C247.717005,187.61842 246.486668,187.277849 245.266299,187.42891 C244.045627,187.577498 242.934191,188.205532 242.177094,189.174513 C241.419997,190.143493 241.079426,191.37383 241.230487,192.594199 C241.432248,194.237818 242.495544,195.648945 244.01984,196.296024 C245.544136,196.943103 247.297856,196.727826 248.620391,195.731286 C249.942926,194.734746 250.63335,193.108341 250.431589,191.464723 C250.283001,190.24405 249.654967,189.132614 248.685986,188.375517 Z M139.729153,185.364707 C137.225039,184.968693 134.867052,186.65707 134.435262,189.155264 C134.150401,190.803377 134.775114,192.477187 136.070143,193.53564 C137.365172,194.594093 139.129832,194.873166 140.688274,194.265976 C142.246717,193.658786 143.357438,192.259427 143.595041,190.603841 C143.955199,188.094318 142.233268,185.760721 139.729153,185.364707 Z M265.567034,189.152969 C265.15001,186.638978 262.782531,184.932541 260.265664,185.331834 C257.748797,185.731126 256.025713,188.086517 256.407254,190.606137 C256.65647,192.251904 257.768632,193.637857 259.321351,194.237624 C260.874071,194.83739 262.629133,194.558955 263.919982,193.508066 C265.21083,192.457177 265.839426,190.795059 265.567034,189.152969 Z M124.908936,182.635408 C122.451522,182.112196 120.024412,183.641194 119.435262,186.083639 C119.039797,187.72312 119.565599,189.448049 120.808354,190.58816 C122.051108,191.72827 123.814863,192.103793 125.414264,191.56881 C127.013665,191.033827 128.196526,189.672692 128.503214,188.014309 C128.960108,185.543705 127.366351,183.158619 124.908936,182.635408 Z M280.571625,186.085935 C280.000289,183.623732 277.562372,182.072596 275.09001,182.598231 C272.617648,183.123866 271.021624,185.532636 271.501377,188.014309 C271.81972,189.661037 273.002441,191.007532 274.594363,191.535586 C276.186284,192.06364 277.939275,191.690946 279.178685,190.560939 C280.418095,189.430931 280.950739,187.719742 280.571625,186.085935 Z M110.245982,179.131624 C107.818966,178.481475 105.315651,179.88249 104.600551,182.291169 C104.120577,183.90787 104.556133,185.657697 105.737982,186.860748 C106.919832,188.063798 108.661639,188.530393 110.286618,188.079236 C111.911597,187.628079 113.163546,186.330301 113.556015,184.690159 C114.140743,182.246556 112.672999,179.781773 110.245982,179.131624 Z M295.40404,182.291169 C294.68894,179.88249 292.185625,178.481475 289.758609,179.131624 C287.331593,179.781773 285.863848,182.246556 286.448577,184.690159 C286.877115,186.289898 288.126552,187.539496 289.726236,187.968241 C291.32592,188.396986 293.032822,187.939741 294.203968,186.768746 C295.375113,185.597751 295.832579,183.890908 295.40404,182.291169 Z M200,17.6883222 C86.5266299,17.6883222 16.8112948,64.1277161 16.8112948,101.990434 C16.8112948,139.853152 86.5243343,186.292546 200,186.292546 C313.477961,186.292546 383.191001,139.850857 383.191001,101.990434 C383.191001,64.1300118 313.477961,17.6883222 200,17.6883222 Z M200,19.419268 C313.661616,19.419268 381.460055,65.9206454 381.460055,101.990434 C381.460055,138.060223 313.661616,184.5616 200,184.5616 C86.3383838,184.5616 18.5422406,138.060223 18.5422406,101.990434 C18.5422406,65.9206454 86.3383838,19.419268 200,19.419268 Z M310.01607,177.713575 C309.22365,175.279262 306.607867,173.948245 304.173554,174.740664 C301.739241,175.533084 300.408223,178.148867 301.200643,180.58318 C301.713248,182.157904 303.027021,183.339538 304.647075,183.682971 C306.267129,184.026403 307.94734,183.47946 309.054789,182.248168 C310.162237,181.016876 310.528676,179.288299 310.01607,177.713575 Z M95.8298898,174.739516 C93.3955769,173.948998 90.781335,175.281557 89.9908173,177.71587 C89.4794419,179.290595 89.8470171,181.018516 90.9550807,182.248742 C92.0631444,183.478968 93.7433552,184.024599 95.3627942,183.680101 C96.9822332,183.335603 98.2948689,182.153313 98.8062443,180.578588 C99.596762,178.144276 98.2642028,175.530034 95.8298898,174.739516 Z M81.6199059,169.727874 C79.2747996,168.827154 76.6388969,169.957569 75.6749311,172.277395 C75.0276947,173.834997 75.2772453,175.621204 76.3265911,176.941777 C77.3759369,178.262351 79.0595759,178.909011 80.7231352,178.630423 C82.3866944,178.351836 83.7677989,177.191939 84.3296602,175.601545 C85.1664721,173.232882 83.9650122,170.628594 81.6199059,169.727874 Z M324.331956,172.27969 C323.398042,169.915717 320.734501,168.744885 318.361315,169.655131 C315.988128,170.565378 314.790739,173.217086 315.677227,175.59925 C316.258609,177.161537 317.634142,178.291297 319.279626,178.557993 C320.925111,178.82469 322.587069,178.187238 323.632149,176.888564 C324.677229,175.58989 324.944442,173.830047 324.331956,172.27969 Z M68.0130854,163.621518 C65.7118989,162.500086 62.9373183,163.456465 61.8158861,165.757652 C61.0904467,167.246258 61.2142752,169.008805 62.1407267,170.381357 C63.0671781,171.75391 64.6555025,172.527944 66.3073933,172.41189 C67.9592842,172.295836 69.42378,171.307324 70.1492195,169.818717 C71.2706517,167.517531 70.3142719,164.74295 68.0130854,163.621518 Z M338.18641,165.75306 C337.064615,163.452918 334.290944,162.497188 331.990358,163.618074 C329.772557,164.784323 328.882347,167.50144 329.980059,169.753951 C331.07777,172.006462 333.766319,172.97955 336.051423,171.951408 C337.15748,171.413631 338.004155,170.457926 338.404681,169.295108 C338.805207,168.132291 338.726675,166.857903 338.18641,165.75306 Z M52.5780443,155.898714 C50.9160731,155.872694 49.3674121,156.738608 48.5192837,158.16812 C47.2006976,160.362171 47.9104023,163.209727 50.1044536,164.528313 C52.298505,165.846899 55.1460603,165.137194 56.4646465,162.943143 C57.3289122,161.52333 57.3667348,159.749428 56.5637725,158.294066 C55.7608102,156.838705 54.2400155,155.924734 52.5780443,155.898714 Z M348.635706,156.059785 C347.443399,155.762247 346.181717,155.950866 345.128558,156.584098 C342.935195,157.901419 342.225012,160.747385 343.542316,162.940759 C344.85962,165.134133 347.70558,165.844338 349.898965,164.527052 C352.092349,163.209765 352.802577,160.36381 351.485308,158.170416 C350.853146,157.116614 349.828014,156.357324 348.635706,156.059785 Z M364.008264,149.35958 C362.482878,147.352506 359.633064,146.932605 357.593612,148.414424 C355.55416,149.896242 355.072997,152.736354 356.51056,154.807239 C357.468415,156.187078 359.09784,156.94071 360.769567,156.777089 C362.441294,156.613468 363.893672,155.558204 364.565807,154.018828 C365.237943,152.479453 365.024636,150.696903 364.008264,149.35958 Z M42.4211258,148.401768 C40.3768537,146.916731 37.519963,147.341617 35.9963269,149.357285 C34.9846274,150.695695 34.7747626,152.476191 35.4475461,154.013149 C36.1203296,155.550107 37.5708246,156.603802 39.2404828,156.768483 C40.910141,156.933164 42.538539,156.183145 43.4986226,154.807239 C44.9445243,152.735101 44.4653979,149.886805 42.4211258,148.401768 Z M31.3142189,138.947515 C29.5323815,137.164429 26.6525191,137.131287 24.8301194,138.872895 C23.6145416,140.034583 23.1230161,141.763254 23.5455353,143.390714 C23.9680545,145.018174 25.2384165,146.289426 26.8655801,146.713085 C28.4927437,147.136744 30.2217586,146.646429 31.3842975,145.431665 C33.1271811,143.610485 33.0960563,140.7306 31.3142189,138.947515 Z M375.179063,138.875191 C374.008272,137.7044 372.301807,137.247154 370.702476,137.675693 C369.103146,138.104232 367.853927,139.353452 367.425387,140.952782 C366.996848,142.552113 367.454094,144.258578 368.624885,145.429369 C370.434772,147.239255 373.369177,147.239255 375.179063,145.429369 C376.98895,143.619483 376.98895,140.685077 375.179063,138.875191 Z M110.35124,75.6015453 L98.1404959,75.6015453 L98.1404959,118.505586 C98.150857,122.663854 99.6049789,126.689467 102.254362,129.894475 C102.814509,131.012473 105.847107,134.919727 108.904959,137.203933 C113.294307,140.477578 117.729568,142.247551 122.001837,142.247551 C131.887052,142.247551 140.309917,134.051959 140.309917,124.045071 L140.309917,81.1433268 L134.756657,75.6015453 L122.552801,75.6015453 L122.552801,118.505586 C122.552801,121.728726 120.075758,124.455999 116.450872,124.455999 L115.918274,124.435338 L115.906795,124.045071 L115.9045,81.1433268 L110.35124,75.6015453 Z M166.108815,74.1782212 C156.225895,74.1782212 147.681359,82.3738134 147.681359,92.3807005 L147.681359,118.50329 C147.681359,122.706688 149.189624,126.590985 151.671258,129.683272 C152.447199,131.033134 155.413223,134.931206 158.448118,137.199341 C162.867309,140.49824 167.153352,142.242959 171.662075,142.242959 C184.079431,142.242959 189.848485,134.894475 189.848485,124.04048 L189.848485,109.410085 L184.295225,103.868304 L167.449495,103.866008 L167.449495,113.287496 L173.002755,118.826981 L173.611111,118.826981 C173.459596,122.938552 170.433884,125.555632 166.108815,125.176844 C165.913682,125.158478 165.72314,125.135521 165.532599,125.101086 C165.470615,124.754438 165.440771,124.400903 165.440771,124.047367 L165.440771,97.9224819 C165.440771,94.3090751 168.016529,91.2007189 171.662075,90.8816188 C172.286622,90.8360054 172.914339,90.8997093 173.516988,91.0698649 C173.581267,91.4922707 173.615702,91.9307464 173.615702,92.3807005 L173.615702,93.6180742 L179.171258,99.1598557 L189.848485,99.1598557 L189.848485,97.9247776 C189.848485,94.0221146 189.102388,90.5739971 187.571166,87.7571927 C186.622918,86.0145274 185.494128,84.3763574 184.203398,82.8696812 C182.552801,80.9436022 180.945822,79.6121055 179.435262,78.4504893 C178.23921,77.5459897 176.923783,76.6988823 175.392562,76.00329 C172.862718,74.818717 169.775023,74.1782212 166.108815,74.1782212 Z M322.821396,75.6015453 L286.209826,75.6015453 L286.209826,86.5955765 L291.765381,92.137358 L298.413682,92.137358 L298.413682,135.394934 L303.969238,140.936715 L316.173095,140.936715 L316.173095,92.137358 L328.376951,92.137358 L328.376951,81.1433268 L322.821396,75.6015453 Z M278.158861,75.6015453 L241.549587,75.6015453 L241.549587,86.5955765 L247.100551,92.137358 L253.751148,92.137358 L253.751148,135.394934 L259.306703,140.936715 L271.51056,140.936715 L271.51056,92.137358 L283.714417,92.137358 L283.714417,81.1433268 L278.158861,75.6015453 Z M69.7773186,75.6015453 L49.9426079,75.6015453 L49.9426079,135.282445 L55.4981635,140.824227 L76.8549128,140.824227 C85.9779614,140.824227 92.1120294,131.223676 92.1120294,123.549204 C92.1120294,117.991352 90.1262626,114.065733 87.3875115,111.503749 L84.9724518,109.088689 C88.5009183,106.55655 90.5876951,100.776017 90.5876951,96.8481018 C90.5876951,94.019819 89.6579431,90.5556316 87.6629936,87.6010862 C86.9972452,86.613942 86.0445363,85.385751 84.8829201,84.0726197 C83.546832,82.5620595 82.0707071,81.2099016 81.2144169,80.4316647 C80.748393,80.0069631 79.5454545,78.8200944 77.6515152,77.7273488 C75.5280073,76.4165132 72.9178145,75.6015453 69.7773186,75.6015453 Z M344.423783,75.6015453 L332.219927,75.6015453 L332.219927,135.282445 L337.775482,140.824227 L349.979339,140.824227 L349.979339,81.1433268 L344.423783,75.6015453 Z M225.3191,75.6015453 L208.535354,75.6015453 L193.278237,135.282445 L198.833792,140.824227 L211.489899,140.824227 L213.978421,129.830195 L225.376492,129.830195 L226.480716,135.282445 L232.036272,140.824227 L245.096419,140.824227 L230.870064,81.1433268 L225.3191,75.6015453 Z M384.460514,126.705769 C382.364689,125.330827 379.555615,125.870166 378.118019,127.92352 C376.680423,129.976875 377.134698,132.800953 379.14371,134.299892 C380.498349,135.3106 382.295594,135.504261 383.834453,134.805343 C385.373313,134.106424 386.410052,132.625625 386.540303,130.94051 C386.670555,129.255396 385.87369,127.632867 384.460514,126.705769 Z M21.8888679,127.92352 C20.4512716,125.870166 17.6421977,125.330827 15.5463728,126.705769 C14.1331972,127.632867 13.3363319,129.255396 13.4665837,130.94051 C13.5968355,132.625625 14.6335743,134.106424 16.1724337,134.805343 C17.7112932,135.504261 19.5085383,135.3106 20.8631772,134.299892 C22.8721887,132.800953 23.3264643,129.976875 21.8888679,127.92352 Z M166.104224,75.9114627 C177.275023,75.9114627 182.389807,82.1649062 182.557392,91.8871284 L175.33517,91.8871284 C175.10101,86.9009025 171.310836,83.1451633 165.952709,83.6157785 C161.336088,84.0221146 158.151974,87.9018208 158.151974,92.3807005 L158.151974,118.510177 C158.151974,122.601086 161.382002,126.501453 165.952709,126.903198 C171.359045,127.378405 175.344353,123.861417 175.344353,118.505586 L175.344353,111.561141 L169.175849,111.561141 L169.175849,105.603841 L182.559688,105.606137 L182.559688,118.505586 C182.559688,128.512473 177.463269,134.981711 166.104224,134.981711 C157.144169,134.981711 149.410009,127.523033 149.410009,118.505586 L149.410009,92.3829962 C149.410009,83.365549 157.141873,75.9114627 166.104224,75.9114627 Z M108.617998,77.3347868 L108.620294,118.505586 C108.620294,122.667661 111.852617,126.186945 116.453168,126.186945 C121.051423,126.186945 124.286042,122.665365 124.286042,118.505586 L124.286042,77.3347868 L133.028007,77.3347868 L133.028007,118.505586 C133.028007,127.536807 125.401745,134.977119 116.453168,134.977119 C107.504591,134.977119 99.8760331,127.536807 99.8760331,118.505586 L99.8760331,77.3347868 L108.617998,77.3347868 Z M321.09045,77.3347868 L321.09045,84.8646307 L308.886593,84.8646307 L308.886593,133.663988 L300.142332,133.663988 L300.142332,84.8646307 L287.938476,84.8646307 L287.938476,77.3347868 L321.09045,77.3347868 Z M276.427916,77.3347868 L276.427916,84.8646307 L264.224059,84.8646307 L264.224059,133.663988 L255.482094,133.663988 L255.482094,84.8646307 L243.278237,84.8646307 L243.278237,77.3347868 L276.427916,77.3347868 Z M342.692837,77.3347868 L342.692837,133.551499 L333.948577,133.551499 L333.948577,77.3347868 L342.692837,77.3347868 Z M223.937098,77.3347868 L236.873278,133.551499 L227.897153,133.551499 L225.668044,122.557468 L207.038567,122.557468 L204.554637,133.551499 L195.509642,133.551499 L209.880624,77.3347868 L223.937098,77.3347868 Z M69.7773186,77.3324911 C79.1414141,77.3324911 83.3011938,85.5762928 83.3011938,91.3063203 C83.3011938,95.0666509 81.1501377,100.491352 78.030303,102.389883 L75.4660239,103.953244 L78.1014692,105.392638 C81.6735537,107.337082 84.8278237,111.262702 84.8278237,118.005127 C84.8278237,125.11486 79.120753,133.551499 71.3016529,133.549204 L51.6758494,133.549204 L51.6758494,77.3324911 Z M68.2529844,106.850397 L60.4201102,106.850397 L60.4201102,127.591903 L68.2529844,127.591903 C73.6937557,127.591903 76.0858586,121.802188 76.0858586,117.222298 C76.0858586,112.118993 72.8512397,106.850397 68.2529844,106.850397 Z M73.9187328,114.123125 C74.1988062,115.087312 74.3549128,116.131848 74.3549128,117.220003 C74.3549128,121.602464 72.1258035,125.858662 68.2529844,125.858662 L67.7043159,125.858662 L67.7043159,114.123125 Z M390.40404,112.601086 C387.99275,111.798853 385.385134,113.087799 384.558149,115.490713 C383.731164,117.893626 384.993228,120.514359 387.387511,121.366008 C388.958373,121.924765 390.708298,121.596775 391.970186,120.507071 C393.232075,119.417368 393.811462,117.733882 393.487476,116.098386 C393.163491,114.462889 391.98606,113.127422 390.40404,112.601086 Z M14.1832257,113.460023 C12.9213373,112.370319 11.1714125,112.042329 9.60055096,112.601086 C8.03484846,113.139937 6.87555327,114.473148 6.55936066,116.098512 C6.24316806,117.723876 6.81811522,119.39446 8.06762512,120.480973 C9.31713503,121.567486 11.0513774,121.904859 12.6170799,121.366008 C14.1990996,120.839672 15.37653,119.504205 15.7005157,117.868709 C16.0245014,116.233212 15.4451141,114.549726 14.1832257,113.460023 Z M215.078053,86.9973212 L208.624885,115.548745 L224.247016,115.548745 L218.461892,87.0363479 L215.078053,86.9973212 Z M219.981635,103.25306 L222.125803,113.820094 L217.596419,113.820094 L219.981635,103.25306 Z M8.45832094,97.355155 L8.24609734,97.3577437 C6.59099642,97.4151555 5.09224894,98.351192 4.31441858,99.8132574 C3.53658822,101.275323 3.59784591,103.041294 4.47511647,104.445948 C5.35238703,105.850601 6.91239219,106.680537 8.56749311,106.623125 C11.1260574,106.534374 13.1282368,104.388301 13.0394858,101.829736 C12.9507348,99.271172 10.8046617,97.2689927 8.24609734,97.3577437 Z M391.763085,97.3577437 C389.205789,97.2689928 387.060744,99.2701443 386.971993,101.827441 C386.883242,104.384737 388.884393,106.529782 391.44169,106.618533 C393.09597,106.675945 394.655218,105.846448 395.532078,104.442504 C396.408939,103.038561 396.470197,101.273465 395.692776,99.8121095 C394.915356,98.3507544 393.417366,97.4151554 391.763085,97.3577437 Z M66.7286501,83.2943828 L60.4201102,83.2943828 L60.4201102,100.890802 L66.7286501,100.890802 C71.7998163,100.890802 74.5615243,97.1649062 74.5615243,92.0914443 C74.5615243,86.4922707 70.9090909,83.2943828 66.7286501,83.2943828 Z M72.28191,90.5648144 L72.7203857,90.5808841 C72.7915519,91.0537951 72.8282828,91.5588456 72.8282828,92.0914443 C72.8282828,96.090526 70.9710744,98.6754663 67.7043159,99.0978722 L67.7043159,90.5648144 L72.28191,90.5648144 Z M12.6239669,82.6148603 C11.0574443,82.0755992 9.32222526,82.4130313 8.07195013,83.5000492 C6.82167501,84.5870671 6.24629029,86.2585269 6.56253783,87.8848059 C6.87878537,89.5110848 8.03861966,90.8451125 9.60514233,91.3843736 C12.0267766,92.217999 14.6656859,90.9306635 15.4993113,88.5090292 C16.3329367,86.087395 15.0456012,83.4484857 12.6239669,82.6148603 Z M391.932375,83.4998954 C390.682865,82.4133828 388.948623,82.0760093 387.38292,82.6148603 C384.962554,83.4478517 383.675732,86.0852193 384.508724,88.5055857 C385.341715,90.9259521 387.979083,92.2127737 390.399449,91.3797822 C391.965152,90.8409312 393.124447,89.50772 393.440639,87.8823564 C393.756832,86.2569928 393.181885,84.5864081 391.932375,83.4998954 Z M20.8700643,69.680976 C18.7742394,68.306034 15.9651655,68.8453726 14.5275692,70.898727 C13.0899728,72.9520813 13.5442484,75.7761592 15.5532599,77.275099 C16.9078988,78.2858062 18.7051439,78.4794681 20.2440034,77.7805495 C21.7828628,77.0816309 22.8196016,75.6008313 22.9498534,73.915717 C23.0801052,72.2306028 22.2832399,70.6080737 20.8700643,69.680976 Z M383.827566,69.1755255 C382.288707,68.4766069 380.491462,68.6702688 379.136823,69.680976 C377.127811,71.1799158 376.673536,74.0039937 378.111132,76.057348 C379.548728,78.1107024 382.357802,78.650041 384.453627,77.275099 C385.866803,76.3480013 386.663668,74.7254722 386.533416,73.040358 C386.403165,71.3552437 385.366426,69.8744441 383.827566,69.1755255 Z M31.3888889,58.5514994 C29.5783686,56.7409793 26.6429354,56.7409793 24.8324152,58.5514995 C23.021895,60.3620197 23.0218949,63.2974529 24.8324151,65.1079732 C26.0036163,66.2791745 27.7106793,66.7365808 29.31057,66.3078914 C30.9104607,65.879202 32.1601176,64.6295451 32.588807,63.0296544 C33.0174964,61.4297637 32.5600902,59.7227006 31.3888889,58.5514994 Z M375.168757,58.5532091 C373.360148,56.7441287 370.42755,56.7433633 368.617998,58.5514994 C367.748416,59.4204014 367.259832,60.5992941 367.259832,61.8285885 C367.259832,63.0578829 367.748416,64.2367755 368.617998,65.1056775 C370.42755,66.9138136 373.360148,66.9130482 375.168757,65.1039679 C376.977365,63.2948875 376.977365,60.3622894 375.168757,58.5532091 Z M213.347107,27.8214718 L175.33517,27.8214718 L175.33517,36.8205536 L181.333792,36.8205536 L181.333792,33.8200944 L195.759871,33.8200944 L195.759871,42.275099 L190.03214,42.275099 L190.03214,39.9105444 L184.035813,39.9105444 L184.035813,51.7264305 L190.03214,51.7264305 L190.03214,49.3664673 L195.759871,49.3664673 L195.759871,58.9096261 L181.333792,58.9096261 L181.333792,55.909167 L175.33517,55.909167 L175.33517,64.9082487 L213.344812,64.9082487 C217.895766,64.9077886 222.003774,62.1814853 223.772088,57.9881277 C225.540401,53.7947701 224.625013,48.9501307 221.448577,45.691077 C224.232474,42.5106399 224.899456,37.9961287 223.154186,34.1465445 C221.408916,30.2969602 217.573839,27.8235286 213.347107,27.8214718 Z M213.344812,49.3618759 C216.331497,49.3618759 218.119835,51.4991578 218.119835,54.1346032 C218.119835,56.7700485 216.331497,58.9073304 213.344812,58.9073304 L203.663912,58.9050347 L203.663912,49.3618759 Z M43.4986226,49.1736298 C41.9597617,47.2097768 39.1429088,46.8154845 37.1239718,48.2813304 C35.1050347,49.7471764 34.6077615,52.5476846 35.9986226,54.6189925 C36.9448147,56.0280873 38.5852295,56.8076764 40.2753243,56.6514477 C41.9654191,56.495219 43.4351317,55.4281366 44.1069906,53.8694726 C44.7788496,52.3108087 44.5454978,50.5096238 43.4986226,49.1736298 Z M360.763573,47.2130595 C359.09493,47.0487967 357.46767,47.7985327 356.508264,49.1736298 C355.062987,51.2451167 355.542402,54.0924213 357.586332,55.5764135 C359.630262,57.0604057 362.486082,56.6346426 364.008264,54.6189925 C365.018721,53.2809611 365.22776,51.5015277 364.554904,49.9657491 C363.882048,48.4299705 362.432216,47.3773224 360.763573,47.2130595 Z M56.4669421,41.0377253 C55.1319731,38.880029 52.3107838,38.195834 50.135693,39.5022703 C47.9606022,40.8087065 47.2393112,43.6206402 48.5169881,45.8127482 C49.3585885,47.2566807 50.912062,48.1360434 52.5832195,48.1144883 C54.2543771,48.0929333 55.784653,47.1737955 56.5887312,45.7086367 C57.3928093,44.2434778 57.3462807,42.4589908 56.4669421,41.0377253 Z M347.615126,38.6909702 C345.931421,38.6753704 344.371553,39.5736444 343.539945,41.0377253 C342.296847,43.226252 343.026457,46.0068372 345.183938,47.3030704 C347.341418,48.5993036 350.13901,47.9378927 351.487603,45.8127482 C352.389785,44.3910688 352.450463,42.5920681 351.646125,41.11283 C350.841788,39.6335918 349.298831,38.7065699 347.615126,38.6909702 Z M213.344812,33.8223901 C215.97337,33.8223901 217.573462,35.7163295 217.573462,38.0487446 C217.573462,40.3811596 215.97337,42.275099 213.344812,42.275099 L203.663912,42.2773947 L203.663912,33.8223901 Z M70.1492195,34.1621514 C68.9877074,31.93421 66.263152,31.0365452 64.0047853,32.1377323 C61.7464186,33.2389194 60.7758203,35.9383533 61.8158861,38.2255122 C62.5140051,39.7607124 63.9905502,40.7958743 65.6717845,40.9287681 C67.3530189,41.061662 68.9738605,40.2713342 69.9045037,38.8648803 C70.835147,37.4584263 70.9288563,35.6576031 70.1492195,34.1621514 Z M333.931038,31.5588196 L333.69563,31.5693986 C332.044299,31.6856031 330.580401,32.6739548 329.855372,34.1621514 C328.734574,36.4627039 329.690953,39.2362567 331.991506,40.3570549 C334.292058,41.4778532 337.065611,40.5214734 338.18641,38.2209209 C338.911439,36.7327243 338.78745,34.9707755 337.861149,33.5987834 C336.934848,32.2267913 335.346961,31.4531942 333.69563,31.5693986 Z M84.3273646,28.3770274 C83.3633988,26.057202 80.7274961,24.9267871 78.3823898,25.827507 C76.0372834,26.7282269 74.8358235,29.3325147 75.6726354,31.701178 C76.2344968,33.2915717 77.6156012,34.4514685 79.2791605,34.7300561 C80.9427198,35.0086436 82.6263588,34.3619833 83.6757046,33.04141 C84.7250503,31.7208366 84.9746009,29.9346299 84.3273646,28.3770274 Z M323.682592,27.0367954 C322.633246,25.7162221 320.949607,25.0695618 319.286048,25.3481493 C317.622488,25.6267369 316.241384,26.7866337 315.679522,28.3770274 C314.842711,30.7456907 316.044171,33.3499785 318.389277,34.2506984 C320.734383,35.1514183 323.370286,34.0210034 324.334252,31.701178 C324.981488,30.1435755 324.731937,28.3573688 323.682592,27.0367954 Z M98.8039486,23.4022799 C98.0121628,20.968601 95.3974072,19.6375836 92.9637283,20.4293692 C90.5300493,21.2211548 89.1990318,23.8359104 89.9908173,26.2695894 C90.5030127,27.8439037 91.8161876,29.0253771 93.4356815,29.36896 C95.0551755,29.7125429 96.7349489,29.1660367 97.8422473,27.9353052 C98.9495457,26.7045737 99.3161442,24.9765942 98.8039486,23.4022799 Z M309.112016,21.6602577 C307.996465,20.4018177 306.287032,19.8459515 304.644672,20.2075861 C303.002313,20.5692208 301.684452,21.7916736 301.200643,23.4022799 C300.475575,25.8160392 301.811081,28.3669911 304.207857,29.1463644 C306.604633,29.9257377 309.185084,28.6481599 310.018365,26.2695894 C310.574382,24.6824631 310.227566,22.9186977 309.112016,21.6602577 Z M113.553719,19.2907097 C112.838619,16.882031 110.335304,15.4810159 107.908287,16.1311651 C105.481271,16.7813142 104.013527,19.246097 104.598255,21.6896996 C104.990724,23.3298419 106.242673,24.62762 107.867652,25.0787772 C109.492631,25.5299343 111.234438,25.0633389 112.416288,23.8602885 C113.598137,22.6572381 114.033693,20.9074111 113.553719,19.2907097 Z M294.212269,17.2145719 C293.041178,16.0426617 291.333839,15.5845417 289.733389,16.0127812 C288.13294,16.4410207 286.882526,17.69056 286.453168,19.2907097 C285.789438,21.7643266 287.25664,24.3076492 289.730257,24.9713798 C292.203874,25.6351104 294.747197,24.1679078 295.410927,21.6942909 C295.840286,20.0941413 295.38336,18.386482 294.212269,17.2145719 Z M128.500918,15.9688548 C127.952693,13.4819927 125.50163,11.9025066 123.010446,12.4307484 C120.519263,12.9589902 118.92015,15.3972942 119.428375,17.8926381 C119.760784,19.524743 120.942961,20.8532093 122.525414,21.3729245 C124.107867,21.8926396 125.847492,21.5237618 127.082843,20.4065465 C128.318194,19.2893313 128.85949,17.5954121 128.500918,15.9688548 Z M279.201569,13.3866337 C277.957732,12.2446719 276.191484,11.8690647 274.5906,12.4060733 C272.989716,12.9430819 271.807258,14.307818 271.503673,15.9688548 C271.05255,18.4371315 272.646523,20.8165212 275.100804,21.3384444 C277.555086,21.8603675 279.979333,20.3354854 280.571625,17.8972294 C280.970211,16.2563952 280.445405,14.5285955 279.201569,13.3866337 Z M143.59045,13.3770274 C143.165924,10.8723113 140.804285,9.17607484 138.29516,9.57370959 C135.786034,9.97134434 134.064563,12.3146533 134.435262,14.8278998 C134.678621,16.4778171 135.789627,17.8697817 137.34453,18.4728816 C138.899432,19.0759815 140.658463,18.7972183 141.950708,17.7429155 C143.242953,16.6886127 143.869146,15.0213447 143.59045,13.3770274 Z M263.931884,10.4620117 C262.639639,9.4077089 260.880607,9.12894565 259.325705,9.73204555 C257.770803,10.3351455 256.659796,11.72711 256.416437,13.3770274 C256.045739,15.8902738 257.767209,18.2335828 260.276335,18.6312176 C262.785461,19.0288523 265.1471,17.3326159 265.571625,14.8278998 C265.850321,13.1835824 265.224128,11.5163144 263.931884,10.4620117 Z M248.630414,8.25103789 C247.307579,7.25337754 245.552984,7.0372254 244.027567,7.68400389 C242.502151,8.33078239 241.43766,9.74223047 241.235078,11.3866693 C240.921914,13.9287512 242.728809,16.2433854 245.270891,16.5565496 C247.812973,16.8697138 250.127607,15.0628191 250.440771,12.5207372 C250.643353,10.8762984 249.953249,9.24869824 248.630414,8.25103789 Z M153.600781,7.34970891 C151.058699,7.66223919 149.25129,9.97635958 149.56382,12.5184415 C149.765992,14.1628803 150.830104,15.5745471 152.355315,16.2216807 C153.880527,16.8688143 155.635122,16.6530998 156.958162,15.6557946 C158.281202,14.6584894 158.971685,13.031108 158.769513,11.3866693 C158.456983,8.84458733 156.142863,7.03717864 153.600781,7.34970891 Z M169.09183,5.93847725 C166.581093,6.11358701 164.668369,8.25944755 164.78191,10.7737216 C164.857872,12.4558425 165.839686,13.9646096 167.346891,14.7153647 C168.854096,15.4661199 170.649828,15.3408777 172.038226,14.3881706 C173.426624,13.4354635 174.189496,11.8050145 174.031221,10.1286344 C173.794648,7.62294112 171.602568,5.76336749 169.09183,5.93847725 Z M233.204725,6.57859651 C231.826936,5.64351129 230.053433,5.51934851 228.558792,6.25333507 C227.064151,6.98732163 226.078089,8.46664826 225.975666,10.1286344 C225.819139,12.6685525 227.73965,14.8596798 230.278173,15.0374016 C232.816696,15.2151234 235.023777,13.3129685 235.222681,10.7760173 C235.352834,9.11597251 234.582515,7.51368174 233.204725,6.57859651 Z M184.750194,5.06531749 L184.536103,5.06788212 C182.026898,5.15492094 180.042687,7.22312029 180.059688,9.73377671 C180.071115,11.4213363 180.998416,12.9694638 182.480856,13.7759126 C183.963296,14.5823613 185.766813,14.5198013 187.189809,13.6125693 C188.612805,12.7053374 189.430604,11.0966761 189.325069,9.41238093 C189.177032,7.04976967 187.281489,5.2028217 184.962172,5.07241085 L184.750194,5.06531749 Z M217.768034,5.63795654 C216.362971,4.76139627 214.596999,4.70101369 213.135344,5.47955434 C211.673689,6.25809499 210.73841,7.75728001 210.681818,9.41238093 C210.594335,11.9709453 212.597542,14.1159906 215.156107,14.2034737 C217.714671,14.2909568 219.859716,12.2877497 219.947199,9.72918534 C220.003791,8.07408442 219.173098,6.51451682 217.768034,5.63795654 Z M199.997704,4.79243862 C197.493406,4.79243862 195.441508,6.78076446 195.362718,9.28382262 C195.309499,10.974531 196.181098,12.560092 197.637068,13.4211837 C199.093037,14.2822754 200.902371,14.2822754 202.358341,13.4211837 C203.814311,12.560092 204.68591,10.974531 204.632691,9.28382262 C204.5539,6.78076446 202.502002,4.79243862 199.997704,4.79243862 Z" id="bugatti" fill="#FFFFFF"></path>
</svg>