<?xml version="1.0" encoding="UTF-8"?>
<svg width="400px" height="386px" viewBox="0 0 400 386" version="1.1" xmlns="http://www.w3.org/2000/svg">
    <title>cadillac</title>
    <g id="cadillac" transform="translate(0, 0.0008)" fill-rule="nonzero">
        <path d="M278.662577,80.1280016 C277.534174,71.3658372 270.089742,64.5474545 261.017078,64.5474545 C256.08827,64.5508791 251.379218,66.5875717 248.001313,70.1768486 C245.8381,62.5013416 238.827613,57.2060657 230.853118,57.2241935 C224.938767,57.2308994 219.409596,60.1589416 216.080377,65.0472841 C213.26568,58.9761215 207.131407,54.7225211 200,54.7225211 C192.866068,54.7225211 186.671211,58.9786459 183.853989,65.1103939 C180.553879,60.1842021 175.015722,57.2267314 169.086296,57.2241935 C160.889596,57.2241935 154.003055,62.7298923 151.940626,70.1768486 C148.579353,66.6012463 143.895391,64.5655349 138.987971,64.5474545 C129.849672,64.5474545 122.342131,71.4314714 121.276837,80.317331 C118.272811,77.876244 114.45593,76.5004504 110.262915,76.5004504 C105.548304,76.4970993 101.025791,78.3683146 97.6918194,81.7018125 C94.357848,85.0353104 92.4859903,89.5575576 92.4886718,94.2721696 C92.4886718,102.345175 97.8706754,109.166082 105.254522,111.357254 L105.254522,127.19024 L72.3389753,127.19024 L104.128643,160.918641 L104.128643,244.837002 C104.128643,258.978646 109.447537,269.305933 127.532281,271.560215 C144.80417,273.748863 164.890757,275.874401 174.152751,276.939695 C186.292552,278.315488 192.926654,280.256746 199.934366,290.331594 C206.881492,280.25927 213.452485,278.315488 225.592285,276.939695 C234.914865,275.874401 254.938342,273.748863 272.210231,271.560215 C290.358085,269.305933 295.679503,258.978646 295.679503,244.837002 L295.679503,161.042336 L327.156146,127.185192 L294.556149,127.185192 L294.556149,111.29162 C301.876885,109.100448 307.256365,102.279541 307.256365,94.2696452 C307.256365,84.4447118 299.309579,76.4348162 289.48717,76.4348162 C285.422899,76.4348162 281.664079,77.8131342 278.662577,80.1280016 L278.662577,80.1280016 Z M205.884358,351.530428 C217.14567,362.920484 226.157749,365.548376 232.228912,365.798291 C237.045452,366.05073 241.680235,365.921986 246.807275,364.798632 C259.44943,362.041996 269.398059,355.849662 279.727871,354.473869 C258.197332,346.527083 238.736794,344.83574 227.036238,349.465475 C222.588259,351.156818 222.530198,348.342121 225.092456,346.966327 C238.236965,340.077261 247.62013,332.56972 256.755904,316.736733 C245.557701,323.37336 237.858306,322.055627 228.848751,327.939985 C220.089111,333.632489 216.143486,344.272801 205.884358,351.530428 L205.884358,351.530428 Z M189.988262,367.800134 C185.419112,367.237194 181.352317,367.547694 178.97434,368.173744 C165.70866,371.61449 146.495513,379.000861 127.408585,379.503215 C130.352026,383.44379 131.225466,384.506559 132.16454,385.132609 C133.040504,385.821768 134.292602,385.758658 135.355371,385.571853 C156.509776,381.570692 172.027213,372.932222 189.988262,367.800134 L189.988262,367.800134 Z" id="Shape" fill="#FFFFFF"></path>
        <path d="M257.071453,343.020702 C269.647974,341.521213 285.17046,356.102101 303.752509,343.523056 C306.193596,341.894823 314.642735,337.888613 318.96197,335.386941 C311.762404,336.01299 301.626971,333.948038 288.674316,335.510636 C279.475431,336.57593 267.83546,338.201638 257.071453,343.020702 Z M247.811983,340.203481 C267.956631,335.321307 286.107009,318.799162 292.117586,301.969041 C282.413824,308.853057 277.034344,306.851215 264.955129,318.112527 C260.577833,322.118737 255.445745,334.321648 247.811983,340.203481 L247.811983,340.203481 Z M119.588019,15.9832025 C124.843803,15.9832025 130.039002,15.7332877 134.105797,15.0441287 C147.621392,12.7292613 156.133641,4.03020664 161.389425,0.400131031 C139.424691,-1.84910219 128.034635,5.66096383 119.588019,15.9832025 L119.588019,15.9832025 Z M100.061848,32.2554329 C104.378558,32.5684575 108.634683,32.6946771 111.949209,32.3185427 C123.152461,31.1295541 131.662186,24.8084767 135.102932,21.6807551 C120.900703,19.0503387 108.258548,23.4326831 100.061848,32.2554329 L100.061848,32.2554329 Z M56.4454037,58.0370477 C57.1951481,57.0979739 63.0163959,51.9684095 66.3334469,49.1511881 C78.1602232,39.1394497 82.4794578,26.9365391 84.5444104,21.9281455 C67.1463011,30.1273705 59.4469057,41.7673417 56.4454037,58.0370477 Z M72.7782195,49.6510177 C76.9081248,49.6510177 80.9774446,49.4642127 84.168276,48.9012733 C94.8060636,47.0231257 102.566044,40.3890237 105.633181,37.1981923 C91.865147,35.6355937 80.7881152,39.8891941 72.7782195,49.6510177 Z M50.7503755,75.4982668 C54.7565855,73.5570094 58.5103563,73.1202896 61.9536269,71.931301 C73.4042687,68.1144204 80.6013102,59.9151953 85.5440696,55.4722655 C66.3940323,56.1589001 58.7602711,62.1063675 50.7503755,75.4982668 Z M87.7352418,32.0055181 C105.133351,26.4998193 111.891148,17.4246303 118.89886,4.34575563 C99.9987378,10.4143938 93.3040504,17.2353009 87.7352418,32.0055181 Z M23.3405279,152.217062 C23.9665771,151.404208 26.0315297,147.400522 28.4726167,144.393972 C36.7955369,134.195428 42.6773701,120.927224 45.6813965,109.976412 C31.1005087,118.425552 21.9647342,131.378207 23.3405279,152.217062 L23.3405279,152.217062 Z M30.7268987,247.212455 C26.0946395,231.445103 14.0810582,216.427495 0,203.656597 C0.562939402,205.534744 1.751928,210.666833 2.441087,215.859507 C4.62973481,233.696861 23.1537228,241.078183 30.7268987,247.212455 Z M78.410138,298.649465 C76.0321608,293.64612 74.0909034,283.760602 69.7741931,275.495742 C65.0813485,266.609883 61.2013581,263.790137 56.0692693,255.782766 C52.4391937,277.189609 67.7698259,290.205374 78.410138,298.649465 Z M112.514673,322.371176 C107.198304,316.862953 102.68974,303.407944 97.5601752,298.023416 C88.0482664,287.885458 85.7939844,289.016386 78.036528,279.691282 C81.913994,300.406442 93.1778308,315.108501 112.514673,322.371176 Z M51.0634001,281.190771 C43.3665291,266.296858 27.9096773,253.783447 11.3269466,243.645489 C12.2660204,245.460527 15.1438272,250.716311 17.2718896,255.661595 C23.1537228,268.92475 37.2953665,276.374231 51.0634001,281.190771 Z M109.386951,329.255193 C88.0482664,314.171951 66.1441175,313.861451 52.8153281,310.983644 C54.4435609,312.172633 59.1364055,316.239428 63.1426155,319.80387 C76.5319904,331.754341 93.9300996,326.188057 109.386951,329.255193 Z M81.7902988,309.915826 C65.7705075,291.702339 45.1184571,285.38631 32.3551315,281.319515 C33.6703397,282.753369 37.1716713,287.887982 40.2388075,291.891668 C52.2523887,307.598435 71.2130965,305.849031 81.7902988,309.915826 L81.7902988,309.915826 Z M50.3111313,268.111896 C49.8744115,263.610905 48.7460083,259.291671 48.9959231,254.972436 C50.1218019,235.698703 39.7339291,228.688467 38.2950257,218.616143 C33.8546203,234.63341 36.0432681,249.024969 50.3111313,268.111896 Z M29.9746299,229.81687 C30.5400937,224.619147 30.9137037,220.118156 31.9158873,215.922617 C35.2960481,202.030888 33.1048759,194.583932 32.2289119,181.441948 C20.1496964,199.652911 21.5280144,213.357835 29.9746299,229.81687 L29.9746299,229.81687 Z M16.7089502,212.921115 C16.5196208,195.523006 12.952655,175.936249 0.0605854065,159.416628 C2.12553801,173.247771 -4.3823444,190.393441 8.00737122,202.593828 C10.7614828,205.282305 14.015424,210.103894 16.7089502,212.921115 Z M20.649526,186.574036 C21.2755752,185.698072 23.2143083,181.631277 25.7185051,178.687836 C36.9217565,165.732657 35.1673041,154.595039 38.9235993,143.581117 C27.1574085,154.721259 19.1475128,163.796448 20.649526,186.574036 Z M19.2106226,131.443841 C27.2205183,114.298171 31.1005087,99.904088 27.4704331,82.1298444 C24.1533821,90.3290694 15.8935716,99.401734 15.8329862,111.541535 C15.8329862,117.173453 19.4605374,130.252328 19.2106226,131.443841 Z M13.9548386,171.553904 C16.643316,152.153952 20.0234768,142.142214 10.8245926,119.74076 C8.69653022,129.689388 -0.628573592,145.711704 7.69687102,161.105446 C9.82240903,165.046022 13.0763502,168.612988 13.9548386,171.553904 Z M32.7893269,109.602802 C33.6652909,108.789948 39.9863683,104.283908 43.5533341,101.905931 C56.3822939,93.2094006 62.0142123,81.5063196 64.6421043,76.7503652 C46.4336653,83.0058084 37.5452813,93.7698156 32.7893269,109.602802 L32.7893269,109.602802 Z M33.5415957,91.6417532 C43.2403095,80.001782 50.1874361,63.0429169 50.5004607,47.9621995 C48.0593737,51.7159703 43.8663587,55.3460459 40.9885519,58.8499019 C38.1082207,62.353758 33.1023515,69.6139092 32.6656317,80.3148066 C32.5394121,84.3210166 33.9783155,87.3881528 33.5415957,91.6417532 L33.5415957,91.6417532 Z M280.411981,15.9832025 C271.965365,5.65843944 260.577833,-1.84910219 238.610575,0.402655423 C243.866359,4.03273103 252.376084,12.7292613 265.896727,15.046653 C269.900413,15.7332877 275.156197,15.9832025 280.411981,15.9832025 Z M299.877567,32.2554329 C291.678342,23.4326831 279.101821,19.0528631 264.892019,21.6807551 C268.274704,24.8110011 276.847539,31.1295541 287.985157,32.3185427 C291.362793,32.6946771 295.618918,32.5684575 299.877567,32.2554329 L299.877567,32.2554329 Z M343.494011,58.0370477 C340.492509,41.7673417 332.853699,30.1273705 315.395004,21.9281455 C317.525591,26.9340147 321.839777,39.1369253 333.666553,49.1511881 C336.920494,51.9684095 342.744266,57.0979739 343.494011,58.0370477 Z M327.22178,49.6510177 C319.20936,39.8891941 308.134853,35.6330693 294.364295,37.1981923 C297.431431,40.3915481 305.191412,47.0231257 315.831724,48.9012733 C319.022555,49.4642127 323.089351,49.6510177 327.22178,49.6510177 Z M349.186515,75.4982668 C341.174095,62.1063675 333.605968,56.1614245 314.45593,55.4722655 C319.396165,59.9151953 326.530097,68.111896 338.048897,71.931301 C341.492168,73.1177652 345.243414,73.5570094 349.186515,75.4982668 L349.186515,75.4982668 Z M312.267283,32.0055181 C306.69595,17.2378253 300.001262,10.4169182 281.10114,4.34575563 C288.108852,17.4246303 294.869173,26.4972949 312.267283,32.0055181 Z M376.596362,152.217062 C377.972156,131.378207 368.836382,118.425552 354.255494,109.978936 C357.256996,120.929748 363.204463,134.197952 371.527383,144.396496 C373.96847,147.400522 376.033423,151.404208 376.596362,152.217062 L376.596362,152.217062 Z M369.209992,247.212455 C376.846277,241.078183 395.307155,233.696861 397.558913,215.859507 C398.184962,210.666833 399.437061,205.534744 400,203.656597 C385.918942,216.424971 373.902836,231.442579 369.209992,247.212455 Z M321.592386,298.649465 C332.167064,290.20285 347.560806,277.187085 343.867621,255.78529 C338.798642,263.792661 334.855542,266.612407 330.225807,275.498267 C325.845987,283.760602 323.967839,293.64612 321.592386,298.649465 L321.592386,298.649465 Z M287.482803,322.371176 C306.761584,315.108501 318.086006,300.406442 321.965996,279.693806 C314.206016,289.016386 311.951734,287.887982 302.376715,298.02594 C297.31026,303.407944 292.801696,316.862953 287.482803,322.371176 Z M348.9366,281.190771 C362.707158,276.374231 376.848802,268.92475 382.665001,255.661595 C384.858697,250.716311 387.673394,245.460527 388.609944,243.645489 C372.090323,253.783447 356.633471,266.296858 348.9366,281.190771 L348.9366,281.190771 Z M290.613049,329.255193 C306.0699,326.188057 323.465485,331.754341 336.796799,319.80387 C340.800485,316.239428 345.558963,312.172633 347.184672,310.983644 C333.795297,313.861451 311.951734,314.171951 290.613049,329.255193 L290.613049,329.255193 Z M318.209701,309.915826 C328.784379,305.849031 347.747611,307.598435 359.763717,291.889144 C362.830853,287.885458 366.337234,282.753369 367.647393,281.31699 C354.881543,285.388834 334.168907,291.704863 318.209701,309.915826 L318.209701,309.915826 Z M349.625759,268.111896 C363.893622,249.024969 366.142855,234.63341 361.699926,218.616143 C360.200437,228.688467 349.875674,235.701228 351.001553,254.972436 C351.253992,259.291671 350.123064,263.610905 349.625759,268.111896 Z M369.964785,229.81687 C378.47451,213.357835 379.850304,199.652911 367.776137,181.441948 C366.897649,194.583932 364.709001,202.030888 368.023527,215.922617 C369.023187,220.118156 369.462431,224.619147 369.964785,229.81687 L369.964785,229.81687 Z M383.29105,212.921115 C385.918942,210.106418 389.172883,205.284829 391.992629,202.593828 C404.377296,190.393441 397.811352,173.245247 399.934366,159.416628 C386.984235,175.936249 383.477855,195.523006 383.29105,212.921115 Z M379.352998,186.574036 C380.852487,163.796448 372.845116,154.721259 361.08145,143.581117 C364.832696,154.595039 363.083292,165.732657 374.22091,178.687836 C376.720058,181.631277 378.726949,185.698072 379.352998,186.574036 L379.352998,186.574036 Z M380.728792,131.443841 C380.541987,130.254852 384.169538,117.175978 384.106428,111.544059 C384.048367,99.4042584 375.849142,90.3290694 372.529567,82.1323688 C368.899491,99.904088 372.779482,114.295646 380.728792,131.443841 L380.728792,131.443841 Z M386.047686,171.553904 C386.921125,168.612988 390.114481,165.046022 392.240019,161.102922 C400.562939,145.70918 391.30347,129.689388 389.114822,119.738235 C379.973999,142.142214 383.356684,152.156477 386.047686,171.553904 Z M367.150088,109.602802 C362.457243,93.77234 353.566335,83.0058084 335.357896,76.7503652 C337.985788,81.5063196 343.615182,93.2094006 356.446666,101.905931 C360.013632,104.283908 366.334709,108.789948 367.150088,109.602802 L367.150088,109.602802 Z M366.458404,91.6417532 C366.01916,87.3856284 367.458064,84.3210166 367.271259,80.3148066 C366.897649,69.6139092 361.891779,62.353758 359.013973,58.8499019 C356.136166,55.3460459 351.938102,51.7159703 349.438954,47.9621995 C349.812564,63.0429169 356.696581,80.001782 366.458404,91.6417532 Z M261.638078,385.574377 C264.01858,386.071682 265.331263,385.387572 266.646472,384.385389 C267.583021,383.759339 269.398059,381.255143 270.650157,379.503215 C232.731266,377.185823 211.829301,364.667363 195.99379,350.901854 C187.73398,343.707337 177.782827,333.758708 171.587969,329.439474 C160.823962,321.929408 148.371136,322.305542 142.612998,318.236222 C149.497015,330.065523 160.011107,340.950701 173.466116,347.711023 C176.094008,349.023706 177.343582,352.403867 172.776957,350.649415 C160.197912,345.767241 135.229152,347.834718 120.024739,355.910248 C130.475722,358.098895 143.178462,365.543327 157.383215,366.86106 C169.459906,368.050048 179.597864,362.289386 194.241862,363.044179 C213.328789,364.048887 216.64584,374.934065 261.638078,385.574377 L261.638078,385.574377 Z M280.288286,376.375493 C280.288286,380.068678 283.289788,383.07018 286.982973,383.07018 C290.676158,383.07018 293.614551,380.068678 293.614551,376.375493 C293.614551,372.745417 290.676158,369.743915 286.982973,369.743915 C283.289788,369.743915 280.288286,372.745417 280.288286,376.375493 L280.288286,376.375493 Z" id="Shape" fill="#FFFFFF"></path>
        <path d="M142.302498,343.020702 C131.541015,338.204162 119.898519,336.57593 110.699635,335.510636 C97.7444558,333.948038 87.6090222,336.01299 80.4119808,335.386941 C84.728691,337.886089 93.1778308,341.894823 95.6189178,343.523056 C114.203491,356.099577 129.723453,341.521213 142.302498,343.020702 Z M151.564492,340.203481 C143.930731,334.321648 138.798642,322.118737 134.418822,318.110003 C122.276497,306.84869 116.957603,308.850533 107.258889,301.966516 C113.266942,318.801686 131.412271,335.323831 151.564492,340.203481 L151.564492,340.203481 Z" id="Shape" fill="#FFFFFF"></path>
        <path d="M292.801696,376.375493 C292.801696,379.629434 290.173804,382.257331 286.982973,382.257331 C285.422398,382.259339 283.92516,381.640295 282.821666,380.5368 C281.718171,379.433306 281.099127,377.936068 281.101135,376.375493 C281.101135,373.184662 283.729032,370.55677 286.982973,370.55677 C290.189679,370.573335 292.785131,373.168787 292.801696,376.375493 Z" id="Path" fill="#000000"></path>
        <path d="M290.302548,380.126739 L288.048266,376.691042 C289.36095,376.627932 290.360609,376.123054 290.360609,374.626089 C290.360609,374.00004 290.10817,373.373991 289.547755,373.058442 C288.984816,372.747942 288.358767,372.684832 287.732717,372.684832 L284.478776,372.684832 L284.478776,380.129264 L285.420374,380.129264 L285.420374,376.693566 L287.106668,376.693566 L289.237255,380.129264 L290.302548,380.129264 L290.302548,380.126739 Z" id="Path" fill="#FFFFFF"></path>
        <path d="M286.798692,375.999359 L285.422899,375.999359 L285.422899,373.371467 L287.548437,373.371467 C288.484986,373.371467 289.492219,373.495162 289.492219,374.623565 C289.489694,376.123054 287.861461,375.999359 286.798692,375.999359 L286.798692,375.999359 Z M111.138879,127.250826 C133.605968,109.602802 166.708319,100.027783 199.876305,100.027783 C232.918071,100.027783 266.959496,109.413472 288.737425,127.250826 L111.138879,127.250826 Z" id="Shape" fill="#000000"></path>
        <path d="M265.896727,121.490163 C248.685423,111.854559 224.090272,106.535666 199.87378,106.535666 C175.594179,106.535666 152.188017,111.854559 133.727138,121.490163 L265.896727,121.490163 Z" id="Path" fill="#FFFFFF"></path>
        <path d="M243.364005,165.046022 L201.502013,165.046022 L201.502013,134.319123 L243.364005,134.319123 L243.364005,165.046022 Z M198.248072,134.319123 L198.248072,156.160162 L109.450061,156.160162 L88.7980108,134.319123 L198.248072,134.319123 L198.248072,134.319123 Z" id="Shape" fill="#000000"></path>
        <path d="M118.585836,140.953225 C117.772981,141.516165 118.209701,142.329019 119.211885,142.205324 C120.587678,142.015994 120.650788,143.520532 120.524569,144.709521 C120.400873,146.022204 120.150959,146.648254 119.898519,147.524218 C119.39869,149.7785 120.648264,151.343623 122.589521,151.467318 C124.591364,151.656647 128.410769,151.656647 129.599758,151.467318 C133.979578,150.904378 135.355371,148.963121 136.420665,146.648254 C136.670579,146.022204 137.422848,144.709521 137.672763,144.207167 C138.548727,142.891958 137.296629,142.329019 136.483774,142.831373 C136.04453,143.081288 135.481591,143.268093 135.168566,143.457422 C134.666212,143.707337 133.853358,143.707337 132.977394,143.520532 C131.225466,143.270617 129.973368,142.894483 127.72161,143.833557 C126.908756,144.146581 125.969682,144.522716 125.467328,144.646411 C124.341449,145.022545 123.902205,144.709521 124.15212,143.770447 C124.21523,143.333727 124.341449,142.894483 124.528254,142.455239 C125.028084,141.016335 125.028084,139.264407 124.15212,138.701468 C123.339266,138.138528 121.774143,138.514663 120.961288,139.201297 C120.274654,139.766761 119.4618,140.327176 118.585836,140.953225 L118.585836,140.953225 Z M165.332526,140.953225 C164.519671,141.516165 164.956391,142.329019 166.01916,142.205324 C167.394954,142.015994 167.394954,143.520532 167.334368,144.709521 C167.210673,146.022204 166.897649,146.648254 166.708319,147.524218 C166.14538,149.7785 167.460588,151.343623 169.338736,151.467318 C171.340578,151.656647 175.157459,151.656647 176.346448,151.467318 C180.726268,150.904378 182.104586,148.963121 183.167355,146.648254 C183.480379,146.022204 184.167014,144.709521 184.480038,144.207167 C185.292893,142.891958 184.106428,142.329019 183.29105,142.831373 C182.79122,143.081288 182.228281,143.268093 181.915256,143.457422 C181.412902,143.707337 180.663158,143.707337 179.787194,143.520532 C177.972156,143.270617 176.722582,142.894483 174.4683,143.833557 C173.655446,144.146581 172.716372,144.522716 172.214018,144.646411 C171.088139,145.022545 170.712005,144.709521 170.89881,143.770447 L171.27242,142.455239 C171.837884,141.016335 171.774774,139.264407 170.959395,138.701468 C170.083431,138.138528 168.518308,138.514663 167.705454,139.201297 C167.021344,139.766761 166.205965,140.327176 165.332526,140.953225 L165.332526,140.953225 Z" id="Shape" fill="#FFFFFF"></path>
        <path d="M123.089351,98.2758552 L120.961288,114.921696 L104.065533,105.972726 C101.65068,104.694933 99.6858552,102.7072 98.4361392,100.277698 C95.1190882,93.7698156 97.623285,85.75992 104.131167,82.442869 C110.63905,79.0652326 118.648945,81.6300148 122.026582,88.1378972 C122.652631,89.3899956 123.089351,90.7026794 123.34179,92.0178876 C124.910651,91.312164 126.496438,90.6446859 128.097744,90.0160448 C127.333385,88.8924759 126.722946,87.6715982 126.282707,86.3859692 C125.161748,83.0418225 125.423827,79.3883667 127.010633,76.23846 C128.597438,73.0885533 131.377344,70.7034849 134.731846,69.6139092 C141.676449,67.3596272 149.186515,71.1159224 151.438272,78.0605246 C151.877517,79.4363182 152.127431,80.7515264 152.127431,82.12732 C153.81625,81.6906002 155.441958,81.251356 157.130776,80.8752216 C156.547227,79.6415394 156.126342,78.3373054 155.878678,76.9952312 C154.756564,69.7636447 159.671522,62.9786822 166.8926,61.7908185 C174.130662,60.6439525 180.932033,65.5699789 182.099537,72.8047406 C182.286342,74.1805342 182.286342,75.5563278 182.099537,76.9346458 C183.828484,76.7576459 185.560502,76.6120486 187.294735,76.497926 C186.85883,75.1871815 186.647177,73.8122901 186.668686,72.4311306 C186.668686,65.1103939 192.613629,59.1654509 199.934366,59.1654509 C207.191993,59.1654509 213.136936,65.1078696 213.136936,72.4311306 C213.136936,73.870034 212.884496,75.248352 212.510886,76.497926 C214.202229,76.6241456 215.951633,76.7503652 217.642975,76.9346458 C217.456174,75.5643477 217.456174,74.1750387 217.642975,72.8047406 C218.827046,65.5813203 225.614758,60.6643713 232.847388,61.7908185 C240.08179,62.9570794 245.008103,69.7577179 243.86131,76.9952312 C243.608871,78.3710248 243.235261,79.686233 242.609212,80.8752216 C244.300554,81.2488316 245.986848,81.6880758 247.612556,82.0642102 C247.675666,80.7515264 247.864996,79.4363182 248.301715,78.0605246 C250.619835,71.111787 258.11347,67.3384684 265.0763,69.6139092 C272.018378,71.9287766 275.774673,79.3757328 273.522915,86.3859692 C273.086032,87.6848545 272.452627,88.9090967 271.644768,90.0160448 C273.273,90.642094 274.840648,91.331253 276.466356,92.0178876 C276.668327,90.6653593 277.089539,89.3548259 277.713406,88.1378972 C281.096091,81.6300148 289.103462,79.0652326 295.611345,82.442869 C298.741054,84.0430064 301.102606,86.8261811 302.171842,90.1746515 C303.241077,93.523122 302.929538,97.1598699 301.306373,100.277698 C300.057322,102.707683 298.092322,104.695593 295.676979,105.972726 L278.844333,114.921696 L276.650637,98.2758552 C273.483631,96.8182606 270.270973,95.4619736 267.017557,94.2090598 L253.625658,104.347018 L248.867179,88.2641168 C245.498116,87.3247992 242.09543,86.5105458 238.666111,85.8230298 L227.08925,97.965355 L219.831623,82.8215278 C216.355305,82.4539952 212.869463,82.1829396 209.378116,82.0086736 L199.931841,95.7767072 L190.419933,82.0086736 C186.908443,82.1831429 183.402419,82.4541969 179.90584,82.8215278 L172.708799,97.965355 L161.068828,85.8230298 C157.628081,86.5121888 154.247921,87.3881528 150.86776,88.2641168 L146.111805,104.347018 L132.719906,94.2090598 C129.476062,95.5217436 126.282707,96.8369518 123.089351,98.2758552 L123.089351,98.2758552 Z" id="Path" fill="#000000"></path>
        <path d="M199.93689,79.565064 C203.816881,79.565064 207.007712,76.3742308 207.007712,72.4311306 C207.007712,68.4880304 203.816881,65.2971985 199.93689,65.2971985 C198.044649,65.296529 196.229716,66.0479224 194.891699,67.3859393 C193.553682,68.7239563 192.802289,70.538889 192.802957,72.4311306 C192.801618,74.3235776 193.552796,76.1389001 194.890958,77.4770625 C196.229121,78.815225 198.044443,79.5664029 199.93689,79.565064 L199.93689,79.565064 Z M170.15159,82.0061492 C174.066705,81.3549509 176.722064,77.6656364 176.096533,73.7463388 C175.446651,69.8306733 171.755871,67.1753873 167.836722,67.8039201 C163.921608,68.4551184 161.266248,72.144433 161.891779,76.0637306 C162.515304,79.9386722 166.205965,82.629674 170.15159,82.0061492 L170.15159,82.0061492 Z M141.113509,89.0138612 C142.910343,88.4222574 144.396713,87.1379212 145.242716,85.4459152 C146.088719,83.7539092 146.224366,81.794211 145.619549,80.001782 C145.039773,78.1947784 143.761069,76.6948853 142.068547,75.8365315 C140.376025,74.9781776 138.410418,74.832735 136.609994,75.4326326 C132.873018,76.6750747 130.834422,80.6959527 132.040845,84.4447118 C133.290419,88.201007 137.359738,90.2659596 141.113509,89.0138612 Z M113.516857,100.530137 C116.981197,98.7078652 118.323383,94.429787 116.520883,90.9551186 C114.768955,87.5143724 110.44972,86.1360544 107.008974,87.9510922 C105.326295,88.7906004 104.052663,90.2724609 103.47556,92.0621919 C102.898458,93.8519229 103.066529,95.7986637 103.941838,97.463001 C105.756876,100.966857 110.013001,102.279541 113.516857,100.530137 L113.516857,100.530137 Z M229.66413,81.8799296 C233.48101,82.5059788 237.108561,79.8780868 237.734611,75.9980964 C238.343238,72.1652893 235.744475,68.5597171 231.915887,67.925091 C230.056215,67.6232988 228.152904,68.074243 226.626321,69.178328 C225.099737,70.2824129 224.075482,71.9487992 223.779772,73.8094486 C223.156247,77.6238048 225.784139,81.2538804 229.66413,81.8799296 L229.66413,81.8799296 Z M258.634052,89.0744466 C260.459348,89.6782208 262.450074,89.5290395 264.164998,88.6599678 C265.879922,87.7908961 267.17739,86.2737197 267.769826,84.4447118 C269.021924,80.690941 266.956972,76.6216212 263.140091,75.3695228 C259.388845,74.1174244 255.319525,76.182377 254.067427,79.9386722 C252.816311,83.7217251 254.857221,87.8046722 258.634052,89.0744466 L258.634052,89.0744466 Z M286.235753,100.590723 C289.76261,102.347168 294.046478,100.956258 295.868833,97.463001 C297.68387,93.9566206 296.308077,89.7030202 292.801696,87.8879824 C290.53257,86.7150894 287.810081,86.8418559 285.659762,88.2205303 C283.509444,89.5992046 282.257983,92.0203334 282.376791,94.5719006 C282.495599,97.1234679 283.966627,99.4178299 286.235753,100.590723 L286.235753,100.590723 Z" id="Shape" fill="#FFFFFF"></path>
        <path d="M153.25331,233.070811 L111.388794,233.070811 L111.388794,202.467608 L153.25331,202.467608 L153.25331,233.070811 Z M198.374292,277.936829 C194.994131,275.056498 187.423479,271.305252 179.224254,270.426763 C173.405531,269.737604 163.830512,268.67736 156.570361,267.861981 L156.570361,236.382814 L198.374292,236.382814 L198.374292,277.936829 Z M288.67684,227.499478 L288.67684,242.077842 L201.628233,242.077842 L201.628233,227.499478 L288.67684,227.499478 L288.67684,227.499478 Z M288.67684,202.407023 L288.67684,224.245537 L201.628233,224.245537 L201.628233,202.407023 L288.67684,202.407023 L288.67684,202.407023 Z" id="Shape" fill="#000000"></path>
        <path d="M214.265339,209.104234 C213.457533,209.667174 213.831143,210.538089 214.891388,210.351284 C216.27223,210.164479 216.27223,211.666492 216.206596,212.921115 C216.077852,214.173213 215.767352,214.799263 215.580547,215.672702 C215.017608,217.926984 216.330291,219.494632 218.208439,219.681437 C220.273392,219.868242 224.027162,219.805132 225.218675,219.681437 C229.661605,219.055387 230.971765,217.111606 232.102692,214.799263 C232.355131,214.231274 233.039242,212.855481 233.354791,212.418761 C234.167645,211.042967 232.976132,210.480028 232.165802,210.979858 C231.663448,211.295407 231.100509,211.482212 230.78496,211.605907 C230.287654,211.858346 229.532861,211.858346 228.659422,211.734651 C226.844384,211.419102 225.592285,211.045492 223.340528,211.982041 C222.585735,212.3607 221.586075,212.6712 221.15188,212.799944 C219.957843,213.173554 219.584233,212.923639 219.771038,211.982041 C219.899782,211.547846 220.023477,211.045492 220.144648,210.606248 C220.712636,209.167344 220.647002,207.48105 219.834147,206.913062 C218.955659,206.350123 217.39306,206.726257 216.643316,207.352306 C215.893572,207.915246 215.143827,208.478185 214.265339,209.104234 L214.265339,209.104234 Z M258.447247,209.104234 C257.634392,209.667174 258.073637,210.538089 259.073296,210.351284 C260.449089,210.164479 260.512199,211.666492 260.388504,212.921115 C260.25976,214.173213 260.009845,214.799263 259.820516,215.672702 C259.257576,217.926984 260.575309,219.494632 262.448408,219.681437 C264.455299,219.868242 268.27218,219.805132 269.458644,219.681437 C273.840989,219.055387 275.216782,217.111606 276.277027,214.799263 C276.529466,214.231274 277.276686,212.855481 277.592235,212.418761 C278.405089,211.042967 277.152991,210.480028 276.340137,210.979858 C275.900892,211.295407 275.340477,211.482212 275.027453,211.605907 C274.525099,211.858346 273.775354,211.858346 272.833756,211.734651 C271.084353,211.419102 269.832254,211.045492 267.577972,211.982041 C266.765118,212.3607 265.828569,212.6712 265.32369,212.799944 C264.200336,213.173554 263.761092,212.923639 264.011006,211.982041 C264.069067,211.547846 264.258397,211.045492 264.384616,210.606248 C264.947556,209.167344 264.881922,207.48105 264.011006,206.913062 C263.198152,206.350123 261.630505,206.726257 260.815126,207.352306 C260.138589,207.915246 259.325735,208.478185 258.447247,209.104234 L258.447247,209.104234 Z" id="Shape" fill="#FFFFFF"></path>
        <polygon id="Path" fill="#000000" points="198.374292 177.248933 198.374292 199.150557 111.388794 199.150557 111.388794 177.248933"></polygon>
        <path d="M144.36745,183.883035 C143.554596,184.445974 143.991316,185.321938 144.9935,185.198243 C146.369293,185.008913 146.432403,186.513451 146.308708,187.699915 C146.182488,188.952014 145.932573,189.578063 145.682659,190.454027 C145.182829,192.768894 146.432403,194.270907 148.37366,194.460237 C150.375503,194.647042 154.131799,194.583932 155.318263,194.460237 C159.761193,193.834188 161.076401,191.89293 162.20228,189.578063 C162.452194,189.012599 163.204463,187.636805 163.454378,187.200086 C164.330342,185.824292 163.080768,185.261353 162.265389,185.761182 C161.826145,186.074207 161.26573,186.261012 160.950181,186.387231 C160.450352,186.639671 159.634973,186.639671 158.759009,186.513451 C156.943971,186.263536 155.754983,185.826816 153.500701,186.826476 C152.687846,187.1395 151.748773,187.452525 151.246419,187.63933 C150.05743,187.952354 149.681296,187.699915 149.93121,186.763366 C149.989502,186.308494 150.116317,185.865068 150.307345,185.448158 C150.807174,183.946144 150.807174,182.257326 149.93121,181.694387 C149.118356,181.131447 147.553233,181.507582 146.740379,182.133631 C146.056269,182.691522 145.243414,183.317571 144.36745,183.883035 L144.36745,183.883035 Z" id="Path" fill="#FFFFFF"></path>
        <path d="M111.388794,159.414104 L198.374292,159.477213 L198.374292,174.058101 L111.388794,174.058101 L111.388794,159.414104 Z M201.628233,277.815659 L201.628233,245.273722 L288.67684,245.273722 C288.298181,256.476974 284.668106,263.171661 271.155036,264.73426 C260.701529,265.923248 232.791851,268.990384 220.775746,270.363654 C212.39224,271.305252 205.005869,274.998437 201.628233,277.815659 Z" id="Shape" fill="#000000"></path>
        <path d="M234.104535,252.092105 C233.291681,252.655044 233.665291,253.531008 234.730584,253.344203 C236.106378,253.157398 236.106378,254.659411 236.043268,255.8484 C235.919573,257.161084 235.604024,257.787133 235.417219,258.663097 C234.854279,260.917379 236.172012,262.479978 238.05016,262.666783 C240.052002,262.795527 243.868883,262.795527 245.055347,262.603673 C249.498277,262.040733 250.813485,260.104525 251.878779,257.787133 C252.189279,257.224194 252.878438,255.8484 253.191463,255.346046 C254.004317,254.033362 252.817852,253.467898 252.002474,253.970252 C251.50012,254.280753 250.937181,254.467558 250.62668,254.596302 C250.124326,254.848741 249.374582,254.848741 248.496094,254.719997 C246.681056,254.409497 245.428957,254.035887 243.1772,254.972436 C242.471178,255.302953 241.739159,255.574822 240.988552,255.78529 C239.799563,256.1589 239.425953,255.8484 239.612758,254.972436 C239.736453,254.533192 239.865197,254.035887 239.986368,253.596642 C240.549308,252.157739 240.488722,250.466396 239.675868,249.840347 C238.79738,249.277408 237.234781,249.716652 236.421927,250.342701 C235.732768,250.903116 234.983023,251.466056 234.104535,252.092105 L234.104535,252.092105 Z" id="Path" fill="#FFFFFF"></path>
        <path d="M288.67684,199.150557 L246.807275,199.150557 L246.807275,168.363073 L288.67684,168.363073 L288.67684,199.150557 Z M198.374292,222.372438 L156.570361,222.372438 L156.570361,213.294725 L198.374292,213.294725 L198.374292,222.372438 Z M243.553334,188.262855 L201.628233,188.262855 L201.628233,179.31641 L243.553334,179.31641 L243.553334,188.262855 Z M292.364977,154.345125 L246.807275,154.345125 L246.807275,145.396155 L300.751007,145.396155 L292.364977,154.345125 Z M111.388794,247.275565 L153.25331,247.275565 L153.25331,256.34823 L113.577442,256.34823 C112.014843,253.846557 111.638709,250.716311 111.388794,247.275565 Z" id="Shape" fill="#000000"></path>
    </g>
</svg>