<?xml version="1.0" encoding="UTF-8"?>
<svg width="400px" height="32px" viewBox="0 0 400 32" version="1.1" xmlns="http://www.w3.org/2000/svg">
    <title>caterham</title>
    <path d="M8.00517747,23.3907965 L11.2831643,7.74660429 L42.0416074,7.74660429 L49.5208807,0.354743981 L13.2472248,0.354743981 C8.45225947,0.0856301958 4.16426591,3.31923697 3.10458716,8.00337993 L0.269128546,21.585172 C-0.330244054,23.6523266 0.0841218393,25.8811896 1.38637573,27.5948146 C3.10210171,29.3570112 5.45828519,30.3493478 7.91776449,30.3456025 L42.814666,30.3456025 L39.6350188,23.3907965 L8.00517747,23.3907965 Z M99.5456915,0.439425308 L97.9995743,7.65919131 L115.449391,7.65919131 L110.636214,30.4357365 L118.801132,30.4357365 L123.529628,7.65919131 L135.994173,7.65919131 L144.071679,0.439425308 L99.5456915,0.439425308 Z M68.5168144,16.9468207 L77.8863935,7.49256031 L83.6447237,16.9468207 L68.5168144,16.9468207 Z M79.1702716,0.0105553636 C76.2719003,0.149641273 73.5621564,1.48867836 71.6909983,3.70648552 L44.3635148,30.3510552 L54.762928,30.3510552 L61.4664111,24.0682471 L88.283075,24.0682471 L91.8943239,30.3510552 L101.780186,30.3510552 L85.3629351,3.44697823 C84.1360804,1.20390783 81.728346,-0.133368 79.1757349,0.0105553636 M305.922279,16.9468207 L315.291858,7.49256031 L321.050188,16.9468207 L305.922279,16.9468207 Z M316.575736,0.0105553636 C313.677365,0.149641273 310.967621,1.48867836 309.096463,3.70648552 L281.76898,30.3510552 L292.168393,30.3510552 L298.871876,24.0682471 L325.68854,24.0682471 L329.299789,30.3510552 L339.185651,30.3510552 L322.7684,3.44697823 C321.541545,1.20390783 319.133811,-0.133368 316.5812,0.0105553636 M147.423421,23.1340208 L148.196479,19.2659964 L178.968581,19.2659964 L180.514698,11.7867231 L149.652452,11.7867231 L150.512923,7.83401727 L180.940836,7.83401727 L188.851711,0.611519616 L185.756745,0.611519616 C185.49997,0.611519616 161.690859,0.52683829 153.438527,0.52683829 C144.241042,0.52683829 142.607512,7.48982866 142.607512,7.57450998 L139.427865,22.6177379 C138.940445,24.4035339 139.323064,26.3146093 140.46043,27.7751038 C142.181348,29.4570885 144.500967,30.3849362 146.907138,30.3537868 L182.145496,30.3537868 L177.589095,23.1340208 L147.423421,23.1340208 Z M277.556766,0.698932599 L275.150178,11.9588174 L247.560455,11.9588174 L249.964312,0.698932599 L242.151777,0.698932599 L235.868969,30.3537868 L243.689699,30.3537868 L246.096288,19.093902 L273.68601,19.093902 L271.279422,30.3537868 L279.100152,30.3537868 L285.377497,0.698932599 L277.556766,0.698932599 Z M225.122635,14.794276 L197.961783,14.794276 L199.5079,7.487097 L226.668753,7.487097 L225.122635,14.794276 Z M227.35713,0.439425308 L192.984706,0.439425308 L186.701898,30.3510552 L194.95423,30.3510552 L196.672441,22.0195053 L223.6612,22.0195053 L221.855575,30.4439315 L229.862058,30.4439315 L231.227886,24.084637 C231.72113,22.204469 231.30787,20.2018217 230.110639,18.6704954 C231.658615,17.5685325 232.756678,15.9447187 233.202873,14.0977038 L234.492214,7.99518496 C234.926227,6.1926095 234.583295,4.2906244 233.547062,2.75313768 C231.953161,1.06528131 229.667356,0.21087845 227.35713,0.439425308 M399.093592,2.15763674 C397.801016,0.74890852 395.928691,0.0185400655 394.023639,0.179918017 C391.187615,0.299248885 388.533878,1.61074058 386.71646,3.79116685 L369.780194,23.1312892 L360.765731,4.55603044 C359.672823,1.97224263 357.199936,0.239843266 354.398241,0.0952366902 C350.79685,-0.0635511666 347.54415,2.23412511 346.490098,5.68147259 L341.248051,30.4357365 L349.156194,30.4357365 L353.800009,8.5169312 L363.685871,28.7147934 C364.030059,29.6599463 365.231988,31.1213821 368.329685,31.1213821 C370.330984,31.1948463 372.268969,30.4130962 373.659145,28.971569 L391.537832,9.20257678 L387.068843,30.2609105 L394.788502,30.2609105 L399.861187,6.02292955 C400.198216,4.68293783 399.914312,3.26241856 399.088128,2.15490508" id="caterham" fill="#FFFFFF"></path>
</svg>