<?xml version="1.0" encoding="UTF-8"?>
<svg width="400px" height="146px" viewBox="0 0 400 146" version="1.1" xmlns="http://www.w3.org/2000/svg">
    <title>chevrolet</title>
    <path d="M393.053229,29.4749236 L278.610164,29.4884123 C275.687601,29.4884123 273.772199,28.6161397 273.772199,24.600988 L273.772199,7.62764232 C273.772199,2.73122551 271.137396,0.141385217 266.353385,0.141385217 L135.346134,0.145881467 C130.449717,0.145881467 127.931817,2.90208303 127.931817,7.58267981 L127.922825,24.5560255 C127.922825,28.1395372 126.232234,29.4434498 123.084859,29.4434498 L48.0874005,29.4659311 C42.3501849,29.4659311 38.9914857,32.2041476 37.2604293,35.801148 L0.746378878,107.179125 C0.26187969,108.1146 0.00609102626,109.151623 1.29256659e-06,110.205101 C1.29256659e-06,113.033243 1.8524565,116.679702 6.96469334,116.679702 L123.075867,116.666213 C126.659378,116.666213 127.913832,118.293856 127.913832,121.553638 L127.90484,138.526983 C127.90484,143.63922 130.876861,145.968278 135.337142,145.968278 L200.847512,145.963782 L266.339897,145.959286 C270.800177,145.959286 273.767702,143.801085 273.767702,138.571946 L273.75871,121.5986 C273.75871,118.127495 275.23348,116.711176 278.596676,116.711176 L351.40446,116.693191 C356.426772,116.693191 360.037261,115.371293 362.555161,110.695193 L398.655557,40.1580148 C399.446897,38.6337858 399.999969,37.7660095 399.999969,35.9540205 C400.013424,31.1610175 395.88137,29.4749236 393.053229,29.4749236 L393.053229,29.4749236 Z M364.214278,57.9092118 L346.809292,91.9503244 C345.721199,93.9241784 343.778819,94.0096072 342.416455,94.0096072 L256.021002,94.0096072 C252.43749,94.0096072 251.129081,95.6372498 251.129081,98.8925352 L251.111096,118.473706 C251.111096,121.728992 249.690281,123.284694 246.210183,123.284694 L200.856504,123.284694 L155.471351,123.293687 C152.436382,123.293687 150.579431,122.228075 150.579431,118.424247 L150.570438,98.8430765 C150.570438,95.264061 148.929307,93.9871259 145.678518,93.9871259 L39.7603446,93.9871259 C37.1570155,93.9871259 35.3585153,92.3459945 35.3585153,90.0708917 C35.3585153,89.4144391 35.5248766,88.7894603 35.8126366,88.245414 L53.2176223,54.2043014 C53.8830674,52.99481 54.9756563,52.1674999 57.6059628,52.1674999 L145.678518,52.1719961 C148.717983,52.1719961 150.606408,50.949016 150.606408,47.2575943 L150.601912,27.6809196 C150.601912,24.205318 152.117149,22.8114803 155.480344,22.8114803 L246.228168,22.806984 C249.48795,22.806984 251.111096,24.2547767 251.111096,27.7258821 L251.102104,47.3025568 C251.102104,50.6657522 252.666799,52.1585074 256.029994,52.1585074 L360.271066,52.1585074 C363.589299,52.1585074 364.672895,54.3436851 364.672895,56.0747416 C364.665026,56.7136101 364.507978,57.3418011 364.214278,57.9092118 L364.214278,57.9092118 Z" id="chevrolet" fill="#FFFFFF"></path>
</svg>