<?xml version="1.0" encoding="UTF-8"?>
<svg width="396px" height="57px" viewBox="0 0 396 57" version="1.1" xmlns="http://www.w3.org/2000/svg">
    <title>chrysler</title>
    <path d="M198.001217,0.778125239 C223.383329,0.778125239 231.504243,12.6237598 250.453852,12.6237598 C303.244656,12.6237598 379.724296,9.91597762 395.63282,8.56087012 C393.258341,12.6213269 386.830703,17.6962896 360.772254,18.3774927 C354.342184,24.1263599 339.114862,26.8365749 320.844023,26.4984062 C312.718244,32.9284765 291.060853,34.2811511 267.036281,34.2811511 C251.289167,34.2811511 243.035443,38.2065854 236.066798,42.7660518 L235.48892,43.1474045 C235.009611,43.4663038 234.535668,43.7878199 234.065012,44.1108505 L233.09903,44.7783609 L232.618265,45.1130542 L231.178806,46.11767 L230.33412,46.7039634 L229.768433,47.0931906 C222.491297,52.0775802 214.473903,56.6148798 198.001217,56.6148798 C182.281457,56.6148798 174.199598,52.4828786 167.131044,47.7734704 L166.544202,47.3797593 L166.252274,47.1820442 L165.670871,46.7851805 L164.702957,46.11767 L163.738224,45.4480155 C163.364397,45.1883209 162.990386,44.9286264 162.615145,44.6694937 L162.051229,44.2812862 C161.957046,44.2166786 161.862753,44.1521237 161.768334,44.0876302 L161.200177,43.7014768 C153.886069,38.7571069 145.630974,34.2811511 128.966153,34.2811511 C104.939149,34.2811511 83.2817572,32.9260436 75.1608436,26.4984062 C56.8851389,26.8365749 41.6578178,24.1263599 35.2277475,18.3774927 C9.17173072,17.6987225 2.74166047,12.6237598 0.372046992,8.56087012 C16.2781383,9.91597762 92.7577782,12.6237598 145.548582,12.6237598 C164.160023,12.6237598 172.621538,0.778125239 198.001217,0.778125239 Z M4.77067242,9.91354476 L3.07982913,9.91354476 C7.1402859,12.6213269 14.2466935,14.6503388 36.2422535,16.343615 C41.6578178,21.4234435 55.5324642,22.778551 75.4965794,23.7906241 C81.9266497,29.8825257 99.1854156,30.8994645 136.41073,30.8994645 C147.690298,30.8994645 154.33106,34.5554226 160.453329,38.930966 L161.119354,39.4110114 C161.783718,39.8936289 162.443696,40.3835394 163.104635,40.8769306 L164.010944,41.5544755 C164.198295,41.6945858 164.385917,41.834835 164.573932,41.9751372 L165.139275,42.3961166 C165.328196,42.5364387 165.51763,42.6767276 165.707698,42.8168974 L166.279926,43.2369634 C173.555298,48.5510919 181.92064,53.568929 198.001217,53.568929 C232.178147,53.568929 231.504243,30.8994645 259.591705,30.8994645 C296.817019,30.8994645 313.737616,29.8825257 320.503422,23.7906241 C340.131801,22.778551 354.344616,21.4234435 359.762614,16.343615 C370.100527,15.5489187 377.148889,14.6795209 382.138054,13.6998067 L382.763877,13.5741348 C387.989904,12.5007831 390.852964,11.2957544 392.925038,9.91354476 L391.229329,9.91354476 C382.765381,13.2976642 354.342184,16.6842165 253.833106,16.6842165 C243.00441,16.6842165 240.301494,15.329109 238.603352,15.329109 C236.912509,15.329109 236.57434,16.6842165 237.25311,18.0320254 C237.927015,19.0489643 238.603352,20.7398076 238.943953,21.7567464 C238.729557,20.2742174 239.443642,19.984364 242.07456,19.9754546 L242.483698,19.9761113 C243.966861,19.9849868 245.991973,20.0587326 248.70205,20.0654184 L249.093879,20.0659031 C311.512271,20.0659031 331.40634,19.0402222 349.788589,17.2131476 L351.054431,17.0858747 C353.372575,16.8502216 355.681623,16.6018396 358.064472,16.3411821 C351.211082,20.9101083 319.993128,22.2452967 287.251362,22.627333 L284.629203,22.6559058 C275.4433,22.7490963 266.185684,22.7723277 257.357753,22.7756632 L254.847612,22.7761181 C250.110818,23.1142868 245.035855,23.1142868 241.311134,23.1142868 C239.956027,23.1142868 239.282122,23.4524554 239.620291,24.8051301 C239.620291,25.8172032 239.958459,27.8510809 239.620291,29.2061884 C239.810853,28.9677293 239.96793,28.736102 240.120694,28.5141006 L240.222219,28.3675564 L240.324387,28.2240483 C241.20099,27.0176543 242.355481,26.1602376 249.096312,26.1602376 C291.73719,26.1602376 310.686799,24.8051301 318.471977,23.7881912 C311.706171,27.5080465 301.213211,29.2061884 253.49737,29.2061884 C233.192653,29.2061884 230.82304,51.539917 197.998784,51.539917 C165.174529,51.539917 162.804915,29.2061884 142.500198,29.2061884 C94.7843573,29.2061884 84.2938303,27.5104793 77.5255914,23.7881912 C85.3083363,24.8051301 104.257945,26.1602376 146.898824,26.1602376 C153.396402,26.1602376 154.705098,26.9564305 155.575063,28.0938505 L155.675674,28.2292115 C155.708727,28.2748382 155.741392,28.3209624 155.773955,28.3675564 L155.875323,28.5141006 L155.977954,28.6634969 L156.08377,28.8155614 C156.173809,28.9433424 156.269167,29.0737111 156.374845,29.2061884 C156.036676,27.8510809 156.374845,25.8172032 156.374845,24.8051301 C156.713013,23.4500226 156.036676,23.1142868 154.681569,23.1142868 C150.959281,23.1142868 145.884318,23.1142868 141.147524,22.7761181 L138.637526,22.7756632 C131.222476,22.7728613 123.504166,22.756021 115.77979,22.6954694 L113.205182,22.6736259 C78.8849404,22.3597081 45.097173,21.117233 37.9330968,16.3411821 C39.882481,16.5546663 41.782501,16.7598936 43.6785531,16.9566209 L44.942498,17.0865106 L45.5749637,17.150506 L46.8427496,17.276588 C64.840595,19.0446641 84.7340652,20.0425305 144.765762,20.0654976 L146.901257,20.0659031 C155.362772,20.0659031 157.391784,19.3871329 157.053615,21.7567464 C157.394217,20.7398076 158.068121,19.0489643 158.746891,18.0320254 C159.423228,16.6817837 159.08506,15.329109 157.394217,15.329109 C155.70094,15.329109 152.993158,16.6842165 142.164463,16.6842165 C41.3196491,16.6842165 13.2321875,13.2952313 4.77067242,9.91354476 Z M197.998784,5.17675067 C178.032236,5.17675067 161.45224,14.6503388 161.45224,26.834142 C161.45224,38.6797765 178.034669,49.5084722 197.998784,49.5084722 C218.301068,49.5084722 234.547761,38.6797765 234.547761,26.834142 C234.547761,14.6503388 218.301068,5.17675067 197.998784,5.17675067 Z M197.998784,6.86759396 C215.93632,6.86759396 230.484871,16.0054463 230.484871,26.834142 C230.484871,32.4370769 226.82228,37.5292089 220.906713,41.212589 C215.023995,44.8787243 206.932276,47.1412916 197.998784,47.1412916 C188.622511,47.1412916 180.260743,44.6476019 174.419427,40.6649969 C169.085181,37.0264044 165.850866,32.1611375 165.850866,26.834142 C165.850866,16.0054463 180.063681,6.86759396 197.998784,6.86759396 Z M197.998784,8.90147165 C187.846426,8.90147165 179.725512,17.0223852 179.725512,26.834142 C179.725512,36.9889333 187.846426,44.7716781 197.998784,44.7716781 C208.489311,44.7716781 216.610225,36.9889333 216.610225,26.834142 C216.610225,17.0223852 208.489311,8.90147165 197.998784,8.90147165 Z M197.996351,11.604388 C200.365965,11.604388 201.382904,12.6213269 203.750084,13.6382657 C205.779096,14.3146031 207.472372,14.3146031 209.168081,16.0054463 C210.858925,17.6987225 210.858925,19.0513971 211.870998,21.4234435 C212.887937,23.4524554 213.904876,24.4693943 213.904876,26.8365749 C213.904876,28.8655868 213.226105,29.8825257 212.209166,31.573369 C211.09155,34.873995 210.077855,37.0173518 209.168081,38.0034392 C208.273207,38.9733777 206.579931,39.7640598 204.088253,40.3754856 L203.750084,40.3754856 C201.721072,41.04939 200.704133,42.4044975 198.33452,42.4044975 C195.964907,42.4044975 194.950401,41.04939 192.580787,40.3754856 C190.549342,39.3585467 188.856066,39.6942825 186.827054,38.0034392 C185.471947,36.3101631 185.471947,34.6193198 184.457441,32.5903078 C183.442935,30.5612959 182.428429,29.544357 182.428429,27.1723107 C182.428429,24.8075629 183.442935,23.7906241 184.457441,21.4234435 C185.136211,19.3895658 185.136211,17.6962896 186.827054,16.0054463 C188.52033,14.6503388 190.211174,14.6503388 192.580787,13.6382657 C194.612232,12.6213269 195.626738,11.604388 197.996351,11.604388 Z M181.41043,12.2915159 C177.406989,13.927777 174.081258,16.2608975 171.867349,19.0124713 C169.974269,21.3600573 168.894384,24.0251418 168.894384,26.834142 C168.894384,32.5969835 173.439525,38.0613186 180.238917,41.2125654 L180.612015,41.3821455 C180.876893,41.5001933 181.14505,41.6147589 181.416356,41.7257273 L181.214866,41.519594 L181.11826,41.4200548 C177.585744,37.7082838 175.662623,32.4347358 175.662623,26.834142 C175.662623,21.4238838 177.691912,16.0111954 181.41043,12.2915159 Z M211.532829,24.1263599 L188.522763,36.9889333 C189.877871,38.3440408 191.228112,38.3440408 192.921389,39.0179452 C195.291002,39.6918497 195.967339,40.7087885 198.336953,40.7087885 C200.368398,40.7087885 201.385337,39.6918497 203.073747,39.0179452 L203.411916,39.0179452 C203.411916,38.6797765 203.747651,38.6797765 204.08582,38.6797765 C205.776663,38.0010064 207.131771,38.0010064 208.14871,36.6458989 C209.165649,35.9719944 209.501384,34.9550556 209.839553,33.9429825 C209.839553,33.9429825 209.839553,33.6023809 210.177722,33.2642123 C210.177722,32.9260436 210.177722,32.587875 210.51589,31.9091048 C210.51589,31.5709361 210.858925,31.2352003 210.858925,30.8970317 C211.532829,29.5419242 212.549768,28.5249853 212.549768,26.834142 C212.549768,25.8172032 211.870998,24.8051301 211.532829,24.1263599 Z M219.553414,39.2863861 L219.609047,39.2481252 L219.669828,39.2088493 L219.710047,39.1801252 L219.719047,39.1741252 L219.770047,39.1391252 L219.710047,39.1801252 L219.719047,39.1741252 L219.770047,39.1391252 L219.845078,39.0896511 L219.86877,39.0736423 L219.874047,39.0691252 L219.887047,39.0601252 L219.908047,39.0451252 L219.951047,39.0151252 L220.049852,38.9477941 C220.245797,38.8105324 220.438571,38.6710782 220.628082,38.5295108 C220.792137,38.407063 220.953607,38.2830099 221.112572,38.1574298 L221.13701,38.1380594 L221.151047,38.1251252 L221.137047,38.1371252 L221.274028,38.028664 L221.161018,38.1190112 L221.401047,37.9241252 L221.283047,38.0201252 L221.343322,37.9726387 L221.401047,37.9241252 L221.406047,37.9201252 L221.43373,37.8988487 C222.069449,37.3771429 222.662671,36.830501 223.209433,36.2623957 L223.210047,36.2611252 L223.237047,36.2331252 L223.375703,36.0874464 C223.430638,36.028908 223.485083,35.9701488 223.539033,35.9111727 L223.629161,35.8128348 C226.038547,33.1424431 227.43892,30.0349717 227.43892,26.834142 C227.43892,23.5115909 225.929291,20.3916747 223.348946,17.7475307 C221.200321,15.5546807 218.310521,13.6728795 214.925009,12.2913121 C218.644102,16.0054463 220.673114,21.4234435 220.673114,26.834142 C220.673114,31.6850237 219.230911,36.2938089 216.546238,39.8528139 C216.371997,40.0831071 216.192683,40.3095722 216.008197,40.5314015 C215.663286,40.9464485 215.300196,41.3449124 214.919381,41.7257273 C215.145696,41.6331609 215.369818,41.5380936 215.591671,41.4405921 C215.977824,41.2708829 216.357104,41.0937988 216.729111,40.9096904 L217.009047,40.7681252 L216.831047,40.8591252 L216.972855,40.7882765 C217.036878,40.7557676 217.100679,40.7230502 217.164255,40.690126 L217.016032,40.765566 C217.158612,40.6928808 217.300085,40.619156 217.44043,40.544412 L217.213047,40.6641252 L217.381785,40.5762035 L217.474047,40.5261252 L217.464047,40.5311252 L217.721553,40.3925041 C217.814747,40.3414129 217.907425,40.2898685 217.999581,40.2378771 L218.001047,40.2361252 L218.079629,40.1929762 L218.073047,40.1951252 L218.094047,40.1831252 L218.079629,40.1929762 C218.106117,40.1779703 218.132447,40.1629261 218.158734,40.1478455 L218.189047,40.1291252 L218.237047,40.1011252 L218.35366,40.0348812 L218.517047,39.9371252 L218.539047,39.9241252 L218.578558,39.9012511 L218.659047,39.8521252 L218.579047,39.9001252 L219.012903,39.6354276 C219.166556,39.5390803 219.318536,39.4414484 219.468805,39.3425642 L219.533047,39.2991252 L219.553414,39.2863861 Z M198.339386,35.6338258 L199.353892,36.9889333 C199.015723,37.3271019 198.339386,37.3271019 198.339386,36.9889333 L197.32488,35.9719944 C197.32488,35.6338258 198.001217,35.6338258 198.339386,35.6338258 Z M196.643677,35.6338258 L197.660616,36.9889333 C196.981845,37.3271019 196.64611,37.3271019 196.305508,36.9889333 L195.629171,35.6338258 C195.967339,35.2956571 196.305508,35.2956571 196.643677,35.6338258 Z M199.689628,35.6362586 L201.044735,36.6483317 C200.706566,36.9913661 200.368398,36.9913661 200.030229,36.9913661 L198.675122,35.9744273 C199.01329,35.6362586 199.351459,35.3005228 199.689628,35.6362586 Z M194.952833,35.29809 L195.629171,36.9889333 C195.347364,36.9889333 194.830717,36.7507149 194.666329,36.6713088 L194.614665,36.6458989 L193.938327,34.9550556 C194.614665,34.6168869 194.952833,34.9550556 194.952833,35.29809 Z M201.385337,35.29809 L202.735578,35.9719944 C202.735578,36.3101631 202.061674,36.6458989 201.723505,36.3101631 L200.368398,35.6362586 C200.368398,35.29809 201.044735,34.9574884 201.385337,35.29809 Z M193.600159,34.6193198 L193.938327,36.3101631 C193.597726,36.3101631 192.923821,35.9719944 192.923821,35.6362586 C193.374713,34.7328536 193.600159,34.393874 193.600159,34.6193198 Z M202.735578,34.6193198 L204.426422,35.29809 C204.088253,35.6362586 203.752517,35.6362586 203.414348,35.6362586 L201.723505,34.9574884 C202.061674,34.6193198 202.39741,34.283584 202.735578,34.6193198 Z M189.607659,28.8609222 L189.539702,28.8607211 L188.863365,29.2037555 C188.187027,29.5419242 187.848859,29.8800928 187.848859,30.558863 L187.848859,34.2787183 C187.848859,34.9550556 188.525196,34.9550556 188.863365,34.6168869 L189.539702,34.2787183 C190.173768,34.2787183 190.213397,33.9814997 190.215874,33.385058 L190.216039,32.2497063 L189.539702,32.587875 L189.539702,33.5999481 L188.525196,34.2787183 L188.525196,30.2158286 L189.539702,29.5419242 L189.539702,30.8970317 L190.216039,30.5564301 L190.216039,29.5394913 C190.216039,28.9512238 189.963864,28.8727881 189.674899,28.86233 L189.607659,28.8609222 Z M204.090686,33.5999481 L205.781529,33.9429825 C205.781529,34.2811511 205.107625,34.6168869 204.769456,34.6168869 L203.078613,34.2787183 C203.416781,33.9405496 203.752517,33.5999481 204.090686,33.5999481 Z M203.752517,29.544357 L202.735578,31.573369 L202.39741,30.8970317 L200.030229,33.2642123 L199.353892,32.5903078 L198.336953,33.9429825 L199.353892,31.573369 L200.030229,32.2521392 L202.39741,29.8800928 L202.735578,30.5612959 L203.752517,29.544357 Z M193.26199,26.834142 L192.585653,27.1723107 L192.585653,29.544357 L191.571147,30.2182615 L191.571147,27.8510809 L190.892377,28.1892495 L190.892377,33.6023809 L191.571147,33.2642123 L191.571147,30.8970317 L192.585653,30.2182615 L192.585653,32.5903078 L193.26199,32.2521392 L193.26199,26.834142 Z M206.798468,32.5903078 C206.798468,32.9284765 206.460299,33.2642123 206.119698,33.2642123 L204.428854,33.2642123 C204.428854,32.9260436 204.771889,32.5903078 205.107625,32.5903078 L206.798468,32.5903078 Z M207.815407,30.8970317 C207.815407,31.5709361 207.472372,31.9091048 207.136637,31.9091048 L205.445793,32.2521392 C205.445793,31.9091048 205.783962,31.573369 206.119698,31.2352003 L207.815407,30.8970317 Z M194.952833,25.8196361 L193.938327,26.4984062 L193.938327,31.9115376 L194.614665,31.573369 L194.614665,29.2061884 L194.952833,29.2061884 L195.629171,31.2352003 L196.305508,30.5612959 L195.629171,28.5274182 C195.967339,28.1892495 195.967339,28.1892495 195.967339,27.8535137 L195.967339,26.4984062 C195.967339,25.8196361 195.629171,25.4814674 194.952833,25.8196361 Z M208.489311,29.2061884 C208.489311,29.8800928 208.151143,30.2182615 207.815407,30.2182615 L206.460299,30.8970317 C206.117265,30.558863 206.460299,30.2182615 206.798468,29.8800928 L208.489311,29.2061884 Z M198.675122,23.7881912 L197.998784,24.1263599 L197.322447,26.834142 L196.64611,25.1432987 L195.969772,25.4814674 L196.984278,27.8510809 L196.984278,30.2182615 L197.660616,29.8800928 L197.660616,27.5104793 L198.675122,23.7881912 Z M197.996351,13.2976642 C195.967339,13.2976642 194.950401,14.3146031 192.921389,14.9885075 C190.892377,16.0054463 189.537269,15.6672777 188.184595,17.0223852 C186.491318,18.7132285 186.491318,20.068336 185.814981,22.0973479 C185.138644,24.1263599 183.785969,25.1432987 183.785969,27.1723107 C183.785969,28.1892495 184.124138,28.8655868 184.462306,29.544357 L207.810541,16.6842165 C206.457866,15.6672777 205.102759,15.6672777 203.073747,14.9885075 C201.039869,14.3146031 200.027796,13.2976642 197.996351,13.2976642 Z M208.489311,27.5104793 C208.82748,27.8535137 208.489311,28.5274182 208.489311,28.5274182 L206.798468,29.544357 C206.798468,29.2061884 206.798468,28.5274182 207.136637,28.5274182 L208.489311,27.5104793 Z M200.365965,23.1118539 L199.689628,23.4500226 C199.055561,23.7670557 199.015932,23.7868703 199.013455,24.3473981 L199.01329,25.8172032 C199.01329,26.1602376 199.351459,26.4984062 199.689628,26.1602376 L200.704133,25.8172032 L200.704133,27.8510809 L199.351459,28.1892495 L199.351459,27.1723107 L199.01329,27.5104793 L199.01329,28.5274182 C199.01329,28.8655868 199.351459,28.8655868 199.689628,28.8655868 L200.365965,28.5274182 C200.997213,28.2117941 201.039296,27.89617 201.042102,27.3036243 L201.042302,25.8172032 C201.042302,25.1408659 200.704133,25.1408659 200.365965,25.4790345 L199.689628,25.8172032 L199.689628,23.7881912 L200.365965,23.4500226 L200.365965,24.4669614 L201.042302,24.123927 L201.042302,23.4500226 C201.042302,22.7736853 200.704133,22.7736853 200.365965,23.1118539 Z M194.952833,26.4959734 C195.260259,26.4959734 195.288207,26.4959734 195.290748,26.7500445 L195.290664,27.9430603 C195.28762,28.1926069 195.257185,28.2228231 194.952833,28.5249853 L194.614665,28.863154 L194.614665,26.834142 L194.952833,26.4959734 Z M208.489311,26.834142 L207.134204,27.8510809 C206.796035,27.5080465 206.796035,27.1723107 207.134204,26.834142 L208.489311,26.834142 Z M202.39741,21.7591793 L201.723505,22.0973479 L201.723505,27.8510809 L203.414348,26.834142 L203.414348,26.1602376 L202.39741,26.834142 L202.39741,21.7591793 Z M188.860932,26.1602376 C189.069077,26.3668962 188.517657,26.6989376 188.134474,26.9259382 L188.035047,26.9831252 L188.860932,26.1602376 Z M189.201533,24.4693943 C189.539702,24.8075629 189.539702,25.1432987 189.201533,25.4814674 L187.508257,26.4984062 C187.508257,25.8196361 187.508257,25.4814674 187.846426,25.4814674 L189.201533,24.4693943 Z M205.781529,20.068336 L203.752517,21.0804091 L203.752517,26.4984062 L205.781529,25.4814674 L205.781529,24.8051301 L204.426422,25.4814674 L204.426422,23.4524554 L205.44336,23.1142868 L205.44336,22.4355166 L204.426422,23.1142868 L204.426422,21.0804091 L205.781529,20.4065046 L205.781529,20.068336 Z M207.472372,19.0489643 L206.117265,19.7228687 L206.117265,25.1408659 L206.796035,24.8026972 L206.796035,22.4306509 L207.134204,22.0924822 L207.812974,24.1214942 L208.486878,23.7833255 L207.815407,21.7591793 C208.153575,21.4210106 208.489311,21.4210106 208.489311,20.7422404 L208.489311,19.3871329 C208.489311,19.0489643 207.815407,18.7132285 207.472372,19.0489643 Z M189.877871,23.1167196 C190.216039,23.4548883 189.877871,23.7906241 189.537269,24.1287928 L187.846426,24.4693943 C187.846426,24.1263599 188.184595,23.7906241 188.184595,23.7906241 L189.877871,23.1167196 Z M197.998784,20.068336 L196.984278,22.0973479 L196.64611,21.4234435 L194.276496,23.7881912 L193.938327,23.4524554 L192.923821,24.4693943 L193.938327,22.0973479 L194.276496,23.1142868 L196.64611,20.4065046 L196.984278,21.0804091 L197.998784,20.068336 Z M190.554208,21.7591793 C190.892377,22.0973479 190.554208,22.4330837 190.216039,22.7761181 L188.525196,22.7761181 C188.525196,22.4330837 188.863365,22.0973479 189.201533,22.0973479 L190.554208,21.7591793 Z M207.815407,19.7253016 L207.815407,21.0804091 C207.815407,21.4234435 207.472372,21.4234435 207.472372,21.4234435 L206.798468,21.7591793 L206.798468,20.068336 L207.136637,19.7253016 C207.474805,19.3871329 207.815407,19.7253016 207.815407,19.7253016 Z M191.906883,20.4065046 C191.906883,21.0804091 191.568714,21.4234435 191.230545,21.4234435 L189.539702,21.4234435 C189.539702,20.7446733 189.880304,20.4065046 190.216039,20.4065046 L191.906883,20.4065046 Z M191.230545,19.3895658 L192.923821,19.7277345 C192.901331,20.0919618 192.611628,20.382707 192.247484,20.4065046 L190.554208,20.068336 C190.554208,19.3895658 191.230545,19.3895658 191.230545,19.3895658 Z M202.39741,17.6962896 C202.735578,17.6962896 203.07618,18.0344583 203.07618,18.0344583 C202.849112,19.1616872 202.735578,19.6125787 202.735578,19.3871329 L202.39741,17.6962896 Z M192.921389,18.3750598 L194.276496,18.7132285 C194.276496,19.3871329 193.938327,19.3871329 193.597726,19.3871329 L191.906883,18.7132285 C191.906883,18.3750598 192.58322,18.0344583 192.921389,18.3750598 Z M201.723505,17.3605538 L202.061674,19.0513971 C201.723505,19.0513971 201.387769,19.0513971 201.044735,18.7132285 L200.706566,17.0223852 C201.044735,17.0223852 201.385337,17.0223852 201.723505,17.3605538 Z M194.614665,17.3605538 L195.969772,18.3774927 C195.631604,18.7156614 195.293435,19.0513971 194.955266,18.7156614 L193.600159,18.0344583 C193.600159,17.3605538 194.278929,17.3605538 194.614665,17.3605538 Z M199.689628,17.0223852 L200.704133,18.3774927 C200.365965,18.7156614 199.689628,18.7156614 199.689628,18.3774927 L198.675122,16.6842165 C199.01329,16.6842165 199.689628,16.6842165 199.689628,17.0223852 Z M196.305508,17.0223852 L197.660616,18.0344583 C197.320014,18.3774927 196.64611,18.7132285 196.64611,18.3774927 L195.291002,17.0223852 L196.305508,17.0223852 Z M197.998784,17.0223852 L199.01329,18.0344583 C198.675122,18.3774927 198.336953,18.3774927 197.998784,18.0344583 L196.984278,16.6842165 C197.322447,16.6842165 197.998784,16.6842165 197.998784,17.0223852 Z" id="chrysler" fill="#FFFFFF"></path>
</svg>