<?xml version="1.0" encoding="UTF-8"?>
<svg width="400px" height="362px" viewBox="0 0 400 362" version="1.1" xmlns="http://www.w3.org/2000/svg">
    <title>citroen</title>
    <path d="M387.920677,342.219658 C352.999928,312.25778 249.250923,227.000052 200,227.000052 C150.727365,227.000052 47.0579721,312.199841 12.1155099,342.183446 C11.9056235,335.100362 11.7102121,330.798367 11.7102121,324.490222 C11.7102121,324.490222 10.8561916,314.075627 20.0622422,303.653789 C95.80951,234.973953 175.226171,201.36914 177.665195,200.340717 C201.346168,190.324455 200.014475,192.207483 199.992763,152.012071 C199.992763,152.012071 201.049432,151.946889 201.722516,152.019314 C235.072736,155.039401 324.737642,242.122218 377.802707,300.995823 C377.896794,301.097216 388.276158,313.119628 388.276158,325.793857 C388.289788,331.732638 388.116089,337.591753 387.920677,342.219658 M386.494898,293.072619 C380.856915,286.815171 248.071217,140.14175 200,140.14175 C151.943258,140.14175 19.1503221,286.815171 13.5195773,293.065376 L13.5123399,293.072619 C12.9622928,293.688224 0,308.513451 0,325.801099 C0,339.257509 0.890207715,352.800828 0.904682637,352.931192 C0.933632482,353.55404 1.24484331,359.275549 4.42208873,360.832668 C4.93594847,361.086153 5.49323297,361.216516 6.0649924,361.216516 C7.24469856,361.216516 8.56191648,360.68782 9.98769632,359.644912 C11.4207136,358.377489 146.696099,238.812434 200,238.812434 C253.311138,238.812434 388.593761,358.377489 389.947167,359.586973 C391.423609,360.673335 392.755301,361.216516 393.949483,361.216516 C394.528479,361.216516 395.071289,361.086153 395.592386,360.839911 C398.762394,359.290034 399.073605,353.561282 399.102555,352.916707 C399.109792,352.815313 400,339.271994 400,325.815584 C400,308.513451 387.037707,293.688224 386.494898,293.072619 M387.732503,202.71623 C352.847941,172.790564 249.200261,87.6197454 200.007237,87.6197454 C150.785265,87.6197454 47.2171962,172.739867 12.3109213,202.68726 C12.101035,195.618661 11.9056235,191.309424 11.9056235,185.015764 C11.9056235,185.015764 11.0516031,174.608411 20.2504162,164.201058 C95.9253094,95.5864037 175.262358,62.0178029 177.694145,60.9893797 C201.353405,50.98036 200.021712,52.8633883 200,12.7114308 C200,12.7114308 201.049432,12.6462491 201.729753,12.7186732 C235.043787,15.738761 324.621843,102.734669 377.629008,161.543091 C377.723095,161.644485 388.094587,173.652412 388.094587,186.319398 C388.101614,192.243695 387.920677,198.095568 387.732503,202.71623 M386.306724,153.619888 C380.668741,147.369682 248.020554,0.841110065 200,0.841110065 C151.993921,0.841110065 19.3312586,147.369682 13.7077513,153.612645 L13.7005139,153.619888 C13.1504668,154.235493 0.19541145,169.046235 0.19541145,186.319398 C0.19541145,199.761324 1.09285663,213.290158 1.10009409,213.420521 C1.12904393,214.043369 1.44025476,219.757636 4.61026272,221.314755 C5.12412246,221.56824 5.68140696,221.691361 6.25316639,221.691361 C7.43287255,221.691361 8.74285301,221.162665 10.1686328,220.119757 C11.6088876,218.852334 146.746761,99.4103996 200,99.4103996 C253.260476,99.4103996 388.405587,218.852334 389.758993,220.061817 C391.228197,221.14818 392.55989,221.684119 393.754071,221.684119 C394.333068,221.684119 394.875878,221.560998 395.396975,221.307513 C398.559745,219.757636 398.878194,214.036127 398.899906,213.391552 C398.907143,213.290158 399.797354,199.761324 399.797354,186.319398 C399.804589,169.046235 386.856771,154.235493 386.306724,153.619888" id="citroen" fill="#FFFFFF"></path>
</svg>