<?xml version="1.0" encoding="UTF-8"?>
<svg width="400px" height="224px" viewBox="0 0 400 224" version="1.1" xmlns="http://www.w3.org/2000/svg">
    <title>corvette</title>
    <path d="M399.87878,4.81539067 L354.964589,86.1634714 C352.897999,89.5751656 350.986176,89.9120106 349.461269,90.3398949 C349.461269,90.3398949 291.769725,104.476007 291.5353,104.539735 C290.722775,104.728641 290.383654,104.967619 290.080948,105.613997 C290.031091,105.711392 288.765047,108.350436 287.534888,110.916248 L287.262619,111.48416 C286.179978,113.742485 285.198971,115.789904 285.198971,115.789904 C284.008633,118.150096 282.194677,119.21753 280.474036,119.608999 C280.474036,119.608999 268.16124,122.60169 253.788334,126.094507 L252.858294,126.320519 C252.081048,126.5094 251.298485,126.699571 250.512197,126.890645 L249.484624,127.140353 C248.455201,127.39051 247.42062,127.641917 246.384418,127.893714 L244.268581,128.407859 L242.714452,128.785503 C242.024382,128.953185 241.335446,129.120589 240.648691,129.287462 L239.620327,129.537339 C224.052255,133.320139 209.884407,136.761718 209.452077,136.863204 C206.158734,137.625657 203.705227,140.507048 202.196253,144.039369 C202.00053,144.503082 195.887221,159.313919 189.113702,175.727534 L188.661213,176.82401 C188.358979,177.55639 188.055672,178.291377 187.751753,179.027851 L187.067097,180.686957 C186.990953,180.871477 186.914792,181.056036 186.838621,181.240619 L185.905945,183.50078 C178.293264,201.948753 170.881042,219.913718 170.881042,219.913718 C170.307496,221.306618 169.454003,221.600219 168.532231,221.766366 L159.560317,223.33224 C158.631718,223.509766 158.14921,222.69269 158.522471,221.652567 L223.107958,65.5521956 C224.148081,63.0235817 225.41125,60.6702183 227.491496,58.9245416 C229.269036,57.5225378 231.05568,57.0627898 233.13365,56.5370384 L315.041622,36.4446861 L320.08747,25.7361997 C321.327879,23.0641991 323.043968,22.0923556 325.884391,21.4186655 L398.875073,3.6569168 C399.942508,3.44980261 400.181486,4.18722016 399.87878,4.81539067 Z M207.506114,139.626244 L241.477393,221.654843 C241.855206,222.69269 241.361318,223.509766 240.432718,223.33224 L231.463081,221.766366 C230.543585,221.600219 229.694644,221.306618 229.111993,219.913718 L200.944464,151.75039 C200.630378,151.006144 200.516579,150.441701 200.839769,149.640556 C201.315448,148.463875 202.382883,145.871533 202.926842,144.542361 C203.914618,142.111614 205.362141,140.306762 206.607102,139.337194 C206.909807,139.089113 207.246653,139.002625 207.506114,139.626244 Z M186.578477,184.210418 C195.493591,185.339991 204.514117,185.363689 213.435042,184.280973 L217.930103,195.146502 C212.086408,195.855236 206.205085,196.208663 200.318569,196.204864 C194.116523,196.204864 188.023725,195.811089 182.081141,195.069119 L186.578477,184.210418 Z M319.518475,98.7109497 C319.304533,144.01661 281.68941,182.077825 230.573173,193.029841 L226.01666,182.009545 C265.329665,172.459533 294.730776,141.528963 297.500643,104.105023 L319.518475,98.7109497 Z M81.1209393,98.8588884 L103.150151,104.262065 C105.974642,141.431096 135.075324,172.163655 174.037827,181.868435 L169.479039,192.90011 C118.79979,181.779671 81.4168167,143.923294 81.1209393,98.8588884 Z M1.12023882,3.65919278 L74.1200245,21.4209415 C76.9558957,22.0969076 78.6651568,23.0664751 79.9078419,25.7384757 L84.9559658,36.4469621 L166.866214,56.5393144 C168.941907,57.0650658 170.724,57.5270898 172.510644,58.9268175 C174.581786,60.6724943 175.842679,63.0235817 176.88963,65.5544716 L199.278446,119.752386 C199.442317,120.137026 199.437765,120.482975 199.33307,120.733333 L192.591617,137.049834 C192.484646,137.266053 192.354915,137.32978 192.106833,137.279708 L119.519,119.611275 C117.798359,119.219806 115.995782,118.152372 114.798617,115.79218 L109.921192,105.616273 C109.618486,104.969895 109.265709,104.730917 108.464564,104.542011 L108.441029,104.536109 L108.297256,104.500616 C106.676212,104.101367 93.5864893,100.892573 80.2781105,97.630694 L78.5788476,97.2142079 C64.9891115,93.8834106 51.6706284,90.6195859 50.6068954,90.3589085 L50.5385947,90.3421709 C49.0068601,89.9120106 47.0950368,89.5728896 45.0284469,86.1634714 L0.123359536,4.81539067 C-0.181621797,4.18949614 0.0528041528,3.45207859 1.12023882,3.65919278 Z M312.062364,43.2999382 L242.685939,60.4221365 C240.881086,60.8705045 236.449753,62.4614146 234.364955,67.5505061 L208.760179,129.523168 C208.480234,130.176375 208.609965,130.597431 208.764731,130.836409 C209.001433,131.189186 209.386074,131.309813 209.911825,131.189186 L253.276074,120.710573 L275.617095,115.209529 C278.569041,114.435696 281.15683,112.271239 282.53835,109.426264 C282.53835,109.425854 282.649028,109.19088 282.857103,108.749491 L283.097152,108.24034 C284.760582,104.712478 289.91311,93.7901165 295.501214,81.945036 L295.995334,80.8976519 C296.325398,80.198019 296.656658,79.4958519 296.988494,78.792468 L297.91032,76.8384964 C298.140899,76.3497439 298.371479,75.8609922 298.601851,75.3726811 L299.062257,74.3967766 L299.280649,73.9338595 L299.716651,73.0096852 C299.789218,72.8558684 299.861731,72.7021672 299.934182,72.5485954 L300.368105,71.62883 L300.800247,70.7128418 L301.204028,69.8569696 C307.514087,56.4819059 313.04719,44.7541572 313.274997,44.2713062 L313.282289,44.2558498 L313.022828,43.6299553 C312.811026,43.3194656 312.420274,43.1852026 312.062364,43.2999382 Z M89.9016705,44.3286812 L120.433944,109.068935 C121.649317,111.565685 124.011784,113.723314 126.943247,114.492596 C149.880574,120.073299 169.674773,125.20791 192.630308,130.472252 C193.105988,130.576947 193.351794,130.429008 193.096884,129.837254 L167.48528,67.8691434 C165.744155,63.6130606 162.205006,61.7808966 159.601285,61.1413462 L90.2157558,44.010044 C89.967674,43.9485925 89.7878715,44.0897033 89.9016705,44.3286812 Z M117.629936,51.8098278 L141.618766,57.731928 L150.620268,79.5153335 L173.657738,85.1028647 L182.884562,107.421126 L159.817503,101.765315 L168.910044,123.762663 L146.261766,118.250239 L136.695821,96.041225 L112.422494,90.0258096 L101.761803,67.4276032 L127.070702,73.7047563 L117.629936,51.8098278 Z M127.070702,73.7047563 L136.695821,96.041225 L159.817503,101.765315 L150.620268,79.5153335 L127.070702,73.7047563 Z M276.368168,73.5955093 L273.757619,79.4720899 L293.863627,74.5332131 L284.559421,86.2499586 L269.050892,90.0462934 L266.444895,95.9001143 L243.264038,101.674276 L245.740304,95.7567275 L225.761751,100.652361 L235.038646,88.9697549 L250.144325,85.2576313 L252.55914,79.4925737 L276.368168,73.5955093 Z M383.830845,13.814616 L332.015882,26.505481 C329.9675,27.0289564 328.30831,27.8551372 326.307724,30.3427835 C326.289516,30.3700952 324.325345,33.9752477 324.325345,33.9752477 L294.753535,96.7877465 L294.992513,97.5046802 C295.094932,97.6548949 295.37943,97.9826361 295.952977,97.8392493 L340.095611,87.0351718 C342.073438,86.5412841 346.149718,85.5421288 348.785303,80.8171941 C348.785303,80.814387 354.924014,69.689037 362.153825,56.5872318 L362.611848,55.7572067 C362.841538,55.3409655 363.07221,54.9229454 363.303705,54.5034343 L363.787124,53.6273923 C363.948626,53.3347236 364.110471,53.0414324 364.272606,52.747615 L364.80227,51.7877741 C365.067548,51.3070452 365.333445,50.8251965 365.59973,50.342646 L366.132747,49.3767333 L366.399516,48.8933075 L367.488905,46.9191694 C368.022563,45.9521016 368.555594,44.9861745 369.08615,44.0247325 L369.615814,43.0649094 C369.859018,42.6241924 370.101567,42.1846605 370.343283,41.746639 L370.825552,40.8727065 C378.041314,27.7968232 384.39932,16.2757249 385.048595,15.099199 L385.08337,15.0361857 C385.096475,15.0124382 385.103117,15.0004016 385.103117,15.0004016 L384.921039,14.1469091 C384.707097,13.807788 384.338388,13.696265 383.830845,13.814616 Z M15.6637517,13.7395086 L51.7448642,79.1306929 C54.2552702,83.6325815 58.1949918,84.5816652 60.0362597,85.0345853 L104.178894,95.8386628 C104.502083,95.9228741 104.618158,95.7271398 104.490703,95.4380903 L75.5243043,33.9183482 C74.7800588,32.3524739 74.186028,30.8685349 73.2210124,29.5598463 C71.441196,27.3293858 69.9299452,26.4713413 67.8542513,25.93421 L16.0483923,13.245621 C15.6091281,13.1477538 15.4407056,13.2683808 15.6637517,13.7395086 Z M67.6234478,66.1420937 L92.6055349,72.259509 L103.102355,94.5459061 L78.2258926,88.4599353 L67.6234478,66.1420937 Z M352.142374,30.0969776 C352.52929,34.0435271 351.074939,37.7715825 348.965105,40.9420228 C346.156546,45.152586 342.799475,48.6393875 339.581239,55.7176856 L340.257206,55.5401592 C343.107016,50.4799461 346.458166,45.7189495 350.260138,41.3289394 C351.700833,39.5741588 353.999573,37.1616198 356.261898,37.1525159 C357.185946,37.1525159 357.679833,37.8034462 357.814116,39.0188196 C358.039438,41.0694777 356.808133,43.9121768 355.342402,45.2367972 C352.920759,47.4080823 351.616622,48.1045322 350.169099,50.3691324 C349.823081,50.8919854 349.529571,51.4477483 349.292847,52.0283219 C349.176772,52.3287512 348.746611,52.4903458 348.625984,51.9213508 C348.555429,51.5731258 348.705644,51.1338617 348.808063,50.8448122 C349.506789,48.7600144 350.47408,47.9042459 350.963416,46.1517412 C351.131838,45.5645384 350.824581,45.1935536 350.171375,45.5008109 C350.141262,45.5169179 350.104846,45.5348025 350.062318,45.5557494 L349.916589,45.6290614 C349.671063,45.7566634 349.305627,45.972289 348.837651,46.3929951 C346.211169,48.810086 343.445854,52.1102571 341.361056,55.2602136 L342.970174,54.8550891 L338.591188,63.7723792 L336.743092,64.2321272 C336.454043,64.7260148 336.187753,65.2563182 336.039814,65.8662809 C335.746213,67.1476577 336.954758,66.8677121 337.298431,66.5627308 C337.89929,66.0301514 338.591188,65.1174834 339.066868,64.5371085 C339.565308,63.9316978 340.298173,63.1146209 341.053799,62.7732239 C341.804872,62.422723 342.448974,63.1237248 341.729765,63.5356772 C341.235547,63.8364016 340.821013,64.2517158 340.521219,64.7464987 C339.774698,65.8822127 339.25805,67.0019949 338.502425,68.0443938 C337.587481,69.3098388 336.617913,70.3408577 335.438956,70.9576483 C334.580911,71.4060164 333.420161,71.4128444 333.75473,69.4168098 C334.114335,67.3229081 334.865409,66.2349896 335.514063,64.5393845 L334.935964,64.6873232 C333.895841,66.8267445 333.206219,68.8136751 333.12656,69.7968985 C332.992277,71.4151203 332.744195,72.3915158 332.156992,73.4339147 C331.104472,75.241599 329.6914,76.8134863 328.005605,78.0518783 C327.782559,78.2180249 327.543581,78.1588494 327.482129,77.7878646 C327.099765,75.5096085 328.167199,73.4088789 329.510028,71.6632022 C331.123697,69.5761284 332.644052,67.8372796 333.857149,64.9558888 L333.251739,65.1038275 C332.043193,67.4162233 331.207909,68.7317398 329.585135,70.6048714 C328.419833,71.9499757 327.416126,72.7374648 326.53077,73.1539691 C325.797904,73.4862622 324.694054,73.6046132 325.131042,71.8293487 C325.451955,70.54342 326.134749,69.6353039 326.801611,68.365307 C327.122524,67.7371365 327.459369,67.1795214 327.427506,66.6219063 C327.370606,65.8162093 328.458525,65.8435211 328.542736,66.7311533 C328.590532,67.1681415 328.622395,67.8031399 328.683847,68.2333002 C328.813578,69.1072765 329.425816,68.9069903 329.892392,68.4700021 C330.779872,67.5635597 331.522224,66.5256483 332.093265,65.392877 L330.274757,65.854901 L334.626431,56.9626467 L336.497286,56.4937948 C337.155045,54.4954843 337.293879,51.9987341 336.834131,50.0095275 C336.58605,48.8806414 335.748489,48.2911625 334.646915,49.5361236 C333.331398,51.0132347 332.44149,53.38253 331.019002,55.9225238 C330.760824,56.3487772 330.462858,56.7496219 330.129094,57.1196893 C329.896944,57.3290795 329.578307,57.2494202 329.714866,56.6485615 C329.817285,56.2115733 330.079023,55.326217 330.17689,54.5592117 C330.36352,53.1617599 330.381728,51.8075518 330.825544,49.9958716 C331.626689,46.7662559 333.35871,43.8689332 335.955603,42.3781662 C337.43499,41.5929531 339.956776,40.7667723 340.960483,41.9138663 C342.00971,43.1178598 341.320088,45.8786236 340.787509,47.6538881 C339.956776,50.4601716 338.707263,53.3506663 337.653484,56.1956414 L338.263447,56.0477027 C340.455216,51.1224818 342.250964,45.7693766 344.08768,40.5573822 C344.879721,38.4384447 346.022263,35.76872 347.54717,33.5837791 C348.689712,31.9564534 350.414905,30.4770663 351.596138,29.8762075 C352.030851,29.6873012 352.112786,29.710061 352.142374,30.0969776 Z M46.5488016,21.7555106 C46.5488016,21.7555106 51.425175,22.9544029 56.4214576,24.1793398 L57.1712048,24.363129 C61.6679489,25.4652773 66.0691826,26.5410213 66.9074436,26.735355 C70.1848549,27.5091882 72.6110497,29.475635 73.8560108,32.4344092 C74.0885455,32.9859337 75.6622203,36.3377552 77.361569,39.9394032 L77.6917182,40.638931 C77.8200905,40.910855 77.9487291,41.1832593 78.07712,41.4550659 L78.3334195,41.9975625 C80.208295,45.9653408 81.956224,49.6499227 81.956224,49.6499227 L56.8726473,43.5047764 L67.6214478,66.1400937 L42.15616,59.8941091 L29.3947396,36.7701513 L56.8749233,43.5047764 L46.5488016,21.7555106 Z M200.318569,0.425025056 C239.574674,0.425025056 274.403997,16.0177647 296.123675,40.0589425 L276.950819,44.7633934 C259.120791,24.5481381 231.426665,11.5636717 200.318569,11.5636717 C169.151298,11.5636717 141.402548,24.6050376 123.574796,44.8976762 L104.399664,40.1955013 C126.10341,16.0678363 160.991909,0.425025056 200.318569,0.425025056 Z" id="corvette" fill="#FFFFFF"></path>
</svg>