<?xml version="1.0" encoding="UTF-8"?>
<svg width="400px" height="309px" viewBox="0 0 400 309" version="1.1" xmlns="http://www.w3.org/2000/svg">
    <title>cupra</title>
    <path d="M0,0.923110633 C65.6169419,23.7463948 130.882756,47.6230613 196.653317,69.9854906 C198.979536,70.8852547 201.28381,70.8852547 203.610029,69.9854906 C269.270862,47.5133339 334.492785,23.8341766 400,0.923110633 C376.759752,37.9670564 353.300049,74.8793294 329.555056,111.594093 C318.582323,106.875818 307.280408,102.94758 296.219894,98.4268139 C302.627969,87.1468447 309.518846,76.130221 316.014703,64.8941426 C294.859275,75.5376934 273.330773,85.4350983 252.328963,96.3858856 C267.010479,101.981979 281.713941,107.468346 296.28573,113.371676 C304.405552,116.685441 313.117902,123.071572 313.666539,132.595904 C314.961321,143.173618 307.741263,151.820132 302.627969,160.291081 C270.982608,209.800051 239.512811,259.440694 207.713831,308.861883 C207.889395,295.826276 206.397103,282.658997 207.933286,269.711172 C220.442201,230.011825 232.797498,190.268587 244.187195,150.240058 C246.425632,144.292837 239.776156,141.110744 235.49679,139.025925 C223.426784,133.693177 212.12487,126.626737 199.769573,122.06208 C187.238712,127.48261 175.212597,134.044304 162.923136,139.991526 C159.12657,141.747163 153.771877,145.214546 155.944478,150.174222 C167.246393,190.224696 179.733363,229.945989 192.154496,269.667281 C193.53706,282.637051 192.220332,295.804331 192.286169,308.861883 C160.991935,259.879604 129.763538,210.831488 98.5131947,161.827264 C93.0707193,152.807677 85.1703517,143.590582 86.5309705,132.332558 C87.2551709,122.874063 95.9236298,116.597659 104.043452,113.30584 C118.483568,107.424455 133.143139,102.047816 147.692983,96.3639402 C126.735063,85.4570438 105.294344,75.471857 84.1608603,64.9160881 C90.6347726,76.1521664 97.5256488,87.1468447 103.911779,98.4487594 C92.7854282,102.881743 81.5274044,106.985545 70.4449443,111.528257 C46.7877325,74.7696021 23.3719208,37.8353836 0,0.923110633 L0,0.923110633 Z" id="cupra" fill="#FFFFFF"></path>
</svg>