<?xml version="1.0" encoding="UTF-8"?>
<svg width="400px" height="112px" viewBox="0 0 400 112" version="1.1" xmlns="http://www.w3.org/2000/svg">
    <title>dacia</title>
    <path d="M0,0.130134706 L0,37.2940118 L137.539754,37.2940118 L137.539754,74.7700178 L0,74.7700178 L0,111.933895 L151.862503,111.933895 C155.345738,111.933895 157.642081,110.967523 160.016338,108.58028 L199.999292,69.6878892 L239.983662,108.58028 C242.357919,110.967287 244.654262,111.933895 248.137497,111.933895 L400,111.933895 L400,74.7700178 L262.459302,74.7700178 L262.459302,37.2940118 L400,37.2940118 L400,0.130134706 L248.137261,0.130134706 C244.654026,0.130134706 242.357683,1.09650648 239.983426,3.48351323 L199.999528,42.3761404 L160.016338,3.48351323 C157.642081,1.09650648 155.345738,0.130134706 151.862503,0.130134706 L0,0.130134706 Z" id="dacia" fill="#FFFFFF"></path>
</svg>