<?xml version="1.0" encoding="UTF-8"?>
<svg width="400px" height="310px" viewBox="0 0 400 310" version="1.1" xmlns="http://www.w3.org/2000/svg">
    <title>daewoo</title>
    <path d="M222.588107,1.7249202 C208.535037,105.923823 205.023926,149.170012 205.670936,309.626488 C201.381256,309.824904 198.842818,309.824904 195.32955,309.753733 C192.530151,148.246944 190.84361,104.537063 175.947269,1.26122926 C192.530151,-0.0565156921 208.53288,0.407175248 222.588107,1.7249202 Z M255.374292,6.74140916 C269.360505,9.25181034 290.174836,16.6514551 301.691625,22.6535569 C247.111966,128.174518 219.922424,187.938888 223.823898,308.707733 L211.267578,309.499242 C212.309265,139.727971 227.921631,105.854808 255.374292,6.74140916 Z M144.595291,6.74140916 C172.041481,105.854808 187.653848,139.727971 188.762392,309.499242 L176.143529,308.707733 C180.11186,187.938888 152.853303,128.174518 98.3426591,22.6535569 C109.852978,16.6514551 130.604765,9.25181034 144.595291,6.74140916 Z M331.805656,40.0257918 C343.320288,47.2205499 361.600494,64.5884714 367.911005,73.1074445 C270.205932,125.202582 240.154445,220.414508 242.686414,306.259876 C238.461434,307.053542 233.777077,307.377048 229.873447,308.11464 C222.652808,184.304845 277.100908,95.2265807 331.805656,40.0257918 Z M68.2221583,40.0257918 C122.993763,95.2265807 177.379319,184.304845 170.158681,308.11464 C166.319751,307.377048 161.570693,307.053542 157.278856,306.259876 C159.815138,220.414508 129.826196,125.202582 32.1211228,73.1074445 C38.4920206,64.5884714 56.7096828,47.2205499 68.2221583,40.0257918 Z M386.969781,102.88503 C433.740021,197.497392 346.831399,287.971043 249.779807,305.071533 C240.60951,198.957479 310.531947,112.989179 386.969781,102.88503 Z M13.0623468,102.511845 C89.4937106,112.615994 159.360073,198.584294 150.252321,304.698348 C53.1317141,287.597858 -33.7769083,197.124207 13.0623468,102.511845 Z" id="daewoo" fill="#FFFFFF"></path>
</svg>