<?xml version="1.0" encoding="UTF-8"?>
<svg width="400px" height="154px" viewBox="0 0 400 154" version="1.1" xmlns="http://www.w3.org/2000/svg">
    <title>daihatsu</title>
    <path d="M107.890432,15.5644287 C196.267313,15.5644287 320.230403,23.5982313 378.766003,47.7021655 C384.505877,49.9986204 388.522778,51.7190668 388.522778,55.7359681 C388.522778,61.4733158 376.472074,64.916735 365.568335,68.3601541 C321.953376,82.1363571 244.475182,98.201436 130.27392,106.240291 L25.2508984,0.643787786 C14.9206409,0.643787786 6.3133562,1.21979627 0,1.79075206 L109.039923,110.830675 L79.1961145,153.872151 C255.381448,125.751316 335.153571,98.2039624 370.734727,82.1363571 C378.195047,78.1194558 400,68.9336363 400,55.7359681 C400,47.6996391 392.53968,43.1092557 383.361439,39.0923544 C346.630792,23.5982313 285.796212,13.2654475 225.53764,8.1015819 C162.985139,1.7882257 79.7695966,0.0677792972 33.8581832,0.641261433 L131.994366,98.7774445 C150.931908,97.6279539 169.295969,95.9049811 186.513064,94.1845347 L107.890432,15.5644287 Z" id="daihatsu" fill="#FFFFFF"></path>
</svg>