<?xml version="1.0" encoding="UTF-8"?>
<svg width="400px" height="412px" viewBox="0 0 400 412" version="1.1" xmlns="http://www.w3.org/2000/svg">
    <title>dodge</title>
    <path d="M200.866039,0.677483135 C270.268921,0.677483135 349.003556,6.56754366 366.192051,10.3860998 C374.550446,12.2454622 400,17.8984228 400,47.4335822 C400,49.6573296 398.492544,272.211769 379.794097,302.595496 C351.097523,349.22431 209.027266,408.816249 202.99245,411.332004 C201.042907,412.145369 198.846418,412.130954 196.907718,411.292071 C191.102515,408.781308 54.3108504,349.311663 20.5478255,303.109629 C0.990827978,276.344795 0,85.4294642 0,47.4310864 C0,17.8984228 25.4445623,12.2454622 33.8054533,10.3860998 C50.9939477,6.56754366 130.474824,0.677483135 200.866039,0.677483135 Z M200.868534,16.2611856 C129.379173,16.2611856 51.9498347,22.318464 37.1897423,25.5979299 C21.4413178,29.0995209 15.5861983,35.0170351 15.5861983,47.4310864 C15.5861983,133.445936 20.3481625,276.422164 33.1315904,293.912649 C59.8008361,330.411682 163.560426,379.173763 194.395546,393.114874 L196.282238,393.96552 C197.76768,394.633351 199.033007,395.197605 200.054907,395.650965 C220.919698,386.711051 342.584389,333.333626 366.523991,294.429277 C379.741686,272.940539 384.413802,91.7862371 384.413802,47.4310864 C384.413802,35.0145394 378.561178,29.0995209 362.815249,25.5979299 C348.055157,22.318464 271.339614,16.2611856 200.868534,16.2611856 Z M222.507019,319.072691 C225.886317,321.578463 213.42235,330.720535 200.431771,330.932677 C187.446185,331.152307 176.050415,321.890436 178.356523,319.419606 C182.811506,314.637675 190.585886,321.628378 199.890185,317.512823 C208.984838,321.408749 216.554564,314.655146 222.507019,319.072691 Z M83.985774,105.781635 C125.845136,105.45567 137.335746,186.808387 154.33456,182.827605 C154.910374,182.692119 154.078536,184.172676 154.40471,184.346857 L154.463,184.361483 L154.306749,184.375446 C146.527711,185.284757 152.503505,209.785787 154.489663,212.629441 L154.549198,212.709679 C155.406304,213.790224 158.991155,215.113807 162.688271,216.345935 L163.510637,216.618099 C164.880784,217.068745 166.239754,217.503446 167.454668,217.905209 L168.165267,218.142178 C170.008429,218.762831 171.414773,219.29046 171.84002,219.655458 C173.354963,220.950772 175.978037,232.835716 174.24596,233.269983 C172.513883,233.70425 169.266862,222.448245 157.144818,226.129533 C157.264616,229.815812 158.335309,231.912274 159.917639,233.744183 C162.366007,234.690087 171.612903,237.917141 173.162788,239.983654 C174.054651,241.170388 176.212805,248.280133 178.239809,255.732476 L178.503343,256.706005 C180.560061,264.340015 182.416435,272.078389 182.581893,273.968804 C183.53778,284.902853 177.954701,287.675674 180.0886,295.607289 C180.982093,298.936671 191.756411,295.749549 195.574967,299.380921 C198.312847,301.984028 198.896862,308.345793 195.672303,314.223374 C194.257191,316.806515 176.869034,315.880578 172.950646,312.27666 C170.613197,310.12554 169.076028,303.810337 167.568684,297.128064 L167.336917,296.097638 C166.21684,291.108199 165.091408,286.023462 163.643851,282.404569 C160.179697,273.746679 154.119923,268.11618 148.060148,258.592252 C142.000374,249.070819 133.774256,215.739566 134.208523,207.076684 C132.036964,205.269138 127.862066,202.856143 123.548075,200.406593 L122.622199,199.881337 C116.907879,196.641366 111.183199,193.408518 109.749797,191.495478 C107.151682,188.031324 107.580957,167.683161 113.860361,170.715544 C113.236414,159.392152 102.923816,161.890436 100.530355,166.54009 C97.4206027,172.584889 97.5778374,184.739379 96.1103138,186.084609 C99.1402009,186.301742 101.304049,204.049293 98.9230673,205.78137 C101.952954,206.215637 104.55107,225.478132 101.952954,226.561304 C104.765708,226.99058 109.852125,245.699009 103.899669,247.770514 C93.9414738,251.237164 61.0419916,211.841144 58.8781431,175.045737 C58.6510264,171.179761 51.7626505,172.722158 47.1030137,168.551695 C44.5922506,166.305486 42.4184189,106.107071 83.985774,105.781635 Z M316.880265,105.434721 C358.445124,105.760156 356.276284,165.958571 353.765521,168.204781 C349.105884,172.375243 342.217508,170.832846 341.987895,174.698822 C339.824047,211.49423 306.924565,250.890249 296.966369,247.423599 C291.013914,245.352095 296.102826,226.648657 298.91558,226.21439 C296.317464,225.131217 298.91558,205.868723 301.947963,205.434456 C299.564485,203.702379 301.728333,185.954828 304.760716,185.737694 C303.293193,184.392464 303.450427,172.237975 300.340675,166.195671 C297.947214,161.543522 287.637112,159.045238 287.013165,170.371125 C293.287577,167.341238 293.721844,187.686905 291.121233,191.151059 C289.72523,193.012396 284.267497,196.123163 278.710618,199.27426 L277.784233,199.799609 C273.308836,202.338596 268.911957,204.860164 266.665003,206.732266 C267.09927,215.395147 258.870656,248.726401 252.810882,258.252825 C246.751108,267.771762 240.688838,273.40226 237.227179,282.06015 C235.933653,285.290706 235.432397,289.370867 234.904482,293.56326 L234.776852,294.571212 C233.916978,301.300223 232.821144,308.165537 228.135022,312.146879 C224.663381,315.0969 206.042304,316.412181 204.544831,313.87646 C201.320272,308.425658 202.341049,301.851752 205.076434,299.248644 C208.892494,295.617272 219.886442,298.589756 220.777438,295.260375 C222.911337,287.328759 217.325763,284.550947 218.286641,273.621889 C218.45688,271.691253 220.388845,263.66116 222.496388,255.872012 L222.76063,254.900082 C224.747587,247.626899 226.830776,240.797675 227.703251,239.636739 C229.253135,237.575218 238.500031,234.343172 240.9484,233.397268 C242.533225,231.560368 243.603918,229.463906 243.72122,225.782618 C231.599176,222.10133 228.352156,233.357336 226.620079,232.923069 C224.888001,232.488802 227.511075,220.603857 229.028514,219.308543 C230.538466,218.008237 244.724527,214.858553 246.319336,212.362764 C247.979734,209.756038 254.412517,184.943415 246.561633,184.028476 L246.405,184.014483 L246.463179,183.999942 C246.787526,183.825762 245.955902,182.345205 246.533974,182.48069 C263.532788,186.461473 275.020902,105.108755 316.880265,105.434721 Z M40.6514008,175.697137 C43.5315405,174.094841 51.5180633,174.544083 53.4647782,177.860986 C56.379859,182.830101 53.891558,202.736509 68.6117177,225.69277 C101.997879,277.759907 109.415362,267.911526 109.954452,274.610222 C111.077557,288.526738 61.4712672,280.674987 60.6052287,264.22275 C59.2442189,264.643009 56.1599855,261.109612 53.5839597,257.006745 L53.2436971,256.456618 C50.6611099,252.217666 48.7131997,247.540821 49.7834904,246.040932 C46.1046983,246.689837 39.8277906,226.993076 42.8576777,225.695266 C39.0341299,225.672804 35.1956074,205.59169 38.2254945,204.051789 C34.763836,203.18575 37.2671117,177.581458 40.6514008,175.697137 Z M360.217134,174.48668 C363.603918,176.371 366.104698,202.841332 362.640544,203.70737 C365.672927,205.249767 361.8369,225.328385 358.010857,225.353343 C361.04324,226.653648 354.763836,246.347914 351.085044,245.699009 C353.248892,248.731392 343.076059,264.749362 340.263306,263.880827 C339.394771,280.333064 289.790978,288.184815 290.914082,274.268299 C291.455669,267.569603 298.873152,277.417984 332.254321,225.350847 C346.976976,202.389594 344.488675,182.48069 347.40126,177.516567 C349.34548,174.197169 357.334498,172.884384 360.217134,174.48668 Z M110.398702,68.5180023 C115.000936,64.6046061 138.224247,67.6769216 139.050353,71.7650229 C142.906346,68.9248158 158.93929,78.9553892 157.975916,82.2423424 C162.208773,80.3355601 173.89655,91.0399964 173.909029,93.7604057 C176.30249,91.5017172 190.5185,101.669559 193.982654,109.246772 C197.446809,116.82149 189.265614,155.134337 189.265614,155.129346 C185.798964,169.84701 169.900792,166.575031 163.636364,157.510328 C140.862295,124.563426 114.629063,102.625446 94.0238348,96.3011183 C81.5748425,92.4775705 61.8106945,110.102828 61.8181797,105.780122 C61.8406439,94.5665453 82.8526861,72.354029 86.7311412,75.7557885 C87.1454421,70.4996582 107.748175,65.5080815 110.398702,68.5180023 Z M290.467336,68.1760793 C293.117864,65.1661585 313.723092,70.1577352 314.137393,75.4138655 C318.013352,72.012106 339.02789,94.2246223 339.045365,105.438199 C339.055344,109.760905 319.293692,92.1356475 306.839708,95.9591952 C286.234479,102.283523 260.003744,124.221503 237.229675,157.165909 C230.965246,166.233108 214.717664,169.505087 211.258501,154.787423 C211.258501,154.787797 211.098683,153.926076 210.834296,152.43604 L210.723095,151.807069 C209.111289,142.658085 204.523342,115.225858 206.319336,109.116991 C208.483185,101.759407 224.566045,91.1572984 226.959506,93.4159869 C226.969489,90.6955776 238.659762,79.9911413 242.890123,81.9004194 C241.924253,78.6134662 257.962189,68.5828928 261.818182,71.4206041 C262.641792,67.3349986 285.865103,64.2601873 290.467336,68.1760793 Z" id="dodge" fill="#FFFFFF"></path>
</svg>