<?xml version="1.0" encoding="UTF-8"?>
<svg width="400px" height="489px" viewBox="0 0 400 489" version="1.1" xmlns="http://www.w3.org/2000/svg">
    <title>ds</title>
    <path d="M0,0.425663994 L193.34221,150.625398 C195.472703,152.223267 198.668442,155.419006 199.733688,159.147368 C200.798935,154.886383 203.994674,152.223267 206.125166,150.625398 L399.467377,0.958287163 L399.467377,6.81714202 C399.467377,8.9476347 398.934754,12.1433737 398.40213,15.3391127 C397.869507,18.5348517 396.271638,21.7305908 393.608522,24.3937066 C388.865372,29.3740136 379.792726,38.4726225 370.528226,47.739965 L362.787901,55.48137 L362.344435,55.9250887 L361.462603,56.8075883 C353.265942,65.011588 346.052676,72.2647937 343.009321,75.5255308 C325.432756,93.6347186 308.388815,115.472269 300.399467,135.711949 C297.203728,144.766543 295.073236,153.288514 295.073236,162.343107 C295.073236,172.462948 296.671105,182.582788 300.399467,193.235251 C317.443409,244.899699 380.825566,305.086117 394.673768,318.401696 C395.739015,319.466942 399.467377,322.662681 400,327.45629 C400,332.782522 395.739015,336.510884 393.075899,338.641376 L199.733688,488.84111 L199.733688,482.982255 C199.733688,479.786516 200.266312,477.1234 200.798935,474.460284 C201.331558,471.264545 203.462051,467.536183 205.592543,465.405691 C206.231691,464.766543 206.949454,464.04878 207.735708,463.262411 L209.838174,461.159351 C210.433758,460.56351 211.056032,459.940884 211.701997,459.294439 L213.194133,457.800995 C213.364086,457.630869 213.53538,457.459393 213.707967,457.286614 L214.758632,456.234669 C218.665223,452.322911 223.152356,447.825197 227.72095,443.234936 L228.968575,441.981123 C229.860643,441.084433 230.75408,440.185933 231.645198,439.289271 L232.535405,438.393357 L233.423246,437.499478 C243.321204,427.532216 252.623169,418.09734 256.191744,414.273866 C273.768309,396.164679 290.81225,374.327129 298.801598,354.087448 C301.997337,345.032854 304.12783,336.510884 304.12783,327.45629 C304.12783,317.33645 302.52996,307.216609 298.801598,296.564146 C282.950732,248.51621 226.561278,193.097621 207.605525,174.863975 L206.435286,173.739645 C205.50466,172.846436 204.687084,172.06348 203.994674,171.397701 C202.929427,170.865078 200.798935,168.201962 199.733688,165.006223 C198.668442,169.267209 195.472703,171.930324 193.34221,173.528194 L0,323.727928 L0,0.425663994 Z M394.04835,335.414232 C393.298417,336.077684 392.578784,336.617408 392.010652,337.043507 L201.864181,485.112748 L201.864,476.061664 L201.855211,476.550049 C201.785391,478.519566 201.331558,480.523994 201.331558,482.982255 L201.331558,485.645371 L391.478029,337.57613 C392.167306,337.059172 393.079585,336.319213 394.034496,335.4284 L394.04835,335.414232 Z M394.288563,320.159377 L394.400825,320.2768 C395.778545,321.730591 397.969374,324.327129 398.40213,326.923667 C398.40213,329.731994 397.217548,331.948029 395.785264,333.649847 C397.178608,332.096762 398.424007,330.309149 398.934754,328.521536 C398.934754,325.006223 396.093807,321.964401 394.876258,320.735374 L394.585024,320.444384 C394.500022,320.361056 394.400687,320.265611 394.288563,320.159377 Z M1.59786951,310.412348 L4.79360852,308.281856 C15.4460719,300.825131 27.1637816,292.835784 42.0772304,280.585451 C56.4580559,269.400364 71.9041278,255.552162 87.3501997,240.10609 C111.318242,215.605424 129.42743,188.974266 129.42743,162.343107 L129.425,162.076664 L129.42201,162.609417 C129.06466,188.974053 111.078562,215.317808 87.3501997,239.573467 C71.9041278,255.019539 56.4580559,268.867741 42.0772304,280.052828 C27.4399566,292.076303 15.8811571,299.995145 5.38652151,307.334398 L4.79360852,307.749233 L1.59786951,309.879725 L1.59786951,310.412348 Z M214.709,178.369664 L377.539934,305.130339 C375.928548,303.810818 374.304039,302.454261 372.643542,301.042883 L214.709,178.369664 Z M214.251,178.988664 L214.688,179.418664 L214.647137,179.387049 C236.892277,201.227731 266.815712,233.510896 285.992578,265.974594 C267.132773,233.694126 237.156251,201.537077 214.863034,179.590323 L214.251,178.988664 Z M207.189,152.223664 C205.592543,153.288514 202.396804,155.951629 201.331558,159.147368 C202.874328,156.061827 205.906671,153.47281 207.072768,152.339121 L207.189,152.223664 Z M397.336884,4.15402618 L207.190413,152.223267 L397.336,4.56766399 L397.336884,4.15402618 Z" id="ds" fill="#FFFFFF"></path>
</svg>