<?xml version="1.0" encoding="UTF-8"?>
<svg width="400px" height="763px" viewBox="0 0 400 763" version="1.1" xmlns="http://www.w3.org/2000/svg">
    <title>ferrari</title>
    <path d="M400,109.643383 L400,742.814722 C399.958922,753.887489 390.985582,762.849696 379.912773,762.877027 L20.0872274,762.877027 C9.04672897,762.877027 0,753.830298 0,742.814722 L0,109.643383 L400,109.643383 Z M96.1246106,673.182323 C84.3115265,673.182323 80.4984424,674.852105 77.1339564,677.61846 C73.7445483,680.359893 72.4735202,686.067059 72.4735202,690.278897 L72.4735202,714.154286 C72.4735202,720.484504 73.7445483,724.920641 77.7570093,728.933102 C81.6311097,732.78314 93.1720952,732.9159 96.2514672,732.920478 L96.8372418,732.921259 C99.678655,732.930644 107.729136,732.989286 113.64486,728.708803 C119.775701,724.222822 118.479751,714.104442 118.479751,714.104442 L103.725857,714.104442 L103.7255,719.925709 C103.710491,722.284868 103.190031,726.989177 96.3489097,726.989177 C89.3956386,726.989177 87.2772586,722.328741 87.2772586,718.964255 L87.2772586,706.951794 C87.2772586,705.880143 88.1246106,704.409738 89.5950156,704.409738 L118.504673,704.409738 L118.504673,689.007869 C118.504673,682.029675 117.034268,679.911295 114.068536,676.970485 C111.102804,674.029675 100.760125,673.182323 96.1246106,673.182323 Z M348.411215,654.116903 L23.7258567,654.116903 L18.2180685,663.811607 L23.0778816,663.811607 C28.3613707,663.811607 28.5607477,670.366124 28.5607477,673.107557 L28.5607477,718.690112 C28.5607477,723.749302 24.3489097,724.1979 22.2305296,724.1979 L18.0186916,724.1979 L18.0186916,731.824068 L54.953271,731.824068 L54.953271,724.222822 L51.165109,724.222822 C45.682243,724.222822 43.364486,720.609115 43.364486,718.715034 L43.364486,700.995407 C43.364486,697.605999 45.4579439,696.758647 48,696.958024 C51.1401869,697.207245 53.482866,700.746186 53.482866,702.864566 L59.8130841,702.864566 L59.8130841,679.437775 L53.5077882,679.437775 C53.5077882,686.16307 49.3577766,686.593404 47.9355816,686.614393 L47.8006231,686.615345 C46.529595,686.615345 43.9875389,685.96737 43.364486,684.297588 L43.364486,669.942448 C43.364486,664.43466 46.953271,663.811607 49.694704,663.811607 L348.411215,663.811607 L348.411215,654.116903 Z M382.105919,674.802261 L356.361371,674.802261 L356.361371,681.157401 C360.149533,681.157401 361.844237,684.098211 361.844237,685.14494 L361.844237,720.833414 C361.64486,724.621576 358.878505,725.49385 356.361371,725.49385 L356.361371,731.824068 L382.105919,731.824068 L382.105919,725.668305 C379.563863,725.668305 376.623053,723.574847 376.623053,720.609115 L376.623053,685.593538 C376.623053,683.051482 379.364486,681.157401 382.105919,681.157401 L382.105919,674.802261 Z M267.662316,672.058866 L266.655312,672.059232 C266.578646,672.059484 266.503886,672.059745 266.431103,672.059982 L266.018692,672.060828 L265.678074,672.061031 C262.157065,672.06692 252.148702,672.24359 247.426791,677.543694 C242.5919,683.051482 243.41433,688.310049 243.41433,690.428429 L257.246106,690.428429 C257.246106,690.428429 258.193146,683.250859 260.11215,681.356778 C262.006231,679.462697 267.065421,677.344317 270.978193,680.733725 C272.423676,681.979831 272.996885,683.574847 272.996885,685.394161 L272.996885,694.465812 C272.996885,695.313164 272.149533,696.584193 271.077882,696.584193 C271.077882,696.584193 266.607247,696.682767 261.601241,697.067309 L260.86529,697.125647 C255.693273,697.548604 250.160894,698.281242 248.498442,699.525002 L248.33854,699.645427 L248.020791,699.883137 C247.651826,700.158499 247.289292,700.428087 246.936712,700.703561 L246.63702,700.941395 C244.111754,702.979852 242.168224,705.507498 242.168224,713.032791 C242.168224,722.328741 244.485981,725.917526 247.227414,727.811607 C247.505028,728.003413 247.767563,728.197518 248.028166,728.391491 L248.223462,728.536908 C248.386249,728.658005 248.549566,728.778813 248.716622,728.898737 L248.919089,729.042183 C248.953201,729.066008 248.987515,729.089788 249.022054,729.113518 L249.232217,729.255265 C251.329601,730.642513 254.394574,731.824068 263.700935,731.824068 L293.258567,731.824068 L293.258567,725.668305 C290.716511,725.668305 287.775701,723.574847 287.775701,720.609115 L287.775701,688.958024 C287.775701,688.666435 287.774893,688.374129 287.772283,688.08146 L287.764361,687.495744 C287.682492,683.100828 287.045483,678.67765 282.492212,675.425314 C278.155763,672.349213 271.475618,672.074561 267.662316,672.058866 Z M224.174455,673.107557 C218.068536,673.107557 210.267913,677.543694 208.772586,678.590423 C207.501558,678.191669 205.4081,676.496965 205.4081,674.802261 L205.4081,674.777339 L186.616822,674.777339 L186.616822,681.132479 C190.404984,681.132479 192.099688,684.073289 192.099688,685.120018 L192.099688,720.808492 C191.900312,724.621576 189.158879,725.468928 186.616822,725.468928 L186.616822,731.799146 L212.361371,731.799146 L212.361371,725.668305 C209.844237,725.668305 206.878505,723.574847 206.878505,720.609115 L206.878505,688.534348 C208.34891,686.415968 213.831776,681.954909 215.950156,682.179208 C218.068536,682.403507 218.691589,684.073289 218.691589,686.391046 L218.691589,704.359893 L233.470405,704.359893 L233.470405,681.132479 C233.470405,676.272666 230.280374,673.107557 224.174455,673.107557 Z M167.202492,673.107557 C161.096573,673.107557 153.29595,677.543694 151.800623,678.590423 C150.529595,678.191669 148.436137,676.496965 148.436137,674.802261 L148.436137,674.752417 L129.64486,674.752417 L129.64486,681.107557 C133.433022,681.107557 135.127726,684.048367 135.127726,685.095096 L135.127726,720.783569 C134.928349,724.596654 132.186916,725.444006 129.64486,725.444006 L129.64486,731.774224 L155.389408,731.774224 L155.389408,725.643383 C152.872274,725.643383 149.906542,723.549925 149.906542,720.584193 L149.906542,688.509426 C151.376947,686.391046 156.859813,681.954909 158.978193,682.179208 C161.096573,682.403507 161.719626,684.073289 161.719626,686.391046 L161.719626,704.359893 L176.498442,704.359893 L176.498442,681.132479 C176.498442,676.272666 173.333333,673.107557 167.202492,673.107557 Z M338.417445,673.107557 C332.311526,673.107557 324.510903,677.543694 323.015576,678.590423 C321.744548,678.191669 319.626168,676.496965 319.626168,674.802261 L319.626168,674.752417 L300.859813,674.752417 L300.859813,681.107557 C304.647975,681.107557 306.342679,684.048367 306.342679,685.095096 L306.342679,720.783569 C306.11838,724.596654 303.401869,725.444006 300.859813,725.444006 L300.859813,731.774224 L326.604361,731.774224 L326.604361,725.643383 C324.062305,725.643383 321.121495,723.549925 321.121495,720.584193 L321.121495,688.509426 C322.5919,686.391046 328.074766,681.954909 330.193146,682.179208 C332.311526,682.403507 332.934579,684.073289 332.934579,686.391046 L332.934579,704.359893 L347.713396,704.359893 L347.713396,681.132479 C347.713396,676.272666 344.523364,673.107557 338.417445,673.107557 Z M269.05919,702.465812 C272.34891,702.465812 272.971963,705.207245 272.971963,707.02656 L272.971963,724.222822 L272.996885,724.222822 C272.996885,724.746186 272.149533,725.49385 271.501558,725.49385 L264.224299,725.49385 C259.040498,725.49385 257.570093,721.057713 257.570093,718.31628 L257.570093,710.191669 C257.570093,702.718401 264.929309,702.470546 268.488373,702.465586 Z M95.7009346,679.462697 C103.102804,679.462697 103.725857,684.970485 103.725857,687.911295 L103.725857,695.512541 C103.712346,696.910845 102.582105,698.041086 101.183801,698.054597 L89.7943925,698.054597 C88.5482866,698.054597 87.2523364,697.007869 87.2523364,695.73684 L87.2523364,687.911295 C87.2523364,684.521887 88.2990654,679.462697 95.7009346,679.462697 Z M368.249221,653.718149 C360.872274,653.718149 354.890966,655.96114 354.890966,658.727495 C354.890966,661.49385 360.872274,663.73684 368.249221,663.73684 C375.65109,663.73684 381.632399,661.49385 381.632399,658.727495 C381.632399,655.96114 375.65109,653.718149 368.249221,653.718149 Z M193.64486,169.73061 L189.981308,175.811607 L189.806854,177.705688 L191.52648,179.973601 L191.700935,181.892604 L190.454829,183.014099 L186.392523,183.338087 L171.838006,179.674535 L163.015576,180.945563 L163.663551,182.839644 L166.728972,182.715034 L167.975078,182.939333 L167.925234,184.634037 L166.155763,185.032791 L163.838006,184.708803 L157.757009,186.278897 L155.663551,186.428429 L155.015576,187.325626 L155.76324,188.596654 L157.333333,188.945563 L158.803738,188.521887 L160.498442,187.774224 L162.242991,187.699457 L165.931464,187.84899 L172.087227,189.518772 L176.996885,191.73684 L177.445483,192.808492 L176.94704,193.630921 L174.629283,194.453351 L173.233645,195.101326 L162.367601,202.029675 L149.133956,208.808492 L138.143302,209.855221 L136.498442,210.303819 L135.551402,212.297588 L134.803738,214.465812 L133.981308,215.96114 L129.869159,222.540579 L128.523364,224.235283 L128.398754,226.20413 L128.523364,231.861451 L130.317757,233.456467 L131.88785,234.278897 L133.757009,234.129364 L144.897196,230.415968 L146.766355,230.490735 L147.190031,231.686996 L146.766355,232.808492 L145.196262,233.630921 L136.872274,236.447121 L136.174455,237.61846 L136.049844,238.889488 L137.221184,239.936217 L139.713396,240.260205 L141.707165,240.260205 L146.965732,239.512541 L150.903427,237.419083 L153.520249,236.895719 L155.76324,236.447121 L157.457944,236.995407 L162.392523,237.194784 L164.386293,238.366124 L171.613707,239.911295 L173.831776,240.235283 L177.271028,239.637152 L181.632399,239.936217 L183.551402,240.683881 L184.598131,242.453351 L182.803738,250.877027 L177.221184,266.353663 L165.482866,282.67765 L153.17134,294.490735 L151.65109,299.475158 L149.53271,301.992292 L138.5919,309.643383 L134.380062,311.786685 L129.76947,317.344317 L127.850467,318.540579 L125.158879,319.886373 L123.41433,319.487619 L104.249221,309.643383 L92.4859813,300.247744 L87.7009346,298.528118 L83.4890966,297.755532 L78.105919,298.90195 L70.9781931,303.338087 L63.7009346,323.525002 L63.4766355,329.107557 L59.2647975,342.715034 L56.7725857,347.525002 L55.4267913,352.310049 L54.6292835,358.266435 L51.1401869,366.116903 L50.7912773,382.241513 L49.8442368,385.73061 L50.3925234,388.771108 L50.1682243,393.755532 L51.9127726,397.767993 L53.258567,398.715034 L55.7507788,397.942448 L61.3582555,391.861451 L64.2242991,387.225937 L65.3707165,383.412853 L60.7601246,363.400392 L61.5327103,356.098211 L63.4517134,350.191669 L68.4610592,343.437775 L70.9283489,343.213476 L72.0996885,342.490735 L77.482866,336.90818 L78.8535826,331.923756 L79.576324,326.141825 L80.9221184,324.447121 L82.2679128,324.048367 L83.9875389,324.621576 L86.4797508,325.96737 L95.3021807,337.082635 L101.856698,342.665189 L104.922118,344.010984 L105.869159,345.929987 L104.922118,346.877027 L85.3582555,343.437775 L74.3925234,343.437775 L68.0373832,348.222822 L65.3457944,352.833414 L63.3021807,358.067059 L63.0778816,361.905065 L64.2492212,368.808492 L66.94081,377.630921 L73.2461059,405.468928 L74.4174455,413.120018 L75.5389408,415.811607 L81.1464174,420.820953 L84.1869159,425.431545 L86.305296,430.839644 L89.5700935,435.599769 L94.3551402,440.235283 L97.8442368,442.353663 L100.137072,442.528118 L102.056075,441.979831 L104.523364,436.970485 L105.320872,433.73061 L105.320872,426.229052 L104.398754,424.110672 C104.24756,424.110672 104.2274,423.081112 104.224713,422.692999 L104.224299,422.565501 L103.825545,421.219707 L99.3894081,416.035906 L94.0311526,413.718149 L92.0872274,413.120018 L91.7383178,409.855221 L91.9127726,407.786685 L88.2741433,403.549925 L85.9563863,398.191669 L82.4672897,383.437775 L79.8255452,377.855221 L78.8785047,371.126249 L80.3987539,367.063943 L83.0903427,365.543694 L85.1838006,365.543694 L88.2741433,368.235283 L92.7102804,370.90195 L108.436137,378.004753 L113.819315,381.095096 L113.819315,383.986062 L118.778816,386.852105 L125.133956,388.995407 L138.392523,388.995407 L137.445483,391.487619 L136.872274,392.833414 L141.831776,400.883258 L153.345794,412.945563 L168.82243,425.481389 L183.127726,433.132479 L198.255452,443.674535 L204.510903,448.982946 L211.040498,457.805376 L211.339564,461.49385 L212.809969,465.306934 L216.82243,468.172978 L220.461059,469.61846 L222.70405,469.319395 L227.065421,464.833414 L227.663551,461.14494 L230.70405,455.886373 L232.149533,443.84899 L233.17134,441.630921 L235.214953,440.634037 L237.158879,440.634037 L237.283489,442.104442 L235.838006,443.674535 L233.619938,449.157401 L233.271028,457.132479 L232.498442,459.873912 L223.676012,475.076404 L221.806854,482.602884 L220.859813,490.478274 L221.806854,499.275781 L223.05296,504.409738 L233.021807,525.419083 L237.183801,531.973601 L242.143302,538.07952 L243.090343,540.148055 L243.090343,541.593538 L242.442368,543.387931 L232.34891,557.294473 L221.607477,569.007869 L214.853583,572.048367 L212.161994,574.640267 L210.716511,577.531233 L199.376947,590.191669 L196.635514,594.951794 L194.068536,603.774224 L194.242991,606.989177 L196.161994,609.032791 L206.255452,608.733725 L213.607477,604.920641 L214.280374,603.300703 L215.725857,603.300703 L217.943925,602.328741 L220.037383,600.384816 L221.158879,592.708803 L220.510903,591.113788 L220.211838,589.518772 L221.333333,589.842759 L222.579439,590.191669 L223.900312,589.244629 L225.968847,587.923756 L230.928349,581.169862 L232.34891,577.655844 L232.672897,574.7898 L234.442368,573.468928 L239.102804,570.777339 L240.82243,567.238398 L251.439252,556.995407 L262.006231,550.540579 L263.277259,549.294473 L263.775701,547.973601 L264.897196,546.528118 L264.124611,544.609115 L263.252336,537.805376 L262.429907,535.886373 L256.249221,526.366124 L255.950156,519.61223 L258.342679,511.437775 L260.137072,508.571731 L262.031153,507.450236 L275.339564,496.883258 L287.05296,483.873912 L294.554517,469.49385 L296.174455,464.010984 L296.94704,455.063943 L298.242991,453.792915 L299.688474,453.444006 L300.959502,454.266435 L302.080997,456.933102 L302.903427,464.160516 L302.255452,478.116903 L303.202492,484.347432 L304.34891,485.942448 L305.29595,485.817837 L305.76947,484.67142 L305.121495,482.104442 L305.121495,477.743071 L306.442368,474.104442 L307.688474,465.107557 L308.510903,463.387931 L309.482866,463.387931 L310.255452,464.160516 L311.700935,470.116903 L310.454829,480.982946 L304.797508,492.895719 L303.202492,497.855221 L303.202492,504.43466 L304.34891,507.824068 L306.442368,507.824068 L307.514019,506.328741 L306.915888,504.733725 L306.442368,501.867682 L318.429907,482.652728 L320.82243,469.668305 L320.82243,462.31628 L319.376947,457.182323 L316.510903,453.194784 L316.161994,451.275781 L317.457944,450.652728 L319.05296,451.425314 L323.738318,458.652728 L325.482866,471.213476 L327.077882,476.222822 L327.252336,476.347432 L329.470405,481.306934 L330.915888,481.830298 L331.563863,480.534348 L331.389408,479.73684 L330.292835,476.073289 L330.292835,466.926872 L331.264798,457.805376 L330.915888,455.238398 L326.130841,446.415968 L326.903427,444.970485 L329.943925,444.347432 L338.5919,440.035906 L342.604361,436.496965 L347.738318,429.593538 L353.046729,418.378585 L353.993769,401.73061 L349.208723,370.179208 L351.127726,359.437775 L353.819315,353.531233 L357.682243,347.450236 L359.127726,343.587308 L359.426791,341.668305 L358.180685,339.923756 L356.386293,339.101326 L356.386293,341.817837 L354.965732,343.412853 L352.398754,347.250859 L350.953271,348.1979 L345.345794,355.599769 L343.426791,359.911295 L341.333333,360.260205 L339.41433,359.113788 L338.292835,354.004753 L338.5919,348.073289 L339.88785,342.590423 L349.507788,327.861451 L353.320872,320.035906 L353.819315,314.55304 L353.221184,312.833414 L352.074766,313.954909 L350.155763,318.739956 L347.239875,323.549925 L337.968847,331.84899 L330.5919,340.521887 L329.146417,340.372355 L328.647975,338.90195 L328.971963,328.808492 L331.214953,321.456467 L335.227414,313.282012 L340.535826,306.702573 L347.115265,301.095096 L347.713396,299.774224 L346.915888,299.176093 L340.834891,302.715034 L330.417445,311.836529 L326.280374,317.468928 L322.242991,324.820953 L320.024922,330.752417 L319.05296,344.683881 L322.890966,360.260205 L326.579439,371.599769 L330.417445,395.599769 L329.794393,407.13871 L327.05296,417.3817 L320.299065,425.880143 L313.445483,432.135594 L304.623053,437.095096 L296.149533,437.593538 L295.003115,433.456467 L291.962617,427.50008 L281.395639,413.419083 L273.520249,405.892604 L262.006231,396.596654 L250.965732,389.095096 L235.090343,375.811607 L226.46729,365.045252 L216.971963,349.518772 L214.404984,340.222822 L215.05296,334.44089 L216.34891,333.319395 L225.021807,338.129364 L229.308411,337.954909 L239.576324,343.437775 L245.856698,348.098211 L249.495327,348.596654 L250.342679,347.001638 L249.370717,346.827183 L248.249221,347.325626 L246.454829,346.179208 L242.616822,340.098211 L238.280374,336.110672 L231.576324,334.017214 L232.049844,332.746186 L235.41433,332.746186 L239.277259,334.017214 L247.451713,338.827183 L248.423676,337.531233 L246.82866,335.288242 L242.492212,331.425314 L235.738318,327.911295 L227.588785,324.721264 L225.993769,323.425314 L227.588785,322.278897 L231.227414,324.073289 L237.981308,325.194784 L249.021807,329.979831 L255.775701,330.926872 L260.58567,330.278897 L266.990654,326.739956 L268.58567,325.194784 L268.760125,324.073289 L267.28972,324.172978 L265.844237,325.668305 L256.897196,327.886373 L253.358255,327.387931 L249.968847,324.696342 L246.903427,321.132479 L243.28972,318.44089 L232.548287,315.525002 L230.280374,314.07952 L230.454829,312.833414 L232.548287,313.132479 L249.196262,312.359893 L251.28972,314.07952 L257.370717,314.90195 L258.641745,313.954909 L256.423676,313.306934 L250.791277,308.820953 L246.130841,306.378585 L238.778816,305.431545 L237.507788,304.658959 L240.074766,303.213476 L244.23676,303.213476 L255.775701,307.973601 L260.909657,308.148055 L263.626168,306.852105 L264.423676,305.107557 L262.35514,304.160516 L258.043614,303.986062 L254.35514,302.715034 L251.140187,299.973601 L247.601246,298.20413 L242.94081,297.431545 L238.928349,295.986062 L237.183801,293.718149 L237.482866,292.596654 L243.264798,294.091981 L245.183801,295.512541 L247.925234,295.836529 L248.224299,294.391046 L245.358255,292.123133 L244.535826,290.07952 L248.398754,290.67765 L252.037383,292.596654 L256.697819,293.120018 L258.492212,296.484504 L263.277259,299.350548 L263.551402,299.300703 L264.598131,298.852105 L265.844237,298.07952 L265.246106,297.132479 L263.451713,297.25709 L258.641745,290.07952 L253.034268,285.095096 L247.277259,282.503196 L242.168224,276.422199 L238.953271,274.702573 L238.454829,273.082635 L239.900312,272.110672 L253.208723,275.923756 L255.277259,278.839644 L258.641745,280.584193 L261.208723,280.584193 L264.623053,281.531233 L268.311526,280.883258 L269.732087,279.61223 L267.663551,277.842759 L261.084112,276.571731 L258.990654,274.802261 L256.249221,270.814722 L255.601246,268.222822 L243.88785,259.923756 L239.127726,255.437775 L238.803738,254.141825 L239.900312,254.141825 L246.155763,259.126249 L255.950156,265.3817 L260.261682,269.394161 L266.342679,272.110672 L267.464174,270.341202 L265.869159,269.743071 L262.529595,266.702573 L261.557632,263.313164 L255.127726,257.032791 L253.682243,253.394161 L248.722741,245.96737 L241.968847,240.060828 L241.669782,238.166747 L244.062305,238.465812 L252.884735,242.478274 L258.492212,242.777339 L262.654206,244.746186 L267.140187,245.518772 L270.953271,244.372355 L270.654206,242.777339 L266.292835,241.830298 L250.5919,234.129364 L248.423676,231.412853 L249.196262,230.465812 L250.342679,231.238398 L252.062305,231.861451 L254.330218,232.060828 L266.018692,231.412853 L269.707165,232.858336 L273.545171,235.574847 L275.165109,236.073289 L275.339564,234.627806 L274.043614,233.331856 L270.205607,229.792915 L264.249221,226.752417 L251.76324,225.780454 L245.682243,219.37547 L239.302181,214.590423 L240.747664,213.468928 L251.489097,218.129364 L257.570093,219.574847 L262.82866,219.574847 L267.165109,224.409738 L270.70405,226.478274 L271.975078,225.182323 L267.165109,218.104442 L259.638629,212.67142 L253.383178,211.176093 L248.074766,205.61846 L243.41433,202.90195 L237.034268,201.282012 L240.573209,198.241513 L251.489097,194.702573 L252.58567,193.25709 L251.987539,192.135594 L246.928349,191.014099 L228.859813,191.363009 L225.64486,187.799146 L217.320872,183.338087 L211.239875,182.366124 L205.981308,182.366124 L199.601246,175.13871 L193.64486,169.73061 Z M206.479751,594.602884 L206.953271,595.001638 L207.077882,595.923756 L206.654206,597.518772 L206.006231,598.7898 L205.233645,599.96114 L203.962617,600.783569 L202.741433,601.057713 L202.242991,601.057713 L201.694704,600.609115 L201.520249,599.686996 L201.744548,598.565501 L202.392523,597.244629 L204.161994,595.475158 L205.507788,594.652728 L206.479751,594.602884 Z M218.317757,576.260205 L218.841121,576.584193 L218.965732,577.356778 L218.5919,578.278897 L217.943925,579.201015 L217.121495,579.674535 L216.124611,580.048367 L215.376947,579.824068 L214.928349,579.051482 L215.028037,578.253974 L215.750779,577.356778 L217.246106,576.459582 L218.317757,576.260205 Z M244.58567,549.718149 L245.183801,549.867682 L245.707165,550.515657 L245.208723,551.761763 L240.722741,557.593538 L229.582555,568.285127 L228.311526,569.107557 L227.489097,569.057713 L227.090343,568.43466 L227.264798,567.338087 L241.76947,552.035906 L242.890966,550.814722 L244.58567,549.718149 Z M257.046729,542.939333 L257.993769,542.964255 L258.442368,543.188554 L258.492212,543.686996 L258.093458,544.285127 L257.221184,545.057713 L256.448598,545.929987 L255.925234,545.929987 L255.327103,545.581077 L255.202492,544.833414 L255.451713,544.110672 L256.299065,543.188554 L257.046729,542.939333 Z M186.666667,440.708803 L184.623053,441.032791 L182.82866,442.229052 L182.056075,444.123133 L184.34891,455.412853 L187.439252,465.680766 L195.88785,484.247744 L204.087227,498.577962 L210.5919,507.425314 L210.716511,509.568616 L210.317757,511.363009 L208.672897,512.010984 L195.015576,511.761763 L181.53271,509.718149 L167.451713,504.708803 L161.196262,504.334971 L159.401869,505.107557 L151.17757,504.210361 L147.88785,503.063943 L126.23053,502.540579 L123.538941,503.662074 L121.619938,504.210361 L120.971963,505.107557 L121.096573,506.877027 L126.35514,514.602884 L128.398754,515.475158 L135.327103,519.811607 L139.314642,521.107557 L150.180685,520.733725 L158.23053,518.540579 L159.800623,519.313164 L160.523364,520.858336 L161.844237,521.232168 L169.021807,521.356778 L171.065421,522.004753 L173.482866,521.356778 L186.791277,523.151171 L202.043614,526.989177 L214.006231,531.724379 L216.199377,533.294473 L221.981308,533.543694 L225.071651,532.771108 L228.485981,525.319395 L227.962617,522.004753 L222.878505,511.886373 L220.58567,505.630921 L218.143302,492.546809 L218.766355,479.73684 L219.538941,476.297588 L218.616822,473.306934 L210.193146,467.051482 L208.398754,459.400392 L203.464174,452.247744 L191.551402,442.627806 L186.666667,440.708803 Z M235.239875,510.091981 L235.962617,510.391046 L236.934579,511.537464 L237.632399,513.481389 L238.105919,516.073289 L238.155763,518.166747 L238.180685,518.889488 L238.579439,519.911295 L238.978193,521.905065 L238.803738,522.328741 L238.504673,522.378585 L237.956386,522.104442 L236.909657,520.55927 L235.339564,517.992292 L234.5919,516.32251 L234.143302,513.979831 L234.143302,511.786685 L234.218069,510.490735 L234.542056,510.091981 L235.239875,510.091981 Z M232.94704,472.733725 L233.345794,474.029675 L231.227414,480.235283 L230.629283,481.880143 L228.610592,487.462697 L228.361371,488.334971 L228.062305,488.883258 L227.239875,488.883258 L226.5919,486.914411 L226.542056,484.696342 L228.11215,477.49385 L231.501558,472.90818 L232.94704,472.733725 Z M285.183801,450.179208 L286.23053,450.253974 L287.102804,451.02656 L288.099688,452.297588 L288.373832,453.743071 L288.373832,455.662074 L288.199377,457.107557 L287.750779,458.453351 L287.476636,459.674535 L286.604361,460.1979 L285.781931,459.973601 L285.333333,459.176093 L285.05919,456.459582 L283.239875,453.917526 L283.065421,451.84899 L284.11215,450.528118 L285.183801,450.179208 Z M338.46729,383.786685 L339.190031,384.185439 L339.76324,385.954909 L342.429907,397.767993 L342.429907,405.96737 L342.504673,405.96737 L342.429907,408.010984 L339.165109,419.649613 L334.978193,426.428429 L327.800623,434.004753 L325.831776,434.503196 L324.785047,434.004753 L324.610592,432.609115 L325.433022,430.739956 L334.953271,416.384816 L337.445483,409.780454 L338.566978,397.842759 L337.570093,386.976716 L337.345794,384.933102 L338.46729,383.786685 Z M97.0218069,430.366124 L98.2679128,430.640267 L98.8411215,431.238398 L98.9657321,431.96114 L98.8411215,432.833414 L98.0934579,433.3817 L97.1713396,433.207245 L96.5233645,432.609115 L96.2741433,431.238398 L96.4984424,430.490735 L97.0218069,430.366124 Z M155.613707,397.394161 L157.05919,397.468928 L161.744548,401.157401 L171.862928,412.596654 L189.757009,428.571731 L190.305296,429.468928 L190.70405,430.116903 L189.607477,430.067059 L167.825545,415.163632 L156.461059,404.696342 L155.190031,402.727495 L154.716511,400.384816 L154.791277,398.216591 L155.613707,397.394161 Z M229.05919,408.858336 L229.582555,409.356778 L230.504673,410.727495 L230.679128,413.294473 L229.981308,414.764878 L228.934579,415.711918 L227.962617,416.808492 L227.015576,418.802261 L226.716511,420.1979 L226.068536,420.721264 L224.82243,420.546809 L224.224299,419.824068 L225.146417,413.867682 L225.495327,412.048367 L226.317757,409.73061 L226.915888,409.057713 L227.838006,408.858336 L229.05919,408.858336 Z M73.4454829,375.73684 L73.9439252,376.185439 L74.4174455,378.229052 L74.4672897,380.32251 L77.3333333,392.310049 L77.0841121,393.481389 L76.8099688,393.880143 L76.5109034,393.880143 L75.9626168,393.3817 L75.5140187,392.55927 L74.8161994,391.039021 L73.8193146,389.02033 L72.2990654,382.939333 L72.6978193,376.135594 L72.9719626,375.73684 L73.4454829,375.73684 Z M56.4735202,385.082635 L57.5950156,385.207245 L57.894081,386.353663 L57.1214953,387.300703 L55.8255452,387.001638 L55.1775701,385.73061 L56.4735202,385.082635 Z M208.747664,344.658959 L210.542056,345.481389 L214.380062,358.141825 L224.996885,374.166747 L232.024922,383.288242 L226.5919,380.447121 L218.94081,372.920641 L214.579439,367.437775 L210.741433,361.207245 L207.700935,353.506311 L206.429907,348.1979 L207.028037,345.157401 L208.747664,344.658959 Z M96.7476636,364.845875 L98.2679128,365.394161 L106.043614,368.43466 L108.037383,369.356778 L109.084112,370.303819 L109.258567,371.176093 L109.034268,371.923756 L107.738318,371.998523 L106.043614,371.724379 L104.872274,371.201015 L96.3987539,365.668305 L95.3520249,364.895719 L96.7476636,364.845875 Z M71.9750779,349.269551 L72.5981308,349.668305 L72.5981308,350.964255 L72.1993769,351.886373 L71.6510903,353.082635 L70.8785047,354.179208 L70.105919,354.478274 L69.5825545,354.029675 L69.6074766,352.484504 L70.9283489,350.216591 L71.3271028,349.568616 L71.9750779,349.269551 Z M123.040498,329.282012 L123.912773,329.630921 L124.161994,330.67765 L123.538941,334.415968 L120.099688,344.459582 L117.258567,347.998523 L115.838006,349.095096 L114.317757,349.643383 L113.445483,349.045252 L113.370717,347.898834 L114.566978,346.602884 L117.433022,340.970485 L119.252336,334.31628 L120.94704,331.151171 L122.093458,329.531233 L123.040498,329.282012 Z M189.732087,324.571731 L191.17757,324.970485 L191.601246,325.743071 L191.775701,327.462697 L192,329.282012 L191.601246,330.652728 L190.679128,331.176093 L188.461059,331.201015 L186.990654,330.852105 L186.168224,329.755532 L185.445483,328.90818 L185.445483,327.487619 L186.517134,326.091981 L188.161994,324.796031 L189.732087,324.571731 Z M73.4953271,316.895719 L74.0186916,317.693227 L73.9688474,320.08575 L71.8753894,327.313164 L69.7819315,330.528118 L68.6604361,330.827183 L68.2616822,329.979831 L68.2616822,328.285127 L69.3084112,321.605999 L71.152648,318.44089 L72.0996885,317.319395 L73.4953271,316.895719 Z M94.4049844,324.521887 L94.8535826,324.571731 L95.6012461,324.696342 L96.423676,325.444006 L97.3956386,326.291358 L98.9158879,327.213476 L99.8380062,328.310049 L100.386293,329.132479 L100.436137,329.855221 L100.211838,330.253974 L99.7632399,330.303819 L98.741433,329.655844 L97.2461059,328.833414 L95.9750779,327.786685 L94.8037383,326.615345 L94.2803738,325.96737 L94.1557632,325.02033 L94.4049844,324.521887 Z M171.688474,305.905065 L174.554517,306.503196 L177.246106,307.873912 L179.364486,309.96737 L179.489097,311.13871 L179.264798,311.96114 L178.342679,312.135594 L176.971963,311.96114 L174.853583,311.363009 L172.859813,310.764878 L159.825545,311.113788 L157.757009,311.637152 L155.76324,312.08575 L154.46729,312.185439 L153.545171,312.035906 L153.246106,311.562386 L153.320872,310.391046 L154.093458,309.518772 L162.517134,306.602884 L171.688474,305.905065 Z M216.922118,307.325626 L217.894081,308.098211 L217.919003,308.746186 L217.619938,309.120018 L216.747664,309.369239 L215.626168,309.294473 L214.878505,308.546809 L215.05296,307.923756 L215.800623,307.400392 L216.922118,307.325626 Z M82.2928349,304.708803 L83.0654206,304.933102 L83.7632399,305.581077 L83.8130841,306.303819 L83.2149533,307.325626 L81.1214953,308.123133 L79.1277259,308.32251 L77.9065421,307.84899 L77.6074766,306.976716 L77.9563863,305.805376 L79.0031153,305.082635 L81.1713396,304.808492 L82.2928349,304.708803 Z M218.866044,302.640267 L219.738318,303.213476 L219.813084,303.886373 L218.94081,304.883258 L217.619938,304.883258 L216.94704,304.484504 L216.94704,303.512541 L217.246106,302.864566 L217.943925,302.640267 L218.866044,302.640267 Z M220.959502,296.509426 L221.507788,296.982946 L221.632399,297.73061 L221.333333,298.303819 L220.461059,298.752417 L219.538941,298.877027 L218.5919,298.652728 L218.292835,298.004753 L218.292835,297.232168 L219.065421,296.683881 L220.037383,296.509426 L220.959502,296.509426 Z M221.707165,290.627806 L222.679128,291.126249 L223.028037,292.023445 L222.554517,292.771108 L221.383178,293.120018 L220.062305,293.070174 L219.364486,292.596654 L219.314642,292.073289 L219.538941,291.300703 L220.58567,290.827183 L221.707165,290.627806 Z M195.41433,256.060828 L196.062305,257.132479 L195.987539,259.001638 L193.021807,267.699457 L187.239875,277.867682 L182.380062,284.696342 L178.691589,288.55927 L176.124611,289.556155 L175.302181,289.506311 L175.152648,288.858336 L175.950156,287.039021 L188.037383,264.43466 L191.900312,258.229052 L193.894081,256.334971 L195.41433,256.060828 Z M225.071651,283.475158 L225.545171,284.048367 L225.370717,285.045252 L224.722741,285.917526 L224.124611,286.690112 L222.903427,286.939333 L221.682243,286.939333 L220.635514,286.415968 L220.535826,285.593538 L221.283489,284.820953 L221.856698,284.172978 L222.679128,283.873912 L224.024922,283.475158 L225.071651,283.475158 Z M225.370717,276.820953 L226.5919,277.095096 L227.115265,277.817837 L227.115265,278.565501 L226.542056,279.462697 L225.545171,279.637152 L224.498442,279.911295 L223.202492,279.861451 L222.629283,279.213476 L222.70405,278.266435 L223.152648,277.61846 L224.024922,277.02033 L225.370717,276.820953 Z M227.514019,271.338087 L228.635514,271.73684 L229.109034,272.658959 L228.959502,273.780454 L227.588785,274.328741 L226.542056,274.702573 L225.246106,274.702573 L224.722741,274.602884 L224.074766,274.378585 L223.725857,273.73061 L223.900312,272.90818 L224.772586,272.135594 L225.520249,271.73684 L226.342679,271.387931 L227.514019,271.338087 Z M227.41433,265.306934 L228.635514,265.431545 L229.109034,265.880143 L229.109034,266.353663 L228.635514,267.126249 L227.813084,267.799146 L226.5919,268.247744 L225.146417,268.397277 L223.975078,268.1979 L223.676012,267.525002 L223.850467,266.976716 L224.323988,266.602884 L226.417445,265.531233 L227.41433,265.306934 Z M227.738318,259.973601 L228.386293,260.023445 L228.635514,260.422199 L228.635514,261.045252 L228.336449,261.767993 L227.738318,262.465812 L226.193146,263.113788 L225.445483,263.039021 L224.747664,262.814722 L224.573209,262.091981 L224.697819,261.269551 L225.121495,260.771108 L225.894081,260.272666 L226.816199,260.048367 L227.738318,259.973601 Z M228.311526,253.693227 L228.934579,253.867682 L229.133956,254.465812 L229.009346,255.412853 L228.809969,255.986062 L227.862928,256.634037 L226.542056,257.132479 L225.819315,256.958024 L225.121495,256.534348 L224.971963,255.861451 L225.046729,254.989177 L225.570093,254.465812 L226.317757,253.942448 L227.389408,253.718149 L228.311526,253.693227 Z M227.538941,246.590423 L228.311526,246.814722 L229.009346,247.213476 L229.084112,248.035906 L229.009346,249.3817 L227.962617,250.278897 L226.641745,250.951794 L226.068536,250.877027 L225.495327,250.652728 L224.922118,249.929987 L224.847352,249.157401 L225.071651,248.708803 L225.819315,248.708803 L225.819315,248.733725 L226.218069,248.459582 L226.392523,247.686996 L226.542056,247.063943 L226.890966,246.615345 L227.538941,246.590423 Z M227.638629,241.556155 L228.286604,241.755532 L228.461059,242.303819 L228.11215,242.90195 L227.538941,243.525002 L226.641745,243.724379 L225.669782,243.724379 L225.071651,243.151171 L225.071651,242.528118 L225.64486,241.929987 L226.542056,241.605999 L227.638629,241.556155 Z M203.688474,234.179208 L204.884735,234.453351 L204.884735,235.774224 L204.411215,236.945563 L202.716511,238.939333 L198.006231,241.032791 L195.588785,241.082635 L194.068536,241.082635 L193.545171,240.384816 L194.11838,239.387931 L195.464174,238.7898 L200.498442,235.998523 L201.76947,235.101326 L203.688474,234.179208 Z M227.738318,236.247744 L228.760125,236.297588 L229.383178,237.02033 L229.258567,237.767993 L228.760125,238.44089 L227.962617,238.715034 L227.239875,238.889488 L226.5919,238.989177 L225.719626,238.889488 L225.495327,238.391046 L225.719626,237.693227 L226.242991,237.219707 L226.791277,236.895719 L227.738318,236.247744 Z M198.928349,228.222822 L199.676012,228.721264 L199.676012,230.067059 L199.277259,231.562386 L195.663551,234.353663 L193.669782,234.877027 L192.697819,234.55304 L192.598131,233.755532 L193.271028,232.708803 L194.716511,230.889488 L196.361371,229.344317 L197.831776,228.347432 L198.928349,228.222822 Z M228.012461,230.640267 L228.535826,230.939333 L228.610592,231.686996 L228.58567,232.359893 L227.738318,233.107557 L226.965732,233.406622 L226.46729,233.331856 L226.068536,233.132479 L226.068536,232.409738 L226.11838,231.686996 L226.691589,231.088865 L227.214953,230.764878 L228.012461,230.640267 Z M187.788162,225.481389 L187.862928,226.652728 L186.791277,227.50008 L186.292835,229.269551 L184.922118,231.363009 L180.012461,233.132479 L177.794393,233.132479 L177.395639,232.384816 L177.943925,231.61223 L178.616822,231.213476 L185.619938,226.478274 L187.214953,225.481389 L187.788162,225.481389 Z M226.342679,226.154286 L226.890966,226.503196 L227.015576,227.02656 L226.816199,227.824068 L226.242991,228.222822 L225.719626,228.546809 L225.021807,228.646498 L224.448598,228.272666 L224.323988,227.674535 L224.598131,227.151171 L225.121495,226.453351 L225.64486,226.20413 L226.342679,226.154286 Z M137.495327,219.051482 L138.766355,219.176093 L140.286604,220.447121 L140.984424,221.568616 L140.261682,223.96114 L139.015576,225.207245 L137.221184,226.20413 L134.82866,226.727495 L134.006231,226.20413 L133.707165,224.509426 L134.404984,222.116903 L136.099688,219.749302 L137.495327,219.051482 Z M145.919003,219.450236 L146.542056,219.599769 L146.766355,220.247744 L146.841121,221.369239 L146.542056,222.366124 L146.093458,222.590423 L145.246106,222.640267 L144.523364,222.291358 L143.975078,221.643383 L144.049844,220.845875 L144.697819,219.799146 L145.221184,219.450236 L145.919003,219.450236 Z M219.165109,209.481389 L219.912773,210.20413 L219.713396,212.023445 L219.88785,212.995407 L221.158879,212.920641 L222.928349,212.222822 L224.548287,211.84899 L225.894081,211.749302 L226.5919,212.397277 L225.64486,213.842759 L224.672897,214.116903 L223.05296,214.665189 L220.984424,215.836529 L218.990654,216.883258 L216.672897,217.855221 L215.900312,217.929987 L215.252336,217.73061 L215.327103,216.758647 L214.978193,215.836529 L214.978193,214.191669 L215.725857,212.32251 L216.772586,211.201015 L217.420561,210.328741 L218.11838,209.481389 L219.165109,209.481389 Z M180.361371,205.369239 L182.479751,205.767993 L184.149533,206.889488 L184.971963,208.858336 L185.669782,210.951794 L185.545171,212.746186 L183.725857,213.468928 L181.757009,213.468928 L177.320872,211.37547 L175.352025,210.253974 L174.803738,208.708803 L175.626168,207.039021 L177.445483,205.49385 L180.361371,205.369239 Z M167.825545,204.646498 L168.82243,204.870797 L169.619938,206.141825 L169.096573,207.063943 L168.099688,207.338087 L166.878505,207.637152 L165.53271,208.758647 L162.517134,210.577962 L153.345794,212.546809 L152.099688,212.397277 L154.093458,210.702573 L165.009346,205.593538 L166.604361,204.820953 L167.825545,204.646498 Z M189.806854,198.067059 L191.003115,198.490735 L191.401869,199.363009 L190.504673,200.409738 L189.258567,200.90818 L187.713396,200.982946 L187.140187,199.936217 L187.439252,198.989177 L188.834891,198.515657 L189.806854,198.067059 Z M218.168224,195.450236 L219.140187,195.674535 L219.613707,195.998523 L219.464174,196.447121 L218.766355,197.269551 L217.794393,197.369239 L216.672897,197.194784 L216.024922,196.895719 L215.52648,196.32251 L216.099688,195.84899 L216.922118,195.50008 L218.168224,195.450236 Z M215.327103,188.696342 L216.498442,189.095096 L217.420561,189.593538 L217.470405,190.366124 L216.672897,190.739956 L215.476636,190.7898 L214.280374,190.739956 L213.383178,190.540579 L212.58567,189.96737 L213.158879,188.920641 L215.327103,188.696342 Z M180.186916,170.378585 L179.065421,171.973601 L179.214953,173.892604 L177.445483,175.487619 L177.271028,177.705688 L182.280374,180.945563 L187.41433,180.945563 L187.065421,177.232168 L181.806854,170.852105 L180.186916,170.378585 Z M379.912773,0.646497804 L20.0872274,0.646497804 C9.04672897,0.646497804 0,10.2913576 0,22.0795196 L0,32.7461863 L400,32.7461863 L400,22.0047533 C399.950156,10.2664355 390.953271,0.646497804 379.912773,0.646497804 Z M-1.59872116e-14,37.5686162 L-1.59872116e-14,67.9736006 L-1.59872116e-14,37.5686162 Z M0,37.5686162 L400,37.5686162 L400,67.9736006 L0,67.9736006 L0,37.5686162 Z M-1.59872116e-14,34.7025726 L-1.59872116e-14,37.5686162 L-1.59872116e-14,34.7025726 Z M0,72.3972766 L400,72.3972766 L400,105.643383 L0,105.643383 L0,72.3972766 Z" id="ferrari" fill="#FFFFFF"></path>
</svg>