<?xml version="1.0" encoding="UTF-8"?>
<svg width="400px" height="103px" viewBox="0 0 400 103" version="1.1" xmlns="http://www.w3.org/2000/svg">
    <title>fiat</title>
    <path d="M302.889211,0.249468417 L287.809758,102.29414 L190.676743,102.29414 L205.756196,0.249468417 L302.889211,0.249468417 Z M103.089233,0.249468417 L88.0097802,102.29414 L1.29256659e-06,102.29414 L15.4350496,0.249468417 L103.089233,0.249468417 Z M200.500057,0.249468417 L185.031671,102.283028 L93.5103913,102.283028 L108.623182,0.249468417 L200.500057,0.249468417 Z M400.000001,0.249468417 L384.864986,102.283028 L293.354818,102.283028 L308.478721,0.249468417 L400.000001,0.249468417 Z M257.173021,19.1737933 L243.093678,19.1737933 L215.279477,83.0031077 L226.091789,83.0031077 L232.636961,68.2681372 L257.839761,68.2681372 L260.784533,83.0031077 L270.596734,83.0031077 L257.173021,19.1737933 Z M157.250807,19.2182427 L146.682966,19.2182427 L137.515281,83.0031077 L147.738639,83.0031077 L157.250807,19.2182427 Z M371.707969,19.1849057 L331.736861,19.1849057 L329.914436,29.3415898 L344.293812,29.3415898 L336.526282,83.0031077 L346.694078,83.0031077 L354.806091,29.3415898 L370.241139,29.3415898 L371.707969,19.1849057 Z M78.1642418,19.1849057 L38.5487289,19.1849057 C38.5487289,19.1849057 29.425493,83.0031077 29.0810103,83.0031077 L39.5932894,83.0031077 L43.1047907,58.4559358 L72.2080244,58.4559358 L73.963775,48.2881394 L44.8605414,48.2881394 L47.6608525,29.3527021 L76.7640862,29.3527021 L78.1642418,19.1849057 Z M249.316592,29.9638811 L255.850651,60.0783383 L235.892878,60.0783383 L249.316592,29.9638811 Z" id="fiat" fill="#FFFFFF"></path>
</svg>