<?xml version="1.0" encoding="UTF-8"?>
<svg width="400px" height="142px" viewBox="0 0 400 142" version="1.1" xmlns="http://www.w3.org/2000/svg">
    <title>ford</title>
    <path d="M199.933277,2.27373675e-13 C310.501207,2.27373675e-13 400.000001,31.8027646 400.000001,70.8495046 C400.000001,110.031916 310.501207,141.432114 199.933277,141.432114 C89.6344657,141.432114 6.46283297e-07,110.031916 6.46283297e-07,70.8495046 C6.46283297e-07,31.8027646 89.6344657,2.27373675e-13 199.933277,2.27373675e-13 Z M199.933277,5.9050521 C92.8549988,5.9050521 6.30539526,35.0232977 6.30539526,70.8495046 C6.30539526,106.813607 92.8549988,135.931853 199.933277,135.931853 C306.878107,135.931853 393.692382,106.813607 393.692382,70.8495046 C393.692382,35.0232977 306.878107,5.9050521 199.933277,5.9050521 Z M154.178576,18.651513 C160.48397,18.651513 167.596722,19.1875271 175.38116,20.5308987 C184.36885,22.1411652 206.77691,25.8977125 225.025856,26.1668316 C231.738266,26.1668316 240.325613,26.4359508 247.302693,25.3616983 C251.918671,24.6062806 253.01733,24.2180842 253.915674,24.0332729 L254.049338,24.0070561 C254.071503,24.0029341 254.093646,23.998934 254.11582,23.9950534 L254.263506,23.9710964 C254.686352,23.9079992 255.15999,23.8848793 256.025712,23.8848793 C258.38288,23.8848793 258.668597,24.7144902 258.70323,25.64466 L258.707409,25.8383046 L258.708006,26.0333841 C258.708006,30.3281697 243.677369,38.51295 230.928684,38.51295 C216.26159,38.51295 201.154015,33.3145458 190.420859,29.732273 L189.442671,29.4063903 C186.839155,28.541066 184.515855,27.7888676 182.547029,27.2548934 C182.934492,27.6202649 183.204174,28.2147862 182.894255,28.9870222 C182.758583,29.2561414 181.417436,30.7307363 180.883646,31.1333029 C178.199127,33.5487028 169.073541,39.4537549 159.145047,56.2258821 C159.505554,56.2078568 159.868751,56.1874101 160.233672,56.164795 L160.96553,56.1167488 C161.087795,56.1082842 161.21018,56.0995975 161.332649,56.0906979 L162.068197,56.0348215 C162.313527,56.0153947 162.558911,55.9951916 162.804062,55.9742872 L163.538533,55.9095447 C169.526352,55.3648551 175.203259,54.4441624 176.370597,54.2497663 L176.490712,54.2296676 C176.523047,54.224228 176.547584,54.2200733 176.564038,54.2172786 L176.58886,54.2130489 C176.58886,54.2130489 176.052846,52.4693349 176.052846,50.9925158 C176.455412,45.2231353 179.809393,41.7334831 184.104179,42.4051689 C186.521803,42.8077355 188.129845,44.8205687 188.129845,46.9668494 C188.129845,49.2488018 186.386131,52.6027824 184.640193,54.2130489 C183.430269,55.1494056 182.086897,56.0902105 180.478855,56.8953438 C180.478855,58.3721629 182.489464,59.5798628 184.235402,59.7155344 C183.832835,61.1901293 183.966283,61.8618151 183.296821,61.7283676 C179.271155,61.7283676 177.660888,57.8361487 177.660888,57.8361487 C177.134948,57.9281664 176.610269,58.0176188 176.081669,58.1051368 L175.445134,58.2092702 C170.758541,58.9666977 165.6077,59.5938617 156.460528,60.5206677 C129.757682,103.728746 121.439454,110.841498 105.06767,110.841498 C93.3932371,110.841498 83.0621761,103.192732 82.7930569,89.5054658 C82.6573853,81.187238 89.3675707,70.9874003 101.847137,67.9003147 C103.323956,67.9003147 103.85997,68.438553 103.85997,69.2436863 C103.85997,69.7819245 103.323956,70.4513862 102.114032,70.9874003 C98.4909318,72.3307719 92.1855372,79.4412998 92.1855372,86.0180377 C92.1855372,90.9822848 95.2726228,96.4847703 100.503765,97.6902461 C101.980584,98.0950369 103.323956,97.9593652 104.665103,97.9593652 C117.680683,97.9593652 132.30653,83.3335187 148.140076,61.058906 C145.591229,61.1923535 134.721929,62.4022775 132.03741,65.487139 C130.831935,66.4257198 130.026801,65.8897056 129.757682,64.8154532 C129.757682,64.5463341 130.160249,63.6077533 130.56504,63.069515 C134.857601,58.2387153 147.739734,57.1666871 150.824595,56.7641204 C162.329575,39.1231509 176.999448,27.8139844 181.147545,26.8995497 C181.057592,26.8781202 180.970159,26.8580142 180.883646,26.8385174 C170.55036,24.4231176 161.15788,22.4102844 153.776009,22.4102844 C127.878297,22.4102844 116.337311,33.5487028 116.87555,43.7463163 C117.144669,47.9054302 120.496425,50.5899492 125.462897,49.6491443 C130.831935,48.7105635 138.345029,43.6106447 140.224415,39.1824116 C140.626982,38.2438308 141.701234,38.1081592 142.103801,38.3772783 C142.908934,39.0489641 142.639815,39.9875449 142.639815,39.9875449 C141.968129,45.2209112 133.916796,59.7133103 119.962635,59.7133103 C112.180422,59.7133103 106.947055,52.4671108 107.080503,45.3543587 C107.21395,32.0696596 120.767769,18.651513 154.178576,18.651513 Z M317.209168,46.2951636 L288.495714,97.1520078 C287.957475,98.2240361 286.614104,100.236869 286.749775,101.847136 C287.023343,104.395983 290.241652,103.726522 289.033952,103.726522 C293.579524,103.514488 301.12245,96.6395237 305.365622,92.4205608 L305.840216,91.9460746 C306.758685,91.022797 307.488529,90.2600508 307.95236,89.7723608 C308.48615,89.0984509 309.429179,87.8929751 309.962969,87.8929751 C310.501207,87.8929751 311.57546,88.4289892 311.57546,89.2341225 C311.57546,89.7723608 310.36776,91.7829699 309.429179,92.9906698 C304.060141,99.7008552 295.205899,110.031916 285.141733,110.301035 C280.177486,110.301035 278.295876,108.288202 277.626414,104.398207 C275.346686,106.408816 267.562248,109.898469 259.646587,109.898469 C253.069849,109.765021 250.38533,105.872802 249.046407,102.787941 C247.838707,100.239093 247.300469,96.4825462 248.23905,92.7259989 C244.61595,94.6053846 241.261969,94.8722796 236.43117,94.7388321 C230.793012,94.6031605 227.30336,92.0543131 225.56187,85.4775753 C219.120804,97.2876795 218.849461,97.688022 212.277171,110.03414 L200.871858,110.03414 L215.497704,85.2106802 C217.379314,81.8544755 218.317895,79.1721806 218.985132,76.3564383 C219.389923,74.7439476 218.182223,73.2671285 216.436285,73.1359052 C214.559123,73.1359052 211.476486,75.0152909 208.520624,77.8310332 C208.520624,77.8310332 203.330265,83.3932291 198.418117,89.9711233 L197.958585,90.5906378 C197.118215,91.7313611 196.291113,92.897892 195.505044,94.0671463 C190.269453,101.851584 181.281764,110.705826 171.486717,110.705826 C164.486866,110.705826 158.137546,106.938343 156.659453,99.6556437 L156.590885,99.3011636 L156.565831,99.3526163 C156.391057,99.6835715 155.26401,101.421065 149.612447,104.667326 C149.076433,104.934222 147.735285,105.739355 147.334943,105.47246 C146.125019,104.400431 145.455557,103.05706 145.319885,102.116255 C145.722452,102.251927 146.527585,101.580241 149.076433,99.5674077 C153.85335,95.9526169 155.028317,93.0792223 155.110192,92.8675097 L155.114932,92.8549982 C155.71767,91.5805745 156.556721,89.9369461 157.429412,88.2596777 L158.013966,87.1401976 C158.69657,85.8369156 159.372278,84.5583938 159.945732,83.4625179 C163.973623,75.4111851 170.948479,67.2264048 182.353792,66.8238382 C184.233178,66.8238382 184.769192,67.6289715 185.171759,68.3006572 C186.243787,69.1057905 185.843444,70.7160571 185.843444,70.7160571 C177.792112,71.923757 172.29185,76.618885 168.935646,81.1827897 C166.925037,84.1342037 164.776532,88.9650034 164.373965,92.4524315 C163.568832,98.4909311 166.386798,102.514373 170.545912,103.455178 C178.328126,104.662878 184.769192,99.0269453 189.869111,90.3061508 C191.212482,88.0241985 192.151063,82.1191464 192.151063,78.8986133 C192.151063,75.6780801 190.405125,72.3240995 189.063978,70.980728 C189.063978,68.7009997 190.538573,67.2241807 192.282287,67.2241807 C192.818301,67.2241807 193.356539,67.2241807 193.892553,67.7601948 C196.577072,70.4447138 198.053891,75.5446326 198.053891,79.4346274 C198.053891,80.777999 198.053891,82.1191464 197.784772,83.4625179 C203.420705,76.618885 210.531233,67.762419 216.035943,66.0187049 C217.107971,65.4826907 218.182223,65.4826907 219.254252,65.4826907 C227.094939,65.2730282 228.013175,70.7654786 228.036202,73.202609 L228.036031,73.412459 C228.029676,73.982573 227.97727,74.3391568 227.97727,74.3391568 C233.34186,68.1672097 237.100631,65.8852574 242.064878,66.1521524 C247.433916,66.4212715 249.311078,70.1800429 249.311078,73.1314569 C249.175406,76.618885 246.631007,80.6445514 242.204998,80.777999 C238.308331,80.777999 236.028603,78.8986133 234.820903,75.4111851 C232.272056,76.35199 231.06658,78.0957041 230.528342,81.5831322 C229.720984,86.0113653 233.077189,89.5010175 237.36975,89.5010175 C244.751621,89.5032417 247.974379,86.2804844 250.658898,83.8650846 C252.711654,81.9329315 254.560498,79.9803985 256.343096,78.1159918 L256.935031,77.4979357 C262.833619,71.3529909 268.166098,66.3211859 278.031205,66.4212715 C285.946866,66.554719 287.957475,72.8623378 289.298623,75.5468568 L306.608988,46.2951636 L317.209168,46.2951636 Z M263.136239,82.1235946 C260.72084,85.0750086 258.171992,90.7109416 257.767201,94.0649222 C257.233411,97.421127 258.171992,100.775108 259.379692,101.713688 C259.435864,101.757343 259.501039,101.805064 259.575094,101.855527 L259.692821,101.933114 C261.350915,102.990619 266.536772,104.880584 274.274658,97.0185603 C277.985324,93.3061368 281.612637,87.7502313 282.97063,85.5835507 L283.125424,85.3355378 C283.387876,84.913207 283.531466,84.672442 283.531466,84.672442 L282.054647,84.2676512 C284.872614,79.036509 284.332151,73.3983519 278.569443,72.7288903 C273.869867,72.1928761 267.964815,76.2185425 263.136239,82.1235946 Z M183.563716,45.3543587 C181.548659,45.7591495 180.340959,46.6977303 179.804945,48.7105635 C179.135483,50.8568442 179.404602,52.3336632 179.804945,53.9417057 C179.804945,53.9417057 179.809879,53.942204 179.819597,53.9426323 L179.862953,53.9431385 C180.140414,53.9390751 181.392027,53.800777 183.158926,51.795425 C183.964059,50.9902917 185.30743,48.5748919 185.038311,46.9646253 C184.90264,46.159492 184.502297,45.2209112 183.563716,45.3543587 Z" id="ford" fill="#FFFFFF"></path>
</svg>