<?xml version="1.0" encoding="UTF-8"?>
<svg width="400px" height="322px" viewBox="0 0 400 322" version="1.1" xmlns="http://www.w3.org/2000/svg">
    <title>honda</title>
    <path d="M122.811734,273.361598 C152.1723,273.361598 159.748435,286.304771 159.750868,297.352694 C159.750868,308.71933 152.1723,321.348655 122.811734,321.348655 C93.4511681,321.348655 85.8750327,308.71933 85.8750327,297.352694 C85.8750327,286.304771 93.4511681,273.361598 122.811734,273.361598 Z M192.583221,274.940568 C195.1086,274.940568 196.055008,275.254416 197.317698,276.835818 L220.997379,308.089202 L220.997379,285.674643 C220.997379,284.095673 220.678665,281.886575 218.15572,281.567862 L211.83984,280.935301 L211.837407,274.940568 L240.881693,274.940568 L240.881693,280.937734 L234.884527,281.570295 C232.126446,281.879634 231.749669,283.972087 231.729891,285.536386 L231.729021,319.772118 L209.942157,319.772118 C207.419212,319.772118 206.475236,319.458271 205.210114,317.881734 L181.530433,286.623485 L181.530433,309.038043 C181.530433,310.621879 181.846713,312.830977 184.372092,313.144825 L190.37169,313.777386 L190.37169,319.774551 L161.643686,319.774551 L161.643686,313.777386 L167.640851,313.144825 C170.48251,312.830977 170.798791,310.619446 170.798791,309.038043 L170.798791,285.677076 C170.798791,284.098106 170.48251,281.889008 167.640851,281.570295 L161.643686,280.937734 L161.643686,274.940568 L192.583221,274.940568 Z M38.2018235,274.938135 L38.2018235,280.935301 L32.2046578,281.567862 C29.3629988,281.886575 29.0467183,284.098106 29.0467183,285.674643 L29.0467183,292.934498 L56.8283144,292.934498 L56.8282481,285.537818 C56.8259947,283.970982 56.7471241,281.877469 53.9866554,281.567862 L47.9894898,280.935301 L47.9894898,274.938135 L83.9797824,274.938135 L83.9797824,280.935301 L77.9826167,281.567862 C75.4572383,281.886575 75.1409577,284.098106 75.1409577,285.674643 L75.1409577,309.03561 C75.1409577,310.619446 75.4572383,312.828544 77.9826167,313.142392 L83.9797824,313.774953 L83.9797824,319.772118 L47.9919227,319.772118 L47.9919227,313.774953 L53.9890883,313.142392 C56.6728774,312.84598 56.8219768,310.856882 56.8302601,309.304579 L56.8307473,302.092036 L29.0491512,302.092036 L29.0491512,309.03561 C29.0491512,310.619446 29.3654318,312.828544 32.2070908,313.142392 L38.2042564,313.774953 L38.2042564,319.772118 L2.21396379,319.772118 L2.21396379,313.774953 L8.21356235,313.142392 C10.7389408,312.828544 11.0527884,310.617013 11.0527884,309.03561 L11.0527884,285.674643 C11.0527884,284.095673 10.7389408,281.886575 8.21356235,281.567862 L2.21396379,280.935301 L2.21396379,274.938135 L38.2018235,274.938135 Z M288.871183,274.938135 C304.969862,274.938135 318.234181,281.254014 318.231748,297.355127 C318.231748,313.458672 304.969862,319.769685 288.871183,319.769685 L243.723352,319.769685 L243.723352,313.77252 L249.725383,313.139959 C252.483464,312.835342 252.860242,310.743029 252.880019,309.174284 L252.88089,285.360796 C252.88089,282.519137 251.615768,281.886575 249.725383,281.567862 L244.355913,280.935301 L244.355913,274.938135 L288.871183,274.938135 Z M364.009707,274.938135 C366.218805,274.938135 367.17008,275.570696 368.746617,277.779794 L389.582206,309.663306 C390.526181,310.928428 391.477456,312.823678 394.319115,313.137526 L400,313.77252 L400,319.769685 L360.854201,319.769685 L360.854201,313.77252 L365.904958,313.139959 C368.114056,313.139959 370.323154,311.874837 368.432769,309.351891 L366.537519,306.191519 L338.75349,306.191519 L336.544392,309.984452 C335.27927,311.563422 336.544392,313.139959 338.75349,313.458672 L343.490399,313.77252 L343.490399,319.769685 L314.759961,319.769685 L314.759961,313.77252 L320.757127,313.139959 C322.652377,312.826111 323.284938,311.563422 323.917499,310.617013 L339.383618,285.674643 C340.64874,283.463112 339.072203,281.886575 337.807081,281.886575 L329.914665,280.935301 L329.914665,274.938135 L364.009707,274.938135 Z M122.811734,281.886575 C111.445098,281.886575 106.710622,286.618619 106.710622,297.352694 C106.710622,308.086769 111.447531,312.823678 122.811734,312.823678 C134.17837,312.823678 138.912846,308.086769 138.912846,297.352694 C138.912846,286.618619 134.17837,281.886575 122.811734,281.886575 Z M285.715676,283.463112 L270.560972,283.463112 L270.560972,311.242275 L285.715676,311.242275 C294.554501,311.242275 297.39616,307.14036 297.39616,297.352694 C297.39616,287.569893 294.554501,283.463112 285.715676,283.463112 Z M352.012943,284.409521 L343.487966,297.985255 L361.165615,297.985255 L352.012943,284.409521 Z M195.1086,233.583238 L248.148846,266.413158 L107.026902,266.413158 L85.2424716,246.207698 L195.1086,233.583238 Z M389.89362,1.85421751 C387.633743,9.14122815 384.999437,16.306801 382.001204,23.3223674 C380.11082,27.7429962 377.269161,34.0564424 374.741349,38.1607907 C371.585843,43.2139805 368.430336,46.6833348 365.902525,48.8948656 C360.53792,53.9480555 356.114858,56.473434 351.380382,58.3686843 C348.538723,59.315093 342.541557,61.8404715 338.437209,63.4194412 C337.980191,63.5721723 333.988682,65.0496283 329.591626,66.6433535 L328.961054,66.871689 C328.433841,67.0624102 327.902993,67.2539637 327.373788,67.4443105 L326.597661,67.7230113 C322.858106,69.0635458 319.332083,70.2927348 317.913035,70.6792961 L33.1510665,171.387886 C26.5213398,173.596984 18.9452044,178.01518 18.9452044,186.540157 C18.9452044,190.333091 21.1567353,195.383848 25.5749311,199.48333 L97.5555164,266.413158 L64.0906022,266.413158 C63.4604741,264.522774 62.5116324,261.681115 61.2489432,259.783431 C59.986254,257.885748 59.3561258,255.995364 55.5656252,252.523577 C52.9925765,249.659489 50.4175298,247.061154 49.2511068,245.892922 L49.0303399,245.672007 C48.9970495,245.638716 48.9655498,245.607221 48.9358984,245.577569 L11.0503555,207.696892 C3.79050064,200.750885 0,191.593347 0,183.387083 C0,172.020447 6.31344618,160.972525 25.2562176,153.393956 L290.136305,45.7369261 C293.924372,44.1579563 313.183424,35.9492598 317.282907,33.737729 C321.705969,31.8449116 334.332861,26.1615935 339.06977,23.9524956 C341.199834,23.0753538 344.873362,21.4015477 348.667133,19.6427651 L349.511594,19.250815 L349.862297,19.0877863 L350.912432,18.598843 C355.915562,16.2668445 360.639022,14.0312992 361.798177,13.5347012 C363.610423,12.681976 365.494722,11.7932591 367.387229,10.8974111 L368.261045,10.4835416 C377.291687,6.20382895 386.285621,1.86290653 388.317083,0.591528272 C388.949644,0.275247731 390.212334,0.907808813 389.89362,1.85421751 Z M292.026689,180.224278 C292.65925,180.224278 292.977964,180.856839 292.656817,181.482101 C291.398994,183.061071 288.557335,186.535291 287.292213,188.111828 C285.719882,190.10229 284.033466,191.999913 282.241456,193.795146 C281.431104,194.685972 280.537895,195.659814 279.63102,196.636778 L279.085809,197.222692 C276.62996,199.855237 274.175366,202.394047 273.083918,203.266532 C271.188667,205.164215 268.033161,207.692026 262.982404,209.901124 C257.931647,212.42407 253.192305,213.370479 251.30192,213.689192 C249.501734,213.966636 237.316385,215.762376 224.122084,217.691176 L222.670336,217.90334 C222.508683,217.926958 222.346931,217.950589 222.185096,217.974229 L220.367184,218.239686 C220.051791,218.285723 219.736329,218.331763 219.420921,218.377784 L218.47499,218.51578 L217.058355,218.722339 C202.441088,220.853003 188.619019,222.84673 188.16016,222.84673 C186.267342,223.160578 185.320934,224.423267 185.320934,225.688389 C185.320934,226.948645 185.634781,227.897487 187.530031,228.843896 L80.8218428,242.100916 L60.9326627,223.479291 L292.026689,180.224278 Z M329.282104,130.979398 C328.581421,131.961219 327.630837,133.504836 326.679826,135.083109 L326.20544,135.872692 C325.182531,137.579138 324.207919,139.223146 323.598786,140.134503 C322.340963,142.02732 320.757127,144.552699 318.866742,147.078077 C318.055346,148.090956 317.146439,149.234184 316.223701,150.39278 L315.299452,151.552241 L314.211274,152.91253 C312.967525,154.462822 311.814497,155.881489 310.974327,156.863311 C309.395357,158.444713 306.867545,161.60022 302.130636,164.441879 C297.39616,167.597386 292.345403,168.546227 290.450152,168.862508 L145.858854,196.960384 C144.431185,197.154675 143.358738,198.361436 143.333475,199.802043 C143.333475,201.381013 144.282317,202.011141 145.858854,202.95755 L56.8307473,220.007504 L39.4669456,203.903959 L328.335695,129.714276 C328.968256,129.397995 329.598385,130.344404 329.282104,130.979398 Z M361.795744,70.6792961 C361.163183,72.2582659 357.693828,79.2018402 356.744987,80.78081 C354.535889,85.2014388 352.326791,89.3057871 350.11526,92.7775742 C349.460712,93.8069728 348.750631,94.9470111 348.026153,96.0992795 L347.20721,97.3955513 C345.748226,99.6907553 344.293355,101.887265 343.171686,103.197802 C340.011313,106.985869 337.169654,109.511248 332.751458,112.669187 C327.06814,116.457255 322.017383,117.719944 319.808285,118.668786 L109.868561,174.859673 C108.292024,175.173521 107.659463,177.068771 107.659463,177.701332 C107.659463,178.966455 108.605872,180.224278 109.868561,180.856839 L35.3625974,200.115891 L29.3654318,194.432573 C27.1563338,192.542189 26.2074922,189.700529 26.2074922,187.488999 C26.2074922,182.119528 30.3118404,179.596583 36.9440001,177.387485 L321.387255,83.9363166 C322.773134,83.4743572 324.624358,82.8433881 326.507504,82.198051 L327.261437,81.9395164 L327.929475,81.7101993 C330.702413,80.757954 333.305829,79.8596537 334.330428,79.5181208 C336.225678,78.8879926 343.801814,76.0463336 345.064503,75.7300531 C350.11526,73.5209551 355.166017,71.6257048 360.535487,69.4166069 C361.163183,69.1003263 362.112024,69.7328874 361.795744,70.6792961 Z" id="honda" fill="#FFFFFF"></path>
</svg>