<?xml version="1.0" encoding="UTF-8"?>
<svg width="400px" height="44px" viewBox="0 0 400 44" version="1.1" xmlns="http://www.w3.org/2000/svg">
    <title>hummer</title>
    <path d="M24.0761353,1.70246133 L24.0761353,17.8199429 L35.7207569,17.8199429 L35.7207569,1.70246133 L59.7968921,1.70246133 L59.7968921,43.8287955 L35.7207569,43.8287955 L35.7207569,27.5249447 L24.0761353,27.5249447 L24.0761353,43.8287955 L0,43.8287955 L0,1.70246133 L24.0761353,1.70246133 Z M86.9722776,1.70246133 L86.9722776,29.851108 C86.9722776,32.763989 88.7186257,36.0634135 92.9913114,36.0634135 C97.2639971,36.0634135 99.0103452,32.763989 99.0103452,29.851108 L99.0103452,1.70246133 L123.079578,1.70246133 L123.079578,30.2376515 C123.079578,34.5103372 119.39361,43.8287955 105.609194,43.8287955 L80.3734286,43.8287955 C66.5959154,43.8287955 62.9030449,34.5103372 62.9030449,30.2376515 L62.9030449,1.70246133 L86.9722776,1.70246133 Z M153.754562,1.70246133 L163.273195,18.7863016 L172.784925,1.70246133 L200.346854,1.70246133 L200.346854,43.8287955 L178.217241,43.8287955 L178.217241,25.7785966 L168.318967,43.8287955 L158.22052,43.8287955 L148.322246,25.7785966 L148.322246,43.8287955 L126.192633,43.8287955 L126.192633,1.70246133 L153.754562,1.70246133 Z M231.021838,1.70246133 L240.540471,18.7863016 L250.052201,1.70246133 L277.621032,1.70246133 L277.621032,43.8287955 L255.484517,43.8287955 L255.484517,25.7785966 L245.586243,43.8287955 L235.487795,43.8287955 L225.589522,25.7785966 L225.589522,43.8287955 L203.459909,43.8287955 L203.459909,1.70246133 L231.021838,1.70246133 Z M327.70602,1.70246133 L327.70602,13.3539855 L305.576407,13.3539855 L305.576407,17.8199429 L327.70602,17.8199429 L327.70602,27.5249447 L305.576407,27.5249447 L305.576407,32.1841739 L327.70602,32.1841739 L327.70602,43.8287955 L280.720282,43.8287955 L280.720282,1.70246133 L327.70602,1.70246133 Z M378.764269,1.70246133 C388.082727,1.70246133 391.382152,10.4411045 391.382152,15.6801488 C391.382152,20.9260957 387.302738,29.0780211 382.256965,28.8778468 L394.874848,43.8287955 L365.173125,43.8287955 L354.881405,31.6043587 L354.881405,43.8287955 L330.812173,43.8287955 L330.812173,1.70246133 Z M362.260244,11.6076374 L354.881405,11.6076374 L354.881405,21.1193674 L361.487157,21.1193674 C367.699462,21.1193674 368.279278,11.6076374 362.260244,11.6076374 Z M395.302807,0.798225744 C397.896995,0.798225744 400,2.90123079 400,5.49541899 C400,8.08960719 397.896995,10.1926122 395.302807,10.1926122 C392.708619,10.1926122 390.605614,8.08960719 390.605614,5.49541899 C390.605614,2.90123079 392.708619,0.798225744 395.302807,0.798225744 Z M395.302807,1.58511778 C394.271764,1.57535945 393.281101,1.98539443 392.55855,2.72096468 C391.835999,3.45653493 391.443718,4.45436121 391.471885,5.48506515 C391.436046,6.52047962 391.824924,7.52556224 392.54833,8.26721651 C393.271736,9.00887078 394.266821,9.42266132 395.302807,9.41262276 C396.333408,9.41317284 397.320112,8.99545772 398.037053,8.25509583 C398.753994,7.51473395 399.139786,6.51511686 399.106118,5.48506515 C399.13411,4.45917876 398.745572,3.46566268 398.02905,2.73093577 C397.312529,1.99620885 396.329072,1.58287003 395.302807,1.58511778 Z M395.551299,2.78616352 C396.828273,2.78616352 397.463309,3.25553771 397.463309,4.32543478 C397.463309,5.29869598 396.848981,5.71975225 396.062089,5.81638811 L397.608262,8.20467446 L396.690222,8.20467446 L395.261391,5.85780348 L394.31574,5.85780348 L394.31574,8.20467446 L393.494336,8.20467446 L393.494336,2.78616352 Z M395.427053,3.48332225 L394.308838,3.48332225 L394.308838,5.16064475 L395.289002,5.16064475 C395.98616,5.16064475 396.607391,5.11232681 396.607391,4.27711685 C396.607391,3.60756836 395.999965,3.48332225 395.427053,3.48332225 Z" id="hummer" fill="#FFFFFF"></path>
</svg>