<?xml version="1.0" encoding="UTF-8"?>
<svg width="400px" height="205px" viewBox="0 0 400 205" version="1.1" xmlns="http://www.w3.org/2000/svg">
    <title>hyundai</title>
    <path d="M314.359367,18.5139059 C325.024744,22.4580273 335.542401,26.7714484 345.572582,32.0893649 C372.487148,46.8170391 402.946992,72.7123379 399.771014,107.234479 C396.078017,139.23061 366.253369,161.565859 339.604698,175.023142 C261.785854,212.219013 152.502671,213.356456 72.1578162,180.858078 C45.0068982,169.557505 14.5322825,150.132338 3.11353411,120.942886 C-5.63148408,96.9531737 5.01912084,71.9589664 22.9227729,55.3257054 C60.369768,21.3058121 108.098068,9.63593981 157.214936,2.89991229 C210.527048,-3.5702194 266.631067,2.14654079 314.359367,18.5139059 Z M228.4307,115.757917 C214.604117,113.970506 201.516134,117.78168 189.211066,121.34173 C187.035201,122.070265 184.857666,122.796552 182.6801,123.524233 L180.502584,124.252514 C178.325179,124.981529 176.148289,125.713151 173.973553,126.451023 L171.799596,127.191112 C144.635622,136.471637 117.893521,146.918213 94.7737331,165.642928 C93.503342,166.780371 92.6022506,168.434834 93.2374462,170.207473 C94.0693273,171.465283 95.3375788,172.370425 96.7974958,172.748255 C128.527151,182.228114 161.416616,187.268911 194.528983,187.727053 C209.640729,189.233796 222.19692,179.085439 229.819267,167.282619 C229.903887,167.125781 229.988721,166.968886 230.073744,166.811931 L230.585974,165.869437 L231.101615,164.925283 L231.619516,163.97926 C231.878841,163.505748 232.138583,163.031457 232.398096,162.556272 L232.916626,161.604675 C233.261853,160.969436 233.605908,160.33247 233.947259,159.693499 L234.457064,158.733507 C239.784707,148.637085 244.251502,138.009458 241.873211,125.773327 C239.849449,120.440638 234.132688,116.511289 228.4307,115.757917 Z M343.149976,50.5100366 C342.0728,50.8981918 341.112047,51.5539436 340.35807,52.4156234 C334.27201,65.8729064 327.66893,79.5813133 320.563603,92.9056484 C305.200733,122.479173 287.681153,151.668625 264.592532,177.696872 L264.20846,179.469511 C264.459584,180.991026 266.114047,180.739902 267.133315,180.858078 C283.382504,179.336563 298.361302,174.254998 313.207152,169.306382 C340.491018,158.655777 374.762035,141.889568 382.635506,110.410457 C387.465946,89.094475 373.24052,71.4419467 357.50835,58.5016833 C356.307154,57.6969986 355.14074,56.7971757 353.969534,55.8988604 L353.265918,55.3608252 C350.211683,53.0368244 347.071551,50.8536798 343.149976,50.5100366 Z M136.01713,24.9840376 C135.13081,23.3443467 132.841152,23.5954705 131.083285,23.5806985 C114.467052,26.2976994 98.1757851,30.7232212 82.4686653,36.7868578 C56.3074707,47.8215344 24.9613076,64.0854956 17.2207847,94.5453393 C12.3903439,117.899856 29.1417808,137.576147 47.6658565,149.763039 C48.3401978,150.063649 49.0234762,150.479944 49.7147814,150.935918 L50.0926476,151.188109 L50.472073,151.44543 C50.5988044,151.531754 50.7257901,151.618475 50.8530248,151.705138 L51.2354703,151.964494 C53.853876,153.72931 56.5745976,155.277423 59.3505007,152.673121 C60.6933223,149.848335 62.0408782,147.022442 63.3959335,144.197153 L64.753591,141.372128 C84.0253861,101.355579 104.987214,61.5744161 135.50011,26.8896243 Z M202.424831,17.1035023 L200.733219,17.1105668 C184.232906,17.3616907 172.31191,32.7245605 165.575882,45.7977718 C160.494317,56.1972528 154.659381,68.6352686 158.972802,80.5710366 C161.150035,84.3617446 164.767647,87.110917 169.002984,88.1933836 C182.167148,91.0789863 194.391335,87.8420303 206.329536,84.4517985 L208.354147,83.8757081 C211.499636,82.9806437 214.627753,82.0984604 217.750551,81.3391801 C248.476291,71.3089988 278.552063,59.8902504 304.831433,39.3276401 C305.968877,37.939073 308.007411,36.5357339 306.988144,34.3790234 C305.850701,32.4734366 303.561042,32.0893649 301.655456,31.0848695 C269.807045,22.1921315 236.289399,16.874215 200.733219,17.1105668 Z" id="hyundai" fill="#FFFFFF"></path>
</svg>