<?xml version="1.0" encoding="UTF-8"?>
<svg width="400px" height="106px" viewBox="0 0 400 106" version="1.1" xmlns="http://www.w3.org/2000/svg">
    <title>ineos</title>
    <path d="M369.336842,0.828795464 C380.589474,0.828795464 391.421053,3.78353231 399.858947,11.2382691 L384.810526,27.6972165 C381.290526,23.1993218 374.26,21.0866902 368.913684,21.0866902 C362.725263,21.0866902 354.143158,23.9003744 354.143158,31.3582691 C354.143158,49.5035323 400,37.8287955 400,72.7161639 C400,94.941427 382.136842,105.491953 361.6,105.491953 C348.801053,105.491953 337.545263,101.694059 328.12,92.9709007 L343.733684,75.8087955 C348.236842,81.7193218 355.549474,85.2340586 362.863158,85.2340586 C370.038947,85.2340586 378.056842,81.8603744 378.056842,74.8256376 C378.056842,56.5382691 331.356842,66.3835323 331.356842,33.1845849 C331.356842,11.9424797 349.785263,0.828795464 369.336842,0.828795464 Z M235.051579,60.4972165 C238.170526,74.9698481 250.648421,84.061427 266.991579,84.061427 C282.911579,84.061427 295.147368,75.4256376 298.658947,61.6098481 C297.247368,87.7572165 288.923158,105.294059 267.161053,105.294059 C244.702105,105.294059 236.2,87.9182691 235.051579,60.4972165 Z M249.696842,2.03826915 C231.991579,9.82774283 222.146316,29.8666902 222.146316,55.6066902 C222.147368,79.2961639 232.768421,97.1224797 249.515789,104.34669 C227.166316,97.7393218 213.608421,78.2235323 213.608421,53.2203744 C213.608421,28.1456376 227.237895,8.58879546 249.696842,2.03826915 Z M286.101053,2.6066902 C307.478947,9.66563757 320.375789,28.8309007 320.375789,53.2203744 C320.375789,77.8856376 307.181053,97.2035323 285.367368,104.064585 C302.612632,96.0593218 311.644211,76.1277428 311.644211,51.2172165 C311.644211,27.7056376 301.863158,10.1645849 286.101053,2.6066902 Z M199.977895,3.41721652 L199.977895,23.9645849 L154.051579,23.9645849 L154.051579,42.533006 L197.236842,42.533006 L197.236842,62.7919534 L154.051579,62.7919534 L154.051579,83.0498481 L202.3,83.0498481 L202.304211,103.413006 L132.109474,103.413006 L132.105263,3.41721652 L199.977895,3.41721652 Z M267.161053,1.07511125 C289.507368,1.07511125 297.497895,18.2772165 298.710526,45.0456376 C295.272632,31.1003744 282.996842,22.3761639 266.991579,22.3761639 C250.725263,22.3761639 238.292632,31.3909007 235.098947,45.7424797 C236.434737,19.1109007 245.008421,1.07511125 267.161053,1.07511125 Z M39.1968421,103.411953 L39.1968421,100.685638 L46.5789474,100.685638 L46.5789474,6.28879546 L39.1968421,6.28879546 L39.1968421,3.41826915 L58.3863158,3.41826915 L104.147368,84.9172165 L104.147368,6.2866902 L91.7473684,6.2866902 L91.7473684,3.41616388 L112.266316,3.41616388 L112.266316,6.2866902 L107.542105,6.2866902 L107.542105,103.410901 L102.962105,103.410901 L49.9726316,7.00353231 L49.9726316,100.685638 L61.9305263,100.685638 L61.9305263,103.410901 L39.1968421,103.411953 Z M0,103.411953 L0,100.685638 L7.53052632,100.685638 L7.53052632,6.27616388 L0,6.27616388 L0,3.42563757 L25.0231579,3.42563757 L25.0231579,6.27616388 L17.42,6.27616388 L17.42,100.68669 L25.0231579,100.68669 L25.0231579,103.413006 L0,103.411953 Z" id="ineos" fill="#FFFFFF"></path>
</svg>