<?xml version="1.0" encoding="UTF-8"?>
<svg width="400px" height="209px" viewBox="0 0 400 209" version="1.1" xmlns="http://www.w3.org/2000/svg">
    <title>infiniti</title>
    <path d="M285.331377,148.012438 C277.385319,137.718618 199.979038,33.3857387 199.979038,33.3857387 C199.979038,33.3857387 122.276491,138.601824 114.850295,148.244419 C86.1516962,145.796038 36.2841072,126.653391 36.2841072,93.4325542 C36.2841072,51.1896028 108.687419,12.0658212 199.979038,12.0658212 C295.851588,12.0658212 363.687943,51.1896028 363.687943,93.4325542 C363.687943,126.653391 314.069105,145.566852 285.331377,148.012438 M199.979038,0 C82.0682668,0 0,46.0552702 0,105.705202 C0,133.531775 17.9436118,165.014149 56.0248751,183.947175 C91.3726723,201.502288 141.304545,207.620445 148.515529,208.506446 L199.979038,56.8549768 L251.970793,208.509241 C259.159417,207.62324 308.635713,201.502288 343.9891,183.947175 C382.048003,165.016944 400,133.531775 400,105.705202 C400,46.0552702 317.906579,0 199.979038,0" id="infiniti" fill="#FFFFFF"></path>
</svg>