<?xml version="1.0" encoding="UTF-8"?>
<svg width="400px" height="70px" viewBox="0 0 400 70" version="1.1" xmlns="http://www.w3.org/2000/svg">
    <title>isuzu</title>
    <path d="M174.136018,69.0619129 C175.553618,69.0619129 184.173617,69.0159129 191.132416,68.531113 C199.542015,67.9443131 203.876415,65.0607134 207.052414,60.9291139 C210.991614,55.8155145 210.966014,46.2267157 210.960814,38.7651166 C210.956014,30.4323176 211.071214,6.28992048 211.035214,4.13712074 C211.007214,1.976321 210.189614,0.853521139 207.718814,0.873648039 C205.245214,0.889521135 198.270815,0.873648039 195.876816,0.894721135 L191.611616,0.873648039 C189.138416,0.853921139 188.323216,1.976321 188.287616,4.13712074 L188.287616,6.45152047 C188.323216,9.00712016 188.254016,33.3647172 188.243616,39.0755165 L188.243616,41.6051162 C188.177216,46.8651156 187.536417,51.981115 180.098017,52.7731149 C176.888818,53.1115148 175.418018,53.2627148 171.442018,53.2627148 C167.462019,53.2627148 165.995619,53.1115148 162.74282,52.7731149 C155.30682,51.991115 154.85602,46.8651156 154.78682,41.6051162 L154.78682,39.0755165 C154.77642,33.3647172 154.70722,9.00712016 154.73802,6.45152047 L154.73802,4.13712074 C154.70722,1.976321 153.887221,0.853521139 151.418821,0.873648039 L147.148421,0.894721135 C144.754422,0.873648039 137.785223,0.889521135 135.309223,0.873648039 C132.841223,0.853921139 132.023223,1.976321 131.995223,4.13712074 C131.959223,6.28992048 131.984823,30.4323176 131.974424,38.7651166 C131.970023,46.2267157 131.949223,55.8155145 135.883623,60.9291139 C139.051622,65.0611134 143.326822,67.9443131 151.708421,68.531113 C158.66762,69.0207129 167.031219,69.0619129 168.884419,69.0619129 L174.136418,69.0619129 L174.136018,69.0619129 Z M22.9788363,65.9291133 C22.9300363,68.274313 22.2380364,69.1999129 19.8364367,69.2563129 C17.426837,69.3255129 5.63883842,69.2871129 3.49123868,69.2691129 C1.35323894,69.2459129 0.0360390986,68.597113 0.0308390992,66.3035133 C0.0156391011,64.0119135 0.0156391011,6.39432047 1.94777285e-05,4.20552074 C-0.00516089644,2.027121 1.02283898,0.994321123 3.28083871,1.06312111 C5.53403844,1.11712111 17.111637,1.00192112 20.1848367,1.05552112 C22.5096364,1.03752112 23.0556363,2.37832096 23.0632363,4.77232067 C23.1196363,7.99152028 23.0352363,63.5967136 22.9788363,65.9291133 M344.175998,42.6207161 C344.219998,48.0287155 345.526797,51.647915 351.724797,52.6119149 C356.686796,53.1243148 363.399995,53.2295148 368.551995,52.7067149 C373.267994,52.188715 376.899994,50.2767152 377.112794,44.9375158 C377.351194,40.4291164 377.371594,39.6523165 377.387194,34.897517 C377.412794,23.3583184 377.287194,6.59752045 377.325594,4.95232065 L377.345594,4.25232073 C377.307594,1.69712104 378.473594,0.617921168 380.637193,0.617921168 L381.931593,0.574321173 C384.394793,0.595121171 394.306392,0.618321168 396.705591,0.618321168 C398.868791,0.618321168 400.035191,1.69712104 399.999191,4.25272073 L399.968391,5.04992063 C400.014391,7.45912034 399.940391,32.9859173 399.914791,40.5187164 C399.778791,44.3019159 399.509591,53.1143148 396.595191,58.7019142 C394.057592,63.5515136 389.515992,67.2807131 381.793193,68.047113 C366.949995,69.5259129 353.416397,68.9111129 342.994398,68.475113 C335.248799,68.075113 330.258399,66.3399133 326.1184,61.7391138 C321.4332,56.4643144 321.1872,47.4495155 321.2564,37.1099168 C321.1668,14.2951195 321.0976,7.72072031 321.1332,5.54432057 L321.1332,4.25232073 C321.0972,1.69712104 322.2636,0.617921168 324.4268,0.617921168 L325.7136,0.574321173 C328.2,0.595121171 338.483198,0.618321168 340.887598,0.618321168 C343.043198,0.618321168 344.219598,1.69712104 344.175998,4.25272073 C344.139998,6.81832042 344.165998,36.0359169 344.175998,42.4719161 M228.718412,0.819921144 C231.035611,0.751121152 272.476806,0.799921146 285.433605,0.871521137 C296.906403,0.999521122 301.148403,2.63232093 304.262802,6.80032042 C307.856002,11.6163198 308.228002,17.6499191 305.323602,22.6147185 C303.239603,26.1747181 299.384803,29.2815177 293.602404,32.1035174 C289.012004,34.4619171 280.973605,38.0399167 273.117606,41.4975162 C262.596007,46.1447157 253.068409,50.1687152 251.466809,51.0071151 C249.298009,52.145115 250.118409,53.8495148 251.840809,53.8239148 C256.336808,53.7699148 299.746403,53.4163148 302.063603,53.4111148 C304.390802,53.4087148 305.146802,54.2471147 305.146802,56.7459144 C305.142002,59.3603141 305.167202,63.8303136 305.172402,65.8579133 C305.118802,68.295513 304.342002,68.9619129 302.032403,68.9851129 C299.395203,69.0131129 253.153209,69.0259129 249.864409,69.0411129 C242.55441,69.0235129 235.026411,69.0515129 230.536011,66.8755132 C224.928012,64.1507135 223.030812,58.6887142 223.025612,54.8595146 C223.292412,45.5271158 228.493212,42.5383161 237.86401,38.1963166 C248.283209,33.4671172 279.041205,20.1619188 280.873605,19.3107189 C283.144805,18.252319 282.440005,16.1707193 280.332805,16.2403193 C278.715606,16.2735193 231.602011,16.5143193 229.274811,16.5123193 C226.954812,16.5043193 225.478812,16.1299193 225.478812,13.8795196 C225.483612,11.6395198 225.458412,6.02112052 225.458412,3.7091208 C225.458412,1.38672108 226.391212,0.894721135 228.718412,0.820321143 M107.042826,35.9143169 C96.6212275,31.5855174 66.2120311,21.9663186 62.1776316,19.9695188 C60.2348318,19.1335189 60.3656318,16.6527192 62.9952315,16.6527192 C67.486031,16.7191192 112.059226,16.8063192 114.386825,16.8219192 C116.711225,16.8271192 117.690825,15.9219193 117.690825,13.4179196 C117.700825,10.8059199 117.682825,6.01312052 117.652025,3.90872077 C117.621225,1.76872103 116.849625,0.958321127 114.927225,0.953121127 C113.005225,0.953121127 61.5264317,1.01472112 61.5264317,1.01472112 C47.1600334,0.981521124 43.4744339,3.09592087 39.4040344,7.98392028 C34.097635,14.3611195 35.7840348,22.9943185 38.8292344,27.4463179 C42.258834,32.4263173 47.9212333,34.6279171 56.9304322,37.7807167 C67.8444309,41.3307163 93.5476278,50.3711152 93.5476278,50.3711152 C95.9032276,51.3887151 95.7236276,53.8571148 92.8148279,53.8571148 C92.8148279,53.8571148 43.7840338,53.4159148 41.4616341,53.4111148 C39.1344344,53.4087148 37.9988345,54.5439147 37.9888345,56.7919144 C37.9888345,59.0399141 37.9680345,63.1587136 37.9580345,65.4959134 C37.9580345,67.8079131 38.6292345,69.1279129 40.9568342,69.2103129 C43.2688339,69.2899129 85.4276288,69.1307129 98.3920273,69.1051129 C108.255226,69.0795129 117.782425,66.0319133 119.738025,55.1387146 C120.909625,45.7523157 116.936425,39.9339164 107.042826,35.9147169" id="isuzu" fill="#FFFFFF"></path>
</svg>