<?xml version="1.0" encoding="UTF-8"?>
<svg width="400px" height="152px" viewBox="0 0 400 152" version="1.1" xmlns="http://www.w3.org/2000/svg">
    <title>jaguar</title>
    <path d="M17.4248925,17.000153 C17.4248925,17.000153 17.6682236,16.1435343 17.7732585,15.9562219 C17.8782935,15.7624907 18.4641553,13.7849154 21.2919306,13.5695936 C21.2919306,13.5695936 22.7169052,13.4423846 24.3583687,13.9506372 C24.3583687,13.9506372 23.4136373,16.3868654 19.5471828,16.790083 C19.5465992,16.790083 18.0265096,17.0170753 17.4248925,17.000153 M396.034588,126.832904 C395.074101,129.206695 390.957897,132.230535 386.123954,133.847491 C381.019837,135.553726 370.361703,135.598074 364.910387,133.786804 C364.910387,133.786804 363.761421,132.537471 359.926477,131.411263 C351.010174,128.788306 348.126964,126.95953 343.601706,122.744126 C340.403975,119.766967 336.882968,116.03239 333.470498,112.512551 C331.950992,110.944028 328.254928,107.242129 321.758514,106.115337 C314.98084,104.944197 298.345632,103.673273 292.219758,101.507802 C288.098302,100.044314 283.213592,97.2655555 277.083049,88.0948341 C274.14382,83.6921176 271.917079,82.4101073 267.674249,79.7031223 C267.674249,79.7031223 270.912244,82.2607242 272.614394,85.3656751 C275.072213,89.8740101 276.249188,93.1172571 277.591302,95.5138053 C278.943336,97.928443 280.508357,100.078159 282.949837,102.038812 C285.977179,104.469789 287.933164,105.005467 291.352636,105.69578 C294.622725,106.359251 305.787944,106.851165 315.367719,107.226373 C324.786439,107.591078 328.813947,110.508133 331.758428,112.978206 C334.465413,115.264467 338.780017,121.795893 341.807942,124.46845 C345.856457,128.026802 345.962076,128.076402 350.663559,131.026134 C353.038516,132.517048 355.132797,133.493873 357.061356,134.18652 C361.37596,136.721365 359.591532,141.146839 359.591532,141.146839 C358.354454,144.672513 353.902137,145.935851 348.703489,145.200606 C340.846872,144.506208 334.084953,137.953192 328.3728,133.251709 C325.229337,130.660262 324.1183,129.367165 318.057781,125.157013 C308.83746,118.760965 287.171076,119.290809 287.171076,119.290809 L271.293288,119.191025 C240.366903,119.644426 229.051717,94.7622217 225.964272,89.5408158 C224.898167,87.7237105 223.909671,86.2596395 222.969608,85.0604901 C221.527711,83.1155923 213.766793,72.9843843 205.451523,69.365929 C205.451523,69.365929 213.434182,76.2713958 212.633582,80.0503212 C210.920928,80.0281472 208.97603,80.1384339 206.655341,80.2049561 C175.497879,81.1170099 169.023055,79.3926855 164.100999,78.4094413 C159.172524,77.4203619 150.913857,74.967795 142.887433,71.2717305 C142.887433,71.2717305 143.782565,63.5930894 140.594753,57.212214 C140.594753,57.212214 166.311986,66.2942392 186.773385,63.7202985 C186.773385,63.7202985 153.748634,62.1068444 133.148356,45.6892925 C133.148356,45.6892925 138.231466,63.0416558 134.214461,70.3281662 C134.214461,70.3281662 128.801074,83.5590733 101.039744,74.7308827 C101.039744,74.7308827 88.2721579,69.7644784 78.3446011,69.7644784 C78.3446011,69.7644784 70.8701948,70.0737481 69.9762303,73.9687955 C69.9762303,73.9687955 69.4889847,75.8302489 71.4397178,76.7142934 C71.4397178,76.7142934 73.6051891,77.3334163 72.5828486,78.9404515 C70.8982041,81.5978367 68.5600086,83.6530213 66.240486,84.8124908 C58.4953228,84.4314472 59.069514,78.0727459 59.069514,78.0727459 C59.2078101,75.8185783 59.9372197,74.2442206 60.627533,72.6920369 C65.494154,61.80341 82.5979345,60.223217 82.5979345,60.223217 C100.795829,58.4061117 119.871934,62.7755671 119.871934,62.7755671 C106.226138,59.5212331 101.585926,57.1346048 97.6850433,53.8808544 C92.4309598,49.4944766 87.5205742,34.7557339 87.5205742,34.7557339 C85.4268768,41.9815575 88.0183234,49.2849902 89.76949,53.0359063 C87.1832952,48.9091983 83.4989013,45.4237874 80.2118898,42.7879928 C71.8090908,36.052916 59.6104442,33.8769412 59.6104442,33.8769412 C56.0853534,33.2741571 54.6878045,29.6230243 54.6878045,29.6230243 C50.1683825,21.3030863 45.0531786,20.9109557 45.0531786,20.9109557 C47.5716842,24.3636891 47.3067626,29.0873458 47.3067626,29.0873458 C47.3067626,37.7941627 36.1094495,40.6837919 36.1094495,40.6837919 C27.7334929,49.0089816 26.2810924,48.8315892 24.6454643,48.9535465 C23.0098361,49.0696685 21.8007668,47.3733534 21.8007668,47.3733534 C21.2697565,46.5774216 22.153801,45.8649343 22.153801,45.8649343 C23.5676886,44.9808899 24.9051341,43.8266721 24.9051341,43.8266721 C33.0704373,37.2689877 34.2194033,33.9160376 33.5565158,29.3411804 C32.2249056,20.2031366 24.8555343,20.8776946 24.8555343,20.8776946 C21.3911303,20.8776946 19.67906,23.5181574 19.67906,23.5181574 C18.3421981,25.1094375 15.4193078,30.0863453 15.4193078,30.0863453 C12.8447836,34.3408457 10.5415997,33.7158876 10.5415997,33.7158876 C7.70215393,33.8985317 5.64696937,31.3788591 5.64696937,31.3788591 C5.5360991,31.2802429 5.45323817,31.1635374 5.35987374,31.0643377 C3.25567284,28.8043349 5.06694283,26.0757594 5.06694283,26.0757594 C8.53193033,19.9545538 14.5084211,19.3529367 15.3206916,19.3027533 C16.1376304,19.2531535 18.8947988,19.0483352 18.8947988,19.0483352 C25.6444637,18.5570049 30.053599,12.1043556 30.053599,12.1043556 C27.2089015,10.7289808 22.1269587,11.4583904 22.1269587,11.4583904 C17.1768932,11.7898341 15.8727088,17.0433341 15.8622053,17.0433341 C11.5750273,17.673544 11.790349,14.3806971 12.7076546,13.513575 C13.4312289,12.6627916 15.9829956,8.5302484 32.3964628,6.06659444 C32.3964628,6.06659444 41.1032796,4.34285361 56.5661802,6.03916864 C57.1351197,6.09985552 57.6871369,6.59760465 56.9583108,7.45889154 C55.013413,9.74106839 48.9313037,14.8008371 39.1747206,12.3535219 C39.1747206,12.3535219 38.9984952,16.2538211 49.6385393,18.2039707 C49.6385393,18.2039707 59.2346524,20.2474847 74.9017877,32.8324266 C74.9017877,32.8324266 67.3060076,18.7839972 54.1743001,14.5020709 C54.1743001,14.5020709 53.2015595,13.8835315 54.0856039,12.9942353 C54.0856039,12.9942353 60.300174,7.42504693 71.2664101,8.01090875 C71.2664101,8.01090875 107.529156,9.87294565 127.914696,31.1471986 C127.914696,31.1471986 127.208044,27.6005172 124.103093,22.4573041 C124.103093,22.4573041 123.478718,21.8440165 123.837588,21.3970342 C123.837588,21.3970342 124.103093,20.5071545 127.649774,21.2196418 C127.649774,21.2196418 140.593586,23.3471838 170.640594,34.3402622 C170.640594,34.3402622 193.16418,42.2348085 205.445688,47.3284218 C223.908504,54.979637 270.163578,73.7412197 299.378476,89.9113559 C304.594047,92.7951498 326.321701,103.529142 326.321701,103.529142 C342.563611,113.61075 357.507755,120.908931 357.507755,120.908931 C372.224907,127.709946 382.925638,124.593908 382.925638,124.593908 C386.344527,123.306063 392.875953,119.760548 395.421884,122.27847 C396.719066,123.567483 396.796092,125.245709 396.034588,126.832904 L396.034588,126.832904 Z M399.696808,121.12542 C397.772917,116.645678 391.580521,117.74446 391.580521,117.74446 C388.748078,117.916017 385.17397,120.881505 380.206399,121.903262 C369.522007,124.10783 361.351452,120.473619 361.351452,120.473619 C345.607875,113.424605 334.950325,105.74538 328.016849,101.778559 C321.084539,97.812321 295.423325,84.3322475 269.756276,71.4327841 C269.756276,71.4327841 240.354649,56.3620142 196.854409,38.379441 C196.854409,38.379441 112.926203,0.297532201 52.5608461,0.297532201 C52.5608461,0.297532201 21.2925141,-0.0937075094 10.7026534,11.9392172 C10.7026534,11.9392172 8.83536473,13.4861492 9.74625148,15.3919507 C9.74625148,15.3919507 9.87346052,15.9171256 9.4813299,16.2538211 C9.4813299,16.2538211 4.82419531,19.3144239 1.03359935,23.7060534 C1.03359935,23.7060534 -0.998244107,25.783412 0.63563346,28.8825276 C0.63563346,28.8825276 2.65755695,32.4070349 3.93431556,33.9212893 C5.22157767,35.4291249 7.79551837,38.0701713 11.7284951,37.6780407 C13.4685747,37.5012318 13.5181745,37.0653366 13.5181745,37.0653366 C15.3247763,38.8882771 18.4793271,38.9985639 18.4793271,38.9985639 C18.1642221,37.8776071 16.9598209,35.6561172 16.8547859,34.3636033 C16.7386639,32.9164546 17.3017682,31.5737574 17.3017682,31.5737574 C17.9594039,29.9824773 19.1918144,28.0101537 20.446399,27.0269095 C21.5621039,26.1539521 24.3291923,25.2483171 26.3954639,26.6954658 C28.0538496,27.8561024 29.8149362,31.5737574 27.8268573,36.4683877 C27.8268573,36.4683877 25.5896121,40.3354258 23.5233405,40.7660693 L22.9497328,40.7934951 C21.7669221,40.771321 19.1322946,39.3189206 19.1322946,39.3189206 C19.1322946,39.3189206 19.0220078,39.6340255 19.3143552,40.9656357 C19.4853288,41.7218876 19.7286599,42.5621675 19.9334781,43.2081327 L19.3861291,43.6498632 C19.3861291,43.6498632 17.7230752,44.9873087 18.4583201,46.9152842 C18.4583201,46.9152842 20.0770259,53.0032287 24.5958644,53.0032287 C28.5906951,53.136273 31.9156359,49.3462606 31.9156359,49.3462606 C40.4847403,40.1037653 52.5608461,38.8608513 52.5608461,38.8608513 C65.9458045,37.9487975 85.073259,51.6552797 90.2824108,55.611014 C70.4605583,55.3956923 62.460977,63.0025594 62.460977,63.0025594 C51.2963415,71.6930375 55.6430394,82.1784468 55.6430394,82.1784468 C56.4558935,84.4594566 58.7427385,86.1225105 60.2015578,86.7632239 C62.3051752,87.6799459 64.0353348,87.7184588 65.6651277,87.5363981 C66.842103,87.4091891 68.1334498,86.9727104 68.7910856,86.5198929 C70.3105917,85.6241778 73.0228285,83.8514207 74.3322646,81.9672097 C75.2058056,81.0224784 76.0834313,78.7082075 75.5034047,76.5036399 C75.5034047,76.5036399 75.150954,74.7302992 76.7469023,74.3708461 C76.7469023,74.3708461 81.9998186,73.0398194 92.6077687,77.7249633 C92.6077687,77.7249633 104.131857,84.4425343 119.08067,85.7741445 C119.08067,85.7741445 136.079999,87.4978853 140.185116,78.2939029 C140.185116,78.2939029 149.95162,82.28815 164.243964,83.9237781 C164.243964,83.9237781 178.170436,85.3650915 200.761127,83.6641083 C205.207025,83.3268293 210.427847,83.6973694 210.427847,83.6973694 C217.659506,84.5644915 222.255954,88.3270782 224.067807,91.271559 C231.471607,103.29223 240.304465,126.876669 276.473847,125.943608 L292.842966,125.494292 C302.79328,125.494292 310.896146,125.577736 318.851962,129.83107 C322.326286,131.693106 331.50401,140.801974 337.154309,143.878915 C353.888133,155.155588 363.555436,149.913175 363.555436,149.913175 C369.25125,146.593486 368.803684,140.686435 367.416639,137.379 C365.703985,136.835736 388.149962,140.670097 397.719816,128.103244 C399.983904,125.301727 400.380702,122.733622 399.696808,121.12542 L399.696808,121.12542 Z" id="jaguar" fill="#FFFFFF"></path>
</svg>