<?xml version="1.0" encoding="UTF-8"?>
<svg width="400px" height="162px" viewBox="0 0 400 162" version="1.1" xmlns="http://www.w3.org/2000/svg">
    <title>jeep</title>
    <path d="M333.730931,86.8640516 C333.405405,104.826014 337.284484,114.339527 352.091291,114.339527 C366.873674,114.339527 368.994995,98.1333208 368.994995,85.8005881 C368.994995,73.4602478 366.18979,61.4802678 350.659059,61.4802678 C341.131532,61.4802678 334.096897,68.8836712 333.730931,86.8640516 Z M303.775776,161.923111 L303.775776,40.3391266 L334.096897,40.3391266 L334.096897,45.2708584 C334.096897,51.849437 336.75035,49.1367242 338.888088,46.5729605 C339.246046,46.1445321 346.003604,37.8730606 361.222422,37.8730606 C376.395596,37.8730606 400,48.44243 400,85.8009885 C400,114.697885 385.917918,135.839027 361.597197,135.839027 C348.195796,135.839027 340.448048,130.56255 338.676276,128.433221 C336.902102,126.333121 334.438839,125.966754 334.438839,128.433221 L334.438839,161.923111 L303.775776,161.923111 M69.419019,0.878065588 L102.195395,0.878065588 L102.195395,86.8640516 C102.195395,101.654842 95.8446446,132.675863 50.3907908,132.675863 C4.93173173,132.675863 0,103.76255 0,87.5639515 L0,71.7076952 L31.7185185,71.7076952 L31.7185185,87.2059935 C31.7185185,96.7199074 38.0636637,105.525913 50.0384384,105.525913 C62.0184184,105.525913 69.419019,98.8332207 69.419019,87.5639515 L69.419019,0.878065588 M170.740741,73.8210085 C170.740741,65.0013889 165.817017,56.5453329 154.53974,56.5453329 C143.615215,56.5453329 139.735736,64.2906782 139.735736,73.8210085 L170.740741,73.8210085 Z M151.378979,36.8152027 C177.118719,36.8152027 199.662462,46.6790666 199.662462,92.1405281 L138.701902,92.1405281 C138.701902,106.589377 144.686687,112.581769 155.258458,112.581769 C165.833033,112.581769 169.354555,104.117705 169.354555,104.117705 L199.317718,104.117705 C199.317718,117.161149 181.342543,134.781169 154.200601,134.431219 C123.197998,134.431219 108.041642,111.523911 108.041642,87.911499 C108.041642,64.2906782 121.423824,36.8152027 151.378979,36.8152027 M268.194194,73.8210085 C268.194194,65.0013889 263.264865,56.5453329 251.987588,56.5453329 C241.068669,56.5453329 237.180781,64.2906782 237.180781,73.8210085 L268.194194,73.8210085 Z M248.832432,36.8152027 C274.569369,36.8152027 297.107508,46.6790666 297.107508,92.1405281 L236.14975,92.1405281 C236.14975,106.589377 242.13974,112.581769 252.71992,112.581769 C263.283684,112.581769 266.81041,104.117705 266.81041,104.117705 L296.773574,104.117705 C296.773574,117.161149 278.795596,134.781169 251.662062,134.431219 C220.643043,134.431219 205.486687,111.523911 205.486687,87.911499 C205.486687,64.2906782 218.885285,36.8152027 248.832432,36.8152027" id="jeep" fill="#FFFFFF"></path>
</svg>