<?xml version="1.0" encoding="UTF-8"?>
<svg width="400px" height="96px" viewBox="0 0 400 96" version="1.1" xmlns="http://www.w3.org/2000/svg">
    <title>kia</title>
    <path d="M232.057549,84.2801237 C232.057549,85.0402697 232.297393,85.4801122 232.737236,85.4801122 C233.097385,85.4402659 233.416923,85.2801142 233.69738,85.0801161 L358.364385,4.16824741 C360.470842,2.69579519 362.994417,1.93858857 365.56355,2.00811485 L392.960988,2.00811485 C397.160182,2.00811485 400.000001,4.80808803 400.000001,9.00728152 L400.000001,61.3224892 C400.000001,67.6419689 398.600015,71.3216272 393.000835,74.680982 L359.763605,94.6792578 C359.432375,94.9092609 359.046062,95.0472866 358.644076,95.079254 C358.244079,95.079254 357.844083,94.7589506 357.844083,93.5988084 L357.844083,32.5649103 C357.844083,31.8446107 357.644085,31.3649218 357.164396,31.3649218 C356.813095,31.4052864 356.480304,31.543927 356.204252,31.7649179 L265.093248,90.9597532 C263.013574,92.3589736 260.573751,93.1191195 258.094081,93.0792732 L197.700023,93.0792732 C193.460217,93.0792732 190.660244,90.2793 190.660244,86.0402601 L190.660244,10.6463463 C190.660244,10.0869647 190.4204,9.56666314 189.939944,9.56666314 C189.589983,9.61123059 189.258536,9.7494216 188.980567,9.96665931 L128.8662,46.0429421 C128.266972,46.4429383 128.10682,46.7233954 128.10682,47.0030862 C128.10682,47.2429306 128.226359,47.4827751 128.626355,47.9226176 L171.582266,90.8386816 C172.141647,91.3980632 172.54241,91.838672 172.54241,92.3183609 C172.54241,92.7183571 171.902569,93.0386605 171.142423,93.0386605 L132.34586,93.0386605 C129.306809,93.0386605 126.946678,92.598818 125.306847,90.958987 L99.2687822,64.9615348 C99.0694531,64.7230347 98.7799412,64.5781399 98.4695562,64.5615387 C98.1872337,64.5745285 97.9124654,64.6569064 97.6695638,64.8013831 L54.1550381,90.9597532 C51.5152167,92.5589716 49.7152339,92.9995804 47.1152588,92.9995804 L7.08039324,92.9995804 C2.79997447,93.0394268 1.29256659e-06,90.1996073 1.29256659e-06,85.9996475 L1.29256659e-06,34.6851965 C1.29256659e-06,28.3251041 1.39998788,24.6852923 7.03901433,21.3259375 L40.4762419,1.24796887 C40.7384979,1.07630439 41.0426875,0.979589047 41.355927,0.968278065 C41.8762285,0.968278065 42.1559193,1.4885796 42.1559193,2.64795546 L42.1559193,71.3614735 C42.1559193,72.0817731 42.3160711,72.4013103 42.8356063,72.4013103 C43.1957561,72.361464 43.5160596,72.2013122 43.8355967,72.0013141 L156.784706,4.04794205 C158.944073,2.56826274 161.583894,1.8487294 164.223716,1.96827807 L225.017769,1.96827807 C229.216963,1.96827807 232.057549,4.76824167 232.057549,8.96743516 L232.016936,84.2801237 L232.057549,84.2801237 Z" id="kia" fill="#FFFFFF"></path>
</svg>