<?xml version="1.0" encoding="UTF-8"?>
<svg width="400px" height="158px" viewBox="0 0 400 158" version="1.1" xmlns="http://www.w3.org/2000/svg">
    <title>ktm</title>
    <path d="M400.000001,0.432114142 L400.000001,157.272352 L6.46283297e-07,157.272352 L6.46283297e-07,0.432114142 L400.000001,0.432114142 Z M309.838146,22.2576571 L114.872738,22.2576571 L109.139004,37.4648276 L180.840433,37.4648276 L150.630832,114.038442 L126.807667,82.7374095 L167.973143,48.3883748 L133.520969,48.3883748 L91.2835611,82.1647546 L105.50244,48.3883748 L55.15242,48.3883748 L18.1817955,135.446809 L68.997739,135.446809 L81.7716391,104.225312 L105.268452,135.446809 L214.732781,135.446809 L248.578947,103.912815 L242.937577,135.446809 L285.828202,135.446809 L321.213249,104.239679 L316.364668,135.446809 L362.611687,135.446809 L381.819232,48.3883748 L335.338738,48.3883748 L297.670255,81.581837 L304.94287,48.3883748 L260.374818,48.3883748 L211.749433,97.1153592 L232.075605,37.4653407 L306.434544,37.4653407 L309.838146,22.2576571 Z" id="ktm" fill="#FFFFFF"></path>
</svg>