<?xml version="1.0" encoding="UTF-8"?>
<svg width="400px" height="160px" viewBox="0 0 400 160" version="1.1" xmlns="http://www.w3.org/2000/svg">
    <title>lada</title>
    <path d="M0,80.0009109 C0,35.8170887 89.5404445,0 200,0 C310.457278,0 400,35.8170887 400,80.0009109 C400,124.184733 310.457278,160.001822 200,160.001822 C89.5427218,160.001822 0,124.18701 0,80.0009109 Z M244.607397,87.0058298 C244.551842,86.7367065 244.336468,86.5294768 244.065404,86.4843323 C238.309333,85.6432908 232.528257,84.9833126 226.730734,84.5053744 C226.389142,84.4461651 226.14775,84.1296229 226.373201,83.3803972 C244.857898,63.930133 251.878758,39.180634 242.532793,19.8169065 C242.553892,19.638717 242.644933,19.4762143 242.785878,19.3651674 C242.926822,19.2541204 243.106116,19.2036313 243.284296,19.2248133 C306.893332,26.9402441 353.336218,51.2320095 353.336218,80.0009109 C353.336218,114.97996 284.687557,143.336673 200.002277,143.336673 C115.316998,143.336673 46.6660594,114.982237 46.6660594,80.0009109 C46.6660594,49.6789033 98.262434,24.3304791 167.172982,18.1203316 C167.507743,18.131718 167.790126,18.3890508 167.808344,18.9173802 L152.846602,101.304882 C152.280411,104.235947 153.053083,107.266706 154.953467,109.568933 C156.853851,111.871161 159.68327,113.204168 162.668519,113.20368 L163.20368,113.231007 C176.548552,112.536437 190.888595,108.371288 204.433868,100.551102 C208.272342,98.3351395 211.966653,95.8783509 215.494626,93.1954819 C215.702006,93.0251456 215.991842,92.997242 216.22791,93.1248861 C220.739206,96.1286209 223.335307,99.644744 223.335307,103.406814 C223.335307,108.517034 218.543906,113.17863 210.662234,116.715249 C201.505283,120.823465 188.176353,123.405903 173.335307,123.405903 C160.757879,123.405903 149.266715,121.549918 140.351157,118.452815 C140.176842,118.421755 139.997337,118.461499 139.852424,118.563237 C139.707511,118.664976 139.609157,118.820307 139.579158,118.994808 L138.308435,125.979231 C138.263828,126.323896 138.490355,126.645385 138.829933,126.719348 C156.963928,130.939151 177.819275,133.339406 200.015941,133.339406 C227.627983,133.339406 250.018218,124.382857 250.018218,113.340317 C250.018218,109.043086 246.634177,105.064675 240.877209,101.808162 C235.83303,99.3350337 232.656222,96.1286209 233.435052,93.9788668 C234.243487,91.7494079 239.069047,91.3918747 244.800966,92.9358717 C245.126617,92.9791401 245.440882,92.7832939 245.557023,92.2003097 L244.607397,87.0058298 Z M200,36.5799781 C200,37.0126617 199.986336,37.443068 199.959009,37.8643651 C200.687739,52.5460011 191.610494,72.1875569 175.02505,88.7730005 C171.73274,92.0709842 168.226464,95.1481997 164.529058,97.9846056 C164.383246,98.0779799 164.206425,98.1099059 164.037165,98.0734196 C163.691018,98.0005465 163.465567,97.6703407 163.527054,97.2649845 L179.782292,7.7860266 C179.764039,7.4433579 179.489662,7.16996435 179.14693,7.15294225 C89.5586628,11.3659136 19.9990891,42.3733831 19.9990891,80.0009109 C19.9990891,120.502368 100.587539,153.333941 200,153.333941 C299.414739,153.333941 380.003188,120.502368 380.003188,80.0009109 C380.003188,39.4994535 299.417016,6.66788122 200,6.66788122 C196.850519,6.66788122 193.716979,6.70204044 190.57433,6.76808162 C190.267945,6.76943515 190.001571,6.97859451 189.927582,7.27591547 L188.026052,17.7172527 C187.980506,17.9973584 188.112589,18.2638003 188.344872,18.4027145 C195.448924,21.6628018 200.001906,28.7636026 200,36.5799781 L200,36.5799781 Z" id="lada" fill="#FFFFFF"></path>
</svg>