<?xml version="1.0" encoding="UTF-8"?>
<svg width="400px" height="558px" viewBox="0 0 400 558" version="1.1" xmlns="http://www.w3.org/2000/svg">
    <title>lamborghini</title>
    <path d="M198.932092,0.126130688 C291.368534,0.126130688 361.54401,28.1954399 387.420159,40.2505632 L392.531277,42.6437943 L393.403907,48.2309658 C399.156141,85.1258708 409.413995,182.865786 380.759677,293.24801 C351.731375,405.027028 292.944611,492.375515 206.028888,552.864654 L200.000618,557.06393 L193.972348,552.864654 C107.047721,492.375515 48.2609567,405.018131 19.241559,293.24801 C-9.41275885,182.865786 0.845095137,85.1258708 6.58842484,48.2309658 L7.46105478,42.6437943 L12.5810774,40.2505632 C44.7348194,25.2684026 111.695811,0.126130688 198.932092,0.126130688 Z M198.930625,21.1787623 C120.13094,21.1787623 58.8264604,42.5792893 26.5796982,56.9262594 C20.9944164,96.0406306 13.3068596,186.14671 39.6387461,287.375023 C66.6832682,391.339476 120.620877,473.015044 199.999578,530.269671 C279.378279,473.015044 333.315889,391.348359 360.369319,287.375023 C386.692297,186.155594 379.00474,96.0495142 373.419459,56.935143 C345.457418,44.560326 281.605266,21.1787623 198.930625,21.1787623 Z M208.063057,112.003707 C209.937619,112.511924 211.154752,113.706681 212.780557,115.293746 C217.311488,114.411053 222.650879,115.266998 227.892545,116.666825 C233.116442,118.066652 238.215961,120.001444 242.240494,121.285362 C237.434153,121.356691 233.311894,122.489035 229.385087,123.630295 C225.45828,124.771556 221.744693,125.9039 217.755697,125.966312 C213.740048,126.028725 208.800444,125.966312 204.056293,125.574004 C199.312141,125.181696 194.763441,124.44166 191.538484,123.148826 C189.415166,123.451973 186.741028,123.487638 184.617709,124.192009 C182.49439,124.896381 180.921891,126.260543 180.957427,129.220687 C181.010732,132.171915 189.965985,133.108105 201.311081,133.268594 C212.656178,133.429084 226.400003,132.813874 235.994916,132.6623 C245.607598,132.519642 253.905421,133.59849 260.204304,135.577863 C266.503187,137.575069 270.820898,140.454967 272.473355,143.923329 C274.14392,147.1852 274.87027,150.851617 274.570022,154.506734 C274.303496,158.545725 273.041943,163.538738 270.749825,170.823188 C279.447436,180.630893 284.422576,192.382307 287.061177,203.215363 C289.699779,214.057335 289.992956,223.989865 289.282222,230.186552 C288.571488,236.383238 288.900202,240.270656 289.610937,243.079226 C290.321671,245.887796 291.414425,247.617518 292.249538,249.489898 C293.084651,251.353362 293.644354,252.824518 293.866459,254.634485 C294.088563,256.444453 293.990837,258.602148 293.502207,261.829774 C300.280836,268.980483 305.940058,272.118949 310.764167,273.518776 C315.588276,274.927519 319.595041,274.597623 323.068755,274.811609 C319.941524,280.500078 314.459986,283.674208 308.214408,285.51984 C301.96883,287.365472 294.968097,287.873689 288.829129,288.239249 C290.996869,289.549915 292.578253,292.483311 293.564396,295.960588 C294.55054,299.437865 294.941444,303.459024 294.728224,306.954133 C294.515004,310.449243 294.968097,314.069178 295.678831,317.011489 C296.389565,319.962717 297.357941,322.227405 298.175285,323.020937 C298.99263,323.81447 299.952121,325.009227 300.50294,326.551711 C301.053759,328.08528 301.213675,329.966576 300.449635,332.124271 C299.685596,334.281966 299.436839,335.628296 299.578986,336.635815 C299.738901,337.643334 300.271952,338.303125 301.089296,339.096657 C301.906641,339.89019 302.839479,340.683722 303.603519,341.744738 C304.480941,342.996264 304.941202,344.494364 304.918377,346.024464 C304.953914,347.90576 304.323137,350.197196 303.283688,352.096325 C302.244239,353.995453 300.796118,355.493357 299.20585,355.787588 C297.615582,356.081819 295.723252,355.43986 294.177405,354.25402 C292.584867,353.106973 291.486083,351.395508 291.103479,349.466076 C290.792533,347.58478 290.774764,345.703484 290.739228,343.893517 C290.721459,342.074633 290.685922,340.327079 290.392745,338.722181 C290.099567,337.117284 289.548748,334.897177 289.042349,332.293677 C288.527067,329.672345 288.091742,326.658704 288.038437,323.439994 C287.674186,317.537539 286.00396,313.1954 283.543043,309.878613 C281.099893,306.561825 277.874936,304.261473 274.365686,302.433673 C273.583878,303.78892 271.345065,305.572139 268.777537,307.560428 C266.183357,309.548717 263.287114,311.750993 261.190448,313.92652 C259.093782,316.110963 257.530166,319.490164 256.384107,323.003105 C255.238048,326.516047 254.491777,330.153814 254.003147,332.846475 C256.970463,334.674274 257.023768,338.044558 256.13535,341.343514 C255.495689,343.718761 254.372445,346.070899 253.508401,347.807557 L253.231005,348.362834 C253.009541,348.805215 252.814444,349.195027 252.661636,349.519573 C251.879828,351.142302 251.48004,352.087409 249.623247,352.720451 C247.766454,353.353494 244.434886,353.674474 237.771752,354.04895 C231.108618,354.423426 226.284509,353.291081 222.917405,351.597023 C219.550301,349.902965 217.657971,347.647193 216.822858,345.783729 C215.987745,343.911349 215.037138,341.914144 213.855542,339.988267 C212.691715,338.06239 211.34132,336.198926 209.715515,334.611861 C209.710473,335.685456 209.545782,336.752281 209.226885,337.777075 C208.844865,339.060993 208.19632,340.541065 207.156871,342.17271 C206.117422,343.804356 205.22012,346.372191 204.527154,348.931111 C203.834188,351.498946 203.336674,354.057866 203.096801,355.671679 C202.856929,357.285492 201.932974,358.239514 200.342706,358.738816 C198.743554,359.229201 196.478088,359.264865 193.537425,359.041963 C190.596761,358.819061 189.237482,357.231996 188.873231,355.216958 C188.508979,353.210837 189.139756,350.785659 190.179205,348.88653 C191.20977,346.987402 192.906648,344.41065 194.541337,341.96764 C196.176026,339.52463 197.739641,337.215361 198.521449,335.860115 C199.294373,334.504868 200.076181,333.417105 200.333822,332.471999 C200.591463,331.526892 200.307169,330.724444 198.965658,329.939827 C197.624147,329.155211 197.082212,328.762903 196.549161,329.039302 C196.024995,329.315701 195.500828,330.269723 194.194854,332.168851 C192.88888,334.06798 192.12484,336.091933 191.156465,338.392286 C190.188089,340.692639 189.024262,343.260474 186.93648,346.247366 C183.778116,350.713372 181.833761,355.928214 181.295026,361.37798 C181.055153,363.268192 180.415492,365.292146 179.846905,367.244771 C179.278317,369.197396 178.780803,371.087608 178.798572,372.701421 C178.81634,374.315234 179.367159,375.643733 179.731411,377.186217 C180.086778,378.728702 180.246693,380.46734 179.482654,382.901434 C178.718614,385.335528 177.421524,387.234657 175.431468,388.536407 C173.441412,389.838157 170.793926,390.569276 167.320212,390.613857 C163.846498,390.658437 161.563264,389.62417 160.141796,388.233259 C158.720327,386.851265 158.160624,385.10371 158.142855,383.766296 C158.116203,382.419965 158.889127,380.396012 160.319479,378.015414 C162.081116,375.191177 164.14567,372.569072 166.476215,370.195998 C169.105932,367.476589 170.118729,363.963648 170.465212,360.60228 C170.811695,357.240912 170.500749,354.022201 170.465212,351.873422 C170.438559,349.715727 171.584618,346.345443 173.068276,343.028656 C174.551934,339.711868 176.373191,336.457493 177.679165,334.558365 C178.886367,332.806552 179.029939,330.528584 178.052301,328.638078 C177.154999,326.765698 175.395931,325.178633 173.24596,324.411848 C171.095989,323.645064 169.612331,322.316566 168.448503,320.791914 C167.302444,319.267261 166.467331,317.537539 165.641103,315.941558 C164.814874,314.345577 164.9126,312.46428 164.628306,310.921796 C164.344012,309.379311 163.659931,308.175639 161.252318,307.952736 C158.844706,307.712002 157.529847,308.808681 156.552587,310.440327 C155.575328,312.063056 154.944551,314.220751 153.905102,316.11988 C152.865653,318.019008 151.959467,320.042962 151.337574,322.539468 C150.621382,325.557459 150.310642,328.658032 150.41362,331.758711 C150.475809,335.521303 149.089877,341.049282 147.366346,346.051212 C145.633931,351.044225 143.563918,355.511189 142.257943,357.142835 C140.951969,358.77448 140.028014,359.327278 139.10406,360.013817 C138.180105,360.700357 137.256151,361.520638 135.95906,363.687249 L134.670854,366.932707 L133.382649,370.16925 C132.094443,373.147226 131.756844,377.04356 131.614697,380.877481 C131.47255,384.702486 131.534739,388.465078 131.037225,391.166655 C130.539711,393.859316 128.842833,396.302326 126.266421,397.96072 C123.690009,399.610197 120.234064,400.475058 116.227299,399.993589 C112.21165,399.529952 110.177173,397.684321 109.608585,395.339387 C109.039998,392.994454 109.9373,390.159136 111.767441,387.716126 C113.597582,385.273116 116.076268,381.608601 118.554954,377.739015 C121.03364,373.86943 123.503441,369.794774 125.324698,366.549315 C127.137071,363.29494 127.758963,360.201055 128.309782,356.893184 C128.860601,353.594229 129.340347,350.099119 130.87731,346.042296 C132.502745,341.572806 133.637743,336.938773 134.262182,332.222348 C134.981801,327.175838 135.301631,321.799432 135.221674,316.423027 C135.176761,311.437911 135.614137,306.460192 136.527648,301.559896 C137.327224,297.048351 138.331136,293.00936 139.077407,289.496419 C139.823678,285.983477 140.552181,281.338191 141.076348,276.496751 C141.600514,271.646396 141.920345,266.608802 141.858155,262.311244 C141.795966,258.00477 143.004214,254.295674 144.487872,250.916474 C145.962646,247.528357 147.721713,244.479053 148.743394,241.509993 C149.765075,238.540933 150.253704,235.375719 151.701826,229.713999 C153.149947,224.052278 155.557559,215.885135 160.426089,202.912216 C165.303504,189.939297 175.555846,179.837361 185.586085,172.428086 C195.616323,165.01881 205.415572,160.302196 209.3868,158.091004 C213.358028,155.879812 218.075527,154.934706 222.810795,154.988203 C227.472609,155.050951 232.074164,156.054619 236.341399,157.939431 C240.365932,159.758314 244.790254,160.49835 248.717061,160.739084 C252.581679,161.015483 255.913246,160.828245 257.787808,160.801497 C259.893358,158.884537 261.608004,157.386633 262.043329,155.49642 C262.478654,153.615124 261.643541,151.34152 258.658457,147.890991 C255.673373,144.440462 246.957993,142.969306 235.95938,142.398676 C224.916345,141.828046 211.590077,142.175774 199.312141,142.363012 C187.04309,142.559166 179.41158,140.92752 174.827344,138.110034 C170.243107,135.301464 168.715029,131.289221 168.643955,126.72418 C168.581766,122.15914 170.944957,119.707213 173.992231,118.244974 C177.039504,116.79165 180.770859,116.328013 183.427229,115.748467 C186.083599,115.168921 187.949276,114.999515 190.214742,114.696368 C192.480207,114.39322 195.145461,113.947416 199.400983,112.806155 C203.64762,111.664895 206.188496,111.495489 208.063057,112.003707 Z M202.577097,171.144054 C198.293061,173.514881 193.910848,176.800296 190.349743,180.334337 C186.788638,183.868377 182.745578,186.940684 179.282649,190.332653 C175.810794,193.733502 172.91907,197.454012 171.660634,202.293339 C170.402198,207.132667 168.545782,213.445991 166.725067,219.226545 C164.904351,225.0071 163.110411,230.254884 161.941226,232.945372 L161.838776,233.183755 L161.616592,233.701514 C160.372671,236.604879 158.212584,241.739883 156.425529,247.17921 C154.470938,253.128475 152.9626,259.4418 153.569505,263.579646 C153.480254,266.927218 153.801557,269.928489 154.631589,271.953015 C155.470546,273.98642 156.827158,275.034201 158.826375,274.465913 C160.59354,273.973634 161.351614,272.498046 162.037255,270.983125 L162.223156,270.569699 C162.254075,270.500868 162.28502,270.432134 162.316079,270.363584 C163.092561,268.649841 163.940443,267.024892 166.216338,266.856182 C168.492232,266.687471 169.634642,266.936097 170.482524,267.362313 C171.321481,267.77965 171.865911,268.374576 172.945845,268.898467 C174.025779,269.413478 175.382391,270.328066 176.730077,270.745403 C178.077764,271.15386 179.416525,271.073944 180.469684,269.582188 C181.513918,268.099312 182.97763,267.397831 184.521668,267.113687 C186.065707,266.829543 187.67222,266.927218 189.010982,267.042651 C190.358668,267.158085 191.69743,267.131446 192.92909,266.616435 C194.160751,266.101424 195.28531,265.080282 196.195668,263.188948 C197.106026,261.306495 198.426937,260.613894 199.631822,260.427424 C200.535371,260.310955 201.453692,260.398979 202.31827,260.68493 C204.09436,262.79825 205.745499,265.781762 206.932534,268.605443 C208.119569,271.429124 208.833576,274.101854 208.71755,275.566971 C208.438103,277.807313 207.883586,280.005111 207.06641,282.111162 C206.074567,284.935671 204.721734,287.621551 203.041201,290.102712 C201.336512,292.526816 199.310519,295.972061 199.32837,299.621536 C199.34622,303.262131 201.416837,307.115834 207.905368,310.356851 C207.908938,310.597485 207.910276,310.827464 207.910633,311.048244 L207.910009,311.684443 C207.907153,313.315145 207.921433,314.4503 208.592598,315.835502 C209.422631,317.558125 211.270121,319.671446 215.348881,323.622824 C216.848294,324.93699 218.383407,327.458767 219.704318,330.140376 C221.007379,332.830865 222.096239,335.690064 222.667443,337.687951 C222.87272,338.353914 223.310049,338.78013 223.729527,338.860045 C224.229332,338.966599 224.61311,338.691335 224.738061,337.945457 C225.380666,335.725582 226.478451,332.937419 227.210307,328.639741 C227.942163,324.350943 228.325942,318.561509 227.540535,310.339092 C226.001092,310.873691 224.532585,311.592269 223.167248,312.479051 C221.501154,313.537573 220.09511,314.954644 219.052788,316.625778 C218.740817,312.574753 218.710996,308.507105 218.963537,304.451984 C219.186664,300.101029 219.659693,296.016459 220.302298,293.858741 C220.927054,291.709902 221.194806,290.635482 221.542884,289.827448 C221.908812,289.019413 222.363991,288.477764 223.426075,287.394465 C224.578377,286.09087 225.215839,284.415427 225.220015,282.67945 C225.283799,280.63272 224.47305,278.654914 222.988746,277.236317 C221.565819,275.934949 220.373936,274.40392 219.463341,272.707772 C218.74053,271.223519 218.426395,269.575071 218.552983,267.930601 C218.660084,266.190219 220.293373,263.757236 223.890179,261.457446 C227.460209,259.166535 233.002681,257.008817 240.883524,255.810084 C241.963458,255.659133 242.507887,256.05871 242.570363,256.626998 C242.641763,257.186407 242.257985,257.932285 241.454728,258.482814 C240.669322,259.033343 239.018183,260.258714 237.358118,261.590639 C235.698054,262.922563 234.046915,264.352163 233.261509,265.302269 C232.458252,266.243496 231.155191,268.410094 231.235516,271.047306 C231.306917,273.693397 232.752779,276.810101 237.491995,279.678179 C242.23121,282.546258 245.11401,284.073532 247.568405,284.908205 C250.022801,285.733998 252.066644,285.867191 255.15472,285.955986 C254.217587,284.899325 251.531139,282.706089 248.951792,280.566129 C246.372445,278.43505 243.882349,276.366126 243.337919,275.575851 C242.784565,274.785575 241.981308,273.853228 241.784956,272.690013 C241.588605,271.526799 242.043783,270.106079 244.034075,268.339058 C246.006517,266.572038 247.729057,265.009246 249.049968,263.677321 C250.370879,262.354276 251.281237,261.270977 251.682865,260.462942 C253.386705,261.282393 256.091469,262.530698 258.884948,263.740928 L259.768984,264.121296 C262.892761,265.444341 265.971912,266.669712 267.872953,267.175844 C269.756144,267.681975 271.782137,268.534407 273.638552,269.653224 C275.486043,270.772041 277.190733,272.148364 278.413468,273.702276 C280.680437,276.543716 285.437503,278.941181 290.962125,280.131034 C296.504597,281.320887 302.796776,281.285369 308.133971,279.260843 C304.784192,278.187308 301.52525,276.851196 298.387788,275.265068 C294.201928,273.160627 289.685839,270.310307 286.758414,266.88282 C284.562846,264.316645 283.170534,263.135671 281.876398,262.469709 C280.600112,261.803747 279.439852,261.643916 277.672687,261.137784 C275.932297,260.631653 272.496143,259.814739 268.926112,258.18979 C265.356082,256.573721 261.6254,254.158497 259.28703,250.446866 C256.94866,246.744115 255.11902,241.354259 253.601757,236.426136 C252.084494,231.498014 250.879609,227.031626 249.763974,225.17581 C248.66619,223.319995 247.041826,221.606251 245.488863,219.421894 C243.624206,216.877003 242.355598,213.949226 241.776031,210.853177 C241.091363,207.201782 240.272684,203.576522 239.321635,199.984669 C238.393427,196.654857 237.349193,193.795658 236.117533,191.939843 C234.885872,190.084027 233.832713,186.896287 232.80633,183.868377 C231.797796,180.840468 230.816038,177.97239 229.718253,176.791416 C227.854677,174.762089 225.804934,172.910094 223.595651,171.259488 C220.811028,169.226082 217.490899,167.476821 214.286797,167.388026 C211.064845,167.299231 206.861134,168.773228 202.577097,171.144054 Z M43.5280618,79.504539 L51.1684557,100.234461 L63.6773798,95.571343 L65.3653738,100.154216 L47.5970158,106.787791 L38.277512,81.4571639 L43.5280618,79.504539 Z M352.635303,78.1492925 L357.894737,80.1375818 L348.433086,105.414712 L343.191421,103.426423 L352.635303,78.1492925 Z M321.140888,67.8868667 L326.80011,69.6165892 L331.553146,90.7209871 L331.624219,90.7477354 L337.052453,72.7550548 L342.06313,74.2886232 L334.253936,100.127468 L328.896776,98.4779901 L323.983825,76.8564587 L323.912752,76.8297104 L318.342372,95.2592797 L313.349463,93.7257112 L321.140888,67.8868667 Z M79.3934925,67.8155379 L95.7581503,91.2381206 L89.9034763,92.8965144 L86.7495928,88.0104941 L77.2168687,90.7031549 L76.9148066,96.5788618 L71.228932,98.183759 L73.1745672,69.5809248 L79.3934925,67.8155379 Z M304.811767,63.8924559 L310.257769,65.203122 L304.029959,91.461023 L298.566189,90.150357 L304.811767,63.8924559 Z M123.73443,58.016749 L128.807296,84.5332168 L123.672241,85.5318195 L119.425603,63.3753224 L119.345646,63.3842385 L118.679332,86.5036739 L113.286636,87.5468571 L104.242541,66.3176339 L104.162584,66.3354661 L108.409221,88.4919632 L103.274166,89.4905659 L98.2012995,62.9740981 L106.232597,61.4137814 L115.001282,81.3858352 L115.072356,81.3769191 L115.765321,59.5681496 L123.73443,58.016749 Z M272.535545,57.5174477 L278.05262,58.5160504 L276.249132,68.5823221 L286.554779,70.43687 L288.340499,60.3705982 L293.866459,61.3692009 L289.122307,87.9480814 L283.605232,86.9494787 L285.737435,75.0375752 L275.431787,73.1741113 L273.317352,85.0949309 L267.800277,84.0963282 L272.535545,57.5174477 Z M77.0637533,75.4763244 L77.0012777,75.4940834 L76.5550239,86.6644941 L83.1685053,84.8086786 L77.0637533,75.4763244 Z M157.423237,60.816403 C157.849678,64.6592401 155.815201,65.9966544 154.766867,66.6831938 C158.169508,67.5480551 159.324451,70.062394 159.617629,72.7193904 C159.847838,74.7956621 159.243496,76.8783434 157.938519,78.5059363 C156.57924,80.1732462 155.237729,81.278842 149.782843,81.8940526 L138.499936,83.1779703 L135.497083,56.3405231 L148.450216,54.8693674 C154.980088,54.1293314 157.112291,58.0434973 157.423237,60.816403 Z M249.392258,53.9510095 C257.583471,54.7980386 260.275378,60.4775914 260.186536,64.2134354 L254.616156,63.6428053 C254.722766,62.590706 253.15915,59.0242678 249.223459,58.6230435 C245.252231,58.2129031 241.289887,60.6024167 240.579153,67.4856424 C239.832882,74.8146728 243.617542,77.1417737 247.419971,77.5251658 C248.637103,77.6499912 252.786015,77.5875785 254.482893,72.2825017 L248.272852,71.6405429 L248.725945,67.1111664 L259.884474,68.2613427 L258.4097,82.7499978 L254.696113,82.3666057 L254.474009,78.942825 C252.892625,80.440729 250.600507,82.6608368 245.731977,82.1615355 C239.308715,81.4928283 233.951555,76.2501642 234.902162,66.8258513 C235.648433,59.4879048 240.401469,52.9880712 249.392258,53.9510095 Z M193.812834,65.5062692 C194.310348,78.1760408 185.04415,80.0840852 181.490478,80.2267428 C177.945691,80.3694003 168.546229,79.2013918 168.048715,66.5316202 C167.551201,53.8707647 176.826284,51.9538041 180.371071,51.8111466 C183.915859,51.6684891 193.31532,52.8364976 193.812834,65.5062692 Z M204.127366,52.0251329 L217.684623,52.4441894 C224.818619,52.6581757 225.964678,57.9989168 225.893605,60.3349338 C225.804763,63.3039936 224.223379,65.8183325 221.558125,66.6386133 C223.725865,67.6817965 224.907461,68.5466577 224.747546,73.5842517 C224.623167,77.5251658 224.58763,78.5059363 225.769226,78.9963216 L225.751458,79.7096092 L219.559185,79.5223712 C219.212702,78.2295374 219.035019,76.8386265 219.12386,74.0568047 C219.23047,70.3655412 219.052787,68.9389659 214.903875,68.8141406 L209.111391,68.6269026 L208.79156,79.1924757 L203.301137,79.0230699 L204.127366,52.0251329 Z M149.098042,70.8145871 L141.975831,71.6226215 L142.788013,78.7617393 L149.651396,77.9981023 C152.373545,77.6873199 153.801557,76.3287564 153.498104,73.60275 C153.230352,71.2585621 151.115109,70.5925996 149.098042,70.8145871 Z M180.184082,57.5486145 C177.149556,57.6729275 172.945845,59.7063329 173.249297,67.2272692 C173.543825,74.7482054 177.890337,76.4441899 180.933788,76.3287564 C183.968314,76.2133229 188.172025,74.171038 187.868572,66.6501017 C187.574044,59.1202859 183.218607,57.4243015 180.184082,57.5486145 Z M147.214851,60.6120419 L140.797721,61.3312814 L141.467102,67.1828717 L148.027033,66.4458732 C150.231526,66.1972472 151.882665,65.1494662 151.641688,63.0183863 C151.391786,60.8251499 149.749572,60.3278979 147.214851,60.6120419 Z M209.226279,57.841638 L209.012077,65.0340327 L215.616633,65.2382612 C218.544058,65.3270562 219.989921,64.3591908 220.079171,61.6953409 C220.132722,60.2746209 219.552592,58.1613 216.241389,58.054746 L209.226279,57.841638 Z" id="lamborghini" fill="#FFFFFF"></path>
</svg>