<?xml version="1.0" encoding="UTF-8"?>
<svg width="400px" height="413px" viewBox="0 0 400 413" version="1.1" xmlns="http://www.w3.org/2000/svg">
    <title>lancia</title>
    <g id="lancia" transform="translate(0, 0)" fill-rule="nonzero">
        <path d="M397.435189,70.498326 C415.557998,246.215169 336.384254,356.346267 199.703862,412.517352 C53.9608923,349.839801 -11.620158,234.188064 1.68148165,69.5664836 C133.599384,-23.488661 265.460953,-23.1976069 397.435189,70.498326 Z" id="Path" fill="#000000"></path>
        <path d="M199.588849,7.06497295 C297.176456,7.06497295 376.756268,86.7034646 376.756268,184.291072 C376.756268,281.881026 297.176456,361.460838 199.588849,361.460838 C102.001242,361.460838 22.3627499,281.881026 22.3627499,184.291072 C22.3627499,86.7034646 102.001242,7.06497295 199.588849,7.06497295 Z" id="Path" fill="#FFFFFF"></path>
        <path d="M199.588849,7.06497295 C297.176456,7.06497295 376.756268,86.7034646 376.756268,184.291072 C376.756268,281.881026 297.176456,361.460838 199.588849,361.460838 C102.001242,361.460838 22.3627499,281.881026 22.3627499,184.291072 C22.3627499,86.7034646 102.001242,7.06497295 199.588849,7.06497295 Z" id="Path" fill="#FFFFFF"></path>
        <path d="M199.588849,16.9396859 C291.716845,16.9396859 366.940235,92.104395 366.940235,184.291072 C366.940235,276.419068 291.714498,351.640111 199.588849,351.640111 C107.404519,351.640111 32.1787825,276.419068 32.1787825,184.291072 C32.1787825,92.1067422 107.402172,16.9396859 199.588849,16.9396859 Z" id="Path" fill="#000000"></path>
        <path d="M199.588849,20.8313602 C289.564454,20.8313602 362.98988,94.2544395 362.98988,184.291072 C362.98988,274.269024 289.566801,347.694451 199.588849,347.694451 C109.552216,347.694451 36.1291371,274.271371 36.1291371,184.291072 C36.1291371,94.2544395 109.552216,20.8313602 199.588849,20.8313602 Z" id="Path" fill="#FFFFFF"></path>
        <path d="M212.2497,54.9292814 C275.220653,61.1446938 325.232659,112.494609 329.239346,176.042976 L302.75108,173.719238 L302.75108,199.510382 L328.835626,197.419018 C322.73288,257.890192 274.873266,306.273234 214.693146,313.303128 L217.944032,249.236028 L183.557404,249.236028 L187.796465,313.650515 C158.057313,310.981737 131.219313,298.201178 110.599072,278.79914 L110.599072,298.663579 L98.2269277,298.663579 L98.2269277,265.441167 C82.3104959,245.572033 72.0297157,220.999091 69.9970317,194.165785 L98.2269277,197.766405 L98.2269277,172.557369 L70.112045,173.19581 C72.0273685,150.831592 79.6370236,130.03531 91.4857402,112.262235 L85.2139948,112.262235 L103.918912,72.2986362 L112.108328,88.3324284 C132.96329,69.2777768 159.972637,56.9643126 189.714136,54.6992548 L185.357714,123.474858 L218.059045,123.474858 L212.2497,54.9292814 Z" id="Path" fill="#000000"></path>
        <path d="M222.0094,123.472511 L302.748733,123.472511 L302.748733,169.768883 L324.941604,171.686554 C319.132259,113.771492 273.880396,67.2427456 216.608469,59.4030639 L222.0094,123.472511 L222.0094,123.472511 Z M124.421792,112.262235 L110.596725,112.262235 L110.596725,123.472511 L181.405012,123.472511 L185.52906,59.0533296 C158.052619,62.1328692 133.24965,74.0989463 113.962624,91.9307015 L124.421792,112.262235 L124.421792,112.262235 Z M302.748733,203.460737 L302.748733,249.236028 L221.894386,249.236028 L218.814847,308.773013 C273.474328,300.351223 316.691161,256.610962 324.361844,201.71676 L302.748733,203.460737 L302.748733,203.460737 Z M98.2245805,201.71676 L98.2245805,258.991033 C85.1277122,241.333521 76.9138098,220.537273 74.4097867,198.6959 L98.2245805,201.71676 Z M110.599072,273.339529 L110.599072,249.233681 L179.607049,249.233681 L183.557404,309.233066 C155.26648,305.63714 129.82507,292.565527 110.599072,273.339529 L110.599072,273.339529 Z" id="Shape" fill="#FFFFFF"></path>
        <path d="M298.220965,208.685627 C295.955907,208.805334 295.200105,206.305555 293.054755,198.348513 L282.478226,159.370742 L281.203691,159.370742 L270.68819,199.97513 C269.235267,205.549754 268.596826,208.108213 266.043061,208.685627 L266.043061,210.546964 L275.624373,210.546964 L275.624373,208.685627 C274.056437,208.511933 271.732699,208.338239 271.732699,205.493421 C271.732699,204.331552 272.4885,201.254359 273.824063,195.909762 L284.515605,195.909762 C285.151699,198.29218 286.665649,203.810471 286.665649,205.786822 C286.665649,208.225573 285.84882,208.340587 282.888988,208.687974 L282.888988,210.549311 L298.223312,210.549311 L298.223312,208.685627 L298.220965,208.685627 L298.220965,208.685627 Z M264.702804,208.685627 C262.090359,208.39692 260.229022,208.162199 260.229022,203.402057 L260.229022,167.562505 C260.229022,162.508962 262.498774,162.450282 264.702804,162.276588 L264.702804,160.417598 L248.147931,160.417598 L248.147931,162.276588 C250.297976,162.508962 252.563034,162.682656 252.563034,167.562505 L252.563034,203.402057 C252.563034,207.990852 250.701696,208.338239 248.147931,208.685627 L248.147931,210.546964 L264.702804,210.546964 L264.702804,208.685627 Z M244.082564,199.278008 C240.190889,206.131862 236.646602,208.39692 232.928621,208.39692 C231.480393,208.39692 227.701384,207.291384 225.727381,201.949134 C223.985751,197.186644 223.692349,190.100417 223.692349,185.685315 C223.692349,173.139477 225.553687,161.75316 232.466221,161.75316 C237.867151,161.75316 241.817506,170.466004 243.500455,176.913791 L244.664672,176.913791 L244.664672,159.544436 L243.385442,159.544436 C242.923042,161.403426 242.514627,162.971363 241.235398,162.971363 C240.014848,162.971363 236.357895,159.312062 232.057806,159.312062 C222.124413,159.312062 215.32924,170.872072 215.32924,185.974022 C215.32924,199.799089 221.312278,211.93886 232.292527,211.93886 C238.390579,211.93886 242.052227,207.291384 245.537834,201.134652 L244.082564,199.278008 Z M179.607049,210.546964 L190.352577,210.546964 L190.352577,208.685627 C186.86697,208.108213 185.878795,206.65529 185.878795,201.310692 L185.878795,171.686554 L185.996155,171.686554 L206.963783,211.882527 L208.301693,211.882527 L208.301693,168.200947 C208.301693,164.656659 208.5904,162.971363 212.019674,162.276588 L212.019674,160.417598 L201.851559,160.417598 L201.851559,162.276588 C205.689248,162.741336 206.210329,165.180087 206.210329,169.65387 L206.210329,192.133101 L206.151648,192.133101 L189.770469,160.417598 L179.780743,160.417598 L179.780743,162.276588 C180.362851,162.276588 181.116305,162.508962 183.789778,167.621186 L183.789778,202.763615 C183.789778,207.641118 182.454215,208.164546 179.607049,208.685627 L179.607049,210.546964 Z M177.283311,208.685627 C175.018253,208.805334 174.262452,206.305555 172.171088,198.348513 L161.599253,159.370742 L160.263691,159.370742 L149.750537,199.97513 C148.356294,205.549754 147.659172,208.108213 145.105408,208.685627 L145.105408,210.546964 L154.747747,210.546964 L154.747747,208.685627 C153.12113,208.511933 150.856073,208.338239 150.856073,205.493421 C150.856073,204.331552 151.611874,201.254359 152.947437,195.909762 L163.577951,195.909762 C164.216393,198.29218 165.784329,203.810471 165.784329,205.786822 C165.784329,208.225573 164.913514,208.340587 161.951335,208.687974 L161.951335,210.549311 L177.288006,210.549311 L177.288006,208.685627 L177.283311,208.685627 L177.283311,208.685627 Z M143.300403,193.759717 L141.964841,193.759717 C139.758463,202.066494 137.084991,208.223226 129.940083,208.223226 C126.804211,208.223226 125.759702,207.641118 125.759702,204.099178 L125.759702,169.130442 C125.759702,162.565295 127.212625,162.508962 130.522191,162.276588 L130.522191,160.417598 L114.025999,160.417598 L114.025999,162.276588 C116.117363,162.508962 118.091367,162.682656 118.091367,167.562505 L118.091367,203.402057 C118.091367,207.934519 116.638444,208.164546 114.025999,208.685627 L114.025999,210.546964 L141.38508,210.546964 L143.300403,193.759717 L143.300403,193.759717 Z M98.2245805,112.262235 L96.2505768,112.262235 C84.4358059,129.166163 76.9550631,148.713946 74.4661198,169.186775 L98.2245805,168.607014 L98.2245805,112.262235 Z" id="Shape" fill="#FFFFFF"></path>
        <path d="M274.577517,193.062596 L278.992619,175.0548 L283.757456,193.062596 L274.577517,193.062596 Z M153.639864,193.062596 L158.113646,175.0548 L162.876136,193.062596 L153.639864,193.062596 Z" id="Shape" fill="#000000"></path>
    </g>
</svg>