<?xml version="1.0" encoding="UTF-8"?>
<svg width="400px" height="211px" viewBox="0 0 400 211" version="1.1" xmlns="http://www.w3.org/2000/svg">
    <title>land-rover</title>
    <path d="M200.009105,0.517351978 C310.444501,0.517351978 400.000001,47.4686686 400.000001,105.38341 C400.000001,163.298152 310.444501,210.249468 200.009105,210.249468 C89.5418453,210.249468 1.29256659e-06,163.298152 1.29256659e-06,105.38341 C1.29256659e-06,47.4686686 89.5418453,0.517351978 200.009105,0.517351978 Z M199.936274,9.00450404 C94.0141579,9.00450404 8.14347945,52.1207842 8.14347945,105.308303 C8.14347945,158.498097 94.0141579,201.612101 199.936274,201.612101 C305.853837,201.612101 391.726792,158.498097 391.726792,105.308303 C391.726792,52.1207842 305.853837,9.00450404 199.936274,9.00450404 Z M199.936274,16.5858136 C301.700163,16.5858136 384.200106,56.3085985 384.200106,105.308303 C384.200106,154.305731 301.700163,194.028516 199.936274,194.028516 C98.1678325,194.028516 15.6633374,154.305731 15.6633374,105.308303 C15.6633374,56.3085985 98.1678325,16.5858136 199.936274,16.5858136 Z M199.936274,21.3608324 C100.801148,21.3608324 20.4360802,58.9464664 20.4360802,105.308303 C20.4360802,151.674691 100.798872,189.260325 199.936274,189.260325 C299.069123,189.260325 379.436467,151.674691 379.436467,105.308303 C379.436467,58.9464664 299.069123,21.3585564 199.936274,21.3608324 Z M185.074085,104.673303 C197.141363,104.673303 202.428478,112.698429 202.428478,125.557751 C202.428478,137.813936 192.061362,154.902039 174.64324,154.902039 C162.198149,154.902039 154.653255,144.245872 157.036212,130.88811 C159.62856,116.360491 169.674763,104.673303 185.074085,104.673303 Z M288.997885,106.070758 L284.81007,117.361925 C284.172794,115.996333 282.399801,116.239864 282.397525,116.239864 L269.358401,116.239864 L266.299476,124.765708 L276.598313,124.765708 C279.137459,124.765708 279.697068,123.922312 279.797295,123.711464 L279.806001,123.691352 L275.473975,135.874796 C275.010268,135.258696 272.928554,135.377675 272.748412,135.389186 L272.735964,135.390011 L262.116213,135.390011 L259.218883,143.116983 L272.902111,143.116983 C275.590258,143.116983 276.286962,142.623078 276.416365,142.503343 L276.435511,142.484194 L272.578921,153.902881 L240.230331,153.902881 C240.872159,153.902881 243.120833,149.398705 243.120833,149.398705 C243.120833,149.398705 246.42884,140.483426 249.863004,131.212069 L250.671836,129.028132 C253.702171,120.844696 256.636435,112.906682 257.288847,111.093859 C258.671217,107.259246 257.709195,106.174587 257.616714,106.081984 L288.997885,106.070758 Z M222.860005,106.06393 C221.359988,106.375456 221.294243,109.895588 221.291884,110.334388 L221.291851,110.3792 L221.08246,135.219312 C221.08246,135.219312 224.876926,129.544918 228.947513,123.447469 L229.45752,122.683465 C230.223924,121.535292 230.994882,120.379939 231.747201,119.252022 L232.245731,118.504521 C235.464921,113.677122 238.237341,109.509341 238.675833,108.817873 C239.804722,107.049432 238.350367,106.084414 238.350367,106.084414 L256.874617,106.084414 C255.265495,106.084414 249.136265,113.649792 249.136265,113.649792 C249.136265,113.649792 249.133576,113.653397 249.128253,113.660538 L249.065101,113.74524 C248.329235,114.732201 242.00296,123.216745 235.534403,131.879018 L234.295421,133.538019 C227.830897,142.193157 221.571843,150.558798 220.966385,151.315085 C219.682729,152.924207 219.682729,153.893777 219.682729,153.893777 L206.741472,153.893777 C207.594967,153.418096 207.758838,151.155766 207.758838,151.155766 L207.758838,109.782891 C207.758838,106.728518 206.563945,106.084414 206.563945,106.084414 Z M314.973998,106.072988 C318.103012,106.095521 333.470425,107.080385 327.917246,124.524453 C327.917246,124.524453 324.378088,135.754168 312.624896,135.754168 L321.025561,150.828024 C321.025561,150.828024 322.794002,153.891689 324.407676,153.891689 L306.932655,153.891689 C306.932655,153.891689 307.173909,153.088078 306.689124,152.12306 C306.467478,151.675566 304.898502,148.48493 303.2731,145.178607 L302.94765,144.516579 C301.157743,140.875501 299.403693,137.306391 299.403693,137.306391 L294.348728,150.962307 C294.348728,150.962307 293.508889,153.918813 294.712886,153.891689 L278.25523,153.861914 C279.507266,152.586661 280.469847,151.056622 281.077453,149.375945 C281.511711,148.145888 284.365627,140.266151 287.373571,131.970533 L287.775345,130.862533 L288.17775,129.752888 L288.579594,128.644882 C291.855778,119.611789 294.956416,111.071099 294.956416,111.071099 C294.956416,111.071099 296.080753,107.688984 294.63095,106.079862 L314.435605,106.079602 C314.462807,106.078438 314.584103,106.073721 314.783892,106.072742 Z M140.267391,105.901331 C142.315475,105.912817 159.219429,106.530598 153.772448,123.932697 C153.772448,123.932697 150.017071,135.574365 138.266155,135.574365 L146.664544,150.652773 C146.664544,150.652773 148.323738,153.711698 149.935136,153.711698 L133.060975,153.711698 C133.060975,153.711698 133.304505,152.908275 132.821996,151.938705 C132.339487,150.973687 125.283931,137.13114 125.283931,137.13114 L119.623553,152.1572 C119.623553,152.1572 119.623553,153.713974 120.110614,153.713974 L104.331203,153.709422 C104.331203,153.709422 106.10192,151.802146 107.069214,149.064135 C107.551723,147.695129 110.891164,138.152489 114.109977,128.952099 L114.495465,127.850241 C117.571688,119.057232 120.426976,110.893572 120.426976,110.893572 C120.426976,110.893572 121.555865,107.511457 120.108338,105.902335 L140.117902,105.901558 C140.1292,105.901444 140.142312,105.90134 140.157196,105.901266 Z M171.80281,129.115117 C170.84462,133.341623 169.82953,142.504743 175.740266,143.601768 C180.085123,144.407467 184.862418,141.277987 187.356899,131.288684 C191.139588,116.169308 184.168242,116.046405 182.895966,115.889362 C179.040446,115.418233 173.894441,119.858682 171.80281,129.115117 Z M104.998067,111.009648 L103.49364,115.352229 L80.765643,123.220313 L100.689625,123.220313 L96.943352,133.942483 L66.1606404,133.942483 L70.0229888,122.478342 L104.998067,111.009648 Z M310.770767,117.186421 L306.384142,117.186674 L303.161346,126.68664 L306.222547,126.68664 C306.222547,126.68664 306.343221,126.695697 306.555365,126.697721 L306.731168,126.697669 C308.203482,126.683301 312.458668,126.30338 313.944968,122.498825 C316.012048,117.224358 311.095393,117.183435 310.770767,117.186421 Z M135.398413,116.872588 L135.002086,116.873125 C133.676113,116.876602 132.33855,116.895885 132.106315,116.899362 L132.070921,116.8999 L128.800329,126.511389 L131.859254,126.511389 C131.859254,126.511389 137.817786,127.039418 140.014112,122.300815 C140.014112,122.300815 142.585977,116.872588 135.398413,116.872588 Z M252.737806,47.7372333 C278.329844,47.9766091 269.337917,71.760268 269.337917,71.760268 C262.598449,94.6520221 241.872786,95.5064147 239.004217,95.5138601 L238.84424,95.5133761 C238.732101,95.5123448 238.673557,95.5101826 238.673557,95.5101826 L219.354987,95.5306665 C220.684163,94.9229782 221.653733,91.8003253 221.653733,91.8003253 C221.653733,91.8003253 224.982575,82.8237124 228.399399,73.5776412 L228.793854,72.5100864 C231.818175,64.3239278 234.813803,56.1889727 235.537248,54.1327559 C237.105402,49.6672712 235.901406,47.734959 235.901406,47.734959 L235.902001,47.736352 Z M167.57858,47.6712314 C166.482205,48.1569919 166.387449,50.1995268 166.382751,50.7731947 L166.382926,50.8842593 C166.383257,50.9099131 166.383687,50.9236155 166.383687,50.9236155 L168.325103,92.9314904 C168.53677,94.8319388 169.683867,95.4760428 169.683867,95.4760428 L154.229921,95.4760428 C155.193483,94.539247 155.291445,93.3679845 155.298126,93.0171625 L155.298219,92.9401638 C155.297869,92.9225467 155.297359,92.9132825 155.297359,92.9132825 L155.267771,88.7163642 L139.681818,88.7163642 C139.681818,88.7163642 139.004615,89.9030753 138.300507,91.1593172 L138.078021,91.5570334 C137.671271,92.2856393 137.278448,92.9981341 137.025743,93.4777271 C136.712415,94.0778287 136.6717,94.9298905 136.669078,95.2789499 L136.669602,95.3955497 C136.670099,95.4226836 136.670689,95.4373511 136.670689,95.4373511 L121.18488,95.4373511 C122.509504,94.8638026 123.028428,93.8691967 123.028428,93.8691967 C123.028428,93.8691967 149.2182,55.0363223 151.268864,52.0183648 C153.321803,48.9981313 152.247538,47.6712314 152.247538,47.6712314 Z M121.259001,47.634352 L121.244512,47.6372702 C120.943355,47.6924919 120.043176,48.1602715 118.708607,51.49944 C118.298019,52.5299154 115.818228,59.1044089 113.169623,66.1446845 L112.807582,67.1071322 C112.747127,67.2678624 112.686629,67.4287139 112.626111,67.5896272 L112.262938,68.5553708 L111.90035,69.5197348 C108.944514,77.3819511 106.154268,84.819876 106.154268,84.819876 L118.692675,84.819876 C118.692675,84.819876 121.578625,85.0907184 121.940507,84.002797 L117.745865,95.444179 L87.7483683,95.444179 L87.7600869,95.4395829 C87.8569287,95.3988341 88.5437833,95.0575143 89.4394259,93.2683363 C90.40672,91.3383002 104.278855,52.7057126 104.278855,52.7057126 C104.278855,52.7057126 106.179303,48.6590094 104.035325,47.6348156 L121.259001,47.634352 Z M202.940575,47.7213031 L205.958533,72.3520243 C205.958533,72.3520243 207.630626,67.8857248 209.467239,62.9864477 L209.743776,62.248813 C209.790009,62.1255007 209.836297,62.0020439 209.882617,61.8785054 L210.299732,60.7661595 C212.151781,55.8277389 213.942216,51.0613391 214.163463,50.5002821 C214.6528,49.2917335 214.26133,47.7213031 214.26133,47.7213031 L227.860347,47.7622708 C226.922641,47.7622708 226.237569,49.8971458 226.237569,49.8971458 L209.461275,95.3963833 L196.663406,95.3963833 L193.404194,69.8188519 L193.392483,69.850721 C193.23749,70.2725155 191.566961,74.8184264 189.756559,79.7352954 L189.484122,80.4751388 C187.526601,85.7905644 185.486928,91.3178163 185.074085,92.3943577 C184.470948,93.9625121 185.438242,95.3963833 185.438242,95.3963833 L171.308921,95.3963833 C172.155588,95.3963833 173.120606,92.7539635 173.120606,92.7539635 L188.606415,50.2567516 C189.005009,49.1587367 188.558675,48.1445935 188.391373,47.8250583 L188.349127,47.7479542 C188.33901,47.7304242 188.333297,47.7213031 188.333297,47.7213031 L202.940575,47.7213031 Z M314.97599,66.0042992 L311.111365,77.472993 L276.140839,88.9416868 L277.64299,84.5945534 L300.370987,76.7241936 L280.442453,76.7241936 L284.193278,66.0042992 L314.97599,66.0042992 Z M251.155955,57.9979834 L251.032307,57.9981197 C251.01102,57.9986084 250.997257,57.9992283 250.991706,57.9995077 L247.365547,57.9996562 L237.952069,84.5148939 L237.969599,84.5133594 C238.031879,84.509544 238.31193,84.4997566 239.555417,84.4972683 L240.182535,84.496686 C243.466783,84.496686 249.55277,83.7729225 253.647269,73.8132074 C259.830577,58.7559208 252.386569,58.0194518 251.155955,57.9979834 Z M154.967341,63.9331519 L146.361838,77.9327422 L155.087968,77.9327422 L154.967341,63.9331519 Z" id="land-rover" fill="#FFFFFF"></path>
</svg>