<?xml version="1.0" encoding="UTF-8"?>
<svg width="400px" height="293px" viewBox="0 0 400 293" version="1.1" xmlns="http://www.w3.org/2000/svg">
    <title>lexus</title>
    <path d="M208.024566,24.2610057 C187.079983,50.0893432 127.340255,133.475803 120.532242,144.272703 C107.425063,164.959938 106.266999,174.984796 105.880977,181.664135 C105.500805,188.220649 105.500805,200.041091 116.163182,209.679927 C134.025443,225.61208 159.075889,223.038605 181.307209,223.038605 L364.404153,223.038605 C372.241556,223.038605 374.557685,220.722477 378.798071,215.072528 C393.443487,192.712534 400.000001,168.428282 400.000001,146.711656 C400.000001,100.196084 369.808452,41.6085712 293.35283,15.1368648 L284.737535,27.4720015 C345.383829,56.2481384 370.445972,93.8969174 370.445972,146.577134 C370.831994,160.713704 367.100454,176.002488 357.847639,190.139058 L179.757275,190.139058 C169.094898,190.139058 167.550812,178.061269 171.405177,171.247407 C186.673185,144.075154 203.712474,117.936913 222.412634,93.0020498 C240.403568,68.9751452 258.131306,46.4864773 276.76561,22.9742679 C281.778038,16.4236026 278.43252,10.1244361 268.413511,8.07150436 C247.597603,3.70244455 225.886826,0.620122577 199.543794,0.620122577 C53.4581086,0.620122577 6.46283297e-07,84.5212777 6.46283297e-07,146.711656 C6.46283297e-07,214.171811 53.8382811,292.423018 199.929815,292.423018 C281.005996,292.423018 334.078082,266.331484 364.784326,232.800266 L333.814886,232.800266 C306.957158,257.599213 260.827607,275.209975 199.929815,275.209975 C76.1924264,275.209975 30.5834193,205.691039 30.5834193,145.81094 C31.4782869,92.3586808 80.4328125,18.6052081 203.017986,16.1662551 C207.644393,16.0375813 211.247259,20.2779673 208.024566,24.2610057 L208.024566,24.2610057 Z" id="lexus" fill="#FFFFFF"></path>
</svg>