<?xml version="1.0" encoding="UTF-8"?>
<svg width="400px" height="313px" viewBox="0 0 400 313" version="1.1" xmlns="http://www.w3.org/2000/svg">
    <title>lotus</title>
    <path d="M255.85763,21.9137848 L256.035453,22.0916551 C256.075077,22.1318875 256.094985,22.1526389 256.094985,22.1526389 L385.093313,163.302104 C385.093313,163.302104 385.128715,163.344479 385.196067,163.427652 L385.320627,163.582815 C387.633982,166.486917 406.639501,191.487361 397.558386,218.140508 C387.897625,246.49492 336.486127,310.060193 202.193111,312.550569 C67.8974566,315.354881 11.4999298,242.756717 11.4999298,242.756717 C11.4999298,242.756717 -14.9866998,199.755516 12.4338209,167.662901 C39.8569798,135.881584 134.267041,31.8107615 134.267041,31.8107615 C134.267041,31.8107615 159.817142,0.963335192 196.895785,0.0294440669 C231.74971,-0.848413591 253.386669,19.4721561 255.85763,21.9137848 Z M197.207082,11.24669 C162.621453,11.8692841 139.875664,42.4054134 139.875664,42.4054134 C139.875664,42.4054134 50.1376965,143.671924 24.8988932,173.271524 C-0.65120726,202.871124 24.8988932,236.836797 24.8988932,236.836797 C24.8988932,236.836797 77.2442822,302.267214 202.193111,299.7742 C326.828004,297.283824 376.369082,240.886297 385.407249,214.713602 C393.717508,190.632296 373.810651,169.190274 370.572368,165.913671 L370.310308,165.651619 C370.195989,165.538826 370.135227,165.481184 370.135227,165.481184 L251.420253,32.4333556 C251.420253,32.4333556 231.795349,10.3127989 197.207082,11.24669 Z M223.377138,205.060756 L223.691074,222.81524 L220.578103,222.81524 C219.955509,220.010928 218.393748,217.206617 216.528603,214.404943 C214.658183,211.286697 213.096422,209.730211 211.539936,209.730211 C210.690945,209.447214 209.839772,209.421487 208.75452,209.419148 L203.124364,209.418914 L204.060893,257.717442 L204.062748,258.22518 C204.071097,258.981424 204.117013,259.700582 204.369552,260.207818 C204.992146,261.141709 205.617378,261.766942 206.548631,262.078239 C207.171225,262.389536 208.110393,262.700833 209.355581,263.01213 C210.603407,263.01213 211.843319,263.323427 212.782487,263.323427 L212.782487,266.750332 L181.309828,267.372926 L181.309828,263.946021 C181.93506,263.946021 183.17761,263.634724 184.425437,263.634724 C185.98456,263.323427 186.918451,263.323427 187.229748,263.01213 C188.163639,262.389536 189.100168,261.764303 189.411465,261.141709 C189.722762,260.207818 189.722762,259.273927 189.722762,258.340036 L189.100168,209.730211 L183.802842,209.730211 C182.555016,210.041509 181.621125,210.041509 180.687234,210.041509 C179.128111,210.352806 177.568987,212.223226 175.701205,215.027537 C174.14472,218.145784 172.896894,220.947457 171.963002,223.754407 L168.847394,223.754407 L168.536097,205.994647 L223.377138,205.060756 Z M140.806917,200.066813 C145.167714,201.314639 149.219852,203.185059 152.646757,205.675436 C156.076301,208.171088 158.571953,210.972762 160.751033,214.08837 C162.621453,217.517914 163.869279,221.256116 164.180576,225.619551 C164.80317,229.669051 163.869279,234.029847 162.310156,238.704579 C160.817431,242.899157 158.603301,246.800667 155.767642,250.233122 C152.96333,253.351369 149.845084,256.153042 146.106881,258.023463 C142.054743,260.202542 138.005244,261.450368 133.330512,262.072962 C128.969715,262.384259 123.983686,262.072962 118.68636,260.516477 C114.322926,259.268651 110.273426,257.398231 107.157817,254.905216 C103.770631,252.719881 100.985215,249.720412 99.05618,246.180985 C96.8771007,242.754079 95.6292744,239.013238 95.3179774,234.963739 C95.0066803,230.914239 95.6292744,226.550804 97.1857596,221.876072 C99.0535419,217.203979 101.237897,213.151841 104.353506,210.036232 C107.469114,206.609327 110.89602,203.805015 114.634223,201.937233 C118.68636,200.066813 122.73586,199.132921 127.407954,198.507689 C131.771389,198.196392 136.134823,198.818986 140.806917,200.066813 Z M125.226236,207.859791 C120.86544,211.597994 117.124599,217.829211 114.320287,226.242145 C113.075099,229.671689 112.13857,233.409892 111.515976,236.522862 C110.893382,239.952406 110.893382,243.065376 111.204679,245.561029 C111.515976,248.36534 112.452505,250.858355 114.00899,252.728775 C115.256817,254.599195 117.435896,255.844383 120.240207,256.466977 C123.044519,257.400869 125.84883,257.400869 128.341845,256.466977 C130.840136,255.841745 133.019215,254.282622 134.889635,252.41484 C137.071353,250.233122 138.939135,247.740108 140.809555,244.624499 C142.36604,241.822826 143.925164,238.393282 145.481649,234.343783 C146.41554,231.225536 147.352069,227.801269 148.28596,224.68566 C148.908555,221.256116 148.908555,218.143146 148.597257,215.336196 C148.28596,212.534523 147.352069,210.350167 146.104243,208.171088 C144.547758,206.300668 142.36604,204.741544 139.247794,203.807653 C134.261765,202.562465 129.589671,203.807653 125.226236,207.859791 Z M296.611087,184.794791 L297.537063,187.915676 C296.30501,188.358405 295.148995,188.989363 294.110158,189.786096 C292.710075,190.356393 291.439514,191.203433 290.374593,192.276472 C289.438064,193.210363 289.126767,194.769487 289.126767,196.639907 C289.126767,198.507689 289.435426,201.312001 290.374593,204.738906 L296.289237,226.236869 C297.850998,232.779383 296.911831,238.388006 293.487564,243.374035 C289.751999,248.671361 284.454673,252.412202 276.972992,254.593919 C268.24876,257.084295 260.772355,257.084295 255.161094,254.593919 C249.241174,252.412202 245.505609,247.734832 243.943848,241.194956 L236.153508,211.592717 C235.844849,210.344891 235.219617,209.722297 234.905681,209.102341 C234.283087,208.479747 233.349196,208.16845 232.104008,207.854515 L228.985761,207.854515 C228.05187,207.854515 227.120617,208.165812 226.184088,208.165812 L225.561494,205.047565 L257.656747,196.012037 L258.279341,199.127645 C257.795101,199.369765 257.122545,199.611885 256.406901,199.854005 L255.786326,200.061536 C255.475029,200.269068 255.163439,200.442011 254.851849,200.603522 L253.917371,201.076916 C253.606074,201.23872 253.29507,201.412249 252.984653,201.62066 C252.18879,202.179205 251.545703,202.928416 251.114232,203.799739 C251.114232,204.73363 251.114232,205.670159 251.422891,206.60405 L258.904573,235.894992 C260.461058,241.503615 262.954072,245.553114 266.380978,247.112238 C269.807884,248.98002 273.857383,249.293955 279.159985,247.732194 C284.143376,246.487005 287.570282,243.993991 289.754637,240.255788 C291.933717,236.514948 292.242375,231.842854 290.688528,226.234231 L285.391202,206.606689 C284.457311,203.179783 283.520782,200.686769 282.589529,199.127645 C281.653,197.568522 280.719109,196.325972 279.471282,196.012037 C278.589843,195.426066 277.159239,195.391597 275.434601,195.389569 L274.415136,195.38987 C272.655382,195.393286 271.57747,195.424031 270.749689,195.70074 L270.127095,192.582493 L296.611087,184.794791 Z M60.1071162,151.776199 L93.13626,175.458518 L90.9545426,178.262829 C90.0206514,177.951532 89.0841222,177.328938 87.527637,176.395047 C86.2798107,175.769815 85.3459196,175.147221 84.1007314,174.835924 C82.8529051,174.213329 81.607717,174.213329 80.9851229,174.524627 C80.1106547,175.086899 79.3667359,175.829919 78.8034055,176.703706 L55.7463195,211.60327 C54.787657,212.814995 54.0492056,214.185639 53.5646021,215.65277 C53.2533051,216.900596 53.2533051,218.145784 53.5646021,219.082313 C53.8785373,220.016204 54.8124284,220.950096 56.0576166,222.197922 C57.3028047,223.131813 58.8592899,224.379639 61.3549425,226.247421 C63.5366599,227.806545 65.7157392,229.365668 68.2087536,230.610856 C70.390471,231.856044 72.2608914,232.478639 73.8173766,232.167341 C75.999094,232.167341 78.4921084,231.23345 81.607717,229.988262 C84.2892314,228.926055 86.8924729,227.676005 89.3980573,226.247421 L92.5136659,228.423863 L80.0512318,244.627137 L24.8988932,205.05548 L27.0806106,202.253806 C28.0145017,202.873762 29.262328,203.498994 30.5075161,204.432886 C32.0640013,205.05548 33.0005306,205.680712 33.6231247,205.680712 C34.8683128,205.992009 35.8048421,205.992009 36.7387332,205.680712 C37.3613273,205.369415 38.2978565,204.746821 38.9204506,203.810291 L63.5366599,166.109054 C64.159254,165.175163 64.470551,164.552569 64.7818481,163.618678 C64.7818481,162.684786 64.470551,161.748257 63.5366599,160.500431 C62.8032463,159.387431 61.9687042,158.344474 61.0436454,157.384822 C59.7958192,156.139634 58.861928,155.51704 58.239334,154.891808 L60.1071162,151.776199 Z M340.849562,157.379546 L350.510323,174.51935 L346.769482,176.69843 C344.899062,175.453241 342.719982,174.205415 340.540903,172.64893 C338.55872,171.514389 336.470952,170.575202 334.307048,169.844618 C332.127968,169.222024 329.943613,169.222024 327.453237,169.533321 C325.268881,169.533321 322.781143,170.467213 320.28549,172.026336 C317.167244,173.585459 314.988164,175.764538 313.742976,178.56885 C312.809085,181.059226 312.809085,183.554879 313.742976,185.736596 C314.990803,187.604379 316.54465,188.852205 319.040302,189.163502 C321.535955,189.474799 324.646287,189.163502 329.009722,188.229611 C331.502736,187.607017 333.998389,186.981784 336.486127,186.050531 C338.979142,185.427937 341.158221,184.802705 343.345214,184.491408 C348.328605,183.557517 352.378105,183.557517 355.810287,184.491408 C359.237192,185.739234 362.038866,188.229611 363.909286,191.656516 C365.157112,193.838234 365.465771,196.331248 365.465771,199.13556 C365.157112,201.939871 364.53188,204.744183 363.286692,207.237197 C361.730207,210.03887 359.545851,212.84582 357.058113,215.336196 C354.559822,217.829211 351.132917,220.322225 347.078141,222.81524 C343.342576,224.996957 339.601736,226.553442 335.860895,227.487333 C332.12533,228.73516 329.007084,229.357754 326.20541,229.669051 L324.643649,233.71855 L320.908084,235.900268 L310.313433,217.515276 L314.048997,215.333558 C315.919417,216.892682 318.103773,218.13787 320.282852,219.074399 C322.775867,220.322225 324.954946,221.253478 327.759257,221.876072 C330.252272,222.498666 333.056583,222.809963 335.549598,222.498666 C338.351271,222.187369 341.155583,221.25084 343.962532,219.696993 C348.012032,217.203979 350.505046,214.710964 351.752873,211.906653 C352.995423,209.104979 352.995423,206.609327 351.752873,204.116312 C350.816343,202.24853 348.945923,201.000704 346.455547,200.689407 C343.962532,200.37811 340.535627,200.689407 336.172192,201.623298 C333.370519,202.557189 330.874866,203.182421 328.695787,203.802377 C326.202772,204.424971 324.023693,205.050203 321.836699,205.3615 C317.164606,206.295392 313.112468,206.295392 309.6882,204.738906 C306.261295,203.49108 303.76828,201.000704 301.89786,197.885095 C300.963969,195.703378 300.341375,193.52166 300.341375,191.028646 C300.650034,188.846929 301.275266,186.353914 302.520454,183.549603 C303.454345,181.056588 305.322127,178.563574 307.81778,176.070559 C310.310794,173.268886 313.423765,171.08453 316.855947,169.216748 C320.282852,167.035031 323.709758,165.789843 327.134025,164.855951 C330.560931,163.92206 333.36788,163.299466 335.54696,163.299466 L336.794786,159.561264 L340.849562,157.379546 Z M227.743211,48.3253334 C227.743211,48.3253334 233.349196,51.4409419 237.398696,48.3253334 C241.448195,45.2097249 243.009957,42.0941164 246.122927,48.0140364 C246.989779,49.842247 248.183211,52.0272289 249.418837,54.1742634 L249.772776,54.7863283 C252.432241,59.3639558 255.161094,63.5947171 255.161094,63.5947171 C255.161094,63.5947171 255.413245,64.379898 255.429912,65.285622 L255.429961,65.4681771 C255.391661,67.5508868 253.976477,70.0252698 245.505609,65.1512023 C232.726602,57.9860942 212.162531,53.6226594 212.162531,53.6226594 L202.193111,53.6226594 C202.193111,53.6226594 180.069916,50.1957538 163.555344,67.6442168 C147.352069,84.7813827 148.599896,107.527172 148.599896,107.527172 L163.244047,86.649165 C163.244047,86.649165 165.111829,85.4039768 164.177938,82.5996653 C163.244047,80.1066509 162.930112,79.4840568 162.930112,79.4840568 L162.930112,75.431919 L226.18145,74.809325 C226.18145,74.809325 226.205549,74.8084494 226.25194,74.8076842 L226.492935,74.8069423 C228.813719,74.8253647 243.318616,75.5826079 243.318616,91.6351939 C243.318616,107.513295 233.514044,109.71568 231.749221,109.983496 L231.644699,109.998476 C231.536791,110.012972 231.478776,110.017548 231.478776,110.017548 C231.478776,110.017548 249.863768,113.755751 249.863768,134.011163 C249.863768,151.079343 234.837552,157.630261 229.728638,159.364303 L229.376943,159.481344 C228.542638,159.753371 228.05187,159.872561 228.05187,159.872561 L180.689872,160.183858 C180.689872,160.183858 176.637734,157.068249 181.001169,155.197829 C185.673263,153.638706 187.543683,152.704814 187.543683,150.525735 L187.543683,148.032721 C187.543683,148.032721 187.531456,148.03124 187.50755,148.02801 L187.44433,148.01914 C186.371979,147.863865 176.848389,146.268249 170.092582,137.752004 C165.19014,131.782793 164.370659,123.187938 164.341979,118.354877 L164.341482,117.919619 C164.348747,115.94001 164.483959,114.694918 164.483959,114.694918 L155.137133,114.383621 L149.217213,123.421788 C149.217213,123.421788 152.021525,145.856279 162.927474,155.825699 C163.581831,156.423864 164.223841,157.019798 164.858218,157.611344 L165.490223,158.201348 L166.068074,158.741157 C175.482793,167.532484 183.854589,175.021796 207.171225,173.896756 C230.968565,173.037576 248.955908,161.627959 251.68158,159.807919 L251.837606,159.703024 C251.971801,159.612138 252.040209,159.563902 252.040209,159.563902 L257.028876,155.200467 C257.028876,155.200467 257.080832,155.096628 257.18472,154.933651 L257.272373,154.801029 C257.88917,153.899709 259.677539,151.916239 262.634861,153.641344 C266.375702,155.511764 258.899297,163.302104 258.899297,163.302104 C258.899297,163.302104 243.318616,184.48877 203.121726,186.981784 C164.03643,189.424939 136.322117,149.376394 136.989603,145.72006 L136.995893,145.695999 L136.986996,145.709983 C135.833571,147.362816 131.773826,153.488233 135.198294,155.200467 C139.559091,157.693481 137.380012,161.120387 137.380012,161.120387 L108.091709,161.431684 C108.091709,161.431684 106.221288,162.365575 106.221288,158.627373 C106.221288,155.28206 109.190301,155.499059 109.331682,155.511289 C109.336897,155.511764 119.931549,155.200467 123.358454,149.591844 C124.161635,148.350283 125.067561,146.954677 125.983951,145.545435 L126.350846,144.981344 C129.225803,140.562147 132.082686,136.192881 132.082686,136.192881 C132.082686,136.192881 131.042611,130.26419 130.28441,123.815199 L130.198252,123.069083 C130.155873,122.695178 130.114602,122.320234 130.074692,121.945289 L129.996762,121.195706 C129.604281,117.326032 129.375222,113.530192 129.589671,110.954077 C130.212265,103.475034 135.820888,63.9033761 166.357018,50.8183479 C197.204444,38.0446167 227.743211,48.3253334 227.743211,48.3253334 Z M219.952871,114.998301 L201.570517,114.998301 L202.193111,139.308489 C202.193111,139.308489 211.226001,141.17891 218.082451,135.256351 C222.528166,131.416403 223.435291,130.460162 223.523916,130.262242 L223.530928,130.241298 C223.535118,130.218229 223.51972,130.213764 223.497327,130.218064 L223.479418,130.222778 C223.463728,130.22782 223.446536,130.235325 223.430916,130.242891 L223.413123,130.251845 C223.396478,130.26052 223.383868,130.267899 223.380605,130.26983 C223.379777,130.270322 224.313668,129.336431 226.498023,130.892917 C228.632631,132.722581 225.387736,136.947074 225.254402,137.11874 C225.250197,137.124134 225.226052,137.165554 225.175211,137.243672 L225.115378,137.333848 C224.552521,138.167322 222.1525,141.343305 216.525965,144.289242 C209.983451,147.40485 202.815705,148.027444 202.815705,148.027444 L202.50177,151.456988 C202.50177,151.456988 206.865205,153.950003 213.719016,153.636067 C220.26153,153.32477 222.13195,152.702176 222.13195,152.702176 L222.147446,152.697626 C222.167967,152.691515 222.208592,152.679164 222.267643,152.660053 L222.369832,152.626253 C224.142216,152.028272 235.219617,147.717519 235.219617,133.383293 C235.219617,118.113909 219.952871,114.998301 219.952871,114.998301 Z M187.548959,114.69228 L176.954308,114.69228 C176.954308,114.69228 176.64301,124.664338 179.136025,129.650367 C181.626401,134.945054 187.548959,136.192881 187.548959,136.192881 L187.548959,114.69228 Z M184.744648,83.2248975 C180.178738,83.5291196 176.504752,83.8333418 176.340111,83.8470129 L176.317762,83.8478617 C176.099039,83.8552624 173.767093,84.0106776 172.282214,87.2743972 C171.534046,88.6451594 169.688846,91.9107181 167.743946,95.3359142 L167.378353,95.9795856 C167.210801,96.2744992 167.042975,96.5697894 166.875503,96.8643614 L166.541219,97.4522231 C165.318609,99.6018255 164.137621,101.673547 163.246437,103.2356 L163.010759,103.648654 C162.972738,103.715282 162.935364,103.780776 162.898658,103.845095 L162.586988,104.391157 C162.132211,105.187844 161.822202,105.730448 161.720919,105.907698 L161.684924,105.970686 L166.048359,106.281984 C166.048359,106.281984 168.541373,99.1142372 174.461293,94.7534405 C180.69251,90.3900057 187.548959,88.5222235 187.548959,88.5222235 C187.548959,88.5222235 189.105445,82.9136005 184.744648,83.2248975 Z M220.890773,82.6028083 L200.945285,82.6023035 L200.945285,87.8996294 L212.162531,88.2109264 L212.188034,88.1840376 C212.491615,87.8709098 215.461002,84.9971524 218.705045,88.8335205 C222.057452,92.7949876 222.425716,94.9689976 222.440143,95.0616476 C222.440609,95.0647376 222.452554,95.2010535 222.455157,95.4197295 L222.455025,95.598336 C222.434633,97.1372384 221.886333,101.155498 216.21203,95.9986287 C209.960335,90.3126431 202.406032,92.1501469 201.131894,92.5152434 L201.041468,92.5417507 C200.978158,92.5607688 200.945285,92.5717231 200.945285,92.5717231 L200.945285,105.659389 L220.886762,105.659389 C220.886762,105.659389 228.677102,103.788969 228.677102,93.5082524 C228.677102,83.6700093 221.090422,82.6285128 220.890773,82.6028083 Z M187.235024,94.7534405 C187.235024,94.7534405 183.182886,95.3760346 180.381213,99.4255343 C177.404076,103.295056 177.271759,105.459131 177.265878,105.64385 L177.265605,105.656751 L187.235024,105.656751 L187.235024,94.7534405 Z" id="lotus" fill="#FFFFFF"></path>
</svg>