<?xml version="1.0" encoding="UTF-8"?>
<svg width="400px" height="57px" viewBox="0 0 400 57" version="1.1" xmlns="http://www.w3.org/2000/svg">
    <title>lynk-&amp;-co</title>
    <path d="M0,1.31092914 L9.94755784,1.31092914 L9.94755784,45.7170988 L36.0606684,45.7170988 L36.0606684,55.7448623 L0,55.7448623 L0,45.7170988 L0,45.7170988 L0,1.31092914 Z M43.2812339,1.31092914 L54.3722365,1.31092914 L79.3419023,36.0482042 L79.3419023,36.0482042 L79.3419023,55.743834 L69.3953728,55.743834 L69.3953728,38.8965333 L43.2812339,1.31092914 Z M204.598458,1.12069778 L215.938303,1.12069778 L194.273522,25.7099009 L215.938303,56.9047595 L205.567095,56.9047595 L188.590231,32.1613147 L182.604627,38.9561734 L182.604627,56.7330371 L172.657069,56.7330371 L172.657069,37.2492325 L172.657069,37.2492325 L204.598458,1.12069778 Z M104.692031,0.349489553 L140.100771,33.5196695 L140.100771,1.31195742 L150.047301,1.31195742 L150.047301,44.1726258 L150.047301,44.1726258 L150.047301,55.7448623 L114.639589,22.5746824 L114.639589,55.743834 L104.692031,55.743834 L104.692031,13.2554021 L104.692031,0.349489553 Z M310.463753,1.37776719 C316.197429,1.37776719 321.524936,3.12583917 325.943445,6.11915536 L327.010797,7.00244585 L321.17635,13.2255821 L321.169152,13.2194124 C318.113111,11.1484613 314.428792,9.94023505 310.463753,9.94023505 C299.888946,9.94023505 291.316195,18.5366361 291.316195,29.1412633 C291.316195,39.7458906 299.888946,48.3422916 310.463753,48.3422916 C315.751157,48.3422916 320.537789,46.1931914 324.002057,42.7186412 L325.212339,41.2482042 L331.839589,46.5870217 L330.041131,48.7731399 C325.030334,53.7973045 318.108997,56.9047595 310.463753,56.9047595 C295.172237,56.9047595 282.77635,44.4749394 282.77635,29.1412633 C282.77635,13.8075872 295.172237,1.37776719 310.463753,1.37776719 Z M372.312596,1.37776719 C387.604113,1.37776719 400,13.8075872 400,29.1412633 C400,44.4749394 387.604113,56.9047595 372.312596,56.9047595 C358.933676,56.9047595 347.770694,47.38805 345.188689,34.7361219 L344.842159,32.4605435 L353.499229,32.4605435 L353.554756,33.0106721 C355.339846,41.7602865 363.060154,48.3422916 372.312596,48.3422916 C382.887404,48.3422916 391.460154,39.7458906 391.460154,29.1412633 C391.460154,18.5366361 382.887404,9.94023505 372.312596,9.94023505 C368.347558,9.94023505 364.663239,11.1484613 361.607198,13.2194124 L360.623136,14.0338083 L353.674036,8.73303711 L356.832905,6.11915536 C361.251414,3.12583917 366.57892,1.37776719 372.312596,1.37776719 Z M245.273008,16.7566875 C250.259126,16.7566875 254.301285,20.7988469 254.301285,25.7849651 C254.301285,27.6543739 253.732648,29.3911348 252.758869,30.83278 L247.542416,35.8826515 L254.520308,43.6903636 C255.121851,43.1926772 255.722365,42.6939626 256.323907,42.1962762 L262.98509,42.1962762 C261.107455,43.751032 259.230848,45.3057878 257.354242,46.8605435 L265.341902,55.7973045 L259.90437,55.7973045 L254.229306,49.4476901 L248.281748,54.3628572 C246.820566,55.351032 245.059126,55.9268674 243.161954,55.9268674 C238.104884,55.9268674 234.005141,51.8271245 234.005141,46.7700551 C234.005141,44.8739111 234.582005,43.1114433 235.569152,41.6502608 L236.242674,40.83278 L241.792288,35.5330371 L237.786118,30.83278 C236.813368,29.3911348 236.24473,27.6543739 236.24473,25.7849651 C236.24473,20.7988469 240.286889,16.7566875 245.273008,16.7566875 Z M245.273008,20.7176129 C242.475064,20.7176129 240.205656,22.9859934 240.205656,25.7849651 C240.205656,26.4841939 240.347558,27.1505178 240.604627,27.7572016 C241.903342,29.8137569 243.715167,31.528924 245.269923,33.4158135 C246.826735,31.528924 249.151671,29.5577158 249.941388,27.7572016 C250.198458,27.1505178 250.339332,26.4841939 250.339332,25.7849651 C250.339332,22.9859934 248.070951,20.7176129 245.273008,20.7176129 Z M244.275578,39.3088726 L240.832905,42.2559163 C240.030848,43.0939626 239.058098,43.5906207 238.426735,44.7700551 C238.166581,45.3849651 238.022622,46.0605435 238.022622,46.7700551 C238.022622,49.6081014 240.323907,51.9093867 243.161954,51.9093867 L245.059126,51.5258392 C246.923393,49.9361219 248.787661,48.3464047 250.651928,46.7556592 L244.275578,39.3088726 Z" id="lynk-&amp;-co" fill="#FFFFFF"></path>
</svg>