<?xml version="1.0" encoding="UTF-8"?>
<svg width="400px" height="185px" viewBox="0 0 400 185" version="1.1" xmlns="http://www.w3.org/2000/svg">
    <title>mahindra</title>
    <path d="M201.782124,0.872151151 C101.519973,0.891508024 11.2459683,35.0886507 0.928754871,80.9192742 C-5.93003054,111.40635 25.8604076,142.680604 74.4461594,160.979302 C131.277939,109.348069 195.555663,54.7229725 279.409638,17.2028999 C202.969345,66.3887147 146.582774,120.433105 100.648913,169.851202 C116.095698,173.890336 132.974892,177.587499 150.85419,179.639328 C176.669807,139.783526 205.408311,90.1912165 290.294653,18.0094362 C228.630107,92.1656176 199.865793,136.202504 174.95995,182.749332 C266.74379,190.963099 373.542112,179.458664 398.983496,98.869548 C409.971748,49.9740862 330.61502,6.42112148 221.939081,1.46576193 C215.225489,1.1145021 208.504752,0.916580265 201.782124,0.872151151 L201.782124,0.872151151 Z M198.149484,8.33099963 C238.837631,7.85998239 270.737758,12.3636816 270.737758,12.3636816 C191.852048,40.5989073 136.272012,69.498719 63.0578656,110.961141 C63.7676176,111.670893 5.28405135,102.463474 47.32718,54.1035525 C79.0595475,17.5964896 145.84076,8.93751499 198.149484,8.33099963 Z M301.18612,21.8420971 C301.18612,21.8420971 354.578829,28.6040982 367.728598,75.8800349 C382.194634,127.937119 245.070545,148.810281 235.856673,141.003009 C261.227081,79.6804343 268.718191,79.1577988 301.18612,21.8420971 Z" id="mahindra" fill="#FFFFFF"></path>
</svg>