<?xml version="1.0" encoding="UTF-8"?>
<svg width="400px" height="561px" viewBox="0 0 400 561" version="1.1" xmlns="http://www.w3.org/2000/svg">
    <title>maserati</title>
    <path d="M199.997402,361.557348 L64.2269769,361.557348 L64.2269769,366.639386 L335.715863,366.639386 L335.715863,361.557348 L199.997402,361.557348 Z M199.997402,390.386739 L64.2269769,390.386739 L64.2269769,395.468776 L335.715863,395.468776 L335.715863,390.386739 L199.997402,390.386739 Z M199.997402,374.828845 L49.7499253,374.828845 L49.7499253,379.905686 L350.198111,379.905686 L350.198111,374.828845 L199.997402,374.828845 Z M199.997402,403.912857 L50.9606766,403.912857 L50.9606766,409.940632 L64.2321732,409.940632 C64.2321732,419.590267 70.2651441,431.651013 83.5314445,431.651013 C96.8029411,431.651013 101.625161,423.206932 101.625161,411.151383 C114.896657,411.151383 163.150032,411.151383 163.150032,469.054393 L236.803201,469.054393 C236.803201,411.151383 285.051379,411.151383 298.328072,411.151383 C298.328072,423.206932 303.150292,431.651013 316.421788,431.651013 C329.688089,431.651013 335.715863,419.595464 335.715863,409.940632 L348.992556,409.940632 L348.992556,403.912857 L199.997402,403.912857 Z M250.86974,475.684939 L149.078296,475.684939 C147.6778,475.684939 146.542474,476.820271 146.542474,478.220767 L146.542474,498.476168 C146.542474,499.879185 147.680476,501.011996 149.078296,501.011996 L250.86974,501.011996 C251.542705,501.013374 252.188506,500.746652 252.664365,500.270793 C253.140224,499.794934 253.406946,499.149133 253.405568,498.476168 L253.405568,478.220767 C253.406946,477.547802 253.140224,476.902002 252.664365,476.426143 C252.188506,475.950284 251.542705,475.683562 250.86974,475.684939 L250.86974,475.684939 Z M236.813594,506.774751 L163.139639,506.774751 C161.739143,506.774751 160.603817,507.910077 160.603817,509.310573 L160.603817,560.229679 L239.349416,560.229679 L239.349416,509.310573 C239.346557,507.911263 238.212904,506.77761 236.813594,506.774751 L236.813594,506.774751 Z M400,114.335451 C367.756603,121.662315 328.186341,156.057004 312.067241,177.356873 C325.250399,172.960755 336.983774,164.168518 348.706757,159.767203 C336.983774,184.683737 303.269808,287.571612 303.269808,341.514998 L271.02641,341.514998 C232.916326,277.023007 210.935734,241.843668 210.935734,109.934136 C231.456149,121.662315 238.783013,130.454551 260.768801,134.85067 C235.852268,109.934136 200.002598,54.2343817 200.002598,0 C200.002598,54.2343817 164.152929,109.92894 139.236395,134.85067 C161.222183,130.454551 168.549047,121.657118 189.069462,109.934136 C189.069462,241.843668 167.083674,277.023007 128.978786,341.514998 L96.7353885,341.514998 C96.7353885,287.571612 63.021422,184.683737 51.2984398,159.767203 C63.0266183,164.168518 74.7496005,172.960755 87.9431519,177.356873 C71.818855,156.057004 32.2485937,121.662315 0,114.335451 C49.833067,180.292815 63.021422,269.696143 63.021422,341.520194 L49.8278707,341.520194 L49.8278707,356.620809 L350.182522,356.620809 L350.182522,341.520194 L336.988971,341.520194 C336.983774,269.701339 350.177326,180.292815 400,114.335451 L400,114.335451 Z M186.13352,341.520194 L155.355496,341.520194 C165.618302,320.999779 181.737402,301.944737 186.13352,277.028203 L186.13352,341.520194 Z M213.86648,341.520194 L213.86648,277.028203 C218.262598,301.944737 234.376502,320.999779 244.639308,341.520194 L213.86648,341.520194 Z" id="maserati" fill="#FFFFFF"></path>
</svg>