<?xml version="1.0" encoding="UTF-8"?>
<svg width="400px" height="72px" viewBox="0 0 400 72" version="1.1" xmlns="http://www.w3.org/2000/svg">
    <title>maxus</title>
    <path d="M0,2.15568797 L0,70.8807844 L27.2729113,70.8807844 L27.2729113,39.2425686 L38.9076541,70.8807844 L65.0903773,70.8807844 L77.0892748,37.7905017 L77.0892748,70.8807844 L104.35991,70.8807844 L104.35991,2.15568797 L63.6337585,2.15568797 L51.9990157,33.7893519 L40.3619969,2.15568797 L0,2.15568797 Z M136.360005,26.5176376 L148.723057,43.9720278 L136.360005,43.9720278 L136.360005,26.5176376 Z M323.626561,28.7367054 C325.374504,33.9122541 332.432277,38.247971 337.082077,39.2448445 C342.171139,40.3373086 353.444003,42.8818396 360.353839,44.3384584 C367.26595,45.7928013 367.26595,47.6112988 367.26595,49.4275204 C367.26595,51.243742 364.719143,53.4286702 360.717993,53.4286702 C356.716844,53.4286702 354.538743,51.246018 354.538743,47.6090229 L323.626561,47.6090229 L323.626561,28.7367054 Z M323.626561,2.15568797 L293.811395,2.15568797 L293.979816,43.7899504 C293.979816,47.1976281 291.217348,49.9600967 287.80967,49.9600967 C284.401992,49.9600967 281.639524,47.1976281 281.639524,43.7899504 L281.639524,2.15568797 L228.354587,2.15568797 L217.810032,14.8828949 L207.629632,2.15568797 L175.993692,2.15568797 L200.719797,34.881816 L185.812213,52.7003608 L150.179676,2.15568797 L109.089369,2.15568797 L109.089369,70.8807844 L136.362281,70.8807844 L136.362281,57.7894228 L158.179699,57.7894228 L166.905756,70.8807844 L203.633034,70.8807844 L217.448153,54.1524277 L229.815757,70.8807844 L263.265643,70.8807844 L234.540665,34.1557825 L248.719938,16.7013924 L286.899283,70.8807844 C300.596052,71.5339869 319.206633,68.0585854 322.918735,53.7086142 C324.62571,59.8696565 329.311926,66.64521 338.169989,69.0622868 C350.171163,72.3351272 373.442924,71.9686966 382.168981,69.4264415 C390.89959,66.8796346 400.353957,57.7894228 399.989802,48.699211 C399.625648,39.6089992 393.082243,31.9731303 384.715788,30.5187874 C376.353886,29.0621686 367.957844,27.0365581 360.715717,25.4274495 C355.808733,24.3372613 355.078147,22.8829185 355.262501,19.9742328 C355.421818,17.4092181 365.807055,14.1568614 365.807055,22.5210398 L398.533183,22.5210398 C398.533183,9.43195414 388.719214,0.703621094 358.171187,0.703621094 C332.156885,0.703621094 325.800109,9.88487156 323.626561,14.6029509 L323.626561,2.15568797 L323.626561,2.15568797 Z" id="maxus" fill="#FFFFFF"></path>
</svg>