<?xml version="1.0" encoding="UTF-8"?>
<svg width="400px" height="289px" viewBox="0 0 400 289" version="1.1" xmlns="http://www.w3.org/2000/svg">
    <title>maybach</title>
    <path d="M242.319793,185.740991 L242.319793,286.032903 C228.406912,287.769675 213.914217,288.34949 200.004008,288.34949 C186.088455,288.34949 171.598432,287.769675 157.685551,286.032903 L157.685551,185.740991 L200.004008,211.247494 L242.319793,185.740991 Z M304.931765,148.053036 C304.931765,148.053036 305.565315,189.642002 306.129716,231.941041 L306.175312,235.371442 C306.356983,249.092813 306.529382,262.772661 306.668537,275.016423 C297.97666,277.33301 289.276768,279.072454 280.002405,280.81457 L280.002405,163.13089 Z M95.076251,148.055708 L120.002939,163.133562 L120.002939,280.81457 C110.725904,279.072454 102.031355,277.335682 93.3368069,275.019095 C93.4701643,263.285489 93.6341938,250.232979 93.8077318,237.088968 L93.8990248,230.229377 C94.4582845,188.528242 95.076251,148.055708 95.076251,148.055708 Z M57.3909674,120.812433 L55.0743806,264.002616 C44.0579013,259.941241 33.044094,255.305396 22.0302866,250.666878 C22.0302866,250.666878 17.3349022,248.501058 12.2781734,245.678829 L11.6445139,245.322741 C7.8350266,243.167009 3.92386227,240.677424 1.7394441,238.490769 C1.1596294,237.913627 0.5798147,236.753997 2.84217094e-14,236.176854 L2.84217094e-14,233.857596 C2.84217094e-14,225.737518 6.3779617,210.673023 6.37528974,210.670352 C19.7056839,178.788559 37.1001249,148.055708 57.3909674,120.812433 Z M342.611705,120.812433 C362.902547,148.055708 380.296988,178.788559 393.622038,210.670352 C393.622038,210.670352 400,225.737518 400,233.857596 L400,236.176854 C399.428201,236.753997 398.848386,237.913627 398.268572,238.490769 C396.084154,240.677424 392.172053,243.167009 388.361477,245.322741 L387.727634,245.678829 C382.669435,248.501058 377.972385,250.666878 377.972385,250.666878 C366.955906,255.305396 355.944771,259.938569 344.353821,264.002616 Z M242.319793,86.0315667 L242.319793,141.680418 L200.004008,167.186921 L157.685551,141.680418 L157.685551,86.0315667 L200.004008,112.117884 L242.319793,86.0315667 Z M280.002405,51.8278434 C295.074915,65.1609095 308.407981,79.0737903 321.741047,94.1463006 L280.002405,119.075661 Z M120.002939,51.8278434 L120.002939,119.075661 L78.2616247,94.1463006 C91.5973628,79.0711184 104.925085,65.1582375 120.002939,51.8278434 Z M200.004008,0.229678995 C211.017815,0.229678995 238.263762,19.3608921 238.266434,19.3608921 C244.912936,23.6147112 251.299585,28.2614932 257.392303,33.2764449 L200.004008,67.4774963 L142.61304,33.2764449 C148.706718,28.2603256 155.095215,23.6134964 161.744254,19.3608921 C161.744254,19.3608921 188.984857,0.229678995 200.004008,0.229678995 Z" id="maybach" fill="#FFFFFF"></path>
</svg>