<?xml version="1.0" encoding="UTF-8"?>
<svg width="400px" height="320px" viewBox="0 0 400 320" version="1.1" xmlns="http://www.w3.org/2000/svg">
    <title>mazda</title>
    <path d="M397.659273,188.325569 C397.153404,191.397276 393.658757,218.027581 379.447966,242.077122 C378.605403,243.505167 362.797391,274.403022 329.00364,292.320759 C324.470716,294.722396 303.010233,306.34247 268.05547,313.063073 C262.426219,314.141156 227.061784,321.2366 184.324921,319.092044 C178.473419,318.810084 136.026809,317.541263 103.8054,307.21323 C98.317129,305.453467 65.7324893,296.707727 39.7374237,268.753868 C34.6588242,263.288817 17.5289169,245.291468 8.27730739,214.814894 C7.04497576,210.734766 -0.188130911,186.380045 0.0108997697,154.933197 C0.0225098927,153.185044 -0.57624074,130.684626 5.65176099,109.55586 C6.27207328,107.467697 2.25165352,121.831077 6.91726441,105.275042 C11.596144,88.720665 24.247861,54.8439845 61.4417195,29.9137331 C66.0277181,26.8387091 91.2366125,10.8233736 130.095694,5.18417097 C135.2141,4.43117156 159.686581,0.797134109 204.090326,0.797134109 C209.636648,0.797134109 251.602267,0.702663462 282.370751,7.51614711 C291.398451,9.52138123 320.045601,15.115802 345.760365,34.5776854 C348.772362,36.8781484 368.157951,51.6263218 380.71347,76.355884 C383.446824,81.7380053 395.416861,104.498822 399.110539,139.745497 C399.5086,143.533715 401.548665,164.76863 397.659273,188.325569 M306.901283,50.0689067 C281.199788,29.3265926 249.092821,25.3393446 243.524938,24.3674115 C210.117638,18.5159094 175.434884,22.5844283 168.845309,23.194789 C131.545301,26.6065066 113.335652,37.4155312 110.521027,39.0575343 C78.2880081,57.7614426 66.2085043,78.9847475 65.4356018,80.15737 C64.6494307,81.3167237 64.7555804,81.9038642 64.8484613,82.3964651 C64.9430009,82.8791145 65.6230224,82.8791145 66.407535,83.3717155 C67.1804375,83.8510477 74.5926718,87.9908859 77.1137271,89.4106381 C86.6572482,94.757929 101.76036,101.065543 105.055976,102.355925 C128.330956,111.408504 137.088306,115.793813 142.261445,118.421018 C166.602897,130.792434 178.10687,146.398098 181.296337,150.066897 C186.466159,156.001328 197.946912,174.118096 198.825964,175.290718 C199.705017,176.450072 200.807978,176.040401 201.556002,174.798117 C213.529356,154.840316 223.318348,144.087683 224.728149,142.376019 C237.963689,126.310926 262.998432,115.137012 265.227575,114.141859 C274.586993,109.95558 296.442221,101.465263 299.701348,100.118489 C325.698072,89.4122966 334.936413,81.4261906 334.855673,81.2271599 C327.515886,66.3081517 309.43229,52.1106298 306.901283,50.0689067 M351.986708,131.081028 C351.598598,127.28286 350.039524,127.28286 350.039524,127.28286 C350.039524,127.28286 349.452384,127.87 348.482109,128.352649 C347.506859,128.84525 339.666709,133.008309 337.775917,133.898971 C330.376952,137.40357 305.098397,144.475793 302.33187,145.295136 C270.881705,154.641285 260.072681,160.996998 256.271195,163.212873 C233.394277,176.556222 224.469409,190.486711 222.290023,193.102306 C211.09123,206.633075 206.11878,225.827926 203.30913,229.616143 C200.399965,233.520461 198.348291,230.694226 197.56212,229.521603 C196.789217,228.348981 192.931339,218.720872 192.204877,217.055648 C185.393052,201.284125 176.703704,191.282834 174.101378,188.328887 C160.076349,172.464483 147.237212,165.592948 142.06739,162.531193 C132.22864,156.691301 109.786272,150.398615 106.432605,149.574296 C99.22106,147.827802 85.4448197,143.548642 81.7030429,142.376019 C63.8798454,136.829698 50.7355275,128.737442 50.3490762,128.447189 C49.9510149,128.15196 49.1764538,127.96454 48.7900025,128.550022 C48.4035513,129.135503 48.0038314,131.658217 47.8180694,133.323441 C47.6173801,134.977054 46.8560878,140.710796 46.645447,144.802535 C45.0863733,176.063621 49.1316719,190.227971 50.2445851,195.341401 C57.3615905,227.76184 70.7646483,245.186976 72.3469423,247.437682 C91.3427622,274.49922 119.495652,283.704389 125.217784,285.510592 C153.067152,294.269601 194.445631,294.107059 197.764467,294.17672 C242.355633,294.951281 265.37519,287.354943 269.32429,286.285154 C294.843341,279.367179 313.062941,263.313696 314.600453,261.942043 C329.700247,248.502496 336.8554,232.5817 338.261884,229.707365 C348.488744,208.87217 351.183951,188.420109 351.993342,183.95187 C356.559438,158.729707 352.174128,132.922062 351.986708,131.081028" id="mazda" fill="#FFFFFF"></path>
</svg>