<?xml version="1.0" encoding="UTF-8"?>
<svg width="400px" height="211px" viewBox="0 0 400 211" version="1.1" xmlns="http://www.w3.org/2000/svg">
    <title>mclaren</title>
    <path d="M341.227719,115.434636 L341.16411,115.500071 C310.990998,142.292153 267.767594,173.873241 209.327376,210.263928 L210.36235,208.888299 C209.625545,209.346083 208.886341,209.804626 208.144735,210.263928 C209.12615,208.963873 210.085586,207.674257 211.023154,206.395073 L210.510016,206.716007 C213.71847,202.480848 216.685521,198.357106 219.415033,194.344724 C230.055154,178.178026 236.866769,163.863835 240.110397,151.383915 C250.876023,108.489549 218.648062,87.2028356 154.539696,87.2301826 C137.855811,87.2681124 119.008896,88.739518 98.1839212,91.6399938 C80.9559492,94.1034467 62.3777964,97.5455181 42.5593199,101.957723 C31.1592657,104.495712 19.3487474,107.354744 7.14802845,110.533395 L1.18264054,112.104763 L2.298,111.501917 L0,112.104763 C12.8334684,105.117653 25.6000753,98.461029 38.2592053,92.1352756 C295.213367,-36.3452086 507.069294,-29.6267441 341.227719,115.434636 Z" id="mclaren" fill="#FFFFFF"></path>
</svg>