<?xml version="1.0" encoding="UTF-8"?>
<svg width="400px" height="40px" viewBox="0 0 400 40" version="1.1" xmlns="http://www.w3.org/2000/svg">
    <title>mercedes-amg</title>
    <path d="M1.08611183,39.5377979 C0.143414544,39.5377979 -0.26776193,38.6352153 0.183529322,37.8078481 L27.4916644,2.44416408 C28.1435296,1.60426092 29.0787053,0.909773823 30.0239098,0.909773823 L62.0605744,0.909773823 C63.3317114,0.909773823 63.7905242,1.94523653 62.8127265,3.20885204 L36.5225038,37.2512555 C35.5522276,38.5198854 34.1732821,39.5377979 32.9021451,39.5377979 L1.08611183,39.5377979 M42.0959508,39.5377979 C41.1507463,39.5377979 40.7495986,38.6352153 41.1933683,37.8078481 L68.4964891,2.44416408 C69.1483542,1.60426092 70.0885443,0.909773823 71.0287344,0.909773823 L85.6530782,0.909773823 C86.9192009,0.909773823 87.3805208,1.94523653 86.4027231,3.20885204 L60.1125005,37.2512555 C59.1271812,38.5198854 57.7607716,39.5377979 56.4946489,39.5377979 L42.0959508,39.5377979 Z M67.0573714,39.5377979 C66.1046454,39.5377979 65.7009905,38.6352153 66.1547889,37.8078481 L93.4579097,2.44416408 C94.0997461,1.60426092 95.0424434,0.909773823 95.990155,0.909773823 L106.893853,0.909773823 C108.162483,0.909773823 108.623803,1.94523653 107.646005,3.20885204 L81.3532754,37.2512555 C80.3829992,38.5198854 79.0040537,39.5377979 77.7504669,39.5377979 L67.0573714,39.5377979 Z M97.0281249,39.5377979 C98.2967548,39.5377979 99.6656716,38.5198854 100.630933,37.2512555 L126.931185,3.20885204 C127.906475,1.94523653 127.445155,0.909773823 126.179033,0.909773823 L118.707655,0.909773823 C117.769972,0.909773823 116.827275,1.60426092 116.187946,2.44416408 L88.8697819,37.8078481 C88.4285194,38.6352153 88.8447102,39.5377979 89.7849003,39.5377979 L97.0281249,39.5377979 Z M115.375621,39.5377979 C116.629208,39.5377979 118.008154,38.5198854 118.980937,37.2512555 L145.278681,3.20885204 C146.248957,1.94523653 145.787638,0.909773823 144.519008,0.909773823 L139.268986,0.909773823 C138.326289,0.909773823 137.388606,1.60426092 136.749277,2.44416408 L109.431113,37.8078481 C108.98985,38.6352153 109.406041,39.5377979 110.333695,39.5377979 L115.375621,39.5377979 Z M141.156888,39.5377979 L128.520733,39.5377979 C127.578036,39.5377979 127.166859,38.6352153 127.610629,37.8078481 L154.923778,2.44416408 C155.563108,1.60426092 156.50079,0.909773823 157.451009,0.909773823 L216.169016,0.909773823 C217.748535,0.909773823 218.726333,2.22102563 218.726333,3.80054501 L218.726333,37.243734 C218.722213,38.5080226 217.699059,39.5322957 216.434776,39.5377979 L206.656799,39.5377979 C205.392671,39.5309461 204.369587,38.5078615 204.362735,37.243734 L204.362735,32.3898458 C204.362735,31.0284506 204.237376,30.4894082 202.870967,30.4894082 L151.463879,30.4894082 C150.511153,30.4894082 149.844244,31.1713595 149.169815,31.9886981 L149.019384,32.189272 L145.105686,37.258777 C144.11786,38.5299141 142.753957,39.5478265 141.487835,39.5478265 L141.154381,39.5478265 L141.156888,39.5377979 Z M166.509428,10.6651864 C165.882634,10.6651864 165.298463,11.1315207 164.859707,11.6931276 L158.829955,19.4954519 C158.396214,20.059566 158.679524,20.5208859 159.323868,20.5208859 L202.870967,20.5208859 C204.247405,20.5208859 204.355213,19.9893651 204.362922,18.6279698 L204.362922,13.2124748 C204.362922,11.3596735 204.412878,10.6651864 202.870967,10.6651864 L166.509428,10.6651864 Z M276.734809,27.8318042 C275.661738,28.5037267 274.902065,29.1781564 273.648478,29.1781564 L263.93318,29.1781564 C262.679593,29.1781564 261.914905,28.5037267 260.84685,27.8318042 L242.13832,15.9929303 C241.072771,15.3210078 240.190246,15.7923565 240.190246,17.0584791 L240.190246,37.243734 C240.190246,38.5107105 239.163159,39.5377979 237.896182,39.5377979 L228.110683,39.5377979 C226.844851,39.53504 225.819377,38.5095664 225.81662,37.243734 L225.81662,3.20634486 C225.81662,1.94523653 226.852082,0.912280997 228.110683,0.912280997 L238.590669,0.912280997 C239.844256,0.912280997 240.596408,1.46135202 241.666971,2.14079607 L267.187492,18.6680846 C268.245519,19.3450215 269.301039,19.3450215 270.361573,18.6680846 L295.882094,2.15082477 C296.95015,1.46887354 297.707316,0.922309692 298.968424,0.922309692 L309.440889,0.922309692 C310.694476,0.922309692 311.722417,1.95526522 311.722417,3.21637356 L311.722417,37.2537627 C311.722417,38.5198854 310.694476,39.5478265 309.440889,39.5478265 L299.662912,39.5478265 C298.393891,39.5478265 297.363209,38.5227642 297.356312,37.2537627 L297.356312,17.0685078 C297.356312,15.8023852 296.48883,15.3310365 295.420774,16.002959 L276.797488,27.7992109 L276.747345,27.8242827 M400,18.4123529 C399.993126,17.1490489 398.969252,16.1274132 397.705936,16.1233034 L360.005566,16.1233034 C358.74338,16.1301268 357.721088,17.150184 357.711502,18.4123529 L357.711502,21.6390853 C357.711502,22.9027009 358.75198,23.9908142 360.005566,23.9908142 L383.708386,23.9908142 C385.295427,23.9908142 385.217704,24.6853013 385.217704,26.5355954 L385.217704,26.9292217 C385.217704,28.76698 385.29292,29.1706349 383.728443,29.1706349 L335.470365,29.1706349 C334.863729,29.169309 334.282541,28.9267067 333.854997,28.4963406 C333.427453,28.0659744 333.188679,27.4832026 333.191344,26.876571 L333.191344,12.9216427 C333.191344,11.6655487 334.204243,10.630086 335.470365,10.630086 L397.705936,10.630086 C398.967044,10.630086 400,9.60214478 400,8.34354362 L400,3.19882334 C399.993148,1.93469584 398.970064,0.911611266 397.705936,0.904759476 L321.119303,0.904759476 C319.855999,0.911633634 318.834364,1.93550736 318.830254,3.19882334 L318.830254,37.2387196 C318.830254,38.5048423 319.858195,39.5327835 321.119303,39.5327835 L397.705936,39.5327835 C398.967044,39.5327835 400,38.5048423 400,37.2387196 L400,18.0212338" id="mercedes-amg" fill="#FFFFFF"></path>
</svg>