<?xml version="1.0" encoding="UTF-8"?>
<svg width="400px" height="400px" viewBox="0 0 400 400" version="1.1" xmlns="http://www.w3.org/2000/svg">
    <title>mercedes-benz</title>
    <path d="M200,0 C310,0 400,90 400,200 C400,310 310,400 200,400 C90,400 0,310 0,200 C0,90 90,0 200,0 Z M199.08,226.369 L199.04,226.386 L199.375,233.75 L199.349,233.76 L199.375,234.375 L59.469,290.709 L59.1997115,290.818057 C65.5185416,300.605458 72.8925479,309.767548 81.25,318.125 C113.125,350 155.625,367.5 200,367.5 C244.375,367.5 286.875,350 318.125,318.75 C326.849915,310.025085 334.450967,300.550928 340.889704,290.481343 L249.375,253.75 L249.354175,253.738045 C249.289432,253.700791 249.075011,253.576801 248.728885,253.370697 L200,233.75 L200.309,226.633 L200.282,226.622 L200,233.125 L199.375,233.125 L199.08,226.369 Z M206.988817,33.8901271 L226.25,165 L228.75,183.125 C228.635321,183.193807 228.516644,183.264508 228.394151,183.337015 C228.392497,183.337058 228.398718,183.341989 228.405043,183.347004 L228.75,183.125 L348.256,277.735 L348.463027,277.338143 C360.595813,253.83225 366.875,227.69375 366.875,200.625 C366.875,156.25 349.375,113.75 318.125,82.5 C287.928621,52.3036214 248.757762,35.5689641 206.988817,33.8901271 Z M81.875,82.5 C50,113.125 32.5,155.625 32.5,200 C32.5,227.259697 39.1039437,253.811829 51.442512,277.483097 L170.625,183.75 L192.38469,33.9220052 C150.786708,35.8027116 111.33261,53.0423905 81.875,82.5 Z" id="mercedes-benz" fill="#FFFFFF"></path>
</svg>