<?xml version="1.0" encoding="UTF-8"?>
<svg width="400px" height="400px" viewBox="0 0 400 400" version="1.1" xmlns="http://www.w3.org/2000/svg">
    <title>mg</title>
    <path d="M288.180365,0 L400,112.728303 L400,286.363029 L286.363029,400 L112.728303,400 L0,286.816294 L0,113.634833 L113.636971,0 L288.180365,0 Z M272.724454,34.9997595 L129.090744,34.9997595 L34.5464944,129.090744 L34.5464944,271.364659 L129.090744,365.455644 L270.909256,365.455644 L365.455644,270.909256 L365.455644,128.182076 L272.724454,34.9997595 Z M191.889335,57.2696125 L191.889335,341.815305 L153.708168,341.815305 L153.708168,154.997408 L119.619215,244.08751 L89.618199,177.269399 L89.618199,294.54318 L55.0717046,259.543421 L55.0717046,139.088232 L90.9822703,105.450405 L115.073736,154.542005 L151.437566,57.2696125 L191.889335,57.2696125 Z M263.133195,57.2696125 L344.951814,140.450165 L344.951814,172.268517 L310.405319,172.268517 L310.405319,158.63208 L256.77038,102.724401 L256.77038,296.360517 C256.77038,296.360517 276.167435,277.347373 290.99309,262.540327 L293.014302,260.519283 C300.080208,253.445152 305.770043,247.650173 307.223912,245.904846 C311.771529,240.452837 311.318264,233.177078 304.95331,234.087884 L281.317248,234.087884 L281.317248,199.54139 L344.953952,199.54139 L344.953952,259.543421 L262.226665,341.815305 L218.589213,341.815305 L218.589213,57.2696125 L263.133195,57.2696125 Z" id="mg" fill="#FFFFFF"></path>
</svg>