<?xml version="1.0" encoding="UTF-8"?>
<svg width="400px" height="169px" viewBox="0 0 400 169" version="1.1" xmlns="http://www.w3.org/2000/svg">
    <title>mini</title>
    <g id="mini" transform="translate(0, 0.314)" fill-rule="nonzero">
        <path d="M273.889792,42.1037081 C258.679273,16.1264589 230.521495,0 200.218644,0 C169.915793,0 141.758014,16.1264589 126.547496,42.1037081 L0,42.1037081 L1.11094696,43.6637613 C1.50096026,44.2133255 41.0754912,99.2288373 103.388979,139.642488 L103.637169,139.796129 L136.599202,139.796129 C152.802482,157.819471 175.94918,168.160733 200.224553,168.160733 C224.499926,168.160733 247.652534,157.819471 263.855813,139.796129 L296.36874,139.796129 L296.61693,139.642488 C358.930418,99.2288373 398.49313,44.2074162 398.889053,43.6637613 L400,42.1037081 L273.889792,42.1037081 Z" id="Path" fill="#000000"></path>
        <path d="M385.977249,56.8237554 L279.645442,56.8237554 C281.300044,61.5216428 282.523268,66.4145369 283.303294,71.449254 L286.104299,71.449254 C285.386086,67.691708 284.404695,63.9892802 283.167381,60.3693308 C283.167381,60.3693308 372.994534,58.2597134 385.782243,57.0660363 C378.011834,66.3313979 369.857781,75.2681287 361.341409,83.8528586 L284.366967,83.8528586 L284.378786,84.0774117 C284.378786,89.0057616 283.858768,93.7981977 283.025558,98.4842665 L287.037967,98.4842665 C287.528438,94.9268725 287.888905,91.3222042 287.888905,87.6288964 L287.882996,87.4043433 C287.882996,87.4043433 349.877382,85.3951839 361.028217,84.1660511 C351.601506,93.6737062 341.740184,102.740365 331.475846,111.336977 L279.645442,111.336977 C277.854133,116.423616 275.568107,121.322245 272.82021,125.962476 L278.215394,125.962476 C280.088639,122.393263 281.814153,118.735411 283.167381,114.882553 C283.167381,114.882553 321.489142,113.015216 330.961737,111.762446 C319.752112,121.135 307.999819,129.838721 295.765992,137.828335 L262.993057,137.828335 L262.697592,138.153346 C246.826289,155.988194 224.089944,166.190573 200.215689,166.190573 C176.341434,166.190573 153.605089,155.988194 137.733786,138.153346 L137.438322,137.828335 L104.21628,137.828335 C91.9779191,129.83283 80.2198397,121.125261 69.0028069,111.750628 C78.8535973,112.991579 120.608657,114.882553 120.608657,114.882553 C122.440538,118.788595 125.064264,122.440538 127.422071,125.962476 L127.611169,125.962476 C124.860256,121.322993 122.5722,116.424259 120.780027,111.336977 L68.5123356,111.336977 C58.2465634,102.741999 48.3851668,93.6752724 38.9599645,84.1660511 C50.3530802,85.4129118 114.965283,87.5579849 114.965283,87.6288964 C114.965283,91.1153789 116.265327,94.5309499 117.317181,97.887428 C116.502352,93.3286083 116.079278,88.7084021 116.052593,84.0774117 L116.064411,83.8528586 L38.6585906,83.8528586 C30.0859775,75.203934 21.8767859,66.2022123 14.0522972,56.8710297 L118.41631,60.3693308 C117.849018,63.8794504 117.535825,67.6377604 117.098537,71.449254 L117.133993,71.449254 C117.91402,66.4145369 119.131334,61.5216428 120.785936,56.8237554 L14.0168415,56.8237554 C10.5203099,52.6653348 7.13698574,48.4130264 3.8705865,44.0715024 L127.640715,44.0715024 L127.924361,43.5810312 C142.709411,17.9169744 170.412173,1.97370365 200.212735,1.97370365 C230.013296,1.97370365 257.716059,17.9169744 272.507017,43.5810312 L272.790663,44.0715024 L396.123504,44.0715024 C392.86101,48.4160464 389.477601,52.6684611 385.977249,56.8237554 L385.977249,56.8237554 Z" id="Path" fill="#FFFFFF"></path>
        <path d="M200.218644,11.6235781 C159.692717,11.6235781 126.837051,44.0596839 126.837051,84.083321 C126.837051,124.09514 159.692717,156.543064 200.218644,156.543064 C240.744571,156.543064 273.606146,124.09514 273.606146,84.083321 C273.606146,44.0596839 240.744571,11.6235781 200.218644,11.6235781 L200.218644,11.6235781 Z" id="Path" fill="#000000"></path>
        <path d="M200.218644,152.105185 C162.16871,152.105185 131.322204,121.648693 131.322204,84.0774117 C131.322204,46.5061309 162.16871,16.0496381 200.218644,16.0496381 C238.268577,16.0496381 269.109174,46.5061309 269.109174,84.0774117 C269.109174,121.648693 238.268577,152.105185 200.218644,152.105185 Z" id="Path" fill="#FFFFFF"></path>
        <path d="M265.079037,84.083321 C265.079037,119.450436 236.040774,148.122322 200.218644,148.122322 C164.396514,148.122322 135.358251,119.450436 135.358251,84.083321 C135.358251,48.7162062 164.396514,20.0443197 200.218644,20.0443197 C236.040774,20.0443197 265.079037,48.7162062 265.079037,84.083321 Z" id="Path" fill="#000000"></path>
        <path d="M247.126607,66.5918156 L255.801448,66.5918156 L255.801448,102.668046 L247.126607,102.668046 L247.126607,66.5918156 L247.126607,66.5918156 Z M191.348796,66.5918156 L200.023637,66.5918156 L200.023637,102.668046 L191.348796,102.668046 L191.348796,66.5918156 L191.348796,66.5918156 Z M231.750628,66.5918156 L231.750628,88.4739252 L215.884178,66.5918156 L207.705717,66.5918156 L207.705717,102.668046 L215.884178,102.668046 L215.884178,80.7859359 L231.750628,102.668046 L239.934998,102.668046 L239.934998,66.5918156 L231.750628,66.5918156 L231.750628,66.5918156 Z M172.870439,66.5918156 L163.344659,89.1003102 L153.81888,66.5918156 L143.914906,66.5918156 L143.914906,102.668046 L152.099276,102.668046 L152.099276,82.2337125 L160.567292,102.597134 L160.596839,102.668046 L165.76156,102.668046 L165.797016,102.603043 L175.086423,80.2659182 L175.086423,102.668046 L183.264884,102.668046 L183.264884,66.5918156 L172.870439,66.5918156 L172.870439,66.5918156 Z" id="Shape" fill="#FFFFFF"></path>
    </g>
</svg>