<?xml version="1.0" encoding="UTF-8"?>
<svg width="400px" height="269px" viewBox="0 0 400 269" version="1.1" xmlns="http://www.w3.org/2000/svg">
    <title>nissan</title>
    <path d="M198.344881,0.0639297315 C227.392788,0.0639297315 254.56185,9.1431129 277.130823,25.0916102 C299.375621,40.8140981 317.148173,63.20272 327.85508,90.1434896 L380.437636,90.1434896 C385.877841,90.1434896 390.795256,92.5999143 394.340635,96.531107 C397.831224,100.398378 400,105.724436 400,111.534474 L400,171.589036 C400,177.371679 397.858619,182.451182 394.397708,186.110707 C390.779822,189.96714 385.725464,192.151713 380.437636,192.144471 L320.698118,192.144471 C310.86557,215.206555 293.901172,234.280374 272.631182,247.644603 C251.055281,261.196031 225.023115,268.878066 197.51618,268.878066 C169.96587,268.878066 144.474757,261.200597 123.280103,247.886592 C101.797802,234.39452 84.7169747,215.106107 74.354789,192.146754 L19.5623637,192.146754 C14.2735729,192.155452 9.2179545,189.970691 5.60000913,186.11299 C2.14366432,182.451182 0,177.373962 0,171.591319 L0,111.534474 C0,105.726719 2.16877647,100.400661 5.6570822,96.531107 C9.20246099,92.5999143 14.1221592,90.1434896 19.5623637,90.1434896 L68.8506626,90.1434896 C79.6443207,63.3716563 97.4260048,40.8232298 119.837456,24.9843128 C142.187268,9.19105428 169.134886,0.0639297315 198.344881,0.0639297315 Z M313.728355,192.977738 L81.4158686,192.977738 C91.3876745,213.341408 107.037109,230.495288 126.478478,242.706641 C146.762245,255.445349 171.15299,262.794077 197.51618,262.794077 C223.856541,262.794077 248.776924,255.436217 269.435091,242.462368 C288.693826,230.369727 304.226831,213.400764 313.728355,192.977738 Z M380.435353,96.2251954 L19.5623637,96.2251954 C15.9188193,96.2251954 12.5766206,97.9236898 10.1270446,100.640368 C7.59528348,103.44608 6.02234981,107.31335 6.02234981,111.534474 L6.02234981,171.589036 C6.02234981,175.714277 7.53592749,179.325861 9.97637175,181.907846 C12.4595453,184.560336 15.9312118,186.064725 19.5646467,186.062767 L380.437636,186.062767 C384.070221,186.063819 387.540836,184.559527 390.023628,181.907846 C392.466355,179.325861 393.97765,175.714277 393.97765,171.589036 L393.97765,111.534474 C393.97765,107.31335 392.404717,103.448362 389.870672,100.640368 C387.423379,97.9236898 384.078898,96.2251954 380.435353,96.2251954 Z M173.513532,114.036557 L173.513532,127.382523 L139.580171,127.382523 L139.580171,134.888772 L167.719474,134.888772 C167.719474,134.888772 177.652471,138.224122 177.652471,148.234738 L177.652762,150.740813 C177.654838,150.770002 177.667369,150.958271 177.669195,151.273635 L177.669001,151.458064 C177.649882,153.948949 176.936039,162.229155 168.548175,165.74932 L123.853117,165.74932 L123.853117,153.241187 L162.754118,153.241187 L162.754118,146.565922 L134.609108,146.565619 C134.399875,146.546651 124.661738,145.59811 123.024416,133.219956 L123.024183,130.713892 C123.022983,130.692726 123.017486,130.58764 123.015745,130.410593 L123.015796,130.181687 C123.040097,127.658994 123.884347,116.971665 136.26765,114.036557 L173.513532,114.036557 Z M233.109226,114.036557 L233.109226,127.382523 L199.171299,127.382523 L199.171299,134.888772 L227.310603,134.888772 C227.310603,134.888772 237.245882,138.224122 237.245882,148.234738 L237.245882,150.736821 C237.245882,150.736821 237.260655,150.929601 237.262712,151.273635 L237.262553,151.458064 C237.243893,153.948949 236.531378,162.229155 228.141587,165.74932 L183.446528,165.74932 L183.446528,153.241187 L222.345246,153.241187 L222.345246,146.565922 L194.202521,146.565619 C193.993335,146.546651 184.257408,145.59811 182.617827,133.219956 L182.617595,130.713892 C182.602789,130.451955 181.932106,117.338554 195.861061,114.036557 L233.109226,114.036557 Z M51.0164713,114.036557 L70.0537628,150.734538 L70.0537628,114.036557 L83.2969968,114.036557 L83.2969968,165.747037 L59.2943486,165.747037 L40.2570571,131.55114 L40.2570571,165.747037 L24.5322862,165.747037 L24.5322862,114.036557 L51.0164713,114.036557 Z M113.093703,114.036557 L113.093703,165.747037 L94.882829,165.747037 L94.882829,114.036557 L113.093703,114.036557 Z M281.940941,114.036557 L306.774573,165.747037 L290.218818,165.747037 L285.251179,156.574254 L258.764711,156.574254 L254.628055,165.747037 L238.076866,165.747037 L261.24853,114.036557 L281.940941,114.036557 Z M338.221832,114.036557 L355.601721,149.901271 L355.601721,114.036557 L371.333341,114.036557 L371.333341,165.747037 L346.501992,165.747037 L326.638282,130.717873 L326.638282,165.747037 L310.911229,165.747037 L310.911229,114.036557 L338.221832,114.036557 Z M272.007945,128.21579 L264.561051,143.230572 L279.459404,143.230572 L272.007945,128.21579 Z M198.347164,6.14563553 C170.413323,6.14563553 144.643693,14.8709657 123.273254,29.9724987 C102.446152,44.6905007 85.7876654,65.474228 75.3615579,90.1434896 L321.346468,90.1434896 C310.99798,65.3235551 294.362323,44.6836519 273.69959,30.082079 C252.114557,14.8275902 226.132615,6.14563553 198.347164,6.14563553 Z" id="nissan" fill="#FFFFFF"></path>
</svg>