<?xml version="1.0" encoding="UTF-8"?>
<svg width="400px" height="306px" viewBox="0 0 400 306" version="1.1" xmlns="http://www.w3.org/2000/svg">
    <title>opel</title>
    <path d="M200,0 C284.284316,0 352.711837,68.4275212 352.711837,152.709561 C352.711837,155.217698 352.711837,157.43906 352.436443,159.942645 L400,161.888613 L400,189.15265 L348.542231,189.707991 C331.850149,256.187268 271.768669,305.703621 200,305.703621 C115.438014,305.703621 47.0104923,237.273824 47.0104923,152.709561 C47.0104923,150.763593 47.0104923,148.817625 47.2881626,146.591711 L0,144.645743 L0,117.106311 L51.4600451,116.550971 C67.8721806,49.7917473 128.233607,0 200,0 Z M64.8109794,147.426998 L64.8109794,152.709561 C64.8109794,227.257209 125.452352,288.176252 199.997724,288.176252 C262.029724,288.176252 314.32278,246.452876 330.179575,189.707991 L113.209823,192.211576 L165.507431,151.876551 L64.8109794,147.426998 Z M200,17.5228168 C137.970276,17.5228168 85.6749437,59.2484694 69.8204247,116.550971 L288.178528,114.047386 L234.492569,154.937752 L335.186745,159.387305 L335.186745,152.709561 C335.186745,78.1641896 274.549924,17.5228168 200,17.5228168 Z" id="opel" fill="#FFFFFF"></path>
</svg>