<?xml version="1.0" encoding="UTF-8"?>
<svg width="400px" height="441px" viewBox="0 0 400 441" version="1.1" xmlns="http://www.w3.org/2000/svg">
    <title>peugeot</title>
    <path d="M202.249531,0.294112984 C222.655466,0.307568993 236.748416,0.480038142 236.620345,0.69349006 C236.131184,1.4494656 237.776543,1.6273422 247.82657,1.8941571 C249.737354,1.94001591 251.910871,2.01740265 254.099659,2.11367331 L255.29357,2.16798137 C259.069665,2.34540605 262.757087,2.57231163 265.0806,2.78354009 C265.591278,2.82944373 266.114543,2.8738666 266.642464,2.91642658 L267.436849,2.97882162 C270.753078,3.23258132 274.096362,3.40610818 275.53085,3.40610818 C277.354086,3.40610818 281.31184,3.71739223 284.380211,4.07314542 C284.928135,4.13667278 285.493074,4.19878212 286.059078,4.25795412 L286.737771,4.32745337 C289.107838,4.56508539 291.384102,4.74018267 292.384658,4.74018267 C293.442717,4.74018267 296.06719,4.9359844 298.749536,5.19448128 L299.449599,5.26324992 C299.91586,5.30992712 300.379905,5.3581505 300.833797,5.40721991 C304.124514,5.76297311 308.927182,6.2966029 311.506392,6.5634178 C314.085603,6.87470184 317.865481,7.23045504 319.955531,7.40833164 C322.045581,7.58620824 325.558644,7.98643058 327.737632,8.25324548 C329.008179,8.43112208 330.91763,8.68160137 332.868568,8.9300063 L333.844729,9.05369017 C334.981162,9.19697965 336.097832,9.33532812 337.076153,9.45391252 C340.011117,9.80966571 343.835464,10.2988264 345.525292,10.5656413 C347.259589,10.8324562 350.061145,11.2326785 351.750973,11.4105551 C353.48527,11.5884317 356.375764,11.988654 358.198999,12.2999381 C372.746088,14.5498878 377.107326,15.2431959 379.932082,15.7377837 L380.136155,15.7736381 C380.236946,15.7914077 380.335963,15.8089557 380.433629,15.8263484 L380.627286,15.8609468 C380.723339,15.8781623 380.818324,15.8952669 380.912665,15.9123272 L381.100611,15.9464083 C382.568093,16.2132232 384.880489,16.5689764 386.214564,16.746853 C387.548638,16.9247296 389.949972,17.2804828 391.550862,17.5917669 C393.151751,17.9030509 395.241801,18.3032733 396.220122,18.4366807 C397.998888,18.7479648 397.998888,18.7479648 398.310172,21.193768 C398.44358,22.5278425 398.576987,25.1959914 398.621456,27.0636957 C398.665926,30.6656968 398.97721,31.9997713 399.599778,31.599549 C399.81323,31.4714778 399.985699,50.5233422 399.999155,78.1324086 L399.999947,80.7455043 L400,81.6273422 C400,82.0275645 399.999987,82.4248075 399.99996,82.8190904 L399.999351,86.2882441 C399.988901,122.451302 399.850584,131.873924 399.46637,131.788543 C398.799333,131.699605 398.354641,135.301606 398.265703,141.038126 C398.251202,142.350449 398.135038,144.292848 397.941689,146.668345 L397.86029,147.641175 C396.792804,160.078608 393.877275,182.686868 392.17343,190.843573 C391.817676,192.533401 391.550862,194.445575 391.550862,194.979204 C391.550862,195.557303 391.284047,197.247131 390.928293,198.759082 C390.57254,200.271033 389.949972,203.117059 389.54975,205.073701 C388.564587,209.862687 387.933073,212.765549 387.251037,215.60623 L387.079242,216.316161 C386.703724,217.856111 386.303502,219.422414 385.814341,221.304941 C385.503057,222.41667 385.102835,224.106497 384.880489,225.084819 C384.613674,226.06314 384.035575,228.242128 383.501946,229.976425 C383.012785,231.666253 382.434686,233.800772 382.256809,234.645686 C382.034464,235.4906 381.67871,236.691267 381.456365,237.313835 C381.18955,237.936403 380.65592,239.62623 380.211228,241.093712 C379.811006,242.561194 379.188438,244.473368 378.877154,245.318282 C377.712349,248.611868 377.309397,249.837569 376.980172,250.961456 L376.910501,251.201447 L376.876042,251.321617 C376.653696,252.033123 376.075598,253.76742 375.541968,255.101495 C375.008338,256.435569 374.430239,258.036458 374.207893,258.659026 C374.030017,259.281595 373.674263,260.259916 373.407449,260.882484 C373.185103,261.505052 372.607004,262.883596 372.206782,263.995324 C371.76209,265.107053 371.139522,266.663473 370.828238,267.419449 C370.472485,268.219894 369.894386,269.598437 369.538633,270.443351 C366.470261,277.780761 364.380211,282.316614 360.644803,289.787431 C358.198999,294.634568 356.331295,298.147631 354.063369,302.238793 C353.752084,302.861361 352.907171,304.328843 352.240133,305.573979 C352.062257,305.894157 351.865407,306.242795 351.663075,306.596282 L351.357154,307.127198 C350.897165,307.920172 350.44358,308.677926 350.150083,309.131511 C349.705392,309.843018 349.127293,310.865808 348.860478,311.354969 C347.74344,313.457629 344.360941,318.677994 340.732092,324.040534 L340.070036,325.016446 C336.529388,330.222598 332.872159,335.392867 330.939411,337.814113 C330.628127,338.169866 329.116176,340.170978 327.515286,342.261028 C325.958866,344.351078 324.446915,346.218782 324.1801,346.485597 C323.913285,346.707943 322.979433,347.819671 322.178988,348.9314 C321.334074,350.043129 320.355753,351.243796 320,351.644018 C319.599778,352.04424 318.888271,352.844685 318.399111,353.422784 C307.637576,366.052023 289.13841,384.195436 276.820456,394.023118 C273.085047,397.002551 259.255142,407.452801 257.031684,408.964752 C255.831017,409.765197 252.673708,411.899716 250.094497,413.634013 C247.470817,415.412779 245.069483,416.969199 244.758199,417.147075 C244.402446,417.280483 243.557532,417.814113 242.801556,418.303273 C242.09005,418.792434 241.156198,419.326064 240.800445,419.50394 C240.444691,419.681817 239.421901,420.304385 238.576987,420.882484 C237.732073,421.460583 236.620345,422.12762 236.131184,422.349966 C235.642023,422.572312 234.663702,423.150411 233.907727,423.595102 C233.19622,424.084263 231.684269,424.973646 230.57254,425.551745 C229.460812,426.174313 227.281823,427.37498 225.680934,428.264363 C222.612563,429.95419 210.072262,436.179871 205.225125,438.403329 C203.624236,439.114835 201.978877,439.91528 201.578655,440.137626 C200.555864,440.671255 198.777098,440.671255 197.754308,440.137626 C197.706281,440.110944 197.635842,440.074017 197.54568,440.02815 L197.339855,439.924885 C196.571429,439.543518 195.006115,438.803551 193.4408,438.092045 C188.460256,435.779649 174.63035,428.842462 172.762646,427.730733 C171.917732,427.197103 170.628127,426.485597 169.872151,426.129844 C169.160645,425.77409 167.559755,424.840238 166.314619,424.128732 C166.173364,424.039794 166.029032,423.95024 165.883505,423.861012 L165.445222,423.595247 C164.496,423.02562 163.575843,422.509532 163.201779,422.305497 C162.712618,422.038682 161.734297,421.460583 160.978321,420.971422 C160.266815,420.482262 159.244024,419.904163 158.754864,419.637348 C157.554197,419.01478 156.620345,418.392212 153.418566,416.302162 C151.951084,415.32384 150.394664,414.345519 149.994441,414.078704 C148.560053,413.23379 144.156356,410.174919 139.610716,406.9315 L138.892216,406.418144 C133.380993,402.47519 127.87983,398.418324 127.404113,397.847464 C127.270706,397.714057 125.803224,396.51339 124.068927,395.179316 C122.887715,394.250096 122.102538,393.633241 121.341996,393.018593 L120.939617,392.691694 C119.682231,391.664709 118.313878,390.495232 115.175097,387.797437 C103.079489,377.391656 87.1150639,361.071478 77.5541968,349.376092 C76.6648138,348.264363 74.930517,346.174313 73.7298499,344.706831 C72.6598538,343.400806 71.0497758,341.331985 69.415799,339.189926 L68.563836,338.069312 C65.8762824,334.522627 63.3685381,331.103376 63.3685381,330.921394 C63.3685381,330.743518 62.5236242,329.498382 61.4563646,328.119838 C60.4128219,326.720542 58.8000741,324.38522 57.1847965,321.950392 L56.5800556,321.034302 C55.3747638,319.199327 54.2078933,317.367198 53.3185103,315.890822 C52.6070039,314.690155 51.6731518,313.178204 51.2729294,312.555636 C50.8282379,311.888598 50.2946081,310.954746 50.0277932,310.465586 C49.7609783,309.976425 49.1828794,308.953635 48.7381879,308.242128 C48.2490272,307.486153 47.3596442,306.018671 46.7815453,304.906942 C46.5899859,304.564872 46.3731659,304.17649 46.1505165,303.778069 L45.8145994,303.177442 C45.4232628,302.478505 45.0438278,301.804364 44.7804336,301.34941 C44.2102538,300.38449 41.7042265,295.450543 39.1290143,290.296892 L38.6994917,289.436559 C36.1939407,284.413582 33.721017,279.379823 32.9961089,277.780761 C32.3735409,276.446686 31.1728738,273.511722 30.2390217,271.332734 L30.0333139,270.821187 C29.2099161,268.78431 28.3952623,266.896081 28.1489717,266.485597 C27.8821568,265.996436 27.5264036,265.107053 27.348527,264.484485 C27.1261812,263.861917 26.5480823,262.216558 26.0144525,260.882484 C25.4808227,259.548409 24.9027237,257.94752 24.680378,257.324952 C24.4580322,256.702384 23.5686492,254.212112 22.6792663,251.766308 L22.4819148,251.220718 C21.8587999,249.489123 21.2617842,247.74611 20.9388084,246.720005 L20.8462146,246.420652 C20.7909439,246.238104 20.7489758,246.090727 20.7226237,245.985319 C20.5002779,245.229343 20.1445247,244.162084 19.922179,243.539516 C19.6553641,242.916948 19.1217343,241.22712 18.6770428,239.759638 C18.2323513,238.292156 17.6542524,236.202106 17.2984992,235.090377 C16.0088938,230.865808 14.8526959,226.418893 13.385214,220.504496 C13.0294608,219.125953 12.4513619,216.769088 12.0956087,215.301606 C11.0728182,211.254913 9.20511395,202.316614 8.04891606,196.179871 C7.69316287,194.223229 7.15953307,191.421672 6.89271818,189.95419 C6.62590328,188.486709 6.22568093,185.996436 6.00333519,184.395547 C5.82545859,182.794657 5.42523624,179.993101 5.1139522,178.169866 C4.97269725,177.204624 4.75666027,175.790689 4.53182541,174.330566 L4.38135622,173.354725 C4.23103185,172.380875 4.08331426,171.42625 3.95775431,170.61011 C3.94352418,170.517615 3.92943635,170.424763 3.91550221,170.331687 L3.83383266,169.771577 C3.54180767,167.715631 3.33518621,165.677592 3.33518621,165.051467 C3.33518621,164.295491 3.06837132,161.316058 2.66814897,158.381094 C2.26792663,155.131289 1.9253363,152.081755 1.63259767,149.008418 L1.53685381,147.982784 C0.315908838,134.630086 0.0148349083,120.362928 0.00054430239,86.9483833 L0.000532562535,81.9908899 C0.0179121734,43.9110643 0.459811006,20.0188931 1.20066704,19.103718 C1.42301278,18.7924339 2.57921067,18.4366807 3.69093941,18.3032733 C4.8471373,18.1698658 7.38187882,17.7696435 9.3385214,17.4583594 C17.25403,16.0798158 26.9038355,14.4789264 33.8854919,13.4116668 C38.8719659,12.6722931 41.8572017,12.2254592 44.5790629,11.8346511 L45.1390187,11.754516 C49.2261627,11.1715838 52.9829164,10.6800752 62.4791551,9.45391252 C65.2807115,9.09815932 70.3946637,8.47559123 73.8187882,8.07536888 C77.2429127,7.71961569 82.4458032,7.09704759 85.3807671,6.7412944 C88.315731,6.34107205 91.4285714,6.07425715 92.2734853,6.07425715 C93.1183991,6.07425715 96.6314619,5.76297311 100.055586,5.40721991 C113.040578,4.02867627 139.766537,2.20544114 152.529183,1.84968795 C161.289605,1.58287305 163.15731,1.3605273 162.712618,0.69349006 C162.584547,0.480038142 176.759462,0.307568993 197.093267,0.294112984 Z M225.013897,13.6340126 C199.132852,12.9669753 171.473041,13.3227285 148.971651,14.5678647 C143.857699,14.8346796 136.431351,15.234902 132.518066,15.4127786 C125.136187,15.7685317 116.420233,16.435569 108.060033,17.2360137 C105.391884,17.5028286 100.989439,17.9030509 98.2768205,18.0809275 C95.6086715,18.3032733 91.3841023,18.6590265 88.9382991,18.9703105 C87.5558885,19.1211189 85.4489419,19.3571669 83.2839336,19.5981563 L82.2830031,19.7094406 C80.9494037,19.8575079 79.6326462,20.0027682 78.4880489,20.1265084 C75.1973319,20.4822616 70.8838243,20.9714222 68.9271818,21.2382371 C66.9705392,21.505052 63.7687604,21.9052744 61.8121178,22.083151 C57.098388,22.5723116 51.5397443,23.3282872 47.1372985,24.1287319 C45.1806559,24.4844851 43.0016676,24.7513 42.2901612,24.7513 C41.6675931,24.7513 39.7512507,24.9896268 37.7923499,25.2875354 L37.2325868,25.374119 L36.9538633,25.4183372 C34.7304058,25.8185595 30.9949972,26.4411276 28.6826014,26.7968808 C26.3702057,27.152634 23.3463035,27.6417947 22.012229,27.9086096 C20.6781545,28.1754245 18.1878822,28.5311777 16.5425236,28.7535234 C14.8526959,28.9314 13.2518066,29.3316224 12.9849917,29.5984373 C12.6737076,29.9097213 12.2734853,34.8013277 11.9177321,42.894713 C11.6260145,49.2760359 11.4838021,62.8709887 11.4727059,77.5253358 L11.4723689,80.7567487 C11.4727588,81.4775502 11.4734575,82.199801 11.4744629,82.9227869 L11.4783968,85.093235 C11.5204269,103.910513 11.7683157,122.741739 12.184547,129.031456 C12.2161695,129.509746 12.248319,129.989705 12.2809566,130.470834 L12.3802942,131.917228 C12.3970814,132.158712 12.4139809,132.400363 12.4309878,132.642119 L12.5342782,134.093414 C13.1961158,143.286596 13.9988883,152.450886 14.6748193,158.158749 C15.0750417,161.22712 15.3418566,164.295491 15.3418566,165.006998 C15.3418566,165.594764 15.5542829,167.275008 15.803653,169.019904 L15.8834248,169.571874 C15.9102883,169.755782 15.9373565,169.939206 15.9644247,170.12095 C16.8093385,175.101495 17.5653141,179.904163 18.0100056,183.506164 C18.0463069,183.787499 18.0821452,184.056796 18.1187017,184.321094 L18.1629898,184.636302 C18.4764779,186.832275 18.8739776,188.874225 20.0555864,194.934735 C22.2790439,206.274368 23.790995,213.256025 25.3474152,218.859138 C25.3889198,219.019227 25.4359582,219.19908 25.4872658,219.394375 L25.6527305,220.022266 C25.9749243,221.242486 26.3879933,222.799104 26.6814897,223.97309 C27.0817121,225.573979 27.7042802,227.664029 28.0600334,228.642351 C28.4157865,229.665141 28.6826014,230.77687 28.6826014,231.177092 C28.6826014,231.621784 28.9494163,232.600105 29.3051695,233.40055 C29.6164536,234.200994 30.2390217,236.068699 30.6837132,237.53618 C31.0839355,239.003662 31.7065036,240.915836 32.0177877,241.76075 C33.1825925,245.054336 33.585545,246.280037 33.9147698,247.403924 L33.9844403,247.643915 L34.0188994,247.764085 C34.2412451,248.475591 34.8193441,250.209888 35.3529739,251.543963 C36.864925,255.412779 37.6209005,257.458359 37.9766537,258.703496 C38.1989994,259.326064 38.5547526,260.215447 38.8215675,260.704607 C39.0883824,261.149299 40.3335186,264.039794 41.5786548,267.108165 C44.8693719,275.023673 49.9833241,285.696269 53.3629794,291.788543 C54.2078933,293.256025 55.1862146,295.034791 55.5419678,295.790766 C55.897721,296.502273 56.8315731,298.103162 57.5430795,299.348298 C58.299055,300.548965 59.0994997,301.971978 59.3663146,302.461139 C59.6331295,302.950299 60.2112285,303.928621 60.7003891,304.684596 C61.1895497,305.396103 61.7676487,306.418893 62.0344636,306.908054 C62.7015008,308.197659 63.3685381,309.220449 65.3696498,312.244352 C66.3479711,313.711834 67.3262924,315.268254 67.5931073,315.668476 C68.3751509,316.979549 71.048852,320.812832 73.8542428,324.712986 L74.4165554,325.493181 C76.8563325,328.871583 79.3068946,332.177265 80.6225681,333.811889 C83.6040224,337.55134 85.4082847,339.783411 87.0957413,341.82135 L87.4990311,342.307401 L87.9010931,342.790031 C88.9074279,343.995692 89.9327909,345.207109 91.2062257,346.707943 C100.9005,357.958637 112.41801,369.431678 124.335742,379.615113 C128.871595,383.483929 136.47582,389.620672 140.922735,392.955858 C142.466569,394.133032 145.099099,396.030419 147.744585,397.899365 L148.434298,398.385778 C151.647731,400.648103 154.741733,402.771794 155.775431,403.406108 C156.175653,403.672923 157.732073,404.651244 159.199555,405.629566 C160.667037,406.607887 162.223457,407.586208 162.62368,407.853023 C163.023902,408.075369 165.514175,409.58732 168.182324,411.188209 C172.088197,413.550633 173.316657,414.284297 174.601827,415.017031 L174.829767,415.146658 C175.289049,415.40722 175.775431,415.679593 176.409116,416.035347 C177.476376,416.613446 179.433018,417.680705 180.767093,418.436681 C182.385383,419.335731 186.346416,421.345564 190.472529,423.39096 L191.272609,423.786998 C193.008046,424.644793 194.747807,425.496642 196.331295,426.263251 C197.932185,427.019227 199.488605,427.641795 199.799889,427.641795 C200.066704,427.641795 201.489717,427.063696 202.86826,426.352189 C203.681899,425.946592 204.462512,425.557238 205.211627,425.18334 L206.095542,424.74203 C207.254198,424.163373 208.333781,423.623472 209.340544,423.119096 L210.082061,422.747424 C219.061453,418.24437 221.944059,416.711669 223.679822,415.590655 C224.435798,415.145964 225.325181,414.612334 225.680934,414.434457 C226.036687,414.256581 229.01612,412.522284 232.262368,410.565641 C235.508616,408.56453 238.532518,406.741294 238.93274,406.518949 C239.299611,406.274368 240.862207,405.245093 242.490195,404.150426 L242.934964,403.8508 C243.007893,403.800994 243.080752,403.75126 243.15345,403.701657 L243.587025,403.406085 C245.164611,402.331591 246.579655,401.378315 246.892718,401.182651 C247.515286,400.826898 251.206226,398.247687 255.430795,395.268254 C257.120623,394.023118 264.59144,388.375536 264.813785,388.064252 C264.947193,387.930844 265.925514,387.130399 267.037243,386.285486 C268.766203,384.940739 272.154966,382.10012 275.580613,379.155406 L276.436854,378.417864 C279.857379,375.465466 283.179544,372.524952 284.780434,370.988098 C285.605134,370.195739 286.433877,369.393457 287.262554,368.585528 L288.25667,367.613577 C296.205139,359.820667 303.995957,351.66504 307.99333,346.930288 C308.838243,345.951967 309.727626,344.929177 309.949972,344.662362 C313.018344,341.327175 324.402446,326.607887 327.515286,322.027565 C334.052251,312.33329 337.031684,307.708498 338.187882,305.573979 C338.454697,305.084819 339.032796,304.062028 339.521957,303.350522 C340.011117,302.594546 340.544747,301.705163 340.722624,301.34941 C340.856031,300.993657 341.43413,299.970866 341.96776,299.125953 C343.657588,296.413334 346.68149,290.676814 349.79433,284.451133 C354.241245,275.379427 358.198999,266.885819 358.198999,266.263251 C358.198999,266.040905 358.465814,265.28493 358.821568,264.573423 C359.444136,263.372756 361.712062,257.814113 362.86826,254.656803 C363.179544,253.811889 363.713174,252.299938 364.068927,251.321617 C365.669817,246.96364 369.227349,236.024229 370.828238,230.643462 C373.585325,221.082595 375.675375,212.722395 377.543079,203.739627 C377.943302,201.782984 378.56587,199.025897 378.921623,197.647353 C379.277376,196.224341 379.544191,194.623451 379.544191,194.089821 C379.544191,193.511722 379.811006,191.644018 380.166759,189.95419 C380.188227,189.856052 380.209431,189.75823 380.230423,189.660432 L380.323637,189.219511 C380.866263,186.612249 381.316057,183.712409 382.657032,175.057025 C382.968316,173.23379 383.368538,170.209888 383.546415,168.386653 C383.724291,166.563418 384.124514,163.361639 384.346859,161.271589 C384.471373,160.315098 384.594446,159.331235 384.714428,158.337509 L384.816474,157.483738 L384.9662,156.199384 C385.670937,150.063408 386.214564,144.027261 386.214564,142.149855 L386.215526,142.012115 C386.234693,140.549474 386.537324,136.562521 386.881601,133.033679 C388.304614,118.403329 388.126737,31.6440181 386.659255,29.8652521 C386.347971,29.509499 385.414119,29.1092766 384.480267,28.9758692 C383.590884,28.8424617 381.18955,28.4422394 379.0995,28.1309553 C374.146748,27.2804828 366.886465,26.1626743 359.503066,25.0861974 L357.861172,24.8477861 C352.661046,24.095766 347.480082,23.3755356 343.079489,22.7946574 C340.277932,22.394435 336.275709,21.8608052 334.185659,21.5939903 C332.095609,21.2827063 328.715953,20.9269531 326.625903,20.7490765 C324.535853,20.5711999 321.156198,20.2154467 319.066148,19.9486318 C304.978321,18.0996046 282.541696,16.2893189 259.65722,15.0419475 L257.575799,14.9301154 L255.49323,14.8214723 C254.10476,14.750126 252.716405,14.680964 251.329922,14.614103 L249.251823,14.5155519 C240.946802,14.1283672 232.740856,13.8261193 225.013897,13.6340126 Z M188.74357,20.9327636 C193.041122,20.9343426 197.537106,20.9440251 202.061711,20.9610415 L204.531494,20.9710459 C224.707904,21.0586129 244.839578,21.288932 249.91662,21.5939903 C271.573096,22.8835957 280.600334,23.5061638 286.826014,24.0842627 C290.516954,24.4400159 294.38577,24.7513 295.497499,24.7513 C296.498054,24.7513 299.587771,25.00344 302.691895,25.3132121 L303.381095,25.38292 L303.724291,25.4183372 C307.148416,25.8185595 312.573652,26.3966585 315.730962,26.7524117 C325.914397,27.8641404 333.829906,28.7979926 338.765981,29.4650298 C346.694934,30.5198794 352.830642,31.3592617 357.854585,32.0793529 L358.729761,32.2052091 C365.065119,33.1193606 369.605693,33.8432054 373.828457,34.5851876 L374.402457,34.6864989 C374.593227,34.7203199 374.783478,34.754198 374.97335,34.7881526 L375.541968,34.890266 L379.766537,35.6907107 L380.166759,39.648465 C380.471818,42.8733678 380.61672,61.0674845 380.606699,80.1312464 L380.604698,82.4689722 C380.582039,101.580236 380.404669,120.985652 380.077821,126.585652 C378.877154,148.064252 376.386882,171.010333 373.718733,185.28493 C373.451918,186.619004 373.096165,188.9314 372.873819,190.398882 C372.695942,191.866364 372.29572,193.956414 372.073374,195.068143 C371.895497,195.809295 371.599037,197.163134 371.302576,198.563088 L371.154894,199.264286 C371.057172,199.730815 370.961645,200.191977 370.872707,200.626786 C369.716509,206.052023 368.871595,209.742962 368.160089,212.233234 C367.804336,213.478371 367.537521,214.856914 367.537521,215.301606 C367.537521,215.701828 367.270706,216.991433 366.914953,218.147631 C366.5592,219.25936 365.936631,221.393879 365.536409,222.861361 C365.358533,223.506164 365.208449,224.050911 365.056976,224.595658 L364.974041,224.893394 C364.807194,225.491272 364.632379,226.1108 364.411708,226.881877 L364.237015,227.49063 C363.909059,228.63059 363.482743,230.097705 362.86826,232.199883 C362.423569,233.667364 361.84547,235.579538 361.534186,236.424452 C361.296145,237.070562 360.850069,238.392789 360.4147,239.695129 L360.215317,240.292263 C360.149641,240.489147 360.085015,240.683027 360.022235,240.871367 C358.954975,244.251022 358.332407,246.207665 357.398555,248.653468 C357.042802,249.631789 356.509172,251.14374 356.197888,251.988654 C355.04169,255.145964 352.773763,260.704607 352.151195,261.905274 C351.795442,262.616781 351.528627,263.372756 351.528627,263.595102 C351.528627,263.950855 350.594775,266.040905 347.437465,272.889154 C344.858255,278.403329 338.632574,290.632345 337.298499,292.900272 C337.076153,293.256025 334.941634,296.858026 332.5403,300.860249 C331.795271,302.104017 331.165335,303.155963 330.624523,304.057991 L330.2769,304.637594 C328.769448,307.149999 328.01217,308.396966 327.30388,309.509952 L327.147004,309.755537 C326.494338,310.773449 325.839141,311.74835 324.624792,313.578426 C323.467496,315.31437 320.782348,319.056109 317.99012,322.873104 L317.249476,323.883917 L316.755826,324.555815 C313.305654,329.246695 310.010911,333.61919 309.54975,334.034235 C309.282935,334.256581 307.770984,336.079816 306.214564,338.036458 C304.613674,339.993101 303.012785,341.905274 302.657032,342.305497 C302.283491,342.679038 300.515397,344.602081 298.618179,346.73689 L298.210117,347.197103 C293.362979,352.533401 281.801001,364.139849 276.420233,368.986986 C274.107838,371.032567 272.017788,372.900272 271.750973,373.167087 C271.484158,373.389432 269.838799,374.767976 268.148972,376.190989 C266.414675,377.658471 264.546971,379.214891 263.924402,379.748521 C261.643425,381.690179 256.485613,385.557718 251.066176,389.484584 L249.812083,390.390987 C249.672488,390.491627 249.532853,390.592211 249.393222,390.692708 L248.555843,391.294399 C242.00231,395.995532 235.653141,400.365772 234.085603,401.138182 C233.72985,401.271589 232.929405,401.76075 232.262368,402.205441 C231.650917,402.594546 229.354503,403.991155 226.979919,405.42902 L226.409341,405.774405 C225.173402,406.522312 223.951084,407.260472 222.968316,407.853023 C219.687423,409.797256 213.351712,413.13608 208.120399,415.76448 L207.458892,416.095999 C203.420547,418.114568 200.176325,419.637348 199.75542,419.637348 C199.222399,419.637348 196.236023,418.27778 192.477373,416.406537 L191.825781,416.080898 C190.179458,415.255061 188.408932,414.344143 186.646533,413.414885 L185.942321,413.042363 L185.240858,412.668833 C183.259051,411.609969 181.333008,410.550412 179.655364,409.58732 C178.187882,408.742406 176.586993,407.853023 176.097832,407.630677 C175.608671,407.363862 174.63035,406.785764 173.874375,406.296603 C173.162868,405.807442 172.140078,405.229343 171.650917,404.962528 C171.161757,404.695714 170.183435,404.117615 169.42746,403.628454 C168.715953,403.139293 167.782101,402.605663 167.426348,402.427787 C167.070595,402.24991 165.514175,401.271589 163.957754,400.204329 C162.401334,399.13707 161.06726,398.292156 160.978321,398.292156 C160.924958,398.292156 160.407337,397.971978 159.655987,397.475702 L159.178973,397.157958 C158.789016,396.89618 158.358199,396.602328 157.90995,396.291044 C157.223855,395.814589 156.341732,395.207449 155.428105,394.578139 L154.51007,393.945459 C153.59372,393.313426 152.700707,392.695396 151.995553,392.199883 C150.305725,391.088154 146.659255,388.375536 143.857699,386.196547 C129.049472,374.856914 124.246804,370.632345 111.617565,358.047576 C104.93687,351.329558 101.764472,348.05719 98.8404303,344.681341 L98.4682462,344.249546 C98.0350195,343.744491 97.6042246,343.23379 97.1650917,342.705719 C95.8310172,341.149299 94.274597,339.326064 93.6964981,338.703496 C93.2340189,338.205441 92.0600334,336.768198 90.8348193,335.211422 L90.4663786,334.741623 L90.0988257,334.26957 L89.9166203,334.034235 C88.4046693,332.077592 86.9816565,330.254357 86.7148416,329.987542 C85.647582,328.920283 76.6203446,316.557859 75.5975542,314.779093 C75.3307393,314.378871 73.8187882,312.022006 72.2178988,309.576203 C70.6170094,307.130399 68.7493052,304.239905 68.0822679,303.128176 C67.4152307,302.016447 66.7037243,300.81578 66.4813785,300.460027 C65.725403,299.303829 62.2123402,293.167087 61.9010561,292.45558 C61.7231795,292.099827 60.8782657,290.498938 59.9888827,288.898048 C55.7198444,281.027009 51.0505837,271.288265 47.58199,262.883596 C46.692607,260.660138 45.7587549,258.48115 45.49194,258.036458 C45.2251251,257.547298 44.8693719,256.657915 44.6470261,256.035347 C44.2912729,254.79021 43.5352974,252.74463 42.0233463,248.875814 C41.4897165,247.541739 40.9116176,245.807442 40.6892718,245.095936 C40.3335186,243.8508 39.9777654,242.739071 38.6881601,239.092601 C38.4936076,238.56453 38.1774597,237.61956 37.8699972,236.626821 L37.6876042,236.028398 C37.5680934,235.629566 37.4541412,235.234902 37.3540856,234.868031 C36.9093941,233.40055 36.286826,231.399438 36.0200111,230.421117 C33.9299611,223.795213 30.8615898,211.877481 29.3496387,204.62901 C28.9494163,202.672367 28.3268482,199.781872 28.0155642,198.180983 C27.2717166,194.639622 26.2691394,189.010783 25.2964979,183.126957 L25.1347176,182.144272 C23.4937763,172.136032 21.9848288,161.687982 22.012229,159.715169 C22.012229,158.959193 21.7454141,155.890822 21.3451918,152.822451 C20.5938165,146.360623 19.7472238,134.820535 19.180811,123.055537 L19.1128802,121.614131 C19.0796405,120.893196 19.0475084,120.17216 19.0165702,119.452138 L18.956311,118.013775 C18.9367722,117.534991 18.9177896,117.056987 18.8993885,116.580094 C18.6477455,110.13416 18.5224933,99.7448308 18.5162963,88.6544538 L18.5163338,86.8503814 C18.5177722,84.4381236 18.5247578,82.0012856 18.5372164,79.572641 L18.5475855,77.7532059 C18.6159431,66.851958 18.7947553,56.2825428 19.0772651,49.0314556 L19.5664258,35.7351799 L23.790995,34.9347352 C27.8821568,34.1787597 32.4624792,33.4227841 41.4452474,32.1331788 C42.2456921,32.0145944 43.1647211,31.8762459 44.1018673,31.7346034 L45.0413315,31.592473 C46.6047667,31.3557922 48.1255018,31.1252114 49.1384102,30.9769809 C50.9616454,30.6656968 53.3629794,30.3544128 54.4747082,30.2654745 C55.5864369,30.132067 58.5658699,29.7763139 61.1450806,29.4205607 C69.001297,28.3458895 72.3179544,27.9506082 75.8559282,27.6170896 L76.3293875,27.5729322 C76.884262,27.5217158 77.4496119,27.4713296 78.0433574,27.4194489 C80.6225681,27.1971032 83.7798777,26.7968808 85.1139522,26.5300659 C86.4035575,26.3077202 88.627015,26.0853744 90.0055586,26.0853744 C91.3841023,26.0853744 94.4080044,25.7740904 96.7204002,25.4183372 C99.032796,25.062584 102.234575,24.7513 103.835464,24.7513 C105.436354,24.7513 109.127293,24.4400159 112.062257,24.0842627 C114.952752,23.7285095 118.954975,23.4172255 120.956087,23.4172255 C122.912729,23.3727563 126.02557,23.1948797 127.848805,22.972534 C129.509975,22.7699523 134.973378,22.3827962 140.472055,22.1137677 L141.678172,22.0567286 L142.078933,22.0386818 C143.129516,21.9997713 144.219594,21.9554134 145.318899,21.9077528 L146.734992,21.8448241 C151.456365,21.6301215 156.108949,21.3716446 158.310172,21.2382371 C161.255809,21.0301215 172.609957,20.9372699 186.420151,20.9327106 Z M200.066704,243.717392 C199.266259,239.848576 198.732629,238.870255 198.287938,240.293268 C198.004952,241.198821 197.449843,242.736662 196.860295,244.285416 L196.606215,244.948025 C195.884276,246.817043 195.161622,248.571267 194.863813,249.098159 C194.641467,249.58732 194.241245,250.565641 194.063369,251.321617 C193.885492,252.033123 193.307393,253.76742 192.773763,255.101495 C192.240133,256.435569 191.662034,258.036458 191.439689,258.659026 L191.393928,258.786919 C191.211567,259.295665 190.872881,260.230038 190.507921,261.18543 L190.307028,261.706205 C190.239717,261.878871 190.172318,262.049799 190.105614,262.216558 C190.005559,262.466697 189.902376,262.729343 189.799585,262.995995 L189.595565,263.532122 C189.226306,264.515579 188.89383,265.476703 188.77154,265.996436 C188.730365,266.128197 188.666314,266.325532 188.583625,266.57517 L188.475723,266.898991 C188.16557,267.824929 187.681907,269.232072 187.16354,270.685486 L186.869214,271.505044 L186.770428,271.777426 C185.881045,274.223229 184.991662,276.802439 184.813785,277.558415 C184.59144,278.269921 184.235686,279.38165 184.013341,280.004218 C183.746526,280.626786 183.212896,282.316614 182.768205,283.784096 C182.367982,285.251578 181.745414,287.163751 181.43413,288.008665 C181.122846,288.853579 180.544747,290.765752 180.144525,292.233234 C179.699833,293.700716 179.166203,295.479482 178.899389,296.235458 C178.677043,296.946964 178.32129,298.281039 178.143413,299.125953 C177.965536,299.970866 177.565314,301.393879 177.298499,302.238793 C174.763758,310.510055 174.719288,313.35608 177.25403,319.181539 C183.346304,333.411667 192.106726,350.843573 203.179544,370.943629 C204.380211,373.122617 205.403002,374.278815 205.714286,373.967531 C206.336854,373.344963 204.913841,368.142073 202.734853,362.939182 C201.578655,360.226564 200.422457,357.425008 200.111173,356.713501 C199.799889,355.957526 199.266259,354.66792 198.910506,353.823006 C198.474421,352.85903 197.611877,350.769674 196.750861,348.631023 L196.428888,347.82882 C195.735057,346.094814 195.077552,344.417064 194.685937,343.372756 C194.285714,342.394435 193.752084,340.971422 193.4408,340.259916 C192.862702,338.925841 191.973319,336.568976 190.817121,333.456136 C187.659811,324.651244 187.392996,323.050355 188.148972,316.735736 C188.949416,310.198771 189.972207,303.394991 190.639244,299.79299 C190.906059,298.325508 191.261812,296.10205 191.439689,294.901383 C191.795442,292.233234 192.595887,288.008665 194.774875,277.113724 C197.042802,265.729621 198.376876,259.592879 199.933296,253.545074 C200.867148,249.765197 200.911618,247.630677 200.066704,243.717392 Z M172.807115,189.331622 C172.5403,187.730733 171.739855,187.108165 171.206226,187.953079 C170.806003,188.575647 171.250695,193.734068 172.140078,199.292712 C172.495831,201.4717 172.762646,204.050911 172.762646,204.984763 C172.762646,206.763529 171.072818,210.632345 168.760422,214.056469 C168.004447,215.123729 167.426348,216.10205 167.426348,216.190989 L167.421767,216.214072 C167.351924,216.439584 166.492496,217.767791 165.469705,219.25936 C164.402446,220.81578 163.468594,222.283262 163.379655,222.505608 C163.068371,223.261583 157.821012,230.376647 148.660367,242.605663 C140.738682,253.146087 136.479594,258.674536 132.158259,263.926884 L131.668585,264.520564 C130.279288,266.200759 128.869125,267.870934 127.315175,269.687376 C124.647026,272.844685 123.757643,274.801328 122.957198,279.559527 L122.903969,279.873796 C122.84304,280.238139 122.786068,280.595702 122.731568,280.960002 L122.685425,281.274224 C122.320565,283.806247 122.051987,286.836639 121.400778,294.723507 C120.956087,299.837459 121.578655,301.616225 126.292385,308.420005 C127.086046,309.579971 129.341824,312.649071 131.670368,315.773416 L132.447339,316.814367 C134.947313,320.158749 137.353143,323.329229 137.943302,324.028676 C138.402816,324.613513 140.471265,327.08198 142.60036,329.701469 L143.012785,330.209888 C143.626919,330.95513 144.282813,331.747484 144.954712,332.556214 L145.404734,333.097456 C148.944049,337.350901 152.763796,341.864639 153.19622,342.261028 C153.329628,342.394435 153.996665,343.19488 154.708171,344.039794 C157.37632,347.330511 163.424125,353.778537 168.804892,359.159304 C173.207337,363.517281 175.16398,365.11817 177.698722,366.496714 C188.148972,371.966419 188.949416,372.277704 188.682601,370.854691 C188.593663,370.409999 186.548082,368.720172 184.102279,367.074813 C181.656476,365.429454 178.765981,363.117059 177.654252,361.960861 C173.740967,357.780761 168.715953,352.04424 164.269038,346.663473 C163.379655,345.596214 161.06726,342.794657 159.110617,340.482262 C157.720371,338.797115 155.462053,335.964516 153.148594,333.005357 L152.376513,332.015683 C150.060837,329.041002 147.780346,326.053193 146.347971,324.073145 C145.911221,323.517281 144.481855,321.578846 143.041095,319.587235 L142.695596,319.108908 L142.523624,318.870255 C138.387993,313.35608 135.764314,309.487264 132.562535,304.239905 L129.849917,299.79299 L129.938855,293.789655 C129.983324,290.232123 130.339077,286.140961 130.783769,283.784096 L131.584213,279.781872 L142.078933,269.331622 C142.477622,268.936 142.874196,268.541436 143.267298,268.149344 L144.145347,267.271905 C149.081277,262.330164 153.287459,257.962854 153.952196,257.102606 C154.828668,255.922739 157.749519,250.34746 160.680673,244.270567 L161.054762,243.492368 L161.428023,242.71052 C161.490112,242.580008 161.552127,242.449418 161.614049,242.31879 L161.984304,241.534842 C162.476066,240.489746 162.95935,239.446919 163.424125,238.425563 C164.091162,236.958081 165.24736,234.467809 166.003335,232.86692 C166.986337,230.760486 167.740681,229.111371 168.479707,227.446391 L168.775007,226.778432 C169.809235,224.429761 170.869196,221.926339 172.5403,217.969755 C174.14119,214.056469 175.786548,210.187653 176.142301,209.387209 C176.898277,207.652912 176.942746,205.207109 176.320178,203.07259 C176.053363,202.227676 175.653141,200.715725 175.475264,199.737403 C175.319622,199.052578 174.967871,197.670477 174.587793,196.231722 L174.423658,195.613512 C174.31373,195.20155 174.203446,194.792434 174.09672,194.401105 C173.518621,192.444463 172.940523,190.176536 172.807115,189.331622 Z M257.965536,176.835791 C256.631462,176.835791 256.586993,177.013668 257.431907,180.082039 C257.743191,181.371645 258.365759,183.995324 258.81045,185.951967 C259.210673,187.90861 259.833241,190.710166 260.144525,192.177648 C260.500278,193.64513 261.078377,196.446686 261.478599,198.403329 C261.878822,200.359971 262.50139,203.250466 262.812674,204.851356 C262.832438,204.940294 262.852202,205.029918 262.871928,205.119993 L262.989521,205.663947 C263.280835,207.027873 263.546415,208.386653 263.657588,208.942517 C263.835464,209.609555 265.747638,212.010889 268.104503,214.501161 C277.13174,224.017559 281.978877,230.421117 283.668705,235.045908 C283.685556,235.09459 283.702092,235.142937 283.718321,235.19109 L283.766089,235.335111 L283.812055,235.47882 L283.856264,235.623065 L283.898759,235.768695 C284.488859,237.845617 284.576812,240.59519 284.735964,254.879149 C284.913841,272.311055 284.246804,286.541183 282.957198,291.343851 C282.468038,293.300494 280.377988,295.523951 275.308505,299.570644 C273.618677,300.904719 271.928849,302.327731 271.528627,302.683485 C271.128405,303.083707 269.927738,304.106497 268.816009,304.99588 C267.007004,306.468699 263.307669,309.589792 259.280292,313.018872 L258.606293,313.593007 C258.493543,313.689095 258.380607,313.785363 258.267518,313.881782 L257.58742,314.461887 L256.905266,315.044248 C256.563943,315.335763 256.222451,315.627607 255.881695,315.919004 L255.201431,316.500973 C250.4502,320.567368 245.961285,324.444872 244.215542,326.005152 L243.985079,326.212056 C243.703391,326.466297 243.525514,326.63279 243.468594,326.696825 C243.335186,326.830233 241.245136,328.742406 238.799333,330.876925 C231.684269,337.191545 225.102835,344.039794 223.991106,346.396658 C223.413007,347.552856 222.790439,348.486709 222.568093,348.486709 C222.167871,348.486709 221.322957,346.263251 220.077821,341.816336 C219.010561,338.036458 219.010561,331.188209 220.077821,326.919171 C220.291273,325.994213 220.580619,324.828923 220.858159,323.720133 L221.160786,322.512232 C221.288963,321.999895 221.405966,321.52951 221.500834,321.138182 C223.057254,315.001439 225.458588,306.552301 226.837132,302.461139 C227.192885,301.438348 227.4597,300.104274 227.4597,299.481706 C227.4597,298.814668 227.682046,298.147631 227.904391,298.014224 C228.171206,297.880816 228.349083,297.436125 228.349083,297.080372 C228.349083,296.63568 227.94886,296.858026 227.237354,297.70294 C226.614786,298.458915 226.125625,299.303829 226.125625,299.659582 C226.125625,300.015336 225.947749,300.460027 225.725403,300.726842 C225.503057,300.949188 223.368538,305.707387 221.011673,311.354969 C218.654808,316.958081 216.431351,322.160972 216.120067,322.916948 C215.586437,324.162084 214.963869,325.718504 213.362979,330.032011 C212.962757,331.010333 212.429127,332.522284 212.117843,333.367198 C211.76209,334.212112 211.272929,335.901939 210.961645,337.147075 C210.428016,339.415002 210.605892,340.304385 212.251251,344.484485 C212.473596,345.107053 213.051695,346.485597 213.451918,347.597326 C213.571282,347.906269 213.68843,348.205235 213.80581,348.5007 L214.041609,349.08888 C214.59592,350.459365 215.190896,351.84764 216.075598,353.911945 C216.431351,354.712389 217.142857,356.535625 217.720956,357.914168 C219.010561,361.160416 219.855475,361.249354 221.367426,358.35886 C221.945525,357.202662 222.879377,355.557303 223.368538,354.712389 C223.857699,353.867476 224.702613,352.355525 225.236242,351.377203 C227.548638,347.152634 229.638688,344.662362 233.818788,341.015891 C236.264591,338.881372 238.710395,336.746853 239.288494,336.257692 C239.655364,335.890822 240.442607,335.208672 241.274514,334.514699 L241.730454,334.13682 C241.95838,333.949118 242.184547,333.764641 242.401334,333.589543 C243.557532,332.611222 245.24736,331.188209 246.092273,330.432234 C247.51852,329.209736 249.735686,327.351911 252.033358,325.445404 L253.020932,324.62706 C256.425287,321.809835 259.78392,319.069153 260.811562,318.292156 C261.923291,317.447242 263.035019,316.557859 263.257365,316.291044 C263.52418,316.024229 265.703168,314.200994 268.148972,312.244352 C270.594775,310.287709 272.862702,308.420005 273.173986,308.15319 C273.458201,307.868974 274.743351,306.843325 276.115539,305.787052 L276.509172,305.485041 C278.021123,304.328843 279.355197,303.261583 279.488605,303.128176 C279.622012,302.994769 280.422457,302.3722 281.267371,301.794102 C285.936631,298.592323 288.827126,295.257137 288.827126,293.078148 C288.827126,292.633457 289.093941,291.299382 289.449694,290.054246 C290.69483,285.607331 292.251251,277.158193 293.451918,268.664585 C295.275153,255.412779 295.764314,239.270477 294.697054,226.863585 C293.985548,218.72573 293.585325,217.836347 286.692607,208.675702 C278.732629,198.092045 270.594775,188.442239 263.390773,181.193768 C260.188994,177.903051 258.81045,176.835791 257.965536,176.835791 Z M125.936631,202.850244 C123.179544,202.094268 120.466926,201.960861 120.066704,202.627898 C119.799889,203.07259 119.977765,203.205997 121.84547,203.695158 C122.517678,203.850283 125.038759,204.711887 127.643387,205.642008 L128.269198,205.866226 C129.937484,206.465906 131.582145,207.072745 132.740411,207.519505 C134.074486,208.053134 135.675375,208.631233 136.297943,208.853579 C139.899944,210.054246 140.522513,210.498938 141.322957,212.855802 L142.167871,215.168198 L140.522513,218.281039 C139.63313,220.015336 138.121178,222.594546 137.142857,224.062028 C136.209005,225.52951 135.40856,226.774646 135.40856,226.908054 C135.40856,227.080469 134.712383,228.087506 133.710519,229.432499 L133.344862,229.920427 C130.956704,233.089265 127.270706,237.654765 126.648138,238.06981 C125.77218,238.653782 122.353279,239.956702 118.773608,241.162656 L118.031474,241.410512 C115.307634,242.312284 112.585818,243.125869 110.906059,243.495046 C108.816009,243.939738 108.193441,243.672923 104.413563,240.471144 C101.300723,237.802995 101.211784,237.758526 100.678155,238.692378 C99.9666481,240.026453 100.36687,246.518949 101.256253,248.208776 C102.367982,250.343296 103.257365,252.878037 104.05781,256.213223 C105.214008,261.238237 106.058922,264.484485 106.903835,267.330511 C107.615342,269.820783 107.748749,269.99866 109.127293,270.132067 C109.927738,270.221005 111.528627,269.99866 112.640356,269.598437 C113.796554,269.242684 115.886604,268.575647 117.265147,268.175424 C119.888827,267.37498 123.268482,264.840238 122.779322,264.084263 C122.601445,263.772979 121.756531,263.861917 120.377988,264.21767 C117.576431,265.018115 114.107838,265.863029 112.640356,266.085374 C111.662034,266.263251 111.35075,266.085374 110.772651,264.973646 C110.372429,264.21767 110.061145,263.105941 110.061145,262.483373 C110.061145,261.926339 109.811945,260.408105 109.504662,258.916103 L109.394108,258.392212 C108.993885,256.791322 108.727071,254.434457 108.816009,253.189321 C108.949416,251.054802 109.038355,250.876925 110.283491,250.476703 C111.039466,250.298826 112.329072,249.854135 113.173986,249.542851 C114.018899,249.231567 115.441912,248.742406 116.286826,248.475591 C117.13174,248.164307 118.465814,247.719616 119.177321,247.541739 C119.933296,247.319393 122.512507,246.43001 124.95831,245.540627 C125.048895,245.507687 125.139786,245.474686 125.230873,245.441662 L125.778885,245.243556 C127.973428,244.452506 130.15626,243.692687 130.828238,243.495046 C132.206782,243.094824 135.40856,240.248799 135.40856,239.492823 C135.40856,239.270477 135.94219,238.381094 136.564758,237.447242 C137.187326,236.51339 137.898833,235.357192 138.121178,234.868031 C138.343524,234.378871 138.788216,233.578426 139.055031,233.089265 C140.033352,231.621784 141.411895,229.220449 143.190661,225.974202 C144.124514,224.239905 145.36965,222.060916 145.90328,221.082595 C148.526959,216.413334 149.282935,214.54563 149.01612,213.078148 C148.838243,212.277704 148.438021,211.388321 148.082268,211.077036 C147.726515,210.765752 147.415231,210.276592 147.415231,210.009777 C147.415231,209.29827 145.280712,207.74185 143.857699,207.386097 C143.235131,207.25269 141.367426,206.807998 139.677599,206.407776 C137.987771,206.007553 136.253474,205.518393 135.808783,205.296047 C135.364091,205.029232 134.563646,204.851356 134.030017,204.851356 C133.496387,204.851356 131.984436,204.540071 130.650361,204.184318 C129.360756,203.828565 127.226237,203.205997 125.936631,202.850244 Z M277.576431,137.391656 C275.264036,136.190989 270.594775,136.279927 268.148972,137.569532 C267.659811,137.836347 266.370206,138.414446 265.258477,138.814668 C264.146748,139.25936 262.590328,139.881928 261.834352,140.193212 C261.033908,140.548965 259.699833,141.082595 258.943858,141.393879 L258.409351,141.61571 C256.532436,142.398512 254.558813,143.263517 251.473041,144.684596 C249.872151,145.440572 248.137854,146.196547 247.559755,146.374424 C246.759311,146.59677 246.625903,146.819115 247.026126,147.263807 C247.782101,148.15319 252.05114,148.553412 254.496943,147.975313 C258.526117,146.959261 260.650591,146.412482 262.610275,145.921749 L263.060377,145.809309 C263.13517,145.790672 263.209918,145.772072 263.284718,145.753483 L263.734953,145.641912 C263.885773,145.604646 264.037597,145.567241 264.191217,145.52951 C269.616454,144.106497 270.283491,144.328843 276.464703,148.909165 C279.488605,151.132623 282.023346,153.089265 282.156754,153.267142 C282.379099,153.533957 285.002779,155.668476 291.450806,160.826898 C292.82935,161.894157 294.341301,163.139293 294.785992,163.583985 C295.764314,164.473368 297.409672,165.273812 302.834908,167.49727 C307.192885,169.276036 310.705948,170.832456 313.062813,172.033123 C314.974986,172.966975 316.798221,174.879149 316.84269,175.901939 C316.84269,176.257692 317.109505,177.547298 317.465258,178.792434 C318.97721,184.128732 321.734297,205.340516 321.734297,211.343851 C321.734297,212.588988 321.334074,214.767976 320.800445,216.235458 C320.773269,216.314514 320.745956,216.394119 320.718582,216.474045 L320.554217,216.955611 C320.144525,218.159984 319.75542,219.333475 319.644247,219.704051 C319.415163,220.460027 317.345082,224.638371 315.105848,228.986582 L314.709274,229.755015 C314.642999,229.88316 314.576663,230.011287 314.510308,230.139312 L314.112294,230.905587 C312.323283,234.342395 310.582647,237.584692 309.727626,239.003662 C308.615898,240.915836 306.881601,243.050355 305.591996,244.117615 C301.09593,247.857704 300.83626,247.859798 300.831411,251.927782 L300.831776,252.425597 C300.832129,252.598103 300.832634,252.777331 300.833051,252.963754 L300.833797,253.545074 C300.833797,256.346631 301.011673,258.659026 301.18955,258.659026 C301.767649,258.659026 310.528071,246.341072 311.6398,243.984207 C311.817676,243.628454 312.351306,242.694602 312.840467,241.983095 C313.329628,241.22712 313.907727,240.248799 314.174541,239.759638 C314.441356,239.270477 315.241801,237.847464 315.997777,236.646797 C316.709283,235.401661 317.643135,233.800772 317.998888,233.089265 C318.354641,232.33329 319.377432,230.465586 320.222346,228.864696 C325.336298,219.615113 326.047804,217.791878 326.670372,212.411111 C327.82657,202.53896 327.159533,181.727398 325.469705,173.545074 C325.113952,171.855247 324.847137,169.943073 324.847137,169.231567 C324.847137,166.874702 323.513063,164.473368 321.334074,162.916948 C320.307089,162.161811 318.77231,161.088662 317.165237,159.986674 L316.627466,159.618673 L316.087925,159.250916 C313.301892,157.355565 310.588482,155.565274 310.172318,155.357192 C309.816565,155.179316 308.971651,154.690155 308.304614,154.245463 C307.326292,153.622895 303.413007,151.221561 298.832685,148.508943 C298.343524,148.197659 297.543079,147.752968 297.053919,147.530622 C296.564758,147.263807 294.963869,146.374424 293.496387,145.52951 C292.332522,144.859406 289.630215,143.434067 286.920191,142.074316 L286.21406,141.721626 C285.744531,141.488211 285.278795,141.258938 284.824903,141.038126 C281.534186,139.392767 278.243469,137.747409 277.576431,137.391656 Z M133.540856,222.594546 C133.451918,222.3722 132.073374,223.261583 130.472485,224.551189 C127.58199,226.819115 121.84547,231.443907 120.066704,232.911389 C114.596998,237.447242 113.173986,238.781317 113.351862,239.003662 C113.663146,239.270477 116.59811,238.470033 118.866037,237.491711 C119.666481,237.135958 120.511395,236.869143 120.77821,236.869143 C121.045025,236.869143 122.067815,236.468921 123.135075,235.97976 C124.602557,235.357192 125.758755,234.156525 128.11562,230.999215 C129.805447,228.731289 131.76209,226.018671 132.429127,224.951411 C133.140634,223.884152 133.629794,222.861361 133.540856,222.594546 Z M91.7398555,214.189877 C89.827682,214.234346 85.1584213,217.525063 85.1584213,218.859138 C85.1584213,219.125953 86.2701501,220.637904 87.6042246,222.194324 C88.9382991,223.795213 90.0500278,225.218226 90.0500278,225.396103 C90.0500278,225.618448 90.3168427,225.751856 90.6281267,225.751856 C91.295164,225.751856 92.7181768,219.081483 92.7181768,216.057581 C92.7181768,214.412223 92.5847693,214.189877 91.7398555,214.189877 Z M125.625347,142.505608 C125.625347,141.927509 124.068927,142.105386 123.490828,142.683485 C123.179544,142.994769 122.023346,143.750744 120.956087,144.373312 C116.820456,146.685708 108.860478,151.710722 107.259589,152.955858 C106.325737,153.667364 104.769316,155.312723 103.790995,156.557859 C98.4102279,163.583985 97.4319066,164.651244 94.1856587,166.96364 C92.6917732,168.040627 89.5965206,170.311854 86.5538553,172.589867 L85.8254722,173.136112 C85.220739,173.590412 84.6234019,174.041183 84.0466926,174.478926 C66.4369094,187.730733 63.3685381,191.065919 65.4585881,194.66792 C66.8816009,197.024785 67.3707615,196.891378 72.8404669,192.711278 C74.7526404,191.243796 76.442468,189.731845 76.5758755,189.331622 C77.0650361,187.997548 79.8665926,184.840238 80.3557532,185.107053 C81.1561979,185.640683 80,190.087598 78.4435798,192.266586 C78.1141787,192.760688 76.6028986,194.512919 75.0393729,196.252441 L74.6637021,196.669032 C70.794886,200.98254 69.594219,202.583429 69.594219,203.56175 C69.594219,204.540071 75.2862702,212.010889 78.1322957,214.767976 C81.4674819,218.014224 81.4230128,218.058693 83.3796554,208.186542 C84.2245692,203.784096 85.069483,202.894713 89.1606448,202.183207 C90.2723735,202.00533 92.0511395,201.649577 93.1628683,201.382762 C94.274597,201.115947 96.8093385,200.582317 98.8549194,200.182095 C100.856031,199.826342 104.05781,199.203774 105.969983,198.89249 C107.837688,198.536736 110.86159,198.003107 112.640356,197.691822 C118.110061,196.75797 118.15453,196.891378 111.573096,190.176536 C110.89653,189.490441 110.232215,188.820681 109.602468,188.19001 L108.985069,187.573211 C106.970993,185.566265 105.423648,184.07791 105.169539,183.950855 C104.813785,183.772979 101.923291,183.328287 98.7659811,183.017003 C94.6748193,182.572312 92.9849917,182.261028 92.8071151,181.816336 C92.5403002,181.060361 94.2301278,179.681817 95.8310172,179.370533 C96.4535853,179.237125 98.0544747,178.703496 99.3885492,178.169866 C100.722624,177.680705 103.257365,176.746853 104.947193,176.168754 C106.68149,175.590655 108.549194,174.923618 109.171762,174.701272 C109.571984,174.558336 110.284625,174.268379 111.037959,173.973171 L111.543229,173.777144 C111.795896,173.680297 112.046375,173.586367 112.284603,173.500605 C113.396331,173.055914 114.908282,172.477815 115.619789,172.166531 C116.375764,171.855247 117.798777,171.277148 118.866037,170.876925 C119.206967,170.743518 119.622012,170.585405 120.06341,170.419058 L120.967189,170.080263 C121.574263,169.853586 122.171577,169.631789 122.645914,169.453913 C123.668705,169.05369 125.136187,168.475591 125.847693,168.164307 C126.603669,167.853023 128.071151,167.230455 129.182879,166.785764 C131.272929,165.985319 135.40856,162.383318 135.40856,161.404996 C135.40856,160.604552 135.364091,160.604552 132.384658,162.605663 C130.828238,163.672923 128.337966,164.784652 126.425792,165.318282 C124.647026,165.807442 122.201223,166.474479 120.956087,166.830233 C116.998332,167.897492 114.018899,168.075369 111.88438,167.319393 C109.79433,166.607887 108.638132,166.741294 103.879933,168.208776 C101.700945,168.875814 99.3885492,169.009221 99.3885492,168.475591 C99.3885492,167.986431 103.435242,165.006998 104.502501,164.695714 C104.991662,164.562306 106.503613,164.028676 107.837688,163.495046 C109.171762,162.961417 110.728182,162.427787 111.306281,162.294379 C113.085047,161.894157 113.929961,160.248799 114.196776,156.691267 C114.552529,151.577314 115.086159,150.77687 120.689272,146.552301 C123.40189,144.50672 125.625347,142.683485 125.625347,142.505608 Z M224.30239,137.080372 C220.833797,135.301606 220.833797,135.301606 217.00945,136.190989 C215.541968,136.502273 212.651473,137.080372 210.561423,137.480594 C210.034381,137.579414 209.545404,137.671403 209.067885,137.761909 L208.711479,137.829594 C206.107493,138.325142 203.648941,138.816315 196.909394,140.193212 C190.372429,141.482817 188.682601,142.194324 187.348527,144.150966 C185.125069,147.441684 185.302946,148.820227 188.015564,148.820227 C188.682601,148.820227 190.550306,149.131511 192.151195,149.531734 L194.997221,150.287709 L198.465814,148.820227 C200.333519,148.019782 202.690384,147.08593 203.668705,146.730177 C204.647026,146.374424 206.070039,145.796325 206.781545,145.485041 C207.537521,145.173757 208.916064,144.640127 209.894386,144.239905 C210.872707,143.884152 212.562535,143.217114 213.629794,142.772423 C214.785992,142.283262 216.698166,141.927509 218.165648,141.927509 C220.255698,141.927509 220.922735,142.149855 221.856587,142.994769 C223.324069,144.373312 224.791551,147.219338 224.791551,148.642351 C224.791551,149.353857 223.146192,151.888598 220.12229,155.935291 C215.008338,162.694602 214.741523,163.450577 216.075598,167.274924 C216.431351,168.253245 217.053919,170.254357 217.454141,171.721839 C217.898833,173.189321 218.476932,175.101495 218.788216,175.946408 C219.0995,176.791322 219.677599,178.703496 220.12229,180.170978 C221.589772,185.329399 223.235131,188.39777 224.480267,188.39777 C224.969427,188.39777 224.702613,185.507275 223.991106,182.616781 C223.724291,181.505052 223.190661,179.01478 222.790439,177.058137 C222.390217,175.101495 221.767649,172.299938 221.411895,170.832456 C221.056142,169.364974 220.744858,167.141517 220.700389,165.896381 C220.700389,163.8508 220.922735,163.272701 223.2796,159.6707 C224.747082,157.491711 225.992218,155.4906 226.125625,155.268254 C226.259033,155.001439 226.92607,153.934179 227.682046,152.822451 C228.838243,151.043685 228.971651,150.510055 228.882713,147.664029 C228.838243,145.974202 228.526959,143.661806 228.126737,142.639015 C227.770984,141.571756 227.4597,140.237681 227.4597,139.704051 C227.4597,138.903607 226.837132,138.369977 224.30239,137.080372 Z M124.068927,156.824674 C121.489717,156.824674 120.733741,157.625119 120.733741,160.382206 C120.733741,161.582873 120.911618,162.650133 121.133963,162.78354 C121.356309,162.916948 122.512507,162.78354 123.757643,162.516725 C126.870484,161.76075 128.382435,159.181539 126.692607,157.53618 C126.292385,157.091489 125.225125,156.824674 124.068927,156.824674 Z M168.982768,124.940294 C165.158421,124.895825 163.15731,125.073701 161.867704,125.562862 C157.598666,127.163751 156.442468,127.608443 155.108394,128.186542 C154.307949,128.542295 152.973874,129.075925 152.217899,129.387209 L151.873546,129.527175 C151.702376,129.597214 151.532344,129.667503 151.361781,129.738793 L151.01945,129.882929 C149.127293,130.685458 147.036131,131.669588 142.523624,133.834124 C137.098388,136.457804 136.698166,136.813557 131.183991,143.706275 C126.781545,149.220449 126.247916,149.70961 122.957198,150.999215 C121.445247,151.621784 120.022235,152.466697 119.799889,152.911389 C119.787479,152.934141 119.775021,152.956339 119.762664,152.977991 L119.726051,153.04131 L119.690947,153.101385 L119.658253,153.158251 C119.252791,153.876819 119.686131,153.791464 129.849917,153.267142 C138.387993,152.777981 140.12229,152.466697 147.637576,150.065363 C149.861034,149.398326 152.751529,148.464474 154.085603,148.108721 C155.419678,147.708498 157.242913,147.130399 158.087827,146.774646 C158.93274,146.463362 160.177877,146.107609 160.844914,145.974202 C162.534742,145.618448 164.402446,143.884152 165.558644,141.660694 C166.136743,140.593434 166.981656,139.081483 167.426348,138.369977 C167.463976,138.311825 167.501867,138.252884 167.539838,138.193457 L167.767184,137.833493 C168.142854,137.231935 168.490187,136.642522 168.627015,136.368865 C168.804892,136.013112 170.094497,133.700716 171.51751,131.299382 C172.940523,128.898048 174.185659,126.496714 174.230128,125.963084 C174.319066,125.073701 174.14119,125.029232 168.982768,124.940294 Z M219.677599,102.572312 C210.116732,102.12762 198.999444,102.12762 188.549194,102.616781 C169.027237,103.506164 164.046693,103.861917 162.534742,104.528954 C161.378544,105.018115 160.311284,106.174313 158.576987,108.797993 C155.8199,112.933623 154.886048,113.956414 149.371873,118.581205 C144.257921,122.939182 139.277376,126.674591 134.38577,129.876369 C132.206782,131.299382 130.339077,132.766864 130.20567,133.122617 C129.849917,134.056469 130.428016,134.412223 131.317399,133.789655 C131.717621,133.478371 132.384658,133.122617 132.740411,132.944741 C133.033385,132.798254 133.959697,132.289859 134.972938,131.717599 L135.410914,131.469303 L135.630906,131.343851 C136.831573,130.632345 139.143969,129.34274 140.744858,128.453357 C142.345748,127.608443 144.257921,126.541183 144.969427,126.096492 C145.725403,125.6518 147.326292,124.762417 148.526959,124.139849 C151.017232,122.850244 154.619233,120.893601 159.199555,118.35886 C160.355753,117.736292 162.618739,116.540566 165.039837,115.285547 L165.769961,114.907777 L166.870484,114.341196 C167.480699,114.028059 168.085974,113.719245 168.671484,113.422784 L175.030573,110.176536 L182.456921,109.46503 C188.23791,108.886931 195.397443,108.709054 215.008338,108.664585 L240.133407,108.575647 L241.823235,109.642906 C242.757087,110.221005 243.424125,110.799104 243.290717,110.888043 C243.15731,111.02145 239.911062,111.288265 236.042246,111.466142 C234.851841,111.534556 233.522503,111.6156 232.173409,111.704093 L231.159748,111.771778 C228.456703,111.955565 225.793817,112.163965 224.124514,112.355525 C221.456365,112.622339 216.120067,113.1115 212.340189,113.511722 C211.051491,113.629702 209.657223,113.771759 208.232225,113.927309 L207.374138,114.022174 L206.512267,114.11977 L205.650206,114.219588 C200.914933,114.773768 196.334018,115.405745 194.596998,115.73518 C193.841023,115.913056 193.663146,116.090933 194.018899,116.446686 C194.330183,116.75797 196.375764,116.846909 199.977765,116.669032 C202.560682,116.593064 209.134299,116.289983 215.597064,116.009207 L216.541567,115.968306 C217.3272,115.934403 218.108208,115.901013 218.877154,115.868587 C224.389077,115.645679 227.703208,115.524349 229.821072,115.517222 L230.163145,115.517093 C232.206405,115.52285 233.044791,115.649983 233.765628,115.912198 L233.881661,115.955906 C233.92011,115.970871 233.958388,115.986234 233.996665,116.001995 C234.646301,116.28041 236.092179,116.881627 237.645657,117.521204 L238.23191,117.762289 C238.722416,117.963765 239.215023,118.165516 239.688716,118.35886 C243.557532,119.959749 250.050028,122.894713 252.362424,124.139849 C254.007782,124.984763 258.854919,125.6518 266.414675,126.096492 C273.085047,126.452245 273.085047,126.452245 277.087271,128.364418 C279.266259,129.431678 282.468038,131.121506 284.157865,132.144296 C285.892162,133.122617 287.58199,134.100939 287.937743,134.278815 C288.293496,134.456692 289.227349,134.990322 289.938855,135.479482 C290.69483,135.968643 291.673152,136.546742 292.162312,136.769088 C292.651473,136.991433 293.807671,137.70294 294.741523,138.325508 C295.675375,138.948076 296.520289,139.481706 296.609227,139.481706 C296.698166,139.481706 298.03224,140.32662 299.58866,141.34941 C301.145081,142.41667 303.057254,143.617337 303.81323,144.017559 C305.280712,144.862473 307.504169,145.084819 307.504169,144.417781 C307.504169,144.212112 304.488792,141.0957 301.058088,137.659796 L300.498528,137.100231 L299.93415,136.537521 C296.255378,132.875001 292.42746,129.168754 291.495275,128.453357 C290.383546,127.608443 288.11562,126.229899 284.380211,124.228787 C283.268482,123.606219 281.667593,122.716836 280.822679,122.227676 C279.977765,121.694046 278.287938,120.760194 277.042802,120.137626 C276.207555,119.6736 274.597587,118.822213 272.94645,117.942757 L272.326776,117.612347 C271.811162,117.337078 271.300481,117.063454 270.817121,116.802439 C268.858138,115.749223 264.614229,113.578488 260.311503,111.415105 L259.355278,110.934931 C254.896823,108.698953 250.552451,106.560492 248.804892,105.77409 C245.20289,104.128732 242.001112,103.550633 235.019455,103.283818 C231.239578,103.105941 224.346859,102.794657 219.677599,102.572312 Z M76.5904273,55.2075841 C74.6797413,54.5803818 72.2746353,54.7781987 60.7003891,56.1020504 C51.9399666,57.1248408 47.6709283,57.6584706 46.8260145,57.9252855 C46.1345734,58.1286505 46.038347,59.001632 46.0269569,68.0638057 L46.026217,68.8063924 C46.0261206,68.9331161 46.0260369,69.0613313 46.0259646,69.1910559 L46.0259539,71.7012158 C46.0340742,80.7407379 46.17266,83.5436205 46.6036687,83.6729231 C46.8704836,83.7618614 47.8488049,83.7173922 48.6937187,83.5395156 L50.250139,83.1837624 L50.4724847,79.4483539 L50.6948305,75.6684762 L53.3629794,75.1348464 C54.4024458,74.9143535 56.468254,74.6269253 58.580545,74.383191 L59.326394,74.2991615 C59.9468841,74.2309491 60.561423,74.1676424 61.1450806,74.1120559 C63.946637,73.8897102 67.3262924,73.4894878 68.6603669,73.2226729 C69.9499722,73.0003272 71.8621456,72.7779814 72.8849361,72.7335123 C75.5975542,72.7335123 78.4880489,71.1326229 79.688716,68.9981037 C80.5336298,67.5306218 80.7115064,66.5523005 80.7115064,63.1726451 C80.7115064,59.7040515 80.5780989,58.9036068 79.688716,57.6140015 C79.1550862,56.7690876 78.1767649,55.8797046 77.5986659,55.6128897 C77.3006715,55.4779489 77.0254257,55.3600695 76.7444356,55.2602403 Z M326.181212,54.7679759 C318.754864,53.611778 317.954419,53.8341237 318.265703,56.6356802 C318.399111,57.7918781 318.576987,57.9252855 321.511951,58.4144461 C323.246248,58.7257302 326.448027,59.0814834 328.627015,59.25936 C330.850472,59.4372366 332.896053,59.7485206 333.207337,60.0153355 C333.593266,60.3155023 333.731098,62.8485422 333.740451,69.9669466 L333.740989,71.1709584 C333.741006,71.3007997 333.741032,71.4291249 333.741072,71.5559515 L333.741934,72.6573929 C333.755157,82.2145803 333.943147,82.2788669 336.498054,82.0275645 L337.965536,81.8941571 L338.098944,71.6662527 C338.143413,65.8852633 338.410228,61.2604717 338.632574,61.038126 C339.210675,60.460027 343.257365,60.6379036 348.148972,61.4828175 C350.32796,61.8385707 352.373541,62.0609164 352.684825,61.927509 C353.48527,61.6162249 353.48527,58.8146685 352.773763,58.1921004 C352.462479,57.9697547 350.283491,57.5250632 347.971095,57.2582483 C345.658699,56.9469642 341.656476,56.4578036 339.077265,56.1020504 C336.498054,55.701828 333.518621,55.4350131 332.406893,55.4350131 C331.295164,55.4350131 328.493608,55.1237291 326.181212,54.7679759 Z M124.335742,51.6996046 C123.802112,50.4099992 123.40189,50.3655301 118.287938,50.9880982 C116.820456,51.1659748 113.929961,51.3438514 111.839911,51.3883205 C109.749861,51.4327897 105.569761,51.7440737 102.50139,52.0998269 C102.16046,52.139355 101.812392,52.1783342 101.461092,52.2163983 L100.755338,52.2911981 C98.1602491,52.5601955 95.5312622,52.7668642 94.4080044,52.7668642 C93.0294608,52.7668642 91.7843246,52.9447408 91.6509172,53.1670865 C91.4689979,53.450072 91.3789571,58.7404307 91.3724421,64.4609475 L91.372985,66.18543 C91.3841023,72.5222838 91.4952752,78.8257858 91.6953863,79.0036624 C91.8732629,79.181539 94.4524736,79.0481315 97.3874375,78.7368475 C97.5148356,78.7224251 97.6418114,78.708165 97.7685765,78.6940481 L98.1484514,78.6521074 C102.577887,78.1673565 107.008398,77.8342439 120.511395,76.8246741 C124.024458,76.5578592 124.068927,76.5578592 124.335742,75.2237847 C124.46915,74.4678091 124.46915,73.6228953 124.380211,73.3116112 C124.113396,72.5556357 117.66537,72.6001048 110.283491,73.4005495 C102.768205,74.2454634 96.4091162,74.42334 95.8310172,73.845241 C95.5642023,73.5784261 95.3863257,72.1109442 95.475264,70.5100548 L95.6086715,67.6640292 L100.944969,67.1303995 C103.879933,66.8191154 109.438577,66.3744239 113.307393,66.1965473 C120.600334,65.796325 121.133963,65.6184484 121.178432,63.7952132 C121.178432,61.6606941 121.045025,61.6162249 114.330183,61.8830398 C110.906059,62.0164473 105.391884,62.4611388 102.101167,62.8168919 C98.4546971,63.2615834 96.0088938,63.3505217 95.7420789,63.0837068 C95.5197332,62.8613611 95.3863257,61.3938792 95.475264,59.8374589 L95.6086715,57.0359025 L103.168427,56.2354578 C103.548436,56.199074 103.932855,56.1630576 104.318945,56.1276093 L105.479486,56.0231686 C108.959707,55.7161611 112.353328,55.471397 113.663146,55.4350131 C115.264036,55.4350131 118.15453,55.3016057 120.022235,55.1237291 C122.912729,54.9013833 123.579767,54.6790376 124.113396,53.8785929 C124.602557,53.1226174 124.647026,52.5889876 124.335742,51.6996046 Z M297.187326,52.1887652 C287.404113,51.2549131 279.710951,50.943629 277.709839,51.4327897 C276.864925,51.6551354 275.708727,52.3221727 275.175097,52.9892099 C275.086159,53.0902762 275.004938,53.1847272 274.930768,53.2798798 L274.858922,53.3755373 C274.233013,54.2434374 274.160078,55.3657238 274.152995,62.0763891 L274.152307,73.1782038 L275.708727,74.734624 C276.59811,75.624007 277.887715,76.3799826 278.68816,76.51339 C283.535297,77.3583038 293.185103,78.1142794 299.544191,78.2032177 C301.144287,78.2341873 302.404085,78.255571 303.407035,78.2595805 L304.061375,78.2594848 C306.522801,78.2472331 307.162223,78.0879609 307.751764,77.6162703 L307.849862,77.5347341 C307.882611,77.5065722 307.915509,77.4774176 307.94886,77.4472421 C309.994441,75.624007 310.172318,74.6012166 310.172318,66.2410165 L310.172229,65.8519385 C310.168872,58.8350029 310.066704,58.162719 309.149528,56.5467419 C307.504169,53.611778 305.90328,53.0336791 297.187326,52.1887652 Z M251.695386,49.2538013 C239.332963,48.5867641 229.238466,48.5867641 229.238466,49.2982705 C229.210864,50.5771419 229.196588,52.3756837 229.192879,54.4268731 L229.19203,55.119594 C229.191101,56.5222852 229.194732,58.0240779 229.202107,59.5458543 L229.206103,60.3080415 L229.2107,61.0713616 C229.252267,67.5581705 229.356539,73.9295791 229.460812,74.1120559 C229.905503,74.8235623 232.17343,75.0014389 247.026126,75.4016613 C251.54597,75.5261749 254.793285,75.6158247 257.109737,75.6208252 L257.591996,75.6205829 C262.820901,75.6030042 262.859633,75.0803819 262.38933,73.3706074 L262.345977,73.2143017 L262.323513,73.1337346 L261.878822,71.6662527 L257.25403,71.5773144 C256.9742,71.5708067 256.694422,71.5640081 256.414857,71.5569281 L255.576953,71.5348538 C255.437461,71.5310374 255.298062,71.527153 255.158775,71.5232019 L254.324562,71.4987047 C243.917729,71.1827268 234.366518,70.5051741 234.041134,69.976425 C233.418566,68.9981037 233.640912,64.4622505 234.352418,63.8841515 C234.601289,63.6805296 235.322103,63.5689941 237.018506,63.5612575 L237.383572,63.5611418 C239.027277,63.5670916 241.483085,63.6571248 245.113952,63.8396824 C250.717065,64.1064973 255.964425,64.4622505 256.853808,64.5956579 C258.81045,64.8624728 259.610895,64.1064973 259.388549,62.0164473 L259.255142,60.5489653 L255.475264,60.1932121 C253.743508,60.0458287 249.538869,59.8068569 245.36563,59.6280717 L244.503471,59.5919903 C243.930093,59.5685749 243.360597,59.5465036 242.801556,59.5261749 L233.907727,59.2148908 L233.907727,52.9892099 L239.244024,53.0781482 C242.178988,53.1226174 248.3602,53.3894322 252.984992,53.7007163 C260.944969,54.1898769 261.43413,54.1454078 262.012229,53.3894322 C262.946081,52.1442961 262.723735,50.5878758 261.612007,50.1431843 C261.033908,49.9208386 256.586993,49.5206162 251.695386,49.2538013 Z M169.205114,48.853579 C168.093385,48.7646407 167.026126,48.853579 166.848249,49.0314556 C166.670372,49.2093322 166.536965,53.8341237 166.536965,59.25936 L166.53648,60.0618887 C166.527341,67.3586145 166.38669,69.2833197 165.914397,69.7985484 C165.113952,70.554524 161.645359,70.9102772 150.038911,71.2660304 C147.017745,71.376177 145.037768,71.4473487 143.718738,71.4519631 L143.389386,71.451639 C141.290329,71.4391706 141.090349,71.2181405 140.789327,70.6434623 C140.478043,70.0653633 140.300167,66.3299548 140.300167,60.148743 L140.30003,59.0534407 C140.299984,58.9360747 140.299923,58.8201372 140.299842,58.7056119 L140.299072,58.0352783 C140.284656,49.4289452 140.080437,49.4342938 137.187326,50.054246 L135.630906,50.3655301 L135.497499,59.8819281 C135.485211,60.9386555 135.477451,61.9131427 135.475815,62.812756 L135.475951,63.5656884 C135.49505,71.7725136 136.117141,73.3127815 138.743747,74.6456857 C138.928933,74.7431524 139.101302,74.8304718 139.275661,74.9083463 L139.407035,74.9649923 C140.244362,75.3126732 141.210111,75.4512157 143.891225,75.4558897 L144.329045,75.4555261 C146.063774,75.4499523 148.457514,75.3967879 151.862146,75.312723 C171.650917,74.8680315 171.51751,75.0014389 171.339633,58.7701993 L171.206226,48.9869864 Z M284.068927,55.4350131 C286.826014,55.4350131 291.539744,55.7462972 294.608116,56.1020504 C297.676487,56.4578036 301.011673,56.7690876 302.034464,56.7690876 C303.501946,56.7690876 304.080044,56.9914334 304.791551,57.9252855 C305.636465,58.9925451 305.725403,59.7040515 305.725403,65.4850409 C305.725403,72.0220059 305.325181,74.0675868 303.991106,74.1565251 C302.123402,74.3344017 296.297943,74.0231176 288.60478,73.3560804 C278.80977,72.5365775 278.158309,72.8814218 278.145631,66.9076209 L278.145676,66.480498 C278.147122,65.7512261 278.15453,64.934168 278.15453,64.017559 C278.15453,60.148743 278.376876,56.7690876 278.599222,56.279927 C279.043913,55.5239514 279.577543,55.4350131 284.068927,55.4350131 Z M204.338759,48.3750008 L202.159678,48.3751904 C202.013258,48.3754009 201.866719,48.3756507 201.720125,48.3759398 L200.840438,48.3781442 L199.96261,48.3812842 C194.123641,48.4053226 188.619145,48.4913303 187.659811,48.6312333 C185.658699,48.9425173 183.657588,50.6768141 183.079489,52.6779259 C182.768205,53.7451854 182.545859,57.3471866 182.545859,61.927509 C182.590328,68.0642516 182.723735,69.7096101 183.346304,70.9992155 L183.435564,71.1770462 C184.87204,74.023171 185.373207,74.0257858 201.889939,74.1565251 C203.534568,74.1740211 205.12757,74.1829126 206.627981,74.1845536 L207.735288,74.184446 C213.29958,74.1771642 217.35281,74.0683158 217.587549,73.9341793 C217.987771,73.7118336 218.121178,71.6217836 218.121178,66.7746463 C218.121178,66.5434067 218.12112,66.3198702 218.120966,66.1037609 L218.120182,65.4774391 C218.111047,60.6407053 218.026167,59.9231861 217.363032,59.5117291 L217.277092,59.4616152 L217.231795,59.4372366 C216.698166,59.1259525 213.274041,59.0370142 208.026681,59.0814834 L199.666481,59.2148908 L199.533074,60.8157802 C199.444136,61.7496324 199.622012,62.5945462 200.022235,62.9058302 C200.377988,63.2171143 203.046137,63.43946 206.826014,63.5283983 L213.007226,63.6618058 L213.007226,69.8874867 L200.733741,70.0208942 C198.528071,70.0386818 196.710172,70.0511332 195.208894,70.054335 L193.81052,70.0543086 C189.050806,70.0418441 188.229016,69.8874867 187.837688,69.3983261 C187.037243,68.4200048 186.948305,53.9675312 187.70428,53.2115557 C188.047974,52.8678619 191.878121,52.7316951 200.357574,52.7228584 L201.652336,52.7223102 C208.691875,52.7192045 214.704995,52.6310744 215.141745,52.5000493 C216.164536,52.1887652 216.209005,48.9869864 215.186215,48.5867641 C214.854944,48.4503587 209.938221,48.3822655 204.338759,48.3750008 Z M67.9043913,59.4372366 C75.9683308,58.7972414 76.2543151,58.730359 76.2642496,63.085739 L76.2642888,63.9460823 C76.25784,66.7063461 76.1412254,67.0242473 75.1083936,67.8419058 C74.3079489,68.4644739 73.2851584,68.775758 71.8621456,68.775758 C70.7504169,68.775758 67.504169,69.087042 64.7026126,69.4427952 C54.0300167,70.7768697 51.3618677,71.0436846 50.9171762,70.7768697 C50.6503613,70.6434623 50.4722796,68.7312888 50.4722796,66.3299548 L50.4723517,65.4512972 C50.4811452,61.2688919 50.741352,61.3138347 56.8760422,60.7713111 C59.4107838,60.5489653 61.9899944,60.2376813 62.6125625,60.1042738 C63.2351306,59.9263972 65.6364647,59.6595823 67.9043913,59.4372366 Z" id="peugeot" fill="#FFFFFF"></path>
</svg>