<?xml version="1.0" encoding="UTF-8"?>
<svg width="400px" height="500px" viewBox="0 0 400 500" version="1.1" xmlns="http://www.w3.org/2000/svg">
    <title>porsche</title>
    <path d="M313.30564,428.632319 C283.266147,456.038923 257.406536,470.810386 202.928919,499.425664 C152.219198,476.329905 119.121188,453.564279 90.4186021,431.142431 C50.7533747,400.218941 22.2608743,350.005786 19.7889596,319.210531 L0,26.1031078 C134.059083,-8.79290674 276.652547,-7.99894738 400,28.4467885 L379.921832,318.585731 C377.365337,344.862785 353.890333,395.951751 313.30564,428.632319 Z M356.954306,308.973639 L375.073496,49.8836912 C268.917582,16.0326473 141.764036,15.5306249 24.6072834,46.3258802 L43.1002612,308.807208 C45.0264994,336.085578 64.6490277,377.805278 102.26524,409.773737 C124.902631,429.022477 169.25522,461.326528 202.012182,473.710657 C239.756628,454.590151 274.063312,430.82321 301.262559,407.350934 C334.985369,376.591147 354.902563,338.347407 356.954306,308.973639 Z M296.90806,400.50815 C270.838364,423.022764 235.737721,448.254847 202.012182,464.363218 C171.888109,455.032149 127.369089,420.635429 105.945828,402.142451 C68.5806271,369.8384 53.3917207,336.033739 51.0916941,304.059822 L32.931579,53.5069834 C144.481505,24.1768696 266.241039,24.1768696 367.409469,56.4345381 L349.462168,303.642379 C346.867476,336.530304 331.593989,367.953088 296.90806,400.50815 Z M41.2695165,58.3771465 L44.8682532,101.559259 C151.354301,74.9056888 262.906955,77.5849606 355.500078,105.619093 L359.475332,61.6839463 C263.529027,32.2255985 147.046185,30.6349514 41.2695165,58.3771465 Z M306.075426,74.4036664 L282.057473,70.4284128 L281.13528,81.7266455 L273.313007,80.553441 L275.151937,50.5957991 L283.146098,51.7690037 L282.308485,63.2745934 L306.662028,67.2061929 L307.455988,55.7006031 L315.613852,57.2475961 L313.147394,87.2898178 L305.196887,85.8274047 L306.075426,74.4036664 L306.075426,74.4036664 Z M190.165545,64.2377125 C187.235262,64.2377125 184.891581,63.4437532 183.344588,60.8490612 C182.00768,58.715466 182.00768,51.7690037 183.344588,49.4689771 C184.809729,46.7924337 187.445347,46.0394 189.622596,46.0394 L223.680997,46.0803258 L223.760121,53.4442306 L191.546106,53.4005765 C189.955459,53.4005765 189.914533,56.9583875 191.671612,56.9583875 L217.067398,56.9583875 C220.041335,56.9583875 222.674224,58.7563917 223.509109,61.1000724 C224.431303,63.6101845 224.264871,69.3015908 223.509109,71.6452715 C222.79973,73.9889522 220.120458,75.284934 216.772733,75.284934 L183.178157,75.284934 L183.134502,67.7518694 L213.04849,67.7518694 C213.965319,67.6795571 214.672441,66.9144668 214.672441,65.994791 C214.672441,65.0751151 213.965319,64.3100248 213.04849,64.2377125 L190.165545,64.2377125 L190.165545,64.2377125 Z M170.461165,67.2307483 C170.447094,66.4737013 170.128712,65.7542253 169.577878,65.2347062 C169.027044,64.7151871 168.290185,64.4394126 167.53361,64.4696251 L144.937145,66.1011979 L145.395513,77.3148507 L138.072534,78.0678844 L136.522813,48.4867593 L170.1665,45.9739189 C174.51827,45.6410562 177.069308,48.9042019 177.276665,51.6243994 C177.527676,54.8466193 177.653182,58.9883042 175.140341,60.704457 C177.235739,62.2514499 177.778687,64.5542049 177.819613,67.7764249 L177.904193,75.3504152 L170.581214,75.6423521 L170.461165,67.2307483 L170.461165,67.2307483 Z M165.66194,57.6295697 C168.548569,57.4631383 168.297557,52.983134 165.66194,53.2368736 L144.154099,54.8684464 L144.40511,58.9692056 L165.66194,57.6295697 Z M95.2041853,53.7006986 C102.106994,52.0691258 116.248201,49.8100249 123.65576,49.2643484 C127.044411,49.0160655 129.680029,50.773144 130.141126,53.4087617 C131.22975,59.4766847 131.900932,65.7519649 131.147899,74.1635687 C130.937813,76.5891009 128.845144,78.5153391 126.084021,79.1019414 C116.589249,81.1946109 105.915816,82.3241613 98.0062344,83.077195 C95.9981447,83.2872804 92.8195789,81.6966333 92.2739023,79.1865213 C90.8933407,73.074944 90.3913183,64.540563 90.8087608,58.6827254 C90.9779206,56.5027476 92.9860102,54.202721 95.2041853,53.7006986 L95.2041853,53.7006986 Z M122.078755,71.7189378 C123.039145,71.5115808 123.459316,70.4638818 123.543896,69.7108482 C123.879487,67.4080932 123.584822,61.3838242 123.039145,59.3730062 C122.872714,58.5790468 122.20426,58.0770244 120.698193,58.20253 C116.597434,58.4535412 105.75757,60.0032626 100.404483,61.1737388 C98.9829954,61.5093298 98.4373188,62.3442149 98.3554673,63.0972486 C98.1044561,65.0644125 98.68833,70.4611534 99.1930808,73.4760163 C99.3185864,74.1881242 100.24078,74.6874182 100.950159,74.6492208 C108.18583,74.0626186 116.72294,72.8921424 122.078755,71.7189378 L122.078755,71.7189378 Z M240.733389,54.9475695 C239.140014,54.9039154 238.054117,55.8670345 237.93134,56.7046479 C237.552095,59.1738343 237.423861,62.3524001 237.423861,66.4968134 C237.423861,67.0397615 238.346054,68.5458288 239.140014,68.6713344 C246.340216,69.6753792 260.312263,70.9331636 267.927179,71.435186 L267.468811,79.1756077 C257.46656,78.7172394 247.005941,77.1265923 236.171533,76.3708303 C232.616451,76.1198191 230.021759,74.1963093 229.893525,70.7667323 C229.686168,65.1162518 230.021759,56.5791423 231.023075,51.6025723 C231.694257,48.5467837 234.619084,46.958865 237.928612,47.0407165 C247.925406,47.4172333 255.875913,48.2957725 268.974878,50.052851 L268.472856,57.7550753 C262.112996,57.2066704 250.064458,55.3240863 240.733389,54.9475695 L240.733389,54.9475695 Z M76.9976877,57.1930284 C87.1227158,54.808422 88.6697088,72.7993774 80.2171793,74.8920469 L56.6193974,80.7935387 L57.7489479,92.424634 L50.3441173,94.3945263 L47.7084996,64.0958366 L76.9976877,57.1930284 L76.9976877,57.1930284 Z M76.8749105,68.9769133 C79.3004427,68.4339651 78.96758,64.0849231 76.3701597,64.6278713 L55.0724045,69.773601 L55.5771553,74.2536054 L76.8749105,68.9769133 L76.8749105,68.9769133 Z M327.272231,78.8891275 L326.770209,83.7429203 L350.157905,89.6416837 L349.530377,96.4217147 L318.14852,89.0168841 L320.871445,58.5108373 L352.46066,66.1694075 L351.751281,73.2823011 L328.23535,67.5908948 L327.776982,72.739353 L351.123753,78.4280309 L350.53715,84.4522998 L327.272231,78.8891275 L327.272231,78.8891275 Z M100.931061,165.708993 C97.6679149,170.060763 94.6557804,176.756214 93.234293,182.444892 C92.7295422,184.37113 92.7295422,185.08051 93.0678617,186.335566 C96.1618477,184.955004 100.180755,183.615368 102.521708,182.862335 C103.443901,180.816048 103.943195,178.469639 104.739883,176.587055 C105.99221,173.6595 106.788898,172.401716 108.087608,170.3527 C111.811851,164.579442 119.677778,158.888036 125.491962,159.013542 C123.565723,160.68604 119.549544,164.871379 117.961625,167.381491 C116.665644,169.474161 115.451513,171.733262 114.52932,174.076943 C113.735361,176.17234 113.484349,177.716605 113.274264,179.432758 C116.286398,178.554219 119.257607,177.926691 121.181117,177.801185 C122.479827,177.089077 122.89727,175.705787 123.609377,174.409805 C125.824824,170.26812 130.176595,165.621685 132.940446,164.118346 C135.155893,162.904215 138.421767,161.733739 140.762719,162.486773 C138.252607,164.369357 135.61699,167.381491 134.446513,169.182224 C133.232383,171.105734 131.265219,174.832705 131.349799,176.587055 C133.401543,176.756214 136.329098,176.587055 137.502302,176.295118 L137.374068,170.519132 L197.499437,170.475477 L197.458512,88.2120112 C150.677662,88.2120112 99.422265,92.6483614 45.0701535,107.837268 L56.2838064,262.359221 L137.330414,262.359221 L137.330414,232.156025 C134.067268,229.730493 118.919288,227.970686 109.590947,231.610348 C107.331846,232.488887 99.9679415,235.670182 96.620216,238.303071 L87.2072957,245.754284 C86.2851023,246.507318 86.2032509,248.138891 86.2032509,249.391218 C86.2032509,252.152341 82.9810309,254.245011 81.1830267,253.658409 C79.7178852,253.156386 77.7097956,252.864449 75.8681373,253.28462 C73.9009734,253.699334 72.1466233,251.22742 71.9774636,249.811389 C71.7264524,248.051582 73.1097424,245.754284 73.1915939,244.998522 C73.2761737,244.286414 72.815077,241.481637 75.4070406,239.768212 C76.5775168,239.017907 78.2090896,239.056105 79.3822942,239.686361 C79.7233568,239.885029 80.1275456,239.94556 80.5118446,239.855521 C80.9320155,239.686361 82.061566,238.685045 82.3535029,238.434033 C82.4790085,236.761535 82.2279973,234.123189 82.397157,232.660776 C82.7736738,229.815072 82.9401052,228.1835 83.8186444,225.419648 C84.571678,223.035041 86.2032509,219.564539 87.4146528,217.594646 C89.5919022,214.039564 93.9000184,210.607258 97.1249667,210.899195 C95.8671823,212.574422 95.4497398,213.452961 94.5302748,215.169114 C92.8141221,218.306754 91.223475,223.496138 90.4731698,227.010295 C89.968419,229.269396 89.7201361,231.029203 89.8456417,233.411081 C92.3148281,231.572151 94.9067916,230.063355 96.6229443,229.102965 C97.4169037,224.958551 99.0512049,220.484004 100.805555,217.179932 C102.898225,213.20195 108.545977,208.891106 112.232022,209.226697 C108.758791,212.991865 106.286876,218.222174 105.367411,221.5699 C104.990894,222.906807 104.529797,224.459257 104.742611,225.294142 C106.120444,224.541109 108.968876,223.788075 110.346709,223.662569 C111.268903,221.362543 112.523959,218.598691 113.571658,216.967118 C116.834803,211.944166 121.980533,208.891106 124.910816,209.016611 C122.608061,212.113326 120.640897,214.915375 119.21941,219.059788 C118.799239,220.27119 118.591882,221.5699 118.591882,222.197428 C120.389886,221.905491 123.194663,221.905491 124.324214,221.905491 C126.416883,220.022907 127.920222,217.761078 130.433063,215.837568 C132.525732,214.203267 136.416406,211.98782 137.335871,211.81866 L137.335871,186.420146 C137.335871,185.874469 130.684074,185.375175 127.377274,185.792618 C118.591882,186.840317 96.6256727,193.743125 87.3355297,200.146639 C87.1254442,200.692316 87.1690983,203.745376 86.5388419,205.166863 C85.9958938,206.462845 84.6153321,207.802481 83.2784246,208.389083 C80.8938182,209.436782 78.1299665,206.255488 76.9158362,206.716585 C75.6607802,207.177681 72.9842368,208.263578 70.0948795,206.214562 C68.7988977,205.295097 68.130444,202.697677 68.5888123,200.776896 C69.0089832,199.393605 70.1794594,198.307709 71.0989243,197.42917 C71.9365378,196.591556 71.3499355,193.369337 74.3593416,191.445827 C76.4547395,190.106191 79.33864,191.194816 81.5595435,192.365292 C82.0109792,192.22165 82.4247848,191.979331 82.7709455,191.655912 C83.0628824,190.774645 83.5239791,188.098101 83.94415,186.005432 C84.4461724,183.743602 84.6153321,182.281189 85.2837859,180.191248 C86.9590129,175.130098 90.9724638,167.848045 95.1605312,164.039223 C98.4646026,161.10894 103.610332,158.767987 107.419155,159.018999 C107.039909,159.597416 102.314351,163.826409 100.931061,165.708993 L100.931061,165.708993 Z M110.603177,116.177934 C113.784471,111.744312 122.152421,105.048861 128.596861,105.428106 C125.079976,108.481166 121.983261,111.869817 119.80874,115.468554 C116.965766,120.11499 114.663011,125.929173 114.160988,130.409178 C116.294583,129.61249 121.314808,128.191003 124.201436,127.563475 C126.755203,121.997574 130.102928,115.847799 134.247342,112.541 C137.215822,110.156393 141.483012,108.107378 145.460994,108.565746 C144.538801,109.864456 143.032734,110.868501 141.903183,111.913472 C139.854168,113.711476 138.432681,116.139736 137.300402,118.608923 C136.462788,120.447853 135.041301,125.972827 134.997647,126.223839 C137.884276,126.182913 142.98908,126.515776 144.077704,126.851367 C147.469084,122.415016 154.876643,115.970577 163.743887,117.435718 C159.894139,119.525659 152.865825,125.63178 153.285996,128.982234 C159.059254,132.709204 167.678215,140.531477 168.054731,147.772605 C164.123132,143.671846 157.637766,139.612013 154.371892,138.482462 C146.546891,135.721339 137.215822,135.344822 129.434474,136.766309 C113.200598,139.822098 98.8493046,146.850412 85.084614,155.095584 C84.7517513,157.311031 83.5348926,160.658757 82.5308478,161.791035 C81.5268029,162.920586 80.0207357,164.006482 78.3891629,164.257493 C76.3401475,164.593084 74.2447496,163.755471 72.4903995,162.836006 C71.3581207,162.208478 68.3896403,163.005166 66.5070563,161.998392 C65.2110745,161.32721 63.2002565,159.444626 63.745933,156.476146 C64.2043013,153.840528 66.839919,152.249881 67.2164358,149.739769 C67.7593839,146.056452 70.4386557,144.465805 71.8192174,144.217522 C73.3252846,143.925586 74.875006,144.427608 76.2528392,145.055136 C76.8394415,145.347073 77.4642411,145.849095 78.0126461,146.018255 C78.5555942,145.849095 79.3495536,145.180642 79.8106502,144.973285 C79.9361558,144.553114 81.3194459,136.897272 82.0697511,133.549546 C82.8227847,130.201821 84.1187665,127.353389 85.2073912,124.218477 C88.4732653,114.931063 98.5546393,105.55634 106.63338,106.058362 C106.213209,106.644965 103.618518,108.527549 100.019781,112.712888 C94.2055973,119.531116 92.7404558,126.772244 90.5632064,139.200027 C95.0404824,137.107357 98.9311561,135.60129 102.99099,134.136148 C103.958942,130.284067 105.24666,126.519479 106.840737,122.88157 C107.885708,120.529704 109.140764,118.229677 110.603177,116.177934 L110.603177,116.177934 Z M354.455108,126.466665 L204.91791,126.594899 L205.046144,170.611897 L351.110111,170.527317 L354.455108,126.466665 L354.455108,126.466665 Z M222.087622,354.371199 C220.371469,355.249738 218.240602,354.70679 217.362063,354.327545 C215.853268,353.700017 214.851951,352.147567 214.723717,350.352291 C214.60094,348.930804 215.981502,347.214651 216.273439,345.662201 C216.396216,345.034673 215.73049,341.943416 218.36338,340.35004 C218.870859,340.058103 220.371469,339.512427 221.41644,339.684315 C222.466867,339.891672 223.301752,340.562854 224.346723,340.729285 C225.768505,340.225529 227.130091,339.565782 228.406556,338.762121 C229.24417,335.537173 229.871698,331.818387 230.286412,328.508859 C222.79973,332.233102 213.004836,334.743214 204.68054,335.078805 L204.724195,455.463234 C239.661135,437.717833 277.986726,408.682384 294.302455,392.737716 C320.707742,367.00361 338.488612,340.936642 341.206082,303.361356 L343.67254,269.133795 L264.303887,269.049215 C264.303887,288.461658 257.818522,308.717171 239.279161,323.360401 C238.234191,327.586666 237.734897,334.69956 237.81402,334.871448 C240.367786,333.82102 242.755121,332.904284 244.84779,332.276756 C245.014222,332.025744 247.98543,325.540379 249.325066,323.7833 C252.462706,318.929508 256.688971,314.782366 261.831973,312.021243 C265.056921,310.38967 268.98852,308.883603 272.461751,310.182313 C267.899896,312.356834 264.339356,316.288433 262.208489,318.547534 C260.241325,320.642932 257.941299,323.736918 256.896328,326.918212 C256.753703,327.469095 256.641668,328.027448 256.560737,328.590711 C258.697061,327.919529 265.512561,326.918212 268.358264,326.538967 C268.693855,326.495313 269.572394,324.615457 270.243576,323.693264 C271.075733,322.563713 271.580484,321.854334 272.917391,320.345538 C276.349697,316.621296 282.16388,312.646042 287.811632,313.524582 C284.720375,315.491745 281.326267,318.629386 278.608798,323.56503 C278.229552,324.320792 277.730258,325.365762 277.937616,325.824131 C278.775229,325.99329 282.919642,325.908711 285.429754,326.203376 C288.313655,324.4081 291.372172,322.814725 294.676243,322.105345 C298.400486,321.267732 303.257007,321.936185 305.180517,323.693264 C302.921416,323.56503 300.785092,323.985201 298.738805,324.77916 C297.565601,325.242985 295.22192,326.328881 294.343381,327.83222 C296.558827,328.459748 300.203947,330.847083 302.501245,332.773321 C304.09462,334.110229 306.01813,336.039195 307.23226,337.793545 C310.285321,341.940687 310.915577,349.383715 309.278547,351.604619 C308.820179,350.30318 308.318157,349.009927 307.606049,347.795796 C306.140907,345.329338 303.838152,342.647338 301.870988,341.182197 C292.376217,333.946526 278.696106,333.567281 267.52065,335.826382 C257.93857,337.793545 240.656995,341.395011 229.36149,349.424641 C229.653427,350.846128 228.774888,353.233463 227.481635,354.1502 C225.76821,355.413441 223.345406,353.700017 222.087622,354.371199 L222.087622,354.371199 Z M240.733389,367.901248 C241.985717,365.977739 243.494513,363.17569 244.244818,361.958831 C246.883164,357.732566 250.691986,354.594926 253.281221,353.378067 C256.841761,351.661915 262.568636,350.660598 265.122402,351.912926 C262.320353,352.584108 260.186758,353.88009 258.222322,355.260651 C256.214233,356.64667 252.274448,360.242678 251.273132,361.751474 C250.143581,363.423972 249.393276,364.927311 249.098611,365.726727 C252.274448,365.011891 256.085999,364.425289 258.050434,364.425289 C259.471922,362.624556 263.239818,358.319168 266.044595,356.30835 C268.303696,354.714975 273.116563,353.127056 276.125969,354.423038 C273.242069,355.345231 268.137265,359.364139 266.251952,362.250768 C265.837238,362.916493 265.457993,363.631329 265.373413,364.005118 C266.923135,364.133352 269.850689,364.425289 271.444065,364.632646 C271.610496,364.632646 275.962266,361.958831 277.92943,361.413154 C280.483197,360.698318 284.665807,359.781582 287.304153,362.586359 C285.380643,362.624556 283.579911,362.793716 282.155695,363.423972 C280.103951,364.340709 279.225412,365.011891 278.308676,366.307873 C282.322127,368.444197 286.510194,370.662372 288.976652,374.593971 C289.855191,375.974533 291.192099,379.240407 290.441793,381.371274 C289.184009,379.783355 287.467856,378.233634 286.087295,377.439674 C284.120131,376.310124 282.698643,375.224228 280.311308,374.302034 C272.824626,371.499985 263.035189,370.746952 255.207459,371.791922 C245.082431,373.087904 232.654648,378.110856 226.297516,382.459898 C226.712231,384.427062 225.754568,386.727089 224.625018,387.272765 C222.237683,388.486896 219.940385,386.435152 219.520214,386.563386 C218.892686,386.770743 216.966448,387.441925 215.588614,386.855323 C214.202596,386.312375 213.329514,383.881386 213.872462,382.337121 C214.287176,381.163917 215.96786,379.491418 215.96786,379.491418 C215.711392,376.937652 217.386619,375.393387 219.686645,375.095994 C220.988084,374.973216 221.902092,375.974533 222.952519,376.187347 C223.91291,375.723522 224.584092,375.393387 225.083386,375.136919 C225.669988,373.046978 226.548528,370.910654 227.13513,369.153576 C228.095521,366.185096 229.517008,363.54675 231.317741,360.788355 C233.912433,356.813101 238.517943,353.045205 243.993807,352.966082 C242.321308,354.262063 241.355461,354.974171 240.31049,356.270153 C238.515214,358.529254 237.129196,360.580998 235.876868,363.00653 C234.747318,365.142853 233.69689,368.318691 233.533187,371.123468 C235.901559,369.979926 238.302638,368.9054 240.733389,367.901248 L240.733389,367.901248 Z M239.92306,390.533183 C241.344547,389.94658 242.847886,389.531866 244.356681,389.701026 C240.839796,391.95467 237.620305,395.258742 236.741765,399.195798 C236.657186,399.610512 236.657186,400.448125 237.033702,400.699137 C238.035019,400.448125 240.588785,399.905177 241.259967,399.569586 C241.674681,398.691047 242.719652,397.310485 243.434488,396.388292 C245.9446,393.046023 249.546065,389.701026 254.522635,390.953354 C251.256761,392.418495 249.374177,394.464782 247.95269,397.059474 C247.701679,397.523299 247.537976,398.401838 247.86811,398.401838 C248.705723,398.401838 251.887018,398.273604 252.345386,398.273604 C253.810527,396.977623 258.080446,394.505708 261.010729,395.427901 C259.545984,396.112622 258.203157,397.032417 257.035476,398.150827 C256.743539,398.480961 256.364294,398.901132 256.285171,399.403155 C258.874406,400.699137 261.177161,402.164278 263.313484,404.008665 C264.443035,404.969056 266.074608,406.769788 267.075924,409.863774 C264.565812,407.689253 256.364294,403.793123 251.889746,403.585765 C248.959463,403.462988 245.325257,404.005936 243.480871,404.423379 C236.408903,406.016754 229.129578,409.198049 222.895223,412.753131 C222.938877,413.967262 222.726064,415.426946 221.350959,416.559225 C220.428765,417.314987 218.420676,417.688776 217.662185,416.602879 C217.247471,416.016277 214.524545,416.646533 213.9434,415.8935 C213.9434,415.8935 213.228563,414.807603 213.143984,413.506165 C213.06486,412.125603 213.981597,411.290718 214.737359,410.575882 C214.944716,410.324871 214.90379,407.986647 216.660869,407.187231 C217.746765,406.685208 218.83539,406.857096 219.757583,407.443699 C220.136828,407.230885 220.428765,407.023528 220.679777,406.857096 C220.887134,404.13417 221.389156,401.624058 222.395929,398.906589 C223.776491,395.054113 228.294693,390.36948 232.185366,390.535911 C229.54702,393.381614 227.416153,397.313214 226.701317,400.581816 C226.49396,401.626787 226.414837,403.678531 226.414837,404.636193 C227.345746,404.06599 228.324355,403.577598 229.339663,403.176508 C229.759834,402.169735 230.971236,399.659623 231.598764,398.530072 C233.181226,395.594333 236.741765,391.831893 239.92306,390.533183 L239.92306,390.533183 Z M60.2863438,307.789521 C60.7883662,322.348171 66.7307837,339.927141 74.8886479,352.098456 L196.604528,352.098456 L196.353517,335.114274 C180.706242,335.114274 156.813795,324.776432 147.35722,307.874101 L60.2863438,307.789521 L60.2863438,307.789521 Z M143.963112,269.815891 C143.963112,347.222836 257.182808,347.222836 257.182808,270.60985 L257.226463,177.468322 L143.963112,177.427397 L143.963112,269.815891 Z M180.43886,232.718072 C181.778496,231.25293 182.951701,229.32942 183.199984,227.697847 C183.410069,226.358212 179.644901,226.442791 178.264339,227.280405 C177.511306,227.738773 176.799198,228.660967 176.212596,229.49858 C175.795153,230.126108 174.289086,230.62813 173.536052,229.918751 C172.739364,229.165717 174.16358,227.867007 174.119926,227.073048 C174.119926,225.733412 171.56616,227.741502 170.395684,227.195825 C169.601724,226.819308 169.55807,225.607906 170.103747,224.895798 C170.395684,224.519282 171.233297,224.685713 171.609814,224.270999 C171.986331,223.850828 171.986331,223.2233 172.111836,222.680352 C172.280996,222.052824 172.94945,221.758158 173.366892,221.29979 C174.95754,219.752797 177.969674,217.114451 178.556276,217.158105 C179.93411,217.283611 181.904002,217.995719 183.115404,217.365462 C183.366415,217.239957 183.827512,216.822514 183.407341,216.571503 L180.144195,214.432451 C180.114675,213.750045 180.390709,213.089963 180.897229,212.631718 C182.403296,211.292082 184.746977,212.214276 186.714141,211.91961 C188.094702,211.709525 189.390684,211.166577 190.394729,210.206186 C190.64574,211.210231 190.018212,212.214276 190.018212,213.259246 C191.273268,214.432451 192.571978,215.433767 193.786108,216.566046 C197.384845,220.162054 198.931838,225.395092 199.182849,229.997874 C199.392935,232.131469 199.392935,234.30599 199.392935,237.863801 C199.979537,236.357734 200.356054,234.139559 200.48156,232.213321 C201.024508,226.521915 200.145968,221.460765 196.926477,217.14992 C195.617955,215.332602 194.131851,213.649996 192.490127,212.126967 C192.659286,210.454469 194.080774,207.608766 195.42041,208.656465 C196.298949,209.324918 195.002967,210.328963 195.922432,210.915566 C196.929205,211.540365 198.391618,211.458514 199.019146,211.33028 C200.484288,210.956491 201.905775,210.579974 203.242683,210.454469 C203.870211,210.413543 204.915181,210.118878 205.127995,210.746406 C205.294427,211.163848 204.836058,211.458514 204.372233,211.624945 C203.829285,211.794105 202.991672,211.668599 202.533303,212.126967 C202.154058,212.503484 201.782998,212.923655 201.905775,213.466603 C202.072207,214.094131 202.743389,214.429722 203.414571,214.219637 C205.937902,213.521936 208.535526,213.128079 211.152264,213.046432 C212.538283,213.046432 212.238161,214.053206 211.572435,214.426994 C211.114067,214.678005 210.399231,214.888091 209.940862,214.931745 C207.474404,215.220953 205.630018,215.390113 205.921955,216.811601 C206.129312,217.77472 207.681761,216.852526 208.011896,217.564634 C208.391141,218.317668 207.34617,218.73511 207.43075,219.239861 C207.681761,220.830508 210.734822,220.494917 212.156309,220.159326 C213.20128,219.908315 214.873778,219.07343 215.375801,219.741884 C215.839626,220.325757 215.46038,221.247951 214.873778,221.417111 C213.364983,221.834553 210.775747,222.587587 210.060911,223.422472 C209.389729,224.21916 210.189145,225.850732 210.983104,225.935312 C212.783837,226.142669 214.751001,226.142669 216.172488,226.560112 C216.70998,226.729272 217.173805,227.105788 217.173805,227.689662 C217.173805,228.31719 216.546277,228.527276 216.044254,228.693707 C215.078407,228.985644 213.449562,228.985644 212.571023,229.364889 C212.279086,229.490395 211.692484,229.70048 211.777064,230.033343 C212.028075,230.660871 213.285859,230.491711 214.33083,230.617217 C214.917432,230.660871 216.046983,231.121968 216.046983,231.749496 C216.046983,232.420678 215.46038,232.628035 214.41541,232.546183 C212.783837,232.420678 211.27777,232.628035 210.56839,232.9227 C210.355576,233.004552 209.103249,233.170983 209.141446,233.760314 C209.226026,234.469693 210.56839,234.011325 210.901253,234.723433 C211.19319,235.394615 210.276453,235.768403 210.191874,236.606017 C210.191874,236.941608 210.358305,237.108039 210.693896,237.233545 C211.779792,237.691913 213.03212,237.648259 214.126201,237.44363 C215.255752,237.233545 215.670466,238.742341 215.378529,238.908772 C213.918844,239.702731 210.65297,238.867846 209.899937,239.326214 C208.854966,239.994668 211.654287,241.500735 211.572435,241.836327 C211.487855,242.212843 211.152264,242.58936 210.901253,242.67394 C209.479766,243.216888 207.640836,242.169189 206.595865,242.75852 C205.717326,243.301468 206.088386,244.68203 205.545438,245.394138 C204.874256,246.272677 203.370917,245.89616 202.699735,246.398182 C201.826652,247.022982 201.782998,248.531778 202.743389,249.453971 C203.499151,250.16335 204.20853,250.662644 205.168921,251.12647 C209.52342,253.300991 214.041621,255.475512 218.267886,255.180846 C220.442407,255.058069 224.002947,254.935292 225.967382,255.437314 C228.521148,256.062114 231.11584,258.026549 232.452748,258.86962 C233.538644,259.535345 235.298451,259.707233 236.679013,259.199754 C237.680329,258.86962 238.351511,257.696415 238.144154,256.689642 C237.516626,253.341916 231.988923,252.299674 231.9098,248.951949 C231.82522,245.102201 231.489629,243.009531 230.237301,240.58127 C229.773476,239.661806 229.694353,237.52821 230.780249,237.236273 C231.658788,237.026188 231.953454,238.240318 232.660105,237.948381 C235.885053,236.693325 236.013287,231.588521 239.358284,230.622674 C241.319992,230.079726 247.933591,229.997874 247.387915,229.160261 C246.007353,227.190368 246.637609,224.933996 247.387915,223.886297 C247.889937,223.217843 249.26777,222.546661 249.818904,223.217843 C250.569209,224.096382 248.683896,225.141353 248.81213,226.440063 C248.934908,227.654193 250.697443,229.997874 249.355079,231.25293 C248.561119,232.005964 242.577776,232.259703 240.817969,234.936247 C239.732073,236.565091 239.609296,237.863801 240.902549,237.738296 C241.94752,237.61279 242.826059,236.357734 243.791906,235.645626 C245.508059,234.393299 246.888621,233.888548 247.85174,234.808013 C248.353762,235.266381 247.68258,236.147649 246.760387,236.39866 C246.010081,236.649671 244.171151,238.616835 244.670445,239.118857 C245.420751,239.912817 249.60609,236.275883 250.653789,237.026188 C251.196737,237.44363 248.602045,240.122902 249.060413,240.832282 C249.603361,241.710821 251.363168,240.330259 251.906116,241.001441 C252.700076,242.005486 250.525555,243.97265 249.26777,244.851189 C248.30738,245.475989 248.681168,247.822398 247.300606,248.534506 C245.756342,249.28754 245.041506,250.621719 245.210665,250.834533 C245.377097,251.164667 245.753613,251.421135 246.340216,251.04189 C248.056368,249.955993 250.187235,248.657283 251.065774,248.992874 C251.567797,249.20296 250.858417,251.584838 250.228161,252.714388 C249.597905,253.843939 252.781927,253.216411 252.318102,254.17953 C251.987968,254.894366 251.775154,255.980262 251.987968,256.981579 C252.238979,258.283017 248.555662,258.569498 248.220071,259.448037 C247.846283,260.45481 248.599317,260.705821 248.970377,260.749475 C251.19128,261.085066 250.899343,263.131353 250.020804,264.009893 C248.847599,265.183097 246.83951,265.641465 245.079703,265.3468 C243.570907,265.095789 240.187713,264.473718 238.179623,262.964922 C237.552095,262.506554 236.629902,262.836688 236.507124,263.466944 C236.378891,264.181781 237.131924,265.475034 237.467515,266.563659 C237.93134,268.195232 237.674872,270.246975 237.131924,271.840351 C235.964176,275.144422 232.826536,277.905546 231.947997,281.880799 C231.735183,282.92577 232.032577,284.22448 232.450019,285.228525 C233.372213,287.408502 234.70912,289.454789 236.212459,291.299176 C236.425273,291.885778 236.719938,292.551504 236.468927,293.094452 C236.133336,293.932065 233.538644,295.732798 232.785611,296.447634 C230.398276,298.663081 228.346532,301.552438 227.888164,304.690078 C227.719004,305.819629 225.293472,306.949179 223.661899,307.407548 C222.453225,307.743139 221.195441,308.07873 220.194124,308.872689 C220.06589,309.789426 220.608839,310.588842 220.731616,311.505578 C220.94443,313.098954 218.93634,313.892913 217.38389,314.394936 C216.674511,314.645947 215.918749,314.858761 215.081135,314.858761 C214.789198,314.858761 214.707347,314.351281 214.751001,314.102999 C215.209369,311.928478 215.624083,310.171399 216.461697,308.373395 C216.797288,307.702213 217.340236,307.159265 217.888641,306.69544 L223.866528,301.675216 L228.556617,294.938839 C228.971332,294.311311 229.14322,293.765634 229.14322,293.307266 C229.14322,292.005827 228.600271,290.797154 227.678078,289.95954 C226.504874,288.909113 224.788721,288.74541 223.495467,288.074228 C221.822969,287.236614 219.39198,284.89839 219.056389,284.726502 C218.139652,284.268134 217.596704,285.940633 217.46847,286.901023 C217.261113,288.366165 217.719481,289.746726 217.675827,291.211868 C217.675827,291.88305 217.596704,292.256838 217.261113,292.677009 C213.329514,294.93611 208.432067,295.773724 205.542709,299.369732 C205.040687,299.99726 204.582319,300.671171 203.911137,301.129539 C202.279564,302.259089 199.562095,300.963108 198.345236,302.717458 C197.802288,303.516874 198.429816,304.561844 198.222459,305.440384 C198.096953,305.942406 197.133834,306.613588 196.3808,306.984648 C195.374027,307.448473 194.290859,307.699484 193.199506,307.784064 C191.985376,307.197462 192.738409,305.481309 193.155852,304.267179 C193.573295,303.009395 194.162625,301.757067 195.123016,300.919454 C196.544503,299.661669 198.342508,298.07375 199.474786,297.530802 C200.435177,297.066977 201.89759,297.066977 203.070795,296.608609 C204.306476,296.230013 205.477551,295.666094 206.544026,294.93611 C208.254722,293.850214 209.848097,292.510578 210.811216,290.66892 C211.897113,288.573522 211.771607,285.77693 210.391045,283.976197 C209.133261,282.344624 207.673576,280.751249 206.835963,278.915047 C206.372138,277.908274 206.707729,276.527712 207.422565,275.605519 C207.378911,275.567322 206.87416,275.226274 206.584952,275.313582 C200.59888,275.57005 194.533685,274.898868 188.967785,272.680693 C187.502643,272.09409 185.996576,270.208778 184.948877,270.086001 C183.988486,269.957767 183.401884,271.171897 182.438765,271.422908 C180.891772,271.843079 178.880954,271.592068 177.08295,271.422908 C174.99028,271.215551 170.63851,270.293358 167.50087,269.292041 C166.998847,269.371165 166.455899,269.458473 165.994802,269.75041 C165.32362,270.208778 165.198115,271.215551 165.157189,272.053165 C165.072609,273.182715 165.4082,274.227686 165.279966,275.40089 C165.23904,275.987493 164.903449,276.615021 165.072609,277.160697 C165.241769,277.826422 165.910223,278.121088 166.368591,278.541259 C167.121624,279.250638 167.24713,280.71578 167.24713,281.888984 C167.24713,283.184966 166.788762,284.903847 167.874658,285.785115 C168.54584,286.322606 169.465305,285.615955 170.302919,285.785115 C171.222384,285.951546 171.514321,287.081097 171.557975,287.959636 C171.601629,288.960952 170.764015,291.091819 170.218339,291.642952 C169.841822,292.016741 169.214294,291.722075 168.753197,291.514718 C167.541795,290.97177 166.409517,290.093231 165.741063,288.920026 C165.449126,288.418004 165.449126,287.790476 165.154461,287.247528 C164.693364,286.325335 163.85575,285.787843 163.020865,285.157587 C162.01682,284.401825 161.809463,283.021263 161.640304,281.809861 C161.514798,280.674854 161.724884,279.588958 161.809463,278.456679 C162.026304,276.217624 161.884464,273.958311 161.389292,271.763956 C161.012776,270.091458 160.090582,268.416231 160.510753,266.743732 C160.720839,265.949773 161.263787,265.194011 162.019549,264.85842 C166.066363,264.669513 170.072782,263.967244 173.942581,262.768478 L171.432469,260.296564 C170.804941,260.296564 170.302919,260.924092 169.675391,260.924092 C169.004209,260.924092 168.084744,259.963701 167.833732,259.62811 C166.535022,257.7046 165.700137,255.480968 165.113535,253.221867 C164.570587,252.343328 163.902133,251.467517 162.89536,251.047346 C162.197294,250.744339 161.440448,250.600799 160.679913,250.627176 C158.587243,251.549369 156.663734,253.350101 156.494574,255.652856 C156.453648,256.239459 156.786511,256.738753 156.704659,257.325355 C156.581882,258.326671 155.82612,258.997854 155.114012,259.71269 C154.401904,260.422069 153.733451,261.134177 153.441514,262.138222 C153.187774,262.975836 153.482439,263.854375 153.856228,264.648334 C154.107239,265.191282 154.401904,265.73423 154.191819,266.320833 C153.689797,267.701394 150.385725,269.122882 149.422606,269.122882 C149.087015,269.122882 148.795078,268.664513 148.669572,268.285268 C148.293056,267.027484 148.377635,265.690576 148.628647,264.438249 C149.512366,263.480422 150.169708,262.336367 150.552156,261.090523 C151.056907,259.418025 150.803168,257.617292 151.599855,256.064842 C153.689797,252.50976 159.045612,245.396866 160.090582,244.351895 C160.551679,243.893527 161.681229,243.639787 162.142326,243.934453 C164.401427,245.399594 165.741063,247.197598 167.915584,248.327149 C169.088788,248.913751 170.551202,249.795019 171.5989,248.957405 C172.643871,248.119792 172.810302,242.512965 173.481485,241.08875 C174.706528,238.619563 178.09518,235.353689 180.43886,232.718072 L180.43886,232.718072 Z M222.087622,197.862983 L221.165429,201.37714 L217.817703,201.37714 L222.172202,184.892252 L225.978296,184.892252 L230.166363,201.251634 L226.813181,201.251634 L225.975567,197.862983 L222.087622,197.862983 L222.087622,197.862983 Z M225.517199,194.869947 L224.008403,188.259076 L222.586916,194.869947 L225.517199,194.869947 Z M213.294045,189.631452 C213.337699,188.542828 213.002108,187.12134 212.126297,186.785749 C211.204103,186.450158 210.240984,186.744823 209.823542,187.372351 C209.108706,188.542828 209.108706,190.133475 209.15236,192.559007 C209.15236,194.024148 209.196014,196.073164 209.487951,197.039011 C210.19733,199.254458 212.082643,199.382692 212.999379,197.999402 C213.463204,197.330948 213.463204,196.032238 213.41955,194.861762 L211.490584,194.861762 L211.490584,192.433501 L216.47261,192.433501 L216.47261,201.303473 L214.090732,201.303473 L214.090732,200.092071 C214.047078,200.176651 212.999379,200.970611 212.497357,201.22435 C211.659743,201.598139 210.071825,201.598139 208.778571,201.055191 C207.687218,200.594094 206.642248,199.131681 206.183879,197.246368 C205.720054,195.279204 205.927411,192.725438 205.927411,190.550917 C205.971066,188.248162 207.185196,185.697124 208.857694,184.734005 C210.030899,184.065552 212.20542,184.065552 213.583253,184.567574 C215.261209,185.154176 216.55719,187.579708 216.306179,189.631452 L213.294045,189.631452 L213.294045,189.631452 Z M157.242151,185.140534 C158.581787,185.978148 159.291166,187.527869 159.045612,189.325873 L156.407266,189.325873 C156.407266,187.653375 155.697886,186.856687 154.27367,186.815761 C153.395131,186.774836 152.306507,187.77888 152.306507,188.531914 C152.262852,190.747361 154.230016,191.208457 155.569652,191.6259 C156.573697,191.920565 157.787827,192.548093 158.37443,193.426633 C159.460326,195.01728 159.58856,196.689778 158.710021,198.867028 C158.292578,199.911998 156.701931,201.167054 155.362295,201.46172 C153.856228,201.797311 152.01457,201.630879 150.508502,200.4986 C149.294372,199.579136 148.748695,197.778403 148.999707,196.14683 L151.970915,196.14683 C151.970915,196.943518 152.096421,197.527392 152.432012,198.029414 C152.683023,198.365005 153.14412,198.907953 153.938079,198.948879 C154.576436,198.995634 155.202553,198.756259 155.646905,198.295567 C156.091256,197.834875 156.307874,197.200526 156.238106,196.564273 C156.071675,194.010506 151.804484,193.844075 150.339343,192.212502 C148.579536,190.204413 149.125212,186.982193 150.5467,185.683483 C152.516592,183.844553 155.195864,183.844553 157.242151,185.140534 L157.242151,185.140534 Z M241.729249,196.054065 C241.772903,196.681593 241.813829,198.899768 241.89568,200.321256 C241.939334,200.738698 242.359505,201.284375 242.359505,201.3253 L239.221865,201.3253 C238.801694,201.3253 238.75804,200.572267 238.719843,199.947467 C238.635263,198.274969 238.798966,194.299715 237.170121,194.299715 L235.162032,194.299715 L235.162032,201.287103 L232.024392,201.287103 L232.024392,184.968646 L237.672144,184.968646 C240.517847,184.968646 241.939334,186.602947 241.939334,188.818394 C241.939334,190.283536 241.89568,191.999688 240.223182,192.709068 C241.098993,193.543953 241.601015,194.799009 241.729249,196.054065 L241.729249,196.054065 Z M237.429318,187.323241 L235.085637,187.323241 L235.085637,191.718665 L236.80179,191.718665 C239.644765,191.718665 239.603839,187.323241 237.429318,187.323241 L237.429318,187.323241 Z M166.783305,201.355313 L163.645665,201.355313 L163.645665,187.587894 L160.046928,187.587894 L160.046928,184.82677 L170.422968,184.82677 L170.422968,187.587894 L166.783305,187.587894 L166.783305,201.355313 L166.783305,201.355313 Z M186.98425,201.355313 L186.98425,187.587894 L183.385514,187.587894 L183.385514,184.82677 L193.802479,184.82677 L193.802479,187.587894 L190.119162,187.587894 L190.119162,201.355313 L186.98425,201.355313 Z M195.215781,184.829499 L205.632746,184.829499 L205.632746,187.631548 L201.949429,187.631548 L201.949429,201.355313 L198.814518,201.355313 L198.814518,187.631548 L195.215781,187.631548 L195.215781,184.829499 Z M249.647015,187.634276 L249.647015,201.398967 L246.509375,201.398967 L246.509375,187.634276 L242.913367,187.634276 L242.913367,184.832227 L253.289406,184.832227 L253.289406,187.634276 L249.647015,187.634276 Z M178.629943,196.613384 L178.629943,184.856783 L181.683003,184.856783 L181.683003,196.321447 C181.683003,203.183329 171.724406,203.183329 171.724406,196.531532 L171.724406,184.856783 L174.777466,184.856783 L174.777466,196.657038 C174.780195,199.210804 178.629943,199.210804 178.629943,196.613384 Z M185.674627,208.959315 C186.59682,208.165356 187.890073,207.07946 189.396141,206.11634 C190.735777,205.237801 189.229709,207.248619 189.145129,208.083504 C188.894118,210.342605 187.177966,210.593616 185.295382,210.176174 C184.965247,210.091594 185.090753,209.461338 185.674627,208.959315 Z M264.361183,261.712594 L344.27824,261.66894 L347.833323,217.482783 L264.361183,217.526437 L264.361183,261.712594 L264.361183,261.712594 Z M196.961946,399.324032 L114.534777,399.1576 C131.521687,414.431087 170.854052,443.008167 196.710935,454.598337 L196.961946,399.324032 Z M137.292217,216.317763 C135.70157,217.739251 132.523004,221.256136 131.892747,222.844055 C133.276037,223.346077 135.993506,224.560207 137.292217,225.438747 L137.292217,216.317763 L137.292217,216.317763 Z" id="porsche" fill="#FFFFFF"></path>
</svg>