<?xml version="1.0" encoding="UTF-8"?>
<svg width="400px" height="736px" viewBox="0 0 400 736" version="1.1" xmlns="http://www.w3.org/2000/svg">
    <title>rolls-royce</title>
    <path d="M380.045242,0.629769715 C391.241733,0.629769715 400,9.74030139 400,20.9160711 L400,714.891309 C400,720.327237 398.224862,725.403992 394.391394,729.258182 C390.557925,733.077837 385.798898,735.184683 380.376785,735.184683 L20.2932085,735.184683 C14.9132277,735.206316 9.74875876,733.071868 5.95396384,729.258182 C2.11358809,725.403992 0,720.327237 0,714.891309 L0,20.9229783 C0.0190116609,9.723233 9.09346328,0.648781376 20.2932085,0.629769715 Z M387.843415,602.947119 L12.8473002,602.947119 L12.8403627,716.390161 C12.8347299,718.367249 13.6236761,720.263706 15.0299598,721.653409 C16.4198434,723.060262 18.3155813,723.851397 20.2932085,723.849886 L380.376785,723.849886 C384.500354,723.849886 387.836508,720.493008 387.836508,716.390161 L387.843415,602.947119 Z M286.121808,618.660886 C294.921518,618.660886 302.174026,619.945616 309.094991,624.345471 L310.296835,635.120626 C303.47257,629.767585 295.121825,627.274103 286.121808,627.274103 C266.319007,627.274103 250.252974,644.645587 250.252974,664.448388 C250.252974,684.251189 266.319007,702.237409 286.121808,702.237409 C296.040476,702.237409 305.005957,701.104636 311.484865,694.618822 L311.850944,705.559748 C304.577714,710.726297 295.702026,710.857533 286.121808,710.857533 C261.553073,710.857533 241.625943,689.030937 241.632849,664.448388 C241.632849,639.872746 261.553073,618.660886 286.121808,618.660886 Z M362.390565,619.828195 L364.814975,630.40995 C360.332234,628.006261 355.034449,628.006261 349.080486,628.006261 C343.15415,628.006261 340.418919,631.052315 340.418919,633.60796 L340.418919,647.753805 C340.418919,651.30408 342.663743,652.39541 345.398974,652.39541 L361.105835,652.39541 L361.105835,661.416149 L345.38516,661.416149 C342.649928,661.416149 340.405104,662.521293 340.405104,666.071568 L340.405104,695.288815 C340.405104,697.865183 343.161057,700.897422 349.066671,700.897422 L349.91959,700.89718 C355.893215,700.892222 364.725503,700.785622 368.979987,698.493733 L362.397472,709.082395 L330.134171,709.09621 C330.941961,706.988392 331.378952,704.756698 331.425809,702.499881 L331.411994,626.403802 C331.25313,623.191977 330.790351,621.596425 330.134171,619.828195 L362.390565,619.828195 Z M194.153097,619.828195 L212.291275,651.773767 L230.415638,619.828195 L240.845435,619.828195 L216.456286,662.037792 L216.456286,702.479159 L216.442472,702.479159 C216.505395,704.734221 216.941862,706.963236 217.734109,709.075488 L206.185353,709.061674 C206.985704,706.961835 207.417978,704.739713 207.463176,702.492974 L207.470083,662.037792 L183.716392,619.828195 L194.153097,619.828195 Z M136.782304,619.973245 C161.350969,619.973245 181.267807,639.890083 181.267807,664.458749 C181.267807,689.027414 161.350969,708.944252 136.782304,708.944252 C112.213639,708.944252 92.2968003,689.027414 92.2968003,664.458749 C92.2968003,639.890083 112.213639,619.973245 136.782304,619.973245 Z M60.4790109,618.564186 C67.5304272,618.562952 74.0468628,622.323698 77.5736395,628.429787 C81.1004162,634.535876 81.1017327,642.059647 77.5770931,648.16697 C74.0524535,654.274292 67.5373343,658.037318 60.485918,658.038552 L56.2932776,658.038552 C54.8496831,658.038552 54.704633,659.806783 55.6647269,660.925741 L95.470636,707.790758 L83.7492014,707.790758 L45.3937939,662.521293 C44.1021568,660.911927 42.3408333,660.753062 42.3408333,663.640251 L42.3408333,701.201336 C42.3891277,703.452872 42.8236853,705.679395 43.6255634,707.783851 L32.0629932,707.797665 C32.8617866,705.69926 33.2985375,703.480472 33.3546304,701.235872 L33.3546304,625.160515 C33.1819516,621.934876 32.7053582,620.332417 32.0699004,618.564186 Z M136.782304,628.593368 C116.975191,628.589553 100.914192,644.641276 100.906564,664.448388 C100.918004,684.252802 116.977887,700.300317 136.782304,700.2965 C156.24685,699.828515 171.782253,683.915106 171.782253,664.444934 C171.782253,644.974763 156.24685,629.061354 136.782304,628.593368 Z M60.4444751,627.363896 L42.3132047,627.363896 L42.3132047,648.907299 L60.4513823,648.934928 C64.3046759,648.933694 67.8646078,646.876846 69.7901861,643.539179 C71.7157644,640.201512 71.7144479,636.090096 69.7867325,632.753663 C67.8590172,629.41723 64.2977688,627.362662 60.4444751,627.363896 Z M387.843415,140.465034 L12.8473002,140.810392 L12.8473002,588.621688 L387.836508,588.621688 L387.843415,140.465034 Z M161.641139,384.501573 L161.634232,391.553774 C171.283521,391.553774 183.502271,390.821616 196.61895,388.611328 C200.155411,394.440963 207.23524,408.566086 209.169242,415.093343 C194.809276,417.490124 178.549844,418.90609 161.641139,419.168562 L161.627325,530.912445 C161.627325,545.673026 168.044068,552.711412 172.540623,559.148877 L117.960318,559.148877 C122.456873,552.711412 128.887431,545.673026 128.887431,530.898631 L128.887431,389.965129 C132.427771,389.545685 138.058219,388.783703 143.708988,387.924087 L144.802384,387.756556 C152.085966,386.632434 159.181058,385.372063 161.641139,384.501573 Z M269.917632,206.117501 C312.520937,214.274846 357.824938,261.416149 334.271555,324.858327 C321.707448,358.682644 298.72045,378.858431 279.981351,390.324301 C282.335722,394.159013 286.263979,400.667734 290.911455,408.785828 L291.65112,410.080852 C299.10504,423.161724 308.239885,440.115187 315.691319,456.750369 C331.087358,491.203236 330.196336,519.764304 333.82259,536.072086 C337.441937,552.386776 346.517933,558.278576 346.517933,558.278576 L276.258397,558.278576 C299.369723,540.16112 297.117991,514.314562 297.117991,514.328376 C295.543161,451.43877 263.583775,411.315132 255.460966,402.142436 C253.380403,402.881285 251.86205,403.331592 251.064031,403.553873 L250.855763,403.611229 C250.573172,403.688113 250.425653,403.724173 250.425653,403.724173 L237.288253,376.530721 C237.288253,376.530721 273.992851,363.842285 289.858576,323.967305 C310.365906,272.405425 283.517812,242.829006 283.517812,242.835914 C281.687417,227.432968 269.917632,206.117501 269.917632,206.117501 Z M177.064806,167.458179 C222.652,167.458179 275.30521,195.715332 275.30521,255.434556 C275.30521,291.337925 256.607553,330.218276 214.301255,355.58824 C223.315087,369.084813 260.551536,421.08875 267.617551,487.867082 C268.246102,502.641477 272.093385,518.044423 283.020497,523.832615 L211.738702,523.832615 C224.59291,512.270045 232.929841,498.144922 232.294383,482.065076 C231.645111,466.040486 227.155463,407.58527 189.608192,367.371839 C164.970386,377.159272 134.240472,383.230657 97.4529882,383.845394 L97.4460811,495.575462 C97.4460811,510.349857 103.869731,517.388244 108.359379,523.825708 L53.7859819,523.839523 C58.282537,517.408965 64.6923728,510.349857 64.6923728,495.568555 L64.6923728,191.21187 C64.6923728,176.444382 61.4874549,173.874922 56.997807,167.458179 Z M168.078603,188.649317 L97.4529882,188.649317 L97.4529882,356.258234 C139.179085,356.258234 229.082558,342.761662 232.294383,252.215824 C232.929841,219.482837 216.870715,188.649317 168.078603,188.649317 Z M201.163855,201.77981 C207.580598,205.640907 216.242165,214.958654 219.467804,222.970948 L161.641139,222.970948 L161.641139,337.899028 C154.264302,340.468488 139.503721,345.289679 128.921966,346.242866 L128.921966,225.533501 C128.921966,210.766013 125.717049,208.196553 121.206679,201.786717 Z M380.376785,11.971311 L20.2932085,11.971311 C18.3039492,11.971311 16.4390185,12.7587262 15.0299598,14.1608778 C13.620901,15.5630294 12.8473002,17.4417743 12.8473002,19.4310337 L12.8473002,126.132697 L387.836508,126.132697 L387.836508,19.4379409 C387.832708,15.3185058 384.496215,11.9789238 380.376785,11.971311 Z M343.637651,28.2100222 C348.603892,28.2100222 353.784255,30.3857746 356.630001,31.5876188 C358.898853,32.5865721 361.267512,33.341394 363.696016,33.8393499 L359.676055,43.9514185 C357.286181,42.507824 350.855623,37.0373607 343.637651,37.2100394 C329.319128,37.5346755 333.988361,53.4280291 336.87555,55.6659459 C338.714071,57.1150932 342.06959,59.9617368 345.370239,62.7527957 L346.160536,63.4208386 C349.311074,66.0827895 352.295155,68.5863806 353.722091,69.6460188 C358.052874,73.1755728 368.828029,80.7181812 368.834936,96.1211271 C368.834936,113.630754 350.689852,116.676807 347.139576,116.835672 C343.637651,117.001443 339.935418,116.179493 337.200186,115.875578 C335.611542,115.689085 333.518675,114.894763 329.82335,115.550942 L328.379755,103.028278 C332.095802,105.44578 338.809553,108.47802 344.915474,108.484927 C362.735922,106.398967 360.173369,91.9492082 355.186407,85.0489647 C350.206351,78.1418141 339.141096,69.6391116 334.810312,66.4341937 C331.750445,64.0028767 323.565471,58.0834486 324.207836,45.8646992 C324.981437,31.1179326 338.657595,28.2100222 343.637651,28.2100222 Z M66.2810174,26.0895269 C76.9914551,26.3727321 85.526753,35.1367036 85.526753,45.8508849 C85.526753,56.5650662 76.9914551,65.3290376 66.2810174,65.6122428 L62.1160056,65.5915214 C60.6724111,65.5915214 60.5066395,67.3528448 61.4667334,68.4787103 L101.272643,115.364449 L89.5719293,115.364449 L51.2027076,70.0949836 C49.9110704,68.4856175 48.1428399,68.3336602 48.1428399,71.2208491 L48.1428399,108.788841 C48.2013345,111.040547 48.6403786,113.266127 49.4413842,115.371356 L49.4413842,115.38517 L37.878814,115.38517 C38.6770041,113.277522 39.1091646,111.048976 39.1566369,108.795749 L39.1566369,32.6927629 C39.0046796,29.4809379 38.5280862,27.8853861 37.8857212,26.1240627 Z M217.17463,26.1171555 C216.525358,27.8784789 216.028043,29.4740307 215.876086,32.6858558 L215.876086,101.563962 C215.876086,104.133422 218.597503,107.172568 224.551467,107.172568 C230.491616,107.165661 239.96132,107.172568 244.450968,104.76888 L237.868453,115.371356 L205.61206,115.371356 C206.402976,113.263247 206.841683,111.039379 206.910604,108.788841 L206.910604,32.6858558 C206.717204,29.4809379 206.247518,27.8922932 205.61206,26.1240627 Z M278.475592,26.1171555 C277.840134,27.8853861 277.329005,29.4809379 277.177048,32.6858558 L277.190862,101.563962 C277.190862,104.133422 279.912279,107.172568 285.852429,107.172568 C291.792578,107.165661 301.262282,107.172568 305.75193,104.76888 L299.183229,115.371356 L266.913022,115.371356 C267.714027,113.266127 268.153071,111.040547 268.211566,108.788841 L268.211566,32.6858558 C268.045794,29.4809379 267.54848,27.8922932 266.913022,26.1240627 Z M142.071459,26.2492844 L142.58431,26.2552985 C166.849384,26.6791126 186.29936,46.4686955 186.303127,70.7374692 C186.306895,95.006243 166.863065,114.801864 142.598125,115.233213 C126.516947,115.519082 111.533216,107.104383 103.407534,93.2242064 C95.2818521,79.3440302 95.2791841,62.1591717 103.400556,48.2764731 C111.521927,34.3937745 126.503045,25.974423 142.58431,26.2552985 Z M142.591218,34.8892368 C129.574714,34.5763121 117.410787,41.3416327 110.810523,52.5649918 C104.210259,63.7883509 104.210259,77.7070677 110.810523,88.9304268 C117.410787,100.153786 129.574714,106.919107 142.591218,106.606182 C162.059546,106.138151 177.597991,90.2216631 177.597991,70.7477093 C177.597991,51.2737555 162.059546,35.3572674 142.591218,34.8892368 Z M66.260296,34.944494 L48.1290256,34.944494 L48.1290256,56.4878968 L66.260296,56.5224326 C72.068706,56.3145581 76.6700509,51.5455919 76.6700509,45.7334633 C76.6700509,39.9213347 72.068706,35.1523685 66.260296,34.944494 Z" id="rolls-royce" fill="#FFFFFF"></path>
</svg>