<?xml version="1.0" encoding="UTF-8"?>
<svg width="400px" height="511px" viewBox="0 0 400 511" version="1.1" xmlns="http://www.w3.org/2000/svg">
    <title>rover</title>
    <path d="M338.200862,0.767860748 L340.948457,0.820085372 L343.539379,0.976759244 L345.918501,1.28720562 L348.146751,1.70210124 L354.001712,3.20500986 L359.288004,4.91391561 L364.104275,6.83171986 L368.348977,9.00774585 L372.909927,11.9091138 L377.261979,15.1209282 L381.193333,18.7476382 L384.921591,22.6847946 L387.880986,26.5697263 L390.675003,30.9740029 L393.422599,35.9469477 L395.955493,41.4392373 L396.889734,43.8734851 L397.6673,46.2555082 L398.23887,48.6259258 L398.653765,51.0601736 L399.689554,63.2343137 L400,80.2769493 L399.689554,102.18808 L398.653765,128.915482 L397.203081,154.453323 L395.128603,179.782266 L392.488358,204.852987 L389.276544,229.714809 L386.380979,248.623024 L382.646918,269.135696 L378.193318,291.4124 L372.962152,315.395107 L367.936982,336.734669 L362.604268,357.816009 L356.955304,378.691352 L350.949473,399.305571 L345.561632,416.867552 L340.330466,432.871498 L335.253072,447.378338 L330.335253,460.327143 L328.936794,463.69273 L327.747233,466.49255 L326.711444,468.668576 L325.783007,470.220808 L321.895174,476.023544 L317.958017,481.153162 L313.968636,485.557439 L309.927031,489.285697 L305.528557,492.549736 L300.451163,495.6542 L294.700651,498.607792 L288.332149,501.355388 L286.156123,502.132954 L283.66965,502.806072 L280.820507,503.424063 L277.614495,503.995633 L260.052515,506.374754 L240.004062,508.29546 L217.576487,509.638793 L200.017408,510.262588 L192.763988,510.523711 L177.32871,510.677483 L161.841208,510.474387 L146.458155,509.80127 L131.005469,508.759679 L126.963863,508.135885 L122.922258,507.517893 L118.831329,506.844776 L114.789723,506.171659 L110.336123,505.344769 L106.967635,504.720975 L104.68716,504.256756 L103.494698,503.946309 L98.9888733,502.132954 L94.8457198,500.110701 L91.0652373,497.88245 L87.5952011,495.401781 L85.213178,493.379527 L82.7789303,490.788606 L80.2402333,487.78569 L77.597087,484.260528 L75.8881813,481.779858 L74.3359494,479.13381 L72.8330408,476.339793 L71.4345814,473.3862 L66.6676338,461.470282 L60.8648978,444.996314 L54.1308227,424.019424 L46.3609592,398.435161 L40.5088999,378.024037 L35.2748321,358.547154 L30.6152351,339.955188 L26.6258541,322.236533 L21.0320166,294.627115 L16.2157457,267.85039 L12.1219155,241.999201 L8.80565186,216.980705 L5.17894187,182.999883 L2.48647237,150.263748 L0.777566623,118.821623 L0,88.6212836 L0,76.293371 L0.310446375,65.6221395 L0.931339126,56.7642631 L1.86267825,49.6181937 L2.38202312,47.0272721 L3.0638446,44.534997 L3.84141123,42.1529738 L4.77275035,39.820274 L7.36367197,34.435335 L10.1083661,29.6161627 L12.9575095,25.3163354 L15.9633267,21.5880775 L19.63936,17.7553704 L23.628741,14.2853342 L27.8763437,11.1257445 L32.4343928,8.43037362 L36.7864448,6.35879687 L41.6520389,4.49611862 L47.0369779,2.88876075 L53.0457111,1.542526 L54.1337241,1.38585213 L55.9993037,1.22917826 L58.6917732,1.07540576 L62.1647107,0.869408628 L68.1212192,0.767860748 L338.200862,0.767860748 Z M340.194102,11.1170404 L200.002901,11.1170404 L68.2256684,11.1257445 L62.5273817,11.2301937 L59.4200165,11.3868676 L57.0379934,11.5406401 L55.3261863,11.6450894 L54.3948472,11.7988619 L49.5263517,12.8868749 L45.0205272,14.2331096 L41.0311462,15.7360182 L37.4566608,17.444924 L33.6761783,19.7776239 L30.1016929,22.3685455 L26.7854293,25.2699135 L23.6780642,28.4817278 L21.2438165,31.589093 L18.8617933,35.1113537 L16.5813181,39.1529593 L14.4575167,43.6094606 L13.6277255,45.5765881 L12.9546081,47.5959402 L12.38594,49.7197416 L11.9710443,51.8435429 L11.1412531,58.4238455 L10.572585,66.6579279 L10.3143632,76.5515928 L10.3143632,88.1541634 L11.1441545,118.508275 L12.8530602,149.848852 L15.5455297,182.326766 L19.1200151,215.788243 L22.3840541,240.548517 L26.4256597,266.086358 L31.1926073,292.555539 L36.7371216,319.903833 L40.7265025,337.515137 L45.2845517,356.005555 L50.5157182,375.430214 L56.3706788,395.733987 L63.9316438,420.650936 L70.4597218,441.114284 L76.1057839,457.173356 L80.7160576,468.82525 L81.9578431,471.465495 L83.3040779,473.951967 L84.7025372,476.287568 L86.1532212,478.463594 L88.2770226,481.306935 L90.2992761,483.691859 L92.2664036,485.760535 L94.1842079,487.420117 L96.8766774,489.33502 L99.83027,491.096151 L103.042084,492.648382 L106.407671,493.997519 L107.394136,494.258642 L109.361264,494.673537 L112.367081,495.239304 L116.356462,495.912421 L120.241394,496.585539 L124.17855,497.209333 L128.063482,497.827324 L132.000638,498.398894 L147.177694,499.434682 L162.35475,500.101997 L177.584031,500.36312 L192.813311,500.209347 L200.014507,499.948224 L216.955595,499.32443 L238.8116,497.981097 L258.390031,496.167742 L275.58934,493.832141 L278.438484,493.315697 L281.029405,492.799254 L283.257656,492.175459 L285.123236,491.502342 L290.511076,489.172544 L295.327347,486.735394 L299.621371,484.09515 L303.306109,481.295329 L306.773244,478.138641 L310.089507,474.459706 L313.455094,470.159879 L316.719133,465.291384 L317.4967,463.892924 L318.43094,461.919994 L319.518953,459.439324 L320.760739,456.378381 L325.629234,443.536926 L330.654404,429.238985 L335.784022,413.542584 L341.064512,396.395499 L347.02102,375.882827 L352.620661,355.164159 L357.953375,334.187268 L362.929221,313.00438 L368.05884,289.329217 L372.51244,267.313637 L376.13915,247.009864 L379.034715,228.362772 L382.197206,203.86362 L384.837451,178.998897 L386.859704,153.669954 L388.411936,127.97834 L389.398401,102.130053 L389.813297,81.0487132 L389.502851,64.7836442 L388.56861,53.2826215 L388.205939,51.2110447 L387.74172,49.139468 L387.068603,47.0678912 L386.241713,44.9963145 L384.117912,40.3889421 L381.889661,36.2951118 L379.559862,32.6161772 L377.07339,29.4043629 L373.968926,26.0880992 L370.652663,23.082282 L367.078177,20.3898125 L363.242569,17.9555648 L359.621662,16.1422098 L355.632281,14.5348519 L351.178681,13.0841679 L346.304383,11.8917056 L344.438803,11.5290346 L342.422352,11.3230375 L340.194102,11.1170404 Z M337.321747,20.9149601 L339.445549,20.9671847 L341.363353,21.1238586 L343.072259,21.2776311 L344.627392,21.5880775 L348.564548,22.5745426 L352.133231,23.7118789 L355.400171,25.0581136 L358.350862,26.5087976 L361.461129,28.4788265 L364.362497,30.7041757 L367.054966,33.1413248 L369.593663,35.8337943 L371.560791,38.4218146 L373.475694,41.3754072 L375.289049,44.6916708 L377.000856,48.3677041 L377.673973,50.1288344 L378.242641,51.8899648 L378.654636,53.6510952 L378.967983,55.4122256 L379.800676,66.2894542 L380.003772,81.8320825 L379.641101,102.083631 L378.605312,126.997678 L377.050179,152.953316 L374.978602,178.227133 L372.387681,202.938084 L369.283217,227.074564 L366.381849,245.515659 L362.804462,265.616337 L358.45241,287.370794 L353.331496,310.779031 L348.404973,331.813949 L343.124483,352.634166 L337.530646,373.251287 L331.626362,393.610186 L326.389393,410.548372 L321.311999,426.035875 L316.39418,440.072693 L311.630134,452.713953 L310.489896,455.406423 L309.555655,457.634673 L308.728766,459.340678 L308.052747,460.585365 L305.360277,464.574746 L302.618485,468.094105 L299.870889,471.155048 L297.018844,473.743069 L293.966605,476.072867 L290.447246,478.248893 L286.457865,480.265344 L282.053588,482.188951 L280.394006,482.754718 L278.426878,483.276964 L276.250852,483.741183 L273.712155,484.205402 L256.826194,486.482975 L237.711981,488.244106 L216.37242,489.543919 L192.853931,490.370809 L177.882872,490.524581 L162.86249,490.269261 L147.839206,489.645467 L132.871049,488.606777 L129.090566,488.04101 L125.307182,487.469441 L121.5267,486.845646 L117.746217,486.227655 L114.325504,485.603861 L111.789709,485.139642 L110.077902,484.829196 L109.303236,484.617396 L106.816764,483.639635 L104.486966,482.493594 L102.363164,481.202486 L100.393135,479.801125 L98.994676,478.562241 L97.4917674,477.001305 L95.9395355,475.138627 L94.279953,472.968403 L92.9859429,471.047698 L91.796382,468.979022 L90.653243,466.802996 L89.5681314,464.525422 L85.0594055,453.282621 L79.6222419,437.641347 L73.1986131,417.592894 L65.8436453,393.247515 L59.991586,372.836391 L54.8097428,353.411732 L50.199469,335.022862 L46.3145373,317.66978 L40.8251491,290.687058 L36.1104261,264.528324 L32.1210451,239.248704 L28.8599074,214.694427 L25.3347453,181.70007 L22.6945005,149.532603 L20.9855947,118.194928 L20.1558035,87.7363664 L20.1064802,76.8562364 L20.3618006,67.6385903 L20.8318222,59.9731761 L21.5571642,54.0137662 L21.9198352,52.2004112 L22.3840541,50.4915054 L22.9527222,48.7825997 L23.6258396,47.1259186 L25.3347453,43.5514332 L27.1481003,40.3396188 L29.0659046,37.4904755 L31.0359334,35.0040031 L33.5717291,32.3637582 L36.2670999,30.0310583 L39.1133419,27.907257 L42.1713838,26.093902 L45.0205272,24.6954426 L48.2816648,23.4536571 L51.8068269,22.4178687 L55.6888573,21.5387542 L56.5186485,21.4314036 L57.9693325,21.3298557 L60.0931339,21.1760832 L62.837828,21.0687326 L68.3301177,20.9149601 L337.321747,20.9149601 Z M348.085822,99.0807153 L57.1395413,99.0807153 L56.2575254,99.1851645 L55.4799588,99.2373891 L54.8097428,99.3911616 L53.0486124,99.8582819 L51.4441559,100.42695 L49.9934719,101.047843 L48.6994618,101.773185 L47.3010024,102.756749 L46.0563156,103.792537 L44.9160779,104.984999 L43.8802896,106.279009 L43.0504983,107.471472 L42.3251563,108.869931 L41.5998143,110.422163 L40.9760202,112.183293 L40.7700231,112.96086 L40.6133492,113.790651 L40.5118013,114.620442 L40.4073521,115.450233 L40.6133492,132.698866 L42.3251563,156.939796 L45.5891953,188.280373 L50.3561429,226.610345 L54.0873022,252.455732 L58.3320035,278.150247 L63.1511758,303.786734 L68.4867915,329.327477 L75.6850855,324.041184 L79.4162448,321.299391 L90.708369,313.842876 L92.3128255,312.85641 L102.363164,306.899902 L109.097239,303.37474 L114.38063,300.580715 L126.139875,295.140658 L126.810091,294.830211 L127.433885,294.569088 L140.693137,289.134826 L144.058724,287.939462 L154.213512,284.420103 L162.554945,281.982954 L167.992108,280.378497 L166.283203,284.521651 L164.417623,288.61258 L162.552043,292.448188 L162.447594,292.601961 L160.376017,296.591342 L158.768659,299.434682 L157.111978,302.234502 L155.403073,304.982098 L153.589718,307.674567 L152.9166,307.413444 L152.191258,307.259672 L151.518141,307.158124 L150.792799,307.050773 L149.185441,306.998549 L147.734757,306.998549 L146.388522,307.158124 L145.094512,307.413444 L144.058724,307.723891 L143.696053,307.825438 L142.402043,308.347685 L141.108032,308.965676 L139.91557,309.749045 L138.781135,310.590442 L137.693122,311.571104 L136.761783,312.606893 L135.879767,313.74713 L135.20665,314.835143 L134.585757,316.030507 L134.014188,317.423164 L133.494843,318.931875 L133.34107,319.59919 L133.184396,320.324532 L133.079947,321.049874 L133.079947,321.775216 L132.250156,321.722991 L131.472589,321.722991 L130.695023,321.775216 L129.865231,321.882566 L128.156326,322.18721 L126.810091,322.549881 L126.551869,322.602106 L126.136974,322.761681 L125.101185,323.124352 L123.75495,323.690119 L122.304266,324.415461 L121.007355,325.300378 L119.713345,326.228816 L118.520883,327.316829 L117.537319,328.352617 L116.60598,329.542178 L115.674641,330.891314 L114.7404,332.443546 L114.377729,333.116663 L114.067283,333.89423 L113.756836,334.619572 L113.498615,335.397138 L112.616599,335.397138 L111.786807,335.504489 L110.907693,335.606037 L110.025677,335.86716 L109.094338,336.171804 L108.212322,336.48225 L106.503416,337.155367 L105.052732,337.932934 L103.706498,338.759824 L102.308038,339.85364 L101.063351,341.095425 L99.9753384,342.444561 L98.9424514,343.889443 L98.2171094,345.238579 L97.543992,346.790811 L97.0246471,348.502618 L96.5053023,350.417521 L96.4037544,351.24441 L96.2993051,352.129328 L96.2470805,353.008442 L96.2993051,353.893359 L92.3099241,355.396268 L76.201529,361.352777 L85.3176273,387.51151 L92.3099241,385.074361 L109.094338,379.219401 L124.323619,373.886686 L125.202733,376.114937 L126.136974,378.238738 L126.189198,378.340286 L126.810091,379.637198 L127.224987,380.516312 L128.313,382.640114 L130.695023,386.884815 L133.181495,390.975744 L135.873965,395.023152 L138.618659,398.954506 L140.069343,400.869409 L141.624476,402.734988 L143.231834,404.606371 L144.058724,405.485485 L144.888515,406.3646 L144.058724,406.727271 L126.810091,415.120928 L126.139875,415.431375 L109.097239,423.720583 L95.1619689,430.451757 L104.745187,452.467337 L105.160083,453.395775 L105.574979,454.228467 L106.042099,454.953809 L106.456994,455.621124 L107.391235,456.761362 L108.531473,458.058273 L109.100141,458.629843 L109.825483,459.349382 L111.377715,460.800066 L113.347743,462.511873 L115.161098,463.910332 L116.716232,464.998345 L118.062466,465.775912 L120.807161,467.017698 L123.914526,468.105711 L126.142776,468.67728 L126.812992,468.880376 L127.436786,469.039951 L131.371041,469.866841 L143.855628,471.627971 L144.061625,471.680196 L158.928235,472.921981 L162.554945,473.081557 L174.259063,473.647323 L176.641086,473.754674 L196.999985,474.059318 L203.629611,474.007093 L218.339547,473.853321 L225.694515,473.592197 L236.783543,473.177302 L243.66849,472.611535 L252.271046,471.938418 L261.491593,470.589282 L264.755632,470.125063 L267.346554,469.553493 L270.401694,468.674379 L273.767281,467.534141 L276.822422,466.34458 L277.605791,466.083457 L280.501356,464.888093 L282.784733,463.858108 L284.287642,463.025415 L285.166756,462.407424 L291.021717,455.255552 L293.612638,450.540829 L295.324445,447.436365 L298.118463,438.941159 L299.366051,429.772837 L293.61554,426.769921 L276.831126,417.964269 L261.503199,409.883959 L254.664674,406.309474 L258.030261,402.267868 L261.192752,398.176939 L261.503199,397.71272 L264.244992,393.877112 L267.094135,389.530863 L269.371709,385.744577 L271.446187,381.914772 L273.413314,377.977615 L275.226669,373.988234 L276.831126,374.51048 L293.61554,380.466989 L309.413488,386.060826 L312.779075,387.250387 L321.535404,362.493014 L309.413488,357.624519 L301.797397,354.514252 L301.956973,353.896261 L302.058521,353.272467 L302.160068,352.599349 L302.160068,350.475548 L302.006296,349.077089 L301.852523,347.835303 L301.5914,346.695065 L301.176505,345.45328 L300.654258,344.257916 L300.036267,343.068355 L299.310925,341.980342 L298.527556,340.944554 L297.648441,339.963892 L296.661976,339.078974 L295.63199,338.19986 L294.543977,337.474518 L293.609737,336.958074 L293.406641,336.850724 L292.159053,336.284957 L290.917267,335.870061 L289.77703,335.608938 L288.529442,335.347815 L287.186108,335.246267 L285.735424,335.194043 L285.062307,335.194043 L284.38919,335.246267 L283.765395,335.347815 L283.092278,335.50739 L283.150305,334.935821 L283.150305,333.798485 L283.092278,333.226915 L282.889182,331.98513 L282.628059,330.844892 L282.265388,329.809104 L281.902717,328.880666 L281.386274,327.894201 L280.814704,326.907736 L280.089362,326.028621 L279.311796,325.143704 L278.484906,324.366137 L277.605791,323.69302 L276.822422,323.176576 L276.668649,323.075029 L275.682184,322.552782 L274.594171,322.088563 L273.564186,321.725892 L272.476173,321.464769 L271.330132,321.310997 L270.300147,321.258772 L269.212134,321.258772 L268.01677,321.412545 L266.827209,321.621443 L266.261442,321.722991 L265.689873,321.882566 L265.173429,322.085662 L264.651183,322.346785 L264.549635,321.519895 L264.346539,320.736526 L264.137641,320.011184 L263.876518,319.233617 L263.098951,317.629161 L262.321385,316.178477 L261.543818,314.887368 L261.491593,314.829341 L260.658901,313.741328 L259.570888,312.60109 L258.381327,311.513077 L257.090218,310.584639 L255.741082,309.757749 L254.449973,309.133955 L253.051514,308.611709 L251.441255,308.14749 L249.685927,307.784819 L248.90836,307.683271 L248.124991,307.631047 L247.298101,307.631047 L246.520534,307.683271 L244.396733,304.419232 L243.671391,303.177447 L242.380282,301.102969 L240.407352,297.737382 L238.541772,294.31957 L236.574645,290.533285 L234.709065,286.651255 L232.947935,282.763422 L231.236128,278.774041 L236.365746,280.123177 L241.495365,281.573861 L243.671391,282.246978 L246.520534,283.126093 L251.545704,284.8379 L258.639549,287.376597 L261.488692,288.516834 L264.752731,289.807943 L269.931673,291.983969 L274.12415,294.058447 L276.816619,295.561356 L288.369866,301.929859 L293.601033,305.141673 L302.145562,310.422163 L309.398982,315.345784 L315.564389,319.538261 L326.02382,327.464798 L328.510293,329.330378 L335.192143,300.220953 L341.305325,270.951953 L346.899163,241.633629 L351.924332,212.109308 L354.877925,192.321979 L357.671942,170.567521 L360.419538,146.843035 L362.958235,121.203646 L363.161331,118.870946 L363.320906,117.005367 L363.422454,115.659132 L363.422454,114.832242 L363.268681,113.329333 L363.059783,111.930874 L362.749336,110.636864 L362.334441,109.444402 L361.817997,108.150392 L361.14488,106.957929 L360.367313,105.817692 L359.482396,104.677454 L358.553958,103.69389 L357.51817,102.762551 L356.430157,101.93276 L355.240596,101.207418 L354.152583,100.63875 L352.904995,100.17163 L351.561661,99.7045094 L350.058753,99.3418384 L349.434959,99.2373891 L348.811164,99.1329399 L348.085822,99.0807153 Z M235.698432,417.540669 L239.943133,417.592894 L243.671391,417.90334 L244.605632,417.955565 L249.474127,418.733131 L254.861967,420.030043 L260.867799,421.785371 L261.491593,421.994269 L267.497425,424.068747 L272.777915,426.137422 L276.81952,427.950777 L277.956857,428.455616 L283.028448,430.98851 L288.004294,433.78833 L285.050701,440.989525 L282.564229,439.486617 L280.077757,438.035933 L277.486835,436.788344 L276.813718,436.477898 L274.84659,435.598784 L269.615424,433.474982 L265.002249,431.870526 L261.482889,430.834737 L261.01867,430.733189 L257.696604,430.060072 L252.828108,429.595853 L247.91029,429.488503 L243.659786,429.798949 L242.934444,429.851174 L237.915077,430.62874 L233.093003,431.824104 L228.384083,433.327012 L225.685811,434.516573 L223.872456,435.29414 L219.418856,437.571714 L215.690598,439.956638 L211.910116,442.858006 L208.08031,446.223593 L204.192477,450.105624 L203.620907,450.729418 L202.532894,451.977006 L200.980662,453.944133 L199.634428,455.960584 L198.340418,458.084385 L197.046407,455.908359 L195.595723,453.839684 L194.04059,451.817431 L192.383909,449.951851 L188.449654,445.96247 L184.564722,442.495335 L180.679791,439.492419 L176.899308,437.05527 L174.256162,435.604586 L172.289034,434.568798 L167.626536,432.552347 L162.911813,430.942088 L162.549142,430.84054 L158.092641,429.804752 L153.119696,429.07941 L147.992979,428.824089 L144.055822,428.925637 L142.761812,428.977862 L137.478421,429.601656 L135.093497,430.118099 L131.521913,431.206112 L126.859414,432.859892 L126.80719,432.91792 L126.136974,433.121015 L121.007355,435.035918 L118.210436,436.176156 L115.413517,437.322196 L112.668823,438.563982 L109.976354,439.860893 L109.094338,437.475969 L108.212322,435.03882 L109.094338,434.574601 L113.135944,432.297027 L118.213338,429.810554 L123.392279,427.532981 L126.139875,426.444968 L126.810091,426.183844 L128.675671,425.458502 L135.56642,423.180929 L141.990048,421.367574 L144.061625,420.85113 L147.946557,420.02424 L153.438846,419.139323 L157.790898,418.776652 L161.829603,418.675104 L162.554945,418.727329 L165.557861,418.881101 L168.926349,419.452671 L172.759056,420.381108 L174.261965,420.903355 L176.385766,421.680921 L179.908027,423.340504 L183.325838,425.307631 L186.122757,427.382109 L188.9719,429.862779 L191.768819,432.711922 L194.565738,436.028186 L195.705975,437.580418 L196.793988,439.24 L197.725327,440.946005 L198.502894,442.75936 L199.489359,441.256451 L200.472923,439.753542 L201.508711,438.302858 L202.648949,436.959525 L203.629611,435.813485 L205.704089,433.434363 L208.396559,430.58522 L210.833708,428.255421 L212.850159,426.595839 L216.999115,423.752498 L220.988496,421.469121 L224.818302,419.713794 L225.697416,419.403347 L228.497236,418.469107 L231.862823,417.851116 L235.698432,417.540669 Z M150.737673,441.056257 L157.991093,441.471152 L162.549142,442.196494 L164.777393,442.559165 L171.096572,444.163622 L174.256162,445.353183 L175.027926,445.663629 L178.808408,447.529209 L182.330669,449.812585 L185.644031,452.45283 L181.709776,457.007978 L178.654636,454.469281 L175.286147,452.45283 L174.250359,451.988611 L171.610114,450.952823 L167.725182,450.018582 L162.546241,450.6917 L148.198976,452.606603 L144.052921,453.021498 L138.305311,453.593068 L130.898118,454.216862 L126.804288,454.419958 L126.134072,454.472182 L123.853597,454.370634 L121.213352,453.282621 L118.880652,451.779713 L116.8613,449.86481 L115.152394,447.529209 L121.938694,445.097862 L126.134072,443.957625 L126.804288,443.798049 L128.826542,443.232283 L135.818839,441.935371 L142.967809,441.210029 L144.055822,441.210029 L150.737673,441.056257 Z M252.735265,440.899583 L261.491593,441.886048 L262.164711,441.987596 L271.385258,444.215846 L276.81952,446.290325 L280.33888,447.636559 L276.871745,449.391887 L276.813718,449.391887 L273.245035,450.790346 L269.5661,451.930584 L265.730492,452.713953 L262.52448,453.128849 L261.488692,453.128849 L258.848447,453.181074 L254.650168,453.021498 L249.993472,452.606603 L243.66849,451.263269 L236.937316,449.86481 L230.357013,450.430577 L225.694515,451.466365 L223.988511,451.829036 L217.823104,454.005062 L211.91882,456.958655 L208.393658,452.45283 L216.526192,447.941203 L225.0272,444.523391 L225.694515,444.320296 L233.882175,442.196494 L243.102723,441.006933 L243.66849,441.006933 L252.735265,440.899583 Z M205.750511,207.70213 L205.750511,425.362757 L193.683722,425.362757 L193.683722,207.70213 L205.750511,207.70213 Z M185.037645,390.453498 L185.037645,415.109323 L182.809395,413.403318 L180.427372,411.845284 L177.940899,410.603498 L175.297753,409.515485 L174.261965,409.205039 L172.396385,408.688595 L169.495017,408.064801 L166.4892,407.803678 L163.486284,407.751454 L166.593649,406.460345 L169.596565,404.957436 L172.497933,403.144081 L174.256162,401.896493 L175.24843,401.124729 L178.045348,398.745607 L180.584045,396.20691 L182.913844,393.40709 L185.037645,390.453498 Z M215.380152,390.96704 L216.88306,393.351964 L218.594867,395.629538 L220.460447,397.753339 L222.534925,399.668242 L225.227395,401.792044 L225.691614,402.053167 L228.073637,403.657623 L231.128777,405.26208 L234.291268,406.611216 L230.867654,406.712764 L227.502067,407.284333 L225.688712,407.800777 L224.296056,408.215672 L221.133564,409.666356 L219.421757,410.652822 L217.918849,411.894607 L216.575515,413.293066 L215.380152,414.903326 L215.380152,390.96704 Z M215.54553,365.739645 L219.273788,369.932122 L223.103593,373.973727 L225.694515,376.4602 L227.145199,377.910884 L231.294155,381.639142 L235.849303,385.526975 L240.564026,389.205909 L243.66849,391.43416 L245.42962,392.725269 L250.405466,396.096658 L243.66849,402.154715 L239.423788,398.9429 L235.274832,395.678861 L231.131679,392.313274 L227.04075,388.947688 L225.691614,387.80745 L224.087157,386.458314 L221.238014,383.919617 L218.38887,381.328695 L215.54553,378.737774 L215.54553,365.739645 Z M185.084067,365.223201 L185.084067,379.158472 L181.614031,382.161388 L178.039546,385.062756 L174.412836,387.862576 L174.256162,387.964124 L170.684578,390.604369 L166.799646,393.351964 L162.86249,395.992209 L162.552043,396.201108 L158.820884,398.580229 L154.78218,401.017378 L148.410776,394.4893 L153.227047,392.002828 L157.83732,389.261035 L162.343145,386.307443 L162.552043,386.147867 L166.695197,383.092727 L171.66524,379.001798 L174.256162,376.616874 L176.382865,374.652647 L180.836464,370.0975 L185.084067,365.223201 Z M215.281505,341.400069 L220.823118,347.095454 L225.691614,351.810177 L226.524306,352.587744 L232.321239,357.975584 L238.225523,363.256074 L243.665588,367.811222 L243.926711,368.072345 L249.781672,372.787068 L255.685956,377.342216 L261.488692,381.59272 L261.749815,381.749394 L261.488692,382.05984 L255.738181,389.211712 L249.630801,384.235866 L243.66849,379.210697 L243.566942,379.158472 L237.508885,374.086881 L231.497251,369.009487 L227.406322,365.536549 L225.694515,364.033641 L223.364716,362.066513 L219.323111,358.541351 L215.281505,355.021992 L215.281505,341.400069 Z M184.927393,340.567376 L184.927393,354.195102 L180.523117,358.648702 L176.069517,362.942726 L174.256162,364.602309 L171.40992,367.19323 L166.695197,371.284159 L162.552043,374.701971 L161.46403,375.586888 L156.128415,379.831589 L150.68835,383.873195 L145.146737,387.810351 L144.058724,386.568566 L139.706672,381.644944 L144.058724,378.589804 L146.23475,377.086895 L152.553929,372.270624 L158.719336,367.19323 L162.552043,363.827643 L164.728069,361.906938 L170.060784,356.835347 L174.256162,352.584842 L175.187501,351.601279 L180.160446,346.167016 L184.927393,340.567376 Z M98.3737832,361.080048 L106.764539,371.437932 L92.3128255,376.825772 L89.4143589,377.916686 L85.0100823,366.006571 L92.3128255,363.308299 L98.3737832,361.080048 Z M299.717117,362.890502 L309.401883,367.396326 L311.679457,368.481438 L309.401883,374.80642 L308.574993,377.034671 L293.603934,371.43503 L290.499471,370.294793 L293.603934,367.80832 L299.717117,362.890502 Z M184.712692,311.617526 L184.712692,327.931919 L178.289063,335.077988 L174.247458,339.328492 L171.656536,342.020962 L164.820913,348.810163 L162.543339,350.933964 L157.828616,355.387564 L152.907896,359.681589 L147.885628,363.830545 L144.052921,366.833461 L142.758911,367.869249 L137.47552,371.751279 L132.607024,361.080048 L137.47552,358.024907 L138.200862,358.126455 L140.376888,358.126455 L141.984246,357.92336 L143.487154,357.662236 L144.055822,357.508464 L144.833389,357.299565 L146.025851,356.88467 L147.372086,356.3131 L148.616773,355.639983 L149.86146,354.862416 L151.001697,353.933979 L151.985261,353.049061 L152.9166,352.013273 L153.847939,350.873035 L154.729955,349.581927 L155.144851,348.958132 L155.507522,348.285015 L155.765744,347.6177 L156.023965,346.944583 L156.955304,346.944583 L157.83732,346.785008 L158.719336,346.631235 L159.598451,346.370112 L161.516255,345.752121 L162.552043,345.282099 L163.225161,345.026779 L164.728069,344.194086 L166.074304,343.265648 L167.524988,342.125411 L168.766774,340.877823 L169.907011,339.479363 L170.939898,337.976455 L171.717465,336.525771 L172.390582,334.921314 L172.962152,333.160184 L173.481497,331.245281 L173.635269,330.316843 L173.687494,329.431926 L173.739718,328.552811 L173.687494,327.618571 L174.256162,326.841004 L184.712692,311.617526 Z M215.490404,311.814819 L225.691614,326.68433 L226.831851,328.33811 L226.730303,329.063452 L226.678079,329.841019 L226.678079,330.566361 L226.730303,331.291703 L226.939202,332.901962 L227.249648,334.404871 L227.612319,335.797527 L228.128763,336.992891 L228.80188,338.284 L229.579447,339.531588 L230.507884,340.671825 L231.543673,341.759838 L232.631686,342.740501 L233.827049,343.573193 L235.118158,344.298535 L236.467294,344.916527 L237.70908,345.331422 L239.058216,345.641869 L240.561125,345.902992 L242.214904,346.00454 L242.940246,346.056764 L243.665588,346.00454 L243.717813,346.00454 L244.443155,345.902992 L245.168497,345.749219 L245.275848,346.576109 L245.478943,347.402999 L245.740066,348.229889 L246.102737,349.007456 L246.929627,350.768586 L247.814545,352.271495 L248.742982,353.620631 L249.729447,354.760868 L250.971233,356.002654 L252.268144,357.038442 L253.718828,357.972683 L255.221737,358.750249 L256.672421,359.316016 L258.224653,359.786038 L259.930657,360.148709 L261.488692,360.302481 L261.848462,360.351805 L262.727576,360.459155 L263.554466,360.401128 L264.387159,360.348903 L265.266273,360.247355 L267.543847,362.162258 L264.74983,370.294793 L261.485791,368.588788 L256.562169,365.997867 L248.690758,361.123568 L243.665588,357.502661 L241.234242,355.741531 L234.08237,349.88657 L228.851203,344.962949 L225.688712,341.495814 L224.034932,339.734684 L219.581333,334.193071 L215.490404,328.33811 L215.490404,311.814819 Z M288.633891,343.576095 L289.774129,343.729867 L290.702566,344.092538 L291.950154,345.282099 L292.930817,346.941682 L293.502386,348.958132 L293.603934,350.046145 L293.714186,351.39238 L293.612638,352.944612 L293.560414,353.205735 L293.04397,354.966866 L292.211278,356.780221 L290.969492,358.587773 L288.996562,360.816023 L286.980111,362.527831 L284.96366,363.717391 L282.889182,364.341186 L281.023603,364.494958 L279.419146,364.291862 L278.020687,363.618745 L276.880449,362.63228 L276.822422,362.530732 L275.995532,361.132273 L275.479088,359.266693 L275.426864,356.989119 L275.731507,354.247326 L276.152206,352.689292 L276.81952,351.238608 L276.877548,351.186383 L277.805986,349.683474 L279.053574,348.23279 L280.556482,346.834331 L282.108714,345.64477 L283.762494,344.765656 L285.523624,344.092538 L287.183207,343.729867 L288.633891,343.576095 Z M114.012157,344.919428 L115.721062,345.026779 L117.429968,345.543222 L119.295548,346.422337 L121.161127,347.719248 L123.078932,349.373028 L124.58184,351.134158 L125.669853,352.947513 L126.136974,354.244425 L126.342971,354.810192 L126.757866,357.401113 L126.653417,359.577139 L126.136974,361.181596 L126.081848,361.291848 L125.046059,362.582957 L122.713359,363.879868 L119.864216,364.242539 L116.495728,363.720293 L112.561473,362.269609 L111.783906,361.442719 L110.127225,359.318918 L109.091437,357.868234 L108.885439,357.56359 L108.055648,356.266678 L107.692977,355.387564 L107.278082,353.159313 L107.278082,351.186383 L107.640753,349.425253 L108.418319,347.873021 L109.091437,347.095454 L109.454108,346.631235 L110.698794,345.752121 L112.251026,345.180551 L114.012157,344.919428 Z M269.9897,330.412588 L271.179261,330.514136 L272.113502,330.929032 L273.355287,332.118593 L274.341752,333.728852 L274.907519,335.797527 L275.116417,338.234676 L274.956842,339.995807 L274.440399,341.809162 L273.613509,343.622517 L272.365921,345.383647 L270.398793,347.661221 L268.37654,349.367225 L266.360089,350.507463 L264.285611,351.131257 L262.420031,351.290832 L261.491593,351.131257 L260.818476,351.029709 L259.420017,350.45814 L258.279779,349.422351 L257.400664,347.97747 L256.878418,346.056764 L256.826194,343.779191 L257.13664,341.086721 L257.551536,339.534489 L258.276878,337.976455 L259.205315,336.473546 L260.452904,335.022862 L261.488692,334.0422 L261.912292,333.627304 L263.464524,332.481264 L265.176331,331.552826 L266.937461,330.929032 L268.591241,330.514136 L269.9897,330.412588 Z M132.247255,330.157268 L133.95616,330.258816 L135.717291,330.781062 L137.530646,331.660176 L139.445549,332.957088 L141.311128,334.610868 L142.866261,336.371998 L143.90205,338.185353 L144.055822,338.649572 L144.575167,340.048031 L144.990063,342.638953 L144.937838,344.814979 L144.36917,346.526786 L144.058724,346.889457 L143.333382,347.826599 L141.003583,349.12351 L138.15444,349.486181 L134.736628,348.963935 L130.851697,347.513251 L130.024807,346.686361 L128.368126,344.510335 L127.123439,342.804331 L126.812992,342.282085 L126.345872,341.504518 L126.139875,341.089622 L125.930976,340.619601 L125.516081,338.39135 L125.516081,336.424223 L125.878752,334.663092 L126.136974,334.146649 L126.653417,333.11086 L126.80719,332.957088 L127.689205,331.869075 L128.983216,330.984158 L130.486124,330.418391 L132.247255,330.157268 Z M250.309721,317.408657 L251.449959,317.568232 L252.384199,317.930903 L253.675308,319.120464 L254.609548,320.724921 L255.181118,322.747174 L255.384214,325.233646 L255.230441,326.988974 L254.708195,328.802329 L253.881305,330.615684 L252.63952,332.429039 L250.666589,334.65729 L248.699462,336.369097 L246.624984,337.509334 L244.556308,338.182452 L243.671391,338.234676 L242.690729,338.286901 L241.080469,338.083805 L239.68201,337.460011 L238.541772,336.473546 L237.662658,334.970637 L237.198439,333.055734 L237.091088,330.778161 L237.401535,328.079888 L237.871556,326.527656 L238.538871,324.975425 L239.473112,323.524741 L240.714897,322.021832 L242.165581,320.623373 L243.66849,319.587584 L243.790347,319.483135 L245.444127,318.60402 L247.205257,317.930903 L248.859037,317.568232 L250.309721,317.408657 Z M151.828587,316.320644 L153.485268,316.427995 L155.246399,316.944438 L157.111978,317.829355 L158.977558,319.120464 L160.895362,320.780046 L162.398271,322.535374 L162.552043,322.747174 L163.483382,324.35163 L164.1565,326.266533 L164.519171,328.863258 L164.466946,330.981256 L163.898278,332.742387 L162.86249,333.989975 L162.552043,334.193071 L160.532691,335.281084 L157.683548,335.643755 L154.265736,335.127311 L150.380805,333.728852 L149.603238,332.843935 L147.943655,330.725936 L146.70187,328.964806 L145.872079,327.72302 L145.509408,326.838103 L145.094512,324.609852 L145.094512,322.587599 L145.457183,320.832271 L146.23475,319.274237 L147.270538,318.084676 L148.564548,317.205561 L150.067457,316.581767 L151.828587,316.320644 Z M215.281505,270.484832 L225.691614,289.337922 L236.0553,308.138786 L230.043666,316.219096 L225.691614,308.661032 L215.281505,290.579707 L215.281505,270.484832 Z M184.875169,270.273032 L184.875169,291.099052 L174.256162,308.916353 L170.527904,315.133984 L162.552043,311.092379 L162.084923,310.831256 L162.552043,310.053689 L174.256162,289.184149 L184.875169,270.273032 Z M351.042316,108.611709 C350.215427,142.020962 347.108061,174.707773 342.808234,207.80658 C338.354634,237.954694 332.551898,267.78656 326.02382,297.572004 C324.988032,302.495625 323.847794,307.364121 322.759781,312.287742 L309.398982,303.11942 L301.057549,297.368908 C304.002442,283.20812 306.783106,269.013674 309.398982,254.788431 C312.93326,235.426428 316.094403,215.998169 318.880652,196.514455 C321.983406,171.413661 324.366407,146.229127 326.026722,120.991846 C326.341197,116.868846 326.599443,112.74175 326.801387,108.611709 L351.042316,108.611709 Z M53.4606067,108.452134 L75.6821841,108.608808 L77.1850928,108.608808 C78.1193333,140.050933 80.0864608,170.92439 83.1445026,202.262065 C85.7222853,223.326108 88.7791846,244.328747 92.3128255,265.253666 C94.1384942,276.067226 96.0902806,286.859116 98.1677861,297.62713 L92.3128255,301.044941 L75.6850855,310.677483 C74.5417393,303.463024 73.3461684,296.257891 72.1360284,289.055518 L70.9224265,281.853822 C66.8701966,257.849612 62.795551,233.851746 60.0931339,209.617033 C56.3126514,175.792885 52.3232704,142.694079 53.4606067,108.452134 Z M113.707513,108.611709 C115.579327,141.227264 118.152468,173.798784 121.425152,206.303671 C122.864931,218.665412 124.436595,231.011436 126.139875,243.339633 C126.342971,244.894767 126.551869,246.499223 126.810091,248.054356 C128.325116,258.969257 129.964495,269.866536 131.72791,280.74407 L126.80719,282.97232 L126.136974,283.282767 L109.094338,290.893055 L105.624302,292.451089 C100.326404,261.992528 95.896015,231.844413 92.3853597,201.139236 C92.3157269,200.535751 92.269305,199.932267 92.2112776,199.328782 C89.3855465,169.154236 87.4678427,138.901539 86.4607663,108.611709 L113.707513,108.611709 Z M293.603934,108.455035 L309.401883,108.663934 L317.746217,108.814805 C316.597284,133.027429 314.851096,157.208019 312.509248,181.334498 C311.528586,189.156586 310.492797,196.92645 309.404784,204.644088 C305.28446,233.487147 300.01428,262.154213 293.606836,290.576806 C293.453063,291.148375 293.345713,291.722846 293.19194,292.288613 L276.81952,283.018742 L269.412328,278.820463 C272.049482,267.393038 274.518812,255.927531 276.81952,244.427646 C280.195354,227.649417 283.167214,210.792432 285.732523,193.871309 C289.385622,165.50595 291.977385,137.013976 293.502386,108.455035 L293.603934,108.455035 Z M149.292792,108.301263 C150.258326,133.932217 151.950503,159.530637 154.367284,185.065657 C156.651865,205.479626 159.380765,225.841419 162.552043,246.136552 C163.743895,253.811098 164.986675,261.477648 166.280301,269.135696 L162.552043,270.383284 L144.058724,276.441341 L140.849811,277.529354 C136.036372,249.353609 131.925792,221.062292 128.521898,192.681748 C127.898104,186.879012 127.329436,181.131402 126.810091,175.328666 C126.554771,172.894418 126.345872,170.512395 126.139875,168.078148 C124.378745,148.186369 122.928061,128.346814 121.840048,108.301263 L149.292792,108.301263 Z M284.232516,108.710356 C282.876945,135.696885 280.612593,162.630086 277.443315,189.464131 C277.240219,190.914815 277.028419,192.365499 276.81952,193.816183 C272.848143,221.380122 268.01208,248.812539 262.318483,276.072867 L261.491593,275.863969 L243.66849,270.481931 L238.750671,269.031247 C240.461896,260.394124 242.101226,251.742912 243.66849,243.07851 C246.694139,226.128373 249.371698,209.117941 251.699476,192.057954 C254.944188,164.354561 257.363067,136.560673 258.952896,108.713257 L276.81952,108.713257 L284.232516,108.710356 Z M243.66849,108.455035 L248.545689,108.457937 C247.46692,130.388759 245.841649,152.289284 243.671391,174.139105 C242.998274,180.664282 242.272932,187.19236 241.54759,193.769761 C238.205764,218.122215 234.077865,242.36032 229.170354,266.446128 L225.697416,265.561211 L222.854076,264.783644 C219.743809,245.414111 216.842441,225.986551 214.303744,206.460345 L213.526178,199.62182 C216.427546,195.580215 217.515559,192.783296 218.240901,187.810351 C218.191577,183.667198 217.567783,181.23295 215.600656,177.501791 C216.737992,174.861546 217.309561,172.734843 217.724457,169.888601 C217.776682,166.003669 217.414011,163.723194 215.548431,160.305383 C218.914018,155.904007 220.263154,152.639968 220.930469,147.147679 C220.930469,142.432956 220.002031,132.179521 215.858877,129.899046 L212.647063,131.712401 L211.921721,132.695965 L207.154773,157.557787 C206.116084,156.574223 205.239871,155.433986 203.629611,154.914641 C203.113168,154.760868 202.541598,154.708644 201.816256,154.708644 C197.571555,154.760868 195.656652,155.538435 195.137307,157.404015 C193.791072,150.359493 192.392613,143.262747 191.046378,136.218226 C190.474809,133.421307 190.37036,132.075072 187.625666,131.039284 C184.674974,131.039284 184.413851,133.267534 183.534737,135.597333 C181.773606,140.779176 179.70203,146.422337 179.545356,151.914626 C179.751353,152.89819 180.009575,153.829529 180.218473,154.815994 C180.961169,156.585192 181.862328,158.283606 182.910943,159.890487 C183.58406,160.563604 184.257177,161.288946 184.930295,162.014288 C184.152728,164.445635 183.688509,166.621661 183.427386,169.212582 C183.427386,172.11395 183.688509,174.548198 184.930295,177.243569 C182.443822,180.971827 181.561806,183.200078 180.836464,187.601453 C181.094686,193.662411 181.770705,196.407105 186.378077,200.44871 L186.325853,208.633469 C185.551187,228.525248 182.754269,246.809669 177.676875,265.973205 L174.256162,266.858122 L171.926363,267.423889 C168.424784,245.135488 165.574428,222.749641 163.378933,200.294938 C163.068487,196.56668 162.810265,192.835521 162.552043,189.107263 C160.582014,162.223187 159.337328,135.495785 158.768659,108.455035 L243.66849,108.455035 Z M201.143139,189.261035 L203.62671,189.467032 L203.884932,189.469934 L206.21473,190.404174 L208.135436,192.008631 L209.638344,194.341331 L203.62671,200.451612 L200.725342,203.405204 L192.439035,195.789113 L193.837494,193.044419 L195.755299,191.07439 L198.189546,189.78038 L201.143139,189.261035 Z M200.725342,163.256074 L203.62671,163.723194 L204.401375,163.827643 L207.099647,165.382777 L208.913002,168.025923 L209.739892,171.597507 L206.736976,174.188429 L206.736976,177.658465 L214.454615,186.101446 L212.330814,189.467032 L209.739892,187.601453 L206.890749,186.202993 L203.887833,185.323879 L203.62671,185.271654 L200.725342,184.856759 L197.516429,184.961208 L194.356839,185.477651 L191.403247,186.565664 L188.501879,188.120798 L186.636299,185.996996 L193.680821,177.501791 L193.680821,174.136204 L191.040576,171.597507 L192.073463,167.869249 L194.043492,165.226103 L196.94486,163.723194 L200.725342,163.256074 Z M200.676019,173.259991 L200.261123,173.312215 L199.950677,173.36444 L199.588006,173.521114 L199.225335,173.677788 L198.914888,173.93601 L198.604442,174.142007 L198.34622,174.452453 L198.137322,174.762899 L197.983549,175.12557 L197.8791,175.488241 L197.774651,175.850912 L197.774651,176.628479 L197.8791,177.043375 L197.983549,177.406046 L198.137322,177.713591 L198.34622,178.024037 L198.604442,178.334483 L198.914888,178.592705 L199.225335,178.798702 L199.588006,179.007601 L199.950677,179.11205 L200.261123,179.216499 L201.03869,179.216499 L201.453585,179.11205 L201.816256,179.007601 L202.178927,178.798702 L202.489374,178.592705 L202.750497,178.386708 L202.953593,178.128486 L203.162491,177.81804 L203.37139,177.455369 L203.525162,177.040473 L203.62671,176.625578 L203.62671,175.850912 L203.525162,175.436017 L203.37139,175.073346 L203.162491,174.65845 L202.953593,174.400228 L202.750497,174.142007 L202.489374,173.883785 L202.178927,173.677788 L201.816256,173.521114 L201.453585,173.36444 L201.03869,173.312215 L200.676019,173.259991 Z M138.049991,32.5697553 L137.997766,32.5697553 C126.189198,32.5697553 114.429954,40.9605116 114.429954,57.5360269 C114.429954,72.9219814 124.944511,82.4007507 137.997766,82.4007507 L138.049991,82.4007507 C151.103245,82.4007507 161.620704,72.9219814 161.620704,57.5360269 C161.620704,40.9111883 149.86146,32.5697553 138.049991,32.5697553 Z M192.285263,33.5533191 L173.066601,33.5533191 L173.066601,34.9517785 C176.435089,35.0562277 177.726198,35.9353422 180.732015,42.5156448 L198.447768,82.1947535 L199.535781,82.1947535 L215.542628,41.6365303 C217.718654,36.1442407 218.699317,35.160677 222.172254,34.9546798 L222.172254,33.5533191 L207.363672,33.5533191 L207.363672,34.9517785 C210.105465,35.0562277 212.644162,35.3144495 212.644162,38.2680421 C212.644162,39.7709507 211.402376,42.8260912 211.295026,43.2409868 L200.676019,69.7623917 L189.79879,45.3125636 C188.142109,41.633629 186.845198,38.6829377 186.845198,37.5949247 C186.845198,35.3144495 188.243657,35.160677 192.285263,34.9517785 L192.285263,33.5533191 Z M312.146577,33.5533191 L292.199672,33.5533191 L292.199672,34.9517785 C297.277066,35.4711233 298.365079,36.0920161 298.365079,41.4276318 L298.365079,72.7130829 C298.365079,78.1009233 298.054633,79.6560565 292.199672,80.0187275 L292.199672,81.3678636 L312.198802,81.3678636 L312.198802,80.0216289 C306.44829,79.7082812 305.722948,78.3620464 305.722948,73.4935509 L305.722948,59.3000587 L309.764554,59.1433848 L314.168831,64.8416716 L326.963863,81.3649623 L338.563533,81.3649623 L338.563533,80.0187275 C335.612841,79.8620537 333.854612,78.5680435 332.296578,76.5980147 L317.43287,58.3135936 C321.111804,57.5882516 330.483223,55.8764444 330.483223,46.1916781 C330.483223,36.1442407 320.749133,33.9682147 314.168831,33.6055437 C313.443489,33.6055437 312.76747,33.5533191 312.146577,33.5533191 Z M274.486821,33.5475164 L236.159749,33.5475164 L236.159749,34.9459757 C240.714897,35.3086467 242.426704,35.7235424 242.426704,41.4218291 L242.426704,73.4906495 C242.426704,79.0322624 240.767122,79.7053798 236.159749,80.0187275 L236.159749,81.3649623 L275.162839,81.3649623 L278.426878,69.1385976 L276.404625,69.1385976 C273.198613,76.4442422 269.621226,78.6173668 260.554451,78.6173668 L259.420328,78.6170151 C249.955244,78.6096899 249.835433,78.4591626 249.833916,75.6707778 L249.833897,57.6897994 L260.917122,57.8435719 C266.928757,57.8957966 268.010967,58.8793603 268.895884,64.6791949 L270.549664,64.6791949 L270.549664,47.9499071 L268.895884,47.9499071 C268.068995,53.0766243 267.343653,54.7855301 260.917122,54.7855301 L249.833897,54.7855301 L249.833897,38.7786829 C249.833897,36.447615 250.560655,36.3019233 251.935281,36.2928175 L261.952911,36.2922105 C269.983897,36.2922105 271.846576,37.4324481 272.934589,43.9054001 L274.747944,43.9054001 L274.486821,33.5475164 Z M76.3059783,33.5533191 L56.3619747,33.5533191 L56.3619747,34.9517785 C61.4393687,35.4711233 62.5273817,36.0920161 62.5273817,41.4276318 L62.5273817,72.7130829 C62.5273817,78.1009233 62.2169353,79.6560565 56.3619747,80.0187275 L56.3619747,81.3649623 L76.3582029,81.3649623 L76.3582029,80.0187275 C70.6076915,79.7082812 69.8823495,78.3620464 69.8823495,73.4906495 L69.8823495,59.2971573 L73.9239551,59.1404834 L78.3282318,64.8387702 L91.1232646,81.3620609 L102.725835,81.3620609 L102.725835,80.0187275 C99.7722426,79.8620537 98.0662382,78.5680435 96.4588804,76.5980147 L81.5922708,58.3135936 C85.268304,57.5882516 94.6455254,55.8793458 94.6455254,46.1916781 C94.642624,36.1442407 84.9578576,33.9682147 78.3253304,33.6055437 C77.5999884,33.6055437 76.926871,33.5533191 76.3059783,33.5533191 Z M138.049991,35.1577756 C145.404958,35.1577756 153.38372,41.0127362 153.38372,57.4838023 C153.38372,73.336877 146.028753,79.7576044 138.049991,79.7576044 L137.997766,79.7576044 C130.021905,79.7576044 122.614713,73.336877 122.614713,57.4838023 C122.614713,41.0127362 130.642798,35.1577756 137.997766,35.1577756 L138.049991,35.1577756 Z M314.168831,36.5591363 C317.949313,37.1800291 322.611811,39.3038305 322.611811,46.0379056 C322.611811,52.3048604 318.62243,54.8435574 314.168831,55.8793458 C311.215238,56.5524632 308.110774,56.5524632 305.72585,56.6075892 L305.72585,38.8396116 C305.72585,36.7651335 306.349644,36.24869 310.17945,36.24869 C311.064367,36.24869 312.509248,36.24869 314.168831,36.5591363 Z M74.3388508,36.2457886 C75.2208666,36.2457886 76.7208739,36.2457886 78.3282318,36.556235 C82.1087143,37.1771277 86.7712126,39.3009291 86.7712126,46.0350042 C86.7712126,52.3048604 82.7818316,54.8435574 78.3253304,55.8793458 C75.4239624,56.5524632 72.2643727,56.5524632 69.8823495,56.6046878 L69.8823495,38.8367102 C69.8823495,36.7651335 70.5032423,36.2457886 74.3388508,36.2457886 Z" id="rover" fill="#FFFFFF"></path>
</svg>