<?xml version="1.0" encoding="UTF-8"?>
<svg width="410px" height="410px" viewBox="0 0 410 410" version="1.1" xmlns="http://www.w3.org/2000/svg">
    <title>saab</title>
    <g stroke="none" stroke-width="1" fill="none" fill-rule="evenodd">
        <g id="saab" transform="translate(5, 5)" fill-rule="nonzero">
            <path d="M400,199.827679 C400,89.4588045 310.53581,0 200.172321,0 C89.4641896,0 0,89.461497 0,199.827679 C0,310.193861 89.4641896,400 200.172321,400 C310.538503,400 400,310.196554 400,199.827679 Z" id="Path" stroke="#FFFFFF" stroke-width="10"></path>
            <path d="M109.682283,129.219171 C113.109855,137.444803 119.623048,146.698977 130.592353,146.698977 C137.789445,146.698977 146.357027,141.900915 150.813139,141.900915 C157.670975,141.900915 161.782445,143.957997 163.497577,145.670436 C160.070005,137.786753 152.528271,135.387722 148.072159,135.387722 C142.245557,135.387722 135.732364,138.473344 127.162089,138.473344 C118.591815,138.473344 113.109855,132.649435 109.682283,129.219171 L109.682283,129.219171 Z" id="Path" fill="#FFFFFF"></path>
            <path d="M170.008078,97.6871298 C167.267097,99.7415186 164.868067,103.855681 164.181475,107.625202 C158.696823,104.53958 153.556812,102.827141 149.1007,102.827141 C139.843834,102.827141 128.877221,110.02154 127.848681,133.333333 C137.102854,128.877221 142.929456,127.504039 147.040926,127.504039 C150.468498,127.504039 152.870221,128.19063 154.58266,130.247711 C158.696823,135.732364 163.150242,136.758212 166.235864,137.442111 C168.292946,138.470652 171.720517,139.501885 175.148088,141.556274 C167.606354,151.497038 160.067313,153.896069 154.238018,153.896069 C148.069467,153.896069 143.955304,151.497038 139.499192,148.069467 C138.812601,160.751212 143.268713,168.976844 157.32364,169.663436 C151.494346,178.23371 149.781906,190.570813 151.152396,201.540118 C154.921917,193.998384 158.69413,189.884222 164.51804,187.829833 C160.403877,194.343026 158.346796,200.850835 158.346796,207.024771 C158.346796,222.450188 170,231.704362 173.772213,234.787291 C175.142703,223.134087 178.912224,213.877221 181.997846,209.081852 C183.368336,231.015078 180.969305,248.839526 178.228325,255.694669 C194.337641,251.925148 204.964997,245.756597 212.501346,235.815832 C216.270867,227.932149 216.618201,216.620894 216.270867,206.335487 C220.040388,211.136241 224.501885,218.677975 226.214324,223.815293 C236.152396,217.646742 240.266559,208.050619 240.266559,197.084006 C240.266559,192.969844 239.235326,187.143242 238.551427,184.399569 C241.978998,187.143242 244.719978,190.226171 247.466344,194.682283 L249.523425,190.226171 C251.922456,184.741519 252.945611,178.572967 252.945611,172.746365 C252.945611,164.520732 251.235864,157.66559 246.093161,149.439957 C249.520732,150.126548 255.008078,152.525579 257.746365,154.579968 C259.803446,137.786753 256.031233,124.760366 246.093161,114.819602 C248.150242,111.050081 250.204631,107.622509 252.945611,101.109316 C252.261712,100.425417 250.204631,100.080775 250.204631,100.080775 C249.520732,99.7388261 247.8056,99.3941842 244.719978,99.3941842 C241.978998,99.3941842 237.867528,99.7361335 233.756058,101.451265 C232.724825,99.7361335 231.351642,98.3656435 230.328487,96.9951535 L249.523425,51.0635433 C241.292407,51.0635433 233.069467,54.4911147 233.069467,61.3462574 C233.069467,63.4033387 233.758751,65.8023694 235.815832,68.2014001 C235.815832,68.5433495 235.473883,68.5433495 235.126548,68.5433495 L234.784599,68.5433495 C233.411416,66.8309101 231.357027,65.7996769 229.299946,65.7996769 C224.846527,65.7996769 221.416263,69.5718901 221.416263,73.6833603 C221.416263,78.1394723 224.843834,81.5697361 229.299946,81.5697361 C229.641896,81.5697361 230.331179,81.5697361 230.673129,81.2250942 C226.561659,85.3392569 222.447496,86.7097469 218.336026,86.7097469 C211.136241,86.7097469 205.309639,81.2250942 204.278406,77.7975229 C205.651589,78.8260635 207.364028,79.5099623 209.421109,79.5099623 C213.532579,79.5099623 216.962843,76.082391 216.962843,71.6262789 C216.962843,67.5148088 213.535272,63.7425956 209.421109,63.7425956 C208.047927,63.7425956 206.680129,64.0872375 205.651589,64.7711362 C207.024771,63.4006462 207.70867,61.3435649 207.70867,59.2864836 C207.70867,55.1750135 204.281099,51.7474421 200.169628,51.7474421 C195.713516,51.7474421 192.285945,55.1750135 192.285945,59.2864836 C192.285945,61.6855143 193.311793,63.7425956 194.684976,65.1157781 C193.656435,64.4318794 191.941303,63.7452881 190.573506,63.7452881 C186.117394,63.7452881 182.689822,67.5148088 182.689822,71.6289715 C182.689822,76.0850835 186.117394,79.5126548 190.573506,79.5126548 C192.288638,79.5126548 193.998384,78.8287561 195.029618,78.1421648 C191.943996,84.3134087 186.459343,86.0258481 181.319332,86.0258481 C175.148088,86.0258481 169.663436,83.2848681 169.321486,81.2277868 C169.663436,81.5724286 170.350027,81.5724286 170.691976,81.5724286 C175.148088,81.5724286 178.57566,78.1448573 178.57566,73.6860528 C178.57566,69.5745827 175.148088,65.8023694 170.691976,65.8023694 C168.634895,65.8023694 166.580506,66.8309101 165.207324,68.546042 L164.865374,68.546042 C164.523425,68.546042 164.523425,68.546042 164.523425,68.2040926 C166.238557,65.8023694 166.922456,63.4060312 166.922456,61.3489499 C166.922456,54.4938072 158.696823,51.0662359 150.47119,51.0662359 L170.008078,97.6871298 L170.008078,97.6871298 Z M116.195477,264.264943 C104.197631,264.264943 89.4641896,267.011309 89.4641896,280.035003 C89.4641896,291.340872 99.3995692,293.745288 113.454496,293.745288 C123.050619,293.745288 125.107701,295.802369 125.107701,298.882606 C125.107701,300.597738 124.421109,303.341411 116.537426,303.341411 C110.026925,303.341411 107.967151,300.255789 107.967151,297.167474 L87.7436726,297.167474 C88.085622,309.851912 101.453958,312.937534 116.879375,312.937534 C132.64405,312.937534 137.442111,310.191169 140.185784,307.79483 L138.470652,311.9063 L156.2951,311.9063 L159.038772,304.364567 L182.003231,304.364567 L185.088853,311.9063 L207.027464,311.9063 L210.110393,304.364567 L232.732903,304.364567 L235.818525,311.9063 L291.340872,311.9063 C300.597738,311.9063 304.02531,304.022617 304.02531,299.221863 C304.02531,295.110393 301.968228,288.257943 293.056004,287.22671 C300.945073,286.200862 302.652127,280.716209 302.652127,276.604739 C302.652127,272.493269 299.911147,264.951535 289.631125,264.951535 L248.497577,264.951535 L248.497577,299.224556 L234.445342,264.951535 L208.739903,264.951535 L196.055466,295.799677 L183.373721,264.951535 L157.668282,264.951535 L146.015078,293.742596 C144.644588,285.511578 136.758212,282.089391 118.591815,282.089391 C111.394723,282.089391 108.995692,281.058158 108.995692,277.630587 C108.995692,274.547658 111.739365,273.177167 116.192784,273.177167 C120.993538,273.177167 124.418417,273.861066 124.418417,279.345719 L144.641896,279.345719 C144.644588,266.669359 130.934303,264.264943 116.195477,264.264943 L116.195477,264.264943 Z" id="Shape" fill="#FFFFFF"></path>
            <path d="M181.319332,114.824987 C182.34518,114.824987 183.71567,114.824987 184.744211,115.166936 C183.373721,121.335487 178.917609,122.364028 175.83468,122.364028 C172.065159,122.364028 167.950996,120.648896 167.950996,114.822294 C168.634895,115.164243 169.663436,115.164243 170.350027,115.164243 C171.036618,116.879375 172.407108,118.933764 175.83468,118.933764 C179.262251,118.936457 180.977383,116.537426 181.319332,114.824987 L181.319332,114.824987 Z" id="Path" fill="#000000"></path>
            <path d="M163.497577,113.454496 C162.810985,118.252558 164.868067,126.82014 176.179321,126.82014 C180.290792,126.82014 186.803985,124.763059 188.861066,115.850835 C189.547658,115.850835 190.234249,116.195477 190.918148,116.537426 C191.946688,115.508885 192.633279,114.480345 193.317178,112.767905 C189.547658,110.368875 183.379106,110.024233 179.606893,110.024233 C177.207862,110.024233 175.150781,110.368875 173.0937,110.368875 C171.38126,110.368875 169.324179,110.024233 167.953689,109.684976 C168.982229,105.570813 170.694669,101.801292 172.75175,101.801292 L228.282176,101.801292 C228.624125,102.143242 229.308024,102.829833 229.308024,103.513732 C224.170705,106.599354 219.369952,111.055466 215.255789,116.537426 C215.939688,117.565967 217.65482,118.936457 219.02531,119.623048 C228.621432,106.941303 239.246096,104.53958 245.761982,104.884222 C235.82391,125.107701 216.281637,132.304793 200.175013,134.017232 C213.882606,139.159935 223.139472,147.043619 214.229941,162.124394 C211.144319,154.58266 206.688207,150.126548 198.117932,145.670436 C203.944534,163.152935 199.488422,172.749058 194.00377,178.23371 C193.66182,174.46419 192.29133,166.235864 189.892299,160.409262 C187.493269,163.839526 184.749596,166.922456 182.008616,168.979537 C181.663974,171.033926 182.008616,174.119548 182.350565,175.490038 C184.407647,174.116855 186.464728,172.404416 187.493269,171.033926 C188.521809,176.176629 189.55035,181.661282 188.863759,187.829833 C204.975767,180.288099 206.690899,165.893915 206.001616,158.352181 C209.771136,162.808293 211.486268,167.948304 212.512116,173.777598 C223.823371,160.067313 227.253635,146.015078 215.258481,136.418955 C228.968767,131.620894 235.826602,126.822833 243.021002,118.594507 C251.252019,126.82014 253.306408,137.444803 252.959074,146.357027 C248.163705,144.644588 243.368336,143.271405 234.795369,143.271405 C240.280022,148.414109 247.821756,158.352181 247.821756,172.407108 C247.821756,176.518578 247.137857,180.290792 246.106624,184.060312 C241.30587,178.917609 235.826602,176.176629 229.652666,173.777598 C232.399031,180.290792 235.137318,187.832526 235.137318,197.086699 C235.137318,204.970382 232.738288,211.138934 228.284868,215.595046 C224.857297,208.395261 218.346796,199.488422 210.457728,194.687668 C211.83091,209.084545 211.488961,226.564351 208.058697,233.074852 C201.890145,240.958535 194.351104,245.070005 185.780829,248.15832 C187.493269,239.243403 188.866451,216.626279 185.780829,196.058158 C180.982768,200.51427 173.441034,209.768444 170.355412,224.509962 C167.611739,221.42434 163.500269,216.278945 163.500269,207.030156 C163.500269,198.11524 168.298331,189.203016 176.523963,180.293484 C169.668821,180.635433 163.155627,181.663974 156.645127,186.464728 C158.015617,175.153473 164.186861,167.953689 171.383953,162.471729 C164.52881,163.842219 161.101239,164.526117 157.673667,164.526117 C153.217555,164.526117 147.732903,163.155627 146.020463,157.670975 C148.077544,158.354873 151.160474,159.041465 154.246096,159.041465 C161.443188,159.041465 170.355412,155.955843 179.267636,143.957997 C180.296177,142.932149 180.640819,141.900915 180.640819,141.217017 C180.640819,136.760905 171.383953,133.333333 165.8993,131.962843 C165.215401,131.620894 161.443188,130.934303 158.702208,126.82014 C155.616586,123.734518 151.847065,122.364028 147.046311,122.364028 C143.276791,122.364028 139.16532,123.392569 134.022617,125.107701 C135.390415,118.594507 139.16532,108.311793 149.103393,108.311793 C153.21217,108.311793 158.012924,110.024233 163.497577,113.454496 L163.497577,113.454496 Z M214.569198,293.403339 L221.421648,276.265482 L228.621432,293.403339 L214.569198,293.403339 L214.569198,293.403339 Z M163.497577,293.403339 L170.694669,276.265482 L177.549812,293.403339 L163.497577,293.403339 L163.497577,293.403339 Z M280.037695,283.117932 L265.296177,283.117932 L265.296177,276.265482 L280.037695,276.265482 C281.747442,276.265482 283.120625,277.633279 283.120625,279.687668 C283.117932,281.4028 281.74475,283.117932 280.037695,283.117932 Z M265.296177,299.57189 L265.296177,293.056004 L281.060851,293.056004 C282.775983,293.056004 284.146473,294.429187 284.146473,296.141626 C284.146473,298.198708 282.77329,299.569198 281.060851,299.569198 L265.296177,299.569198 L265.296177,299.57189 Z M226.222402,97.003231 L173.780291,97.003231 L171.505116,91.5158858 L228.489499,91.5158858 L226.222402,97.003231 Z" id="Shape" fill="#000000"></path>
        </g>
    </g>
</svg>