<?xml version="1.0" encoding="UTF-8"?>
<svg width="400px" height="358px" viewBox="0 0 400 358" version="1.1" xmlns="http://www.w3.org/2000/svg">
    <title>seat</title>
    <path d="M132.356119,1.79371186 C207.54522,-0.856041486 282.80949,1.77491928 357.867043,6.59521527 C365.769321,7.28114433 373.774959,7.2247666 381.555086,8.88790965 C385.764623,9.90270881 390.312427,11.5094741 392.774254,15.3337635 C395.019967,19.4963193 395.066949,24.3542005 395.649518,28.9395892 C397.434813,51.4624927 397.961005,74.079359 399.642941,96.6022625 C396.391825,96.9969066 393.140709,96.4989033 389.889594,96.3955441 C331.99906,93.3981281 274.061546,90.9081117 216.07705,90.8329414 C186.046512,90.917508 155.978389,90.626223 125.976039,92.0826477 C118.703312,93.1538246 110.472163,95.5874633 106.272023,102.070902 C128.973455,106.10191 151.627907,110.452392 174.319944,114.55857 C249.527837,128.63421 324.792107,142.399772 400,156.45662 C399.934226,170.720186 399.962415,184.983752 399.990604,199.247318 C357.697909,192.247083 315.480385,184.692467 273.21588,177.466721 C182.287996,161.793712 91.3883016,145.904588 0.432229269,130.38192 C0.61075875,114.549173 1.28729152,98.7258237 1.61616162,82.8836813 C2.18933521,70.3396362 1.83227625,57.6264579 4.66995537,45.3079237 C6.57740193,36.6163569 10.1104064,27.8778086 16.6972046,21.666862 C28.0667136,10.4101084 44.5102185,7.24355917 59.8167724,5.65558642 C83.9370449,3.41926977 108.160677,2.68635927 132.356119,1.79371186 L132.356119,1.79371186 Z M0,151.213491 C130.270143,175.249197 260.493305,199.688943 390.744656,223.865593 C393.591731,224.560919 396.636129,224.617297 399.370449,225.660285 L399.699319,226.411988 C398.985201,247.779148 398.571764,269.1651 397.801268,290.53226 C397.303265,303.715253 395.912615,317.509004 389.128494,329.122817 C381.855767,341.131274 368.306319,347.774449 354.897815,350.283258 C335.137421,353.994792 314.954193,354.239096 294.940099,355.338462 C208.823115,359.247318 122.527602,357.086171 36.5515621,351.16651 C29.6828753,350.687299 22.6920366,350.565147 16.0206718,348.657701 C12.5628377,347.567731 8.99224806,345.810625 7.03782006,342.615887 C4.94244773,338.425142 4.81089969,333.642432 4.29410383,329.075835 C2.45243129,304.147482 1.47521729,279.172147 0.169133192,254.215605 C44.5196148,257.034492 88.9452666,258.613068 133.380315,259.599679 C176.283768,260.295004 219.187221,260.285608 262.090674,260.708441 C271.346018,261.093688 281.353066,259.327186 288.372093,252.824955 C289.396288,251.650418 291.059432,250.560449 290.890298,248.803343 C271.552737,245.89989 252.32793,242.291715 233.027954,239.11577 C155.377026,225.838814 77.688513,212.68401 0.0469814423,199.331884 C-0.0469814423,183.29242 0.0657740193,167.252955 0,151.213491 L0,151.213491 Z" id="seat" fill="#FFFFFF"></path>
</svg>