<?xml version="1.0" encoding="UTF-8"?>
<svg width="400px" height="401px" viewBox="0 0 400 401" version="1.1" xmlns="http://www.w3.org/2000/svg">
    <title>skoda</title>
    <path d="M399.151993,182.310037 C409.244245,292.049753 328.077994,389.808679 218.456161,399.900931 C108.776589,410.111067 10.9599253,328.944816 0.867672506,219.265244 C-9.34727511,109.580861 71.8213819,11.8243415 181.561098,1.61420548 C291.182931,-8.48045307 388.937045,72.6882039 399.151993,182.310037 Z M227.193959,341.39714 L195.726339,342.81174 L196.200278,351.965738 L206.05917,351.491799 L207.829825,379.769353 L220.108933,379.235269 L218.453755,350.957715 L227.725637,350.488588 L227.193959,341.39714 Z M142.188081,331.422771 L136.522466,351.669827 C133.510427,362.41164 138.586626,369.792578 149.152818,372.508705 C158.364554,374.98666 167.393452,371.683522 169.991696,361.114924 L175.717455,340.867868 L164.383819,337.800497 L158.775943,357.806975 C158.7222,357.996817 158.668284,358.188854 158.613623,358.382154 L158.503142,358.770157 L158.38966,359.159865 C157.447877,362.344918 156.104323,365.534345 151.868945,364.65864 C147.028513,363.653024 148.26749,358.576825 149.212962,355.213543 L154.878577,335.257586 L142.188081,331.422771 Z M258.892534,328.591166 C246.731309,334.846198 243.189999,350.548733 252.873269,362.17828 C259.542095,370.208778 277.842874,366.960973 283.924689,360.171858 C292.01052,351.140555 289.590304,337.386703 282.979217,330.775616 C277.251051,325.165334 266.213327,324.869422 258.892534,328.591166 Z M107.535206,309.874187 L74.1814534,329.416349 L84.0980841,337.800497 L90.3555214,333.313715 L100.45018,341.399546 L97.8519361,349.071583 L107.475062,357.689092 L121.642708,319.733079 L107.535206,309.874187 Z M275.540541,342.696262 C277.251051,346.949684 278.07864,354.092449 273.120325,356.567998 C267.745809,359.108503 262.491583,354.325809 260.367278,349.545522 C258.182828,344.762828 258.064945,337.50218 263.201288,335.435614 C267.745809,333.609626 272.764269,336.029842 275.540541,342.696262 Z M109.719656,319.677746 L104.169518,333.431598 L97.3226642,327.999344 L109.719656,319.677746 Z M186.933208,78.1180524 C119.40052,84.3754897 69.4589046,144.527241 75.7187477,212.062335 C81.9737792,279.592617 142.127936,329.536638 209.658219,323.216651 C277.195718,316.961619 327.072377,256.865201 320.875085,189.334919 C314.559909,121.742086 254.465896,71.8028764 186.933208,78.1180524 Z M218.451349,90.8710994 C257.234951,119.38442 270.870919,182.605948 245.605404,244.352732 C244.777815,246.477037 244.13066,249.371192 244.190804,251.673525 C244.246137,254.153885 245.665548,255.272574 248.381675,255.332718 C250.857224,255.272574 251.980724,254.740896 252.868457,252.734474 C252.808313,250.136231 252.331968,248.485865 253.81393,246.123387 C264.259832,244.53076 285.276738,256.629434 290.944759,267.258176 C284.389005,275.875685 267.507637,283.961516 253.518018,283.901705 C251.980724,283.665605 250.85963,282.659989 250.445836,281.067361 L250.390503,277.819557 C250.157142,275.226124 249.151525,273.68883 246.967076,273.214891 L152.518506,264.479499 C144.430269,262.533222 136.755826,264.715266 129.613062,270.739342 C125.77584,272.801097 113.143082,272.39452 111.372427,267.195626 C107.653089,253.145863 105.942579,246.830687 96.1414256,238.918072 C93.1895319,235.55479 93.6634708,233.134574 97.5584308,231.775307 L125.833579,234.373551 C130.969922,234.905229 134.568971,236.26209 137.520865,237.854717 L152.691722,246.416893 C153.990844,247.244481 159.420692,247.773753 159.59872,242.108138 C160.248281,226.521081 153.694933,208.812124 141.300347,194.998128 C137.463126,190.864995 131.973133,187.323685 126.069346,184.018142 C121.346797,181.833692 116.681987,180.18092 111.841555,179.649243 C102.336313,178.999682 96.8487253,177.642821 95.4317201,175.6364 C91.6198303,172.83573 93.266108,166.705026 95.5417589,161.092048 L95.7877669,160.492814 L96.0372718,159.898594 C97.0823275,157.434582 98.1840755,155.128529 98.9128857,153.322777 C101.746896,146.593807 105.880028,140.158342 112.313088,137.384476 C122.111835,138.861626 134.804738,145.412568 149.148006,154.857666 C153.752672,155.507227 154.991649,153.796716 152.513694,149.663584 C149.70403,147.068131 145.792676,144.574718 141.62726,142.214344 L140.731091,141.710598 C139.681745,141.125295 138.620304,140.548447 137.560012,139.980535 L136.65178,139.495955 C136.391934,139.357811 136.132385,139.220215 135.873329,139.083173 L135.097837,138.673715 C126.459073,134.120158 118.593621,130.196445 118.866436,127.171934 C122.999569,117.49107 136.339626,109.580861 146.256257,103.441307 C153.281138,98.896786 161.251492,95.7692702 166.741485,96.652192 C172.881039,98.7187582 183.387086,111.823049 198.796116,132.486305 C201.74801,136.559293 206.766469,133.017983 204.51947,128.531201 C204.118506,127.940859 203.706866,127.337903 203.291013,126.731043 L202.790381,126.001493 L202.288187,125.27154 C199.777447,121.626338 197.3012,118.091405 196.255611,116.548004 C187.460074,105.03634 179.903515,97.6000698 179.963659,94.5302928 C181.380665,87.9769444 197.436849,87.2696447 218.451349,90.8710994 Z M217.8066,209.047891 C208.715152,209.935624 201.986182,218.023861 202.873915,227.115309 C203.694287,236.264495 211.787335,242.993466 220.873971,242.165877 C230.027969,241.282955 236.75694,233.194718 235.929351,224.103271 C235.046429,214.954084 226.955787,208.220302 217.8066,209.047891 Z M371.230494,119.379608 L311.013787,122.216025 L318.274435,137.800676 L330.969743,137.268999 L337.994625,153.856861 L328.544716,162.238603 L334.686675,179.062232 L379.903336,138.565715 L371.230494,119.379608 Z M362.139046,133.371633 L347.439722,146.831979 L342.657029,135.791849 L362.139046,133.371633 Z M57.6537355,83.2519898 C37.0530298,99.1325525 32.8597529,120.204791 48.3265212,127.171934 C60.7235125,132.779811 73.9456868,110.99546 77.0154638,112.179105 C87.7596833,116.369976 69.3410213,133.075722 66.6850387,134.670755 L75.4805753,141.221697 C93.1317931,129.002734 102.398863,108.991445 88.4092443,98.422847 C72.1750318,86.2616223 61.4308122,109.874366 54.2880474,108.9313 C49.6833819,108.341884 54.6416973,97.5375195 64.382706,89.037894 L57.6537355,83.2519898 Z M43.0722947,84.8470229 C40.9479898,87.0892111 38.8814236,89.5094271 38.2318627,91.5759933 L39.9423732,94.8815369 L35.5758801,95.2351868 C33.805225,97.3017529 32.980042,98.7789027 31.9744254,101.670652 L39.4708401,101.730796 C40.9479898,98.247225 42.8942669,94.9416814 45.0787164,92.3434376 L43.0722947,84.8470229 Z M292.306431,36.971974 L262.905377,79.3570298 L278.256668,89.9232215 C295.90548,102.084446 308.656121,105.03634 320.225524,88.4484776 C331.739593,71.8606151 326.899161,58.7563241 308.540644,47.2446604 L292.306431,36.971974 Z M139.29152,23.7522055 L121.81833,30.777087 L119.104609,58.1669077 L107.239295,38.2735017 L92.835882,47.0088938 L118.63067,91.2848938 L133.447877,82.1958518 L120.872858,61.2968292 L145.370929,75.9360088 L162.608353,69.1468938 L135.100649,51.495676 L139.29152,23.7522055 Z M299.095546,55.6865471 C308.362616,62.0017232 314.620053,64.9536169 306.411527,77.4708973 C298.15248,89.9232215 291.418698,85.5567284 283.393011,78.8854967 L299.095546,55.6865471 Z M182.446426,41.516495 C182.917959,60.0554461 195.254806,67.6673383 213.613323,67.3738329 C231.971841,67.0803276 244.664743,60.1131848 244.133065,39.216568 C243.663938,18.1996621 228.904469,14.1868188 212.138579,13.4193746 C195.375095,12.6495245 182.032631,22.9222109 182.446426,41.516495 Z M225.187537,40.5156899 C223.707982,53.3842144 218.631783,56.6897579 212.552374,56.6897579 C206.588442,56.6897579 200.273266,53.4443589 201.512243,38.5092683 C202.046326,32.1916865 204.052748,23.9254217 213.675873,23.5140331 C219.928499,23.218122 226.484253,28.3544652 225.187537,40.5156899 Z" id="skoda" fill="#FFFFFF"></path>
</svg>