<?xml version="1.0" encoding="UTF-8"?>
<svg width="400px" height="376px" viewBox="0 0 400 376" version="1.1" xmlns="http://www.w3.org/2000/svg">
    <title>smart</title>
    <path d="M283.557147,31.9878884 C324.810504,58.6664918 384.076395,141.88941 400,187.905525 C384.088332,233.99326 324.810504,317.108748 283.557147,343.906719 L283.557147,31.9878884 Z M195.511788,91.1105384 C217.021785,91.1105384 244.452402,99.6572409 266.045956,115.079503 L266.045956,21.2328899 C244.512086,7.83987292 218.406446,-0.00256217821 187.800657,-0.00256217821 C83.9868696,-0.00256217821 0,84.139485 0,187.917462 C0,291.826743 83.9868696,375.646498 187.800657,375.646498 C218.406446,375.646498 244.512086,368.066671 266.045956,354.64978 L266.045956,260.552496 C244.452402,275.962821 217.021785,284.736322 195.511788,284.736322 C137.069531,284.736322 94.1450313,242.03862 94.1450313,187.917462 C94.1450313,133.569506 137.069531,91.1105384 195.511788,91.1105384 Z" id="smart" fill="#FFFFFF"></path>
</svg>