<?xml version="1.0" encoding="UTF-8"?>
<svg width="400px" height="244px" viewBox="0 0 400 244" version="1.1" xmlns="http://www.w3.org/2000/svg">
    <title>ssangyong</title>
    <path d="M398.841891,86.9738041 C387.37351,44.6270376 332.574834,23.2830048 332.574834,23.2830048 C317.954025,17.9323171 323.792807,26.3363465 323.792807,26.3363465 C323.792807,26.3363465 386.848717,55.361442 386.848717,95.7631711 C386.848717,145.80201 318.137519,160.767788 318.137519,160.767788 C380.631937,140.884368 380.811761,98.4531945 380.811761,98.4531945 C379.714467,56.0293605 323.792807,26.3363465 323.792807,26.3363465 C302.232251,14.1046304 290.536338,11.0439489 290.536338,11.0439489 C262.395684,1.6160225 271.52635,12.5742897 271.52635,12.5742897 C271.52635,12.5742897 356.421727,39.3240583 356.421727,98.3357583 C356.421727,158.609898 238.090057,177.972194 238.090057,177.972194 C349.360874,157.325439 349.382893,98.8348622 349.382893,98.8348622 C349.382893,46.1500386 271.52635,12.5742897 271.52635,12.5742897 C259.834107,6.20704467 240.002065,1.07654987 240.002065,1.07654987 C221.630637,-2.83921405 232.053101,5.18681752 232.053101,5.18681752 C306.61776,48.7629944 306.61776,96.9265236 306.61776,96.9265236 C306.61776,150.44808 257.54777,163.82113 257.54777,163.82113 C243.290279,169.366321 215.703778,173.803208 215.703778,173.803208 C211.237531,175.124366 208.114462,178.196057 208.114462,181.796211 C208.114462,183.249484 208.466771,184.688078 209.527366,185.829411 C212.22106,188.706598 221.289338,195.451841 221.289338,195.451841 C224.537183,198.508853 226.434512,202.292501 226.434512,206.388089 C226.434512,216.436226 214.881724,224.590703 200.528816,224.777867 L199.47189,224.777867 C185.122652,224.590703 173.558855,216.439895 173.558855,206.388089 C173.558855,202.292501 175.467193,198.508853 178.707699,195.451841 C178.707699,195.451841 187.772307,188.706598 190.466,185.829411 C191.526596,184.688078 191.889914,183.253154 191.889914,181.796211 C191.889914,178.196057 188.759505,175.124366 184.296929,173.803208 C184.296929,173.803208 156.706757,169.369991 142.449266,163.82113 C142.449266,163.82113 93.3792762,150.45175 93.3792762,96.9265236 C93.3792762,96.9265236 93.3792762,48.7593245 167.943935,5.18681752 C167.943935,5.18681752 178.36273,-2.83921405 159.994971,1.07654987 C159.994971,1.07654987 140.16293,6.20704467 128.470686,12.5742897 C128.470686,12.5742897 50.6178131,46.1463687 50.6178131,98.8348622 C50.6178131,98.8348622 50.6324926,157.325439 161.914319,177.972194 C161.914319,177.972194 43.5789797,158.613567 43.5789797,98.3357583 C43.5789797,39.3240583 128.470686,12.5742897 128.470686,12.5742897 C128.470686,12.5742897 137.601352,1.6160225 109.460698,11.0439489 C109.460698,11.0439489 97.764785,14.1009605 76.2005593,26.3363465 C76.2005593,26.3363465 20.27523,56.0293605 19.1816053,98.4531945 C19.1816053,98.4531945 19.3614295,140.884368 81.863187,160.767788 C81.863187,160.767788 13.1483195,145.79834 13.1483195,95.7631711 C13.1483195,55.361442 76.2005593,26.3363465 76.2005593,26.3363465 C76.2005593,26.3363465 82.0466811,17.9286473 67.4295417,23.2830048 C67.4295417,23.2830048 12.6198565,44.6307075 1.15881557,86.9738041 C1.15881557,86.9738041 -2.31656253,102.92678 2.7698937,114.578655 C8.93529518,128.847156 25.0130475,152.481195 65.961589,165.725798 C65.961589,165.725798 84.6045887,173.381172 159.172918,188.288232 L163.565766,189.29011 C163.565766,189.29011 166.773243,190.695674 164.475897,193.227893 L154.203898,202.057629 C154.203898,202.057629 139.139033,213.647115 160.64087,223.401661 C160.64087,223.401661 173.760698,227.871577 183.0088,237.772919 C183.0088,237.772919 188.957679,243.431876 199.031504,243.714457 L199.031504,243.754826 L199.703093,243.754826 C199.732452,243.754826 199.758141,243.765836 199.78016,243.765836 L199.78016,243.754826 L200.213206,243.754826 L200.213206,243.765836 L200.290274,243.754826 L200.752679,243.754826 L200.752679,243.740146 C210.95862,243.519954 216.980896,237.772919 216.980896,237.772919 C226.232668,227.871577 239.345156,223.401661 239.345156,223.401661 C260.854334,213.647115 245.782129,202.057629 245.782129,202.057629 L235.51747,193.227893 C233.223793,190.695674 236.4276,189.29011 236.4276,189.29011 L240.813109,188.288232 C315.377768,173.381172 334.028108,165.725798 334.028108,165.725798 C374.976649,152.481195 391.054401,128.850826 397.227143,114.578655 C402.317269,102.92678 398.841891,86.9738041 398.841891,86.9738041 L398.841891,86.9738041 Z" id="ssangyong" fill="#FFFFFF"></path>
</svg>