<?xml version="1.0" encoding="UTF-8"?>
<svg width="400px" height="239px" viewBox="0 0 400 239" version="1.1" xmlns="http://www.w3.org/2000/svg">
    <title>subaru</title>
    <path d="M199.505886,0.969987295 C252.799432,0.969987295 301.838479,15.0104785 338.024187,36.3214801 C376.064421,58.7362131 400.000001,89.2877573 400.000001,120.27566 C400.000001,151.212227 376.160677,181.46217 338.248784,203.607388 C302.063075,224.745129 252.908522,238.61236 199.505886,238.61236 C146.539608,238.61236 97.5839834,224.713044 61.5009477,203.530383 C23.7815659,181.385166 1.29256659e-06,151.180142 1.29256659e-06,120.27566 C-0.00641445787,89.3262596 23.8714045,58.8003835 61.7191272,36.3920675 C97.7764947,15.0425637 146.635864,0.969987295 199.505886,0.969987295 Z M199.505886,6.8094969 C147.70751,6.8094969 99.9069532,20.5548041 64.6773843,41.4101956 C28.5943485,62.7725335 5.8266781,91.4952203 5.8266781,120.288495 C5.8266781,149.017598 28.4916758,177.42585 64.4335366,198.525089 C99.6759396,219.213638 147.57917,232.785685 199.499469,232.785685 C251.836876,232.785685 299.939034,219.239306 335.309778,198.582843 C371.44415,177.470769 394.154067,149.03685 394.154067,120.288495 C394.154067,91.4631351 371.341477,62.7147801 335.072347,41.3460251 C299.746523,20.529136 251.747037,6.8094969 199.505886,6.8094969 Z M167.228157,156.474203 L176.032341,176.033352 L214.181664,184.837535 L176.032341,192.659911 L168.203547,213.200868 L159.405781,191.684521 L124.195463,184.837535 L159.405781,177.008742 L167.228157,156.474203 Z M268.951131,150.602608 L276.773507,169.186366 L315.904638,177.99055 L277.748897,185.812926 L268.951131,206.353882 L260.14053,185.812926 L225.91202,177.99055 L260.14053,170.168174 L268.951131,150.602608 Z M126.152661,32.2594915 L145.71181,77.2493837 L235.704428,96.8149494 L146.6872,115.39229 L127.128052,164.296579 L107.568903,114.4169 L25.4114949,96.8149494 L107.568903,79.2065819 L126.152661,32.2594915 Z M235.704428,103.655518 L244.502195,123.214666 L282.638685,131.04346 L244.502195,139.847643 L236.666985,160.382182 L227.869218,138.865836 L192.6589,131.04346 L227.869218,123.214666 L235.704428,103.655518 Z M329.585775,103.655518 L337.420985,123.214666 L375.557475,131.04346 L337.420985,139.847643 L329.585775,160.382182 L320.788008,138.865836 L286.546664,131.04346 L320.788008,123.214666 L329.585775,103.655518 Z M304.161449,45.9470453 L312.972049,65.512611 L351.108539,73.3349871 L312.972049,81.1573632 L305.136839,102.680127 L296.339072,81.1573632 L261.128755,73.3349871 L296.339072,65.512611 L304.161449,45.9470453 Z" id="subaru" fill="#FFFFFF"></path>
</svg>