<?xml version="1.0" encoding="UTF-8"?>
<svg width="400px" height="408px" viewBox="0 0 400 408" version="1.1" xmlns="http://www.w3.org/2000/svg">
    <title>suzuki</title>
    <path d="M143.597009,102.725961 C147.338318,90.5102978 156.812279,96.744064 156.812279,96.744064 C156.812279,96.744064 181.364292,115.440115 248.705234,158.292011 C316.046176,201.143907 400,141.676505 400,141.676505 L200.603437,0 C113.147055,92.7010363 1.20687393,125.934671 1.20687393,125.934671 L1.52433425,126.057982 L256.402991,304.782894 C252.661682,316.998557 243.187721,310.767414 243.187721,310.767414 C243.187721,310.767414 218.635708,292.068739 151.294766,249.21422 C83.953824,206.362325 0,265.832349 0,265.832349 L199.396563,407.508855 C286.852945,314.805195 398.793126,281.574183 398.793126,281.574183 L398.470418,281.448249 L143.597009,102.725961 Z" id="suzuki" fill="#FFFFFF"></path>
</svg>