<?xml version="1.0" encoding="UTF-8"?>
<svg width="400px" height="399px" viewBox="0 0 400 399" version="1.1" xmlns="http://www.w3.org/2000/svg">
    <title>tesla</title>
    <path d="M158.732412,38.7469241 L199.979,88.985 L241.220266,38.754811 C241.220266,38.754811 310.572127,40.1972259 380.291503,71.8898159 L382.404253,72.8594864 C364.35895,99.9558332 328.575935,113.297369 328.575935,113.297369 C326.145183,89.4236229 309.320777,83.5746735 255.983027,83.5746735 L200.022083,398.293268 L143.611584,83.5289293 C90.6303237,83.5667865 73.8264244,89.415736 71.3830526,113.291059 C71.3830526,113.291059 35.5874188,99.9495236 17.5563127,72.8531769 C87.9708499,40.2202032 158.732412,38.7469241 158.732412,38.7469241 Z M199.992113,0 C258.79393,0.247649694 327.080573,10.1205123 400,38.9693356 C400,38.9693356 397.708057,46.0612657 388.792668,62.1080194 C322.086567,33.0352073 256.927882,23.7932993 200,24.228658 C143.064231,23.7932993 77.8913496,33.0352073 11.1994448,62.1080194 C3.42532926,48.0180138 0.143634616,39.3518213 0.00462620766,38.9816891 L0,38.9693356 C72.9083854,10.1220897 141.191873,0.247649694 199.992113,0 Z" id="tesla" fill="#FFFFFF"></path>
</svg>