<?xml version="1.0" encoding="UTF-8"?>
<svg width="400px" height="251px" viewBox="0 0 400 251" version="1.1" xmlns="http://www.w3.org/2000/svg">
    <title>toyota</title>
    <path d="M199.998466,0.184845723 C310.276947,0.184845723 400,56.3183325 400,125.326388 C400,194.328306 310.276947,250.469464 200,250.469464 C89.721519,250.469464 0,194.328306 0,125.326388 C0,56.3183325 89.7199847,0.184845723 199.998466,0.184845723 Z M334.645186,74.4602581 C326.596087,95.3946654 296.52781,112.836936 254.037591,120.952011 C254.044064,121.326244 254.050987,121.71606 254.05806,122.107452 L254.066602,122.576984 C254.099476,124.372884 254.133018,126.083601 254.138175,126.345822 L254.138857,126.380473 C254.138857,167.374719 244.411201,202.777865 228.366705,221.878747 C304.599923,213.74526 361.136939,173.930914 361.136939,127.141501 C361.136939,108.281509 351.930955,90.1810099 334.645186,74.4602581 Z M65.341005,74.4602581 C48.0675105,90.1810099 38.867664,108.281509 38.867664,127.141501 C38.867664,173.930914 95.4077484,213.74526 171.633295,221.878747 C155.588799,202.777865 145.861143,167.374719 145.861143,126.380473 L145.86169,126.345839 C145.865667,126.095138 145.890901,124.519749 145.923931,122.811284 L145.933122,122.342935 C145.942487,121.873077 145.95234,121.401378 145.962409,120.952011 C103.458381,112.836936 73.3885692,95.3961998 65.341005,74.4602581 Z M169.008,114.226846 L168.97539,115.067605 C168.877236,117.745315 168.827004,120.478793 168.827004,123.264247 C168.827004,167.997657 182.780207,201.897159 199.998466,201.897159 C182.782735,201.895845 168.830043,167.99679 168.830043,123.245835 C168.828972,120.234576 168.888824,117.223602 169.00959,114.214765 L169.009,114.226846 L169.008,114.226846 Z M223.792865,124.905981 C215.978519,125.481355 208.030687,125.840388 199.998466,125.840388 C191.978519,125.840388 184.007672,125.481355 176.204066,124.905981 C176.653625,163.143035 188.701189,188.692709 199.998466,188.692709 C211.285002,188.692709 223.331032,163.143035 223.792865,124.905981 Z M24.1550378,124.362266 L24.1472957,125.025659 C24.1472957,148.454621 35.8345934,170.173719 55.7581328,188.022544 C35.8375026,170.173799 24.1518987,148.455371 24.1518987,125.027193 C24.1518987,124.805397 24.1529461,124.583754 24.1550378,124.362266 Z M67.84596,52.3773862 L66.4767399,53.3623252 C45.7435093,68.4970642 31.4585709,87.1967873 26.2889195,107.790163 C26.280786,107.84387 26.2677097,107.896194 26.2546924,107.94853 C25.8169727,109.687308 25.4493209,111.440961 25.1483516,113.207085 C25.4632129,111.389133 25.8440604,109.58317 26.2939211,107.791558 C31.5806401,86.7367092 46.3985803,67.6637502 67.8987342,52.3459504 L67.8418234,52.3863617 Z M170.526501,96.4415174 C178.189515,97.1260211 186.216777,97.5450032 194.54067,97.6728222 C186.198802,97.5392019 178.162288,97.1078907 170.479478,96.4380103 L170.526501,96.4415174 Z M229.482575,96.4405192 L227.865148,96.5781006 C220.67748,97.1683797 213.191593,97.5490532 205.440304,97.6715823 C213.776182,97.5454339 221.812575,97.1260308 229.485355,96.4469725 Z M211.957754,50.4015617 L212.294553,50.7393958 C220.30909,58.8764839 226.589275,75.0121875 229.46682,96.3965834 L228.009,95.3388457 L228.011,95.3478457 L229.47802,96.4065865 C226.56396,74.715087 220.140479,58.4247145 211.957754,50.4015617 Z M184.575961,54.4387663 L184.403183,54.673075 C177.97335,63.5549168 172.997017,78.0424849 170.532258,96.3986036 C173.025748,77.8804888 178.065305,63.2994956 184.575961,54.4387663 Z M310.56906,69.0888034 L310.199267,69.5255883 C300.524864,80.8213168 276.497277,90.2120034 244.208669,94.7594526 L245.383,93.3238457 L244.197145,94.7704072 C276.9239,90.1647888 301.149639,80.5828369 310.56906,69.0888034 Z M96.0707267,75.1975782 L96.3928096,75.433285 C108.396871,84.0541339 129.309334,91.039937 155.786072,94.7679566 L155.780289,94.7578978 C129.068762,90.9961545 108.020271,83.9220513 96.0707267,75.1975782 Z M199.998466,56.9412707 C191.410817,56.9412707 183.469122,69.8035646 179.303414,89.8818154 C186.088224,90.325237 193.00959,90.6014165 199.992328,90.6014165 C206.984273,90.6014165 213.90257,90.325237 220.695052,89.8818154 C216.517069,69.8035646 208.587649,56.9412707 199.998466,56.9412707 Z M332.32558,52.503554 L332.327486,52.5206957 C332.591976,52.7097633 332.855451,52.899404 333.117905,53.0896145 L333.491938,53.3617993 C333.5498,53.4038754 333.60763,53.4459968 333.665426,53.4881635 C333.827347,53.6068182 333.988641,53.7253485 334.14954,53.8440958 C335.500064,54.8374143 336.832045,55.8564887 338.144994,56.8998438 C338.146999,56.9025002 338.149004,56.9051566 338.151009,56.9078132 C349.661598,66.0450701 358.911596,76.3554245 365.367276,87.5072038 C357.8621,74.5289147 346.568351,62.6871474 332.32558,52.503554 Z M226.867664,29.6884898 C237.818182,42.0766754 246.226314,62.0367828 250.619102,86.2853444 C275.551975,81.6700778 293.494438,73.7207107 298.786344,64.7326018 C299.763713,63.0310291 300.266974,61.3524713 300.266974,59.6984629 C300.266974,58.6551181 300.087457,57.6363225 299.703874,56.599115 C295.292674,44.1326785 265.244342,33.2067099 226.867664,29.6884898 Z M173.141542,29.6884898 C134.754124,33.2067099 104.704258,44.1127322 100.280783,56.599115 C99.9094745,57.6363225 99.7299578,58.6551181 99.7299578,59.6984629 C99.7299578,61.3524713 100.222478,63.0310291 101.222862,64.7326018 C106.496356,73.722245 124.432681,81.6700778 149.377829,86.2853444 C153.770618,62.0352485 162.191024,42.0751411 173.141542,29.6884898 Z M213.584158,19.0821172 C250.503544,20.6238983 283.336398,28.3588921 301.042079,39.5376356 L300.227385,39.0318922 C282.616821,28.2937043 250.939527,20.8328883 215.260145,19.1564539 Z" id="toyota" fill="#FFFFFF"></path>
</svg>