<?xml version="1.0" encoding="UTF-8"?>
<svg width="400px" height="400px" viewBox="0 0 400 400" version="1.1" xmlns="http://www.w3.org/2000/svg">
    <title>volkswagen</title>
    <path d="M199.997139,0 C310.042481,0 400,89.9517972 400,200.188806 C400,310.237009 310.045342,400 199.997139,400 C89.9489365,400 0,310.234148 0,200.185945 C0,89.9517972 89.9489365,0 199.997139,0 Z M198.492412,247.132865 L154.174474,362.061419 L153.988529,365.631571 C168.635304,369.759558 184.034443,371.827843 199.997139,371.827843 C215.018666,371.827843 229.479496,369.951225 243.373908,366.381074 L242.816071,362.061419 L198.492412,247.132865 Z M360.748359,139.341753 L279.055397,352.486662 C333.894984,323.753808 371.636176,266.290962 371.636176,200.188806 C371.636176,178.77934 367.88294,158.308183 360.748359,139.341753 Z M37.9328594,143.09785 C31.5477808,160.937165 28.1664354,180.092401 28.1664354,200.185945 C28.1664354,264.786234 64.2226768,321.496717 117.554675,350.607183 L37.9328594,143.09785 Z M114.550942,51.0777681 C95.9592637,61.7825011 79.6218157,75.8685795 66.0992948,92.580779 L137.837026,278.683507 L164.126843,210.701872 L233.046787,210.701872 L259.333743,278.683507 L331.823838,90.3265487 C319.03258,74.8942378 303.653981,61.8049567 286.375924,51.6441863 L236.05052,190.233576 L165.062292,190.233576 L114.550942,51.0777681 Z M199.997139,28.3551134 C185.489059,28.3374745 171.037802,30.167794 156.992262,33.8020111 L200.560697,153.988529 L243.940326,33.9879565 C229.854247,30.2347203 215.018666,28.3551134 199.997139,28.3551134 Z" id="volkswagen" fill="#FFFFFF"></path>
</svg>