<?xml version="1.0" encoding="UTF-8"?>
<svg width="400px" height="400px" viewBox="0 0 400 400" version="1.1" xmlns="http://www.w3.org/2000/svg">
    <title>volvo</title>
    <path d="M48.7424652,69.1555677 C116.434315,-9.0937063 232.633512,-22.7941731 316.668086,37.5657964 L296.143084,58.1058574 C223.52965,8.86282168 125.461382,22.3569384 68.846308,89.3817152 C12.2312345,156.406492 15.3243179,255.350463 76.015272,318.708141 C136.706226,382.065818 235.425863,389.408157 304.821748,335.725773 C374.217634,282.04339 391.913764,184.645631 345.83678,109.983064 L366.542486,89.2773577 C423.824484,175.439462 405.931474,291.067297 325.285782,355.885565 C244.640091,420.703833 127.869831,413.310421 56.0434365,338.838247 C-15.7829577,264.366074 -18.949385,147.404842 48.7424652,69.1555677 Z M324.302845,177.747195 C337.674967,177.747195 348.547345,185.758421 348.547345,195.606808 C348.547345,205.455196 337.674967,213.466422 324.302845,213.466422 C311.216838,213.466422 300.57034,205.455196 300.57034,195.606808 C300.57034,185.758421 311.216838,177.747195 324.302845,177.747195 Z M144.592369,177.747195 C157.964491,177.747195 168.83687,185.758421 168.83687,195.606808 C168.83687,205.455196 157.964491,213.466422 144.592369,213.466422 C131.506363,213.466422 120.844806,205.455196 120.844806,195.606808 C120.844806,185.758421 131.506363,177.747195 144.592369,177.747195 Z M82.9420689,178.96695 L82.9420689,184.252552 L74.9007254,184.252552 L85.908632,203.060863 L95.9828994,184.252552 L89.9594211,184.252552 L89.9594211,178.96695 L113.737102,178.96695 L113.737102,184.207376 L105.725876,184.207376 L90.6671798,212.44243 L90.5467103,212.653252 L71.9040449,212.653252 L71.798634,212.44243 L56.7399383,184.207376 L48.7287121,184.207376 L48.7287121,178.96695 L82.9420689,178.96695 Z M263.751829,179.418711 L263.751829,183.830908 L255.409312,183.830908 L267.185212,203.934267 L277.500418,183.830908 L271.612468,183.830908 L271.612468,179.418711 L294.637214,179.418711 L294.637214,183.830908 L286.806692,183.830908 L271.59741,212.276785 L253.436622,212.276785 L238.242398,183.830908 L230.396818,183.830908 L230.396818,179.418711 L263.751829,179.418711 Z M212.808261,179.418711 L212.808261,183.830908 L204.947622,183.830908 L204.947622,206.885772 L213.305198,206.885772 C218.825061,206.898831 223.370989,202.552286 223.605346,197.037385 L228.499422,197.037385 L228.499422,212.276785 L181.892759,212.276785 L181.892759,206.885772 L189.753398,206.885772 L189.753398,183.830908 L181.892759,183.830908 L181.892759,179.418711 L212.808261,179.418711 Z M324.302845,183.062915 C319.604532,183.062915 316.171149,188.333458 316.171149,195.621867 C316.171149,202.488632 319.679825,207.668824 324.302845,207.668824 C328.699984,207.668824 332.404423,202.142282 332.43459,195.621867 C332.449599,188.679808 329.001158,183.062915 324.302845,183.062915 Z M144.592369,183.062915 C139.878998,183.062915 136.460674,188.333458 136.460674,195.621867 C136.460674,202.488632 139.954291,207.668824 144.592369,207.668824 C148.989509,207.668824 152.724112,202.142282 152.724112,195.621867 C152.739124,188.679808 149.109978,183.062915 144.592369,183.062915 Z M90.3057711,195.832689 L86.0742776,203.738504 L86.1495711,203.858974 L90.3057711,195.832689 Z M74.2833188,184.101965 L74.1628493,184.101965 L78.327,191.001 L74.2833188,184.101965 Z M394.521543,10.5053201 L394.521543,102.87536 L389.296176,102.87536 C382.688287,90.4821703 374.853667,78.7832118 365.910021,67.9542444 L357.296447,76.5678184 L336.922032,96.8970577 C329.004134,86.3918663 319.909718,76.8275723 309.816379,68.3909466 L330.070325,48.0918247 L338.232138,39.9751877 C327.113764,30.6821306 315.068624,22.5578431 302.287031,15.7306875 L302.287031,10.5053201 L394.521543,10.5053201 Z" id="volvo" fill="#FFFFFF"></path>
</svg>