<?xml version="1.0" encoding="UTF-8"?>
<svg width="400px" height="148px" viewBox="0 0 400 148" version="1.1" xmlns="http://www.w3.org/2000/svg" xmlns:xlink="http://www.w3.org/1999/xlink">
    <title>agla</title>
    <g id="Manufacturers" stroke="none" stroke-width="1" fill="none" fill-rule="evenodd">
        <g id="agla" transform="translate(0, 0.8443)">
            <path d="M26.8145794,0 L373.341221,0 C388.020305,0 400.016917,13.5850962 400,30.1879736 L399.908534,116.396264 C399.891599,132.999141 387.867892,146.584238 373.185421,146.584238 L26.6587793,146.584238 C11.9796951,146.584238 -0.0169168922,132.999141 0,116.396264 L0.0914658246,30.1879736 C0.108400624,13.5850962 12.1321083,0 26.8145794,0 L26.8145794,0 Z" id="Path" fill="#2D4F9B"></path>
            <path d="M26.8044186,8.71126086 L373.33106,8.71126086 C383.220983,8.71126086 391.302269,18.3742575 391.288738,30.1879736 L391.197273,116.396264 C391.187112,128.206593 383.085504,137.872977 373.195581,137.872977 L26.6689402,137.872977 C16.7790173,137.872977 8.69773093,128.206593 8.71126176,116.396264 L8.80272669,30.1879736 C8.81627453,18.3742575 16.9144956,8.71126086 26.8044186,8.71126086 Z" id="Path" fill="#FEFEFE"></path>
            <path d="M26.7942577,17.4225217 L373.320899,17.4225217 C378.421661,17.4225217 382.584234,23.1668057 382.577469,30.1879736 L382.486012,116.396264 C382.479239,123.417432 378.303117,129.161716 373.205742,129.161716 L26.679101,129.161716 C21.5783394,129.161716 17.4157657,123.417432 17.4225314,116.396264 L17.5139875,30.1879736 C17.5207615,23.1668057 21.696883,17.4225217 26.7942577,17.4225217 Z" id="Path" fill="#8FD400"></path>
            <path d="M265.917014,95.0448687 L289.198976,95.0448687 L289.198976,86.994065 L327.078735,86.994065 L327.078735,95.0448687 L349.740884,95.0448687 L349.740884,52.4606219 L265.917014,52.4606219 L265.917014,95.0448687 L265.917014,95.0448687 Z M50.5199118,95.0448687 L73.8018741,95.0448687 L73.8018741,78.8822961 L111.681634,78.8822961 L111.681634,95.0448687 L134.343782,95.0448687 L134.343782,34.7400477 L50.5199118,34.7400477 L50.5199118,95.0448687 Z M236.795932,95.0448687 L256.667226,95.0448687 L256.667226,34.7400477 L236.795932,34.7400477 L236.795932,95.0448687 Z M143.969522,95.0448687 L205.751058,95.0448687 L205.751058,111.834029 L227.793393,111.834029 L227.793393,95.0448687 L227.793393,89.2938108 L227.793393,77.1718813 L165.700257,77.1718813 L165.700257,69.7104087 L227.793393,69.7104087 L227.793393,52.3048217 L143.969522,52.3048217 L143.969522,95.0448687 L143.969522,95.0448687 Z M111.681634,52.3014348 L73.8018741,52.3014348 L73.8018741,59.7629074 L111.681634,59.7629074 L111.681634,52.3014348 Z M327.078735,67.4072759 L289.198976,67.4072759 L289.198976,72.6773855 L327.078735,72.6773855 L327.078735,67.4072759 Z" id="Shape" fill="#FFFFFF"></path>
            <path d="M267.346311,93.6155716 L287.769679,93.6155716 L287.769679,85.564768 L328.508033,85.564768 L328.508033,93.6155716 L348.311587,93.6155716 L348.311587,53.889919 L267.346311,53.889919 L267.346311,93.6155716 L267.346311,93.6155716 Z M289.198976,96.4741658 L264.487716,96.4741658 L264.487716,51.0313248 L351.170181,51.0313248 L351.170181,96.4741658 L325.649438,96.4741658 L325.649438,88.4233621 L290.628273,88.4233621 L290.628273,96.4741658 L289.198976,96.4741658 L289.198976,96.4741658 Z M51.9492089,93.6155716 L72.372577,93.6155716 L72.372577,77.452999 L113.110931,77.452999 L113.110931,93.6155716 L132.914485,93.6155716 L132.914485,36.1693448 L51.9492089,36.1693448 L51.9492089,93.6155716 L51.9492089,93.6155716 Z M73.8018741,96.4741658 L49.0906147,96.4741658 L49.0906147,33.3107506 L135.773079,33.3107506 L135.773079,96.4741658 L110.252337,96.4741658 L110.252337,80.3115931 L75.2311712,80.3115931 L75.2311712,96.4741658 L73.8018741,96.4741658 Z M238.225229,93.6155716 L255.237929,93.6155716 L255.237929,36.1693448 L238.225229,36.1693448 L238.225229,93.6155716 Z M256.667226,96.4741658 L235.366635,96.4741658 L235.366635,33.3107506 L258.096523,33.3107506 L258.096523,96.4741658 L256.667226,96.4741658 Z M145.398819,93.6155716 L207.180355,93.6155716 L207.180355,110.404732 L226.364096,110.404732 L226.364096,78.6011784 L164.27096,78.6011784 L164.27096,68.2811116 L226.364096,68.2811116 L226.364096,53.7341188 L145.398819,53.7341188 L145.398819,93.6155716 L145.398819,93.6155716 Z M204.321761,96.4741658 L142.540225,96.4741658 L142.540225,50.8755247 L229.22269,50.8755247 L229.22269,71.1397057 L167.129554,71.1397057 L167.129554,75.7425842 L229.22269,75.7425842 L229.22269,113.259939 L204.321761,113.259939 L204.321761,96.4741658 Z M110.252337,53.7307319 L75.2311712,53.7307319 L75.2311712,58.3369973 L110.252337,58.3369973 L110.252337,53.7307319 Z M73.8018741,50.8755247 L113.110931,50.8755247 L113.110931,61.1922045 L72.372577,61.1922045 L72.372577,50.8755247 L73.8018741,50.8755247 Z M325.649438,68.836573 L290.628273,68.836573 L290.628273,71.2480885 L325.649438,71.2480885 L325.649438,68.836573 Z M289.198976,65.9813658 L328.508033,65.9813658 L328.508033,74.1066826 L287.769679,74.1066826 L287.769679,65.9813658 L289.198976,65.9813658 Z" id="Shape" fill="#2D4F9B" fill-rule="nonzero"></path>
        </g>
    </g>
</svg>