<?xml version="1.0" encoding="UTF-8"?>
<svg width="400px" height="330px" viewBox="0 0 400 330" version="1.1" xmlns="http://www.w3.org/2000/svg" xmlns:xlink="http://www.w3.org/1999/xlink">
    <title>ALCAMPO</title>
    <g id="Manufacturers" stroke="none" stroke-width="1" fill="none" fill-rule="evenodd">
        <g id="Layer1001" transform="translate(0, 0.743)">
            <path d="M270.211303,243.0757 L297.147283,329.237039 L268.690517,329.237039 L245.336586,251.830162 C240.674828,253.152567 232.423567,254.502721 229.298748,254.408707 L252.800948,329.237039 L226.36817,329.237039 L196.968367,231.50538 L71.5887912,231.360425 L82.2053062,208.105063 L5.62094643,208.153934 C3.15960804,193.383005 21.1829168,185.432008 26.72683,184.387917 C17.7578338,181.024957 6.31797361,167.605838 5.62094643,158.552354 L149.47899,157.864024 C171.423128,140.005136 209.466399,116.224208 236.74613,106.251708 C239.03932,66.294201 262.473597,59.2622197 278.868853,56.0040422 C295.264522,52.7458646 332.34115,52.7458646 358.632286,90.9705368 C363.275406,90.9705368 398.682979,91.9023913 400,100.052184 C399.792921,105.165787 386.243342,106.586762 361.457669,111.064219 C354.754115,116.08795 348.247699,128.354883 345.898184,146.947245 C343.548253,165.54002 321.394137,226.939293 270.211303,243.0757 L270.211303,243.0757 Z" id="path4" fill="#009035"></path>
            <path d="M42.1131975,213.366107 C53.1244046,213.366107 63.0070324,213.366107 74.0178253,213.366107 L61.7181741,237.839506 L128.954169,238.464055 L99.9250375,329.237039 L0,329.237039 L42.1131975,213.366107 Z M336.855467,190.898888 L386.234645,329.237039 L304.334159,329.237039 L278.822467,246.065089 C301.97139,238.211419 318.462316,222.564961 336.855467,190.898888 Z M149.281022,151.669883 L62.7610228,151.91465 L115.754968,0.944279242 C116.214683,0.944279242 116.673155,0.944279242 117.131628,0.944279242 C117.131628,0.714421795 117.131628,0.48580682 117.131628,0.255949373 L275.427618,0 L290.003479,49.8099017 C257.780364,50.4211982 234.513406,62.8107217 231.747248,102.23935 L216.239532,109.720278 L193.173855,38.1095364 L157.032395,144.689672 L149.281022,151.669883 Z" id="path6" fill="#E30016"></path>
            <path d="M295.613657,120.836267 C290.763479,118.472981 286.998854,114.346738 285.089085,109.300736 L304.884988,101.808626 L295.613657,120.836267 Z" id="path8" fill="#FFFFFF"></path>
            <path d="M270.211303,243.0757 L270.531861,244.103225 C262.281428,246.65692 254.03141,249.211444 245.780977,251.76514 C245.658386,251.874477 245.538281,251.981744 245.41569,252.091082 L245.336586,251.830162 C240.674828,253.152567 232.423567,254.502721 229.298748,254.408707 C239.492408,286.871205 217.938821,222.342558 217.375152,220.696282 C223.590001,216.948156 229.804849,213.200444 236.018869,209.452318 C200.906177,209.452318 165.792242,209.452318 130.678721,209.452318 C155.491315,168.721993 201.243301,137.248089 259.983682,111.511509 C253.814391,63.5976211 305.572076,59.3003222 331.958468,65.3772561 C341.261275,70.9224117 350.467584,79.0999528 358.632286,90.9705368 C358.997573,90.9705368 359.550059,90.97882 360.264481,90.9912447 C355.953929,94.7120362 350.36363,97.4173134 345.201156,99.3779353 C350.529293,101.12071 357.379459,105.62633 361.267156,111.208346 C354.631524,116.320707 348.224921,128.528415 345.898184,146.945174 C343.548253,165.537949 321.394137,226.937222 270.211303,243.073629 L270.211303,243.0757 Z M308.117074,113.660987 C299.343146,113.660987 292.187332,106.505173 292.187332,97.731659 C292.187332,88.9577311 299.343146,81.8019167 308.117074,81.8019167 C316.890588,81.8019167 324.046402,88.9577311 324.046402,97.731659 C324.046402,106.505173 316.890588,113.660987 308.117074,113.660987 Z" id="path10" fill="#E30016"></path>
        </g>
    </g>
</svg>