<?xml version="1.0" encoding="UTF-8"?>
<svg width="400px" height="286px" viewBox="0 0 400 286" version="1.1" xmlns="http://www.w3.org/2000/svg" xmlns:xlink="http://www.w3.org/1999/xlink">
    <title>avia</title>
    <g id="Manufacturers" stroke="none" stroke-width="1" fill="none" fill-rule="evenodd">
        <g id="avia" transform="translate(0, 0.1848)" fill="#CC2A31" fill-rule="nonzero">
            <path d="M0.0773834412,178.121704 L399.990015,178.121704 L399.990015,199.454572 L0.0773834412,199.454572 L0.0773834412,178.121704 Z M61.9367078,56.2627542 L71.8517733,100.099226 L52.0191462,100.099226 L61.9367078,56.2627542 L61.9367078,56.2627542 Z M85.3838905,32.3737371 L38.4870289,32.3737371 L0,149.394974 L40.8609532,149.394974 L45.0246816,130.950256 L78.8212755,130.950256 L82.9949888,149.394974 L123.910859,149.394974 L85.3838905,32.3737371 Z M252.552093,32.3637521 L214.090027,149.402463 L253.737807,149.402463 L292.204866,32.3637521 L252.552093,32.3637521 Z M108.516547,32.3637521 L148.199275,32.3637521 L169.397345,103.351826 L190.605401,32.3637521 L230.28064,32.3637521 L191.793611,149.402463 L146.863786,149.352538 L108.516547,32.3637521 Z M337.930991,56.2552655 L347.858538,100.099226 L328.015926,100.099226 L337.930991,56.2552655 L337.930991,56.2552655 Z M361.375678,32.3637521 L314.478816,32.3637521 L275.986795,149.394974 L316.857733,149.402463 L321.011476,130.950256 L354.818055,130.950256 L359.001754,149.402463 L399.912632,149.402463 L361.375678,32.3637521 Z M263.013835,0 L256.091762,21.3228824 L295.534851,21.3228824 L302.541796,0 L263.013835,0 L263.013835,0 Z M0.0124812002,213.693125 L400,213.693125 L400,284.930823 L0.0124812002,284.930823 L0.0124812002,213.693125 L0.0124812002,213.693125 Z" id="Shape"></path>
        </g>
    </g>
</svg>