<?xml version="1.0" encoding="UTF-8"?>
<svg width="400px" height="444px" viewBox="0 0 400 444" version="1.1" xmlns="http://www.w3.org/2000/svg" xmlns:xlink="http://www.w3.org/1999/xlink">
    <title>bonarea</title>
    <g id="Manufacturers" stroke="none" stroke-width="1" fill="none" fill-rule="evenodd">
        <g id="bonarea" fill-rule="nonzero">
            <path d="M255.523162,1.03660512 L145.643019,1.03660512 L135.79527,31.2277292 C157.854433,55.5743676 176.55025,82.7682829 191.38322,112.082928 L199.41691,130.871396 L270.942663,355.166829 L128.409459,355.166829 L173.24263,211.337868 C141.348794,209.944242 110.91301,197.586856 87.0748299,176.352446 L0,443.278264 L400,443.278264 L255.523162,1.03660512 Z" id="Path" fill="#FF8300"></path>
            <path d="M85.3903466,35.5037253 C144.630578,61.1248477 190.605256,110.148866 212.374474,170.910269 C212.180047,169.144544 211.788893,167.406079 211.208293,165.727243 C167.282151,27.2108844 122.189828,6.73793327 22.28701,0 C50.9232264,92.5170068 66.6018788,178.166505 181.924198,199.935212 C186.583414,200.764017 191.325908,201.025072 196.047943,200.712666 C201.364164,211.191244 204.117512,222.78195 204.081633,234.531908 C209.362515,233.986028 214.299142,231.654843 218.075802,227.92355 C200.448854,149.014796 152.879239,80.0295634 85.3903466,35.5037253" id="Path" fill="#4C9C2E"></path>
        </g>
    </g>
</svg>