<?xml version="1.0" encoding="UTF-8"?>
<svg width="400px" height="407px" viewBox="0 0 400 407" version="1.1" xmlns="http://www.w3.org/2000/svg" xmlns:xlink="http://www.w3.org/1999/xlink">
    <title>bp-3</title>
    <g id="Manufacturers" stroke="none" stroke-width="1" fill="none" fill-rule="evenodd">
        <g id="bp-3" transform="translate(0, 0.2842)" fill-rule="nonzero">
            <path d="M121.122154,66.4789774 C122.222696,45.2103684 126.32911,25.9466223 130.5379,12.2509918 C142.564234,20.0400973 158.096944,32.1574315 172.614426,47.74133 C180.915412,28.1306431 191.357761,11.431984 199.994312,0 C208.636551,11.4291402 219.078901,28.1249556 227.388417,47.7327987 C241.903056,32.1517439 257.430079,20.0372535 269.456412,12.248148 C273.665202,25.9409347 277.771616,45.2075246 278.872158,66.470446 C297.840151,56.7930726 316.574955,50.7159209 330.5379,47.5109841 C329.809894,61.8180267 327.082711,81.3263376 320.846308,101.684938 C341.975572,99.0771943 361.660197,99.7767635 375.879083,101.542749 C370.296748,114.737875 361.065848,132.136103 348.240413,149.133359 C368.991454,153.910904 387.242816,161.296194 400,167.819818 C390.245845,178.310512 375.617455,191.497106 357.755691,203.085498 C375.617455,214.671046 390.248688,227.857641 400,238.348334 C387.248503,244.871959 368.991454,252.260092 348.240413,257.034794 C361.065848,274.034893 370.302436,291.430278 375.879083,304.625403 C361.660197,306.388545 341.975572,307.088114 320.846308,304.480371 C327.082711,324.838971 329.809894,344.347282 330.543588,358.654325 C316.580642,355.452232 297.845839,349.37508 278.872158,339.697706 C277.771616,360.963472 273.668046,380.227218 269.4621,393.920005 C257.432922,386.136587 241.903056,374.016409 227.388417,358.435354 C219.084588,378.040353 208.636551,394.739012 200,406.168153 C191.360605,394.736169 180.915412,378.040353 172.608739,358.435354 C158.094101,374.016409 142.567078,386.133743 130.540744,393.922848 C126.334798,380.227218 122.22554,360.963472 121.124998,339.697706 C102.159849,349.377924 83.4250451,355.452232 69.4592558,358.657168 C70.1901065,344.350126 72.9201325,324.841815 79.1593795,304.483215 C58.0272718,307.090958 38.3426467,306.394233 24.1237612,304.628247 C29.7032519,291.430278 38.9398399,274.032049 51.7652746,257.037637 C31.0142331,252.257248 12.7600279,244.874803 0,238.351178 C9.75699925,227.860484 24.3853887,214.67389 42.2499964,203.088342 C24.3853887,191.502794 9.75699925,178.313356 0,167.822662 C12.7571841,161.299037 31.0170769,153.913748 51.7681184,149.14189 C38.9426837,132.141791 29.7032519,114.743562 24.1237612,101.545593 C38.3426467,99.7796073 58.0215843,99.0771943 79.1565357,101.684938 C72.9201325,81.3263376 70.1901065,61.8208705 69.4592558,47.5138279 C83.4193576,50.7187647 102.154161,56.7959163 121.122154,66.4789774 Z" id="Shape" fill="#33A457"></path>
            <path d="M83.8971121,223.55785 C68.8023433,218.493083 54.7341779,211.181732 42.2499964,203.088342 C54.7341779,194.989265 68.8023433,187.680758 83.8971121,182.618834 C71.4442122,172.69974 60.7260163,161.011816 51.7624309,149.136203 C66.2656941,145.797608 81.9860939,143.741558 97.9055582,144.145374 C89.5960415,130.560651 83.516046,115.918042 79.1565357,101.690625 C93.9242702,103.513487 109.402949,106.957301 124.224715,112.781356 C121.062435,97.1775512 120.357178,81.3320252 121.124998,66.4732898 C134.379843,73.2357918 147.748439,81.7642793 159.683772,92.306161 C162.049795,76.5601672 166.801746,61.4341168 172.605895,47.7356425 C182.746804,58.624465 192.390052,71.2110225 200,85.1967183 C207.609948,71.2110225 217.250352,58.6216212 227.394105,47.7356425 C233.198254,61.4341168 237.953049,76.5601672 240.319072,92.306161 C252.248717,81.7642793 265.617313,73.2357918 278.877846,66.4732898 C279.645665,81.3320252 278.943252,97.1747074 275.778129,112.781356 C290.597051,106.957301 306.07573,103.513487 320.846308,101.690625 C316.486798,115.918042 310.403959,130.563494 302.094442,144.145374 C318.013906,143.738714 333.73715,145.797608 348.234725,149.136203 C339.276827,161.01466 328.555788,172.69974 316.102888,182.618834 C331.200501,187.683601 345.268666,194.994952 357.749996,203.088342 C345.268666,211.184575 331.200501,218.495926 316.102888,223.55785 C328.555788,233.476944 339.273984,245.164868 348.234725,257.040481 C333.73715,260.379075 318.013906,262.435126 302.094442,262.03131 C310.403959,275.613189 316.486798,290.258642 320.846308,304.486058 C306.078574,302.663197 290.597051,299.219383 275.778129,293.398171 C278.943252,309.001976 279.642822,324.844659 278.872158,339.703394 C265.620157,332.940892 252.251561,324.412405 240.319072,313.870523 C237.953049,329.616517 233.198254,344.739723 227.388417,358.441041 C217.253196,347.555063 207.609948,334.965661 200,320.979966 C192.390052,334.965661 182.746804,347.555063 172.605895,358.441041 C166.801746,344.742567 162.046951,329.616517 159.680928,313.870523 C147.745596,324.412405 134.379843,332.940892 121.122154,339.703394 C120.351491,324.841815 121.056748,308.999133 124.221871,293.395328 C109.402949,299.222227 93.9242702,302.666041 79.1536919,304.486058 C83.5132022,290.258642 89.5903539,275.616033 97.8998706,262.03131 C81.9832502,262.43797 66.2628503,260.379075 51.7595871,257.037637 C60.7231725,245.164868 71.4442122,233.476944 83.8971121,223.55785 L83.8971121,223.55785 Z" id="Shape" fill="#B1CD49"></path>
            <path d="M185.985866,123.610459 C188.565172,109.914829 193.553157,97.0552688 200,85.1995621 C206.443999,97.0552688 211.431984,109.914829 214.014134,123.610459 C221.123576,111.626783 230.203757,101.246996 240.313384,92.3118486 C242.318247,105.654851 242.608312,119.44717 240.353197,133.196832 C251.133956,124.366904 263.214321,117.718153 275.778129,112.778512 C273.096447,126.00492 268.645936,139.0607 261.82087,151.215004 C274.97334,146.602397 288.603563,144.492315 302.094442,144.148218 C295.050406,155.656984 286.40248,166.403617 275.835004,175.489485 C289.769512,175.654424 303.300203,178.333262 316.091513,182.621678 C305.538256,191.027883 293.742268,198.171451 280.706394,203.091186 C293.742268,208.01092 305.543943,215.151644 316.0972,223.55785 C303.305891,227.849109 289.775199,230.525103 275.840692,230.692886 C286.411011,239.773067 295.05325,250.525388 302.094442,262.034154 C288.603563,261.690057 274.97334,259.579974 261.826558,254.967368 C268.645936,267.115983 273.090759,280.171764 275.772441,293.398171 C263.214321,288.461374 251.133956,281.818311 240.353197,272.985539 C242.608312,286.735202 242.323935,300.524677 240.319072,313.867679 C230.203757,304.932531 221.129264,294.555589 214.019821,282.569068 C211.437672,296.264699 206.449686,309.124259 200,320.979966 C193.553157,309.127103 188.568016,296.267543 185.98871,282.569068 C178.879267,294.555589 169.796243,304.932531 159.683772,313.870523 C157.681753,300.524677 157.391688,286.738045 159.649647,272.985539 C148.866044,281.815467 136.782835,288.464218 124.224715,293.403859 C126.906397,280.177452 131.351221,267.121671 138.176286,254.967368 C125.023817,259.579974 111.393593,261.690057 97.9027144,262.034154 C104.94675,250.525388 113.591833,239.778754 124.159308,230.692886 C110.224801,230.527947 96.6941091,227.851953 83.8999559,223.560693 C94.4532128,215.154488 106.252044,208.01092 119.287918,203.094029 C106.2492,198.171451 94.450369,191.030727 83.8914246,182.624522 C96.6884216,178.333262 110.219113,175.654424 124.156465,175.489485 C113.586145,166.406461 104.943906,155.656984 97.9027144,144.148218 C111.390749,144.492315 125.020973,146.605241 138.170598,151.217848 C131.345533,139.066388 126.90071,126.013451 124.219028,112.787044 C136.777147,117.723841 148.860356,124.369748 159.641115,133.199676 C157.383156,119.44717 157.670378,105.657695 159.675241,92.3146924 C169.790556,101.246996 178.87358,111.626783 185.985866,123.610459 L185.985866,123.610459 Z" id="Shape" fill="#F8D930"></path>
            <path d="M185.818084,164.125752 C183.378269,150.727491 183.435151,136.993738 185.985866,123.616147 C192.958153,135.314427 197.707458,148.200989 199.994312,161.626072 C202.287801,148.20191 207.038721,135.316196 214.008446,123.616147 C216.431344,136.435894 216.741316,149.989336 214.176229,164.122908 C220.923577,152.293892 229.795899,141.811576 240.34751,133.20252 C238.164766,146.644292 233.521919,159.568297 226.651879,171.326195 C237.034269,162.51394 248.955456,155.695773 261.815183,151.215004 C255.170069,163.101872 246.386113,173.658816 235.90553,182.354363 C248.676629,177.624775 262.211908,175.296425 275.829316,175.486641 C265.516238,184.382597 253.649317,191.297977 240.825264,195.885055 C254.445103,195.810585 267.961617,198.251655 280.695019,203.085498 C267.961434,207.91837 254.444925,210.358476 240.825264,210.283098 C253.649171,214.871805 265.515971,221.788079 275.829316,230.684355 C262.211849,230.872158 248.676838,228.54289 235.90553,223.813789 C246.385604,232.509847 255.169475,243.066689 261.815183,254.953149 C248.955804,250.47294 237.034683,243.655776 226.651879,234.844801 C233.522392,246.602478 238.165272,259.526574 240.34751,272.968477 C229.794299,264.359932 220.921735,253.876366 214.176229,242.045244 C216.741316,256.178817 216.431344,269.729415 214.014134,282.554849 C207.041028,270.854843 202.288087,257.967912 199.994312,244.542081 C197.703553,257.967013 192.954517,270.853811 185.985866,282.554849 C183.435619,269.17634 183.377773,255.441916 185.81524,242.042401 C179.071657,253.874021 170.201041,264.358528 159.649647,272.968477 C161.830619,259.526246 166.47358,246.601925 173.345277,234.844801 C162.961848,243.657091 151.039725,250.475242 138.17913,254.955993 C144.825233,243.068164 153.61012,232.510294 164.091626,223.813789 C151.319945,228.541499 137.785195,230.870721 124.16784,230.684355 C134.479004,221.786514 146.345179,214.870042 159.169048,210.283098 C145.549551,210.356586 132.033386,207.916542 119.299293,203.085498 C132.032652,198.25119 145.549077,195.809171 159.169048,195.882211 C146.34602,191.296092 134.48003,184.381656 124.16784,175.486641 C137.215089,175.330234 150.614967,177.374909 164.091626,182.351519 C153.610943,173.656421 144.826134,163.100575 138.17913,151.215004 C151.038487,155.695825 162.960268,162.511852 173.345277,171.320508 C166.472009,159.565139 161.828929,146.641448 159.649647,133.199676 C170.202016,141.809414 179.073602,152.293928 185.818084,164.125752 L185.818084,164.125752 Z" id="Path" fill="#FFFFFF"></path>
        </g>
    </g>
</svg>