<?xml version="1.0" encoding="UTF-8"?>
<svg width="400px" height="233px" viewBox="0 0 400 233" version="1.1" xmlns="http://www.w3.org/2000/svg" xmlns:xlink="http://www.w3.org/1999/xlink">
    <title>campsa</title>
    <g id="Manufacturers" stroke="none" stroke-width="1" fill="none" fill-rule="evenodd">
        <g id="campsa" transform="translate(0, 0.2783)" fill-rule="nonzero">
            <path d="M226.188256,63.2904743 L115.869243,63.2904743 C86.8231308,63.2904743 63.2773407,86.8336376 63.2773407,115.877123 C63.2773407,144.920608 86.8231308,168.466398 115.869243,168.466398 L210.441155,168.253635 C225.043012,168.253635 233.908144,166.919268 243.792438,157.681144 L255.644134,145.792674 C265.536308,136.549297 274.543282,135.319998 289.139885,135.319998 L358.705559,135.351519 C364.255789,135.351519 369.228143,133.145086 372.582446,129.236548 L400,101.913555 L308.0653,101.853141 C302.515071,101.853141 297.096177,103.996533 293.747127,107.905071 L277.453671,124.692347 C267.566751,133.933098 258.701619,135.178156 244.102389,135.178156 L116.202834,135.338385 C109.374643,135.418749 103.030464,131.822005 99.5929588,125.921649 C96.1554538,120.021292 96.1554538,112.728475 99.5929588,106.828118 C103.030464,100.927762 109.374643,97.3310179 116.202834,97.4113815 L183.874654,97.5033162 C189.424883,97.5033162 194.397237,95.2942567 197.748913,91.3883453 L226.188256,63.2904743 L226.188256,63.2904743 Z" id="Path" fill="#E09142"></path>
            <path d="M351.37705,164.978133 L260.180455,164.873064 C254.630226,164.873064 250.524684,166.950789 247.175635,170.8567 L230.742964,187.523148 C220.856043,196.761272 211.990912,197.874995 197.389055,197.874995 L115.869243,197.874995 C70.5822093,197.874995 33.8713702,161.158903 33.8713702,115.871869 C33.8713702,70.584836 70.5822093,33.6034462 115.869243,33.6034462 L234.010586,33.6139531 C239.555561,33.6139531 244.533169,31.2289043 247.882219,27.3256196 L275.155304,0 L115.869243,0 C51.8748112,0 0,51.8800646 0,115.871869 C0,179.866301 51.8774379,231.746365 115.869243,231.746365 L162.157051,231.817286 C176.758908,231.817286 186.782417,229.681775 196.669337,220.441024 L208.518407,208.552554 C218.400074,199.311803 227.843081,198.016837 242.439684,198.016837 L310.119384,198.045731 C315.669613,198.045731 320.641967,195.839298 323.99627,191.933387 L351.37705,164.978133 L351.37705,164.978133 Z" id="Path" fill="#D35D35"></path>
        </g>
    </g>
</svg>