<?xml version="1.0" encoding="UTF-8"?>
<svg width="400px" height="266px" viewBox="0 0 400 266" version="1.1" xmlns="http://www.w3.org/2000/svg" xmlns:xlink="http://www.w3.org/1999/xlink">
    <title>carrefour-2009</title>
    <g id="Manufacturers" stroke="none" stroke-width="1" fill="none" fill-rule="evenodd">
        <g id="carrefour-2009" transform="translate(0, 0.5778)" fill-rule="nonzero">
            <path d="M118.279852,8.95552014 L8.9482192,114.726118 C3.48711326,119.362673 0,124.807808 0,132.598372 C0,140.353799 3.49122004,145.818099 8.9482192,150.490247 L118.279852,256.225252 C118.982568,256.943026 119.661099,257.229132 120.237418,257.229132 C121.273239,257.229132 121.987363,256.287767 121.955877,255.181674 C121.924392,254.530521 121.641937,253.781261 120.99489,253.134215 C95.3320732,221.249625 76.6594532,184.681023 76.6594532,132.982584 C76.6594532,81.2526594 95.3316169,43.9667396 120.994434,12.0588775 C121.641937,11.4191324 121.924392,10.681737 121.955877,10.0146133 C121.991013,8.88524856 121.273239,7.97090409 120.237418,7.97090409 C119.661099,7.95939763 118.982568,8.24185289 118.279852,8.95552014" id="Path" fill="#ED1C24"></path>
            <path d="M202.333792,0 C159.524252,0 142.79779,60.6662796 142.79779,132.974827 C142.79779,205.307102 159.524252,265.165258 202.333792,265.165258 C228.023988,265.165258 249.921344,250.121207 249.992072,237.756603 C250.003479,235.049778 248.960357,232.45703 246.688851,230.193737 C234.512702,218.429179 229.750661,206.672378 229.715069,196.296824 C229.636584,176.490277 246.818443,161.736895 262.658753,161.736895 C284.433818,161.736895 297.27709,178.852132 297.27709,201.015972 C297.27709,222.018506 288.329327,239.510198 278.593063,253.518884 C278.208394,254.091095 278.035909,254.730384 278.035909,255.291644 C278.043666,256.38998 278.691169,257.292103 279.660369,257.292103 C280.248552,257.292103 280.938947,256.978162 281.691857,256.221146 L391.052237,150.48614 C396.51243,145.818099 400,140.349692 400,132.594265 C400,124.807808 396.50878,119.359023 391.051781,114.722011 L281.692769,8.95186967 C280.943054,8.20261032 280.252658,7.88501926 279.660369,7.88501926 C278.683868,7.88501926 278.044123,8.79489938 278.036366,9.89734189 C278.036366,10.4622524 278.20885,11.093784 278.593063,11.6742091 C288.326133,25.6628173 297.277547,43.1741309 297.277547,64.1611501 C297.277547,86.3094756 284.434274,103.440228 262.659209,103.440228 C246.818899,103.440228 229.63704,88.6982531 229.715526,68.8885112 C229.750661,58.5120448 234.513158,46.7438361 246.689307,34.9911419 C248.960813,32.7159853 250.003936,30.1465094 249.992528,27.436034 C249.921344,15.0518082 228.023988,0 202.333792,0" id="Path" fill="#005BAB"></path>
        </g>
    </g>
</svg>