<?xml version="1.0" encoding="UTF-8"?>
<svg width="400px" height="367px" viewBox="0 0 400 367" version="1.1" xmlns="http://www.w3.org/2000/svg" xmlns:xlink="http://www.w3.org/1999/xlink">
    <title>Shape</title>
    <g id="Manufacturers" stroke="none" stroke-width="1" fill="none" fill-rule="evenodd">
        <path d="M291.71193,2.07459799 C290.613329,3.17319918 284.806437,7.88148999 278.685659,12.5897808 C272.721824,17.2980716 267.385761,21.5355333 266.914932,22.0063624 C266.444103,22.4771915 261.264983,26.8715962 255.144205,31.7368301 C242.902649,41.6242408 239.606845,46.8033607 236.938814,60.457404 C235.212441,69.4031565 233.329124,79.1336242 229.248606,99.6931607 C228.150004,104.872281 226.737517,110.365287 225.795859,111.934717 C223.7556,116.172179 221.401454,138.615031 222.500056,145.520525 C224.226429,157.291252 231.916637,165.609232 246.04151,170.631409 C252.633117,173.142497 259.695553,173.456383 300.029911,173.456383 L346.485047,173.456383 L358.726603,164.039802 C365.475153,158.860682 371.752874,153.995448 372.694532,153.05379 C373.63619,152.112132 378.658367,148.188556 383.837487,144.108037 C396.235986,134.534513 400.944277,129.512336 399.845676,126.530418 C398.904018,124.333216 391.684639,124.01933 340.207326,124.01933 C289.357785,124.01933 281.196748,123.705444 279.470374,121.665185 C277.273172,118.997153 278.528716,107.226426 283.39395,85.5682883 C285.905038,74.1114474 288.886956,59.9865749 292.653589,40.3686966 C293.909133,34.2479185 295.635506,24.8313369 296.734107,19.652217 C297.675765,14.4730971 299.088253,8.35231907 299.872968,5.99817367 C300.50074,3.64402826 300.657683,1.44682588 300.186854,0.975996804 C298.617424,-0.593433466 293.909133,0.0343386421 291.71193,2.07459799 L291.71193,2.07459799 Z M190.640621,81.9585987 C182.79347,88.2363198 169.453312,99.0653886 160.821446,106.127825 C135.867505,126.373475 141.046625,124.647102 101.183096,125.58876 C61.0056808,126.530418 68.5389461,123.862387 37.7781128,148.502442 C18.4741205,163.882859 11.5686273,170.474466 13.1380576,172.043896 C13.6088867,172.514725 44.997492,172.828611 82.8207615,172.828611 C155.014554,172.514725 157.525642,172.357782 172.749116,165.138403 C185.147615,159.174568 199.429431,141.440006 199.429431,131.866481 C199.429431,129.826222 200.057203,126.059589 200.998861,123.391558 C202.411348,118.84021 210.415442,78.9766812 210.886272,73.7975613 C211.514044,67.9906693 204.451607,70.9725868 190.640621,81.9585987 L190.640621,81.9585987 Z M49.8627259,196.213122 C43.7419478,199.508926 14.5505448,222.579551 4.5061911,232.153075 C0.268729372,236.076651 -0.829871817,237.959967 0.582615425,238.901626 C1.52427359,239.529398 28.6754172,240.15717 60.6917947,240.15717 C132.728644,240.15717 126.607866,237.175252 120.173202,267.936086 C118.917658,274.213807 116.877398,284.101217 115.621854,289.908109 C114.36631,295.871944 112.326051,306.387127 110.913563,313.606506 C109.658019,320.668943 108.088589,327.103607 107.774703,327.888322 C107.303874,328.673037 106.205273,333.695214 105.263614,339.18822 C104.478899,344.681226 103.066412,352.68532 102.124754,356.922782 C100.241438,366.339363 101.810868,368.850452 107.303874,365.240762 C109.344133,363.828275 112.012165,361.788016 113.267709,360.689415 C114.523253,359.590813 120.487088,354.725579 126.450923,350.017289 C132.571701,345.308998 137.750821,341.071536 138.22165,340.600707 C138.692479,340.129878 142.145226,337.304904 146.068801,334.479929 C160.978389,323.180031 160.978389,323.180031 167.883882,288.024793 C173.376888,260.40282 176.515749,247.376549 178.869894,241.255771 C181.537925,234.350278 180.910153,221.951779 177.61435,215.360172 C172.906059,206.257476 164.117249,198.567268 155.32844,195.58535 C148.57989,193.545091 139.634137,193.074262 101.496982,193.074262 C58.6515354,193.074262 55.3557318,193.231205 49.8627259,196.213122 Z M236.311042,196.527008 C221.401454,201.863071 207.590468,213.319912 203.509949,223.678152 C202.725234,225.404525 201.155804,232.153075 199.90026,238.58774 C198.644715,245.022404 196.604456,255.2237 195.348912,261.344478 C189.698963,288.809508 189.385077,291.948369 191.11145,293.674742 C192.523937,295.087229 193.936425,294.930286 197.075285,292.890027 C200.841918,290.378938 222.656999,273.272149 230.033321,266.994427 C231.916637,265.58194 238.194358,260.559763 244.158193,256.008416 C250.278971,251.300125 255.458091,247.062663 255.92892,246.591834 C256.399749,245.964062 258.596952,244.394632 260.794154,242.982144 C264.403844,240.784942 270.524622,240.314113 300.971569,239.843284 L336.754579,239.372455 L347.897534,229.955873 C354.175255,224.776753 361.551577,218.812918 364.376552,216.615716 C377.873652,206.571362 387.918006,197.311723 387.290234,195.742293 C386.819405,194.329806 368.300128,193.702034 316.195043,193.545091 C248.081769,193.231205 245.413737,193.231205 236.311042,196.527008 L236.311042,196.527008 Z" id="Shape" fill="#C72A2A" fill-rule="nonzero"></path>
    </g>
</svg>