<?xml version="1.0" encoding="UTF-8"?>
<svg width="400px" height="386px" viewBox="0 0 400 386" version="1.1" xmlns="http://www.w3.org/2000/svg" xmlns:xlink="http://www.w3.org/1999/xlink">
    <title>cooperativa</title>
    <defs>
        <linearGradient x1="1.44220638%" y1="61.664439%" x2="72.5692705%" y2="50.1587322%" id="linearGradient-1">
            <stop stop-color="#57BB8A" offset="0%"></stop>
            <stop stop-color="#87CEAC" offset="100%"></stop>
        </linearGradient>
        <linearGradient x1="84.4707576%" y1="71.360826%" x2="28.1020874%" y2="36.5335232%" id="linearGradient-2">
            <stop stop-color="#0D904F" offset="0%"></stop>
            <stop stop-color="#097138" offset="95.5%"></stop>
        </linearGradient>
    </defs>
    <g id="Manufacturers" stroke="none" stroke-width="1" fill="none" fill-rule="evenodd">
        <g id="cooperativa" transform="translate(0, 0.7917)" fill-rule="nonzero">
            <path d="M155.516897,109.527147 C187.385311,128.361513 246.788567,143.46234 283.223897,136.761973 C316.559058,130.628303 341.660434,114.827437 361.061497,89.4927154 C379.962533,64.8246966 384.029423,36.5898157 376.162325,37.2565189 C365.528409,38.1565682 353.027723,45.590309 338.326918,55.1908352 C284.490633,90.3260944 221.087158,113.160679 155.516897,109.527147" id="Path" fill="url(#linearGradient-1)"></path>
            <path d="M10.8756359,194.131784 C-11.3922513,246.367981 4.04192802,306.071253 25.7431175,317.171862 C47.444307,328.27247 104.080745,307.237984 134.149059,257.068567 C176.318038,186.698043 153.316777,151.396108 119.281578,134.02849 C85.246379,116.660871 39.0438466,128.028161 10.8756359,194.131784 L10.8756359,194.131784 Z" id="Path" fill="#C0CA33"></path>
            <path d="M168.984302,300.504281 C184.885174,354.007214 234.054536,389.50916 257.455818,384.27554 C280.857101,379.04192 310.492059,327.572432 301.758247,270.802653 C289.524243,191.064949 249.955407,178.830946 213.286731,187.031395 C176.651389,195.231845 148.849865,232.833906 168.984302,300.504281 Z" id="Path" fill="#C0CA33"></path>
            <path d="M213.286731,187.031395 C185.551877,193.231735 162.950638,216.266331 162.2506,256.368529 C171.817791,245.101245 187.25197,238.300872 202.319463,238.300872 C223.753971,238.300872 243.855073,249.601491 259.455928,264.268962 C277.956942,281.669916 291.424347,304.271155 298.158049,328.772497 C303.024983,311.471549 304.925087,291.503788 301.758247,270.802653 C289.524243,191.064949 249.955407,178.830946 213.286731,187.031395 L213.286731,187.031395 Z" id="Path" fill="#A3B523"></path>
            <path d="M119.248243,134.02849 C103.380706,125.928046 84.8463571,124.094612 66.7453649,131.128331 C68.3787878,131.028325 69.9788755,130.961655 71.5789632,130.961655 C80.5794565,130.99499 90.4799992,132.361732 96.5136633,139.028764 C100.113861,142.995648 101.947294,148.462614 106.18086,151.762795 C108.24764,153.362883 110.747777,154.329603 113.081238,155.529668 C127.282016,162.863404 134.882433,178.964286 137.915933,194.665147 C141.616135,213.899534 139.982713,233.467274 136.582526,252.868337 C175.317983,185.297967 152.616738,151.062757 119.248243,134.02849 L119.248243,134.02849 Z" id="Path" fill="#A3B523"></path>
            <path d="M289.557578,175.264083 C163.784017,151.696125 43.1774065,49.6905337 25.009744,31.5895416 C6.8420815,13.4885494 40.177242,-18.9798969 65.8786508,14.5552746 C91.1133673,47.5237483 179.95157,128.494853 289.557578,156.863075 L289.557578,175.264083 L289.557578,175.264083 Z" id="Path" fill="#87A194"></path>
            <path d="M210.019885,216.266331 C211.953324,216.966369 214.353456,215.932979 215.853538,213.499512 C219.387065,207.7992 214.553467,205.699085 212.586692,202.498909 C209.619863,197.631976 208.186451,191.031614 207.553083,184.697934 C206.686369,176.297473 207.219731,167.496991 207.719759,158.729844 C207.953105,155.029641 208.119781,151.129427 206.853045,148.095928 C204.719594,143.028983 192.952283,130.594968 191.352195,138.362061 C184.718498,170.46382 196.519145,205.165722 208.95316,215.632963 C209.286511,215.899644 209.653198,216.13299 210.019885,216.266331 L210.019885,216.266331 Z" id="Path" fill="#69937D"></path>
            <path d="M110.114409,151.596119 C107.814283,151.596119 105.680832,150.029367 105.047464,147.66257 C103.547382,142.028928 109.447706,141.795582 112.747886,139.762137 C117.748161,136.728638 121.81505,131.861704 124.98189,126.928101 C129.148785,120.427744 132.015609,113.160679 134.882433,105.960285 C136.082499,102.89345 137.415905,99.7266097 139.916042,97.6598297 C144.116272,94.2263082 155.883584,97.4598187 154.583513,104.193521 C151.183326,121.961162 128.648758,146.62918 111.514485,151.396108 C111.047793,151.529449 110.581101,151.596119 110.114409,151.596119 L110.114409,151.596119 Z" id="Path" fill="#87A194"></path>
            <path d="M182.951734,119.727706 C182.951734,119.727706 240.421551,263.235572 337.493539,293.837249 C370.828699,304.337825 393.596614,303.171094 398.530217,290.770415 C407.164024,269.135895 375.895643,221.399946 353.39441,199.165393 C299.991483,146.295829 182.951734,119.727706 182.951734,119.727706 Z" id="Path" fill="url(#linearGradient-2)"></path>
            <path d="M183.05174,119.961052 C185.018514,124.827986 242.121644,263.768935 337.493539,293.837249 C365.128387,302.571061 385.462835,303.204429 394.463328,296.10404 C382.596011,284.036712 359.294734,261.302133 322.026024,228.733681 C273.523366,186.364692 203.91955,135.12855 183.05174,119.961052 Z" id="Path" fill="#212121" opacity="0.37"></path>
        </g>
    </g>
</svg>