<?xml version="1.0" encoding="UTF-8"?>
<svg width="400px" height="371px" viewBox="0 0 400 371" version="1.1" xmlns="http://www.w3.org/2000/svg" xmlns:xlink="http://www.w3.org/1999/xlink">
    <title>eroski</title>
    <g id="Manufacturers" stroke="none" stroke-width="1" fill="none" fill-rule="evenodd">
        <g id="eroski" transform="translate(0, 0.5999)" fill-rule="nonzero">
            <rect id="Rectangle" fill="#D31E17" x="0.00836702555" y="0.0107576043" width="399.991633" height="369.007342" rx="60"></rect>
            <path d="M57.1348316,0 C25.4955221,0 0,25.4955221 0,57.1348316 L0,311.89283 C0,343.53214 25.4955221,369.027662 57.1348316,369.027662 L342.886684,369.027662 C361.306093,369.027662 377.63016,360.394087 388.060255,346.938715 L347.014018,263.165664 C324.675255,288.756809 291.827508,304.936246 255.215795,304.936246 C187.966424,304.936246 133.378754,250.348576 133.378754,183.100401 C133.378754,118.184236 184.244293,65.1014352 248.260406,61.4916614 L218.14509,0 L57.1348316,0 Z" id="Path" fill="#194586"></path>
            <path d="M218.183339,0.114747779 L252.004052,69.1725908 C190.141851,70.4575269 140.334143,121.045759 140.334143,183.215149 C140.334143,187.783333 140.603076,192.289068 141.125963,196.717377 L141.82706,196.660959 C198.25667,192.448759 266.824445,172.190995 288.302599,119.903062 C292.914301,171.141995 271.371748,240.951809 162.677384,251.010598 C183.462365,279.084596 216.822963,297.293566 254.41256,297.293566 C290.179204,297.293566 322.117336,280.80694 343.038485,255.024548 L376.822144,324.045337 C344.04731,352.562551 301.23563,369.829701 254.41256,369.829701 C181.950766,369.829701 119.092803,328.4619 88.1823274,268.069954 C52.2142528,285.320443 25.6327179,314.067782 11.9939309,344.710065 L11.371983,346.127748 L11.6726143,342.506124 C17.4220881,278.133722 42.877951,241.604531 71.6667652,221.153936 C69.1284116,208.906084 67.7968128,196.214589 67.7968128,183.213954 C67.7968128,92.5954812 132.490654,16.9934289 218.183339,0.114747779 Z" id="Combined-Shape" fill="#FFFFFF"></path>
        </g>
    </g>
</svg>