<?xml version="1.0" encoding="UTF-8"?>
<svg width="400px" height="400px" viewBox="0 0 400 400" version="1.1" xmlns="http://www.w3.org/2000/svg" xmlns:xlink="http://www.w3.org/1999/xlink">
    <title>Combined Shape</title>
    <g id="Manufacturers" stroke="none" stroke-width="1" fill="none" fill-rule="evenodd">
        <path d="M199.996398,4.54747351e-13 C219.3603,4.54747351e-13 241.191514,6.59150668 265.291935,19.77452 C287.742679,32.3344019 309.375788,48.8131686 330.176854,69.6178367 C350.97792,90.4189029 367.665598,112.04841 380.020171,134.708065 C393.203184,158.595973 399.794691,180.430789 400,200 C399.794691,219.3603 393.203184,241.195116 380.020171,265.291935 C367.665598,287.746281 350.97792,309.368584 330.176854,330.173252 C309.375788,350.97792 287.742679,367.661996 265.090228,380.016569 C241.191514,393.199582 219.363902,399.791089 199.794691,400.003602 C180.434391,399.791089 158.599575,393.199582 134.502755,380.016569 C112.04841,367.661996 90.4189029,350.974318 69.6178367,330.173252 C48.8167705,309.372186 32.3380038,287.746281 19.77452,265.291935 C6.59150668,241.191514 0,219.3603 0,199.791089 C0,180.430789 6.59150668,158.595973 19.77452,134.499154 C32.3344019,112.04841 48.8167705,90.4225048 69.6178367,69.6178367 C90.4189029,48.8131686 112.04841,32.3380038 134.704463,19.77452 C158.595973,6.59150668 180.430789,4.54747351e-13 199.996398,4.54747351e-13 Z M161.275799,80.7369521 L85.2717646,156.539279 C73.3206066,168.490437 67.3486295,182.905306 67.3486295,199.794691 C67.3486295,216.889385 73.3242085,231.311458 85.2717646,243.255412 L156.33397,314.522926 C168.483233,326.470482 182.905306,332.442459 199.794691,332.442459 C216.885783,332.442459 231.307856,326.46688 243.25181,314.522926 L314.522926,243.255412 C326.470482,231.311458 332.442459,216.892987 332.442459,199.794691 C332.442459,182.905306 326.46688,168.486835 314.522926,156.539279 L254.788748,96.8051003 L175.694269,175.899579 C169.106365,182.491085 165.807009,190.519757 165.807009,199.791089 C165.807009,209.264129 169.102763,217.300004 175.694269,224.09682 C182.491085,230.684724 190.523358,233.98408 199.794691,233.98408 C209.264129,233.98408 217.300004,230.684724 223.89151,224.09682 C230.688326,217.300004 233.987681,209.264129 233.987681,199.791089 C233.987681,190.523358 230.688326,182.491085 223.89151,175.899579 L221.831214,173.633973 L216.885783,178.784713 C215.859237,179.60595 214.829089,180.020171 213.388323,180.020171 C212.149263,180.020171 210.917408,179.609552 210.088967,178.784713 C209.062421,177.758167 208.655405,176.724417 208.655405,175.283651 C208.655405,174.044592 209.062421,172.809134 210.088967,171.984296 L227.803191,154.064762 C228.836941,153.034614 229.863487,152.623996 231.102547,152.623996 C232.425308,152.568302 233.706084,153.094829 234.607211,154.064762 L240.164968,159.622519 C251.496596,170.745236 257.054353,184.133559 257.054353,199.787487 C257.054353,215.646724 251.496596,229.035047 240.164968,240.157764 C229.04225,251.276879 215.452221,257.047149 199.794691,257.047149 C184.140763,257.047149 170.75244,251.276879 159.629723,240.157764 C148.503404,229.035047 142.945647,215.646724 142.945647,199.787487 C142.945647,184.137161 148.507006,170.745236 159.629723,159.622519 L181.460937,137.791305 C186.608075,132.640565 189.082592,126.463278 189.082592,119.252242 C189.082592,112.250117 186.611677,106.069229 181.460937,100.922091 L161.275799,80.7369521 Z" id="Combined-Shape" fill="#E5A430" fill-rule="nonzero"></path>
    </g>
</svg>