<?xml version="1.0" encoding="UTF-8"?>
<svg width="400px" height="412px" viewBox="0 0 400 412" version="1.1" xmlns="http://www.w3.org/2000/svg" xmlns:xlink="http://www.w3.org/1999/xlink">
    <title>meroil</title>
    <g id="Manufacturers" stroke="none" stroke-width="1" fill="none" fill-rule="evenodd">
        <g id="meroil" transform="translate(0, 0.7708)" fill="#F07C00">
            <path d="M39.6815359,255.35928 L0,213.864741 C23.4091561,67.4162029 196.032884,135.487542 194.837851,0 L257.937186,58.8472891 C253.171748,95.6429422 234.661131,130.355643 202.380846,162.976173 C239.62939,153.810607 264.867107,125.687007 280.953087,83.1167073 L337.302562,138.70445 C326.316502,181.396039 309.671035,217.107866 281.746223,238.918651 C317.892214,229.76144 343.222123,201.629773 360.318464,159.06149 L400,195.85916 C394.445461,319.983233 191.269463,289.087549 207.14225,410.862178 L146.031083,355.57377 C146.974029,317.530362 167.38869,278.611711 201.587423,243.615809 C162.547482,255.403936 137.863202,287.961372 120.635488,331.304063 L65.0791479,277.281272 C68.8627455,241.884913 86.1887016,205.154082 119.047201,166.890567 C84.2293437,174.624572 58.5139591,206.035664 39.6815359,255.35928 L39.6815359,255.35928 Z" id="path4"></path>
        </g>
    </g>
</svg>