<?xml version="1.0" encoding="UTF-8"?>
<svg width="400px" height="384px" viewBox="0 0 400 384" version="1.1" xmlns="http://www.w3.org/2000/svg" xmlns:xlink="http://www.w3.org/1999/xlink">
    <title>Naturgy</title>
    <g id="Manufacturers" stroke="none" stroke-width="1" fill="none" fill-rule="evenodd">
        <g id="Naturgy" fill="#ED7004" fill-rule="nonzero">
            <path d="M387.158592,85.8144282 C390.190884,83.1136047 392.90409,82.0946047 394.929765,82.0946047 C397.962057,82.0946047 400,84.4639594 400,88.8466636 C400,118.249189 253.369681,289.188746 210.471026,329.394109 C175.335556,362.504476 150.328459,383.791749 135.806368,383.791749 C131.079927,383.791749 128.035195,381.410069 128.035195,375.677068 C128.035195,353.714189 161.145562,295.608708 161.145562,295.608708 L161.145562,293.914559 L99.99301,347.96869 C85.8013041,360.466248 68.5773629,366.211746 53.0350171,366.211746 C24.6516053,366.211746 0,343.929324 0,292.562778 L0,17.2364947 C0,5.74549822 7.77117294,0 17.5554671,0 C23.3129482,0 30.065007,2.36935468 36.8176365,6.42053292 C79.72428,33.7854012 135.470848,85.4674958 178.369503,156.086511 C185.121562,167.233998 187.834825,178.380915 187.834825,189.527832 C187.834825,225.338908 159.119887,261.482081 129.386977,293.915701 L129.386977,295.941318 L387.158592,85.8144282 Z" id="Path"></path>
        </g>
    </g>
</svg>