<?xml version="1.0" encoding="UTF-8"?>
<svg width="400px" height="196px" viewBox="0 0 400 196" version="1.1" xmlns="http://www.w3.org/2000/svg" xmlns:xlink="http://www.w3.org/1999/xlink">
    <title>petronor</title>
    <g id="Manufacturers" stroke="none" stroke-width="1" fill="none" fill-rule="evenodd">
        <g id="petronor" transform="translate(0, 0.1156)" fill-rule="nonzero">
            <path d="M337.222976,0.00695821591 C371.888808,0.00695821591 400,28.326897 400,62.9996869 C400,68.190516 399.366802,73.2282643 398.183906,78.0503079 C389.738017,110.734893 360.244629,133.561928 326.486449,133.54208 L285.488641,133.590787 L334.51623,28.3338552 L316.793654,28.3199388 L308.6595,45.3884424 L291.45879,45.3884424 L299.585986,28.3199388 L282.37136,28.3199388 L274.244164,45.3884424 L257.17566,45.3884424 L265.038444,28.3199388 L247.69857,28.3338552 L199.060641,133.583829 L233.148941,194.934419 L93.3444665,194.948335 L184.246599,0.076540375 L337.222976,0.00695821591 Z" id="Path" fill="#C6480A"></path>
            <polygon id="Path" fill="#00529C" points="167.136346 0 0 0 0 194.948335 75.635807 194.948335"></polygon>
        </g>
    </g>
</svg>