<?xml version="1.0" encoding="UTF-8"?>
<svg width="400px" height="269px" viewBox="0 0 400 269" version="1.1" xmlns="http://www.w3.org/2000/svg" xmlns:xlink="http://www.w3.org/1999/xlink">
    <title>q8</title>
    <g id="Manufacturers" stroke="none" stroke-width="1" fill="none" fill-rule="evenodd">
        <g id="q8" fill-rule="nonzero">
            <path d="M396.074718,73.3194976 C392.911191,55.5944383 388.406467,38.1351484 382.599385,21.0921608 C375.050376,24.4722181 367.503506,27.8522754 360.439806,31.8010203 C353.373969,35.7497653 346.79344,40.267198 340.212911,44.7867686 C339.086225,38.3131358 337.957401,31.839503 336.638302,25.5005594 C335.319203,19.1637537 333.811967,12.9637751 332.300455,6.76165858 C322.19449,10.6056453 312.375007,15.1872157 302.243387,20.7693343 C292.111767,26.351453 281.674423,32.9362578 269.10557,42.7065689 C256.536717,52.474742 241.842768,65.4305593 227.850058,81.1913324 C213.857347,96.9521056 200.568014,115.52211 189.747982,131.896468 C178.927951,148.270825 170.581497,162.451672 164.601724,173.624461 C158.62409,184.799388 155.017413,192.966257 152.062802,201.37471 C158.831468,208.162618 166.044823,214.495148 176.189271,222.377672 C186.335856,230.262335 199.413535,239.696992 212.566041,247.76124 C225.355951,255.614201 238.746894,262.443353 252.613627,268.184824 L285.633858,268.184824 L288.455917,261.683398 L297.822161,268.184824 L363.174211,268.184824 C369.320741,258.818581 374.193069,248.671995 378.875122,233.952391 C383.557175,219.232786 388.040401,199.946577 391.882249,180.713816 C395.728374,161.485331 398.922432,142.310294 399.766912,124.54201 C400.61353,106.773727 399.102018,90.4079213 396.074718,73.3194976 Z M311.408665,21.534711 C317.354231,18.4838939 323.053935,16.046661 328.749364,13.6072901 C330.378462,19.6362348 331.78094,25.7421447 332.982453,31.9143303 L293.078108,31.9143303 C299.269535,28.2499292 305.467376,24.585528 311.408665,21.534711 L311.408665,21.534711 Z M191.915837,137.485 C194.060174,134.199011 196.544442,130.598748 199.026571,126.998485 L265.235928,126.998485 C263.110832,129.826957 260.98146,132.65543 258.672503,135.943557 C256.363545,139.231684 253.870726,142.97305 251.377907,146.716554 L186.151995,146.716554 C188.021682,143.607455 189.943231,140.52984 191.915837,137.485 L191.915837,137.485 Z M174.733345,166.302073 L239.358501,166.302073 C237.449335,169.532475 235.542307,172.76074 233.795623,176.18997 C232.046802,179.619199 230.4626,183.249394 228.876261,186.87745 L164.210484,186.87745 C167.605598,179.962032 171.113688,173.102654 174.733345,166.302073 L174.733345,166.302073 Z M162.286353,203.728564 L222.505248,203.728564 C221.791182,205.80235 221.102771,207.884688 220.480635,209.885784 C219.858499,211.886881 219.302639,213.804598 218.746779,215.559834 C218.218346,217.220235 217.645893,218.866305 217.030026,220.496299 L183.885796,220.496299 C176.672441,214.967629 169.474052,209.379096 162.286353,203.728564 L162.286353,203.728564 Z M229.395776,250.735091 C226.456131,249.2022 223.516486,247.669309 220.401532,245.830695 C217.286577,243.99208 213.996312,241.845605 210.701772,239.69913 L249.710327,239.69913 C252.87873,241.890501 256.04927,244.084011 258.92264,245.920487 C261.796009,247.76124 264.372207,249.249234 266.948405,250.735091 L229.395776,250.735091 Z M278.23878,109.287925 L211.986664,109.287925 C213.927899,106.600555 215.864858,103.911047 217.791127,101.409676 C219.717396,98.9083057 221.624424,96.5929344 223.53359,94.2754252 L291.325011,94.2754252 C286.995059,99.3075049 282.632893,104.311774 278.23878,109.287925 L278.23878,109.287925 Z M312.424179,74.0335641 C310.085291,76.0945225 307.464196,78.4911349 304.840964,80.8877473 L235.379825,80.8877473 C237.434369,78.6749963 239.484638,76.4643833 241.481459,74.4034249 C243.478279,72.3424665 245.419514,70.4354386 247.360749,68.5284107 L318.872157,68.5284107 C316.817612,70.2494392 314.763068,71.9726057 312.424179,74.0335641 Z M261.986284,55.1385949 C265.214549,52.3742596 268.442814,49.6077864 270.559358,47.8760682 C272.675903,46.1422122 273.682865,45.4431111 274.689827,44.7440101 L336.281269,44.7440101 C336.561337,46.3902113 336.869198,48.0321367 337.179197,49.4752351 C337.489196,50.9204715 337.797057,52.1711568 338.002298,53.0819123 C338.203262,53.9926678 338.303745,54.5634934 338.374296,55.1364569 L261.986284,55.1364569 L261.986284,55.1385949 L261.986284,55.1385949 Z" id="Shape" fill="#F1D944"></path>
            <path d="M211.080184,47.9530335 C212.796937,44.2480118 213.778244,40.2843014 213.994174,36.2949358 C214.210105,32.3055703 213.673486,28.2862739 212.377904,24.4529768 C211.086598,20.6218176 209.040605,16.9745198 206.340408,13.7483931 C203.64021,10.5222663 200.277256,7.71517253 196.465338,5.54945587 C188.862882,1.19022956 179.364087,-0.464523345 170.476739,1.09188507 C166.084926,1.84513673 161.856939,3.35404698 157.980575,5.5515938 C154.229994,7.67917176 150.887688,10.4568257 148.109781,13.7548068 C145.451963,16.919362 143.406081,20.5507664 142.076561,24.4636664 C140.792224,28.2735402 140.245856,32.2933039 140.466704,36.3077634 C140.689048,40.2992668 141.668217,44.2608394 143.38497,47.967999 C145.101723,51.6751586 147.560335,55.1257673 150.540601,58.0290676 C146.990332,60.8478697 143.957077,64.2623618 141.576287,68.1200673 C136.904924,75.7182479 135.269412,84.676148 136.862165,93.1850841 C137.653197,97.4395522 139.23526,101.582848 141.561321,105.388352 C143.953386,109.280574 147.00994,112.722816 150.591911,115.558455 C154.315306,118.503664 158.510868,120.796621 163.00042,122.339949 C167.591724,123.911371 172.411873,124.710394 177.264646,124.704525 C182.119838,124.704525 186.941312,123.898025 191.533149,122.320708 C196.022973,120.774575 200.217951,118.477928 203.939519,115.528524 C207.519582,112.691461 210.572729,109.24681 212.959419,105.352008 C217.611541,97.7452752 219.240639,88.7830993 217.628645,80.2741632 C216.812983,75.9587929 215.212242,71.8297651 212.905971,68.0922743 C210.521798,64.2375607 207.48564,60.8266751 203.933106,58.0119643 C206.905567,55.1199904 209.327327,51.7115614 211.080184,47.9530335 L211.080184,47.9530335 Z M177.238991,24.6453899 C179.725661,24.648085 182.148664,25.4318218 184.165864,26.8859339 C185.192067,27.6277934 186.113512,28.5428247 186.855372,29.5668901 C189.145088,32.7951548 189.649638,36.4638318 188.542193,40.0833365 C187.76626,42.5095659 186.236056,44.6247382 184.174415,46.1208329 C180.978219,48.3913078 177.26037,48.9300646 173.657969,47.8097926 C171.238501,47.0307604 169.133761,45.4941805 167.654679,43.4270491 C165.401308,40.2329912 164.851861,36.4937627 165.972133,32.8934993 C166.746651,30.4746585 168.276873,28.3681673 170.337774,26.883796 C172.344867,25.4291495 174.760197,24.6457385 177.238991,24.6453899 L177.238991,24.6453899 Z M177.234715,69.9009577 C178.754779,69.9009577 180.281256,70.1318534 181.758562,70.6043345 C184.810613,71.5822492 187.470961,73.508605 189.352466,76.1030742 C191.191844,78.6331247 192.182751,81.6806861 192.183085,84.8086992 C192.186356,87.9560651 191.196551,91.0242359 189.354604,93.5763241 C188.413365,94.8788264 187.270989,96.0233669 185.970271,96.967071 C183.429437,98.8080347 180.372387,99.8001172 177.234715,99.8019686 C175.702025,99.8038194 174.178488,99.5657668 172.71942,99.096443 C171.219537,98.6125942 169.805905,97.8938717 168.531228,96.967071 C164.636977,94.140822 162.331877,89.620443 162.331249,84.8086992 C162.331249,83.2843597 162.560007,81.7685718 163.034626,80.2976804 C164.014899,77.2508744 165.943918,74.5974427 168.53978,72.7251548 C171.068056,70.8909974 174.111206,69.9025537 177.234715,69.9009577 L177.234715,69.9009577 Z M123.019109,76.9090714 C126.863226,60.9536573 124.237719,44.1253565 115.715962,30.0992331 C111.468899,23.118007 105.903766,17.030054 99.3309154,12.1748813 C92.7736802,7.34145033 85.3355836,3.83518879 77.4343014,1.85298589 C69.5568693,-0.11242996 61.3712219,-0.519134115 53.337764,0.655748646 C45.2899769,1.84215756 37.5521129,4.59188096 30.5603255,8.74992757 C23.5426238,12.9353217 17.4061207,18.445903 12.4927327,24.9746301 C7.60330133,31.4824697 4.01372752,38.9352715 1.98056214,46.7750376 C-2.12651282,62.6657717 0.208589768,79.535524 8.4777121,93.7131512 C12.6016607,100.767831 18.0584959,106.95297 24.5442083,111.923985 C31.0144123,116.870239 38.3876413,120.506381 46.2505471,122.628569 C54.0892538,124.731406 62.264095,125.277606 70.3128777,124.236287 C78.3687786,123.173123 86.1435336,120.564116 93.21004,116.55259 L105.800272,129.25827 C106.229995,129.69013 106.734545,130.04075 107.523439,130.404197 C109.133295,131.141781 111.487149,131.783158 113.462591,131.778882 C115.479315,131.809261 117.476332,131.378561 119.30126,130.519645 C121.13897,129.658573 122.75628,128.390023 124.030347,126.810347 C127.285662,122.797953 127.940551,117.270085 125.712893,112.60812 C125.325656,111.787736 124.851149,111.011465 124.297588,110.292749 C123.350488,109.121167 122.401249,108.464824 121.452011,107.502759 L112.900317,98.8676852 C117.658469,92.2695946 121.094588,84.8129329 123.019109,76.9090714 L123.019109,76.9090714 Z M82.4477324,68.1136535 C82.0180097,67.6775171 81.5091839,67.3268976 80.7181521,66.9634506 C79.0954681,66.2194531 76.7394762,65.5823519 74.757621,65.5973174 C73.7443134,65.5888872 72.7332305,65.6935809 71.7431487,65.9094542 C70.7521898,66.1284512 69.7890441,66.4583448 68.8719172,66.8928991 C67.0261505,67.7661103 65.4059013,69.0520688 64.1364163,70.6513689 C61.5564994,73.8820973 60.6200117,78.1262977 61.6008389,82.1427085 C61.8467001,83.1817394 62.2186988,84.2507012 62.5821458,85.0460088 C62.9477308,85.8413164 63.3026261,86.3693835 63.7451763,86.8140716 L73.1734196,96.3299698 C68.7072672,97.7409419 64.0083752,98.2653005 59.3410536,97.8735507 C54.6867938,97.4758969 50.1094993,96.1461083 45.9512378,93.9761158 C41.7929763,91.8061233 38.0558858,88.7937889 35.0392755,85.1871117 C25.7342665,74.095727 24.0900866,58.4675604 30.8831519,45.6825586 C35.3442623,37.2766754 42.9687838,30.9930419 52.0721132,28.2199982 C61.1443217,25.4718833 70.9382265,26.4592776 79.2793295,30.9629543 C87.6548903,35.4818361 93.8857118,43.1505395 96.5943731,52.2737772 C97.924135,56.7685175 98.3492313,61.4823627 97.8450585,66.1424879 C97.3298784,70.8054216 95.9101593,75.323106 93.6654177,79.4425109 L82.4477324,68.1136535 L82.4477324,68.1136535 Z" id="Shape" fill="#000000"></path>
            <path d="M384.606895,44.746148 C384.606895,44.746148 383.730347,41.6611242 382.811039,38.58679 C381.207597,33.2355671 379.559257,27.8950338 379.559257,27.8950338 C379.559257,27.8950338 372.628109,30.7042655 366.130959,34.3109427 C357.446713,39.1298226 349.194328,44.746148 349.194328,44.746148 L384.606895,44.746148 Z" id="Path" fill="#37388E"></path>
            <path d="M387.2173,55.1385949 C387.2173,55.1385949 386.648612,52.6072933 386.017925,50.0909571 C385.346617,47.4100009 384.606895,44.7440101 384.606895,44.7440101 L349.194328,44.7440101 C349.194328,44.7440101 345.970339,46.9610369 342.823315,49.2785462 C341.189169,50.4894752 339.576914,51.7296711 337.987332,52.9985333 L338.372158,55.1364569 L387.2173,55.1364569 L387.2173,55.1385949 L387.2173,55.1385949 Z" id="Path" fill="#CA3432"></path>
            <path d="M339.612154,62.3241562 C339.908287,64.3850126 340.152088,66.4530501 340.343324,68.5262728 L390.212531,68.5262728 C390.212531,68.5262728 389.639567,65.3022839 388.929777,62.1103639 C388.145159,58.608445 387.2173,55.1385949 387.2173,55.1385949 L338.37002,55.1385949 C338.372158,55.1385949 339.086225,58.719617 339.612154,62.3241562 L339.612154,62.3241562 Z" id="Path" fill="#37388E"></path>
            <path d="M390.212531,68.5284107 C390.897744,72.6535989 391.610401,76.7741816 392.350455,80.8898852 L304.840964,80.8898852 C304.840964,80.8898852 308.753364,77.2725184 312.753419,73.7470823 C315.767892,71.0896432 318.870019,68.5305486 318.870019,68.5305486 L390.212531,68.5305486 L390.212531,68.5284107 L390.212531,68.5284107 Z" id="Path" fill="#CA3432"></path>
            <path d="M341.666699,87.3891731 C341.688078,90.8312302 341.536285,94.2754252 341.536285,94.2754252 L393.802105,94.2754252 C393.802105,94.2754252 393.551968,91.0835052 393.205624,87.9022748 C392.820798,84.3896662 392.350455,80.8877473 392.350455,80.8877473 L341.452906,80.8877473 C341.452906,80.8877473 341.64532,84.1373912 341.666699,87.3891731 Z" id="Path" fill="#37388E"></path>
            <path d="M284.697447,101.933468 C288.026194,98.115136 291.325011,94.2754252 291.325011,94.2754252 L393.804243,94.2754252 C393.804243,94.2754252 394.276724,98.6111343 394.576033,102.959671 C394.789826,106.119522 394.830446,109.287925 394.830446,109.287925 L278.23878,109.287925 C278.23878,109.287925 281.477734,105.621386 284.697447,101.933468 L284.697447,101.933468 Z" id="Path" fill="#CA3432"></path>
            <path d="M339.787464,117.245277 C339.433405,120.496751 339.075659,123.747822 338.714226,126.998485 L394.488378,126.998485 C394.488378,126.998485 394.800515,123.21436 394.873205,119.425959 C394.973687,114.35908 394.830446,109.287925 394.830446,109.287925 L340.638357,109.287925 C340.638357,109.287925 340.217187,113.266601 339.787464,117.245277 L339.787464,117.245277 Z" id="Path" fill="#37388E"></path>
            <path d="M258.946157,135.550179 C261.999112,131.208056 265.23379,126.996347 265.23379,126.996347 L394.48624,126.996347 C394.48624,126.996347 394.114242,132.433086 393.631071,137.859137 C393.237693,142.291052 392.733143,146.714416 392.733143,146.714416 L251.375769,146.714416 C251.375769,146.714416 255.072239,141.066022 258.946157,135.550179 Z" id="Path" fill="#CA3432"></path>
            <path d="M333.497692,157.277897 C332.473627,161.825261 331.141701,166.302073 331.141701,166.302073 L389.697291,166.302073 C389.697291,166.302073 390.520392,161.128298 391.322113,155.952384 C392.040456,151.334469 392.733143,146.714416 392.733143,146.714416 L335.547961,146.714416 C335.547961,146.714416 334.675688,152.031432 333.497692,157.277897 L333.497692,157.277897 Z" id="Path" fill="#37388E"></path>
            <path d="M233.842658,176.098039 C236.388925,171.09316 239.358501,166.302073 239.358501,166.302073 L389.697291,166.302073 C389.697291,166.302073 388.715984,171.591296 387.685505,176.867691 C386.708474,181.876847 385.677995,186.87745 385.677995,186.87745 L228.878399,186.87745 C228.878399,186.87745 231.148874,181.380848 233.842658,176.098039 Z" id="Path" fill="#CA3432"></path>
            <path d="M321.606561,194.702251 C319.705947,199.2432 317.672782,203.728564 317.672782,203.728564 L381.872491,203.728564 C381.872491,203.728564 382.888005,200.136852 383.708967,196.500244 C384.790757,191.711295 385.675857,186.87745 385.675857,186.87745 L324.72793,186.87745 C324.730068,186.87745 323.233521,190.817643 321.606561,194.702251 L321.606561,194.702251 Z" id="Path" fill="#37388E"></path>
            <path d="M218.701882,215.703075 C219.319742,213.804598 219.849947,211.876191 220.45498,209.971301 C221.449114,206.839243 222.505248,203.726426 222.505248,203.726426 L381.872491,203.726426 C381.872491,203.726426 380.912563,207.94455 379.777326,212.109225 C378.624985,216.327348 377.293058,220.494163 377.293058,220.494163 L217.032164,220.494163 C217.032164,220.496299 217.917264,218.114652 218.701882,215.703075 L218.701882,215.703075 Z" id="Path" fill="#CA3432"></path>
            <path d="M303.387176,230.50392 C300.569392,235.205214 297.398852,239.69913 297.398852,239.69913 L371.43301,239.69913 C371.43301,239.69913 373.102728,235.006387 374.556516,230.247369 C376.033821,225.402834 377.29092,220.494161 377.29092,220.494161 L308.903019,220.494161 C308.903019,220.496299 306.322545,225.603799 303.387176,230.50392 L303.387176,230.50392 Z" id="Path" fill="#37388E"></path>
            <path d="M259.288225,246.159935 C254.428724,243.04498 249.710327,239.701267 249.710327,239.701267 L371.435148,239.701267 C371.435148,239.701267 370.391841,242.480568 369.254465,245.219248 C368.102125,247.996411 366.857853,250.737229 366.857853,250.737229 L266.948405,250.737229 C266.946267,250.735091 263.046695,248.562961 259.288225,246.159935 L259.288225,246.159935 Z" id="Path" fill="#CA3432"></path>
            <path d="M286.91875,254.326803 L299.4085,263.139324 L360.401324,263.139324 C360.401324,263.139324 362.233524,260.015818 363.905381,256.808933 C365.466065,253.815839 366.857853,250.735091 366.857853,250.735091 L289.400879,250.735091 L286.91875,254.326803 L286.91875,254.326803 Z" id="Path" fill="#37388E"></path>
        </g>
    </g>
</svg>