<?xml version="1.0" encoding="UTF-8"?>
<svg width="400px" height="276px" viewBox="0 0 400 276" version="1.1" xmlns="http://www.w3.org/2000/svg" xmlns:xlink="http://www.w3.org/1999/xlink">
    <title>Repsol_logo</title>
    <defs>
        <linearGradient x1="49.4835208%" y1="47.7453135%" x2="54.5888305%" y2="55.1954858%" id="linearGradient-1">
            <stop stop-color="#D85B13" offset="0%"></stop>
            <stop stop-color="#E57B0C" offset="26.9%"></stop>
            <stop stop-color="#EF9407" offset="54.47%"></stop>
            <stop stop-color="#F5A304" offset="79.64%"></stop>
            <stop stop-color="#F7A803" offset="100%"></stop>
        </linearGradient>
        <linearGradient x1="24.0828995%" y1="42.7413063%" x2="78.6632363%" y2="66.2865742%" id="linearGradient-2">
            <stop stop-color="#FDCC54" offset="0%"></stop>
            <stop stop-color="#FCC94D" offset="1.54%"></stop>
            <stop stop-color="#F7B01C" offset="13.64%"></stop>
            <stop stop-color="#F5A709" offset="19.63%"></stop>
            <stop stop-color="#F5A509" offset="49.06%"></stop>
            <stop stop-color="#F39D09" offset="64.79%"></stop>
            <stop stop-color="#F28F0A" offset="77.28%"></stop>
            <stop stop-color="#EF7C0A" offset="88.06%"></stop>
            <stop stop-color="#EB630B" offset="97.66%"></stop>
            <stop stop-color="#EA5C0B" offset="100%"></stop>
        </linearGradient>
        <linearGradient x1="3.73635181%" y1="46.7046008%" x2="93.9813589%" y2="53.55319%" id="linearGradient-3">
            <stop stop-color="#A7A5A4" offset="0%"></stop>
            <stop stop-color="#C5C4C3" offset="5.16%"></stop>
            <stop stop-color="#DFDEDD" offset="10.74%"></stop>
            <stop stop-color="#F1F0F0" offset="16.48%"></stop>
            <stop stop-color="#FBFBFB" offset="22.41%"></stop>
            <stop stop-color="#FFFFFF" offset="28.83%"></stop>
            <stop stop-color="#FDFDFC" offset="51.48%"></stop>
            <stop stop-color="#F5F4F4" offset="64.95%"></stop>
            <stop stop-color="#E7E6E6" offset="76.02%"></stop>
            <stop stop-color="#D3D2D2" offset="85.78%"></stop>
            <stop stop-color="#BAB9B8" offset="94.61%"></stop>
            <stop stop-color="#A7A5A4" offset="100%"></stop>
        </linearGradient>
        <linearGradient x1="8.74626287%" y1="47.3181916%" x2="96.5643518%" y2="57.0547604%" id="linearGradient-4">
            <stop stop-color="#FDCC54" offset="8.59%"></stop>
            <stop stop-color="#F1950A" stop-opacity="0.05" offset="100%"></stop>
        </linearGradient>
        <linearGradient x1="50.0396078%" y1="100.026092%" x2="50.0396078%" y2="0.0141452347%" id="linearGradient-5">
            <stop stop-color="#88181E" stop-opacity="0.3" offset="0%"></stop>
            <stop stop-color="#B21829" stop-opacity="0" offset="49.69%"></stop>
            <stop stop-color="#AA1827" stop-opacity="0.3111" offset="65.34%"></stop>
            <stop stop-color="#931821" stop-opacity="0.8004" offset="89.96%"></stop>
            <stop stop-color="#88181E" offset="100%"></stop>
        </linearGradient>
        <linearGradient x1="26.9557434%" y1="57.2690496%" x2="71.7564535%" y2="36.5658527%" id="linearGradient-6">
            <stop stop-color="#E20334" stop-opacity="0" offset="1.23%"></stop>
            <stop stop-color="#DA0531" stop-opacity="0.041" offset="4.89%"></stop>
            <stop stop-color="#BB0E28" stop-opacity="0.2166" offset="20.59%"></stop>
            <stop stop-color="#A51421" stop-opacity="0.388" offset="35.91%"></stop>
            <stop stop-color="#98181D" stop-opacity="0.5519" offset="50.56%"></stop>
            <stop stop-color="#93191C" stop-opacity="0.7" offset="63.8%"></stop>
            <stop stop-color="#95191D" offset="100%"></stop>
        </linearGradient>
        <linearGradient x1="50.0181894%" y1="100.237398%" x2="50.0181894%" y2="0.484450729%" id="linearGradient-7">
            <stop stop-color="#D7D8D8" offset="0.6135%"></stop>
            <stop stop-color="#D0D1D1" offset="19.14%"></stop>
            <stop stop-color="#BCBDBD" offset="46.42%"></stop>
            <stop stop-color="#9C9D9D" offset="78.94%"></stop>
            <stop stop-color="#838484" offset="100%"></stop>
        </linearGradient>
    </defs>
    <g id="Manufacturers" stroke="none" stroke-width="1" fill="none" fill-rule="evenodd">
        <g id="Repsol_logo" transform="translate(0, 0.064)" fill-rule="nonzero">
            <path d="M59.9384296,153.771675 C60.45299,148.540187 61.2248645,143.308698 62.339802,137.90544 L62.339802,137.734011 C62.1682706,137.734011 61.9967391,137.734011 61.9109904,137.819896 C54.0208154,138.59177 41.5852099,139.535142 32.3229195,140.735829 C16.1997111,142.879887 1.5341623,145.023945 0.333476092,146.481945 C-3.01126829,150.427203 19.1153712,153.342863 52.7335626,153.771948 L59.9376798,153.771948 L59.9384296,153.771675 Z" id="Path" fill="url(#linearGradient-1)"></path>
            <path d="M229.319366,0.0845899282 C176.230836,0.0845899282 123.83075,30.1020178 91.4977663,74.0996865 C91.4977663,74.0996865 16.198416,79.5026041 12.2517948,86.1920928 C0.416702766,108.919246 0.0735035005,147.081845 0.0735035005,147.081845 L0.0735035005,146.99596 C0.159252195,146.824531 0.245034971,146.652897 0.330783665,146.481366 C1.53146987,145.0234 16.1970186,142.879307 32.320227,140.735249 C41.4969732,139.534563 54.018123,138.591191 61.908298,137.819316 C62.0798295,137.819316 62.1655782,137.819316 62.3371096,137.733431 C88.4945512,135.160562 138.410107,131.558571 166.881672,130.786628 C236.779128,128.89985 297.069048,129.414445 338.920955,131.301223 C351.099246,58.2307932 303.24459,0.0845899282 229.31531,0.0845899282 L229.319366,0.0845899282 Z" id="Path" fill="url(#linearGradient-2)"></path>
            <path d="M339.006806,131.301836 C297.240103,129.415058 236.950182,128.814715 166.967523,130.787242 C138.408709,131.559116 88.4951987,135.161243 62.3377572,137.734045 C61.8231968,140.649978 60.8797908,145.452791 60.1079162,151.713536 L60.1079162,152.056599 C59.8506361,154.200657 59.6791046,156.344715 59.5075731,158.488773 L59.5075731,158.917585 C59.4218244,160.975894 59.3360416,163.034272 59.3360416,165.092445 C59.3360416,166.37888 59.3360416,167.665315 59.4217903,168.951818 C59.4217903,170.066722 59.4217903,171.095876 59.507539,172.125031 C59.5932877,174.354872 59.7648192,176.670462 59.9363507,178.900405 C60.0220994,179.500748 60.1078821,180.186874 60.1936308,180.787183 C60.3651623,182.502463 60.6224425,184.217812 60.8797226,185.932786 C60.9654713,186.618878 61.1370028,187.30497 61.2227856,187.991096 C61.4800657,189.620559 61.8231287,191.250057 62.1661575,192.879725 C62.337689,193.565817 62.4234377,194.16616 62.5949692,194.766503 C63.0237808,196.396001 63.4525924,198.111248 63.8814041,199.740678 C63.9671528,199.997992 64.0529355,200.255238 64.1386842,200.598301 C90.4678958,198.025397 122.799516,195.538242 160.96382,193.994697 C161.392631,193.994697 177.687542,193.394354 177.858971,193.394354 C213.194522,192.279451 292.781307,192.879794 314.307092,193.13704 C317.737721,193.13704 319.88178,193.222925 319.88178,193.222925 C337.977617,193.480239 345.353163,193.651736 364.136422,194.680891 C372.798539,195.109703 387.206433,195.710012 387.978376,197.59679 L387.978376,197.682675 C387.978376,197.76856 387.978376,197.76856 387.892491,197.854104 C399.813468,175.813009 399.984897,139.363679 399.984897,139.363679 C400.671023,136.190466 377.943802,133.102934 339.006533,131.302075" id="Path" fill="url(#linearGradient-3)"></path>
            <path d="M318.76248,70.4120837 L334.54283,70.4120837 C319.877281,28.3897704 280.939671,0 229.398435,0 C176.309905,0 123.909818,30.1026994 91.576835,74.0144831 C114.818616,71.870425 145.179993,70.0692252 174.936426,69.5549376 C180.768428,69.4690526 191.917462,67.0678165 198.178208,57.8053897 C209.841871,40.4811543 221.334104,22.9844672 237.627379,17.153147 C237.884659,17.067262 238.227722,16.8958328 238.485002,16.8101182 C263.356213,7.46194272 296.116577,30.5319541 318.76023,70.4132765 L318.76248,70.4120837 Z" id="Path" fill="url(#linearGradient-4)"></path>
            <path d="M314.300208,193.224254 C292.771355,193.052825 213.270455,192.366631 177.849701,193.481568 C177.678169,193.481568 161.469178,194.081911 160.95455,194.081911 C122.790246,195.625626 90.4572624,198.026828 64.1294141,200.685515 C77.5083916,245.110564 117.388351,275.55544 170.732491,275.55544 C227.079199,275.55544 282.737463,241.679253 314.300208,193.221698 L314.300208,193.224254 Z" id="Path" fill="#E4002B"></path>
            <path d="M314.297822,193.224254 C282.651578,241.681127 227.076813,275.557996 170.730105,275.557996 C145.344266,275.557996 123.046879,268.697078 105.120085,256.690216 C85.3948177,243.482668 71.0724682,224.014715 64.0384169,200.68773 C90.3676285,198.11486 122.699249,195.627671 160.863552,194.084127 C161.378113,194.084127 177.673159,193.483783 177.758703,193.483783 C213.264661,192.36888 292.851446,192.969189 314.292028,193.226469 L314.297822,193.224254 Z" id="Path" fill="url(#linearGradient-5)"></path>
            <path d="M314.299424,193.224254 C308.980449,193.138369 300.061357,193.138369 289.083752,193.052825 C263.697913,192.881395 226.735318,192.79551 200.404061,193.052825 C194.572059,197.769684 187.968456,204.802373 184.881025,211.148662 C164.383816,245.79577 157.265583,279.757842 93.8872102,227.958269 C93.8872102,227.958269 83.7670921,227.014863 76.9061741,228.301332 C83.8529771,238.935738 92.772409,248.026599 103.235386,255.402145 C104.00726,255.916706 104.693352,256.345517 105.207912,256.68858 C106.408599,257.460421 107.523502,258.232295 108.724086,259.00417 C125.962436,269.553032 146.973593,275.556463 170.731707,275.556463 C227.078415,275.556463 282.736679,241.680275 314.299424,193.22272 L314.299424,193.224254 Z" id="Path" fill="url(#linearGradient-6)"></path>
            <path d="M388.049879,197.596892 C387.278004,195.710114 372.870042,195.195554 364.207924,194.680993 C345.340144,193.651839 337.964598,193.480307 319.953282,193.223027 C319.953282,193.223027 317.809224,193.223027 314.378595,193.137142 L314.29271,193.137142 L314.378595,193.137142 C311.205382,197.939887 307.860535,202.570862 304.258476,207.116633 C354.000217,205.658667 386.677422,202.142459 388.047493,197.597028 L388.047493,197.597028 L388.049879,197.596892 Z" id="Path" fill="url(#linearGradient-7)"></path>
        </g>
    </g>
</svg>