<?xml version="1.0" encoding="UTF-8"?>
<svg width="400px" height="372px" viewBox="0 0 400 372" version="1.1" xmlns="http://www.w3.org/2000/svg" xmlns:xlink="http://www.w3.org/1999/xlink">
    <title>shell</title>
    <g id="Manufacturers" stroke="none" stroke-width="1" fill="none" fill-rule="evenodd">
        <g id="shell" transform="translate(0, 0.633)">
            <path d="M365.841942,88.5383754 C372.997537,99.2141427 379.116643,110.549235 384.115831,122.389111 C384.115831,122.391387 384.120383,122.384559 384.124935,122.386835 C389.367375,134.600081 393.348999,147.316722 396.007857,160.338896 C398.673242,173.442274 400.010699,186.781003 400,200.152714 C399.989066,206.801147 399.643437,213.444815 398.964362,220.058485 C398.274144,226.830535 397.28464,233.568731 395.998753,240.253306 L395.536728,242.670403 L336.210884,285.638737 L326.613053,361.959366 L224.259699,361.959366 L220.538463,364.44019 C217.672881,366.662407 214.448368,368.378196 211.004359,369.513363 L210.981599,369.513363 C207.497065,370.660459 203.83728,371.211248 199.999968,371.211248 C196.082996,371.211248 192.427763,370.660459 188.945505,369.513363 L188.920469,369.513363 C185.579322,368.416337 182.454394,366.766248 179.461473,364.538058 L175.273659,361.959366 L73.86484,361.959366 L64.1145173,285.652393 L4.47913987,242.670403 L3.99890688,240.301102 C2.6484542,233.600251 1.64115617,226.834794 0.980949839,220.031173 C0.329824766,213.424995 0,206.790904 0,200.152714 C0,186.678879 1.31324375,173.42809 3.9329033,160.45042 C6.57866562,147.407456 10.5299487,134.663768 15.7270612,122.411871 C20.7239236,110.542714 26.843004,99.1779456 34.0009504,88.4723718 C41.1789296,77.7589431 49.388079,67.7736475 58.5110405,58.6592351 C67.5779035,49.5975009 77.4995519,41.4335018 88.1375464,34.2811522 C98.8456538,27.083817 110.213756,20.920792 122.088425,15.8752558 C134.597243,10.5494493 147.310899,6.57557823 160.261257,3.94453876 C173.341678,1.30028308 186.654968,-0.0211334246 199.999968,0 C213.435111,0 226.713212,1.32487921 239.813786,3.99005847 C252.882325,6.65590702 265.647409,10.6379419 277.913786,15.8752558 C289.743294,20.8980286 301.064849,27.0416204 311.723554,34.2219766 C322.320543,41.3708477 332.207425,49.5211525 341.33868,58.6592351 C341.347784,58.6637871 341.334128,58.677443 341.33868,58.6819949 C350.434524,67.8347668 358.639222,77.8319081 365.841942,88.5383754 L365.841942,88.5383754 Z" id="Path" fill="#FFFFFF" fill-rule="nonzero"></path>
            <path d="M378.419039,124.813036 C368.573125,101.541082 354.698716,80.9525151 336.948304,63.0518875 C319.193339,45.299199 298.607048,31.4247902 275.483034,21.578876 C251.318893,11.2868686 226.105524,6.2136965 199.999968,6.2136965 C173.744197,6.2136965 148.683318,11.2868686 124.514626,21.578876 C101.390611,31.4247902 80.6541054,45.299199 62.9036929,63.0518875 C45.0030653,80.9525151 31.2765955,101.541082 21.4306814,124.813036 C11.2866131,148.831513 6.21571696,174.042606 6.21571696,200.150438 C6.21571696,212.98017 7.40833347,225.807625 10.0939966,239.085726 L69.9137289,282.195171 L79.3112738,355.741373 L177.023892,355.741373 L182.841312,359.319223 C187.914484,363.199778 193.433749,364.986427 199.997692,364.986427 C206.413695,364.986427 212.083176,363.199778 217.003857,359.319223 L222.372907,355.741373 L321.132479,355.741373 L330.382085,282.195171 L389.903663,239.085726 C392.441387,225.807625 393.784219,212.977894 393.784219,200.150438 C393.784219,174.042606 388.713322,148.831513 378.419039,124.813036 Z" id="Path" fill="#CC2229"></path>
            <path d="M349.778035,146.892373 C345.897479,130.482516 337.544612,116.457892 324.564665,105.121207 L233.71642,261.611156 L314.122443,90.0541819 C303.382066,75.8816189 289.805812,66.1859198 272.651707,60.6643785 L217.006133,255.195153 L257.734897,52.7576042 C245.053105,45.7452922 231.627065,42.1651667 217.304287,42.1651667 L208.204896,42.7614749 L200.150183,253.401676 L191.6471,42.7614749 L182.695648,42.1651667 C168.375146,42.1651667 154.798892,45.7452922 142.267314,52.7576042 L182.545433,255.195153 L127.350504,60.6666545 C110.194124,66.1881958 96.321991,75.8838949 85.8797686,90.0564579 L166.734161,261.613432 L75.4352702,105.123483 C62.4575997,116.460168 54.1024562,130.484792 50.2241765,146.894649 L151.965289,271.90544 L47.2403593,166.73214 C42.4653413,177.474793 40.0801083,188.663539 40.0801083,200.150438 C40.0801083,206.564166 40.8266316,213.423987 42.6155563,220.736729 L101.392887,263.700511 L109.151722,321.430889 L180.60857,321.430889 L190.752638,329.187448 C193.588516,331.126588 196.572333,332.023326 200.002244,332.171265 C203.284215,332.025602 206.418247,331.126588 208.953696,329.187448 L219.694072,321.430889 L291.449073,321.430889 L298.761815,263.700511 L357.386655,220.736729 C359.027641,213.423987 359.924379,206.564166 359.924379,200.150438 C359.924379,188.663539 357.386655,177.474793 352.764128,166.73214 L248.637782,271.900888 L349.778035,146.892373 Z" id="Path" fill="#F6D330"></path>
        </g>
    </g>
</svg>