<?xml version="1.0" encoding="UTF-8"?>
<svg width="400px" height="242px" viewBox="0 0 400 242" version="1.1" xmlns="http://www.w3.org/2000/svg" xmlns:xlink="http://www.w3.org/1999/xlink">
    <title>tamoil-1</title>
    <g id="Manufacturers" stroke="none" stroke-width="1" fill="none" fill-rule="evenodd">
        <g id="tamoil-1" fill-rule="nonzero">
            <ellipse id="Oval" fill="#FFFFFF" cx="200.005294" cy="121.470707" rx="198.615881" ry="118.660901"></ellipse>
            <path d="M199.999804,0 C89.543225,0 0,54.1220138 0,120.885217 C0,187.648419 89.543225,241.770825 199.999804,241.770825 C310.456775,241.770825 400,187.648419 400,120.885217 C400,54.1220138 310.456775,0 199.999804,0 L199.999804,0 Z M199.997451,239.493568 C91.0808736,239.493568 2.78823803,186.506457 2.78823803,121.143648 C2.78823803,55.780839 91.0808736,2.79372823 199.997451,2.79372823 C308.914421,2.79372823 397.206664,55.780839 397.206664,121.143648 C397.206664,186.506457 308.914813,239.493568 199.997451,239.493568 Z" id="Shape" fill="#000000"></path>
            <path d="M199.826078,231.10454 C283.853612,231.10454 354.985446,198.812744 378.948215,154.285641 L20.704334,154.285641 C44.6667105,198.812744 115.798937,231.10454 199.826078,231.10454 Z M199.826078,11.4227563 C116.750703,11.4227563 46.2800454,42.987101 21.5368839,86.7334184 L378.115273,86.7334184 C353.372111,42.987101 282.901846,11.4227563 199.826078,11.4227563 Z" id="Shape" fill="#106AA9"></path>
            <path d="M20.2596277,96.1255844 L17.6274683,109.198538 L35.4517995,109.198538 L28.0882628,145.77779 L48.2416159,145.77779 L55.6051526,109.198538 L74.6918379,109.198538 L77.3236052,96.1255844 L20.2596277,96.1255844 Z M123.96718,96.1255844 L102.892258,96.1255844 L69.6224212,145.77779 L89.7518527,145.77779 L93.5804839,139.219352 L113.935014,139.219352 L114.844034,145.77779 L135.25974,145.77779 L123.96718,96.1255844 L123.96718,96.1255844 Z M99.6110781,128.887969 L110.027951,111.042854 L112.502463,128.887969 L99.6110781,128.887969 Z M141.053864,145.77779 L151.972306,96.1255844 L176.704095,96.1255844 L180.660177,127.238948 L198.662548,96.1255844 L223.092768,96.1255844 L212.213934,145.77779 L194.198622,145.77779 L194.276269,145.035436 L194.336661,144.530338 L194.419014,143.9072 L194.489602,143.407592 L194.565289,142.907199 L194.643328,142.408375 L194.733916,141.857394 L194.825289,141.327197 L194.900191,140.899354 L194.999015,140.356608 L195.069211,139.981314 L195.153525,139.540137 L195.244505,139.071509 L195.335486,138.614646 L195.414309,138.226018 L195.513917,137.741704 L195.603721,137.311115 L195.690388,136.904056 L195.763329,136.564448 L195.851565,136.158565 L195.940976,135.760133 L196.015486,135.421701 L196.093918,135.076603 L196.159016,134.789544 L196.235487,134.458955 L196.318624,134.100524 L196.402153,133.740915 L196.466859,133.466013 L196.53431,133.184444 L196.619016,132.828758 L196.714311,132.435816 L196.804507,132.067973 L196.886468,131.735031 L196.955879,131.453462 L197.02137,131.192678 L197.108821,130.842481 L197.184507,130.544442 L197.254311,130.267187 L197.334311,129.955422 L197.406076,129.678559 L197.473527,129.41895 L197.555096,129.105225 L197.622155,128.847969 L197.691566,128.58444 L197.756272,128.342479 L197.822155,128.093067 L197.891567,127.834243 L197.9649,127.561694 L198.040978,127.276595 L198.118626,126.991105 L198.179802,126.770713 L198.25392,126.497771 L198.36843,126.083653 L198.447253,125.798555 L198.535489,125.484045 L198.626861,125.156201 L198.743724,124.742475 L198.82843,124.446789 L198.932352,124.084043 L199.014313,123.800121 L199.133136,123.389533 L199.228823,123.060513 L199.328823,122.72012 L199.455098,122.293453 L199.548039,121.980904 L199.644117,121.660119 L199.758235,121.280119 L199.877451,120.885217 L199.977059,120.559726 L200.08451,120.208353 L200.180588,119.896588 L200.263334,119.629529 L200.372353,119.281686 L200.460589,119.001293 L200.544902,118.734234 L200.643726,118.422469 L200.729216,118.156586 L200.818236,117.876978 L200.913138,117.584037 L200.997844,117.322076 L201.097844,117.016193 L201.189217,116.736977 L201.290001,116.431095 L201.399413,116.103643 L201.514707,115.758937 L201.613923,115.462466 L201.694708,115.224427 L201.991178,114.360896 L198.479018,120.433451 L183.820572,145.77779 L169.656245,145.77779 L165.406045,112.484816 L165.372711,112.870699 L165.333495,113.302856 L165.289966,113.76521 L165.25075,114.173837 L165.208789,114.59423 L165.172711,114.944426 L165.141731,115.242466 L165.103299,115.604427 L165.078201,115.835016 L165.053495,116.062075 L165.033887,116.235016 L165.007221,116.475408 L164.983299,116.682467 L164.958593,116.902075 L164.942907,117.037762 L164.91977,117.231095 L164.900946,117.396586 L164.879377,117.576586 L164.859377,117.743645 L164.840162,117.902469 L164.814279,118.115802 L164.785652,118.347959 L164.768397,118.488744 L164.746044,118.666783 L164.728005,118.811881 L164.709573,118.955411 L164.691926,119.092274 L164.671142,119.257372 L164.649181,119.427176 L164.631142,119.565607 L164.611926,119.713451 L164.591142,119.867961 L164.57271,120.013843 L164.549965,120.182079 L164.537024,120.278941 L164.518593,120.418942 L164.493887,120.597373 L164.477416,120.720511 L164.470749,120.772275 L164.44722,120.941687 L164.433495,121.042079 L164.412318,121.192668 L164.39271,121.336197 L164.377024,121.451099 L164.357808,121.585609 L164.335847,121.742864 L164.324867,121.820512 L164.304475,121.962473 L164.287612,122.083649 L164.275063,122.170316 L164.255063,122.308747 L164.235063,122.445218 L164.221337,122.544042 L164.204475,122.659728 L164.184867,122.789924 L164.170749,122.889532 L164.157808,122.977375 L164.14173,123.087572 L164.126043,123.191885 L164.110749,123.296199 L164.0982,123.381297 L164.07271,123.548749 L164.051533,123.689141 L164.021337,123.887965 L163.993886,124.072671 L163.969573,124.231102 L163.944867,124.392279 L163.913494,124.593848 L163.888004,124.755024 L163.865259,124.904436 L163.840161,125.06326 L163.815847,125.220515 L163.781729,125.435809 L163.756631,125.592672 L163.723298,125.8013 L163.693102,125.986398 L163.657808,126.206006 L163.617415,126.453457 L163.596631,126.578948 L163.563298,126.780124 L163.529964,126.982085 L163.501729,127.155811 L163.475062,127.313066 L163.447219,127.476988 L163.420552,127.636988 L163.392709,127.800517 L163.320552,128.221302 L163.270356,128.512283 L163.213886,128.837773 L163.141729,129.246009 L163.084474,129.56797 L163.011925,129.972676 L162.946042,130.33503 L162.869179,130.753069 L162.813493,131.052678 L162.758591,131.347972 L162.701728,131.649541 L162.639767,131.974247 L162.56212,132.378561 L162.49663,132.71464 L162.442512,132.991111 L162.389571,133.259346 L162.337414,133.519347 L162.29114,133.753072 L162.225257,134.076602 L162.177414,134.313857 L162.106826,134.658563 L162.049571,134.933466 L161.998198,135.180133 L161.940551,135.452682 L161.886041,135.711113 L161.831139,135.966016 L161.760159,136.296996 L161.706433,136.543271 L161.639766,136.847585 L161.577021,137.131507 L161.502511,137.461311 L161.435452,137.760527 L161.366433,138.062488 L161.308393,138.313861 L161.234276,138.632685 L161.166825,138.920528 L161.103687,139.186411 L161.051138,139.405235 L160.982903,139.687196 L160.856628,140.202098 L160.749177,140.633079 L160.648785,141.028374 L160.519765,141.526805 L160.415844,141.921708 L160.326824,142.252296 L160.217804,142.653865 L160.15702,142.873473 L160.054275,143.239356 L159.948,143.609553 L159.865255,143.893474 L159.749961,144.280141 L159.666431,144.557004 L159.508,145.064456 L159.27545,145.77779 M255.8128,136.155048 C262.479865,136.164447 268.947715,130.979344 270.248892,124.568357 L271.663796,117.607174 C272.964189,111.19658 268.605754,105.992261 261.929276,105.9828 C255.253191,105.964418 248.78495,111.149521 247.484164,117.559723 L246.07828,124.521691 C244.778279,130.930717 249.127695,136.145232 255.8128,136.155048 M254.645348,146.981713 C248.424949,146.762497 237.246507,145.889555 231.396697,138.206018 C225.545711,130.522481 228.471597,119.611098 228.471597,119.611098 C229.933951,111.776188 231.710031,106.134614 240.694354,99.4487249 C248.738283,93.4655818 265.224966,94.8428381 265.224966,94.8428381 C270.83752,95.0326422 281.408511,95.9632313 287.172831,103.523239 C293.023032,111.196187 290.089304,122.118159 290.089304,122.118159 C288.635969,129.953069 286.850477,135.604839 277.875567,142.280532 C269.213597,148.729558 254.645348,146.981713 254.645348,146.981713 L254.645348,146.981713 Z M295.561858,145.77779 L306.333634,96.1255844 L326.812477,96.1255844 L316.040702,145.77779 M379.970569,134.222485 L352.296032,134.222485 L360.552903,96.1612707 L340.074843,96.1612707 L329.303068,145.813868 L349.781519,145.813868 L349.789755,145.774261 L377.456841,145.813868 L379.970569,134.222485 Z" id="Shape" fill="#EF2842"></path>
        </g>
    </g>
</svg>